# This file uses meters as units for non-parametric coordinates.

v 44.531616 0.000046 0.000000
v 0.000000 0.000023 0.000000
v 44.531616 148.331955 0.000000
v 0.000000 148.331955 0.000000
v -44.531494 0.000000 0.000000
v -44.531494 148.331955 0.000000
vt 0.499257 0.269393
vt 0.499257 0.389312
vt 0.409995 0.389312
vt 0.409995 0.269393
vt 0.499257 0.269393
vt 0.499257 0.389312
vt 0.409995 0.389312
vt 0.409995 0.269393
vn 0.000003 0.000000 1.000000
vn 0.000003 0.000000 1.000000
vn 0.000003 0.000000 1.000000
vn 0.000003 0.000000 1.000000
vn 0.000003 0.000000 1.000000
vn 0.000003 0.000000 1.000000
vn 0.000003 0.000000 1.000000
vn 0.000003 0.000000 1.000000
s off
f 1/1/1 3/2/2 4/3/3 2/4/4
f 2/5/5 4/6/6 6/7/7 5/8/8
