# This file uses meters as units for non-parametric coordinates.

v -5.437054 -4.140167 0.945177
v 5.437050 -4.140167 0.945177
v -5.437054 4.140148 0.945177
v 5.437050 4.140148 0.945177
v -1.300856 -0.165253 -0.945179
v -6.120244 4.770985 0.945177
v 6.120242 4.770985 0.945177
v 6.120242 4.770985 -0.945179
v -6.120244 4.770985 -0.945179
v -6.120244 -4.771004 -0.945179
v 6.120242 -4.771004 -0.945179
v 6.120242 -4.771004 0.945177
v -6.120244 -4.771004 0.945177
vt 0.501047 0.211066
vt 0.542034 0.211066
vt 0.542034 0.243411
vt 0.501047 0.243411
vt 0.501582 0.247921
vt 0.501582 0.247921
vt 0.501582 0.247921
vt 0.501582 0.247921
vt 0.501582 0.247921
vt 0.501582 0.247921
vt 0.501582 0.247921
vt 0.501582 0.247921
vt 0.501582 0.247921
vt 0.501582 0.247921
vt 0.501582 0.247921
vt 0.501582 0.247921
vt 0.501582 0.247921
vn -0.000000 0.000000 1.000000
vn 0.000000 0.000000 1.000000
vn 0.000000 0.000000 1.000000
vn -0.000000 0.000000 1.000000
vn 0.000000 1.000000 0.000000
vn 0.000000 1.000000 0.000000
vn 0.000000 1.000000 0.000000
vn 0.000000 1.000000 0.000000
vn 0.000000 -1.000000 0.000000
vn 0.000000 -1.000000 0.000000
vn 0.000000 -1.000000 0.000000
vn 0.000000 -1.000000 0.000000
vn 1.000000 0.000000 0.000000
vn 1.000000 0.000000 0.000000
vn 1.000000 0.000000 0.000000
vn 1.000000 0.000000 0.000000
vn -1.000000 0.000000 0.000000
vn -1.000000 0.000000 0.000000
vn -1.000000 0.000000 0.000000
vn -1.000000 0.000000 0.000000
vn -0.000000 0.000000 1.000000
vn 0.000000 0.000000 1.000000
vn 0.000000 0.000000 1.000000
vn -0.000000 0.000000 1.000000
vn -0.000000 0.000000 -1.000000
vn -0.000000 0.000000 -1.000000
vn 0.000000 0.000000 -1.000000
vn -0.000000 0.000000 -1.000000
vn 0.000000 0.000000 -1.000000
vn -0.000000 0.000000 -1.000000
vn 0.000000 0.000000 1.000000
vn -0.000000 0.000000 1.000000
vn -0.000000 0.000000 1.000000
vn 0.000000 0.000000 1.000000
vn -0.000000 0.000000 -1.000000
vn 0.000000 0.000000 -1.000000
vn 0.000000 0.000000 -1.000000
vn 0.000000 0.000000 1.000000
vn 0.000000 0.000000 1.000000
vn 0.000000 0.000000 1.000000
vn 0.000000 0.000000 1.000000
vn -0.000000 0.000000 1.000000
vn -0.000000 0.000000 1.000000
vn -0.000000 0.000000 1.000000
vn -0.000000 0.000000 1.000000
vn -0.000000 0.000000 -1.000000
vn -0.000000 0.000000 -1.000000
vn -0.000000 0.000000 -1.000000
s off
f 1/1/1 2/2/2 4/3/3 3/4/4
f 6/5/5 7/6/6 8/7/7 9/8/8
f 10/10/9 11/11/10 12/12/11 13/13/12
f 12/12/13 11/11/14 8/7/15 7/6/16
f 10/10/17 13/13/18 6/5/19 9/8/20
f 3/14/21 4/15/22 7/6/23 6/5/24
f 5/9/25 9/8/26 8/7/27
f 5/9/28 11/11/29 10/10/30
f 2/16/31 1/17/32 13/13/33 12/12/34
f 5/9/35 8/7/36 11/11/37
f 4/15/38 2/16/39 12/12/40 7/6/41
f 1/17/42 3/14/43 6/5/44 13/13/45
f 5/9/46 10/10/47 9/8/48
