# This file uses meters as units for non-parametric coordinates.

v 0.000000 4.843426 14.459103
v -7.080595 -4.114829 12.694878
v 0.000000 -6.244106 14.969574
v -8.616667 4.995918 12.256676
v -0.000000 2.617321 -10.489264
v 0.000000 -8.446941 10.325382
v -11.316540 2.458124 2.994986
v -13.858360 2.920227 -1.654084
v -11.193965 3.798523 -8.886706
v -9.026085 -5.140572 10.025537
v -10.727584 5.376091 8.101644
v -11.667263 6.062088 2.427219
v -10.171663 -2.675018 3.598035
v -0.000000 -1.867913 -7.762620
v 0.000000 -7.495070 7.281721
v -7.014884 -1.988288 -5.638943
v -5.852805 -6.143265 5.072301
v -14.489426 6.823750 -3.131862
v -11.153411 7.392769 -9.816153
v 0.000000 7.302036 -11.485951
v 7.080595 -4.114829 12.694878
v 8.616667 4.995918 12.256676
v 11.316540 2.458124 2.994986
v 13.858360 2.920227 -1.654084
v 11.193965 3.798523 -8.886706
v 9.026085 -5.140572 10.025537
v 10.727584 5.376091 8.101644
v 11.667263 6.062088 2.427219
v 10.171663 -2.675018 3.598036
v 7.014884 -1.988288 -5.638942
v 5.852805 -6.143265 5.072301
v 14.489426 6.823750 -3.131862
v 11.153411 7.392769 -9.816153
v 0.000000 7.136879 1.628780
v -7.815807 -5.223456 -6.974473
v -6.521048 -9.852829 4.959726
v -0.000000 -8.623954 -2.143790
v -0.000000 -5.089340 -9.340621
v 0.000000 -11.358977 7.421405
v 7.815807 -5.223456 -6.974472
v 6.521048 -9.852829 4.959726
vt 0.838517 0.367015
vt 0.864873 0.359089
vt 0.864873 0.400360
vt 0.832799 0.400928
vt 0.821444 0.404896
vt 0.810939 0.407732
vt 0.813288 0.393201
vt 0.822750 0.391481
vt 0.823357 0.409850
vt 0.864873 0.409512
vt 0.864873 0.392074
vt 0.823206 0.396471
vt 0.831275 0.363197
vt 0.864873 0.350889
vt 0.838762 0.374930
vt 0.843087 0.359464
vt 0.827011 0.372374
vt 0.864873 0.375378
vt 0.864873 0.354432
vt 0.824942 0.402343
vt 0.891230 0.367015
vt 0.896947 0.400928
vt 0.908303 0.404896
vt 0.906997 0.391481
vt 0.916459 0.393201
vt 0.918808 0.407732
vt 0.906390 0.409850
vt 0.906541 0.396471
vt 0.898471 0.363197
vt 0.902736 0.372374
vt 0.886659 0.359464
vt 0.890985 0.374930
vt 0.904805 0.402343
vt 0.864873 0.408897
vt 0.840600 0.345656
vt 0.835781 0.362888
vt 0.864873 0.350230
vt 0.864873 0.363387
vt 0.864873 0.340050
vt 0.893966 0.362888
vt 0.889147 0.345656
vn -0.270888 0.024596 0.962297
vn -0.270888 0.024596 0.962297
vn -0.270888 0.024596 0.962297
vn -0.270888 0.024596 0.962297
vn -0.884613 0.011336 0.466188
vn -0.884613 0.011336 0.466188
vn -0.884613 0.011336 0.466188
vn -0.884613 0.011336 0.466188
vn -0.153657 -0.223197 -0.962587
vn -0.153657 -0.223197 -0.962587
vn -0.153656 -0.223197 -0.962587
vn -0.153657 -0.223197 -0.962587
vn -0.349191 -0.819387 0.454610
vn -0.349191 -0.819387 0.454610
vn -0.349191 -0.819387 0.454610
vn -0.349191 -0.819387 0.454610
vn -0.636117 -0.722398 -0.271103
vn -0.636117 -0.722398 -0.271103
vn -0.636117 -0.722398 -0.271103
vn -0.636117 -0.722398 -0.271103
vn -0.197939 -0.551746 -0.810183
vn -0.197939 -0.551746 -0.810183
vn -0.197939 -0.551746 -0.810183
vn -0.197939 -0.551746 -0.810183
vn -0.280878 -0.953939 -0.105394
vn -0.280878 -0.953939 -0.105394
vn -0.280878 -0.953939 -0.105394
vn -0.280878 -0.953939 -0.105394
vn -0.891905 -0.200401 -0.405394
vn -0.891905 -0.200401 -0.405394
vn -0.891905 -0.200401 -0.405394
vn -0.891905 -0.200401 -0.405394
vn -0.697609 -0.677757 -0.232352
vn -0.824099 -0.565920 -0.024420
vn -0.874528 -0.140520 0.464170
vn -0.853639 -0.078847 0.514862
vn -0.853639 -0.078847 0.514862
vn -0.853639 -0.078847 0.514862
vn -0.853639 -0.078847 0.514862
vn -0.978061 -0.111046 0.176253
vn -0.978061 -0.111046 0.176253
vn -0.978061 -0.111046 0.176253
vn -0.978061 -0.111046 0.176253
vn -0.569750 -0.796135 -0.203846
vn -0.569750 -0.796135 -0.203846
vn -0.569750 -0.796135 -0.203846
vn -0.973951 -0.206122 0.094521
vn -0.973951 -0.206121 0.094521
vn -0.973951 -0.206122 0.094521
vn -0.627213 -0.711228 -0.317424
vn -0.824099 -0.565920 -0.024420
vn -0.697609 -0.677757 -0.232352
vn 0.270888 0.024596 0.962297
vn 0.270888 0.024596 0.962297
vn 0.270888 0.024596 0.962297
vn 0.270888 0.024596 0.962297
vn 0.884613 0.011336 0.466188
vn 0.884613 0.011336 0.466188
vn 0.884613 0.011336 0.466188
vn 0.884613 0.011336 0.466188
vn 0.153657 -0.223197 -0.962587
vn 0.153657 -0.223197 -0.962587
vn 0.153657 -0.223197 -0.962587
vn 0.153657 -0.223197 -0.962587
vn 0.349191 -0.819387 0.454610
vn 0.349191 -0.819387 0.454610
vn 0.349191 -0.819387 0.454610
vn 0.349191 -0.819387 0.454610
vn 0.636116 -0.722398 -0.271103
vn 0.636117 -0.722398 -0.271103
vn 0.636117 -0.722398 -0.271103
vn 0.636117 -0.722398 -0.271103
vn 0.197939 -0.551746 -0.810183
vn 0.197939 -0.551746 -0.810183
vn 0.197939 -0.551746 -0.810183
vn 0.197939 -0.551746 -0.810183
vn 0.280878 -0.953939 -0.105394
vn 0.280878 -0.953939 -0.105394
vn 0.280878 -0.953939 -0.105394
vn 0.280878 -0.953939 -0.105394
vn 0.891905 -0.200401 -0.405394
vn 0.891905 -0.200401 -0.405395
vn 0.891905 -0.200401 -0.405395
vn 0.891905 -0.200401 -0.405395
vn 0.697609 -0.677757 -0.232352
vn 0.874529 -0.140520 0.464170
vn 0.824099 -0.565920 -0.024420
vn 0.853640 -0.078847 0.514862
vn 0.853639 -0.078847 0.514862
vn 0.853640 -0.078847 0.514862
vn 0.853639 -0.078847 0.514862
vn 0.978061 -0.111046 0.176253
vn 0.978061 -0.111046 0.176253
vn 0.978061 -0.111046 0.176253
vn 0.978061 -0.111046 0.176253
vn 0.569750 -0.796135 -0.203846
vn 0.569750 -0.796135 -0.203846
vn 0.569750 -0.796135 -0.203846
vn 0.973951 -0.206122 0.094521
vn 0.973951 -0.206122 0.094521
vn 0.973951 -0.206122 0.094521
vn 0.627213 -0.711228 -0.317425
vn 0.697609 -0.677757 -0.232352
vn 0.824099 -0.565920 -0.024420
vn -0.027545 0.984023 0.175897
vn -0.027545 0.984023 0.175897
vn -0.027545 0.984023 0.175897
vn -0.082354 0.987793 0.132219
vn -0.082354 0.987794 0.132219
vn -0.082354 0.987793 0.132219
vn -0.081890 0.987731 0.132971
vn -0.081890 0.987731 0.132971
vn -0.081890 0.987731 0.132971
vn -0.078491 0.981554 0.174332
vn -0.078491 0.981554 0.174332
vn -0.078491 0.981554 0.174332
vn -0.042471 0.997066 0.063682
vn -0.042471 0.997066 0.063682
vn -0.042471 0.997066 0.063682
vn 0.010019 0.999871 0.012592
vn 0.010019 0.999871 0.012592
vn 0.010019 0.999871 0.012592
vn 0.027545 0.984023 0.175897
vn 0.027545 0.984023 0.175897
vn 0.027545 0.984023 0.175897
vn 0.082354 0.987794 0.132219
vn 0.082354 0.987794 0.132219
vn 0.082354 0.987794 0.132219
vn 0.081890 0.987731 0.132971
vn 0.081890 0.987731 0.132971
vn 0.081890 0.987731 0.132971
vn 0.078491 0.981554 0.174332
vn 0.078491 0.981554 0.174332
vn 0.078491 0.981554 0.174332
vn 0.042471 0.997066 0.063682
vn 0.042471 0.997066 0.063682
vn 0.042471 0.997066 0.063682
vn -0.010019 0.999871 0.012592
vn -0.010019 0.999871 0.012592
vn -0.010019 0.999871 0.012592
vn -0.192966 -0.921669 -0.336588
vn -0.192966 -0.921669 -0.336588
vn -0.192966 -0.921669 -0.336588
vn -0.117242 -0.891397 -0.437796
vn -0.117242 -0.891397 -0.437796
vn -0.117242 -0.891397 -0.437796
vn -0.117468 -0.954811 -0.273014
vn -0.117468 -0.954811 -0.273014
vn -0.117468 -0.954811 -0.273014
vn 0.192966 -0.921669 -0.336588
vn 0.192966 -0.921669 -0.336588
vn 0.192966 -0.921669 -0.336588
vn 0.117242 -0.891397 -0.437796
vn 0.117242 -0.891397 -0.437796
vn 0.117242 -0.891397 -0.437796
vn 0.117468 -0.954811 -0.273014
vn 0.117468 -0.954811 -0.273014
vn 0.117468 -0.954811 -0.273014
vn -0.970539 0.169641 0.171100
vn -0.970539 0.169641 0.171100
vn -0.970539 0.169641 0.171100
vn -0.970539 0.169641 0.171100
vn -0.269113 0.423675 -0.864915
vn -0.269113 0.423675 -0.864915
vn -0.269113 0.423675 -0.864915
vn -0.269113 0.423675 -0.864915
vn -0.346106 0.033895 0.937583
vn -0.346106 0.033895 0.937583
vn -0.346106 0.033895 0.937583
vn -0.346106 0.033895 0.937583
vn 0.970539 0.169641 0.171100
vn 0.970539 0.169641 0.171100
vn 0.970539 0.169641 0.171100
vn 0.970539 0.169641 0.171100
vn 0.269113 0.423675 -0.864915
vn 0.269113 0.423675 -0.864915
vn 0.269113 0.423675 -0.864915
vn 0.269113 0.423675 -0.864915
vn 0.346107 0.033895 0.937583
vn 0.346107 0.033895 0.937583
vn 0.346107 0.033895 0.937583
vn 0.346107 0.033895 0.937583
s off
f 2/1/1 3/2/2 1/3/3 4/4/4
f 12/5/5 18/6/6 8/7/7 7/8/8
f 19/9/9 20/10/10 5/11/11 9/12/12
f 10/13/13 6/14/14 3/2/15 2/1/16
f 9/12/17 16/15/18 17/16/19 13/17/20
f 9/12/21 5/11/22 14/18/23 16/15/24
f 10/13/25 17/16/26 15/19/27 6/14/28
f 18/6/29 19/9/30 9/12/31 8/7/32
f 8/7/33 13/17/34 7/8/35
f 4/4/36 11/20/37 10/13/38 2/1/39
f 10/13/40 11/20/41 12/5/42 7/8/43
f 13/17/44 17/16/45 10/13/46
f 7/8/47 13/17/48 10/13/49
f 9/12/50 13/17/51 8/7/52
f 21/21/53 22/22/54 1/3/55 3/2/56
f 28/23/57 23/24/58 24/25/59 32/26/60
f 33/27/61 25/28/62 5/11/63 20/10/64
f 26/29/65 21/21/66 3/2/67 6/14/68
f 25/28/69 29/30/70 31/31/71 30/32/72
f 25/28/73 30/32/74 14/18/75 5/11/76
f 26/29/77 6/14/78 15/19/79 31/31/80
f 32/26/81 24/25/82 25/28/83 33/27/84
f 24/25/85 23/24/86 29/30/87
f 22/22/88 21/21/89 26/29/90 27/33/91
f 26/29/92 23/24/93 28/23/94 27/33/95
f 29/30/96 26/29/97 31/31/98
f 23/24/99 26/29/100 29/30/101
f 25/28/102 24/25/103 29/30/104
f 4/4/105 1/3/106 34/34/107
f 11/20/108 4/4/109 34/34/110
f 12/5/111 11/20/112 34/34/113
f 18/6/114 12/5/115 34/34/116
f 19/9/117 18/6/118 34/34/119
f 20/10/120 19/9/121 34/34/122
f 1/3/123 22/22/124 34/34/125
f 22/22/126 27/33/127 34/34/128
f 27/33/129 28/23/130 34/34/131
f 28/23/132 32/26/133 34/34/134
f 32/26/135 33/27/136 34/34/137
f 33/27/138 20/10/139 34/34/140
f 36/35/141 35/36/142 37/37/143
f 35/36/144 38/38/145 37/37/146
f 39/39/147 36/35/148 37/37/149
f 40/40/150 41/41/151 37/37/152
f 38/38/153 40/40/154 37/37/155
f 41/41/156 39/39/157 37/37/158
f 17/16/159 16/15/160 35/36/161 36/35/162
f 16/15/163 14/18/164 38/38/165 35/36/166
f 15/19/167 17/16/168 36/35/169 39/39/170
f 30/32/171 31/31/172 41/41/173 40/40/174
f 14/18/175 30/32/176 40/40/177 38/38/178
f 31/31/179 15/19/180 39/39/181 41/41/182
