# This file uses meters as units for non-parametric coordinates.

v 5.261141 3.037529 -0.944417
v 0.000001 6.075039 -0.944417
v -5.261140 3.037529 -0.944417
v -5.261141 -3.037529 -0.944419
v -0.000001 -6.075058 -0.944419
v 5.261140 -3.037529 -0.944419
v 5.261141 3.037529 0.944417
v 0.000001 6.075039 0.944417
v -5.261140 3.037529 0.944417
v -5.261141 -3.037529 0.944419
v -0.000001 -6.075058 0.944419
v 5.261140 -3.037529 0.944419
v -0.000000 -0.000019 -0.944417
v -0.000000 -0.000019 0.944417
v 6.204931 3.582401 -0.944417
v 0.000001 7.164841 -0.944417
v 0.000001 7.164841 0.944417
v 6.204931 3.582401 0.944417
v -6.204929 3.582401 -0.944417
v -6.204929 3.582401 0.944417
v -6.204931 -3.582401 -0.944419
v -6.204931 -3.582401 0.944419
v -0.000001 -7.164841 -0.944419
v -0.000001 -7.164841 0.944419
v 6.204929 -3.582401 -0.944419
v 6.204929 -3.582401 0.944419
vt 0.502858 0.248798
vt 0.502858 0.248798
vt 0.502858 0.248798
vt 0.502858 0.248798
vt 0.502858 0.248798
vt 0.502858 0.248798
vt 0.502858 0.248798
vt 0.502858 0.248798
vt 0.502858 0.248798
vt 0.502858 0.248798
vt 0.502858 0.248798
vt 0.502858 0.248798
vt 0.502858 0.248798
vt 0.502858 0.248798
vt 0.502858 0.248798
vt 0.502858 0.248798
vt 0.502858 0.248798
vt 0.502858 0.248798
vt 0.502858 0.248798
vt 0.502858 0.248798
vt 0.509614 0.239630
vt 0.511954 0.240982
vt 0.509614 0.242333
vt 0.511954 0.243684
vt 0.507274 0.240982
vt 0.509614 0.245035
vt 0.507274 0.243684
vt 0.540449 0.238179
vt 0.521778 0.248958
vt 0.521778 0.227399
vt 0.503106 0.238179
vt 0.540449 0.216619
vt 0.503106 0.216619
vt 0.521778 0.205839
vt 0.502858 0.248798
vt 0.502858 0.248798
vt 0.502858 0.248798
vt 0.502858 0.248798
vn 0.500002 0.866024 0.000000
vn 0.500002 0.866024 0.000000
vn 0.500002 0.866024 0.000000
vn 0.500002 0.866024 0.000000
vn -0.500002 0.866024 0.000000
vn -0.500002 0.866024 0.000000
vn -0.500002 0.866024 0.000000
vn -0.500002 0.866024 0.000000
vn -1.000000 0.000000 0.000000
vn -1.000000 0.000000 0.000000
vn -1.000000 0.000000 0.000000
vn -1.000000 0.000000 0.000000
vn -0.500002 -0.866024 0.000000
vn -0.500002 -0.866024 0.000000
vn -0.500002 -0.866024 0.000000
vn -0.500002 -0.866024 0.000000
vn 0.500002 -0.866024 0.000000
vn 0.500002 -0.866024 0.000000
vn 0.500002 -0.866024 0.000000
vn 0.500002 -0.866024 0.000000
vn 1.000000 -0.000000 0.000000
vn 1.000000 -0.000000 0.000000
vn 1.000000 -0.000000 0.000000
vn 1.000000 -0.000000 0.000000
vn 0.000000 0.000000 -1.000000
vn -0.000000 0.000000 -1.000000
vn 0.000000 0.000000 -1.000000
vn 0.000000 0.000000 -1.000000
vn 0.000000 0.000000 -1.000000
vn 0.000000 0.000000 -1.000000
vn 0.000000 0.000000 -1.000000
vn 0.000000 0.000000 -1.000000
vn 0.000000 0.000000 -1.000000
vn 0.000000 0.000000 -1.000000
vn 0.000000 0.000000 -1.000000
vn 0.000000 0.000000 -1.000000
vn -0.000000 0.000000 -1.000000
vn 0.000000 0.000000 -1.000000
vn 0.000000 0.000000 -1.000000
vn -0.000000 0.000000 -1.000000
vn -0.000000 0.000000 -1.000000
vn 0.000000 0.000000 -1.000000
vn -0.000000 0.000000 1.000000
vn -0.000000 0.000000 1.000000
vn -0.000000 0.000000 1.000000
vn -0.000000 0.000000 1.000000
vn 0.000000 0.000000 1.000000
vn -0.000000 0.000000 1.000000
vn 0.000000 0.000000 1.000000
vn 0.000000 0.000000 1.000000
vn -0.000000 0.000000 1.000000
vn 0.000000 0.000000 1.000000
vn -0.000000 0.000000 1.000000
vn -0.000000 0.000000 1.000000
vn -0.000000 0.000000 1.000000
vn -0.000000 0.000000 1.000000
vn -0.000000 0.000000 1.000000
vn -0.000000 0.000000 1.000000
vn -0.000000 0.000000 1.000000
vn -0.000000 0.000000 1.000000
vn -0.000000 0.000000 -1.000000
vn 0.000000 0.000000 -1.000000
vn 0.000000 0.000000 -1.000000
vn 0.000000 0.000000 -1.000000
vn -0.000000 0.000000 1.000000
vn -0.000000 0.000000 1.000000
vn 0.000000 0.000000 1.000000
vn -0.000000 0.000000 1.000000
vn 0.000000 0.000000 -1.000000
vn 0.000000 0.000000 -1.000000
vn -0.000000 0.000000 -1.000000
vn 0.000000 0.000000 -1.000000
vn 0.000000 0.000000 1.000000
vn -0.000000 0.000000 1.000000
vn -0.000000 0.000000 1.000000
vn -0.000000 0.000000 1.000000
vn 0.000000 0.000000 -1.000000
vn 0.000000 0.000000 -1.000000
vn -0.000000 0.000000 -1.000000
vn -0.000000 0.000000 -1.000000
vn 0.000000 0.000000 1.000000
vn 0.000000 0.000000 1.000000
vn -0.000000 0.000000 1.000000
vn -0.000000 0.000000 1.000000
vn 0.000000 0.000000 -1.000000
vn 0.000000 0.000000 -1.000000
vn 0.000000 0.000000 -1.000000
vn -0.000000 0.000000 -1.000000
vn -0.000000 0.000000 1.000000
vn 0.000000 0.000000 1.000000
vn -0.000000 0.000000 1.000000
vn -0.000000 0.000000 1.000000
vn 0.000000 0.000000 -1.000000
vn -0.000000 0.000000 -1.000000
vn 0.000000 0.000000 -1.000000
vn 0.000000 0.000000 -1.000000
vn -0.000000 0.000000 1.000000
vn -0.000000 0.000000 1.000000
vn -0.000000 0.000000 1.000000
vn 0.000000 0.000000 1.000000
vn -0.000000 0.000000 -1.000000
vn -0.000000 0.000000 -1.000000
vn 0.000000 0.000000 -1.000000
vn 0.000000 0.000000 -1.000000
vn -0.000000 0.000000 1.000000
vn -0.000000 0.000000 1.000000
vn 0.000000 0.000000 1.000000
vn 0.000000 0.000000 1.000000
s off
f 15/1/1 16/2/2 17/3/3 18/4/4
f 16/2/5 19/5/6 20/6/7 17/3/8
f 19/5/9 21/7/10 22/8/11 20/6/12
f 21/7/13 23/9/14 24/10/15 22/8/16
f 23/9/17 25/11/18 26/12/19 24/10/20
f 25/11/21 15/1/22 18/4/23 26/12/24
f 2/21/25 1/22/26 13/23/27
f 3/25/28 2/21/29 13/23/30
f 4/27/31 3/25/32 13/23/33
f 5/26/34 4/27/35 13/23/36
f 6/24/37 5/26/38 13/23/39
f 1/22/40 6/24/41 13/23/42
f 7/28/43 8/29/44 14/30/45
f 8/29/46 9/31/47 14/30/48
f 9/31/49 10/33/50 14/30/51
f 10/33/52 11/34/53 14/30/54
f 11/34/55 12/32/56 14/30/57
f 12/32/58 7/28/59 14/30/60
f 1/13/61 2/14/62 16/2/63 15/1/64
f 8/15/65 7/16/66 18/4/67 17/3/68
f 2/14/69 3/17/70 19/5/71 16/2/72
f 9/18/73 8/15/74 17/3/75 20/6/76
f 3/17/77 4/19/78 21/7/79 19/5/80
f 10/20/81 9/18/82 20/6/83 22/8/84
f 4/19/85 5/35/86 23/9/87 21/7/88
f 11/36/89 10/20/90 22/8/91 24/10/92
f 5/35/93 6/37/94 25/11/95 23/9/96
f 12/38/97 11/36/98 24/10/99 26/12/100
f 6/37/101 1/13/102 15/1/103 25/11/104
f 7/16/105 12/38/106 26/12/107 18/4/108
