# This file uses meters as units for non-parametric coordinates.

v 0.000000 -0.657653 -19.859344
v 16.818302 3.564053 -16.592224
v 24.644102 12.025909 0.099781
v 14.880111 13.287029 21.987661
v 0.013766 13.456087 25.836588
v 0.000000 1.270819 -20.554789
v 16.818302 5.483389 -17.338432
v 24.644102 13.945246 -0.646423
v 14.880111 15.206356 21.241461
v 0.013766 15.384541 25.141144
v 0.000000 9.903727 0.621680
v 0.000000 6.277199 -17.224934
v 12.173454 8.050051 -12.640160
v 16.180288 12.971468 -0.278473
v 11.416753 16.797619 10.331420
v 0.000000 18.382492 14.726195
v 0.000000 18.179493 -17.525364
v 0.000000 22.951813 -4.291845
v 6.249618 21.280525 -14.582821
v 10.861361 26.690018 -5.959176
v 6.249618 28.029575 4.132170
v 0.000000 27.724121 8.941672
v 6.295022 26.696594 -5.961544
v 0.000000 23.027611 11.798015
v 8.224859 23.354370 7.020482
v 12.547997 20.828876 -3.318174
v 8.224859 16.174507 -12.889122
v 0.000000 12.873735 -16.358473
v 0.000000 22.816345 13.047549
v 9.066463 22.999947 7.977981
v 13.721979 20.190002 -3.087788
v 9.668595 15.530214 -13.489407
v 0.000000 11.913595 -17.185581
v -16.818302 3.564053 -16.592224
v -24.644102 12.025909 0.099781
v -14.880111 13.287029 21.987661
v -16.818302 5.483389 -17.338432
v -24.644102 13.945246 -0.646423
v -14.880111 15.206356 21.241461
v -12.173454 8.050051 -12.640160
v -16.180288 12.971468 -0.278473
v -11.416753 16.797619 10.331420
v -6.249618 21.280525 -14.582821
v -10.861361 26.690018 -5.959176
v -6.249618 28.029575 4.132170
v -6.295022 26.696594 -5.961544
v -8.224859 23.354370 7.020482
v -12.547997 20.828876 -3.318174
v -8.224859 16.174507 -12.889122
v -9.066463 22.999947 7.977981
v -13.721979 20.190002 -3.087788
v -9.668595 15.530214 -13.489407
vt 0.374080 0.364452
vt 0.374080 0.364452
vt 0.374080 0.364452
vt 0.374080 0.364452
vt 0.374080 0.364452
vt 0.374080 0.364452
vt 0.374080 0.364452
vt 0.374080 0.364452
vt 0.374080 0.364452
vt 0.374080 0.364452
vt 0.374080 0.364452
vt 0.374080 0.364452
vt 0.374080 0.364452
vt 0.374080 0.364452
vt 0.374080 0.364452
vt 0.374080 0.364452
vt 0.374080 0.364452
vt 0.374080 0.364452
vt 0.374080 0.364452
vt 0.374080 0.364452
vt 0.374080 0.364452
vt 0.374080 0.364452
vt 0.374080 0.364452
vt 0.374080 0.364452
vt 0.374080 0.364452
vt 0.374080 0.364452
vt 0.374080 0.364452
vt 0.374080 0.364452
vt 0.374080 0.364452
vt 0.374080 0.364452
vt 0.016014 0.325995
vt 0.016014 0.325995
vt 0.016014 0.325995
vt 0.016014 0.325995
vt 0.016014 0.325995
vt 0.016014 0.325995
vt 0.016014 0.325995
vt 0.016014 0.325995
vt 0.016014 0.325995
vt 0.016014 0.325995
vt 0.016014 0.325995
vt 0.016014 0.325995
vt 0.016014 0.325995
vt 0.016014 0.325995
vt 0.016014 0.325995
vt 0.016014 0.325995
vt 0.374080 0.364452
vt 0.374080 0.364452
vt 0.374080 0.364452
vt 0.374080 0.364452
vt 0.374080 0.364452
vt 0.374080 0.364452
vt 0.016014 0.325995
vt 0.016014 0.325995
vt 0.016014 0.325995
vt 0.016014 0.325995
vt 0.016014 0.325995
vt 0.016014 0.325995
vt 0.016014 0.325995
vt 0.016014 0.325995
vt 0.016014 0.325995
vt 0.016014 0.325995
vt 0.016014 0.325995
vt 0.016014 0.325995
vt 0.016014 0.325995
vt 0.016014 0.325995
vt 0.016014 0.325995
vt 0.016014 0.325995
vt 0.374080 0.364452
vt 0.374080 0.364452
vt 0.374080 0.364452
vt 0.374080 0.364452
vt 0.374080 0.364452
vt 0.374080 0.364452
vt 0.374080 0.364452
vt 0.374080 0.364452
vt 0.374080 0.364452
vt 0.374080 0.364452
vt 0.374080 0.364452
vt 0.374080 0.364452
vt 0.374080 0.364452
vt 0.374080 0.364452
vt 0.374080 0.364452
vt 0.374080 0.364452
vt 0.374080 0.364452
vt 0.374080 0.364452
vt 0.374080 0.364452
vt 0.374080 0.364452
vt 0.374080 0.364452
vt 0.374080 0.364452
vt 0.374080 0.364452
vt 0.374080 0.364452
vt 0.374080 0.364452
vt 0.374080 0.364452
vt 0.374080 0.364452
vt 0.374080 0.364452
vt 0.374080 0.364452
vt 0.374080 0.364452
vt 0.016014 0.325995
vt 0.016014 0.325995
vt 0.016014 0.325995
vt 0.016014 0.325995
vt 0.016014 0.325995
vt 0.016014 0.325995
vt 0.016014 0.325995
vt 0.016014 0.325995
vt 0.016014 0.325995
vt 0.016014 0.325995
vt 0.016014 0.325995
vt 0.016014 0.325995
vt 0.016014 0.325995
vt 0.016014 0.325995
vt 0.016014 0.325995
vt 0.016014 0.325995
vt 0.374080 0.364452
vt 0.374080 0.364452
vt 0.374080 0.364452
vt 0.374080 0.364452
vt 0.374080 0.364452
vt 0.374080 0.364452
vt 0.016014 0.325995
vt 0.016014 0.325995
vt 0.016014 0.325995
vt 0.016014 0.325995
vt 0.016014 0.325995
vt 0.016014 0.325995
vt 0.016014 0.325995
vt 0.016014 0.325995
vt 0.016014 0.325995
vt 0.016014 0.325995
vt 0.016014 0.325995
vt 0.016014 0.325995
vt 0.016014 0.325995
vt 0.016014 0.325995
vt 0.016014 0.325995
vt 0.016014 0.325995
vt 0.373759 0.363882
vt 0.373759 0.363882
vt 0.373759 0.363882
vt 0.373759 0.363882
vt 0.373759 0.363882
vt 0.373759 0.363882
vt 0.373759 0.363882
vt 0.373759 0.363882
vt 0.373759 0.363882
vt 0.373759 0.363882
vt 0.373759 0.363882
vt 0.373759 0.363882
vn 0.313221 -0.333195 -0.889311
vn 0.313221 -0.333195 -0.889311
vn 0.313221 -0.333195 -0.889311
vn 0.313221 -0.333195 -0.889311
vn 0.111382 0.348669 0.930604
vn 0.111382 0.348669 0.930604
vn 0.111382 0.348669 0.930604
vn 0.111382 0.348669 0.930604
vn 0.204705 -0.920780 0.332055
vn 0.204705 -0.920780 0.332055
vn 0.204705 -0.920780 0.332055
vn 0.108207 -0.954541 0.277747
vn 0.108207 -0.954541 0.277747
vn 0.108207 -0.954541 0.277747
vn 0.107725 -0.935605 0.336213
vn 0.107725 -0.935605 0.336213
vn 0.107725 -0.935605 0.336213
vn 0.073211 -0.930972 0.357675
vn 0.073211 -0.930972 0.357675
vn 0.073211 -0.930972 0.357675
vn -0.339616 0.884789 -0.319077
vn -0.339616 0.884789 -0.319077
vn -0.339616 0.884789 -0.319077
vn -0.604374 0.675839 -0.421868
vn -0.604374 0.675839 -0.421868
vn -0.604374 0.675839 -0.421868
vn -0.592224 0.798540 -0.107723
vn -0.592224 0.798540 -0.107723
vn -0.592224 0.798540 -0.107723
vn -0.339617 0.884790 -0.319073
vn -0.339617 0.884790 -0.319073
vn -0.339617 0.884790 -0.319073
vn -0.111623 0.945078 -0.307193
vn -0.111623 0.945078 -0.307193
vn -0.111623 0.945078 -0.307193
vn -0.111623 0.945078 -0.307193
vn -0.311689 0.925059 -0.217061
vn -0.311689 0.925059 -0.217061
vn -0.311689 0.925059 -0.217061
vn -0.311689 0.925059 -0.217061
vn -0.154897 0.919646 -0.360913
vn -0.154897 0.919646 -0.360913
vn -0.154897 0.919646 -0.360913
vn -0.154897 0.919646 -0.360913
vn -0.037285 0.944513 -0.326351
vn -0.037285 0.944513 -0.326351
vn -0.037285 0.944513 -0.326351
vn -0.037285 0.944513 -0.326351
vn 0.391620 -0.277659 -0.877234
vn 0.391620 -0.277659 -0.877234
vn 0.391620 -0.277659 -0.877234
vn 0.391620 -0.277659 -0.877234
vn 0.897472 0.158196 -0.411726
vn 0.897472 0.158196 -0.411726
vn 0.897472 0.158196 -0.411726
vn 0.897472 0.158196 -0.411726
vn 0.875226 0.411436 0.254363
vn 0.875226 0.411436 0.254362
vn 0.875226 0.411436 0.254363
vn 0.875226 0.411436 0.254363
vn 0.406702 0.401039 0.820830
vn 0.406702 0.401039 0.820830
vn 0.406702 0.401039 0.820830
vn 0.406702 0.401039 0.820830
vn 0.001754 0.846766 -0.531962
vn 0.001754 0.846766 -0.531962
vn 0.001754 0.846766 -0.531962
vn 0.001754 0.991392 -0.130917
vn 0.001754 0.991392 -0.130917
vn 0.001754 0.991392 -0.130917
vn 0.514754 0.408265 0.753888
vn 0.514754 0.408265 0.753888
vn 0.514754 0.408265 0.753888
vn 0.514754 0.408265 0.753888
vn 0.876523 0.391828 0.279604
vn 0.876523 0.391828 0.279604
vn 0.876523 0.391828 0.279604
vn 0.876523 0.391828 0.279604
vn 0.876523 0.123188 -0.465331
vn 0.876523 0.123188 -0.465331
vn 0.876523 0.123188 -0.465331
vn 0.876523 0.123188 -0.465331
vn 0.480668 -0.151499 -0.863716
vn 0.480668 -0.151499 -0.863716
vn 0.480668 -0.151499 -0.863716
vn 0.480668 -0.151499 -0.863716
vn 0.093029 0.972449 0.213751
vn 0.093029 0.972449 0.213751
vn 0.093029 0.972449 0.213751
vn 0.093029 0.972449 0.213751
vn 0.456162 0.889380 -0.030346
vn 0.456161 0.889380 -0.030346
vn 0.456161 0.889380 -0.030346
vn 0.456162 0.889380 -0.030346
vn 0.320405 0.799917 -0.507419
vn 0.320405 0.799917 -0.507419
vn 0.320405 0.799917 -0.507419
vn 0.320405 0.799917 -0.507419
vn 0.030736 0.679671 -0.732873
vn 0.030736 0.679671 -0.732873
vn 0.030736 0.679671 -0.732873
vn 0.030736 0.679671 -0.732873
vn -0.313221 -0.333195 -0.889311
vn -0.313221 -0.333195 -0.889311
vn -0.313221 -0.333195 -0.889311
vn -0.313221 -0.333195 -0.889311
vn -0.111382 0.348669 0.930604
vn -0.111382 0.348669 0.930604
vn -0.111382 0.348669 0.930604
vn -0.111382 0.348669 0.930604
vn -0.204705 -0.920780 0.332055
vn -0.204705 -0.920780 0.332055
vn -0.204705 -0.920780 0.332055
vn -0.108207 -0.954541 0.277747
vn -0.108207 -0.954541 0.277747
vn -0.108207 -0.954541 0.277747
vn -0.107725 -0.935605 0.336213
vn -0.107725 -0.935605 0.336213
vn -0.107725 -0.935605 0.336213
vn -0.073211 -0.930972 0.357675
vn -0.073211 -0.930972 0.357675
vn -0.073211 -0.930972 0.357675
vn 0.339616 0.884789 -0.319077
vn 0.339616 0.884789 -0.319077
vn 0.339616 0.884789 -0.319077
vn 0.604374 0.675839 -0.421868
vn 0.604374 0.675839 -0.421868
vn 0.604374 0.675839 -0.421868
vn 0.592224 0.798540 -0.107723
vn 0.592224 0.798540 -0.107723
vn 0.592224 0.798540 -0.107723
vn 0.339617 0.884790 -0.319073
vn 0.339617 0.884790 -0.319073
vn 0.339617 0.884790 -0.319073
vn 0.111623 0.945078 -0.307192
vn 0.111623 0.945078 -0.307193
vn 0.111624 0.945078 -0.307193
vn 0.111623 0.945078 -0.307193
vn 0.311689 0.925059 -0.217060
vn 0.311689 0.925059 -0.217060
vn 0.311689 0.925059 -0.217060
vn 0.311689 0.925059 -0.217060
vn 0.154897 0.919646 -0.360913
vn 0.154897 0.919646 -0.360913
vn 0.154897 0.919646 -0.360913
vn 0.154897 0.919646 -0.360913
vn 0.037285 0.944513 -0.326350
vn 0.037285 0.944513 -0.326350
vn 0.037285 0.944513 -0.326350
vn 0.037285 0.944513 -0.326350
vn -0.391620 -0.277659 -0.877234
vn -0.391620 -0.277659 -0.877234
vn -0.391620 -0.277659 -0.877234
vn -0.391620 -0.277659 -0.877234
vn -0.897472 0.158196 -0.411726
vn -0.897472 0.158196 -0.411726
vn -0.897472 0.158196 -0.411726
vn -0.897472 0.158196 -0.411726
vn -0.875226 0.411436 0.254362
vn -0.875226 0.411436 0.254362
vn -0.875226 0.411436 0.254362
vn -0.875226 0.411436 0.254362
vn -0.406702 0.401039 0.820830
vn -0.406702 0.401039 0.820830
vn -0.406702 0.401039 0.820830
vn -0.406702 0.401039 0.820830
vn -0.001754 0.846766 -0.531962
vn -0.001754 0.846766 -0.531962
vn -0.001754 0.846766 -0.531962
vn -0.001754 0.991392 -0.130917
vn -0.001754 0.991392 -0.130917
vn -0.001754 0.991392 -0.130917
vn -0.514754 0.408265 0.753889
vn -0.514754 0.408265 0.753889
vn -0.514754 0.408265 0.753889
vn -0.514754 0.408265 0.753889
vn -0.876523 0.391828 0.279604
vn -0.876523 0.391828 0.279604
vn -0.876523 0.391828 0.279604
vn -0.876523 0.391828 0.279604
vn -0.876523 0.123188 -0.465331
vn -0.876523 0.123188 -0.465331
vn -0.876523 0.123188 -0.465331
vn -0.876523 0.123188 -0.465331
vn -0.480668 -0.151499 -0.863717
vn -0.480668 -0.151499 -0.863717
vn -0.480668 -0.151499 -0.863717
vn -0.480668 -0.151499 -0.863717
vn -0.093029 0.972448 0.213754
vn -0.093029 0.972448 0.213754
vn -0.093029 0.972448 0.213754
vn -0.093029 0.972448 0.213754
vn -0.456162 0.889380 -0.030346
vn -0.456162 0.889380 -0.030346
vn -0.456162 0.889380 -0.030346
vn -0.456162 0.889380 -0.030346
vn -0.320405 0.799918 -0.507417
vn -0.320405 0.799918 -0.507417
vn -0.320405 0.799918 -0.507417
vn -0.320405 0.799918 -0.507417
vn -0.030736 0.679671 -0.732873
vn -0.030736 0.679671 -0.732873
vn -0.030736 0.679671 -0.732873
vn -0.030736 0.679671 -0.732873
vn 0.905674 0.153631 0.395161
vn 0.905674 0.153631 0.395161
vn 0.905674 0.153631 0.395161
vn 0.905674 0.153631 0.395161
vn 0.921915 -0.140376 -0.361064
vn 0.921915 -0.140376 -0.361064
vn 0.921915 -0.140376 -0.361064
vn 0.921915 -0.140376 -0.361064
vn -0.921915 -0.140376 -0.361064
vn -0.921915 -0.140376 -0.361064
vn -0.921915 -0.140376 -0.361064
vn -0.921915 -0.140376 -0.361064
vn -0.905674 0.153631 0.395161
vn -0.905674 0.153631 0.395161
vn -0.905674 0.153631 0.395161
vn -0.905674 0.153631 0.395161
s off
f 1/1/1 6/2/2 7/3/3 2/4/4
f 4/5/5 9/6/6 10/7/7 5/8/8
f 2/9/9 11/10/10 1/11/11
f 3/12/12 11/10/13 2/9/14
f 4/13/15 11/10/16 3/12/17
f 5/14/18 11/10/19 4/13/20
f 17/15/21 18/16/22 19/17/23
f 19/17/24 18/16/25 23/18/26
f 23/18/27 18/16/28 21/19/29
f 21/19/30 18/16/31 22/20/32
f 6/21/33 12/22/34 13/23/35 7/24/36
f 7/24/37 13/23/38 14/25/39 8/26/40
f 8/26/41 14/25/42 15/27/43 9/28/44
f 9/28/45 15/27/46 16/29/47 10/30/48
f 12/31/49 33/32/50 32/33/51 13/34/52
f 13/35/53 32/36/54 31/37/55 14/38/56
f 14/39/57 31/40/58 30/41/59 15/42/60
f 15/43/61 30/44/62 29/45/63 16/46/64
f 19/17/65 23/18/66 20/47/67
f 20/47/68 23/18/69 21/19/70
f 25/48/71 21/19/72 22/20/73 24/49/74
f 26/50/75 20/47/76 21/19/77 25/48/78
f 27/51/79 19/17/80 20/47/81 26/50/82
f 28/52/83 17/15/84 19/17/85 27/51/86
f 30/53/87 25/54/88 24/55/89 29/56/90
f 31/57/91 26/58/92 25/59/93 30/60/94
f 32/61/95 27/62/96 26/63/97 31/64/98
f 33/65/99 28/66/100 27/67/101 32/68/102
f 1/69/103 34/70/104 37/71/105 6/72/106
f 36/73/107 5/74/108 10/75/109 39/76/110
f 34/77/111 1/78/112 11/79/113
f 35/80/114 34/77/115 11/79/116
f 36/81/117 35/80/118 11/79/119
f 5/82/120 36/81/121 11/79/122
f 17/83/123 43/84/124 18/85/125
f 43/84/126 46/86/127 18/85/128
f 46/86/129 45/87/130 18/85/131
f 45/87/132 22/88/133 18/85/134
f 6/89/135 37/90/136 40/91/137 12/92/138
f 37/90/139 38/93/140 41/94/141 40/91/142
f 38/93/143 39/95/144 42/96/145 41/94/146
f 39/95/147 10/97/148 16/98/149 42/96/150
f 12/99/151 40/100/152 52/101/153 33/102/154
f 40/103/155 41/104/156 51/105/157 52/106/158
f 41/107/159 42/108/160 50/109/161 51/110/162
f 42/111/163 16/112/164 29/113/165 50/114/166
f 43/84/167 44/115/168 46/86/169
f 44/115/170 45/87/171 46/86/172
f 47/116/173 24/117/174 22/88/175 45/87/176
f 48/118/177 47/116/178 45/87/179 44/115/180
f 49/119/181 48/118/182 44/115/183 43/84/184
f 28/120/185 49/119/186 43/84/187 17/83/188
f 50/121/189 29/122/190 24/123/191 47/124/192
f 51/125/193 50/126/194 47/127/195 48/128/196
f 52/129/197 51/130/198 48/131/199 49/132/200
f 33/133/201 52/134/202 49/135/203 28/136/204
f 8/137/205 9/138/206 4/139/207 3/140/208
f 7/141/209 8/137/210 3/140/211 2/142/212
f 38/143/213 37/144/214 34/145/215 35/146/216
f 39/147/217 38/143/218 35/146/219 36/148/220
