# This file uses meters as units for non-parametric coordinates.

v -12.512777 16.344719 8.131950
v -12.451278 18.319786 3.254605
v -0.018659 23.059368 10.273779
v -0.018659 25.177288 5.202046
v -11.144272 19.486015 9.343472
v -11.530467 21.216526 4.647810
v -12.897830 11.226778 -1.609861
v -13.224257 9.934101 4.100649
v 12.475458 16.344719 8.131950
v 11.734538 18.236130 3.535139
v 10.370678 19.486015 9.343472
v 9.544546 21.216526 4.647810
v 12.860511 11.226778 -1.609861
v 13.186939 9.934101 4.100649
v 0.012783 14.495573 -15.928444
v 0.201480 23.920280 -6.874904
v 0.037713 2.798119 -11.957179
v -0.020808 23.412010 7.576116
v 0.153907 18.065662 13.577259
v -15.369171 9.904146 -3.914802
v -14.429558 2.595396 -1.881542
v -13.779995 2.524204 2.571440
v -14.540242 10.976152 1.985068
v -11.710417 21.559811 -5.654915
v -10.770254 12.654486 -12.320269
v -10.686733 3.418655 -9.744705
v -11.247955 19.992683 7.077791
v -10.628924 16.098318 12.076939
v -12.147949 12.480173 9.723144
v -10.478442 0.718956 7.215044
v -14.826519 -0.774002 -2.264073
v -14.872657 -1.435805 1.546383
v -10.371518 0.686321 -9.956164
v -0.001466 0.304689 -12.399276
v -12.116128 -3.677444 5.740710
v -18.252739 -3.498260 -2.838786
v -17.724686 -3.729973 4.040228
v -12.501950 -3.014269 -12.671780
v -1.359504 -4.214419 -16.521774
v -10.498301 -8.499307 5.162053
v 15.142200 9.549761 -4.764781
v 14.554971 2.494307 -3.158756
v 13.863632 2.181997 1.024742
v 13.676970 15.409374 1.597915
v 13.527458 18.161469 -4.785081
v 9.578354 22.362015 -6.626583
v 11.220263 11.724453 -11.839874
v 10.545443 3.438311 -9.818013
v 9.712808 19.815998 7.047775
v 9.786517 15.782595 13.054896
v 11.541521 13.740635 11.707054
v 11.050410 2.961807 9.602276
v 13.278461 -1.911286 -4.033342
v 15.154900 -2.830420 2.381829
v 9.586605 0.303459 -9.762435
v 12.587839 -3.586387 6.463827
v 16.267756 -4.339437 -6.422205
v 17.399096 -6.145039 3.824869
v 11.114608 -3.179512 -12.969112
v 4.134807 17.698946 14.691851
v -5.729505 18.632107 10.406138
v -9.293244 -7.134133 -2.953115
v -9.441624 -7.847978 -0.335312
v -7.740275 -6.196938 -6.182100
v -0.155548 -5.684854 -8.649636
v -7.166049 -6.694879 2.110003
v 8.821199 -2.725191 -2.389687
v 8.667652 -3.089142 1.278338
v 7.732046 -2.889414 -7.042725
v 6.392083 -1.936207 3.723654
v -0.156623 -4.253159 -1.953194
v 15.222055 8.916273 0.524234
v 14.071601 8.162146 6.117481
v 6.283012 0.500984 5.339888
v -0.126693 0.481596 -0.330756
v -11.200160 5.803328 8.299274
v -9.454058 14.804907 11.429580
v -5.214764 16.919851 10.207892
v -10.147573 12.719984 9.053381
v -9.918354 4.933853 8.205034
v -8.423845 -3.650552 5.913166
v -9.979704 0.786238 7.482890
v 6.500268 12.418756 12.109561
v 9.265648 11.717415 11.704609
v 10.602510 8.854046 7.959905
v 9.991940 4.629049 9.911359
v 8.767941 -0.871487 9.678096
v 0.011016 17.019920 12.671277
v 3.431916 14.336901 12.397540
v 14.530499 -7.711859 1.884592
v 14.299467 -6.745587 -4.344073
v -14.667450 -5.532598 1.183627
v -14.123028 -6.361293 -1.918789
v 10.292942 -5.733089 -10.269773
v -0.475296 -7.143477 -12.991864
v -10.282475 -6.245376 -9.494516
vt 0.045058 0.149471
vt 0.044897 0.148837
vt 0.044591 0.148751
vt 0.044610 0.149454
vt 0.045036 0.148907
vt 0.043716 0.148647
vt 0.045096 0.149481
vt 0.043706 0.149442
vt 0.045058 0.149471
vt 0.044897 0.148837
vt 0.044591 0.148751
vt 0.044610 0.149454
vt 0.043716 0.148647
vt 0.043706 0.149442
vt 0.045036 0.148907
vt 0.045096 0.149481
vt 0.044158 0.149448
vt 0.043932 0.149445
vt 0.043819 0.149443
vt 0.043762 0.149443
vt 0.043734 0.149442
vt 0.044154 0.148699
vt 0.043935 0.148673
vt 0.043826 0.148660
vt 0.043771 0.148654
vt 0.043744 0.148650
vt 0.047140 0.183091
vt 0.047140 0.183091
vt 0.047140 0.183091
vt 0.047140 0.183091
vt 0.047140 0.183091
vt 0.047140 0.183091
vt 0.047140 0.183091
vt 0.047140 0.183091
vt 0.047140 0.183091
vt 0.047140 0.183091
vt 0.047140 0.183091
vt 0.047140 0.183091
vt 0.047140 0.183091
vt 0.047140 0.183091
vt 0.047140 0.183091
vt 0.047140 0.183091
vt 0.047140 0.183091
vt 0.047141 0.183091
vt 0.047140 0.183091
vt 0.047140 0.183091
vt 0.047140 0.183091
vt 0.047140 0.183091
vt 0.047140 0.183091
vt 0.047140 0.183091
vt 0.047140 0.183091
vt 0.047140 0.183091
vt 0.047140 0.183091
vt 0.047140 0.183091
vt 0.047140 0.183091
vt 0.047140 0.183091
vt 0.047141 0.183091
vt 0.047141 0.183091
vt 0.047140 0.183091
vt 0.047140 0.183091
vt 0.047140 0.183091
vt 0.047140 0.183091
vt 0.047140 0.183091
vt 0.047140 0.183091
vt 0.047140 0.183091
vt 0.047140 0.183091
vt 0.047140 0.183091
vt 0.047140 0.183091
vt 0.047140 0.183091
vt 0.047141 0.183091
vt 0.047141 0.183091
vt 0.047140 0.183091
vt 0.047140 0.183091
vt 0.047140 0.183091
vt 0.047140 0.183091
vt 0.047140 0.183091
vt 0.047140 0.183091
vt 0.047140 0.183091
vt 0.047140 0.183091
vt 0.047140 0.183091
vt 0.047140 0.183091
vt 0.047140 0.183091
vt 0.047140 0.183091
vt 0.047140 0.183091
vt 0.047140 0.183091
vt 0.047140 0.183091
vt 0.047140 0.183091
vt 0.047140 0.183091
vt 0.047140 0.183091
vt 0.047140 0.183091
vt 0.047140 0.183091
vt 0.047140 0.183091
vt 0.047140 0.183091
vt 0.047140 0.183091
vt 0.047140 0.183091
vt 0.047140 0.183091
vt 0.047140 0.183091
vt 0.047140 0.183091
vt 0.047140 0.183091
vt 0.047140 0.183091
vt 0.047140 0.183091
vt 0.047140 0.183091
vt 0.047140 0.183091
vt 0.047140 0.183091
vt 0.047140 0.183091
vt 0.047140 0.183091
vt 0.047140 0.183091
vt 0.047140 0.183091
vn -0.944263 0.294948 0.146198
vn -0.944263 0.294948 0.146198
vn -0.944263 0.294948 0.146198
vn -0.944263 0.294948 0.146198
vn 0.000000 -0.251947 0.967741
vn 0.000000 -0.251947 0.967741
vn 0.000000 -0.251947 0.967741
vn -0.995820 0.090944 -0.008418
vn -0.995820 0.090944 -0.008418
vn -0.995820 0.090944 -0.008418
vn -0.995820 0.090944 -0.008418
vn 0.829570 0.553242 0.075741
vn 0.829570 0.553242 0.075741
vn 0.829570 0.553242 0.075741
vn 0.829570 0.553242 0.075741
vn 0.355620 0.879437 0.316426
vn 0.355620 0.879437 0.316426
vn 0.355620 0.879437 0.316426
vn 0.355620 0.879437 0.316426
vn 0.984388 0.168823 -0.049784
vn 0.984388 0.168823 -0.049784
vn 0.984388 0.168823 -0.049784
vn 0.984388 0.168823 -0.049784
vn 0.000000 0.138582 -0.990351
vn 0.000000 0.138582 -0.990351
vn 0.000000 0.138582 -0.990351
vn -0.315872 0.878427 0.358596
vn -0.315872 0.878427 0.358596
vn -0.315872 0.878427 0.358596
vn -0.315872 0.878427 0.358596
vn 0.006425 0.393379 -0.919354
vn 0.006425 0.393379 -0.919354
vn 0.006425 0.393379 -0.919354
vn 0.006425 0.393379 -0.919354
vn 0.005549 0.578967 -0.815332
vn 0.005549 0.578967 -0.815332
vn 0.005549 0.578967 -0.815332
vn 0.005549 0.578967 -0.815332
vn 0.000000 -0.359841 0.933014
vn 0.000000 -0.359841 0.933014
vn 0.000000 -0.359841 0.933014
vn 0.000000 -0.359841 0.933014
vn 0.000000 -0.532339 0.846531
vn 0.000000 -0.532339 0.846531
vn 0.000000 -0.532339 0.846531
vn 0.000000 -0.532339 0.846531
vn -0.985521 -0.081589 0.148630
vn -0.985521 -0.081589 0.148630
vn -0.985521 -0.081589 0.148630
vn -0.985521 -0.081589 0.148630
vn -0.271396 0.620101 -0.736084
vn -0.271396 0.620101 -0.736083
vn -0.271396 0.620101 -0.736083
vn -0.271396 0.620101 -0.736083
vn -0.234472 -0.291275 -0.927460
vn -0.234472 -0.291275 -0.927460
vn -0.234472 -0.291275 -0.927460
vn -0.234472 -0.291275 -0.927460
vn -0.239406 0.967939 0.076015
vn -0.239406 0.967939 0.076015
vn -0.239406 0.967939 0.076015
vn -0.239406 0.967939 0.076015
vn -0.278153 0.713166 0.643449
vn -0.278152 0.713166 0.643449
vn -0.278152 0.713166 0.643449
vn -0.936487 0.210866 0.280229
vn -0.936487 0.210866 0.280229
vn -0.936487 0.210866 0.280229
vn -0.946013 0.202461 0.253117
vn -0.946014 0.202461 0.253117
vn -0.946014 0.202461 0.253117
vn -0.948818 0.307052 0.073920
vn -0.948818 0.307052 0.073920
vn -0.948818 0.307052 0.073920
vn -0.948818 0.307052 0.073920
vn -0.884600 0.215972 -0.413327
vn -0.884600 0.215972 -0.413327
vn -0.884600 0.215972 -0.413327
vn -0.856910 -0.186823 -0.480419
vn -0.856910 -0.186823 -0.480419
vn -0.856910 -0.186823 -0.480419
vn -0.856910 -0.186823 -0.480419
vn -0.924322 -0.200458 0.324724
vn -0.924322 -0.200458 0.324724
vn -0.924322 -0.200458 0.324724
vn -0.979344 0.182203 0.087677
vn -0.979344 0.182203 0.087677
vn -0.979344 0.182203 0.087677
vn -0.979344 0.182203 0.087677
vn -0.209189 0.110465 -0.971616
vn -0.209189 0.110465 -0.971616
vn -0.209189 0.110465 -0.971616
vn -0.209189 0.110465 -0.971616
vn -0.886648 0.056559 -0.458972
vn -0.886648 0.056559 -0.458972
vn -0.886648 0.056559 -0.458972
vn -0.886648 0.056559 -0.458972
vn -0.802979 0.085962 0.589775
vn -0.802979 0.085962 0.589775
vn -0.802979 0.085962 0.589775
vn -0.802979 0.085962 0.589775
vn -0.604076 0.791436 0.093389
vn -0.604075 0.791436 0.093389
vn -0.604075 0.791436 0.093389
vn -0.604076 0.791436 0.093389
vn -0.162345 0.670867 -0.723589
vn -0.162345 0.670867 -0.723589
vn -0.162345 0.670867 -0.723589
vn -0.162345 0.670867 -0.723589
vn -0.642414 0.707024 -0.295671
vn -0.642414 0.707024 -0.295671
vn -0.642414 0.707024 -0.295671
vn -0.642414 0.707024 -0.295671
vn -0.279811 0.294463 0.913782
vn -0.279811 0.294463 0.913782
vn -0.279811 0.294463 0.913782
vn -0.279811 0.294463 0.913782
vn 0.989960 -0.131928 0.050733
vn 0.989960 -0.131928 0.050733
vn 0.989960 -0.131928 0.050733
vn 0.989960 -0.131928 0.050733
vn 0.282418 0.569443 -0.771994
vn 0.282418 0.569443 -0.771994
vn 0.282418 0.569443 -0.771994
vn 0.282418 0.569443 -0.771994
vn 0.238109 -0.286096 -0.928145
vn 0.238109 -0.286096 -0.928145
vn 0.238109 -0.286096 -0.928145
vn 0.238109 -0.286096 -0.928145
vn 0.260398 0.959771 0.105040
vn 0.260398 0.959771 0.105040
vn 0.260398 0.959771 0.105040
vn 0.260398 0.959771 0.105040
vn 0.354921 0.801659 0.481013
vn 0.354921 0.801659 0.481013
vn 0.354921 0.801659 0.481013
vn 0.354921 0.801659 0.481013
vn 0.812569 0.488471 0.318007
vn 0.812569 0.488471 0.318007
vn 0.812569 0.488471 0.318007
vn 0.854272 0.452865 0.255211
vn 0.854272 0.452865 0.255212
vn 0.854272 0.452865 0.255212
vn 0.758886 0.632201 0.156251
vn 0.758886 0.632201 0.156251
vn 0.758886 0.632201 0.156251
vn 0.758886 0.632201 0.156251
vn 0.809934 0.276562 -0.517224
vn 0.809934 0.276562 -0.517224
vn 0.809934 0.276562 -0.517224
vn 0.809934 0.276562 -0.517224
vn 0.830348 -0.192011 -0.523119
vn 0.830348 -0.192011 -0.523119
vn 0.830348 -0.192011 -0.523119
vn 0.830348 -0.192011 -0.523119
vn 0.931185 -0.254586 0.260921
vn 0.931185 -0.254586 0.260921
vn 0.931185 -0.254586 0.260921
vn 0.931185 -0.254586 0.260921
vn 0.993745 -0.004160 -0.111600
vn 0.993745 -0.004160 -0.111600
vn 0.993745 -0.004160 -0.111600
vn 0.993745 -0.004160 -0.111600
vn 0.230362 0.025955 -0.972759
vn 0.230362 0.025955 -0.972759
vn 0.230362 0.025955 -0.972759
vn 0.230362 0.025955 -0.972759
vn 0.813807 -0.181281 -0.552137
vn 0.813807 -0.181281 -0.552137
vn 0.813807 -0.181281 -0.552137
vn 0.813807 -0.181281 -0.552137
vn 0.908166 0.162787 0.385663
vn 0.908166 0.162787 0.385662
vn 0.908166 0.162787 0.385663
vn 0.908166 0.162787 0.385662
vn 0.737075 0.675433 -0.022601
vn 0.737075 0.675433 -0.022601
vn 0.737075 0.675433 -0.022601
vn 0.737075 0.675433 -0.022601
vn 0.172023 0.667337 -0.724617
vn 0.172023 0.667337 -0.724617
vn 0.172023 0.667337 -0.724617
vn 0.172023 0.667337 -0.724617
vn 0.634864 0.728578 -0.257141
vn 0.634864 0.728578 -0.257141
vn 0.634864 0.728578 -0.257141
vn 0.634864 0.728578 -0.257141
vn 0.603825 0.624493 0.495383
vn 0.603825 0.624493 0.495383
vn 0.603825 0.624493 0.495382
vn -0.117341 0.739810 0.662504
vn -0.117341 0.739810 0.662504
vn -0.117341 0.739810 0.662504
vn -0.184401 0.764154 0.618114
vn -0.184401 0.764154 0.618114
vn -0.184401 0.764154 0.618114
vn -0.240709 0.691021 0.681578
vn -0.240709 0.691021 0.681578
vn -0.240709 0.691021 0.681578
vn -0.297449 -0.954589 -0.016859
vn -0.297449 -0.954589 -0.016859
vn -0.297449 -0.954589 -0.016859
vn -0.297449 -0.954589 -0.016859
vn -0.279056 -0.768099 -0.576325
vn -0.279056 -0.768099 -0.576325
vn -0.279056 -0.768099 -0.576325
vn -0.279056 -0.768099 -0.576325
vn -0.538291 -0.778243 -0.323390
vn -0.538291 -0.778243 -0.323390
vn -0.538291 -0.778243 -0.323390
vn -0.538291 -0.778243 -0.323390
vn -0.134411 -0.980694 -0.142029
vn -0.134411 -0.980694 -0.142029
vn -0.134411 -0.980694 -0.142029
vn -0.134411 -0.980694 -0.142029
vn 0.621327 -0.762669 -0.179688
vn 0.621327 -0.762669 -0.179688
vn 0.621327 -0.762669 -0.179688
vn 0.621327 -0.762669 -0.179688
vn 0.249457 -0.725685 -0.641212
vn 0.249457 -0.725685 -0.641212
vn 0.249457 -0.725685 -0.641212
vn 0.249457 -0.725685 -0.641212
vn 0.480636 -0.733418 -0.480715
vn 0.480636 -0.733418 -0.480715
vn 0.480636 -0.733418 -0.480715
vn 0.480636 -0.733418 -0.480715
vn -0.036819 -0.750172 0.660217
vn -0.036819 -0.750172 0.660217
vn -0.036819 -0.750172 0.660217
vn 0.315550 -0.919870 -0.232952
vn 0.315550 -0.919870 -0.232953
vn 0.315550 -0.919870 -0.232952
vn 0.132859 -0.969226 0.207241
vn 0.132859 -0.969226 0.207241
vn 0.132859 -0.969226 0.207241
vn 0.310727 -0.942366 -0.124074
vn 0.310727 -0.942366 -0.124074
vn 0.310727 -0.942366 -0.124074
vn 0.372996 -0.923609 0.088427
vn 0.372997 -0.923609 0.088427
vn 0.372996 -0.923609 0.088427
vn 0.162804 -0.982484 -0.090670
vn 0.162804 -0.982484 -0.090670
vn 0.162804 -0.982484 -0.090670
vn 0.290831 -0.935620 0.200082
vn 0.290831 -0.935620 0.200082
vn 0.290831 -0.935620 0.200082
vn 0.167570 -0.985850 -0.004429
vn 0.167570 -0.985850 -0.004429
vn 0.167570 -0.985850 -0.004429
vn -0.027777 -0.913880 0.405034
vn -0.027777 -0.913880 0.405034
vn -0.027777 -0.913880 0.405034
vn 0.978600 0.201972 0.039354
vn 0.978600 0.201972 0.039354
vn 0.978600 0.201972 0.039354
vn 0.978600 0.201972 0.039354
vn 0.953513 0.195132 0.229642
vn 0.953513 0.195132 0.229642
vn 0.953513 0.195132 0.229642
vn 0.953513 0.195132 0.229642
vn 0.335605 -0.075511 0.938971
vn 0.335605 -0.075511 0.938972
vn 0.335605 -0.075511 0.938972
vn 0.335605 -0.075511 0.938972
vn 0.092575 -0.656677 0.748468
vn 0.092575 -0.656677 0.748468
vn 0.092575 -0.656677 0.748468
vn 0.092575 -0.656677 0.748468
vn 0.199741 -0.136191 0.970338
vn 0.199741 -0.136191 0.970338
vn 0.199741 -0.136191 0.970338
vn 0.199741 -0.136191 0.970338
vn -0.091662 -0.323681 0.941716
vn -0.091662 -0.323681 0.941716
vn -0.091662 -0.323681 0.941716
vn -0.091662 -0.323681 0.941716
vn -0.045262 -0.133987 0.989949
vn -0.045262 -0.133987 0.989949
vn -0.045262 -0.133987 0.989949
vn 0.160709 -0.329612 0.930338
vn 0.160709 -0.329612 0.930338
vn 0.160709 -0.329612 0.930338
vn 0.160709 -0.329612 0.930338
vn 0.523167 0.265494 0.809820
vn 0.523167 0.265494 0.809821
vn 0.523167 0.265494 0.809820
vn 0.523167 0.265494 0.809820
vn 0.422224 -0.234085 0.875746
vn 0.422225 -0.234085 0.875746
vn 0.422225 -0.234085 0.875746
vn 0.422225 -0.234085 0.875746
vn -0.305057 -0.520499 0.797509
vn -0.305057 -0.520499 0.797509
vn -0.305057 -0.520499 0.797509
vn -0.305057 -0.520499 0.797509
vn -0.430288 -0.384922 0.816509
vn -0.430288 -0.384922 0.816509
vn -0.430288 -0.384923 0.816509
vn -0.430288 -0.384922 0.816509
vn 0.727462 -0.397832 0.559043
vn 0.727462 -0.397832 0.559043
vn 0.727462 -0.397832 0.559043
vn -0.549663 -0.833825 0.051052
vn -0.549663 -0.833825 0.051052
vn -0.549663 -0.833825 0.051052
vn 0.623331 -0.378751 0.684110
vn 0.623331 -0.378751 0.684110
vn 0.623331 -0.378751 0.684110
vn 0.623331 -0.378751 0.684110
vn -0.584339 -0.339330 0.737158
vn -0.584339 -0.339330 0.737158
vn -0.584339 -0.339330 0.737158
vn -0.584339 -0.339330 0.737158
vn 0.366408 -0.609507 0.703027
vn 0.366408 -0.609507 0.703027
vn 0.366408 -0.609507 0.703027
vn 0.366408 -0.609507 0.703027
vn 0.006379 -0.437012 0.899433
vn 0.006379 -0.437012 0.899433
vn 0.006379 -0.437012 0.899433
vn 0.006379 -0.437012 0.899433
vn -0.880016 -0.113308 0.461230
vn -0.880016 -0.113308 0.461230
vn -0.880016 -0.113308 0.461230
vn -0.880016 -0.113308 0.461230
vn -0.184540 -0.201423 0.961964
vn -0.184540 -0.201423 0.961964
vn -0.184540 -0.201423 0.961964
vn -0.184540 -0.201423 0.961964
vn -0.458030 -0.505437 0.731261
vn -0.458030 -0.505437 0.731261
vn -0.458030 -0.505437 0.731261
vn -0.504693 -0.807978 0.304066
vn -0.504693 -0.807978 0.304066
vn -0.504693 -0.807978 0.304066
vn -0.504693 -0.807978 0.304066
vn -0.610609 -0.785492 -0.100798
vn -0.610609 -0.785492 -0.100798
vn -0.610609 -0.785492 -0.100798
vn -0.610609 -0.785492 -0.100798
vn -0.544170 -0.837231 -0.054065
vn -0.544170 -0.837231 -0.054065
vn -0.544170 -0.837231 -0.054065
vn -0.534403 -0.843774 0.049589
vn -0.534403 -0.843774 0.049589
vn -0.534403 -0.843774 0.049589
vn -0.534403 -0.843774 0.049589
vn -0.556579 -0.805484 0.203509
vn -0.556579 -0.805484 0.203510
vn -0.556579 -0.805484 0.203509
vn -0.556579 -0.805484 0.203509
vn 0.075038 -0.857220 0.509453
vn 0.075038 -0.857220 0.509453
vn 0.075038 -0.857220 0.509453
vn 0.075038 -0.857220 0.509453
vn 0.039498 -0.983095 0.178786
vn 0.039498 -0.983095 0.178786
vn 0.039498 -0.983095 0.178786
vn 0.039498 -0.983095 0.178786
vn -0.058468 -0.990342 -0.125713
vn -0.058468 -0.990342 -0.125713
vn -0.058468 -0.990342 -0.125713
vn -0.058468 -0.990342 -0.125713
vn 0.000000 -0.975323 -0.220782
vn 0.000000 -0.975323 -0.220782
vn 0.000000 -0.975323 -0.220782
vn 0.000000 -0.975323 -0.220782
vn -0.338274 -0.579868 0.741164
vn -0.338274 -0.579868 0.741164
vn -0.338274 -0.579868 0.741164
vn -0.644672 -0.228613 0.729475
vn -0.644672 -0.228613 0.729475
vn -0.644672 -0.228613 0.729475
vn 0.619100 -0.059930 0.783022
vn 0.619100 -0.059930 0.783022
vn 0.619100 -0.059930 0.783022
vn 0.612096 -0.144422 0.777484
vn 0.612096 -0.144422 0.777484
vn 0.612096 -0.144422 0.777484
vn 0.638852 -0.064719 0.766603
vn 0.638852 -0.064719 0.766603
vn 0.638852 -0.064719 0.766603
vn -0.219870 -0.700571 0.678865
vn -0.219870 -0.700571 0.678865
vn -0.219870 -0.700571 0.678865
vn 0.429189 -0.389577 0.814878
vn 0.429189 -0.389577 0.814878
vn 0.429189 -0.389577 0.814878
vn -0.387229 -0.567833 0.726374
vn -0.387229 -0.567833 0.726374
vn -0.387229 -0.567833 0.726374
vn -0.305908 -0.600289 0.738968
vn -0.305908 -0.600289 0.738968
vn -0.305908 -0.600289 0.738968
vn -0.731418 0.370214 0.572686
vn -0.731418 0.370214 0.572686
vn -0.731418 0.370214 0.572686
vn -0.833019 0.162945 0.528704
vn -0.833019 0.162945 0.528704
vn -0.833019 0.162945 0.528704
vn 0.114222 -0.769086 0.628856
vn 0.114222 -0.769086 0.628856
vn 0.114222 -0.769087 0.628856
vn -0.073418 -0.699774 0.710581
vn -0.073418 -0.699774 0.710581
vn -0.073418 -0.699774 0.710581
s off
f 1/1/1 5/4/2 6/3/3 2/2/4
f 3/8/5 5/4/6 11/21/7
f 7/5/8 8/7/9 1/1/10 2/2/11
f 9/9/12 10/10/13 12/11/14 11/12/15
f 12/11/16 4/13/17 3/14/18 11/12/19
f 13/15/20 10/10/21 9/9/22 14/16/23
f 6/3/24 4/6/25 12/26/26
f 6/3/27 5/4/28 3/8/29 4/6/30
f 6/3/31 12/26/32 10/25/33 2/22/34
f 2/22/35 10/25/36 13/24/37 7/23/38
f 11/21/39 5/4/40 1/17/41 9/20/42
f 9/20/43 1/17/44 8/18/45 14/19/46
f 20/27/47 21/28/48 22/29/49 23/30/50
f 24/31/51 16/32/52 15/33/53 25/34/54
f 25/34/55 15/33/56 17/35/57 26/36/58
f 27/37/59 18/38/60 16/32/61 24/31/62
f 18/38/63 61/39/64 19/40/65
f 28/41/66 27/37/67 29/42/68
f 23/30/69 29/42/70 27/37/71
f 27/37/72 24/31/73 20/27/74 23/30/75
f 24/31/76 25/34/77 20/27/78
f 25/34/79 26/36/80 21/28/81 20/27/82
f 23/30/83 76/43/84 29/42/85
f 22/29/86 21/28/87 31/44/88 32/45/89
f 26/36/90 17/35/91 34/46/92 33/47/93
f 21/28/94 26/36/95 33/47/96 31/44/97
f 30/48/98 22/29/99 32/45/100 35/49/101
f 32/45/102 31/44/103 36/50/104 37/51/105
f 33/47/106 34/46/107 39/52/108 38/53/109
f 31/44/110 33/47/111 38/53/112 36/50/113
f 35/49/114 32/45/115 37/51/116 40/54/117
f 41/55/118 72/56/119 43/57/120 42/58/121
f 46/59/122 47/60/123 15/33/124 16/32/125
f 47/60/126 48/61/127 17/35/128 15/33/129
f 49/62/130 46/59/131 16/32/132 18/38/133
f 50/63/134 49/62/135 18/38/136 60/64/137
f 50/63/138 51/65/139 49/62/140
f 44/66/141 49/62/142 51/65/143
f 49/62/144 44/66/145 45/67/146 46/59/147
f 46/59/148 45/67/149 41/55/150 47/60/151
f 47/60/152 41/55/153 42/58/154 48/61/155
f 52/68/156 43/57/157 72/56/158 73/69/159
f 43/57/160 54/70/161 53/71/162 42/58/163
f 48/61/164 55/72/165 34/46/166 17/35/167
f 42/58/168 53/71/169 55/72/170 48/61/171
f 52/68/172 56/73/173 54/70/174 43/57/175
f 54/70/176 58/74/177 57/75/178 53/71/179
f 55/72/180 59/76/181 39/52/182 34/46/183
f 53/71/184 57/75/185 59/76/186 55/72/187
f 56/73/188 58/74/189 54/70/190
f 60/64/191 18/38/192 19/40/193
f 28/41/194 61/39/195 27/37/196
f 27/37/197 61/39/198 18/38/199
f 92/77/200 93/78/201 62/79/202 63/80/203
f 38/53/204 39/52/205 95/81/206 96/82/207
f 36/50/208 38/53/209 96/82/210 93/78/211
f 40/54/212 92/77/213 63/80/214 66/83/215
f 57/75/216 58/74/217 90/84/218 91/85/219
f 39/52/220 59/76/221 94/86/222 95/81/223
f 59/76/224 57/75/225 91/85/226 94/86/227
f 58/74/228 56/73/229 90/84/230
f 63/80/231 62/79/232 71/87/233
f 64/88/234 65/89/235 71/87/236
f 62/79/237 64/88/238 71/87/239
f 66/83/240 63/80/241 71/87/242
f 67/90/243 68/91/244 71/87/245
f 65/89/246 69/92/247 71/87/248
f 69/92/249 67/90/250 71/87/251
f 68/91/252 70/93/253 71/87/254
f 41/55/255 45/67/256 44/66/257 72/56/258
f 73/69/259 72/56/260 44/66/261 51/65/262
f 61/39/263 28/41/264 77/94/265 78/95/266
f 28/41/267 29/42/268 79/96/269 77/94/270
f 29/42/271 76/43/272 80/97/273 79/96/274
f 30/48/275 35/49/276 81/98/277 82/99/278
f 35/49/279 40/54/280 81/98/281
f 51/65/282 50/63/283 83/100/284 84/101/285
f 52/68/286 73/69/287 85/102/288 86/103/289
f 56/73/290 52/68/291 86/103/292 87/104/293
f 60/64/294 19/40/295 88/105/296 89/106/297
f 19/40/298 61/39/299 78/95/300 88/105/301
f 40/54/302 66/83/303 81/98/304
f 74/107/305 56/73/306 87/104/307
f 66/83/308 71/87/309 75/108/310 81/98/311
f 71/87/312 70/93/313 74/107/314 75/108/315
f 73/69/316 51/65/317 84/101/318 85/102/319
f 60/64/320 89/106/321 83/100/322 50/63/323
f 30/48/324 76/43/325 23/30/326 22/29/327
f 80/97/328 76/43/329 30/48/330 82/99/331
f 70/93/332 56/73/333 74/107/334
f 90/84/335 56/73/336 70/93/337 68/91/338
f 91/85/339 90/84/340 68/91/341 67/90/342
f 40/54/343 37/51/344 92/77/345
f 37/51/346 36/50/347 93/78/348 92/77/349
f 94/86/350 91/85/351 67/90/352 69/92/353
f 95/81/354 94/86/355 69/92/356 65/89/357
f 96/82/358 95/81/359 65/89/360 64/88/361
f 93/78/362 96/82/363 64/88/364 62/79/365
f 8/7/366 7/23/367 13/15/368 14/19/369
f 75/108/370 88/105/371 78/95/372
f 74/107/373 86/103/374 75/108/375
f 75/108/376 82/99/377 81/98/378
f 75/108/379 80/97/380 82/99/381
f 75/108/382 79/96/383 80/97/384
f 75/108/385 77/94/386 79/96/387
f 75/108/388 78/95/389 77/94/390
f 75/108/391 89/106/392 88/105/393
f 75/108/394 83/100/395 89/106/396
f 75/108/397 86/103/398 85/102/399
f 74/107/400 87/104/401 86/103/402
f 75/108/403 85/102/404 84/101/405
f 75/108/406 84/101/407 83/100/408
