# This file uses meters as units for non-parametric coordinates.

v -5.843273 10.762157 -12.110589
v 5.843118 10.762157 -12.110589
v -5.843273 13.711700 -11.519654
v 5.843118 13.711700 -11.519654
v -6.667324 13.987122 -12.894338
v 6.667169 13.987122 -12.894338
v -6.667324 11.037579 -13.485272
v 6.667169 11.037579 -13.485272
v -0.000078 10.946617 -14.825662
v -0.000078 13.896160 -14.234727
v -0.000078 13.620739 -12.860044
v -0.000078 10.671196 -13.450978
v 10.813082 13.964825 11.409156
v -0.000000 16.386604 15.718886
v -0.000000 20.303555 -12.783959
v 9.504061 20.281353 -10.889028
v 12.767487 21.502743 -1.072648
v 10.647202 22.247009 8.407923
v -0.000000 25.105076 -8.716883
v -0.000000 27.296314 -1.465772
v 5.091824 25.274715 -6.556028
v 7.259270 25.684052 -1.339238
v 5.091770 26.093407 3.877532
v -0.000000 26.263046 6.038386
v 12.961390 12.229710 6.095263
v 13.293694 12.054920 -1.010202
v 13.642785 11.990528 -8.178972
v 12.348263 12.003212 -11.736691
v -10.813083 13.964825 11.409156
v -9.504060 20.281353 -10.889028
v -12.767499 21.502743 -1.072648
v -10.647204 22.247009 8.407923
v -5.091715 25.274715 -6.556028
v -7.259277 25.684052 -1.339238
v -5.091715 26.093407 3.877532
v -12.961274 12.229710 6.095263
v -13.293694 12.025948 -1.010202
v -13.642781 11.990528 -8.178972
v -12.348262 12.003212 -11.736691
v -0.000000 17.551365 27.753893
v 10.436628 14.624691 22.344671
v -10.436627 14.624691 22.344671
v -0.000000 15.519028 27.753893
v 10.436628 12.592182 22.344690
v -10.436627 12.592182 22.344690
v -0.000000 14.409218 15.149066
v 10.810205 12.151642 10.756194
v -10.810204 12.151642 10.756194
v -7.327606 16.198044 25.954653
v -7.106472 14.206333 26.021410
v 7.165901 14.206333 26.021410
v 7.165901 16.238689 26.021410
v -0.000000 20.783291 -0.122483
v 6.174131 10.822506 -14.306367
v -0.000000 16.813030 -14.238885
v -6.460801 10.864429 -14.158433
v 5.536752 17.009029 -13.090375
v -5.814143 16.884727 -12.986672
v 5.344048 10.104351 -10.883668
v -5.630718 10.146294 -10.735715
v 4.787596 16.290874 -9.667676
v -0.046162 16.094875 -10.816167
v -5.066165 16.166573 -9.563954
v -0.000000 22.341557 12.211005
vt 0.132656 0.301404
vt 0.132656 0.301404
vt 0.132656 0.301404
vt 0.132656 0.301404
vt 0.132656 0.301404
vt 0.132656 0.301404
vt 0.132656 0.301404
vt 0.132656 0.301404
vt 0.132656 0.301404
vt 0.132656 0.301404
vt 0.132656 0.301404
vt 0.132656 0.301404
vt 0.132656 0.301404
vt 0.132656 0.301404
vt 0.132656 0.301404
vt 0.132656 0.301404
vt 0.132656 0.301404
vt 0.132656 0.301404
vt 0.132656 0.301404
vt 0.132656 0.301404
vt 0.132656 0.301404
vt 0.132656 0.301404
vt 0.132656 0.301404
vt 0.132656 0.301404
vt 0.263465 0.445229
vt 0.132656 0.301404
vt 0.132656 0.301404
vt 0.132656 0.301404
vt 0.132656 0.301404
vt 0.132656 0.301404
vt 0.132656 0.301404
vt 0.132656 0.301404
vt 0.132656 0.301404
vt 0.132656 0.301404
vt 0.132656 0.301404
vt 0.132656 0.301404
vt 0.132656 0.301404
vt 0.132656 0.301404
vt 0.132656 0.301404
vt 0.132656 0.301404
vt 0.132656 0.301404
vt 0.132656 0.301404
vt 0.132656 0.301404
vt 0.132656 0.301404
vt 0.263465 0.445229
vt 0.263465 0.445229
vt 0.263465 0.445229
vt 0.263465 0.445229
vt 0.263465 0.445229
vt 0.263465 0.445229
vt 0.263465 0.445229
vt 0.263465 0.445229
vt 0.263465 0.445229
vt 0.132656 0.301404
vt 0.132656 0.301404
vt 0.263465 0.445229
vt 0.263465 0.445229
vt 0.132656 0.301404
vt 0.132656 0.301404
vt 0.132656 0.301404
vt 0.132656 0.301404
vt 0.132656 0.301404
vt 0.132656 0.301404
vt 0.132656 0.301404
vt 0.132656 0.301404
vt 0.132656 0.301404
vt 0.263465 0.445229
vt 0.263465 0.445229
vt 0.263465 0.445229
vt 0.263465 0.445229
vt 0.263465 0.445229
vt 0.263465 0.445229
vt 0.263465 0.445229
vt 0.263465 0.445229
vt 0.263465 0.445229
vt 0.263465 0.445229
vt 0.263465 0.445229
vt 0.263465 0.445229
vt 0.263465 0.445229
vt 0.263465 0.445229
vt 0.263465 0.445229
vt 0.263465 0.445229
vt 0.263465 0.445229
vt 0.263465 0.445229
vn -0.216598 -0.191781 0.957238
vn -0.216598 -0.191781 0.957238
vn -0.216598 -0.191781 0.957238
vn -0.216598 -0.191781 0.957238
vn -0.053037 0.982077 0.180865
vn -0.053037 0.982077 0.180865
vn -0.053037 0.982077 0.180865
vn -0.053037 0.982077 0.180865
vn 0.190869 0.192833 -0.962489
vn 0.190869 0.192833 -0.962489
vn 0.190869 0.192833 -0.962489
vn 0.190869 0.192833 -0.962489
vn 0.053037 -0.982077 -0.180865
vn 0.053037 -0.982077 -0.180865
vn 0.053037 -0.982077 -0.180865
vn 0.053037 -0.982077 -0.180865
vn -0.190869 0.192833 -0.962489
vn -0.190869 0.192833 -0.962489
vn -0.190869 0.192833 -0.962489
vn -0.190869 0.192833 -0.962489
vn 0.053037 0.982077 0.180865
vn 0.053037 0.982077 0.180865
vn 0.053037 0.982077 0.180865
vn 0.053037 0.982077 0.180865
vn 0.216599 -0.191781 0.957238
vn 0.216599 -0.191781 0.957238
vn 0.216599 -0.191781 0.957238
vn 0.216599 -0.191781 0.957238
vn -0.053037 -0.982077 -0.180865
vn -0.053037 -0.982077 -0.180865
vn -0.053037 -0.982077 -0.180865
vn -0.053037 -0.982077 -0.180865
vn 0.954862 0.163305 0.248135
vn 0.954862 0.163305 0.248135
vn 0.954862 0.163305 0.248135
vn 0.954862 0.163305 0.248135
vn 0.090497 0.953319 -0.288087
vn 0.090497 0.953319 -0.288087
vn 0.090497 0.953319 -0.288087
vn 0.216573 0.962141 -0.165475
vn 0.216573 0.962141 -0.165475
vn 0.216573 0.962140 -0.165475
vn 0.216572 0.976175 0.013384
vn 0.216572 0.976175 0.013384
vn 0.216572 0.976175 0.013384
vn 0.090520 0.986586 0.135845
vn 0.090520 0.986586 0.135845
vn 0.090520 0.986586 0.135845
vn 0.188142 0.686827 -0.702048
vn 0.188142 0.686827 -0.702048
vn 0.188142 0.686827 -0.702048
vn 0.188142 0.686827 -0.702048
vn 0.581886 0.758839 -0.292527
vn 0.581886 0.758840 -0.292527
vn 0.581886 0.758839 -0.292527
vn 0.581886 0.758840 -0.292527
vn 0.556423 0.825152 0.097562
vn 0.556423 0.825151 0.097562
vn 0.556423 0.825152 0.097562
vn 0.556423 0.825151 0.097562
vn 0.997412 0.055851 0.045272
vn 0.997412 0.055851 0.045272
vn 0.997412 0.055851 0.045272
vn 0.957698 0.223529 -0.181244
vn 0.957698 0.223529 -0.181244
vn 0.957698 0.223529 -0.181244
vn 0.957698 0.223529 -0.181244
vn 0.885149 0.336976 -0.320872
vn 0.885149 0.336976 -0.320872
vn 0.885149 0.336976 -0.320872
vn 0.178791 0.384699 -0.905561
vn 0.178791 0.384699 -0.905561
vn 0.178791 0.384699 -0.905561
vn 0.178791 0.384699 -0.905561
vn -0.954864 0.163296 0.248130
vn -0.954864 0.163296 0.248130
vn -0.954864 0.163296 0.248130
vn -0.954864 0.163296 0.248130
vn -0.090499 0.953319 -0.288087
vn -0.090499 0.953319 -0.288087
vn -0.090498 0.953318 -0.288087
vn -0.216573 0.962140 -0.165480
vn -0.216573 0.962140 -0.165480
vn -0.216573 0.962140 -0.165480
vn -0.216572 0.976175 0.013385
vn -0.216572 0.976175 0.013385
vn -0.216572 0.976175 0.013385
vn -0.090521 0.986586 0.135846
vn -0.090521 0.986586 0.135846
vn -0.090521 0.986586 0.135846
vn -0.188143 0.686828 -0.702047
vn -0.188143 0.686828 -0.702047
vn -0.188143 0.686828 -0.702047
vn -0.188143 0.686828 -0.702047
vn -0.581880 0.758842 -0.292530
vn -0.581880 0.758842 -0.292530
vn -0.581880 0.758842 -0.292530
vn -0.581880 0.758842 -0.292530
vn -0.556420 0.825153 0.097564
vn -0.556420 0.825153 0.097564
vn -0.556420 0.825153 0.097564
vn -0.556420 0.825153 0.097564
vn -0.997431 0.055679 0.045067
vn -0.997431 0.055679 0.045067
vn -0.997431 0.055679 0.045067
vn -0.957833 0.223258 -0.180867
vn -0.957833 0.223258 -0.180867
vn -0.957833 0.223258 -0.180867
vn -0.957833 0.223258 -0.180867
vn -0.885149 0.336976 -0.320871
vn -0.885149 0.336976 -0.320871
vn -0.885149 0.336976 -0.320871
vn -0.185820 0.369982 -0.910266
vn -0.185820 0.369982 -0.910266
vn -0.185820 0.369982 -0.910266
vn -0.185820 0.369982 -0.910266
vn 0.168859 0.980204 -0.103376
vn 0.168859 0.980204 -0.103376
vn 0.168859 0.980204 -0.103376
vn 0.168859 0.980204 -0.103376
vn -0.413162 0.909749 -0.040673
vn -0.413162 0.909749 -0.040673
vn -0.413162 0.909749 -0.040673
vn 0.234997 0.000000 0.971996
vn 0.234997 0.000000 0.971996
vn 0.234997 0.000000 0.971996
vn 0.234997 0.000000 0.971996
vn -0.238194 0.003023 0.971213
vn -0.238194 0.003023 0.971213
vn -0.238194 0.003023 0.971213
vn -0.238194 0.003023 0.971213
vn -0.423585 -0.905618 0.020772
vn -0.423585 -0.905618 0.020772
vn -0.423585 -0.905618 0.020772
vn 0.417119 -0.908607 0.021094
vn 0.417119 -0.908607 0.021094
vn 0.417119 -0.908607 0.021094
vn -0.999415 -0.006452 0.033595
vn -0.999415 -0.006452 0.033595
vn -0.999415 -0.006452 0.033595
vn -0.999415 -0.006452 0.033595
vn 0.999415 -0.006451 0.033595
vn 0.999415 -0.006451 0.033595
vn 0.999415 -0.006451 0.033595
vn 0.999415 -0.006451 0.033595
vn -0.898665 -0.149880 0.412234
vn -0.898665 -0.149880 0.412234
vn -0.898665 -0.149880 0.412234
vn 0.898656 -0.149885 0.412251
vn 0.898656 -0.149885 0.412252
vn 0.898656 -0.149885 0.412252
vn -0.742529 -0.029699 0.669156
vn -0.742529 -0.029699 0.669156
vn -0.742529 -0.029699 0.669156
vn -0.742529 -0.029699 0.669156
vn -0.169251 0.980165 -0.103108
vn -0.169251 0.980165 -0.103108
vn -0.169251 0.980165 -0.103108
vn -0.169251 0.980165 -0.103108
vn 0.747156 0.000003 0.664649
vn 0.747156 0.000003 0.664649
vn 0.747156 0.000003 0.664649
vn 0.747156 0.000003 0.664649
vn 0.404516 0.913602 -0.041203
vn 0.404516 0.913602 -0.041203
vn 0.404516 0.913602 -0.041203
vn -0.164413 -0.982274 0.090034
vn -0.164413 -0.982274 0.090034
vn -0.164413 -0.982274 0.090034
vn -0.164413 -0.982274 0.090034
vn 0.165097 -0.982201 0.089584
vn 0.165097 -0.982201 0.089584
vn 0.165097 -0.982201 0.089584
vn 0.165097 -0.982201 0.089584
vn 0.329716 -0.871237 -0.363639
vn 0.329716 -0.871237 -0.363639
vn 0.329717 -0.871237 -0.363639
vn -0.329716 -0.871237 -0.363639
vn -0.329716 -0.871237 -0.363639
vn -0.329716 -0.871237 -0.363639
vn -0.248339 -0.961558 -0.117193
vn -0.248339 -0.961558 -0.117194
vn -0.248339 -0.961558 -0.117194
vn -0.248339 -0.961558 -0.117194
vn 0.551036 -0.834173 -0.022711
vn 0.551035 -0.834173 -0.022711
vn 0.551035 -0.834173 -0.022711
vn 0.550203 -0.835029 -0.001795
vn 0.550203 -0.835029 -0.001795
vn 0.550203 -0.835029 -0.001795
vn 0.458672 -0.859366 -0.226076
vn 0.458672 -0.859366 -0.226076
vn 0.458672 -0.859366 -0.226076
vn 0.246544 -0.962028 -0.117126
vn 0.246544 -0.962028 -0.117126
vn 0.246544 -0.962028 -0.117126
vn 0.246544 -0.962028 -0.117126
vn -0.458665 -0.859367 -0.226084
vn -0.458665 -0.859367 -0.226084
vn -0.458665 -0.859367 -0.226084
vn -0.549081 -0.835754 -0.005120
vn -0.549081 -0.835754 -0.005120
vn -0.549081 -0.835754 -0.005120
vn -0.549646 -0.835176 -0.019264
vn -0.549646 -0.835176 -0.019264
vn -0.549646 -0.835176 -0.019264
vn 0.253674 -0.207667 0.944735
vn 0.253674 -0.207667 0.944735
vn 0.253674 -0.207667 0.944735
vn 0.338157 0.212199 -0.916854
vn 0.338157 0.212199 -0.916854
vn 0.338157 0.212199 -0.916854
vn 0.338157 0.212199 -0.916854
vn -0.333541 0.211194 -0.918775
vn -0.333541 0.211194 -0.918775
vn -0.333541 0.211194 -0.918775
vn -0.333541 0.211194 -0.918775
vn 0.080299 -0.977362 -0.195741
vn 0.080299 -0.977363 -0.195741
vn 0.080299 -0.977362 -0.195741
vn 0.080299 -0.977362 -0.195741
vn -0.971059 -0.047694 -0.234031
vn -0.971059 -0.047694 -0.234031
vn -0.971059 -0.047694 -0.234031
vn -0.971059 -0.047694 -0.234031
vn 0.970684 -0.051969 -0.234673
vn 0.970684 -0.051969 -0.234673
vn 0.970684 -0.051969 -0.234673
vn 0.970684 -0.051969 -0.234673
vn -0.058992 -0.978183 -0.199194
vn -0.058992 -0.978183 -0.199194
vn -0.058992 -0.978183 -0.199194
vn -0.058992 -0.978183 -0.199194
vn -0.204734 0.839625 0.503103
vn -0.204734 0.839626 0.503103
vn -0.204734 0.839625 0.503103
vn -0.204734 0.839625 0.503103
vn -0.365244 0.390587 0.845008
vn -0.365244 0.390587 0.845008
vn -0.365244 0.390587 0.845008
vn -0.365244 0.390587 0.845008
vn 0.204734 0.839625 0.503104
vn 0.204734 0.839625 0.503104
vn 0.204734 0.839625 0.503104
vn 0.204734 0.839625 0.503104
vn 0.365244 0.390587 0.845008
vn 0.365244 0.390587 0.845008
vn 0.365244 0.390587 0.845008
vn 0.365244 0.390587 0.845008
vn -0.454169 -0.872001 0.182606
vn -0.454169 -0.872001 0.182606
vn -0.454169 -0.872001 0.182606
vn 0.015777 -0.915756 0.401425
vn 0.015777 -0.915756 0.401425
vn 0.015777 -0.915756 0.401425
vn 0.015777 -0.915756 0.401425
vn -0.259851 -0.208690 0.942829
vn -0.259851 -0.208690 0.942829
vn -0.259851 -0.208690 0.942829
vn 0.454100 -0.872010 0.182734
vn 0.454100 -0.872010 0.182734
vn 0.454100 -0.872010 0.182734
s off
f 11/13/1 12/14/2 2/2/3 4/4/4
f 10/12/5 11/13/6 4/4/7 6/6/8
f 9/11/9 10/12/10 6/6/11 8/8/12
f 12/15/13 9/11/14 8/8/15 2/10/16
f 5/5/17 10/12/18 9/11/19 7/7/20
f 3/3/21 11/13/22 10/12/23 5/5/24
f 1/1/25 12/14/26 11/13/27 3/3/28
f 7/7/29 9/11/30 12/15/31 1/9/32
f 25/16/33 17/17/34 18/18/35 13/19/36
f 19/20/37 20/21/38 21/22/39
f 21/22/40 20/21/41 22/23/42
f 22/23/43 20/21/44 23/24/45
f 23/25/46 20/80/47 24/81/48
f 15/26/49 19/20/50 21/22/51 16/27/52
f 17/17/53 16/27/54 21/22/55 22/23/56
f 17/17/57 22/23/58 23/24/59 18/18/60
f 26/28/61 17/17/62 25/16/63
f 27/29/64 16/27/65 17/17/66 26/28/67
f 28/30/68 16/27/69 27/29/70
f 16/27/71 57/31/72 55/32/73 15/26/74
f 32/33/75 31/34/76 36/35/77 29/36/78
f 19/20/79 33/37/80 20/21/81
f 33/37/82 34/38/83 20/21/84
f 34/38/85 35/39/86 20/21/87
f 35/82/88 24/81/89 20/80/90
f 15/26/91 30/40/92 33/37/93 19/20/94
f 33/37/95 30/40/96 31/34/97 34/38/98
f 31/34/99 32/33/100 35/39/101 34/38/102
f 37/41/103 36/35/104 31/34/105
f 31/34/106 30/40/107 38/42/108 37/41/109
f 39/43/110 38/42/111 30/40/112
f 15/26/113 55/32/114 58/44/115 30/40/116
f 13/45/117 14/46/118 40/47/119 52/48/120
f 49/49/121 29/50/122 42/51/123
f 51/52/124 52/48/125 40/47/126 43/56/127
f 40/47/128 49/49/129 50/67/130 43/56/131
f 44/68/132 51/52/133 47/69/134
f 48/70/135 50/67/136 45/71/137
f 48/70/138 45/71/139 42/51/140 29/50/141
f 44/53/142 47/57/143 13/83/144 41/84/145
f 29/36/146 36/35/147 48/55/148
f 25/16/149 13/19/150 47/54/151
f 50/67/152 49/49/153 42/51/154 45/71/155
f 14/46/156 29/50/157 49/49/158 40/47/159
f 41/72/160 52/48/161 51/52/162 44/68/163
f 13/45/164 52/48/165 41/72/166
f 47/69/167 51/52/168 43/56/169 46/73/170
f 43/56/171 50/67/172 48/70/173 46/73/174
f 48/55/175 53/59/176 46/58/177
f 53/59/178 47/54/179 46/58/180
f 60/60/181 38/42/182 39/43/183 56/61/184
f 38/42/185 53/59/186 37/41/187
f 37/41/188 53/59/189 36/35/190
f 36/35/191 53/59/192 48/55/193
f 59/62/194 54/63/195 28/30/196 27/29/197
f 53/59/198 25/16/199 47/54/200
f 26/28/201 25/16/202 53/59/203
f 26/28/204 53/59/205 27/29/206
f 63/66/207 38/42/208 60/60/209
f 28/30/210 54/63/211 57/31/212 16/27/213
f 30/40/214 58/44/215 56/61/216 39/43/217
f 55/32/218 57/31/219 61/65/220 62/64/221
f 57/31/222 54/63/223 59/62/224 61/65/225
f 56/61/226 58/44/227 63/66/228 60/60/229
f 58/44/230 55/32/231 62/64/232 63/66/233
f 35/74/234 32/75/235 64/76/236 24/77/237
f 29/50/238 14/46/239 64/76/240 32/75/241
f 23/78/242 24/77/243 64/76/244 18/79/245
f 13/45/246 18/79/247 64/76/248 14/46/249
f 53/59/250 61/65/251 27/29/252
f 53/59/253 63/66/254 62/64/255 61/65/256
f 27/29/257 61/65/258 59/62/259
f 53/59/260 38/42/261 63/66/262
