# This file uses meters as units for non-parametric coordinates.

v 14.684844 12.272844 -8.631762
v 5.618175 7.845602 -16.246918
v -6.989431 7.137060 -15.662139
v -15.752608 10.562296 -7.219974
v -15.538013 16.114836 4.134268
v -6.471345 20.542099 11.749428
v 6.136261 21.250629 11.164647
v 14.899443 17.825394 2.722482
v -0.990938 53.079193 -22.426455
v -3.094730 51.991844 -24.117928
v -5.971629 51.640579 -23.854475
v -7.936384 52.231148 -21.790424
v -7.838068 53.417625 -19.134872
v -5.734275 54.504974 -17.443401
v -2.857376 54.856224 -17.706854
v -0.892621 54.265652 -19.770903
v -4.414503 53.248405 -20.780663
v -0.099739 10.046730 -0.226868
v 25.636772 10.880623 -13.257820
v -11.745820 2.022686 -25.383432
v 25.963617 6.733513 -11.235943
v -11.418975 -2.124424 -23.361553
v -26.489944 17.507076 8.760326
v -26.163101 13.359966 10.782204
v 10.892652 26.365013 20.885939
v 11.219498 22.217903 22.907814
v 1.829140 32.320183 -20.473684
v 6.649387 34.811508 -16.598158
v 6.874650 37.529968 -10.513711
v 2.372972 38.883118 -5.784530
v -4.218625 38.078293 -5.180903
v -9.038872 35.586937 -9.056431
v -9.264133 32.868481 -15.140877
v -4.762456 31.515350 -19.870060
v 3.352876 24.621742 -19.785522
v 9.714540 27.909767 -14.670680
v 10.011838 31.497528 -6.640550
v 4.070613 33.283379 -0.399073
v -4.628842 32.221184 0.397581
v -10.990507 28.933163 -4.717261
v -11.287803 25.345402 -12.747393
v -5.346580 23.559551 -18.988871
vt 0.123193 0.210045
vt 0.123193 0.210045
vt 0.123193 0.210045
vt 0.123193 0.210045
vt 0.123193 0.210045
vt 0.123193 0.210045
vt 0.123193 0.210045
vt 0.123193 0.210045
vt 0.123193 0.210045
vt 0.123193 0.210045
vt 0.123193 0.210045
vt 0.123193 0.210045
vt 0.123193 0.210045
vt 0.123193 0.210045
vt 0.123193 0.210045
vt 0.123193 0.210045
vt 0.123193 0.210045
vt 0.123193 0.210045
vt 0.123193 0.210045
vt 0.123193 0.210045
vt 0.123193 0.210045
vt 0.123193 0.210045
vt 0.123193 0.210045
vt 0.123193 0.210045
vt 0.123193 0.210045
vt 0.123193 0.210045
vt 0.123193 0.210045
vt 0.123193 0.210045
vt 0.123193 0.210045
vt 0.123193 0.210045
vt 0.123193 0.210045
vt 0.123193 0.210045
vt 0.123193 0.210045
vt 0.123193 0.210045
vt 0.123193 0.210045
vt 0.123193 0.210045
vt 0.123193 0.210045
vt 0.123193 0.210045
vt 0.123193 0.210045
vt 0.123193 0.210045
vt 0.123193 0.210045
vt 0.123193 0.210045
vt 0.123193 0.210045
vt 0.123193 0.210045
vt 0.123193 0.210045
vt 0.123193 0.210045
vt 0.123193 0.210045
vt 0.123193 0.210045
vt 0.123193 0.210045
vt 0.123193 0.210045
vt 0.123193 0.210045
vt 0.123193 0.210045
vt 0.123193 0.210045
vt 0.123193 0.210045
vt 0.123193 0.210045
vt 0.123193 0.210045
vt 0.123193 0.210045
vt 0.123193 0.210045
vt 0.123193 0.210045
vt 0.123193 0.210045
vt 0.123193 0.210045
vt 0.123193 0.210045
vt 0.154662 0.211470
vt 0.154662 0.211470
vt 0.154662 0.211470
vt 0.154662 0.211470
vt 0.154662 0.211470
vt 0.154662 0.211470
vt 0.154662 0.211470
vt 0.154662 0.211470
vt 0.154662 0.211470
vt 0.154662 0.211470
vt 0.154662 0.211470
vt 0.154662 0.211470
vt 0.154662 0.211470
vt 0.154662 0.211470
vt 0.154662 0.211470
vt 0.154662 0.211470
vn 0.656717 -0.075127 -0.750386
vn 0.656717 -0.075127 -0.750386
vn 0.648032 -0.049161 -0.760024
vn 0.647296 -0.047031 -0.760786
vn -0.046530 -0.203128 -0.978046
vn -0.046530 -0.203128 -0.978046
vn -0.052978 -0.183203 -0.981647
vn -0.054290 -0.179129 -0.982327
vn -0.715565 -0.057478 -0.696178
vn -0.715565 -0.057478 -0.696178
vn -0.718139 -0.050115 -0.694093
vn -0.718630 -0.048697 -0.693686
vn -0.959983 0.262239 -0.098303
vn -0.959983 0.262239 -0.098303
vn -0.962088 0.256765 -0.091972
vn -0.962214 0.256431 -0.091586
vn -0.674215 0.566569 0.473745
vn -0.674215 0.566569 0.473744
vn -0.675958 0.557614 0.481818
vn -0.675800 0.558448 0.481072
vn -0.011123 0.694833 0.719085
vn -0.011123 0.694833 0.719085
vn -0.012878 0.693667 0.720180
vn -0.012552 0.693884 0.719977
vn 0.673731 0.567542 0.473268
vn 0.673731 0.567542 0.473268
vn 0.667963 0.580718 0.465395
vn 0.669026 0.578332 0.466837
vn 0.958368 0.247671 -0.142093
vn 0.958368 0.247671 -0.142093
vn 0.950035 0.271808 -0.153476
vn 0.950722 0.269904 -0.152579
vn -0.147047 0.905107 -0.398946
vn -0.147047 0.905107 -0.398947
vn -0.147046 0.905107 -0.398947
vn -0.147047 0.905107 -0.398947
vn -0.147047 0.905108 -0.398944
vn -0.147046 0.905107 -0.398947
vn -0.147047 0.905108 -0.398944
vn -0.147048 0.905107 -0.398947
vn -0.147046 0.905107 -0.398947
vn -0.147048 0.905107 -0.398947
vn -0.147047 0.905106 -0.398950
vn -0.147046 0.905107 -0.398947
vn -0.147047 0.905106 -0.398950
vn -0.147044 0.905106 -0.398949
vn -0.147046 0.905107 -0.398947
vn -0.147044 0.905106 -0.398949
vn -0.147044 0.905108 -0.398946
vn -0.147046 0.905107 -0.398947
vn -0.147044 0.905108 -0.398946
vn -0.147046 0.905108 -0.398944
vn -0.147046 0.905107 -0.398947
vn -0.147046 0.905108 -0.398944
vn -0.147047 0.905107 -0.398946
vn -0.147046 0.905107 -0.398947
vn 0.365987 -0.384363 -0.847537
vn 0.365987 -0.384363 -0.847537
vn 0.365988 -0.384363 -0.847537
vn 0.365988 -0.384363 -0.847537
vn -0.927933 -0.219877 -0.300989
vn -0.927933 -0.219877 -0.300989
vn -0.927933 -0.219877 -0.300989
vn -0.927933 -0.219877 -0.300989
vn -0.365987 0.384362 0.847537
vn -0.365987 0.384363 0.847537
vn -0.365987 0.384362 0.847537
vn -0.365987 0.384362 0.847537
vn 0.927933 0.219877 0.300989
vn 0.927933 0.219877 0.300989
vn 0.927933 0.219877 0.300989
vn 0.927933 0.219877 0.300989
vn -0.070665 0.896616 -0.437135
vn -0.070665 0.896616 -0.437135
vn -0.070665 0.896616 -0.437135
vn -0.070665 0.896616 -0.437135
vn 0.070665 -0.896616 0.437135
vn 0.070665 -0.896616 0.437135
vn 0.070665 -0.896616 0.437135
vn -0.070665 0.896616 -0.437135
vn -0.070665 0.896616 -0.437135
vn -0.070665 0.896616 -0.437135
vn -0.070665 0.896616 -0.437135
vn -0.070665 0.896616 -0.437135
vn -0.070665 0.896616 -0.437135
vn -0.070665 0.896616 -0.437135
vn 0.070664 -0.896616 0.437135
vn 0.070664 -0.896616 0.437135
vn 0.070664 -0.896616 0.437135
vn -0.070664 0.896616 -0.437134
vn -0.070664 0.896616 -0.437135
vn -0.070664 0.896616 -0.437134
vn -0.070664 0.896615 -0.437136
vn -0.070664 0.896615 -0.437136
vn -0.070664 0.896615 -0.437136
vn -0.070664 0.896615 -0.437136
vn 0.070665 -0.896615 0.437135
vn 0.070665 -0.896615 0.437135
vn 0.070665 -0.896615 0.437135
vn -0.070664 0.896615 -0.437136
vn -0.070664 0.896615 -0.437136
vn -0.070664 0.896615 -0.437136
vn -0.070666 0.896615 -0.437136
vn -0.070666 0.896615 -0.437136
vn -0.070666 0.896615 -0.437136
vn -0.070666 0.896615 -0.437136
vn 0.070665 -0.896615 0.437135
vn 0.070665 -0.896615 0.437135
vn 0.070665 -0.896615 0.437135
vn -0.070666 0.896616 -0.437135
vn -0.070666 0.896616 -0.437135
vn -0.070666 0.896616 -0.437135
vn 0.617850 0.027022 -0.785831
vn 0.617748 0.027327 -0.785901
vn 0.623078 0.011075 -0.782082
vn 0.623078 0.011075 -0.782081
vn 0.922123 0.339379 -0.185770
vn 0.922169 0.339278 -0.185727
vn 0.926507 0.329580 -0.181555
vn 0.926507 0.329580 -0.181555
vn 0.661153 0.592920 0.459698
vn 0.661430 0.592260 0.460150
vn 0.669409 0.572533 0.473389
vn 0.669409 0.572533 0.473389
vn -0.007500 0.638577 0.769522
vn -0.007225 0.637187 0.770675
vn 0.000340 0.598223 0.801329
vn 0.000340 0.598223 0.801329
vn -0.689096 0.451486 0.566839
vn -0.689161 0.450432 0.567598
vn -0.690953 0.390421 0.608404
vn -0.690953 0.390421 0.608404
vn -0.989548 0.141714 -0.026681
vn -0.989439 0.142411 -0.026996
vn -0.997511 0.070298 0.005522
vn -0.997511 0.070298 0.005522
vn -0.735523 -0.111285 -0.668298
vn -0.735403 -0.109257 -0.668764
vn -0.737645 -0.173505 -0.652515
vn -0.737645 -0.173505 -0.652515
vn -0.070692 -0.159526 -0.984659
vn -0.070884 -0.158115 -0.984873
vn -0.065446 -0.197578 -0.978100
vn -0.065446 -0.197578 -0.978100
vn 0.647296 -0.047031 -0.760786
vn 0.648032 -0.049161 -0.760024
vn 0.617748 0.027327 -0.785901
vn 0.617850 0.027022 -0.785831
vn 0.950722 0.269904 -0.152579
vn 0.950035 0.271808 -0.153476
vn 0.922169 0.339278 -0.185727
vn 0.922123 0.339379 -0.185770
vn 0.669026 0.578332 0.466837
vn 0.667963 0.580718 0.465395
vn 0.661430 0.592260 0.460150
vn 0.661153 0.592920 0.459698
vn -0.012552 0.693884 0.719977
vn -0.012878 0.693667 0.720180
vn -0.007225 0.637187 0.770675
vn -0.007500 0.638577 0.769522
vn -0.675800 0.558448 0.481072
vn -0.675958 0.557614 0.481818
vn -0.689161 0.450432 0.567598
vn -0.689096 0.451486 0.566839
vn -0.962214 0.256431 -0.091586
vn -0.962088 0.256765 -0.091972
vn -0.989439 0.142411 -0.026996
vn -0.989548 0.141714 -0.026681
vn -0.718630 -0.048697 -0.693686
vn -0.718139 -0.050115 -0.694093
vn -0.735403 -0.109257 -0.668764
vn -0.735523 -0.111285 -0.668298
vn -0.054290 -0.179129 -0.982327
vn -0.052978 -0.183203 -0.981647
vn -0.070884 -0.158115 -0.984873
vn -0.070692 -0.159526 -0.984659
s off
f 1/9/1 2/10/2 35/54/3 36/56/4
f 2/10/5 3/11/6 42/62/7 35/54/8
f 3/11/9 4/12/10 41/61/11 42/62/12
f 4/12/13 5/13/14 40/60/15 41/61/16
f 5/13/17 6/14/18 39/59/19 40/60/20
f 6/14/21 7/15/22 38/58/23 39/59/24
f 7/15/25 8/16/26 37/57/27 38/58/28
f 8/16/29 1/17/30 36/55/31 37/57/32
f 9/33/33 10/32/34 17/36/35
f 10/32/36 11/31/37 17/36/38
f 11/31/39 12/30/40 17/36/41
f 12/30/42 13/29/43 17/36/44
f 13/29/45 14/28/46 17/36/47
f 14/28/48 15/27/49 17/36/50
f 15/27/51 16/34/52 17/36/53
f 16/34/54 9/33/55 17/36/56
f 20/37/57 19/38/58 21/39/59 22/40/60
f 23/41/61 20/37/62 22/40/63 24/42/64
f 25/43/65 23/41/66 24/42/67 26/44/68
f 19/38/69 25/43/70 26/44/71 21/39/72
f 2/2/73 1/1/74 19/38/75 20/37/76
f 18/35/77 22/40/78 21/39/79
f 3/3/80 2/2/81 20/37/82
f 4/4/83 3/3/84 20/37/85 23/41/86
f 18/35/87 24/42/88 22/40/89
f 5/5/90 4/4/91 23/41/92
f 6/6/93 5/5/94 23/41/95 25/43/96
f 18/35/97 26/44/98 24/42/99
f 7/7/100 6/6/101 25/43/102
f 8/8/103 7/7/104 25/43/105 19/38/106
f 18/35/107 21/39/108 26/44/109
f 1/1/110 8/8/111 19/38/112
f 28/47/113 27/45/114 10/19/115 9/18/116
f 29/48/117 28/46/118 9/26/119 16/25/120
f 30/49/121 29/48/122 16/25/123 15/24/124
f 31/50/125 30/49/126 15/24/127 14/23/128
f 32/51/129 31/50/130 14/23/131 13/22/132
f 33/52/133 32/51/134 13/22/135 12/21/136
f 34/53/137 33/52/138 12/21/139 11/20/140
f 27/45/141 34/53/142 11/20/143 10/19/144
f 36/63/145 35/64/146 27/65/147 28/66/148
f 37/67/149 36/63/150 28/66/151 29/68/152
f 38/69/153 37/67/154 29/68/155 30/70/156
f 39/71/157 38/69/158 30/70/159 31/72/160
f 40/73/161 39/71/162 31/72/163 32/74/164
f 41/75/165 40/73/166 32/74/167 33/76/168
f 42/77/169 41/75/170 33/76/171 34/78/172
f 35/64/173 42/77/174 34/78/175 27/65/176
