# This file uses meters as units for non-parametric coordinates.

v -6.580790 17.468748 -14.009804
v -8.231722 24.298344 -5.590748
v -7.602054 25.561886 4.743007
v -6.580790 22.695915 11.343794
v -5.256096 19.114914 12.993345
v -10.989905 13.810081 -12.130270
v -12.589799 19.705727 -4.824952
v -11.534945 20.609303 5.526169
v -9.393163 19.718323 10.624579
v -11.017966 13.174849 -11.639592
v -13.562988 16.750269 1.157110
v -12.108318 18.190842 6.347113
v -10.025497 19.027435 11.171856
v -12.000297 12.042961 -12.448789
v -14.860373 15.816288 1.314666
v -13.284959 17.365532 6.962694
v -10.962506 18.274239 12.186939
v -5.850212 18.400536 14.153988
v -11.773290 6.219063 -11.649421
v -14.131564 9.909439 1.853741
v -13.033651 11.324711 7.394859
v -10.754470 12.219305 12.515171
v -5.737272 12.494898 14.444542
v -0.000124 12.510843 14.533731
v -0.000124 18.592510 14.239700
v -0.000124 19.271271 13.049496
v -0.000124 23.993759 11.928812
v -0.000124 26.947136 5.131894
v -0.000124 26.211128 -6.593968
v -0.000124 17.984879 -15.056726
v -0.000124 12.563963 -14.800197
v -0.000124 11.372175 -15.854004
v -0.000124 5.561132 -14.990229
v -13.850286 15.106344 -4.392695
v -15.008166 14.120083 -4.677849
v -14.724258 8.256979 -4.025480
v -0.000124 12.655239 -0.228465
v 6.580542 17.468748 -14.009804
v 8.021490 24.785378 -5.486069
v 7.919683 25.192596 4.935224
v 6.580542 22.695915 11.343794
v 5.255848 19.114914 12.993345
v 10.989657 13.810081 -12.130270
v 12.589551 19.705727 -4.824952
v 11.534697 20.609303 5.526169
v 9.392915 19.718323 10.624579
v 11.017718 13.174849 -11.639592
v 13.562740 16.750269 1.157110
v 12.108070 18.190842 6.347113
v 10.025249 19.027435 11.171856
v 12.000049 12.042961 -12.448789
v 14.860125 15.816288 1.314666
v 13.284711 17.365532 6.962694
v 10.962258 18.274239 12.186939
v 5.849964 18.400536 14.153988
v 11.773042 6.219063 -11.649421
v 14.131316 9.909439 1.853741
v 13.033403 11.324711 7.394859
v 10.754222 12.219305 12.515171
v 5.737024 12.494898 14.444542
v 13.850038 15.106344 -4.392695
v 15.007918 14.120083 -4.677849
v 14.724010 8.256979 -4.025480
v -6.100278 13.703194 15.083210
v -11.433038 13.497181 13.044161
v -13.855610 12.587452 7.586041
v -15.257431 11.084146 1.695439
v -15.652836 9.326258 -4.554520
v -12.515763 7.159834 -12.659263
v -0.000124 6.460342 -16.210754
v 12.515515 7.159834 -12.659263
v 15.652588 9.326258 -4.554520
v 15.257183 11.084146 1.695439
v 13.855362 12.587452 7.586041
v 11.432790 13.497181 13.044161
v 6.100030 13.703194 15.083210
v -0.000124 13.803568 15.175353
vt 0.010903 0.073825
vt 0.010903 0.073825
vt 0.010903 0.073825
vt 0.010903 0.073825
vt 0.010903 0.073825
vt 0.010903 0.073825
vt 0.010903 0.073825
vt 0.010903 0.073825
vt 0.010903 0.073825
vt 0.010903 0.073825
vt 0.010903 0.073825
vt 0.010903 0.073825
vt 0.010903 0.073825
vt 0.217276 0.490669
vt 0.217276 0.490669
vt 0.217276 0.490669
vt 0.217276 0.490669
vt 0.217276 0.490669
vt 0.217276 0.490669
vt 0.217276 0.490669
vt 0.217276 0.490669
vt 0.217276 0.490669
vt 0.217276 0.490669
vt 0.217276 0.490669
vt 0.217276 0.490669
vt 0.010903 0.073825
vt 0.217276 0.490669
vt 0.010903 0.073825
vt 0.010903 0.073825
vt 0.010903 0.073825
vt 0.010903 0.073825
vt 0.010903 0.073825
vt 0.217276 0.490669
vt 0.217276 0.490669
vt 0.217276 0.490669
vt 0.010903 0.073825
vt 0.217276 0.490669
vt 0.217276 0.490669
vt 0.217276 0.490669
vt 0.217276 0.490669
vt 0.217276 0.490669
vt 0.217276 0.490669
vt 0.217276 0.490669
vt 0.217276 0.490669
vt 0.217276 0.490669
vt 0.010903 0.073825
vt 0.010903 0.073825
vt 0.010903 0.073825
vt 0.010903 0.073825
vt 0.010903 0.073825
vt 0.010903 0.073825
vt 0.010903 0.073825
vt 0.010903 0.073825
vt 0.010903 0.073825
vt 0.010903 0.073825
vt 0.010903 0.073825
vt 0.217276 0.490669
vt 0.217276 0.490669
vt 0.217276 0.490669
vt 0.217276 0.490669
vt 0.217276 0.490669
vt 0.217276 0.490669
vt 0.010903 0.073825
vt 0.010903 0.073825
vt 0.010903 0.073825
vt 0.010903 0.073825
vt 0.010903 0.073825
vt 0.010903 0.073825
vt 0.010903 0.073825
vt 0.010903 0.073825
vt 0.217276 0.490669
vt 0.217276 0.490669
vt 0.217276 0.490669
vt 0.217276 0.490669
vt 0.217276 0.490669
vt 0.217276 0.490669
vt 0.217276 0.490669
vt 0.217276 0.490669
vt 0.217276 0.490669
vt 0.217276 0.490669
vt 0.217276 0.490669
vt 0.217276 0.490669
vt 0.217276 0.490669
vt 0.217276 0.490669
vt 0.217276 0.490669
vt 0.217276 0.490669
vt 0.217276 0.490669
vt 0.217276 0.490669
vt 0.010903 0.073825
vt 0.217276 0.490669
vt 0.217276 0.490669
vt 0.217276 0.490669
vt 0.217276 0.490669
vt 0.217276 0.490669
vt 0.217276 0.490669
vt 0.217276 0.490669
vt 0.217276 0.490669
vt 0.217276 0.490669
vt 0.217276 0.490669
vt 0.217276 0.490669
vt 0.217276 0.490669
vt 0.217276 0.490669
vt 0.217276 0.490669
vt 0.217276 0.490669
vt 0.217276 0.490669
vt 0.217276 0.490669
vn -0.153369 -0.046710 -0.987064
vn -0.153369 -0.046710 -0.987064
vn -0.153369 -0.046710 -0.987064
vn -0.209623 0.719462 -0.662143
vn -0.209624 0.719462 -0.662143
vn -0.209623 0.719462 -0.662143
vn -0.209623 0.719462 -0.662143
vn -0.206289 0.975008 -0.082489
vn -0.206289 0.975008 -0.082489
vn -0.206289 0.975008 -0.082489
vn -0.206289 0.975008 -0.082489
vn -0.196761 0.893714 0.403187
vn -0.196761 0.893714 0.403187
vn -0.196761 0.893714 0.403187
vn -0.196761 0.893714 0.403187
vn -0.088570 0.302488 0.949029
vn -0.088570 0.302488 0.949029
vn -0.088570 0.302488 0.949029
vn -0.088570 0.302488 0.949029
vn -0.033511 0.863493 0.503246
vn -0.033511 0.863493 0.503246
vn -0.033511 0.863493 0.503246
vn -0.033511 0.863493 0.503246
vn -0.009139 -0.456704 0.889572
vn -0.009139 -0.456704 0.889572
vn -0.009139 -0.456704 0.889572
vn -0.009139 -0.456704 0.889572
vn -0.653313 0.516782 -0.553280
vn -0.653313 0.516782 -0.553280
vn -0.653313 0.516782 -0.553280
vn -0.653313 0.516782 -0.553280
vn -0.755518 0.655090 -0.007105
vn -0.755518 0.655090 -0.007105
vn -0.755518 0.655090 -0.007105
vn -0.755518 0.655090 -0.007105
vn -0.702222 0.600383 0.382656
vn -0.702222 0.600383 0.382656
vn -0.702222 0.600383 0.382656
vn -0.702222 0.600383 0.382656
vn -0.423790 0.358964 0.831593
vn -0.423790 0.358964 0.831593
vn -0.423790 0.358964 0.831593
vn -0.423790 0.358964 0.831593
vn -0.964729 0.261795 -0.027606
vn -0.964729 0.261795 -0.027606
vn -0.964729 0.261795 -0.027606
vn -0.920326 0.380363 0.091239
vn -0.920326 0.380363 0.091239
vn -0.920326 0.380363 0.091239
vn -0.920326 0.380363 0.091239
vn -0.812097 0.468171 0.348301
vn -0.812097 0.468171 0.348301
vn -0.812097 0.468171 0.348301
vn -0.812097 0.468171 0.348301
vn -0.172026 0.659447 -0.731804
vn -0.172026 0.659447 -0.731804
vn -0.172026 0.659447 -0.731804
vn -0.172026 0.659447 -0.731804
vn -0.596787 0.776503 -0.202209
vn -0.596787 0.776503 -0.202209
vn -0.596787 0.776503 -0.202209
vn -0.596787 0.776503 -0.202209
vn -0.590356 0.805124 -0.057053
vn -0.590356 0.805124 -0.057053
vn -0.590356 0.805124 -0.057053
vn -0.590356 0.805124 -0.057053
vn -0.547281 0.831482 0.095506
vn -0.547281 0.831482 0.095506
vn -0.547281 0.831482 0.095506
vn -0.547281 0.831482 0.095506
vn -0.192214 0.870953 0.452210
vn -0.192214 0.870953 0.452210
vn -0.192214 0.870953 0.452210
vn -0.192214 0.870953 0.452210
vn -0.208618 -0.787371 -0.580108
vn -0.208618 -0.787371 -0.580108
vn -0.208618 -0.787371 -0.580108
vn -0.208618 -0.787371 -0.580108
vn -0.751712 -0.616375 0.234544
vn -0.751712 -0.616375 0.234544
vn -0.751712 -0.616375 0.234544
vn -0.751712 -0.616375 0.234544
vn -0.739691 -0.595337 0.313738
vn -0.739691 -0.595337 0.313738
vn -0.739691 -0.595337 0.313738
vn -0.739691 -0.595337 0.313738
vn -0.726385 -0.546977 0.416150
vn -0.726385 -0.546977 0.416150
vn -0.726385 -0.546977 0.416150
vn -0.726385 -0.546977 0.416150
vn -0.288805 -0.503452 0.814327
vn -0.288805 -0.503452 0.814327
vn -0.288805 -0.503452 0.814327
vn -0.288805 -0.503452 0.814327
vn -0.255325 -0.251485 -0.933576
vn -0.255325 -0.251485 -0.933576
vn -0.255325 -0.251485 -0.933576
vn -0.255325 -0.251485 -0.933576
vn -0.916621 0.161131 -0.365845
vn -0.916621 0.161131 -0.365845
vn -0.916621 0.161131 -0.365845
vn -0.916621 0.161131 -0.365845
vn -0.530153 0.744922 -0.405005
vn -0.530153 0.744922 -0.405005
vn -0.530153 0.744922 -0.405005
vn -0.530153 0.744922 -0.405005
vn -0.726427 -0.680017 -0.099404
vn -0.726427 -0.680017 -0.099404
vn -0.726427 -0.680017 -0.099404
vn -0.726427 -0.680017 -0.099404
vn 0.002931 -0.999948 -0.009781
vn 0.002931 -0.999948 -0.009781
vn 0.002931 -0.999948 -0.009781
vn 0.051333 -0.998640 0.009158
vn 0.051333 -0.998640 0.009158
vn 0.051333 -0.998640 0.009158
vn 0.159177 -0.982098 0.100734
vn 0.159177 -0.982098 0.100734
vn 0.159177 -0.982098 0.100733
vn 0.219440 -0.944771 0.243423
vn 0.219440 -0.944771 0.243423
vn 0.219440 -0.944771 0.243423
vn 0.193576 -0.926532 0.322593
vn 0.193576 -0.926532 0.322593
vn 0.193576 -0.926532 0.322593
vn 0.072353 -0.898959 0.432016
vn 0.072353 -0.898959 0.432016
vn 0.072353 -0.898959 0.432016
vn 0.215341 -0.955547 0.201391
vn 0.215341 -0.955547 0.201391
vn 0.215341 -0.955547 0.201391
vn 0.153369 -0.046710 -0.987064
vn 0.153369 -0.046710 -0.987064
vn 0.153369 -0.046710 -0.987064
vn 0.194182 0.715459 -0.671127
vn 0.194182 0.715459 -0.671127
vn 0.194182 0.715459 -0.671127
vn 0.194182 0.715459 -0.671127
vn 0.198129 0.978919 -0.049621
vn 0.198129 0.978919 -0.049621
vn 0.198129 0.978919 -0.049621
vn 0.198129 0.978919 -0.049621
vn 0.209721 0.896130 0.391111
vn 0.209721 0.896130 0.391111
vn 0.209721 0.896130 0.391111
vn 0.209721 0.896130 0.391111
vn 0.088570 0.302488 0.949029
vn 0.088570 0.302488 0.949029
vn 0.088570 0.302488 0.949029
vn 0.088570 0.302488 0.949029
vn 0.033511 0.863493 0.503246
vn 0.033511 0.863493 0.503246
vn 0.033511 0.863493 0.503246
vn 0.033511 0.863493 0.503246
vn 0.009139 -0.456704 0.889572
vn 0.009139 -0.456704 0.889572
vn 0.009139 -0.456704 0.889572
vn 0.009139 -0.456704 0.889572
vn 0.655890 0.512749 -0.553983
vn 0.655890 0.512749 -0.553983
vn 0.655890 0.512749 -0.553983
vn 0.655890 0.512749 -0.553983
vn 0.763014 0.646379 0.001698
vn 0.763014 0.646380 0.001698
vn 0.763014 0.646379 0.001698
vn 0.763014 0.646379 0.001698
vn 0.705453 0.593111 0.388015
vn 0.705453 0.593111 0.388015
vn 0.705453 0.593111 0.388015
vn 0.705453 0.593111 0.388015
vn 0.423790 0.358964 0.831593
vn 0.423790 0.358964 0.831593
vn 0.423790 0.358964 0.831593
vn 0.423790 0.358964 0.831593
vn 0.964729 0.261795 -0.027606
vn 0.964729 0.261795 -0.027606
vn 0.964729 0.261795 -0.027606
vn 0.920326 0.380363 0.091239
vn 0.920326 0.380363 0.091239
vn 0.920326 0.380363 0.091239
vn 0.920326 0.380363 0.091239
vn 0.812098 0.468170 0.348301
vn 0.812098 0.468170 0.348301
vn 0.812098 0.468170 0.348302
vn 0.812098 0.468170 0.348301
vn 0.172026 0.659447 -0.731804
vn 0.172026 0.659447 -0.731804
vn 0.172026 0.659447 -0.731804
vn 0.172026 0.659447 -0.731804
vn 0.596788 0.776502 -0.202209
vn 0.596788 0.776502 -0.202209
vn 0.596788 0.776502 -0.202209
vn 0.596788 0.776502 -0.202209
vn 0.590357 0.805124 -0.057053
vn 0.590357 0.805124 -0.057053
vn 0.590357 0.805124 -0.057053
vn 0.590357 0.805124 -0.057053
vn 0.547281 0.831482 0.095506
vn 0.547281 0.831482 0.095506
vn 0.547281 0.831482 0.095506
vn 0.547281 0.831482 0.095506
vn 0.192214 0.870953 0.452211
vn 0.192214 0.870953 0.452211
vn 0.192214 0.870953 0.452211
vn 0.192214 0.870953 0.452211
vn 0.208618 -0.787371 -0.580108
vn 0.208618 -0.787371 -0.580108
vn 0.208618 -0.787371 -0.580108
vn 0.208618 -0.787371 -0.580108
vn 0.751712 -0.616375 0.234544
vn 0.751712 -0.616375 0.234544
vn 0.751712 -0.616375 0.234544
vn 0.751712 -0.616375 0.234544
vn 0.739691 -0.595337 0.313738
vn 0.739691 -0.595337 0.313738
vn 0.739691 -0.595337 0.313738
vn 0.739691 -0.595337 0.313738
vn 0.726385 -0.546977 0.416150
vn 0.726385 -0.546977 0.416150
vn 0.726385 -0.546977 0.416150
vn 0.726385 -0.546977 0.416150
vn 0.288805 -0.503452 0.814327
vn 0.288805 -0.503452 0.814327
vn 0.288805 -0.503452 0.814327
vn 0.288805 -0.503452 0.814327
vn 0.255325 -0.251485 -0.933576
vn 0.255325 -0.251485 -0.933576
vn 0.255325 -0.251485 -0.933576
vn 0.255325 -0.251485 -0.933576
vn 0.916621 0.161131 -0.365845
vn 0.916621 0.161131 -0.365845
vn 0.916621 0.161131 -0.365845
vn 0.916621 0.161131 -0.365845
vn 0.530153 0.744922 -0.405005
vn 0.530153 0.744922 -0.405005
vn 0.530153 0.744922 -0.405005
vn 0.530153 0.744922 -0.405005
vn 0.726427 -0.680017 -0.099404
vn 0.726427 -0.680017 -0.099404
vn 0.726427 -0.680017 -0.099404
vn 0.726427 -0.680017 -0.099404
vn -0.002931 -0.999948 -0.009781
vn -0.002931 -0.999948 -0.009781
vn -0.002931 -0.999948 -0.009781
vn -0.051333 -0.998640 0.009158
vn -0.051333 -0.998640 0.009158
vn -0.051333 -0.998640 0.009158
vn -0.159177 -0.982098 0.100733
vn -0.159177 -0.982098 0.100733
vn -0.159177 -0.982098 0.100733
vn -0.219440 -0.944771 0.243422
vn -0.219440 -0.944771 0.243422
vn -0.219440 -0.944771 0.243422
vn -0.193576 -0.926532 0.322593
vn -0.193576 -0.926532 0.322593
vn -0.193576 -0.926532 0.322593
vn -0.072353 -0.898959 0.432016
vn -0.072353 -0.898959 0.432016
vn -0.072353 -0.898959 0.432016
vn -0.215341 -0.955547 0.201391
vn -0.215341 -0.955547 0.201391
vn -0.215341 -0.955547 0.201391
vn -0.356445 0.199228 0.912828
vn -0.356445 0.199228 0.912828
vn -0.356445 0.199228 0.912828
vn -0.356445 0.199228 0.912828
vn -0.912116 0.158001 0.378259
vn -0.912116 0.158001 0.378259
vn -0.912116 0.158001 0.378259
vn -0.912116 0.158001 0.378259
vn -0.968415 0.121528 0.217723
vn -0.968415 0.121528 0.217723
vn -0.968415 0.121528 0.217723
vn -0.968415 0.121528 0.217723
vn -0.993911 0.109391 0.013236
vn -0.993911 0.109391 0.013236
vn -0.993911 0.109391 0.013236
vn -0.993911 0.109391 0.013236
vn -0.916007 0.113282 -0.384836
vn -0.916007 0.113282 -0.384836
vn -0.916007 0.113282 -0.384836
vn -0.916007 0.113282 -0.384836
vn -0.268710 0.069774 -0.960691
vn -0.268710 0.069774 -0.960691
vn -0.268710 0.069774 -0.960691
vn -0.268710 0.069774 -0.960691
vn 0.268709 0.069774 -0.960691
vn 0.268710 0.069774 -0.960691
vn 0.268710 0.069774 -0.960691
vn 0.268709 0.069774 -0.960691
vn 0.916007 0.113282 -0.384836
vn 0.916007 0.113282 -0.384836
vn 0.916007 0.113282 -0.384836
vn 0.916007 0.113282 -0.384836
vn 0.993911 0.109392 0.013236
vn 0.993911 0.109392 0.013236
vn 0.993911 0.109392 0.013236
vn 0.993911 0.109392 0.013236
vn 0.968415 0.121528 0.217723
vn 0.968415 0.121528 0.217723
vn 0.968415 0.121528 0.217723
vn 0.968415 0.121528 0.217723
vn 0.912116 0.158001 0.378259
vn 0.912116 0.158001 0.378259
vn 0.912116 0.158001 0.378259
vn 0.912116 0.158001 0.378259
vn 0.356445 0.199228 0.912828
vn 0.356445 0.199228 0.912828
vn 0.356445 0.199229 0.912828
vn 0.356445 0.199229 0.912828
vn 0.019330 0.193349 0.980940
vn 0.019330 0.193349 0.980940
vn 0.019330 0.193349 0.980940
vn 0.019330 0.193349 0.980940
vn -0.019330 0.193349 0.980940
vn -0.019330 0.193349 0.980940
vn -0.019330 0.193349 0.980940
vn -0.019330 0.193349 0.980940
s off
f 1/1/1 30/31/2 31/32/3
f 29/30/4 30/31/5 1/1/6 2/2/7
f 28/29/8 29/30/9 2/2/10 3/3/11
f 27/28/12 28/29/13 3/3/14 4/4/15
f 26/26/16 27/28/17 4/4/18 5/5/19
f 25/14/20 26/15/21 5/16/22 18/17/23
f 23/18/24 24/19/25 77/105/26 64/91/27
f 2/2/28 1/1/29 6/6/30 7/7/31
f 3/3/32 2/2/33 7/7/34 8/8/35
f 4/4/36 3/3/37 8/8/38 9/9/39
f 5/5/40 4/4/41 9/9/42 13/13/43
f 7/7/44 34/36/45 11/11/46
f 8/8/47 7/7/48 11/11/49 12/12/50
f 9/9/51 8/8/52 12/12/53 13/13/54
f 14/20/55 10/21/56 31/22/57 32/23/58
f 11/24/59 34/25/60 35/27/61 15/33/62
f 12/34/63 11/24/64 15/33/65 16/35/66
f 13/37/67 12/34/68 16/35/69 17/38/70
f 5/16/71 13/37/72 17/38/73 18/17/74
f 33/39/75 19/40/76 69/96/77 70/97/78
f 67/94/79 68/95/80 36/41/81 20/42/82
f 66/93/83 67/94/84 20/42/85 21/43/86
f 65/92/87 66/93/88 21/43/89 22/44/90
f 64/91/91 65/92/92 22/44/93 23/18/94
f 1/1/95 31/32/96 10/10/97 6/6/98
f 7/7/99 6/6/100 10/10/101 34/36/102
f 35/27/103 34/25/104 10/21/105 14/20/106
f 36/41/107 68/95/108 69/96/109 19/40/110
f 37/45/111 24/19/112 23/18/113
f 37/45/114 23/18/115 22/44/116
f 21/43/117 37/45/118 22/44/119
f 36/41/120 37/45/121 20/42/122
f 19/40/123 37/45/124 36/41/125
f 19/40/126 33/39/127 37/45/128
f 20/42/129 37/45/130 21/43/131
f 38/46/132 31/48/133 30/47/134
f 29/49/135 39/50/136 38/46/137 30/47/138
f 28/51/139 40/52/140 39/50/141 29/49/142
f 27/53/143 41/54/144 40/52/145 28/51/146
f 26/55/147 42/56/148 41/54/149 27/53/150
f 25/57/151 55/60/152 42/59/153 26/58/154
f 60/61/155 76/104/156 77/106/157 24/62/158
f 39/50/159 44/64/160 43/63/161 38/46/162
f 40/52/163 45/65/164 44/64/165 39/50/166
f 41/54/167 46/66/168 45/65/169 40/52/170
f 42/56/171 50/67/172 46/66/173 41/54/174
f 44/64/175 48/69/176 61/68/177
f 45/65/178 49/70/179 48/69/180 44/64/181
f 46/66/182 50/67/183 49/70/184 45/65/185
f 51/71/186 32/74/187 31/73/188 47/72/189
f 48/75/190 52/78/191 62/77/192 61/76/193
f 49/79/194 53/80/195 52/78/196 48/75/197
f 50/81/198 54/82/199 53/80/200 49/79/201
f 42/59/202 55/60/203 54/82/204 50/81/205
f 33/83/206 70/98/207 71/99/208 56/84/209
f 73/101/210 57/86/211 63/85/212 72/100/213
f 74/102/214 58/87/215 57/86/216 73/101/217
f 75/103/218 59/88/219 58/87/220 74/102/221
f 76/104/222 60/61/223 59/88/224 75/103/225
f 38/46/226 43/63/227 47/89/228 31/48/229
f 44/64/230 61/68/231 47/89/232 43/63/233
f 62/77/234 51/71/235 47/72/236 61/76/237
f 63/85/238 56/84/239 71/99/240 72/100/241
f 37/90/242 60/61/243 24/62/244
f 37/90/245 59/88/246 60/61/247
f 58/87/248 59/88/249 37/90/250
f 63/85/251 57/86/252 37/90/253
f 56/84/254 63/85/255 37/90/256
f 56/84/257 37/90/258 33/83/259
f 57/86/260 58/87/261 37/90/262
f 18/17/263 17/38/264 65/92/265 64/91/266
f 17/38/267 16/35/268 66/93/269 65/92/270
f 16/35/271 15/33/272 67/94/273 66/93/274
f 15/33/275 35/27/276 68/95/277 67/94/278
f 69/96/279 68/95/280 35/27/281 14/20/282
f 70/97/283 69/96/284 14/20/285 32/23/286
f 71/99/287 70/98/288 32/74/289 51/71/290
f 72/100/291 71/99/292 51/71/293 62/77/294
f 52/78/295 73/101/296 72/100/297 62/77/298
f 53/80/299 74/102/300 73/101/301 52/78/302
f 54/82/303 75/103/304 74/102/305 53/80/306
f 55/60/307 76/104/308 75/103/309 54/82/310
f 77/106/311 76/104/312 55/60/313 25/57/314
f 64/91/315 77/105/316 25/14/317 18/17/318
