# This file uses meters as units for non-parametric coordinates.

v 11.849218 8.168564 -11.539553
v -0.348537 7.261600 -13.796683
v -11.951285 8.691034 -10.638189
v -15.430964 9.768715 1.384657
v -11.358088 13.292084 12.044178
v -0.222898 13.301334 16.170139
v 10.661013 13.292084 12.044178
v 14.985170 9.768715 1.384657
v 7.872641 9.771938 -6.454513
v -0.340471 8.981152 -9.761414
v -0.348537 9.956341 1.480447
v -8.553589 9.771938 -6.454513
v -11.770107 10.824680 1.578650
v -8.555744 13.590298 9.517631
v -0.236363 13.524742 12.791927
v 7.874802 13.590298 9.517631
v 11.297382 10.824680 1.578650
v -0.372441 17.380295 17.790047
v -12.470400 16.757107 12.558097
v -18.071630 13.877354 0.515019
v -12.880657 11.212978 -11.668879
v -0.348537 10.109348 -16.715631
v 12.171333 11.114559 -11.655373
v 16.631195 14.277668 0.678405
v 11.416988 16.654987 12.912716
v -0.457435 20.828667 15.513504
v -12.097265 16.006336 -12.264583
v 16.237738 18.271675 -0.810411
v 11.291294 19.794140 10.782220
v -11.425383 19.636860 10.138879
v -16.013554 17.281837 -0.630176
v -0.348537 13.951302 -15.859902
v 10.699368 14.694233 -11.367318
v -11.939600 15.112896 11.995934
v -12.167767 10.420561 -11.491595
v -0.348537 9.048309 -15.245262
v 16.057215 12.586403 0.729208
v 11.235126 15.030880 12.009666
v 18.691032 19.233723 -1.069816
v 12.964126 21.327877 12.354665
v -0.668805 22.599239 17.844725
v -13.413202 20.858078 11.640583
v -18.737196 17.964096 -0.855542
v -14.192841 16.396580 -14.355837
v -0.559909 13.871288 -18.527761
v 12.264442 14.837418 -13.319781
v 17.456198 22.572918 -1.781536
v 12.089319 25.008698 10.806631
v -0.777233 26.194248 15.989925
v -12.854355 23.992519 10.228681
v -17.878553 21.261406 -1.563795
v -13.590086 19.782200 -14.303871
v -0.724828 17.399006 -18.240879
v 11.392059 18.428802 -13.342354
v 13.059843 23.385162 -2.359042
v 8.996559 25.462399 7.177911
v -0.812147 26.319084 11.128845
v -10.057775 24.332752 6.808002
v -13.888071 22.366714 -2.182218
v -10.618675 21.301842 -11.894842
v -0.810606 19.586277 -14.896297
v 8.436277 20.398407 -11.172129
v -0.144074 24.273167 -4.246046
v -0.772660 25.203590 18.398523
v -14.162701 23.176842 11.922310
v -19.748892 20.140266 -1.189220
v -14.980734 18.495598 -15.354360
v -0.676417 15.845890 -19.731745
v 12.784092 16.896534 -14.272352
v 19.527269 21.510086 -1.419199
v 13.531458 23.867340 12.638473
vt 0.037796 0.328927
vt 0.037796 0.328927
vt 0.037796 0.328927
vt 0.037796 0.328927
vt 0.037796 0.328927
vt 0.037796 0.328927
vt 0.037796 0.328927
vt 0.037796 0.328927
vt 0.037796 0.328927
vt 0.037796 0.328927
vt 0.037796 0.328927
vt 0.037796 0.328927
vt 0.037796 0.328927
vt 0.037796 0.328927
vt 0.037796 0.328927
vt 0.037796 0.328927
vt 0.037796 0.328927
vt 0.037796 0.328927
vt 0.037796 0.328927
vt 0.037796 0.328927
vt 0.037796 0.328927
vt 0.037796 0.328927
vt 0.037796 0.328927
vt 0.037796 0.328927
vt 0.037796 0.328927
vt 0.037796 0.328927
vt 0.037796 0.328927
vt 0.037796 0.328927
vt 0.037796 0.328927
vt 0.037796 0.328927
vt 0.037796 0.328927
vt 0.037796 0.328927
vt 0.037796 0.328927
vt 0.037796 0.328927
vt 0.037796 0.328927
vt 0.037796 0.328927
vt 0.037796 0.328927
vt 0.037796 0.328927
vt 0.037796 0.328927
vt 0.037796 0.328927
vt 0.037796 0.328927
vt 0.037796 0.328927
vt 0.037796 0.328927
vt 0.037796 0.328927
vt 0.037796 0.328927
vt 0.037796 0.328927
vt 0.037796 0.328927
vt 0.037796 0.328927
vt 0.037796 0.328927
vt 0.035617 0.302784
vt 0.035618 0.302784
vt 0.035617 0.302784
vt 0.035617 0.302784
vt 0.035617 0.302784
vt 0.035617 0.302784
vt 0.035618 0.302784
vt 0.035618 0.302784
vt 0.035617 0.302784
vt 0.035617 0.302784
vt 0.035617 0.302784
vt 0.035617 0.302784
vt 0.035617 0.302784
vt 0.018285 0.353138
vt 0.018285 0.353138
vt 0.018285 0.353138
vt 0.018285 0.353138
vt 0.018285 0.353138
vt 0.018285 0.353138
vt 0.018285 0.353138
vt 0.018285 0.353138
vt 0.018285 0.353138
vt 0.018285 0.353138
vt 0.018285 0.353138
vt 0.018285 0.353138
vt 0.018285 0.353138
vt 0.018285 0.353138
vt 0.018285 0.353138
vt 0.018285 0.353138
vt 0.018285 0.353138
vt 0.018285 0.353138
vt 0.018285 0.353138
vt 0.018285 0.353138
vt 0.018285 0.353138
vt 0.018285 0.353138
vt 0.018285 0.353138
vt 0.018285 0.353138
vt 0.018285 0.353138
vt 0.018285 0.353138
vt 0.018285 0.353138
vt 0.018285 0.353138
vt 0.018285 0.353138
vt 0.018285 0.353138
vt 0.018285 0.353138
vt 0.018285 0.353138
vt 0.018285 0.353138
vt 0.018285 0.353138
vt 0.018285 0.353138
vt 0.018285 0.353138
vt 0.018285 0.353138
vt 0.018285 0.353138
vt 0.018285 0.353138
vt 0.018285 0.353138
vt 0.018285 0.353138
vn 0.254345 -0.319090 -0.912957
vn 0.254345 -0.319090 -0.912957
vn 0.254345 -0.319090 -0.912957
vn 0.254345 -0.319090 -0.912957
vn -0.297317 -0.535711 -0.790327
vn -0.297317 -0.535711 -0.790327
vn -0.297317 -0.535711 -0.790327
vn -0.297317 -0.535711 -0.790327
vn -0.842810 -0.482714 -0.238028
vn -0.842810 -0.482714 -0.238028
vn -0.842810 -0.482714 -0.238028
vn -0.842810 -0.482714 -0.238028
vn -0.810750 -0.370406 0.453304
vn -0.810750 -0.370406 0.453304
vn -0.810750 -0.370406 0.453304
vn -0.810750 -0.370406 0.453304
vn -0.360358 -0.281559 0.889307
vn -0.360358 -0.281559 0.889307
vn -0.360358 -0.281559 0.889307
vn -0.360358 -0.281559 0.889307
vn 0.364357 -0.269508 0.891409
vn 0.364357 -0.269508 0.891409
vn 0.364357 -0.269508 0.891409
vn 0.364357 -0.269508 0.891409
vn 0.868156 -0.248604 0.429536
vn 0.868156 -0.248604 0.429536
vn 0.868156 -0.248604 0.429536
vn 0.868156 -0.248604 0.429536
vn 0.938657 -0.257712 -0.229146
vn 0.938657 -0.257712 -0.229146
vn 0.938657 -0.257712 -0.229146
vn 0.938657 -0.257712 -0.229146
vn 0.060995 -0.994400 0.086304
vn 0.060995 -0.994400 0.086304
vn 0.060995 -0.994400 0.086304
vn -0.061031 -0.994405 0.086217
vn -0.061031 -0.994405 0.086217
vn -0.061031 -0.994405 0.086217
vn -0.074570 -0.992172 0.100165
vn -0.074570 -0.992172 0.100165
vn -0.074570 -0.992173 0.100165
vn -0.067923 -0.933297 0.352624
vn -0.067923 -0.933297 0.352624
vn -0.067923 -0.933297 0.352624
vn -0.125371 -0.945789 0.299609
vn -0.125371 -0.945789 0.299609
vn -0.125371 -0.945789 0.299609
vn 0.127637 -0.946233 0.297240
vn 0.127637 -0.946233 0.297240
vn 0.127637 -0.946233 0.297240
vn 0.066582 -0.932980 0.353716
vn 0.066582 -0.932980 0.353716
vn 0.066582 -0.932980 0.353716
vn 0.073162 -0.992408 0.098864
vn 0.073162 -0.992408 0.098864
vn 0.073162 -0.992408 0.098864
vn -0.013584 -0.941380 0.337075
vn -0.013584 -0.941380 0.337075
vn -0.013584 -0.941380 0.337075
vn -0.013584 -0.941380 0.337075
vn -0.000726 -0.946469 0.322793
vn -0.000726 -0.946469 0.322793
vn -0.000726 -0.946469 0.322793
vn -0.000726 -0.946469 0.322793
vn 0.189875 -0.967642 0.166181
vn 0.189875 -0.967642 0.166181
vn 0.189875 -0.967642 0.166181
vn 0.189875 -0.967642 0.166181
vn 0.272695 -0.938769 0.210593
vn 0.272695 -0.938769 0.210593
vn 0.272695 -0.938769 0.210593
vn 0.272695 -0.938769 0.210593
vn 0.025948 -0.996785 -0.075799
vn 0.025948 -0.996785 -0.075799
vn 0.025948 -0.996785 -0.075799
vn 0.025948 -0.996785 -0.075799
vn -0.026463 -0.996794 -0.075509
vn -0.026463 -0.996794 -0.075509
vn -0.026463 -0.996794 -0.075509
vn -0.026463 -0.996794 -0.075509
vn -0.270694 -0.940523 0.205282
vn -0.270694 -0.940523 0.205282
vn -0.270694 -0.940523 0.205282
vn -0.270694 -0.940523 0.205282
vn -0.205344 -0.960869 0.185915
vn -0.205344 -0.960869 0.185915
vn -0.205344 -0.960869 0.185915
vn -0.205344 -0.960869 0.185915
vn -0.375581 0.588350 0.716089
vn -0.375581 0.588350 0.716089
vn -0.375581 0.588350 0.716089
vn -0.375581 0.588350 0.716089
vn -0.810030 0.535505 0.238929
vn -0.810030 0.535505 0.238929
vn -0.810030 0.535505 0.238929
vn -0.810030 0.535505 0.238929
vn -0.895797 0.229688 -0.380514
vn -0.895797 0.229688 -0.380514
vn -0.895797 0.229688 -0.380514
vn -0.895797 0.229688 -0.380514
vn -0.328026 0.058150 -0.942877
vn -0.328026 0.058150 -0.942877
vn -0.328026 0.058150 -0.942877
vn -0.328026 0.058150 -0.942877
vn 0.353765 0.210611 -0.911314
vn 0.353765 0.210611 -0.911314
vn 0.353765 0.210611 -0.911314
vn 0.353765 0.210611 -0.911314
vn 0.888973 0.150376 -0.432568
vn 0.888973 0.150376 -0.432568
vn 0.888973 0.150376 -0.432568
vn 0.888973 0.150376 -0.432568
vn 0.906187 0.241933 0.346833
vn 0.906187 0.241933 0.346833
vn 0.906187 0.241933 0.346833
vn 0.906187 0.241933 0.346833
vn 0.354549 0.527726 0.771881
vn 0.354549 0.527726 0.771881
vn 0.354549 0.527726 0.771881
vn 0.354549 0.527726 0.771881
vn -0.346012 -0.401613 0.847928
vn -0.346012 -0.401613 0.847928
vn -0.346012 -0.401613 0.847928
vn -0.784671 -0.411756 0.463410
vn -0.784671 -0.411756 0.463410
vn -0.784671 -0.411756 0.463410
vn -0.716566 -0.679700 -0.156657
vn -0.716566 -0.679700 -0.156657
vn -0.716566 -0.679700 -0.156657
vn -0.305693 -0.695567 -0.650184
vn -0.305693 -0.695567 -0.650184
vn -0.305693 -0.695567 -0.650184
vn -0.305693 -0.695567 -0.650184
vn 0.288770 -0.776367 -0.560237
vn 0.288770 -0.776367 -0.560237
vn 0.288770 -0.776367 -0.560237
vn 0.914765 -0.317939 -0.249238
vn 0.914765 -0.317939 -0.249238
vn 0.914765 -0.317939 -0.249238
vn 0.852186 -0.303793 0.426014
vn 0.852186 -0.303793 0.426014
vn 0.852186 -0.303793 0.426014
vn 0.852186 -0.303793 0.426014
vn 0.307744 -0.488465 0.816514
vn 0.307744 -0.488465 0.816514
vn 0.307744 -0.488465 0.816514
vn 0.420736 -0.855046 0.303114
vn 0.420736 -0.855046 0.303114
vn 0.420736 -0.855046 0.303114
vn 0.420736 -0.855046 0.303114
vn 0.170043 -0.782632 0.598809
vn 0.170043 -0.782632 0.598809
vn 0.170043 -0.782632 0.598809
vn 0.170043 -0.782632 0.598809
vn -0.165150 -0.821195 0.546227
vn -0.165150 -0.821195 0.546227
vn -0.165150 -0.821195 0.546227
vn -0.165150 -0.821195 0.546227
vn -0.278127 -0.904744 0.322621
vn -0.278127 -0.904744 0.322621
vn -0.278127 -0.904744 0.322621
vn -0.278127 -0.904744 0.322621
vn -0.231738 -0.972253 0.031967
vn -0.231738 -0.972253 0.031967
vn -0.231738 -0.972253 0.031967
vn -0.231738 -0.972253 0.031967
vn -0.171889 -0.984931 0.019118
vn -0.171889 -0.984931 0.019118
vn -0.171889 -0.984931 0.019118
vn -0.171889 -0.984931 0.019118
vn 0.068775 -0.997611 0.006510
vn 0.068775 -0.997611 0.006510
vn 0.068775 -0.997611 0.006510
vn 0.068775 -0.997611 0.006510
vn 0.337238 -0.929694 0.148118
vn 0.337238 -0.929694 0.148118
vn 0.337238 -0.929694 0.148118
vn 0.337238 -0.929694 0.148118
vn 0.875477 -0.249522 0.413858
vn 0.875477 -0.249522 0.413858
vn 0.875477 -0.249522 0.413858
vn 0.875477 -0.249522 0.413858
vn 0.352752 -0.181268 0.917991
vn 0.352752 -0.181268 0.917991
vn 0.352752 -0.181268 0.917991
vn 0.352752 -0.181268 0.917991
vn -0.399909 -0.220311 0.889683
vn -0.399909 -0.220311 0.889683
vn -0.399909 -0.220311 0.889683
vn -0.399909 -0.220311 0.889683
vn -0.840799 -0.324431 0.433360
vn -0.840799 -0.324431 0.433360
vn -0.840799 -0.324431 0.433360
vn -0.840799 -0.324431 0.433360
vn -0.865602 -0.439267 -0.240370
vn -0.865602 -0.439267 -0.240370
vn -0.865602 -0.439267 -0.240370
vn -0.865602 -0.439267 -0.240370
vn -0.336746 -0.504588 -0.794980
vn -0.336746 -0.504588 -0.794980
vn -0.336746 -0.504588 -0.794980
vn -0.336746 -0.504588 -0.794980
vn 0.363017 -0.467273 -0.806148
vn 0.363017 -0.467273 -0.806148
vn 0.363017 -0.467273 -0.806148
vn 0.363017 -0.467273 -0.806148
vn 0.870783 -0.369676 -0.324155
vn 0.870783 -0.369676 -0.324155
vn 0.870783 -0.369676 -0.324155
vn 0.870783 -0.369676 -0.324155
vn 0.221867 0.969599 -0.103212
vn 0.221867 0.969599 -0.103212
vn 0.221867 0.969599 -0.103212
vn 0.221867 0.969599 -0.103212
vn 0.101751 0.994349 0.030275
vn 0.101751 0.994349 0.030275
vn 0.101751 0.994349 0.030275
vn 0.101751 0.994349 0.030275
vn -0.189116 0.981923 -0.007923
vn -0.189116 0.981923 -0.007923
vn -0.189116 0.981923 -0.007923
vn -0.189116 0.981923 -0.007923
vn -0.265698 0.958492 -0.103430
vn -0.265698 0.958492 -0.103430
vn -0.265698 0.958492 -0.103430
vn -0.265698 0.958492 -0.103430
vn -0.298390 0.931940 -0.206039
vn -0.298390 0.931940 -0.206039
vn -0.298390 0.931940 -0.206039
vn -0.298390 0.931940 -0.206039
vn -0.011980 0.843300 -0.537310
vn -0.011980 0.843300 -0.537310
vn -0.011980 0.843300 -0.537310
vn -0.011980 0.843300 -0.537310
vn 0.147508 0.827218 -0.542174
vn 0.147508 0.827218 -0.542174
vn 0.147508 0.827218 -0.542174
vn 0.147508 0.827218 -0.542174
vn 0.236790 0.871584 -0.429269
vn 0.236790 0.871584 -0.429269
vn 0.236790 0.871584 -0.429269
vn 0.236790 0.871584 -0.429269
vn 0.090916 0.980397 -0.174804
vn 0.090916 0.980397 -0.174804
vn 0.090916 0.980397 -0.174804
vn 0.034027 0.990880 -0.130377
vn 0.034027 0.990880 -0.130377
vn 0.034027 0.990880 -0.130377
vn -0.146577 0.979703 -0.136737
vn -0.146577 0.979703 -0.136737
vn -0.146577 0.979703 -0.136737
vn -0.157462 0.976601 -0.146482
vn -0.157462 0.976601 -0.146482
vn -0.157462 0.976601 -0.146482
vn -0.159208 0.974129 -0.160393
vn -0.159208 0.974129 -0.160393
vn -0.159208 0.974129 -0.160393
vn 0.036085 0.913860 -0.404423
vn 0.036085 0.913860 -0.404423
vn 0.036085 0.913860 -0.404423
vn 0.083483 0.910159 -0.405761
vn 0.083483 0.910159 -0.405761
vn 0.083483 0.910159 -0.405761
vn 0.115165 0.920860 -0.372498
vn 0.115165 0.920860 -0.372498
vn 0.115165 0.920860 -0.372498
vn -0.296546 0.905225 0.304349
vn -0.296546 0.905225 0.304349
vn -0.296546 0.905225 0.304349
vn -0.296546 0.905225 0.304349
vn -0.511273 0.859212 0.018838
vn -0.511273 0.859212 0.018838
vn -0.511273 0.859212 0.018838
vn -0.511273 0.859212 0.018838
vn -0.534242 0.800127 -0.272732
vn -0.534242 0.800127 -0.272732
vn -0.534242 0.800127 -0.272732
vn -0.534242 0.800127 -0.272732
vn -0.092813 0.687999 -0.719752
vn -0.092813 0.687999 -0.719752
vn -0.092813 0.687999 -0.719752
vn -0.092813 0.687999 -0.719752
vn 0.233101 0.665312 -0.709241
vn 0.233101 0.665312 -0.709241
vn 0.233101 0.665312 -0.709241
vn 0.233101 0.665312 -0.709241
vn 0.463317 0.728627 -0.504421
vn 0.463317 0.728627 -0.504421
vn 0.463317 0.728627 -0.504421
vn 0.463317 0.728627 -0.504421
vn 0.503507 0.861928 0.059670
vn 0.503507 0.861928 0.059670
vn 0.503507 0.861928 0.059670
vn 0.503507 0.861928 0.059670
vn 0.233258 0.898398 0.372118
vn 0.233258 0.898398 0.372118
vn 0.233258 0.898398 0.372118
vn 0.233258 0.898398 0.372118
s off
f 1/9/1 2/10/2 36/47/3 23/33/4
f 2/10/5 3/11/6 35/46/7 36/47/8
f 3/11/9 4/12/10 20/29/11 35/46/12
f 4/12/13 5/13/14 34/45/15 20/29/16
f 5/13/17 6/14/18 18/27/19 34/45/20
f 6/14/21 7/15/22 38/49/23 18/27/24
f 7/15/25 8/16/26 37/48/27 38/49/28
f 8/16/29 1/17/30 23/32/31 37/48/32
f 10/19/33 9/20/34 11/18/35
f 12/21/36 10/19/37 11/18/38
f 13/22/39 12/21/40 11/18/41
f 14/23/42 13/22/43 11/18/44
f 15/24/45 14/23/46 11/18/47
f 16/25/48 15/24/49 11/18/50
f 17/26/51 16/25/52 11/18/53
f 9/20/54 17/26/55 11/18/56
f 2/2/57 1/1/58 9/20/59 10/19/60
f 3/3/61 2/2/62 10/19/63 12/21/64
f 4/4/65 3/3/66 12/21/67 13/22/68
f 5/5/69 4/4/70 13/22/71 14/23/72
f 6/6/73 5/5/74 14/23/75 15/24/76
f 7/7/77 6/6/78 15/24/79 16/25/80
f 8/8/81 7/7/82 16/25/83 17/26/84
f 1/1/85 8/8/86 17/26/87 9/20/88
f 19/28/89 18/27/90 26/36/91 30/40/92
f 20/29/93 19/28/94 30/40/95 31/41/96
f 21/30/97 20/29/98 31/41/99 27/37/100
f 22/31/101 21/30/102 27/37/103 32/42/104
f 23/33/105 22/31/106 32/42/107 33/44/108
f 24/34/109 23/32/110 33/43/111 28/38/112
f 25/35/113 24/34/114 28/38/115 29/39/116
f 18/27/117 25/35/118 29/39/119 26/36/120
f 34/50/121 18/51/122 19/52/123
f 20/53/124 34/50/125 19/52/126
f 35/54/127 20/53/128 21/55/129
f 36/56/130 35/54/131 21/55/132 22/57/133
f 23/58/134 36/56/135 22/57/136
f 37/59/137 23/58/138 24/60/139
f 38/61/140 37/59/141 24/60/142 25/62/143
f 18/51/144 38/61/145 25/62/146
f 29/63/147 28/64/148 39/65/149 40/66/150
f 26/67/151 29/63/152 40/66/153 41/68/154
f 30/69/155 26/67/156 41/68/157 42/70/158
f 31/71/159 30/69/160 42/70/161 43/72/162
f 27/73/163 31/71/164 43/72/165 44/74/166
f 32/75/167 27/73/168 44/74/169 45/76/170
f 33/77/171 32/75/172 45/76/173 46/78/174
f 28/64/175 33/77/176 46/78/177 39/65/178
f 40/66/179 39/65/180 70/102/181 71/103/182
f 41/68/183 40/66/184 71/103/185 64/96/186
f 42/70/187 41/68/188 64/96/189 65/97/190
f 43/72/191 42/70/192 65/97/193 66/98/194
f 44/74/195 43/72/196 66/98/197 67/99/198
f 45/76/199 44/74/200 67/99/201 68/100/202
f 46/78/203 45/76/204 68/100/205 69/101/206
f 39/65/207 46/78/208 69/101/209 70/102/210
f 48/80/211 47/79/212 55/87/213 56/88/214
f 49/81/215 48/80/216 56/88/217 57/89/218
f 50/82/219 49/81/220 57/89/221 58/90/222
f 51/83/223 50/82/224 58/90/225 59/91/226
f 52/84/227 51/83/228 59/91/229 60/92/230
f 53/85/231 52/84/232 60/92/233 61/93/234
f 54/86/235 53/85/236 61/93/237 62/94/238
f 47/79/239 54/86/240 62/94/241 55/87/242
f 56/88/243 55/87/244 63/95/245
f 57/89/246 56/88/247 63/95/248
f 58/90/249 57/89/250 63/95/251
f 59/91/252 58/90/253 63/95/254
f 60/92/255 59/91/256 63/95/257
f 61/93/258 60/92/259 63/95/260
f 62/94/261 61/93/262 63/95/263
f 55/87/264 62/94/265 63/95/266
f 65/97/267 64/96/268 49/81/269 50/82/270
f 66/98/271 65/97/272 50/82/273 51/83/274
f 67/99/275 66/98/276 51/83/277 52/84/278
f 68/100/279 67/99/280 52/84/281 53/85/282
f 69/101/283 68/100/284 53/85/285 54/86/286
f 70/102/287 69/101/288 54/86/289 47/79/290
f 71/103/291 70/102/292 47/79/293 48/80/294
f 64/96/295 71/103/296 48/80/297 49/81/298
