# This file uses meters as units for non-parametric coordinates.

v 10.853023 15.709019 6.052128
v 10.916442 16.765251 6.137089
v 9.267003 15.608425 6.046350
v 9.330365 16.664658 6.131310
v 9.109581 14.217873 11.225724
v 8.928826 15.478535 11.378388
v 8.127053 15.484142 10.689125
v 8.307770 14.223480 10.536469
v 0.164163 11.076431 14.429898
v -0.308399 12.268753 14.412685
v -0.097307 12.352886 13.363683
v 0.375257 11.160564 13.380773
v -1.118866 10.325298 13.249061
v -2.344575 11.062756 12.826449
v -2.611938 10.717754 11.559855
v -1.386230 9.980297 11.982457
v -7.413573 7.566204 12.757365
v -0.929168 7.450390 13.793618
v -7.333312 11.387463 12.682168
v -0.848938 11.271801 13.390805
v -6.981997 11.336803 10.477941
v -0.497589 11.220989 11.514194
v -7.062254 7.515392 10.553262
v -0.577850 7.399731 11.589515
v -3.723357 12.060986 10.980746
v -4.074676 12.111797 13.046739
v -4.187806 6.726208 13.290936
v -3.924682 6.699657 11.019933
v -11.062031 9.340343 8.374496
v -9.824724 9.389019 8.039780
v -11.062031 10.514812 8.249679
v -9.824724 10.563793 7.915087
v -9.120106 8.903637 12.369525
v -8.339591 8.850994 11.352927
v -8.265371 10.044537 11.180198
v -9.045858 10.097027 12.196671
v -7.000122 8.913555 12.394568
v -6.509919 8.861065 11.210486
v -6.483002 10.190105 11.044223
v -6.973238 10.242748 12.228305
v -9.502674 10.152626 3.424014
v -10.590931 10.187874 3.131415
v -10.778519 11.350746 3.502629
v -9.690262 11.315498 3.795232
v 4.114548 13.038502 11.962177
v 4.565371 12.930508 13.120454
v 4.268709 14.152946 13.201590
v 3.817901 14.260960 12.043381
vt 0.092503 0.229380
vt 0.092503 0.229380
vt 0.092503 0.229380
vt 0.092503 0.229380
vt 0.092503 0.229380
vt 0.092503 0.229380
vt 0.092503 0.229380
vt 0.092503 0.229380
vt 0.092503 0.229380
vt 0.092503 0.229380
vt 0.092503 0.229380
vt 0.092503 0.229380
vt 0.092503 0.229380
vt 0.092503 0.229380
vt 0.092503 0.229380
vt 0.092503 0.229380
vt 0.092503 0.229380
vt 0.092503 0.229380
vt 0.092503 0.229380
vt 0.092503 0.229380
vt 0.092503 0.229380
vt 0.092503 0.229380
vt 0.092503 0.229380
vt 0.092503 0.229380
vt 0.092503 0.229380
vt 0.092503 0.229380
vt 0.092503 0.229380
vt 0.092503 0.229380
vt 0.092503 0.229380
vt 0.092503 0.229380
vt 0.092503 0.229380
vt 0.092503 0.229380
vt 0.092503 0.229380
vt 0.092503 0.229380
vt 0.092503 0.229380
vt 0.092503 0.229380
vt 0.092503 0.229380
vt 0.092503 0.229380
vt 0.092503 0.229380
vt 0.092503 0.229380
vt 0.092503 0.229380
vt 0.092503 0.229380
vt 0.092503 0.229380
vt 0.092503 0.229380
vt 0.092503 0.229380
vt 0.092503 0.229380
vt 0.092503 0.229380
vt 0.092503 0.229380
vt 0.092503 0.229380
vt 0.092503 0.229380
vt 0.092503 0.229380
vt 0.092503 0.229380
vt 0.092503 0.229380
vt 0.092503 0.229380
vt 0.092503 0.229380
vt 0.092503 0.229380
vt 0.092503 0.229380
vt 0.092503 0.229380
vt 0.092503 0.229380
vn 0.941957 -0.253967 0.219584
vn 0.941957 -0.253967 0.219584
vn 0.941957 -0.253967 0.219584
vn 0.941957 -0.253967 0.219584
vn 0.021827 0.990671 0.134515
vn 0.021827 0.990671 0.134515
vn 0.021827 0.990671 0.134515
vn 0.021827 0.990671 0.134515
vn -0.010071 -0.986846 -0.161350
vn -0.010071 -0.986846 -0.161350
vn -0.010071 -0.986846 -0.161350
vn -0.010071 -0.986846 -0.161350
vn 0.312329 0.020820 0.949746
vn 0.318389 0.017613 0.947797
vn 0.163622 -0.043807 0.985550
vn 0.163622 -0.043807 0.985550
vn -0.287960 0.944127 0.160322
vn -0.290618 0.943511 0.159147
vn -0.303490 0.923479 0.234693
vn -0.303490 0.923479 0.234693
vn 0.288460 -0.944208 -0.158941
vn 0.288793 -0.944128 -0.158809
vn 0.304230 -0.923155 -0.235007
vn 0.304230 -0.923155 -0.235007
vn -0.149617 0.092680 0.984391
vn -0.149617 0.092680 0.984391
vn -0.149617 0.092680 0.984391
vn -0.149617 0.092680 0.984391
vn -0.391925 0.918934 -0.044221
vn -0.391925 0.918934 -0.044221
vn -0.391925 0.918934 -0.044221
vn -0.391925 0.918934 -0.044221
vn 0.367655 -0.928587 0.050561
vn 0.367655 -0.928587 0.050561
vn 0.367655 -0.928587 0.050561
vn 0.367655 -0.928587 0.050561
vn -0.157369 0.022743 0.987278
vn -0.157370 0.022743 0.987278
vn -0.157369 0.022743 0.987278
vn -0.157370 0.022743 0.987278
vn 0.249286 0.968273 0.017428
vn 0.249286 0.968273 0.017428
vn 0.249286 0.968273 0.017428
vn 0.249286 0.968273 0.017428
vn 0.203611 -0.978025 0.044841
vn 0.203611 -0.978025 0.044841
vn 0.203611 -0.978025 0.044841
vn 0.203611 -0.978025 0.044841
vn 0.987317 -0.017626 0.157780
vn 0.987317 -0.017626 0.157780
vn 0.987317 -0.017626 0.157780
vn 0.987317 -0.017626 0.157780
vn -0.987318 0.017630 -0.157773
vn -0.987318 0.017630 -0.157773
vn -0.987318 0.017630 -0.157773
vn -0.987318 0.017630 -0.157773
vn -0.208440 0.976446 -0.055722
vn -0.208440 0.976446 -0.055722
vn -0.208440 0.976446 -0.055722
vn -0.208440 0.976446 -0.055722
vn -0.157368 0.022744 0.987278
vn -0.157368 0.022744 0.987278
vn -0.157368 0.022744 0.987278
vn -0.157368 0.022744 0.987278
vn -0.249222 -0.968288 -0.017496
vn -0.249222 -0.968288 -0.017496
vn -0.249222 -0.968288 -0.017496
vn -0.249222 -0.968288 -0.017496
vn -0.049854 -0.996181 -0.071685
vn -0.049854 -0.996181 -0.071685
vn -0.049854 -0.996181 -0.071685
vn -0.049854 -0.996181 -0.071685
vn 0.050014 0.996145 0.072069
vn 0.050014 0.996145 0.072069
vn 0.050014 0.996145 0.072069
vn 0.050014 0.996145 0.072069
vn -0.931748 0.029440 0.361910
vn -0.931748 0.029440 0.361910
vn -0.931748 0.029440 0.361910
vn -0.931748 0.029440 0.361910
vn 0.025235 -0.997745 0.062193
vn 0.025235 -0.997745 0.062193
vn 0.025235 -0.997745 0.062193
vn 0.025235 -0.997745 0.062193
vn -0.147326 0.980261 -0.131848
vn -0.147326 0.980261 -0.131848
vn -0.147326 0.980261 -0.131848
vn -0.147326 0.980261 -0.131848
vn 0.193591 0.123089 0.973330
vn 0.193591 0.123089 0.973330
vn 0.193591 0.123089 0.973330
vn 0.193591 0.123089 0.973330
vn 0.002543 -0.984522 -0.175243
vn 0.002543 -0.984522 -0.175243
vn 0.002543 -0.984522 -0.175243
vn 0.002543 -0.984522 -0.175243
vn -0.991746 -0.098619 0.081941
vn -0.991746 -0.098619 0.081941
vn -0.991746 -0.098619 0.081941
vn -0.991746 -0.098619 0.081941
vn -0.002571 0.984026 0.178006
vn -0.002571 0.984026 0.178006
vn -0.002571 0.984026 0.178006
vn -0.002571 0.984026 0.178006
vn 0.304230 -0.923155 -0.235007
vn 0.304230 -0.923155 -0.235007
vn 0.288793 -0.944128 -0.158809
vn 0.288460 -0.944208 -0.158941
vn 0.163622 -0.043807 0.985550
vn 0.163622 -0.043807 0.985550
vn 0.318389 0.017613 0.947797
vn 0.312329 0.020820 0.949746
vn -0.303490 0.923479 0.234694
vn -0.303490 0.923479 0.234693
vn -0.290618 0.943511 0.159147
vn -0.287960 0.944127 0.160322
s off
f 1/1/1 2/2/2 6/3/3 5/4/4
f 2/2/5 4/5/6 7/6/7 6/3/8
f 3/7/9 1/1/10 5/4/11 8/8/12
f 46/57/13 47/58/14 10/9/15 9/10/16
f 47/58/17 48/59/18 11/11/19 10/9/20
f 45/56/21 46/57/22 9/10/23 12/12/24
f 9/10/25 10/9/26 14/13/27 13/14/28
f 10/9/29 11/11/30 15/15/31 14/13/32
f 12/12/33 9/10/34 13/14/35 16/16/36
f 26/17/37 27/18/38 18/19/39 20/20/40
f 25/21/41 26/17/42 20/20/43 22/22/44
f 27/23/45 28/24/46 24/25/47 18/26/48
f 18/19/49 24/27/50 22/28/51 20/20/52
f 23/29/53 17/30/54 19/31/55 21/32/56
f 19/31/57 26/17/58 25/21/59 21/33/60
f 17/30/61 27/18/62 26/17/63 19/31/64
f 23/34/65 28/24/66 27/23/67 17/35/68
f 29/42/69 30/43/70 34/44/71 33/45/72
f 32/46/73 31/47/74 36/48/75 35/49/76
f 31/47/77 29/42/78 33/45/79 36/48/80
f 33/45/81 34/44/82 38/50/83 37/51/84
f 35/49/85 36/48/86 40/52/87 39/53/88
f 36/48/89 33/45/90 37/51/91 40/52/92
f 42/39/93 41/38/94 30/54/95 29/55/96
f 43/41/97 42/40/98 29/42/99 31/47/100
f 31/47/101 32/46/102 44/37/103 43/36/104
f 8/8/105 5/4/106 46/57/107 45/56/108
f 5/4/109 6/3/110 47/58/111 46/57/112
f 6/3/113 7/6/114 48/59/115 47/58/116
