# This file uses meters as units for non-parametric coordinates.

v 0.000000 1.765919 -9.303370
v 0.000000 16.405258 12.154881
v 9.343672 4.476776 -6.460914
v 8.865166 14.668808 10.991895
v 10.494328 12.015305 7.004858
v 11.364365 11.784897 -2.838400
v 10.913754 10.593185 1.891060
v 11.426544 9.532700 -4.656824
v 10.870171 2.977524 -2.480675
v 10.724926 6.546555 2.421579
v 10.141754 5.840073 7.971751
v 0.000000 13.504200 -12.734861
v -2.077256 22.793179 -5.378138
v 0.000000 2.666588 -10.805876
v -1.449710 21.424198 6.821179
v 0.000000 17.984028 11.631438
v 11.461648 20.038376 -4.393014
v 11.811399 11.729984 -10.802443
v 11.182929 4.962578 -10.254375
v 11.564324 18.769379 6.348249
v 9.306590 15.902462 10.414257
v 11.751423 11.990585 6.525019
v 12.212185 11.300945 2.271363
v 12.316236 12.653732 -3.128981
v 12.372759 10.185699 -5.346862
v 11.847603 4.013405 -3.493368
v 11.468122 6.866436 6.693772
v 12.022492 7.516880 2.981612
v -9.343672 4.476776 -6.460914
v -8.865166 14.668808 10.991895
v -10.494328 12.015305 7.004858
v -11.364365 11.784897 -2.838400
v -10.913754 10.593185 1.891060
v -11.426544 9.532700 -4.656824
v -10.870171 2.977524 -2.480675
v -10.724926 6.546555 2.421579
v -10.141754 5.840073 7.971751
v -11.461648 19.731483 -4.393014
v -11.811399 11.729984 -10.802443
v -11.182929 4.962578 -10.254375
v -11.564324 18.462486 6.348249
v -9.306590 15.902462 10.414257
v -11.751423 11.990585 6.525019
v -12.212185 11.300945 2.271363
v -12.316236 12.653732 -3.128981
v -12.372759 10.185699 -5.346862
v -11.847603 4.013405 -3.493368
v -11.468122 6.866436 6.693772
v -12.022492 7.516880 2.981612
v -3.746729 16.824684 10.049636
v -3.933291 18.257580 9.503287
v -3.355156 19.974976 6.621303
v -3.311761 21.301689 -4.961791
v -4.991910 12.754364 -11.918154
v -4.726297 4.227257 -11.008978
v -4.584522 3.282948 -9.440113
v 6.189893 16.825771 11.489843
v 0.000000 -0.664435 -7.409579
v 0.000000 -0.143347 -9.286742
v 10.768253 2.517509 -7.058648
v 10.445235 1.689587 -4.351248
v -4.726297 0.886259 -8.918715
v -4.584522 0.376768 -6.962982
v -10.445235 1.689587 -4.351248
v -10.768253 2.517509 -7.058648
v 9.005424 0.863705 -7.783462
v 7.971198 0.187225 -5.991733
v -9.379933 1.438313 -8.021681
v -8.444760 0.785885 -6.484846
v -5.997411 21.760960 -4.677402
v -6.400402 20.618114 6.512081
v -5.041874 18.420887 9.776579
v 2.393079 16.712475 12.387244
v 7.530928 20.678577 6.584714
v 7.479589 21.997585 -4.885576
v 6.017040 13.553734 -12.155135
v 6.064409 14.899158 12.299059
v 5.718609 14.126968 11.584341
v -2.681456 5.572529 -8.212971
vt 0.049689 0.198957
vt 0.049689 0.198957
vt 0.049689 0.198957
vt 0.049689 0.198957
vt 0.049689 0.198957
vt 0.049689 0.198957
vt 0.049689 0.198957
vt 0.049689 0.198957
vt 0.049689 0.198957
vt 0.049689 0.198957
vt 0.049689 0.198957
vt 0.049689 0.198957
vt 0.049689 0.198957
vt 0.049689 0.198957
vt 0.049689 0.198957
vt 0.049689 0.198957
vt 0.049689 0.198957
vt 0.049689 0.198957
vt 0.049689 0.198957
vt 0.049689 0.198957
vt 0.049689 0.198957
vt 0.049689 0.198957
vt 0.049689 0.198957
vt 0.049689 0.198957
vt 0.049689 0.198957
vt 0.049689 0.198957
vt 0.049689 0.198957
vt 0.049689 0.198957
vt 0.049689 0.198957
vt 0.049689 0.198957
vt 0.049689 0.198957
vt 0.049689 0.198957
vt 0.049689 0.198957
vt 0.049689 0.198957
vt 0.049689 0.198957
vt 0.049689 0.198957
vt 0.049689 0.198957
vt 0.049689 0.198957
vt 0.049689 0.198957
vt 0.049689 0.198957
vt 0.049689 0.198957
vt 0.049689 0.198957
vt 0.049689 0.198957
vt 0.049689 0.198957
vt 0.049689 0.198957
vt 0.049689 0.198957
vt 0.049689 0.198957
vt 0.049689 0.198957
vt 0.049689 0.198957
vt 0.049689 0.198957
vt 0.049689 0.198957
vt 0.049689 0.198957
vt 0.049689 0.198957
vt 0.049689 0.198957
vt 0.049689 0.198957
vt 0.049689 0.198957
vt 0.049689 0.198957
vt 0.049689 0.198957
vt 0.049689 0.198957
vt 0.049689 0.198957
vt 0.049689 0.198957
vt 0.049689 0.198957
vt 0.049689 0.198957
vt 0.049689 0.198957
vt 0.049689 0.198957
vt 0.049689 0.198957
vt 0.049689 0.198957
vt 0.049689 0.198957
vt 0.049689 0.198957
vt 0.049689 0.198957
vt 0.049689 0.198957
vt 0.049689 0.198957
vt 0.049689 0.198957
vt 0.049689 0.198957
vt 0.049689 0.198957
vt 0.049689 0.198957
vt 0.049689 0.198957
vt 0.049689 0.198957
vt 0.049689 0.198957
vt 0.049689 0.198957
vt 0.049689 0.198957
vt 0.049689 0.198957
vt 0.049689 0.198957
vt 0.049689 0.198957
vt 0.049689 0.198957
vt 0.049689 0.198957
vt 0.049689 0.198957
vt 0.049689 0.198957
vt 0.049689 0.198957
vt 0.049689 0.198957
vt 0.049689 0.198957
vt 0.049689 0.198957
vt 0.049689 0.198957
vt 0.049689 0.198957
vt 0.049689 0.198957
vt 0.049689 0.198957
vt 0.049689 0.198957
vt 0.049689 0.198957
vt 0.049689 0.198957
vt 0.049689 0.198957
vt 0.049689 0.198957
vt 0.049689 0.198957
vt 0.049689 0.198957
vt 0.049689 0.198957
vt 0.049689 0.198957
vt 0.049689 0.198957
vt 0.049689 0.198957
vt 0.049689 0.198957
vt 0.049689 0.198957
vt 0.049689 0.198957
vt 0.049689 0.198957
vt 0.049689 0.198957
vt 0.049689 0.198957
vt 0.049689 0.198957
vt 0.049689 0.198957
vt 0.049689 0.198957
vt 0.049689 0.198957
vt 0.049689 0.198957
vt 0.049689 0.198957
vt 0.049689 0.198957
vt 0.049689 0.198957
vt 0.049689 0.198957
vt 0.049689 0.198957
vt 0.049689 0.198957
vt 0.049689 0.198957
vt 0.049689 0.198957
vt 0.049689 0.198957
vt 0.049689 0.198957
vt 0.049689 0.198957
vt 0.049689 0.198957
vt 0.049689 0.198957
vt 0.049689 0.198957
vt 0.049689 0.198957
vt 0.049689 0.198957
vt 0.049689 0.198957
vt 0.049689 0.198957
vt 0.049689 0.198957
vt 0.049689 0.198957
vt 0.049689 0.198957
vt 0.049689 0.198957
vt 0.049689 0.198957
vt 0.049689 0.198957
vt 0.049689 0.198957
vt 0.049689 0.198957
vt 0.049689 0.198957
vt 0.049689 0.198957
vn 0.083291 0.635803 -0.767344
vn 0.083291 0.635803 -0.767344
vn 0.083291 0.635803 -0.767344
vn 0.083291 0.635803 -0.767344
vn 0.095856 -0.174429 -0.979993
vn 0.095856 -0.174429 -0.979993
vn 0.095856 -0.174429 -0.979993
vn 0.080838 0.990619 0.110179
vn 0.080838 0.990619 0.110179
vn 0.080838 0.990619 0.110179
vn 0.080838 0.990619 0.110179
vn 0.113956 0.795692 0.594886
vn 0.113956 0.795692 0.594886
vn 0.113956 0.795692 0.594886
vn 0.113956 0.795692 0.594886
vn 0.862375 0.036969 0.504918
vn 0.862375 0.036969 0.504918
vn 0.862375 0.036969 0.504918
vn 0.994244 0.030122 0.102814
vn 0.994244 0.030122 0.102814
vn 0.994244 0.030122 0.102814
vn 0.995094 0.097639 0.015944
vn 0.995094 0.097639 0.015944
vn 0.995094 0.097639 0.015944
vn 0.995094 0.097639 0.015944
vn 0.992066 0.099215 -0.077212
vn 0.992066 0.099215 -0.077212
vn 0.992066 0.099215 -0.077212
vn 0.992066 0.099215 -0.077212
vn 0.986415 -0.110502 -0.121549
vn 0.986415 -0.110502 -0.121549
vn 0.986415 -0.110502 -0.121549
vn 0.986415 -0.110502 -0.121549
vn 0.991153 -0.040143 0.126506
vn 0.991153 -0.040143 0.126506
vn 0.991153 -0.040143 0.126506
vn 0.991153 -0.040143 0.126506
vn 0.150335 -0.951555 -0.268220
vn 0.150335 -0.951555 -0.268221
vn 0.150335 -0.951555 -0.268221
vn 0.150335 -0.951555 -0.268220
vn -0.131416 0.311976 0.940958
vn -0.131416 0.311976 0.940958
vn -0.131416 0.311976 0.940958
vn 0.665650 -0.366686 0.649963
vn 0.665650 -0.366686 0.649963
vn 0.665650 -0.366686 0.649963
vn 0.665650 -0.366686 0.649963
vn 0.569935 -0.803765 -0.170690
vn 0.569935 -0.803765 -0.170690
vn 0.569935 -0.803765 -0.170690
vn 0.569935 -0.803765 -0.170690
vn 0.672569 -0.471106 0.570710
vn 0.672569 -0.471106 0.570710
vn 0.672569 -0.471106 0.570710
vn 0.672569 -0.471106 0.570710
vn 0.850104 -0.525524 0.033882
vn 0.850104 -0.525524 0.033882
vn 0.850104 -0.525524 0.033882
vn 0.850104 -0.525524 0.033882
vn 0.535992 0.213088 0.816888
vn 0.535992 0.213088 0.816888
vn 0.535992 0.213088 0.816888
vn 0.535992 0.213088 0.816888
vn 0.597334 -0.800787 -0.043954
vn 0.597334 -0.800787 -0.043954
vn 0.597334 -0.800787 -0.043954
vn 0.597334 -0.800787 -0.043954
vn 0.547591 0.053112 0.835059
vn 0.547591 0.053112 0.835059
vn 0.547591 0.053112 0.835059
vn 0.547591 0.053112 0.835059
vn 0.426779 -0.161618 -0.889798
vn 0.426779 -0.161618 -0.889798
vn 0.426779 -0.161618 -0.889798
vn 0.426779 -0.161618 -0.889798
vn 0.025047 0.628065 -0.777757
vn 0.025047 0.628065 -0.777757
vn 0.025047 0.628065 -0.777757
vn -0.136600 -0.101871 -0.985375
vn -0.136600 -0.101871 -0.985375
vn -0.136600 -0.101871 -0.985375
vn -0.136600 -0.101871 -0.985375
vn 0.190990 0.975462 0.109527
vn 0.190990 0.975462 0.109527
vn 0.190990 0.975462 0.109527
vn 0.190990 0.975462 0.109527
vn 0.183198 0.839560 0.511446
vn 0.183198 0.839560 0.511446
vn 0.183198 0.839560 0.511446
vn 0.183198 0.839560 0.511446
vn -0.863066 0.038706 0.503605
vn -0.863066 0.038706 0.503605
vn -0.863067 0.038706 0.503605
vn -0.994224 0.031544 0.102582
vn -0.994224 0.031544 0.102582
vn -0.994224 0.031544 0.102582
vn -0.994679 0.101674 0.016599
vn -0.994679 0.101674 0.016599
vn -0.994679 0.101674 0.016599
vn -0.994679 0.101674 0.016599
vn -0.991713 0.102407 -0.077573
vn -0.991713 0.102407 -0.077573
vn -0.991713 0.102407 -0.077573
vn -0.991713 0.102407 -0.077573
vn -0.986415 -0.110502 -0.121549
vn -0.986415 -0.110502 -0.121549
vn -0.986415 -0.110502 -0.121549
vn -0.986415 -0.110502 -0.121549
vn -0.991153 -0.040143 0.126506
vn -0.991153 -0.040143 0.126506
vn -0.991153 -0.040143 0.126506
vn -0.991153 -0.040143 0.126506
vn -0.575943 -0.809820 -0.111721
vn -0.575943 -0.809820 -0.111721
vn -0.575942 -0.809820 -0.111721
vn -0.575943 -0.809820 -0.111721
vn 0.273537 0.373571 0.886353
vn 0.273537 0.373571 0.886353
vn 0.273537 0.373571 0.886353
vn -0.665650 -0.366686 0.649963
vn -0.665650 -0.366686 0.649963
vn -0.665650 -0.366686 0.649963
vn -0.665650 -0.366686 0.649963
vn -0.569935 -0.803765 -0.170690
vn -0.569935 -0.803765 -0.170690
vn -0.569935 -0.803765 -0.170690
vn -0.569935 -0.803765 -0.170690
vn -0.672569 -0.471106 0.570710
vn -0.672569 -0.471106 0.570710
vn -0.672569 -0.471106 0.570710
vn -0.672569 -0.471106 0.570710
vn -0.850104 -0.525524 0.033882
vn -0.850104 -0.525524 0.033882
vn -0.850104 -0.525524 0.033882
vn -0.850104 -0.525524 0.033882
vn -0.535992 0.213088 0.816888
vn -0.535993 0.213088 0.816888
vn -0.535992 0.213088 0.816888
vn -0.535993 0.213088 0.816888
vn -0.597334 -0.800787 -0.043954
vn -0.597334 -0.800787 -0.043954
vn -0.597334 -0.800787 -0.043954
vn -0.597334 -0.800787 -0.043954
vn -0.547591 0.053112 0.835059
vn -0.547591 0.053112 0.835059
vn -0.547591 0.053112 0.835059
vn -0.547591 0.053112 0.835059
vn -0.426779 -0.161618 -0.889798
vn -0.426779 -0.161618 -0.889798
vn -0.426779 -0.161618 -0.889798
vn -0.426779 -0.161618 -0.889798
vn -0.444943 0.275166 0.852238
vn -0.444943 0.275166 0.852238
vn -0.444943 0.275166 0.852238
vn -0.444943 0.275166 0.852238
vn -0.369151 0.752031 0.546055
vn -0.369151 0.752031 0.546056
vn -0.369151 0.752031 0.546056
vn -0.369151 0.752031 0.546055
vn -0.676534 0.729682 0.099326
vn -0.676534 0.729682 0.099326
vn -0.676534 0.729682 0.099326
vn -0.676534 0.729682 0.099326
vn -0.354163 0.580493 -0.733210
vn -0.354163 0.580493 -0.733210
vn -0.354163 0.580493 -0.733210
vn -0.354163 0.580493 -0.733210
vn -0.074439 -0.145611 -0.986538
vn -0.074439 -0.145611 -0.986538
vn -0.074439 -0.145611 -0.986537
vn -0.074439 -0.145611 -0.986537
vn -0.230854 -0.941724 -0.244669
vn -0.230854 -0.941724 -0.244669
vn -0.230854 -0.941724 -0.244669
vn -0.230854 -0.941724 -0.244669
vn 0.413739 0.619849 0.666789
vn 0.413739 0.619849 0.666789
vn 0.413739 0.619849 0.666789
vn 0.398110 -0.217154 0.891265
vn 0.398110 -0.217154 0.891265
vn 0.398110 -0.217154 0.891265
vn 0.398110 -0.217154 0.891265
vn 0.171504 -0.532685 -0.828754
vn 0.171504 -0.532685 -0.828754
vn 0.171504 -0.532685 -0.828754
vn 0.171504 -0.532685 -0.828754
vn -0.643608 0.283677 0.710842
vn -0.402010 0.225686 0.887386
vn -0.371144 0.264853 0.890003
vn -0.402010 0.225686 0.887386
vn -0.260284 0.463051 0.847252
vn -0.371144 0.264853 0.890003
vn -0.260284 0.463051 0.847252
vn -0.201740 0.602014 0.772580
vn -0.371144 0.264853 0.890003
vn 0.930222 -0.339603 -0.139127
vn 0.930222 -0.339603 -0.139127
vn 0.930222 -0.339603 -0.139127
vn -0.941021 -0.138123 0.308872
vn -0.941021 -0.138123 0.308872
vn -0.941021 -0.138123 0.308872
vn 0.754454 0.179653 0.631288
vn 0.531693 0.274653 0.801166
vn 0.610765 0.143702 0.778663
vn 0.610765 0.143702 0.778663
vn 0.531693 0.274653 0.801166
vn 0.389993 0.386335 0.835853
vn 0.389993 0.386335 0.835853
vn 0.531693 0.274653 0.801166
vn 0.160891 0.640242 0.751135
vn -0.715703 -0.596394 -0.363434
vn -0.715703 -0.596394 -0.363434
vn -0.715703 -0.596394 -0.363434
vn 0.941021 -0.138123 0.308872
vn 0.941021 -0.138123 0.308872
vn 0.941021 -0.138123 0.308872
vn -0.930222 -0.339603 -0.139127
vn -0.930222 -0.339603 -0.139127
vn -0.930222 -0.339603 -0.139127
vn 0.198881 0.620985 0.758171
vn 0.198881 0.620985 0.758171
vn 0.198881 0.620985 0.758171
vn 0.198881 0.620985 0.758171
vn -0.151949 -0.500227 -0.852458
vn -0.151949 -0.500227 -0.852458
vn -0.151949 -0.500227 -0.852458
vn -0.151949 -0.500227 -0.852458
vn 0.712332 -0.598957 -0.365833
vn 0.712332 -0.598957 -0.365833
vn 0.712332 -0.598957 -0.365833
vn 0.621746 -0.779793 -0.073183
vn 0.621746 -0.779793 -0.073183
vn 0.621746 -0.779793 -0.073183
vn 0.621746 -0.779793 -0.073183
vn -0.184918 -0.557975 -0.808993
vn -0.184918 -0.557975 -0.808993
vn -0.184918 -0.557975 -0.808993
vn -0.184918 -0.557975 -0.808993
vn -0.150947 -0.951001 -0.269837
vn -0.150947 -0.951001 -0.269837
vn -0.150947 -0.951001 -0.269837
vn -0.150947 -0.951001 -0.269837
vn -0.236676 0.602567 -0.762167
vn -0.236676 0.602567 -0.762167
vn -0.236676 0.602567 -0.762167
vn -0.236676 0.602567 -0.762167
vn -0.363867 0.926743 0.093529
vn -0.363867 0.926743 0.093529
vn -0.363867 0.926743 0.093529
vn -0.363867 0.926743 0.093529
vn -0.322429 0.713479 0.622083
vn -0.322429 0.713479 0.622084
vn -0.322429 0.713479 0.622084
vn -0.322429 0.713479 0.622084
vn 0.013627 0.295521 0.955239
vn 0.013627 0.295521 0.955239
vn 0.013627 0.295521 0.955239
vn 0.013627 0.295521 0.955239
vn -0.131389 -0.444208 0.886237
vn -0.131389 -0.444208 0.886237
vn -0.131389 -0.444208 0.886237
vn -0.131389 -0.444208 0.886237
vn 0.258656 0.724041 0.639423
vn 0.258656 0.724041 0.639423
vn 0.258656 0.724041 0.639423
vn 0.258656 0.724041 0.639423
vn 0.429766 0.897211 0.101560
vn 0.429766 0.897211 0.101560
vn 0.429766 0.897211 0.101560
vn 0.429766 0.897211 0.101560
vn 0.361129 0.575287 -0.733915
vn 0.361129 0.575287 -0.733915
vn 0.361129 0.575287 -0.733915
vn 0.361129 0.575287 -0.733915
vn 0.114306 -0.148591 -0.982270
vn 0.114306 -0.148591 -0.982270
vn 0.114306 -0.148591 -0.982270
vn 0.114306 -0.148591 -0.982270
vn 0.394376 0.333909 0.856138
vn 0.394376 0.333909 0.856138
vn 0.394376 0.333909 0.856138
vn 0.203481 0.367851 0.907348
vn 0.203481 0.367851 0.907348
vn 0.203481 0.367851 0.907348
vn -0.994623 0.038602 -0.096102
vn -0.994623 0.038602 -0.096102
vn -0.994623 0.038602 -0.096102
vn -0.994623 0.038602 -0.096102
vn 0.994623 0.038602 -0.096102
vn 0.994623 0.038602 -0.096102
vn 0.994623 0.038602 -0.096102
vn 0.994623 0.038602 -0.096102
vn 0.882396 0.213999 0.419024
vn 0.882397 0.213999 0.419024
vn 0.882396 0.213999 0.419024
vn -0.882397 0.213999 0.419024
vn -0.882397 0.213999 0.419024
vn -0.882397 0.213999 0.419024
vn -0.949034 -0.305692 -0.076729
vn -0.949034 -0.305692 -0.076729
vn -0.949034 -0.305692 -0.076729
vn -0.949034 -0.305692 -0.076729
vn 0.949034 -0.305692 -0.076729
vn 0.949034 -0.305692 -0.076729
vn 0.949034 -0.305692 -0.076729
vn 0.949034 -0.305692 -0.076729
vn 0.403644 -0.907495 0.116292
vn 0.403644 -0.907495 0.116292
vn 0.403644 -0.907495 0.116292
vn 0.207830 -0.949387 0.235523
vn 0.207830 -0.949387 0.235523
vn 0.207830 -0.949387 0.235523
vn 0.000000 -0.628199 0.778053
vn 0.000000 -0.628199 0.778053
vn 0.000000 -0.628199 0.778053
vn 0.000000 -0.628199 0.778053
vn 0.000000 -0.931325 0.364189
vn 0.000000 -0.931325 0.364189
vn 0.000000 -0.931325 0.364189
vn -0.284986 -0.955321 0.078385
vn -0.284986 -0.955321 0.078385
vn -0.284985 -0.955321 0.078385
vn -0.284985 -0.955321 0.078385
vn -0.059454 -0.556043 0.829024
vn -0.116596 -0.433105 0.893770
vn 0.000000 -0.668133 0.744042
vn 0.292147 -0.358700 0.886558
vn 0.225781 -0.364915 0.903250
vn 0.215109 -0.365746 0.905516
vn 0.292147 -0.358700 0.886558
vn 0.215109 -0.365746 0.905516
vn 0.225781 -0.364915 0.903250
vn -0.149133 -0.367957 0.917806
vn -0.164934 -0.316257 0.934226
vn -0.164934 -0.316257 0.934226
vn -0.116596 -0.433105 0.893770
vn -0.059454 -0.556043 0.829024
s off
f 75/1/1 76/2/2 12/3/3 13/4/4
f 76/2/5 14/5/6 12/3/7
f 74/6/8 75/1/9 13/4/10 15/7/11
f 73/8/12 74/6/13 15/7/14 16/9/15
f 21/10/16 22/11/17 20/12/18
f 23/13/19 20/12/20 22/11/21
f 20/12/22 23/14/23 24/15/24 17/16/25
f 17/16/26 24/15/27 25/17/28 18/18/29
f 18/18/30 25/17/31 26/19/32 19/20/33
f 28/21/34 23/22/35 22/23/36 27/24/37
f 58/25/38 59/26/39 66/27/40 67/28/41
f 2/29/42 73/8/43 16/9/44
f 5/30/45 22/11/46 21/10/47 4/31/48
f 6/32/49 24/15/50 23/14/51 7/33/52
f 8/34/53 25/17/54 24/15/55 6/32/56
f 61/35/57 60/36/58 26/19/59 9/37/60
f 9/37/61 26/19/62 25/17/63 8/34/64
f 10/38/65 28/21/66 27/24/67 11/39/68
f 11/39/69 27/24/70 22/23/71 5/40/72
f 7/41/73 23/22/74 28/21/75 10/38/76
f 54/42/77 70/43/78 53/44/79
f 39/45/80 54/42/81 55/46/82 40/47/83
f 70/43/84 71/48/85 52/49/86 53/44/87
f 71/48/88 72/50/89 51/51/90 52/49/91
f 42/52/92 41/53/93 43/54/94
f 44/55/95 43/54/96 41/53/97
f 41/53/98 38/56/99 45/57/100 44/58/101
f 38/56/102 39/45/103 46/59/104 45/57/105
f 39/45/106 40/47/107 47/60/108 46/59/109
f 49/61/110 48/62/111 43/63/112 44/64/113
f 68/65/114 69/66/115 64/67/116 65/68/117
f 72/50/118 50/69/119 51/51/120
f 31/70/121 30/71/122 42/52/123 43/54/124
f 32/72/125 33/73/126 44/58/127 45/57/128
f 34/74/129 32/72/130 45/57/131 46/59/132
f 64/67/133 35/75/134 47/60/135 65/68/136
f 35/75/137 34/74/138 46/59/139 47/60/140
f 36/76/141 37/77/142 48/62/143 49/61/144
f 37/77/145 31/78/146 43/63/147 48/62/148
f 33/79/149 36/76/150 49/61/151 44/64/152
f 51/51/153 50/69/154 2/80/155 16/81/156
f 52/49/157 51/51/158 16/81/159 15/82/160
f 53/44/161 52/49/162 15/82/163 13/83/164
f 54/42/165 53/44/166 13/83/167 12/84/168
f 55/46/169 54/42/170 12/84/171 14/85/172
f 58/86/173 63/87/174 62/88/175 59/89/176
f 21/10/177 20/12/178 57/90/179
f 4/31/180 21/10/181 77/91/182 78/92/183
f 14/5/184 19/20/185 66/27/186 59/26/187
f 61/35/188 3/93/189 67/28/190
f 3/93/191 1/94/192 67/28/193
f 1/94/194 58/25/195 67/28/196
f 19/20/197 26/19/198 60/36/199
f 9/37/200 3/93/201 61/35/202
f 64/67/203 69/66/204 29/95/205
f 29/95/206 69/66/207 56/96/208
f 56/96/209 69/66/210 63/87/211
f 40/47/212 68/65/213 65/68/214
f 29/95/215 35/75/216 64/67/217
f 47/60/218 40/47/219 65/68/220
f 1/97/221 56/96/222 63/87/223 58/86/224
f 55/46/225 14/85/226 59/89/227 62/88/228
f 66/27/229 19/20/230 60/36/231
f 67/28/232 66/27/233 60/36/234 61/35/235
f 40/47/236 55/46/237 62/88/238 68/65/239
f 62/88/240 63/87/241 69/66/242 68/65/243
f 38/56/244 70/43/245 54/42/246 39/45/247
f 41/53/248 71/48/249 70/43/250 38/56/251
f 42/52/252 72/50/253 71/48/254 41/53/255
f 30/71/256 50/69/257 72/50/258 42/52/259
f 78/92/260 77/91/261 73/8/262 2/29/263
f 57/90/264 20/12/265 74/6/266 73/8/267
f 20/12/268 17/16/269 75/1/270 74/6/271
f 17/16/272 18/18/273 76/2/274 75/1/275
f 18/18/276 19/20/277 14/5/278 76/2/279
f 21/10/280 57/90/281 77/91/282
f 57/90/283 73/8/284 77/91/285
f 7/98/286 10/99/287 11/100/288 5/101/289
f 36/102/290 33/103/291 31/104/292 37/105/293
f 35/106/294 29/107/295 34/108/296
f 3/109/297 9/110/298 8/111/299
f 6/112/300 7/113/301 5/114/302 4/115/303
f 33/116/304 32/117/305 30/118/306 31/119/307
f 30/120/308 32/121/309 50/122/310
f 4/123/311 78/124/312 6/125/313
f 32/126/314 34/127/315 8/128/316 6/129/317
f 32/130/318 6/131/319 50/132/320
f 50/133/321 6/134/322 78/135/323 2/136/324
f 79/137/325 8/138/326 34/139/327
f 29/140/328 56/141/329 79/142/330 34/143/331
f 79/142/332 56/141/333 1/144/334
f 1/145/335 3/146/336 8/138/337 79/137/338
