# This file uses meters as units for non-parametric coordinates.

v -5.529113 14.636669 13.218784
v 4.683023 14.718876 14.222429
v -5.219883 22.190723 9.275749
v 4.992254 22.272911 10.279396
v -4.101630 16.159277 13.129884
v 3.271846 16.218653 13.854543
v 3.479838 21.232956 11.335161
v -3.893636 21.173592 10.610501
v -5.675731 15.469809 14.887890
v 4.536407 15.552044 15.891534
v 3.125229 17.051811 15.523645
v -4.248248 16.992445 14.798993
v 4.845637 23.106071 11.948502
v 3.333221 22.066097 13.004271
v -5.366501 23.023880 10.944852
v -4.040254 22.006729 12.279610
v -0.302519 21.746643 12.061396
v -0.449136 22.579784 13.730501
v -0.398521 23.849659 13.018684
v -0.251903 23.016518 11.349571
v -0.562959 14.791794 14.856859
v -0.709576 15.624952 16.525970
v -0.658958 16.894827 15.814139
v -0.512341 16.061687 14.145033
v 12.001686 11.546602 -11.384218
v 0.346868 10.246181 -17.039402
v -11.092007 11.475782 -12.041389
v -16.238504 16.186934 -1.206087
v -11.723979 15.222721 11.202085
v -0.298992 15.426311 15.316032
v 11.369856 15.293570 11.859261
v 16.421009 16.287146 -0.276715
v 12.850193 35.582901 -18.245596
v 0.371526 34.635437 -23.866745
v -12.393267 35.500214 -18.963940
v -17.966688 37.670555 -6.409182
v -13.084040 39.875168 6.443130
v -0.605374 40.822609 12.064280
v 12.159424 39.957947 7.161465
v 17.732841 37.787537 -5.393290
v 15.574852 11.066847 -16.304604
v 0.588359 8.421679 -23.439522
v -14.775801 10.674314 -17.154152
v -21.517500 16.497765 -1.128965
v -15.652240 17.065420 16.284817
v -0.651094 17.460117 23.850292
v 14.698410 17.457981 17.134352
v 21.404722 17.052965 0.072469
v -10.301101 21.719971 8.202132
v -14.207529 21.431435 -2.329258
v -9.748013 18.357487 -12.525604
v 0.412953 17.352972 -16.506460
v 10.327216 18.523872 -11.435593
v 14.188328 21.518585 -1.521216
v 9.777800 21.781578 8.773509
v -0.368705 22.283752 12.363075
v 15.581413 10.065002 -16.112911
v 0.594915 7.419701 -23.247812
v -14.769240 9.672441 -16.962461
v -21.510933 15.495939 -0.937281
v -15.645679 16.063547 16.476490
v -0.644538 16.458178 24.041992
v 14.704972 16.456127 17.326038
v 21.411291 16.051178 0.264148
v 12.910936 8.216877 -11.886621
v 0.455238 6.199236 -17.321327
v -12.286453 7.891016 -12.591928
v -17.850248 12.295542 -0.467829
v -12.950289 12.731352 12.733584
v -0.483451 13.044615 18.494379
v 12.247107 13.057299 13.438882
v 17.784260 12.756519 0.529611
v -0.024454 13.285112 -1.492986
v 11.454520 39.964760 -17.861229
v 0.300919 39.117966 -22.885462
v -0.135588 41.882996 -6.827727
v -11.108368 39.890907 -18.503300
v -16.089939 41.830635 -7.281718
v -11.725697 43.801224 4.205788
v -0.572096 44.648010 9.230019
v 10.837040 43.875198 4.847835
v 15.818763 41.935310 -6.373730
vt 0.047433 0.210142
vt 0.047433 0.210142
vt 0.047433 0.210142
vt 0.047433 0.210142
vt 0.047433 0.210142
vt 0.047433 0.210142
vt 0.047433 0.210142
vt 0.047433 0.210142
vt 0.047433 0.210142
vt 0.047433 0.210142
vt 0.047433 0.210142
vt 0.047433 0.210142
vt 0.047433 0.210142
vt 0.047433 0.210142
vt 0.047433 0.210142
vt 0.047433 0.210142
vt 0.047433 0.210142
vt 0.047433 0.210142
vt 0.047433 0.210142
vt 0.047433 0.210142
vt 0.047433 0.210142
vt 0.047433 0.210142
vt 0.047433 0.210142
vt 0.047433 0.210142
vt 0.081009 0.254461
vt 0.081009 0.254461
vt 0.081009 0.254461
vt 0.081009 0.254461
vt 0.081009 0.254461
vt 0.081009 0.254461
vt 0.081009 0.254461
vt 0.081009 0.254461
vt 0.081009 0.254461
vt 0.081009 0.254461
vt 0.081009 0.254461
vt 0.081009 0.254461
vt 0.081009 0.254461
vt 0.081009 0.254461
vt 0.081009 0.254461
vt 0.081009 0.254461
vt 0.154327 0.356448
vt 0.154327 0.356448
vt 0.154327 0.356448
vt 0.154327 0.356448
vt 0.154327 0.356448
vt 0.154327 0.356448
vt 0.154327 0.356448
vt 0.154327 0.356448
vt 0.154327 0.356448
vt 0.154327 0.356448
vt 0.154327 0.356448
vt 0.154327 0.356448
vt 0.154327 0.356448
vt 0.154327 0.356448
vt 0.154327 0.356448
vt 0.154327 0.356448
vt 0.154327 0.356448
vt 0.154327 0.356448
vt 0.154327 0.356448
vt 0.154327 0.356448
vt 0.154327 0.356448
vt 0.154327 0.356448
vt 0.154327 0.356448
vt 0.154327 0.356448
vt 0.154327 0.356448
vt 0.154327 0.356448
vt 0.154327 0.356448
vt 0.154327 0.356448
vt 0.154327 0.356448
vt 0.154327 0.356448
vt 0.154327 0.356448
vt 0.154327 0.356448
vt 0.154327 0.356448
vt 0.154327 0.356448
vt 0.154327 0.356448
vt 0.154327 0.356448
vt 0.154327 0.356448
vt 0.154327 0.356448
vt 0.154327 0.356448
vt 0.154327 0.356448
vt 0.154327 0.356448
vt 0.154327 0.356448
vt 0.154327 0.356448
vt 0.154327 0.356448
vt 0.154327 0.356448
vt 0.154327 0.356448
vt 0.154327 0.356448
vt 0.154327 0.356448
vt 0.154327 0.356448
vt 0.154327 0.356448
vt 0.154327 0.356448
vt 0.154327 0.356448
vt 0.154327 0.356448
vt 0.154327 0.356448
vt 0.154327 0.356448
vt 0.154327 0.356448
vt 0.154327 0.356448
vt 0.154327 0.356448
vt 0.154327 0.356448
vt 0.154327 0.356448
vt 0.154327 0.356448
vt 0.154327 0.356448
vt 0.154327 0.356448
vt 0.154327 0.356448
vt 0.154327 0.356448
vt 0.154327 0.356448
vt 0.154327 0.356448
vt 0.154327 0.356448
vt 0.154327 0.356448
vt 0.154327 0.356448
vt 0.154327 0.356448
vt 0.154327 0.356448
vt 0.154327 0.356448
vt 0.154327 0.356448
vt 0.154327 0.356448
vt 0.154327 0.356448
vt 0.154327 0.356448
vt 0.154327 0.356448
vt 0.154327 0.356448
vt 0.154327 0.356448
vt 0.154327 0.356448
vt 0.154327 0.356448
vt 0.154327 0.356448
vt 0.154327 0.356448
vt 0.154327 0.356448
vt 0.154327 0.356448
vt 0.154327 0.356448
vt 0.154327 0.356448
vt 0.154327 0.356448
vt 0.154327 0.356448
vt 0.154327 0.356448
vt 0.154327 0.356448
vt 0.154327 0.356448
vt 0.154327 0.356448
vt 0.154327 0.356448
vt 0.154327 0.356448
vt 0.154327 0.356448
vt 0.154327 0.356448
vt 0.154327 0.356448
vt 0.154327 0.356448
vt 0.154327 0.356448
vt 0.154327 0.356448
vt 0.154327 0.356448
vt 0.154327 0.356448
vt 0.154327 0.356448
vt 0.154327 0.356448
vt 0.154327 0.356448
vt 0.156890 0.356532
vt 0.156890 0.356532
vt 0.156890 0.356532
vt 0.156890 0.356532
vt 0.156890 0.356532
vt 0.156890 0.356532
vt 0.156890 0.356532
vt 0.156890 0.356532
vt 0.156890 0.356532
vt 0.154327 0.356448
vt 0.154327 0.356448
vt 0.154327 0.356448
vt 0.154327 0.356448
vt 0.154327 0.356448
vt 0.154327 0.356448
vt 0.154327 0.356448
vt 0.154327 0.356448
vn -0.274365 0.396439 0.876105
vn -0.091843 0.404922 0.909727
vn -0.093451 0.404908 0.909569
vn -0.274365 0.396439 0.876105
vn 0.270358 0.431424 0.860686
vn 0.270358 0.431424 0.860686
vn 0.270358 0.431424 0.860686
vn 0.270358 0.431424 0.860686
vn -0.089546 0.507657 0.856893
vn -0.400199 0.477009 0.782498
vn -0.400199 0.477009 0.782498
vn -0.087053 0.507691 0.857130
vn -0.436706 0.425516 0.792606
vn -0.436706 0.425516 0.792606
vn -0.436706 0.425516 0.792606
vn -0.436706 0.425515 0.792606
vn -0.115745 -0.892740 0.435451
vn -0.037018 -0.895409 0.443703
vn -0.035600 -0.895406 0.443826
vn -0.115745 -0.892740 0.435451
vn 0.037299 0.895410 -0.443677
vn 0.146246 0.890181 -0.431498
vn 0.146246 0.890181 -0.431498
vn 0.035326 0.895406 -0.443848
vn 0.996324 0.003885 0.085579
vn 0.996324 0.003885 0.085579
vn 0.996324 0.003885 0.085579
vn 0.996324 0.003885 0.085579
vn -0.996253 -0.002115 -0.086457
vn -0.996253 -0.002115 -0.086457
vn -0.996253 -0.002115 -0.086457
vn -0.996253 -0.002115 -0.086457
vn 0.036405 0.895409 -0.443753
vn 0.036403 0.895409 -0.443754
vn 0.036403 0.895409 -0.443754
vn 0.036406 0.895409 -0.443753
vn -0.036399 -0.895411 0.443749
vn -0.036402 -0.895411 0.443750
vn -0.036402 -0.895411 0.443750
vn -0.036399 -0.895411 0.443749
vn -0.996324 -0.003886 -0.085580
vn -0.996324 -0.003886 -0.085580
vn -0.996324 -0.003886 -0.085580
vn -0.996324 -0.003886 -0.085580
vn 0.996253 0.002115 0.086457
vn 0.996253 0.002115 0.086457
vn 0.996253 0.002115 0.086457
vn 0.996253 0.002115 0.086457
vn -0.036402 -0.895411 0.443750
vn -0.036405 -0.895411 0.443750
vn -0.036405 -0.895411 0.443750
vn -0.036402 -0.895411 0.443750
vn 0.235191 0.485283 0.842132
vn -0.089546 0.507657 0.856893
vn -0.087053 0.507691 0.857130
vn 0.235191 0.485283 0.842132
vn 0.036408 0.895409 -0.443753
vn 0.036405 0.895409 -0.443753
vn 0.036406 0.895409 -0.443753
vn 0.036408 0.895409 -0.443753
vn -0.037018 -0.895409 0.443703
vn 0.041917 -0.892463 0.449170
vn 0.041917 -0.892463 0.449170
vn -0.035600 -0.895406 0.443826
vn -0.093451 0.404908 0.909569
vn -0.091843 0.404922 0.909727
vn 0.089717 0.399702 0.912244
vn 0.089717 0.399702 0.912244
vn -0.071497 0.889915 -0.450489
vn 0.037299 0.895410 -0.443677
vn 0.035326 0.895406 -0.443848
vn -0.071497 0.889914 -0.450489
vn 0.312250 -0.047965 -0.948788
vn 0.312250 -0.047965 -0.948788
vn 0.364825 -0.213251 -0.906326
vn 0.364365 -0.211661 -0.906883
vn -0.266143 -0.052323 -0.962513
vn -0.266143 -0.052323 -0.962513
vn -0.316674 -0.226246 -0.921157
vn -0.316321 -0.224915 -0.921604
vn -0.842896 0.192626 -0.502416
vn -0.842896 0.192626 -0.502416
vn -0.898313 -0.092329 -0.429546
vn -0.896928 -0.070917 -0.436452
vn -0.859485 0.370821 0.351819
vn -0.859485 0.370821 0.351819
vn -0.919188 0.111142 0.377810
vn -0.922453 0.071849 0.379367
vn -0.363331 0.435163 0.823786
vn -0.363331 0.435163 0.823786
vn -0.386829 0.213586 0.897076
vn -0.387562 0.199915 0.899905
vn 0.314868 0.449062 0.836183
vn 0.314868 0.449062 0.836183
vn 0.337342 0.218997 0.915555
vn 0.336997 0.225433 0.914119
vn 0.826093 0.406942 0.389830
vn 0.826093 0.406942 0.389830
vn 0.898142 0.113440 0.424820
vn 0.893914 0.149107 0.422712
vn 0.859118 0.232172 -0.456083
vn 0.859118 0.232172 -0.456083
vn 0.920157 -0.032382 -0.390209
vn 0.921742 -0.050791 -0.384464
vn 0.001482 0.985503 -0.169652
vn 0.001483 0.985503 -0.169653
vn 0.001482 0.985503 -0.169655
vn 0.001483 0.985503 -0.169653
vn 0.001482 0.985503 -0.169650
vn 0.001482 0.985503 -0.169655
vn 0.001482 0.985503 -0.169650
vn 0.001479 0.985503 -0.169654
vn 0.001482 0.985503 -0.169655
vn 0.001479 0.985503 -0.169654
vn 0.001482 0.985502 -0.169660
vn 0.001482 0.985503 -0.169655
vn 0.001482 0.985502 -0.169660
vn 0.001482 0.985502 -0.169658
vn 0.001482 0.985503 -0.169655
vn 0.001482 0.985502 -0.169658
vn 0.001481 0.985502 -0.169657
vn 0.001482 0.985503 -0.169655
vn 0.001481 0.985502 -0.169657
vn 0.001482 0.985503 -0.169654
vn 0.001482 0.985503 -0.169655
vn 0.001482 0.985503 -0.169654
vn 0.001482 0.985503 -0.169652
vn 0.001482 0.985503 -0.169655
vn -0.096511 0.988965 -0.112402
vn -0.096511 0.988965 -0.112402
vn -0.096511 0.988965 -0.112402
vn -0.096511 0.988965 -0.112402
vn 0.081840 0.988698 -0.125614
vn 0.081840 0.988698 -0.125614
vn 0.081840 0.988698 -0.125614
vn 0.081840 0.988698 -0.125614
vn 0.198182 0.937948 -0.284565
vn 0.198182 0.937948 -0.284565
vn 0.198182 0.937948 -0.284565
vn 0.198182 0.937948 -0.284565
vn 0.222519 0.972529 -0.068355
vn 0.222519 0.972529 -0.068355
vn 0.222519 0.972529 -0.068355
vn 0.222519 0.972529 -0.068355
vn 0.115778 0.944218 -0.308297
vn 0.115778 0.944218 -0.308297
vn 0.115778 0.944218 -0.308297
vn 0.115778 0.944218 -0.308297
vn -0.123847 0.933189 -0.337371
vn -0.123847 0.933189 -0.337371
vn -0.123847 0.933189 -0.337371
vn -0.123847 0.933189 -0.337371
vn -0.299019 0.948065 -0.108441
vn -0.299019 0.948065 -0.108441
vn -0.299019 0.948065 -0.108441
vn -0.299019 0.948065 -0.108441
vn -0.261364 0.927348 -0.267794
vn -0.261364 0.927348 -0.267794
vn -0.261364 0.927348 -0.267794
vn -0.261364 0.927348 -0.267794
vn -0.922723 -0.063407 0.380213
vn -0.922453 0.071849 0.379367
vn -0.919188 0.111142 0.377810
vn -0.922723 -0.063407 0.380213
vn -0.896590 -0.224988 -0.381454
vn -0.896928 -0.070917 -0.436452
vn -0.898313 -0.092329 -0.429546
vn -0.896590 -0.224988 -0.381454
vn -0.338125 -0.311440 -0.888075
vn -0.316321 -0.224915 -0.921604
vn -0.316674 -0.226246 -0.921157
vn -0.338125 -0.311440 -0.888075
vn 0.387745 -0.297177 -0.872548
vn 0.364365 -0.211661 -0.906883
vn 0.364825 -0.213251 -0.906326
vn 0.387745 -0.297177 -0.872548
vn 0.922598 -0.187975 -0.336866
vn 0.921742 -0.050791 -0.384464
vn 0.920157 -0.032382 -0.390209
vn 0.922598 -0.187975 -0.336866
vn 0.903531 -0.025085 0.427788
vn 0.893914 0.149107 0.422712
vn 0.898142 0.113440 0.424820
vn 0.903531 -0.025085 0.427788
vn 0.341140 0.087811 0.935902
vn 0.336997 0.225433 0.914119
vn 0.337342 0.218997 0.915555
vn 0.341140 0.087811 0.935902
vn -0.390746 0.072392 0.917648
vn -0.387562 0.199915 0.899905
vn -0.386829 0.213586 0.897076
vn -0.390746 0.072392 0.917648
vn 0.421092 -0.167593 -0.891400
vn 0.421092 -0.167593 -0.891400
vn 0.421092 -0.167593 -0.891400
vn 0.421092 -0.167593 -0.891400
vn -0.370131 -0.177084 -0.911946
vn -0.370131 -0.177084 -0.911946
vn -0.370131 -0.177084 -0.911946
vn -0.370131 -0.177084 -0.911946
vn -0.918435 -0.080555 -0.387283
vn -0.918435 -0.080555 -0.387283
vn -0.918435 -0.080555 -0.387283
vn -0.918435 -0.080555 -0.387283
vn -0.938959 0.058271 0.339058
vn -0.938959 0.058271 0.339058
vn -0.938959 0.058271 0.339058
vn -0.938959 0.058271 0.339058
vn -0.421093 0.167582 0.891402
vn -0.421093 0.167582 0.891402
vn -0.421093 0.167582 0.891402
vn -0.421093 0.167582 0.891402
vn 0.370127 0.177079 0.911948
vn 0.370127 0.177079 0.911948
vn 0.370127 0.177079 0.911948
vn 0.370127 0.177079 0.911948
vn 0.918437 0.080554 0.387279
vn 0.918437 0.080554 0.387279
vn 0.918437 0.080554 0.387279
vn 0.918437 0.080554 0.387279
vn 0.938960 -0.058272 -0.339056
vn 0.938960 -0.058272 -0.339056
vn 0.938960 -0.058272 -0.339056
vn 0.938960 -0.058272 -0.339056
vn 0.227559 -0.956982 -0.180008
vn 0.227559 -0.956982 -0.180008
vn 0.227559 -0.956982 -0.180008
vn 0.227559 -0.956982 -0.180008
vn -0.195011 -0.961962 -0.191311
vn -0.195011 -0.961962 -0.191311
vn -0.195011 -0.961962 -0.191311
vn -0.195011 -0.961962 -0.191311
vn -0.564658 -0.824632 0.033809
vn -0.564658 -0.824632 0.033809
vn -0.564658 -0.824632 0.033809
vn -0.564658 -0.824632 0.033809
vn -0.570443 -0.784967 0.241706
vn -0.570443 -0.784967 0.241706
vn -0.570443 -0.784967 0.241706
vn -0.570443 -0.784967 0.241706
vn -0.215017 -0.825957 0.521116
vn -0.215017 -0.825957 0.521116
vn -0.215017 -0.825957 0.521116
vn -0.215017 -0.825957 0.521116
vn 0.207324 -0.821091 0.531813
vn 0.207324 -0.821091 0.531813
vn 0.207324 -0.821091 0.531813
vn 0.207324 -0.821091 0.531813
vn 0.575003 -0.771917 0.271138
vn 0.575003 -0.771917 0.271138
vn 0.575003 -0.771917 0.271138
vn 0.575003 -0.771917 0.271138
vn 0.580942 -0.811418 0.064097
vn 0.580942 -0.811418 0.064097
vn 0.580942 -0.811418 0.064097
vn 0.580942 -0.811418 0.064097
vn 0.038128 -0.963869 0.263635
vn 0.038128 -0.963869 0.263635
vn 0.038128 -0.963869 0.263635
vn -0.028636 -0.964670 0.261900
vn -0.028636 -0.964670 0.261900
vn -0.028636 -0.964670 0.261900
vn -0.076339 -0.948681 0.306882
vn -0.076339 -0.948681 0.306882
vn -0.076339 -0.948681 0.306882
vn -0.069380 -0.995746 0.060632
vn -0.069380 -0.995746 0.060632
vn -0.069380 -0.995746 0.060632
vn -0.024366 -0.993536 0.110871
vn -0.024366 -0.993536 0.110871
vn -0.024366 -0.993536 0.110871
vn 0.042395 -0.992736 0.112600
vn 0.042395 -0.992736 0.112600
vn 0.042395 -0.992736 0.112600
vn 0.089995 -0.993834 0.064770
vn 0.089995 -0.993834 0.064770
vn 0.089995 -0.993834 0.064770
vn 0.083037 -0.946769 0.311020
vn 0.083037 -0.946769 0.311020
vn 0.083037 -0.946769 0.311020
vn 0.223053 0.721541 -0.655459
vn 0.223053 0.721541 -0.655459
vn 0.223053 0.721541 -0.655459
vn 0.223053 0.721541 -0.655459
vn -0.193697 0.716576 -0.670074
vn -0.193697 0.716576 -0.670074
vn -0.193697 0.716576 -0.670074
vn -0.193697 0.716576 -0.670074
vn -0.500916 0.780225 -0.374609
vn -0.500916 0.780225 -0.374609
vn -0.500916 0.780225 -0.374609
vn -0.500916 0.780225 -0.374609
vn -0.505563 0.860742 0.059412
vn -0.505563 0.860741 0.059412
vn -0.505563 0.860741 0.059412
vn -0.505563 0.860741 0.059412
vn -0.214574 0.907723 0.360551
vn -0.214574 0.907723 0.360551
vn -0.214574 0.907723 0.360551
vn -0.214574 0.907723 0.360551
vn 0.188411 0.910421 0.368286
vn 0.188411 0.910421 0.368286
vn 0.188411 0.910421 0.368286
vn 0.188411 0.910421 0.368286
vn 0.488334 0.868648 0.083549
vn 0.488334 0.868648 0.083549
vn 0.488334 0.868648 0.083549
vn 0.488334 0.868648 0.083549
vn 0.507226 0.790468 -0.343341
vn 0.507226 0.790468 -0.343341
vn 0.507226 0.790468 -0.343341
vn 0.507226 0.790468 -0.343341
s off
f 9/9/1 22/22/2 23/23/3 12/12/4
f 10/10/5 13/13/6 14/14/7 11/11/8
f 19/19/9 15/15/10 16/16/11 18/18/12
f 15/15/13 9/9/14 12/12/15 16/16/16
f 1/1/17 21/21/18 22/22/19 9/9/20
f 24/24/21 5/5/22 12/12/23 23/23/24
f 2/2/25 4/4/26 13/13/27 10/10/28
f 7/7/29 6/6/30 11/11/31 14/14/32
f 20/20/33 3/3/34 15/15/35 19/19/36
f 8/8/37 17/17/38 18/18/39 16/16/40
f 3/3/41 1/1/42 9/9/43 15/15/44
f 5/5/45 8/8/46 16/16/47 12/12/48
f 17/17/49 7/7/50 14/14/51 18/18/52
f 13/13/53 19/19/54 18/18/55 14/14/56
f 4/4/57 20/20/58 19/19/59 13/13/60
f 21/21/61 2/2/62 10/10/63 22/22/64
f 23/23/65 22/22/66 10/10/67 11/11/68
f 6/6/69 24/24/70 23/23/71 11/11/72
f 25/25/73 26/26/74 52/27/75 53/28/76
f 26/26/77 27/29/78 51/30/79 52/27/80
f 27/29/81 28/31/82 50/32/83 51/30/84
f 28/31/85 29/33/86 49/34/87 50/32/88
f 29/33/89 30/35/90 56/36/91 49/34/92
f 30/35/93 31/37/94 55/38/95 56/36/96
f 31/37/97 32/39/98 54/40/99 55/38/100
f 32/39/101 25/25/102 53/28/103 54/40/104
f 74/41/105 75/42/106 76/43/107
f 75/42/108 77/44/109 76/43/110
f 77/44/111 78/45/112 76/43/113
f 78/45/114 79/46/115 76/43/116
f 79/46/117 80/47/118 76/43/119
f 80/47/120 81/48/121 76/43/122
f 81/48/123 82/49/124 76/43/125
f 82/49/126 74/41/127 76/43/128
f 26/50/129 25/51/130 41/52/131 42/53/132
f 27/54/133 26/50/134 42/53/135 43/55/136
f 28/56/137 27/54/138 43/55/139 44/57/140
f 29/58/141 28/56/142 44/57/143 45/59/144
f 30/60/145 29/58/146 45/59/147 46/61/148
f 31/62/149 30/60/150 46/61/151 47/63/152
f 32/64/153 31/62/154 47/63/155 48/65/156
f 25/51/157 32/64/158 48/65/159 41/52/160
f 36/66/161 50/67/162 49/68/163 37/69/164
f 35/70/165 51/71/166 50/67/167 36/66/168
f 34/72/169 52/73/170 51/71/171 35/70/172
f 33/74/173 53/75/174 52/73/175 34/72/176
f 40/76/177 54/77/178 53/78/179 33/79/180
f 39/80/181 55/81/182 54/77/183 40/76/184
f 38/82/185 56/83/186 55/81/187 39/80/188
f 37/69/189 49/68/190 56/83/191 38/82/192
f 42/84/193 41/85/194 57/86/195 58/87/196
f 43/88/197 42/89/198 58/90/199 59/91/200
f 44/92/201 43/93/202 59/94/203 60/95/204
f 45/96/205 44/97/206 60/98/207 61/99/208
f 46/100/209 45/101/210 61/102/211 62/103/212
f 47/104/213 46/105/214 62/106/215 63/107/216
f 48/108/217 47/109/218 63/110/219 64/111/220
f 41/112/221 48/113/222 64/114/223 57/115/224
f 58/116/225 57/117/226 65/118/227 66/119/228
f 59/120/229 58/121/230 66/122/231 67/123/232
f 60/124/233 59/125/234 67/126/235 68/127/236
f 61/128/237 60/129/238 68/130/239 69/131/240
f 62/132/241 61/133/242 69/134/243 70/135/244
f 63/136/245 62/137/246 70/138/247 71/139/248
f 64/140/249 63/141/250 71/142/251 72/143/252
f 57/144/253 64/145/254 72/146/255 65/147/256
f 66/148/257 65/149/258 73/150/259
f 67/151/260 66/148/261 73/150/262
f 68/152/263 67/151/264 73/150/265
f 69/153/266 68/152/267 73/150/268
f 70/154/269 69/153/270 73/150/271
f 71/155/272 70/154/273 73/150/274
f 72/156/275 71/155/276 73/150/277
f 65/149/278 72/156/279 73/150/280
f 33/157/281 34/158/282 75/42/283 74/41/284
f 34/158/285 35/159/286 77/44/287 75/42/288
f 35/159/289 36/160/290 78/45/291 77/44/292
f 36/160/293 37/161/294 79/46/295 78/45/296
f 37/161/297 38/162/298 80/47/299 79/46/300
f 38/162/301 39/163/302 81/48/303 80/47/304
f 39/163/305 40/164/306 82/49/307 81/48/308
f 40/164/309 33/157/310 74/41/311 82/49/312
