# This file uses meters as units for non-parametric coordinates.

v -0.000122 14.264584 -13.471988
v -0.000122 4.714298 -12.601564
v -3.325806 21.061306 11.829986
v -6.432129 22.729149 -5.426586
v -14.452759 20.462437 -5.458380
v -8.020752 22.311497 -6.042580
v -13.238403 11.951218 -11.116015
v -11.044066 5.250340 -9.709608
v -12.763795 21.074219 6.460508
v -5.285034 22.158566 12.410596
v -13.818237 13.206615 -1.916492
v -13.426759 12.927914 2.112980
v -13.842286 9.888134 -4.597496
v -13.492920 4.602776 -3.642740
v 12.863770 21.071529 -4.046079
v 13.238160 11.951218 -11.116015
v 1.179321 25.311966 -6.721859
v 11.043824 5.250359 -9.709608
v 11.174927 20.427074 6.460508
v 2.388916 26.800823 5.633162
v 13.426514 12.927914 2.112979
v 13.817994 13.206615 -1.916493
v 13.842040 9.888134 -4.597497
v 13.508189 4.618206 -3.642776
v -2.604004 25.194263 13.005383
v -5.252686 24.346371 -6.137660
v 8.690796 19.818993 12.138753
v 1.779297 24.694080 11.758698
v 12.646276 17.056065 9.609010
v 12.373694 16.965904 12.652491
v -10.954590 19.259911 10.232807
v 1.322410 18.184986 14.924622
v 6.934349 16.691055 14.066567
v 7.161011 20.907822 14.765255
v 2.385010 25.030022 14.846645
v -0.561401 24.210339 15.288618
v -3.137085 18.680191 13.924120
v -6.107300 21.248226 14.365789
v -9.106812 19.715443 12.854691
v -7.995850 17.707329 13.629007
v -6.885010 23.387299 6.029452
v -5.054688 22.814255 5.858884
v -4.230347 26.058865 5.977672
v -8.865234 14.684200 11.737702
v -13.485756 12.355862 8.847906
v -10.191613 11.013851 13.365657
v -13.078292 14.198895 11.757905
v -14.595528 15.090790 8.451585
v -8.909191 12.894344 15.413210
v -11.522361 14.663811 14.410990
v -3.716791 11.522522 15.586231
v -5.571548 12.893810 16.145100
v 15.586806 12.361851 8.735335
v 16.880821 13.586483 8.469993
v 15.487544 13.975620 12.617806
v 14.599704 12.327423 12.878306
v 15.476874 14.274101 6.730087
v 12.409448 12.673264 7.612824
v 12.110194 15.408649 14.976735
v 10.067575 12.488823 12.492615
v 10.356381 17.049255 16.942898
v 8.990582 16.196079 16.408669
v -6.920401 9.823360 18.270813
v -10.755418 9.492702 16.827431
v -8.125999 10.714703 18.634079
v -9.921840 10.715046 18.158348
v 10.847473 3.958664 -8.594860
v 0.000000 2.788315 -10.058845
v 10.494328 12.015305 7.004858
v 10.913754 10.593185 1.891060
v 11.364365 11.784897 -2.838400
v 11.426544 9.532700 -4.656824
v 10.870171 2.977524 -2.480674
v -10.847473 3.958664 -8.594860
v -11.364365 11.784897 -2.838400
v -10.913754 10.593185 1.891060
v -11.426544 9.532700 -4.656824
v -10.870171 2.977524 -2.480674
v 0.000000 16.405258 12.154881
v -10.494328 12.015305 7.004858
v 8.865166 14.668808 10.991895
vt 0.049149 0.198465
vt 0.049149 0.198465
vt 0.049149 0.198465
vt 0.049149 0.198465
vt 0.049149 0.198465
vt 0.049149 0.198465
vt 0.049149 0.198465
vt 0.049149 0.198465
vt 0.049149 0.198465
vt 0.049149 0.198465
vt 0.049149 0.198465
vt 0.049149 0.198465
vt 0.049149 0.198465
vt 0.049149 0.198465
vt 0.049149 0.198465
vt 0.049149 0.198465
vt 0.049149 0.198465
vt 0.049149 0.198465
vt 0.049149 0.198465
vt 0.049149 0.198465
vt 0.049149 0.198465
vt 0.049149 0.198465
vt 0.049149 0.198465
vt 0.049149 0.198465
vt 0.049149 0.198465
vt 0.049149 0.198465
vt 0.049149 0.198465
vt 0.049149 0.198465
vt 0.049149 0.198465
vt 0.049149 0.198465
vt 0.049149 0.198465
vt 0.049149 0.198465
vt 0.049149 0.198465
vt 0.049149 0.198465
vt 0.049149 0.198465
vt 0.049149 0.198465
vt 0.049149 0.198465
vt 0.049149 0.198465
vt 0.049149 0.198465
vt 0.049149 0.198465
vt 0.049149 0.198465
vt 0.049149 0.198465
vt 0.049149 0.198465
vt 0.049149 0.198465
vt 0.049149 0.198465
vt 0.049149 0.198465
vt 0.049149 0.198465
vt 0.049149 0.198465
vt 0.049149 0.198465
vt 0.049149 0.198465
vt 0.049149 0.198465
vt 0.049149 0.198465
vt 0.049149 0.198465
vt 0.049149 0.198465
vt 0.049149 0.198465
vt 0.049149 0.198465
vt 0.049149 0.198465
vt 0.049149 0.198465
vt 0.049149 0.198465
vt 0.049149 0.198465
vt 0.049149 0.198465
vt 0.049149 0.198465
vt 0.049149 0.198465
vt 0.049149 0.198465
vt 0.049149 0.198465
vt 0.049149 0.198465
vt 0.049149 0.198465
vt 0.049149 0.198465
vt 0.049149 0.198465
vt 0.049149 0.198465
vt 0.049149 0.198465
vt 0.049149 0.198465
vt 0.049149 0.198465
vt 0.049149 0.198465
vt 0.049149 0.198465
vt 0.049149 0.198465
vt 0.049149 0.198465
vt 0.049149 0.198465
vt 0.049149 0.198465
vt 0.049149 0.198465
vt 0.049149 0.198465
vn 0.299674 0.531124 -0.792529
vn 0.299674 0.531124 -0.792529
vn 0.299674 0.531124 -0.792529
vn 0.299674 0.531124 -0.792529
vn 0.197104 -0.162079 -0.966892
vn 0.197104 -0.162079 -0.966892
vn 0.197104 -0.162079 -0.966892
vn 0.197104 -0.162079 -0.966892
vn 0.463291 0.885907 -0.023009
vn 0.463291 0.885907 -0.023009
vn 0.463291 0.885907 -0.023009
vn 0.463291 0.885907 -0.023009
vn 0.971877 0.181049 0.150588
vn 0.971877 0.181049 0.150588
vn 0.971877 0.181049 0.150588
vn 0.971877 0.181049 0.150588
vn 0.993066 0.090564 -0.074950
vn 0.993066 0.090564 -0.074950
vn 0.993066 0.090564 -0.074950
vn 0.993066 0.090564 -0.074950
vn 0.926739 -0.250885 -0.279663
vn 0.926739 -0.250885 -0.279663
vn 0.926739 -0.250885 -0.279663
vn 0.926739 -0.250885 -0.279663
vn -0.232850 0.519780 -0.821955
vn -0.232850 0.519780 -0.821955
vn -0.232850 0.519780 -0.821955
vn -0.232850 0.519780 -0.821955
vn -0.197104 -0.162078 -0.966892
vn -0.197104 -0.162078 -0.966892
vn -0.197104 -0.162078 -0.966892
vn -0.197104 -0.162078 -0.966892
vn -0.322265 0.946217 -0.028616
vn -0.322265 0.946217 -0.028616
vn -0.322265 0.946217 -0.028616
vn -0.322265 0.946217 -0.028616
vn -0.991573 -0.004940 0.129453
vn -0.991573 -0.004940 0.129453
vn -0.991573 -0.004940 0.129453
vn -0.991573 -0.004940 0.129453
vn -0.996597 -0.061961 -0.054359
vn -0.996597 -0.061961 -0.054359
vn -0.996597 -0.061961 -0.054359
vn -0.996597 -0.061961 -0.054359
vn -0.926741 -0.251629 -0.278988
vn -0.926741 -0.251629 -0.278988
vn -0.926741 -0.251629 -0.278988
vn -0.926741 -0.251629 -0.278988
vn 0.185905 -0.742641 -0.643369
vn 0.185905 -0.742641 -0.643369
vn 0.185905 -0.742641 -0.643369
vn 0.185905 -0.742641 -0.643369
vn 0.056336 -0.062480 0.996455
vn 0.056336 -0.062480 0.996455
vn 0.056336 -0.062480 0.996455
vn 0.056336 -0.062480 0.996455
vn 0.851858 -0.239151 0.465988
vn 0.851858 -0.239151 0.465988
vn 0.851858 -0.239151 0.465988
vn 0.851858 -0.239151 0.465988
vn 0.612308 -0.787215 -0.073287
vn 0.612308 -0.787215 -0.073287
vn 0.612308 -0.787215 -0.073287
vn 0.612308 -0.787215 -0.073287
vn 0.072018 -0.626033 0.776463
vn 0.072018 -0.626033 0.776464
vn 0.072018 -0.626033 0.776464
vn 0.072018 -0.626033 0.776464
vn 0.112740 0.246374 0.962595
vn 0.112740 0.246374 0.962595
vn 0.112740 0.246374 0.962595
vn 0.112740 0.246374 0.962595
vn 0.607479 -0.761824 -0.224930
vn 0.607479 -0.761824 -0.224931
vn 0.607479 -0.761824 -0.224930
vn 0.607479 -0.761824 -0.224931
vn -0.185902 -0.742656 -0.643353
vn -0.185902 -0.742656 -0.643353
vn -0.185902 -0.742656 -0.643353
vn -0.185902 -0.742656 -0.643353
vn -0.612271 -0.787243 -0.073295
vn -0.612271 -0.787243 -0.073295
vn -0.612271 -0.787243 -0.073295
vn -0.612271 -0.787243 -0.073295
vn -0.820449 -0.424058 0.383456
vn -0.820449 -0.424058 0.383456
vn -0.820449 -0.424058 0.383456
vn -0.820449 -0.424058 0.383456
vn -0.072011 -0.626034 0.776464
vn -0.072011 -0.626034 0.776464
vn -0.072011 -0.626034 0.776464
vn -0.072011 -0.626034 0.776464
vn -0.606889 -0.762256 -0.225058
vn -0.606889 -0.762256 -0.225058
vn -0.606889 -0.762256 -0.225058
vn -0.606889 -0.762256 -0.225058
vn -0.114046 0.245806 0.962587
vn -0.114046 0.245806 0.962587
vn -0.114046 0.245806 0.962587
vn -0.114046 0.245806 0.962587
vn -0.136975 0.983735 -0.116204
vn -0.136975 0.983735 -0.116204
vn -0.136975 0.983735 -0.116204
vn -0.136975 0.983735 -0.116204
vn -0.155019 0.527087 -0.835553
vn -0.155019 0.527086 -0.835553
vn -0.155019 0.527086 -0.835553
vn 0.079483 0.717821 -0.691676
vn 0.079483 0.717821 -0.691676
vn 0.079483 0.717821 -0.691676
vn 0.052511 0.997093 -0.055207
vn 0.052511 0.997093 -0.055207
vn 0.052511 0.997093 -0.055207
vn 0.052511 0.997093 -0.055207
vn 0.451599 0.378940 0.807752
vn 0.451599 0.378940 0.807752
vn 0.451599 0.378940 0.807752
vn -0.362970 -0.195699 0.911018
vn -0.362970 -0.195699 0.911018
vn -0.362970 -0.195699 0.911018
vn -0.919825 0.386972 0.064603
vn -0.919825 0.386972 0.064603
vn -0.919825 0.386972 0.064603
vn -0.919825 0.386972 0.064603
vn -0.672030 0.173585 -0.719892
vn -0.672030 0.173585 -0.719892
vn -0.672030 0.173585 -0.719892
vn 0.792410 -0.555823 0.251290
vn 0.792410 -0.555823 0.251290
vn 0.792410 -0.555823 0.251290
vn 0.792410 -0.555823 0.251290
vn 0.535931 0.780534 0.321784
vn 0.535931 0.780534 0.321784
vn 0.535931 0.780534 0.321784
vn 0.151675 -0.012287 0.988354
vn 0.151675 -0.012287 0.988354
vn 0.151675 -0.012287 0.988354
vn 0.200674 0.920085 0.336414
vn 0.200674 0.920085 0.336414
vn 0.200674 0.920085 0.336414
vn 0.269684 -0.689449 -0.672258
vn 0.269684 -0.689449 -0.672258
vn 0.269684 -0.689449 -0.672259
vn 0.269684 -0.689448 -0.672259
vn 0.660302 0.702706 0.264962
vn 0.660302 0.702706 0.264962
vn 0.660302 0.702706 0.264962
vn 0.660302 0.702706 0.264962
vn 0.115516 -0.493679 0.861938
vn 0.115516 -0.493679 0.861938
vn 0.115516 -0.493679 0.861938
vn 0.115516 -0.493679 0.861938
vn -0.052651 -0.997660 -0.043626
vn -0.052651 -0.997660 -0.043626
vn -0.052651 -0.997660 -0.043626
vn -0.052651 -0.997660 -0.043626
vn -0.192310 -0.100550 0.976169
vn -0.192310 -0.100550 0.976169
vn -0.192310 -0.100550 0.976169
vn -0.192310 -0.100550 0.976169
vn -0.537428 0.629904 0.560707
vn -0.537428 0.629904 0.560707
vn -0.537428 0.629904 0.560707
vn -0.833784 -0.337619 0.436826
vn -0.833784 -0.337618 0.436826
vn -0.833784 -0.337618 0.436826
vn -0.833784 -0.337618 0.436826
vn 0.534784 0.782948 0.317804
vn 0.534784 0.782948 0.317804
vn 0.534784 0.782948 0.317804
vn -0.112551 -0.838229 0.533578
vn -0.112551 -0.838229 0.533578
vn -0.112551 -0.838229 0.533578
vn -0.112551 -0.838229 0.533578
vn 0.147218 -0.695561 0.703223
vn 0.147218 -0.695561 0.703223
vn 0.147218 -0.695561 0.703223
vn 0.147218 -0.695561 0.703223
vn 0.608644 0.787381 -0.097893
vn 0.608644 0.787381 -0.097893
vn 0.608644 0.787381 -0.097893
vn 0.608644 0.787381 -0.097893
vn -0.777578 -0.281645 0.562182
vn -0.777578 -0.281645 0.562182
vn -0.777578 -0.281645 0.562182
vn -0.777578 -0.281645 0.562182
vn -0.014069 0.991855 0.126595
vn -0.014069 0.991855 0.126595
vn -0.014069 0.991855 0.126595
vn -0.014069 0.991855 0.126595
vn 0.647015 0.602739 0.466988
vn 0.647015 0.602739 0.466988
vn 0.647015 0.602739 0.466988
vn 0.647015 0.602739 0.466988
vn -0.511570 0.836186 0.197708
vn -0.511570 0.836186 0.197708
vn -0.511570 0.836186 0.197708
vn -0.511570 0.836186 0.197708
vn -0.669092 -0.419616 0.613383
vn -0.669092 -0.419616 0.613383
vn -0.669092 -0.419616 0.613383
vn -0.669092 -0.419616 0.613383
vn -0.216049 -0.633522 0.742949
vn -0.216049 -0.633522 0.742949
vn -0.216049 -0.633522 0.742949
vn -0.216049 -0.633522 0.742949
vn -0.337169 0.905164 0.258836
vn -0.337169 0.905164 0.258836
vn -0.337169 0.905164 0.258836
vn 0.418450 0.902150 0.104998
vn 0.418450 0.902150 0.104998
vn 0.418450 0.902150 0.104998
vn 0.418450 0.902150 0.104998
vn -0.949447 0.150666 0.275409
vn -0.949447 0.150666 0.275409
vn -0.949447 0.150666 0.275409
vn -0.949447 0.150666 0.275409
vn -0.102770 0.984102 0.144854
vn -0.102770 0.984101 0.144854
vn -0.102770 0.984102 0.144854
vn 0.520935 -0.839054 -0.156893
vn 0.520935 -0.839054 -0.156893
vn 0.520935 -0.839054 -0.156893
vn 0.520935 -0.839054 -0.156893
vn -0.742963 0.429515 0.513345
vn -0.742963 0.429515 0.513345
vn -0.742963 0.429515 0.513345
vn -0.742963 0.429515 0.513345
vn -0.455786 -0.199776 -0.867380
vn -0.455786 -0.199776 -0.867380
vn -0.455786 -0.199776 -0.867380
vn -0.455786 -0.199776 -0.867380
vn -0.092834 0.347321 0.933140
vn -0.092834 0.347321 0.933140
vn -0.092834 0.347321 0.933140
vn -0.092834 0.347321 0.933140
vn -0.774887 0.474925 0.417130
vn -0.774887 0.474925 0.417130
vn -0.774887 0.474925 0.417130
vn -0.774887 0.474925 0.417130
vn 0.219360 -0.589290 -0.777572
vn 0.219360 -0.589290 -0.777572
vn 0.219360 -0.589290 -0.777572
vn 0.219360 -0.589290 -0.777572
vn 0.508537 0.155472 0.846888
vn 0.508537 0.155472 0.846888
vn 0.508537 0.155472 0.846888
vn 0.508537 0.155472 0.846888
vn -0.160064 0.392757 0.905606
vn -0.160064 0.392757 0.905606
vn -0.160064 0.392757 0.905606
vn -0.160064 0.392757 0.905606
vn 0.666242 0.735395 0.123761
vn 0.666242 0.735395 0.123761
vn 0.666242 0.735395 0.123761
vn 0.666242 0.735395 0.123761
vn 0.011281 -0.145232 -0.989333
vn 0.011281 -0.145232 -0.989333
vn 0.011281 -0.145232 -0.989333
vn 0.011281 -0.145232 -0.989333
vn 0.748673 0.654838 0.103323
vn 0.748673 0.654838 0.103323
vn 0.748673 0.654838 0.103323
vn 0.748673 0.654838 0.103323
vn 0.539847 0.669732 0.509926
vn 0.539847 0.669732 0.509926
vn 0.539847 0.669732 0.509926
vn 0.539847 0.669732 0.509926
vn -0.460458 -0.886748 0.040707
vn -0.460458 -0.886748 0.040707
vn -0.460458 -0.886748 0.040707
vn -0.460458 -0.886748 0.040707
vn 0.734577 0.666084 0.129342
vn 0.734577 0.666084 0.129342
vn 0.734577 0.666083 0.129342
vn 0.734577 0.666084 0.129342
vn -0.644354 0.016466 0.764550
vn -0.644354 0.016466 0.764550
vn -0.644354 0.016466 0.764550
vn -0.644354 0.016466 0.764550
vn -0.749676 -0.632234 0.195617
vn -0.749676 -0.632234 0.195617
vn -0.749676 -0.632234 0.195617
vn -0.749676 -0.632234 0.195617
vn 0.200613 -0.912947 -0.355362
vn 0.200613 -0.912947 -0.355362
vn 0.200613 -0.912947 -0.355362
vn 0.200613 -0.912947 -0.355362
vn 0.492165 0.338903 0.801822
vn 0.492165 0.338903 0.801822
vn 0.492165 0.338903 0.801822
vn 0.492165 0.338903 0.801822
vn -0.135762 0.804883 0.577696
vn -0.135762 0.804883 0.577696
vn -0.135762 0.804883 0.577696
vn -0.135762 0.804883 0.577696
vn -0.861823 0.500902 0.079740
vn -0.861823 0.500902 0.079740
vn -0.861823 0.500903 0.079740
vn -0.861823 0.500903 0.079740
vn 0.150324 -0.882396 0.445848
vn 0.150324 -0.882396 0.445848
vn 0.150324 -0.882396 0.445848
vn -0.097093 -0.846395 0.523630
vn -0.097093 -0.846395 0.523630
vn -0.097093 -0.846395 0.523630
vn -0.995724 0.090564 0.018229
vn -0.995724 0.090564 0.018229
vn -0.995724 0.090564 0.018229
vn 0.995724 0.090564 0.018229
vn 0.995724 0.090564 0.018229
vn 0.995724 0.090564 0.018229
vn 0.048599 -0.572963 0.818139
vn 0.048599 -0.572963 0.818139
vn 0.048599 -0.572963 0.818139
vn -0.048599 -0.572963 0.818139
vn -0.048599 -0.572963 0.818139
vn -0.048599 -0.572963 0.818139
vn 0.000000 -0.625155 0.780501
vn 0.000000 -0.625155 0.780501
vn 0.000000 -0.625155 0.780501
vn 0.000000 -0.628199 0.778053
vn 0.000000 -0.628199 0.778053
vn 0.000000 -0.628199 0.778053
vn 0.000000 -0.628199 0.778053
vn -0.995756 0.024907 -0.088597
vn -0.995756 0.024907 -0.088597
vn -0.995756 0.024907 -0.088597
vn 0.995756 0.024907 -0.088597
vn 0.995756 0.024907 -0.088597
vn 0.995756 0.024907 -0.088597
vn 0.092649 -0.969142 0.228428
vn 0.092649 -0.969142 0.228428
vn 0.092649 -0.969142 0.228428
vn 0.092649 -0.969142 0.228428
vn -0.391323 -0.920161 -0.013050
vn -0.391323 -0.920161 -0.013050
vn -0.391323 -0.920161 -0.013050
s off
f 15/1/1 16/2/2 1/3/3 17/4/4
f 16/2/5 18/5/6 2/6/7 1/3/8
f 19/7/9 15/1/10 17/4/11 20/8/12
f 19/7/13 21/9/14 22/10/15 15/1/16
f 15/1/17 22/10/18 23/11/19 16/2/20
f 16/2/21 23/11/22 24/12/23 18/5/24
f 5/13/25 6/14/26 1/3/27 7/15/28
f 7/15/29 1/3/30 2/6/31 8/16/32
f 9/17/33 41/18/34 6/14/35 5/13/36
f 9/17/37 5/13/38 11/19/39 12/20/40
f 5/13/41 7/15/42 13/21/43 11/19/44
f 7/15/45 8/16/46 14/22/47 13/21/48
f 67/23/49 68/24/50 2/6/51 18/5/52
f 32/25/53 33/26/54 34/27/55 35/28/56
f 69/29/57 70/30/58 21/9/59 19/7/60
f 70/30/61 71/31/62 22/10/63 21/9/64
f 71/31/65 72/32/66 23/11/67 22/10/68
f 72/32/69 73/33/70 24/12/71 23/11/72
f 73/33/73 67/23/74 18/5/75 24/12/76
f 68/24/77 74/34/78 8/16/79 2/6/80
f 75/35/81 76/36/82 12/20/83 11/19/84
f 45/37/85 46/38/86 47/39/87 48/40/88
f 77/41/89 75/35/90 11/19/91 13/21/92
f 74/34/93 78/42/94 14/22/95 8/16/96
f 78/42/97 77/41/98 13/21/99 14/22/100
f 26/43/101 43/44/102 20/8/103 17/4/104
f 1/3/105 26/43/106 17/4/107
f 4/45/108 1/3/109 6/14/110
f 41/18/111 42/46/112 4/45/113 6/14/114
f 79/47/115 3/48/116 10/49/117
f 3/48/118 79/47/119 25/50/120
f 4/45/121 42/46/122 43/44/123 26/43/124
f 1/3/125 4/45/126 26/43/127
f 53/51/128 54/52/129 55/53/130 56/54/131
f 19/7/132 20/8/133 28/55/134
f 36/56/135 32/25/136 35/28/137
f 20/8/138 25/50/139 28/55/140
f 58/57/141 57/58/142 54/52/143 53/51/144
f 19/7/145 27/59/146 30/60/147 29/61/148
f 59/62/149 60/63/150 56/54/151 55/53/152
f 60/63/153 58/57/154 53/51/155 56/54/156
f 37/64/157 38/65/158 39/66/159 40/67/160
f 10/49/161 9/17/162 31/68/163
f 12/20/164 76/36/165 80/69/166 9/17/167
f 19/7/168 28/55/169 27/59/170
f 79/47/171 81/70/172 33/26/173 32/25/174
f 60/63/175 59/62/176 61/71/177 62/72/178
f 27/59/179 28/55/180 35/28/181 34/27/182
f 25/50/183 79/47/184 32/25/185 36/56/186
f 28/55/187 25/50/188 36/56/189 35/28/190
f 79/47/191 10/49/192 38/65/193 37/64/194
f 10/49/195 31/68/196 39/66/197 38/65/198
f 47/39/199 46/38/200 49/73/201 50/74/202
f 64/75/203 63/76/204 65/77/205 66/78/206
f 9/17/207 10/49/208 41/18/209
f 3/48/210 42/46/211 41/18/212 10/49/213
f 43/44/214 42/46/215 3/48/216 25/50/217
f 20/8/218 43/44/219 25/50/220
f 80/69/221 44/79/222 46/38/223 45/37/224
f 31/68/225 9/17/226 48/40/227 47/39/228
f 9/17/229 80/69/230 45/37/231 48/40/232
f 40/67/233 39/66/234 50/74/235 49/73/236
f 39/66/237 31/68/238 47/39/239 50/74/240
f 44/79/241 79/47/242 51/80/243 46/38/244
f 79/47/245 37/64/246 52/81/247 51/80/248
f 37/64/249 40/67/250 49/73/251 52/81/252
f 29/61/253 30/60/254 55/53/255 54/52/256
f 69/29/257 19/7/258 57/58/259 58/57/260
f 19/7/261 29/61/262 54/52/263 57/58/264
f 30/60/265 27/59/266 59/62/267 55/53/268
f 81/70/269 69/29/270 58/57/271 60/63/272
f 27/59/273 34/27/274 61/71/275 59/62/276
f 34/27/277 33/26/278 62/72/279 61/71/280
f 33/26/281 81/70/282 60/63/283 62/72/284
f 46/38/285 51/80/286 63/76/287 64/75/288
f 51/80/289 52/81/290 65/77/291 63/76/292
f 52/81/293 49/73/294 66/78/295 65/77/296
f 49/73/297 46/38/298 64/75/299 66/78/300
f 44/79/301 80/69/302 79/47/303
f 81/70/304 79/47/305 69/29/306
f 73/33/307 72/32/308 67/23/309
f 78/42/310 74/34/311 77/41/312
f 77/41/313 74/34/314 68/24/315
f 68/24/316 67/23/317 72/32/318
f 68/24/319 72/32/320 77/41/321
f 75/35/322 77/41/323 72/32/324 71/31/325
f 71/31/326 70/30/327 69/29/328
f 76/36/329 75/35/330 80/69/331
f 79/47/332 80/69/333 75/35/334 71/31/335
f 79/47/336 71/31/337 69/29/338
