# This file uses meters as units for non-parametric coordinates.

v -0.000122 14.264679 -13.471985
v -0.000122 4.714203 -12.601566
v -3.325806 21.061249 11.829987
v -6.432128 22.729187 -5.426588
v -14.452753 20.462494 -5.458384
v -8.020754 22.311554 -6.042581
v -13.238401 11.951294 -11.116009
v -11.044064 5.250397 -9.709606
v -12.763796 21.074066 6.460505
v -5.285034 22.158661 12.410603
v -13.818235 13.206482 -1.916492
v -13.426762 12.928009 2.112980
v -13.842287 9.888000 -4.597497
v -13.492918 4.602661 -3.642740
v 12.863770 21.071625 -4.046082
v 13.238163 11.951294 -11.116009
v 1.179321 25.311890 -6.721859
v 11.043825 5.250244 -9.709606
v 11.174927 20.426941 6.460505
v 2.388916 26.800842 5.633159
v 13.426514 12.928009 2.112978
v 13.817997 13.206482 -1.916492
v 13.842039 9.888000 -4.597497
v 13.508186 4.618225 -3.642776
v -2.604003 25.194397 13.005390
v -5.252686 24.346466 -6.137662
v 8.690796 19.819031 12.138758
v 1.779296 24.694214 11.758699
v 11.509886 18.077698 9.290890
v 11.211548 19.461060 8.784966
v 10.938969 19.370880 11.828451
v 11.237431 17.987366 12.334375
v -10.954590 19.259949 10.232811
v 1.625977 19.622498 15.195045
v 7.237916 18.128357 14.336987
v 7.161012 20.907898 14.765263
v 2.385011 25.029907 14.846649
v -0.561401 24.210205 15.288620
v -3.137085 18.680115 13.924122
v -6.107302 21.248322 14.365788
v -9.106808 19.715576 12.854691
v -7.995849 17.707214 13.629007
v -6.885009 23.387299 6.029449
v -5.054688 22.814331 5.858884
v -4.230347 26.058807 5.977669
v 10.849152 3.983002 -8.580523
v -0.000122 2.802582 -10.191851
v 10.492268 16.020203 6.771555
v 10.918570 10.612335 2.636815
v 11.364260 11.798859 -2.092652
v 11.426392 9.547272 -3.911061
v 10.954247 3.072662 -1.733868
v -10.847530 3.973083 -8.581667
v -11.364498 11.798859 -2.092652
v -10.913944 10.607452 2.636827
v -10.425024 16.259766 7.044311
v -8.865166 14.668884 10.991898
v -11.426640 9.547272 -3.911061
v -10.870237 2.992554 -1.734898
v 8.865166 14.668884 10.991898
v 0.000000 16.405334 12.154884
vt 0.051074 0.199213
vt 0.051074 0.199213
vt 0.051074 0.199213
vt 0.051074 0.199213
vt 0.051074 0.199213
vt 0.051074 0.199213
vt 0.051074 0.199213
vt 0.051074 0.199213
vt 0.051074 0.199213
vt 0.051074 0.199213
vt 0.051074 0.199213
vt 0.051074 0.199213
vt 0.051074 0.199213
vt 0.051074 0.199213
vt 0.051074 0.199213
vt 0.051074 0.199213
vt 0.051074 0.199213
vt 0.051074 0.199213
vt 0.051074 0.199213
vt 0.051074 0.199213
vt 0.051074 0.199213
vt 0.051074 0.199213
vt 0.051074 0.199213
vt 0.051074 0.199213
vt 0.051074 0.199213
vt 0.051074 0.199213
vt 0.051074 0.199213
vt 0.051074 0.199213
vt 0.051074 0.199213
vt 0.051074 0.199213
vt 0.051074 0.199213
vt 0.051074 0.199213
vt 0.051074 0.199213
vt 0.051074 0.199213
vt 0.051074 0.199213
vt 0.051074 0.199213
vt 0.051074 0.199213
vt 0.051074 0.199213
vt 0.051074 0.199213
vt 0.051074 0.199213
vt 0.051074 0.199213
vt 0.051074 0.199213
vt 0.051074 0.199213
vt 0.051074 0.199213
vt 0.051074 0.199213
vt 0.051074 0.199213
vt 0.051074 0.199213
vt 0.051074 0.199213
vt 0.051074 0.199213
vt 0.051074 0.199213
vt 0.051074 0.199213
vt 0.051074 0.199213
vt 0.051074 0.199213
vt 0.051074 0.199213
vt 0.051074 0.199213
vt 0.051074 0.199213
vt 0.051074 0.199213
vt 0.051074 0.199213
vt 0.051074 0.199213
vt 0.051074 0.199213
vt 0.051074 0.199213
vt 0.051074 0.199213
vt 0.051074 0.199213
vt 0.050234 0.197676
vt 0.050234 0.197676
vt 0.050234 0.197676
vt 0.050234 0.197676
vt 0.050234 0.197676
vt 0.050234 0.197676
vt 0.050234 0.197676
vt 0.050234 0.197676
vt 0.050234 0.197676
vt 0.050234 0.197676
vt 0.050234 0.197676
vt 0.050234 0.197676
vt 0.050234 0.197676
vt 0.050234 0.197676
vt 0.050234 0.197676
vt 0.050234 0.197676
vn 0.299671 0.531127 -0.792528
vn 0.299671 0.531127 -0.792528
vn 0.299671 0.531127 -0.792528
vn 0.299671 0.531127 -0.792528
vn 0.197104 -0.162074 -0.966893
vn 0.197104 -0.162074 -0.966893
vn 0.197104 -0.162074 -0.966893
vn 0.197104 -0.162074 -0.966893
vn 0.463290 0.885908 -0.023004
vn 0.463290 0.885908 -0.023004
vn 0.463290 0.885908 -0.023004
vn 0.463290 0.885908 -0.023004
vn 0.971877 0.181050 0.150588
vn 0.971877 0.181050 0.150588
vn 0.971877 0.181050 0.150588
vn 0.971877 0.181050 0.150588
vn 0.993067 0.090562 -0.074948
vn 0.993067 0.090562 -0.074948
vn 0.993067 0.090562 -0.074948
vn 0.993067 0.090562 -0.074948
vn 0.926739 -0.250884 -0.279664
vn 0.926739 -0.250884 -0.279664
vn 0.926739 -0.250884 -0.279664
vn 0.926739 -0.250884 -0.279664
vn -0.232851 0.519780 -0.821954
vn -0.232851 0.519780 -0.821954
vn -0.232851 0.519780 -0.821954
vn -0.232851 0.519780 -0.821954
vn -0.197105 -0.162076 -0.966892
vn -0.197105 -0.162076 -0.966892
vn -0.197105 -0.162076 -0.966892
vn -0.197105 -0.162076 -0.966892
vn -0.322275 0.946214 -0.028604
vn -0.322275 0.946214 -0.028604
vn -0.322275 0.946214 -0.028604
vn -0.322275 0.946214 -0.028604
vn -0.991573 -0.004940 0.129452
vn -0.991573 -0.004940 0.129452
vn -0.991573 -0.004940 0.129452
vn -0.991573 -0.004940 0.129452
vn -0.996597 -0.061959 -0.054361
vn -0.996597 -0.061959 -0.054361
vn -0.996597 -0.061959 -0.054361
vn -0.996597 -0.061959 -0.054361
vn -0.926738 -0.251630 -0.278996
vn -0.926738 -0.251630 -0.278996
vn -0.926738 -0.251630 -0.278996
vn -0.926738 -0.251630 -0.278996
vn 0.191369 -0.735388 -0.650063
vn 0.191369 -0.735388 -0.650063
vn 0.191369 -0.735388 -0.650063
vn 0.191369 -0.735388 -0.650063
vn 0.081210 -0.016490 0.996561
vn 0.081210 -0.016490 0.996561
vn 0.081210 -0.016490 0.996561
vn 0.081210 -0.016490 0.996561
vn 0.726218 -0.265947 0.633940
vn 0.726218 -0.265947 0.633940
vn 0.726218 -0.265947 0.633940
vn 0.726218 -0.265947 0.633940
vn 0.594976 -0.800052 -0.076947
vn 0.594976 -0.800052 -0.076947
vn 0.594976 -0.800052 -0.076947
vn 0.594976 -0.800052 -0.076947
vn 0.292913 -0.598073 0.745997
vn 0.292913 -0.598073 0.745997
vn 0.292913 -0.598073 0.745997
vn 0.292913 -0.598073 0.745997
vn 0.387728 0.212577 0.896927
vn 0.387728 0.212577 0.896927
vn 0.387728 0.212577 0.896927
vn 0.387728 0.212577 0.896927
vn 0.576915 -0.789587 -0.209098
vn 0.576915 -0.789587 -0.209098
vn 0.576915 -0.789587 -0.209098
vn 0.576915 -0.789587 -0.209098
vn -0.191198 -0.734323 -0.651316
vn -0.191198 -0.734323 -0.651316
vn -0.191198 -0.734323 -0.651316
vn -0.191198 -0.734323 -0.651316
vn -0.595097 -0.799953 -0.077035
vn -0.595097 -0.799953 -0.077035
vn -0.595097 -0.799953 -0.077035
vn -0.595097 -0.799953 -0.077035
vn -0.894550 -0.389988 0.218382
vn -0.894550 -0.389988 0.218382
vn -0.894550 -0.389988 0.218382
vn -0.894550 -0.389988 0.218382
vn -0.292913 -0.598072 0.745997
vn -0.292913 -0.598072 0.745997
vn -0.292913 -0.598072 0.745997
vn -0.292913 -0.598072 0.745997
vn -0.579824 -0.787153 -0.210225
vn -0.579823 -0.787153 -0.210225
vn -0.579823 -0.787153 -0.210225
vn -0.579823 -0.787153 -0.210225
vn -0.382611 0.208727 0.900023
vn -0.382611 0.208727 0.900023
vn -0.382611 0.208727 0.900023
vn -0.382611 0.208727 0.900023
vn -0.136968 0.983736 -0.116203
vn -0.136968 0.983736 -0.116203
vn -0.136968 0.983736 -0.116203
vn -0.136968 0.983736 -0.116203
vn -0.155005 0.527092 -0.835552
vn -0.155005 0.527092 -0.835552
vn -0.155005 0.527092 -0.835552
vn 0.079488 0.717825 -0.691671
vn 0.079488 0.717825 -0.691671
vn 0.079488 0.717825 -0.691671
vn 0.052494 0.997094 -0.055205
vn 0.052494 0.997094 -0.055205
vn 0.052494 0.997094 -0.055205
vn 0.052494 0.997094 -0.055205
vn 0.451639 0.378978 0.807712
vn 0.451639 0.378978 0.807712
vn 0.451639 0.378978 0.807712
vn -0.362958 -0.195695 0.911024
vn -0.362958 -0.195695 0.911024
vn -0.362958 -0.195695 0.911024
vn -0.919823 0.386978 0.064604
vn -0.919823 0.386978 0.064604
vn -0.919823 0.386978 0.064604
vn -0.919823 0.386978 0.064604
vn -0.672033 0.173581 -0.719890
vn -0.672033 0.173581 -0.719890
vn -0.672033 0.173581 -0.719890
vn 0.965614 0.242527 0.093654
vn 0.965614 0.242527 0.093654
vn 0.965614 0.242527 0.093654
vn 0.965614 0.242527 0.093654
vn 0.535944 0.780531 0.321769
vn 0.535944 0.780531 0.321769
vn 0.535944 0.780531 0.321769
vn 0.136030 0.044671 0.989697
vn 0.136030 0.044671 0.989697
vn 0.136030 0.044671 0.989697
vn 0.200671 0.920091 0.336398
vn 0.200671 0.920091 0.336398
vn 0.200671 0.920091 0.336398
vn 0.977091 -0.091938 -0.191942
vn 0.977091 -0.091938 -0.191942
vn 0.977091 -0.091938 -0.191942
vn 0.977091 -0.091938 -0.191942
vn 0.386612 0.901530 0.194356
vn 0.386612 0.901530 0.194356
vn 0.386612 0.901530 0.194356
vn 0.386612 0.901530 0.194356
vn -0.152728 -0.107425 0.982412
vn -0.152728 -0.107425 0.982412
vn -0.152728 -0.107425 0.982412
vn -0.152728 -0.107425 0.982412
vn 0.809161 -0.579597 0.096570
vn 0.809161 -0.579597 0.096570
vn 0.809161 -0.579597 0.096570
vn 0.809161 -0.579597 0.096570
vn -0.192313 -0.100542 0.976170
vn -0.192313 -0.100542 0.976170
vn -0.192313 -0.100542 0.976170
vn -0.192313 -0.100542 0.976170
vn -0.537433 0.629919 0.560685
vn -0.537433 0.629919 0.560685
vn -0.537433 0.629919 0.560685
vn -0.671859 -0.356021 0.649504
vn -0.671859 -0.356021 0.649504
vn -0.671859 -0.356021 0.649504
vn -0.671859 -0.356021 0.649504
vn 0.534795 0.782948 0.317785
vn 0.534795 0.782948 0.317785
vn 0.534795 0.782948 0.317785
vn -0.053269 -0.690185 0.721670
vn -0.053269 -0.690185 0.721670
vn -0.053269 -0.690185 0.721670
vn -0.053269 -0.690185 0.721670
vn 0.857217 -0.074063 0.509601
vn 0.857217 -0.074063 0.509601
vn 0.857217 -0.074063 0.509601
vn 0.857217 -0.074063 0.509601
vn 0.608642 0.787387 -0.097867
vn 0.608642 0.787387 -0.097867
vn 0.608642 0.787387 -0.097867
vn 0.608642 0.787386 -0.097867
vn -0.720941 -0.302244 0.623612
vn -0.720941 -0.302244 0.623612
vn -0.720941 -0.302244 0.623612
vn -0.720941 -0.302244 0.623612
vn -0.014051 0.991844 0.126680
vn -0.014051 0.991844 0.126680
vn -0.014051 0.991844 0.126680
vn -0.014051 0.991844 0.126680
vn 0.647011 0.602720 0.467017
vn 0.647011 0.602720 0.467017
vn 0.647011 0.602720 0.467017
vn 0.647011 0.602720 0.467017
vn -0.511567 0.836192 0.197691
vn -0.511567 0.836192 0.197691
vn -0.511567 0.836192 0.197691
vn -0.511567 0.836192 0.197691
vn -0.783748 -0.247746 0.569527
vn -0.783748 -0.247746 0.569527
vn -0.783748 -0.247746 0.569527
vn -0.783748 -0.247746 0.569527
vn 0.041226 -0.627339 0.777654
vn 0.041226 -0.627339 0.777654
vn 0.041226 -0.627339 0.777654
vn 0.041226 -0.627339 0.777654
vn -0.337191 0.905158 0.258826
vn -0.337191 0.905158 0.258826
vn -0.337191 0.905158 0.258826
vn 0.418465 0.902144 0.104995
vn 0.418465 0.902144 0.104995
vn 0.418465 0.902144 0.104995
vn 0.418465 0.902144 0.104995
vn -0.949448 0.150666 0.275408
vn -0.949448 0.150666 0.275408
vn -0.949447 0.150666 0.275408
vn -0.949448 0.150666 0.275408
vn -0.102782 0.984104 0.144831
vn -0.102782 0.984104 0.144831
vn -0.102782 0.984104 0.144831
vn 0.227861 -0.868571 -0.440072
vn 0.227861 -0.868571 -0.440072
vn 0.227861 -0.868571 -0.440072
vn -0.142150 -0.937819 0.316683
vn -0.142150 -0.937819 0.316683
vn -0.142150 -0.937819 0.316683
vn -0.014931 -0.950579 -0.310124
vn -0.014931 -0.950579 -0.310124
vn -0.014931 -0.950579 -0.310124
vn -0.995439 -0.005662 -0.095227
vn -0.995439 -0.005662 -0.095227
vn -0.995439 -0.005662 -0.095227
vn 0.995197 -0.010160 -0.097367
vn 0.995197 -0.010160 -0.097367
vn 0.995197 -0.010160 -0.097367
vn 0.995819 0.089902 0.016177
vn 0.995819 0.089902 0.016177
vn 0.995819 0.089902 0.016177
vn -0.996336 0.081439 0.026122
vn -0.996336 0.081439 0.026122
vn -0.996336 0.081439 0.026122
vn -0.002229 -0.900702 0.434431
vn -0.002229 -0.900702 0.434431
vn -0.002229 -0.900702 0.434431
vn -0.002229 -0.900702 0.434431
vn 0.000000 -0.628299 0.777972
vn 0.000000 -0.628299 0.777972
vn 0.000000 -0.628299 0.777972
vn 0.000000 -0.628299 0.777972
vn 0.012169 -0.670322 0.741971
vn 0.012169 -0.670322 0.741971
vn 0.012169 -0.670322 0.741971
vn 0.012169 -0.670322 0.741971
vn -0.044414 -0.639485 0.767520
vn -0.044414 -0.639485 0.767520
vn -0.044414 -0.639485 0.767520
s off
f 15/1/1 16/2/2 1/3/3 17/4/4
f 16/2/5 18/5/6 2/6/7 1/3/8
f 19/7/9 15/1/10 17/4/11 20/8/12
f 19/7/13 21/9/14 22/10/15 15/1/16
f 15/1/17 22/10/18 23/11/19 16/2/20
f 16/2/21 23/11/22 24/12/23 18/5/24
f 5/13/25 6/14/26 1/3/27 7/15/28
f 7/15/29 1/3/30 2/6/31 8/16/32
f 9/17/33 43/18/34 6/14/35 5/13/36
f 9/17/37 5/13/38 11/19/39 12/20/40
f 5/13/41 7/15/42 13/21/43 11/19/44
f 7/15/45 8/16/46 14/22/47 13/21/48
f 46/23/49 47/24/50 2/6/51 18/5/52
f 34/25/53 35/26/54 36/27/55 37/28/56
f 48/29/57 49/30/58 21/9/59 19/7/60
f 49/30/61 50/31/62 22/10/63 21/9/64
f 50/31/65 51/32/66 23/11/67 22/10/68
f 51/32/69 52/33/70 24/12/71 23/11/72
f 52/33/73 46/23/74 18/5/75 24/12/76
f 47/24/77 53/34/78 8/16/79 2/6/80
f 54/35/81 55/36/82 12/20/83 11/19/84
f 56/37/85 57/38/86 33/39/87 9/17/88
f 58/40/89 54/35/90 11/19/91 13/21/92
f 53/34/93 59/41/94 14/22/95 8/16/96
f 59/41/97 58/40/98 13/21/99 14/22/100
f 26/42/101 45/43/102 20/8/103 17/4/104
f 1/3/105 26/42/106 17/4/107
f 4/44/108 1/3/109 6/14/110
f 43/18/111 44/45/112 4/44/113 6/14/114
f 61/46/115 3/47/116 10/48/117
f 3/47/118 61/46/119 25/49/120
f 4/44/121 44/45/122 45/43/123 26/42/124
f 1/3/125 4/44/126 26/42/127
f 29/50/128 30/51/129 31/52/130 32/53/131
f 19/7/132 20/8/133 28/54/134
f 38/55/135 34/25/136 37/28/137
f 20/8/138 25/49/139 28/54/140
f 48/29/141 19/7/142 30/51/143 29/50/144
f 19/7/145 27/56/146 31/52/147 30/51/148
f 27/56/149 60/57/150 32/53/151 31/52/152
f 60/57/153 48/29/154 29/50/155 32/53/156
f 39/58/157 40/59/158 41/60/159 42/61/160
f 10/48/161 9/17/162 33/39/163
f 12/20/164 55/36/165 56/37/166 9/17/167
f 19/7/168 28/54/169 27/56/170
f 61/46/171 60/57/172 35/26/173 34/25/174
f 60/57/175 27/56/176 36/27/177 35/26/178
f 27/56/179 28/54/180 37/28/181 36/27/182
f 25/49/183 61/46/184 34/25/185 38/55/186
f 28/54/187 25/49/188 38/55/189 37/28/190
f 61/46/191 10/48/192 40/59/193 39/62/194
f 10/48/195 33/39/196 41/60/197 40/59/198
f 33/39/199 57/38/200 42/61/201 41/60/202
f 57/38/203 61/46/204 39/63/205 42/61/206
f 9/17/207 10/48/208 43/18/209
f 3/47/210 44/45/211 43/18/212 10/48/213
f 45/43/214 44/45/215 3/47/216 25/49/217
f 20/8/218 45/43/219 25/49/220
f 57/64/221 56/65/222 61/66/223
f 60/67/224 61/66/225 56/65/226
f 48/68/227 60/67/228 56/65/229
f 49/69/230 48/68/231 50/70/232
f 56/65/233 55/71/234 54/72/235
f 58/73/236 59/74/237 53/75/238
f 46/76/239 52/77/240 51/78/241
f 50/70/242 48/68/243 56/65/244 54/72/245
f 51/78/246 50/70/247 54/72/248 58/73/249
f 53/75/250 47/79/251 51/78/252 58/73/253
f 47/79/254 46/76/255 51/78/256
