# This file uses meters as units for non-parametric coordinates.

v 0.000076 12.420044 14.622965
v 0.000076 12.233887 12.689486
v -8.848996 6.882172 13.856363
v -8.608079 12.282867 13.488636
v -8.608079 12.096710 12.121544
v -8.848996 6.696014 12.489262
v -5.440168 12.420044 13.900185
v -5.440168 12.233887 12.324657
v -5.440168 5.602417 14.407015
v -5.440168 5.416412 12.831488
v -9.953146 9.582520 13.519812
v -9.953146 9.396515 12.223387
v -0.691590 10.993958 14.635344
v -0.691590 10.807953 12.761641
v -1.531763 6.337433 13.067369
v -1.531763 6.523590 14.880867
v -1.588933 11.849213 14.463854
v -2.003438 11.551666 14.434690
v -5.423965 12.059021 13.930693
v -1.398988 10.792542 14.586363
v -2.211783 7.140350 14.799242
v -5.423965 6.322327 14.381151
v -8.237586 7.140350 13.894415
v -9.191561 9.538727 13.592453
v -8.237586 11.937103 13.561993
v -10.546198 12.090912 -3.228517
v -12.094908 11.795654 -3.228517
v -10.546198 10.312958 -3.228517
v -12.094908 10.697479 -3.228517
v -10.158281 11.801758 12.681065
v -10.158281 10.703278 12.696657
v -9.682169 10.319061 11.903133
v 0.000076 10.993958 14.635344
v 0.000076 10.807953 12.761641
v 8.849149 6.882172 13.856363
v 8.608232 12.282867 13.488636
v 8.608232 12.096710 12.121544
v 8.849149 6.696014 12.489262
v 5.440321 12.420044 13.900185
v 5.440321 12.233887 12.324657
v 5.440321 5.602417 14.407015
v 5.440321 5.416412 12.831488
v 9.953299 9.582520 13.519812
v 9.953299 9.396515 12.223387
v 0.691743 10.993958 14.635344
v 0.691743 10.807953 12.761641
v 1.531916 6.337433 13.067369
v 1.531916 6.523590 14.880867
v 1.589086 11.849213 14.463854
v 2.003591 11.551666 14.434690
v 5.424118 12.059021 13.930693
v 1.399140 10.792542 14.586363
v 2.211936 7.140350 14.799242
v 5.424118 6.322327 14.381151
v 8.237739 7.140350 13.894415
v 9.191713 9.538727 13.592453
v 8.237739 11.937103 13.561993
v 10.546350 12.090912 -3.228517
v 12.095060 11.795654 -3.228517
v 10.546350 10.312958 -3.228517
v 12.095060 10.697479 -3.228517
v 10.158434 11.801758 12.681065
v 10.158434 10.703278 12.696657
v 9.682322 10.319061 11.903133
vt 0.051723 0.445755
vt 0.051723 0.445755
vt 0.051723 0.445755
vt 0.051723 0.445755
vt 0.051723 0.445755
vt 0.051723 0.445755
vt 0.051723 0.445755
vt 0.051723 0.445755
vt 0.051723 0.445755
vt 0.051723 0.445755
vt 0.051723 0.445755
vt 0.051723 0.445755
vt 0.051723 0.445755
vt 0.051723 0.445755
vt 0.051723 0.445755
vt 0.051723 0.445755
vt 0.051723 0.445755
vt 0.051723 0.445755
vt 0.051723 0.445755
vt 0.173846 0.452868
vt 0.173846 0.452868
vt 0.173846 0.452868
vt 0.173846 0.452868
vt 0.173846 0.452868
vt 0.173846 0.452868
vt 0.173846 0.452868
vt 0.173846 0.452868
vt 0.051723 0.445755
vt 0.051723 0.445755
vt 0.051723 0.445755
vt 0.051723 0.445755
vt 0.051723 0.445755
vt 0.051723 0.445755
vt 0.051723 0.445755
vt 0.051723 0.445755
vt 0.051723 0.445755
vt 0.051723 0.445755
vt 0.051723 0.445755
vt 0.051723 0.445755
vt 0.051723 0.445755
vt 0.051723 0.445755
vt 0.051723 0.445755
vt 0.051723 0.445755
vt 0.051723 0.445755
vt 0.051723 0.445755
vt 0.051723 0.445755
vt 0.051723 0.445755
vt 0.051723 0.445755
vt 0.051723 0.445755
vt 0.051723 0.445755
vt 0.051723 0.445755
vt 0.051723 0.445755
vt 0.051723 0.445755
vt 0.051723 0.445755
vt 0.051723 0.445755
vt 0.051723 0.445755
vt 0.051723 0.445755
vt 0.051723 0.445755
vt 0.051723 0.445755
vt 0.051723 0.445755
vt 0.051723 0.445755
vt 0.051723 0.445755
vt 0.051723 0.445755
vt 0.051723 0.445755
vt 0.051723 0.445755
vt 0.051723 0.445755
vt 0.051723 0.445755
vt 0.051723 0.445755
vt 0.051723 0.445755
vt 0.051723 0.445755
vt 0.051723 0.445755
vt 0.051723 0.445755
vt 0.051723 0.445755
vt 0.051723 0.445755
vt 0.051723 0.445755
vt 0.173846 0.452868
vt 0.173846 0.452868
vt 0.173846 0.452868
vt 0.173846 0.452868
vt 0.173846 0.452868
vt 0.173846 0.452868
vt 0.173846 0.452868
vt 0.173846 0.452868
vt 0.051723 0.445755
vt 0.051723 0.445755
vt 0.051723 0.445755
vt 0.051723 0.445755
vt 0.051723 0.445755
vt 0.051723 0.445755
vt 0.051723 0.445755
vt 0.051723 0.445755
vt 0.051723 0.445755
vt 0.051723 0.445755
vt 0.051723 0.445755
vt 0.051723 0.445755
vt 0.051723 0.445755
vt 0.051723 0.445755
vt 0.051723 0.445755
vt 0.051723 0.445755
vt 0.051723 0.445755
vt 0.051723 0.445755
vt 0.051723 0.445755
vt 0.051723 0.445755
vt 0.051723 0.445755
vt 0.051723 0.445755
vt 0.051723 0.445755
vt 0.051723 0.445755
vt 0.051723 0.445755
vt 0.051723 0.445755
vt 0.051723 0.445755
vt 0.051723 0.445755
vt 0.051723 0.445755
vn -0.131167 0.089939 0.987272
vn -0.131167 0.089939 0.987272
vn -0.131167 0.089939 0.987272
vn -0.362429 -0.924646 0.116942
vn -0.362429 -0.924646 0.116942
vn -0.362429 -0.924646 0.116942
vn -0.362429 -0.924646 0.116942
vn 0.010546 0.994363 -0.105504
vn 0.010546 0.994363 -0.105504
vn 0.010546 0.994363 -0.105504
vn 0.010546 0.994363 -0.105504
vn 0.066682 -0.082661 -0.994344
vn 0.067134 -0.081182 -0.994436
vn 0.070988 -0.075455 -0.994619
vn 0.067134 -0.081182 -0.994436
vn 0.073902 -0.076262 -0.994345
vn 0.070988 -0.075455 -0.994619
vn 0.073902 -0.076262 -0.994345
vn 0.075087 -0.073929 -0.994433
vn 0.070988 -0.075455 -0.994619
vn 0.075087 -0.073929 -0.994433
vn 0.070451 -0.072936 -0.994845
vn 0.070988 -0.075455 -0.994619
vn 0.070451 -0.072936 -0.994845
vn 0.066790 -0.070710 -0.995258
vn 0.070988 -0.075455 -0.994619
vn 0.066790 -0.070710 -0.995258
vn 0.066879 -0.070852 -0.995242
vn 0.070988 -0.075455 -0.994619
vn -0.030767 0.991621 -0.125465
vn -0.030767 0.991621 -0.125465
vn -0.030767 0.991621 -0.125465
vn -0.030767 0.991621 -0.125465
vn 0.982832 -0.183571 0.018528
vn 0.982832 -0.183571 0.018528
vn 0.982832 -0.183571 0.018528
vn 0.982832 -0.183571 0.018528
vn -0.926380 -0.372966 0.052113
vn -0.926380 -0.372966 0.052113
vn -0.926380 -0.372966 0.052113
vn -0.926380 -0.372966 0.052113
vn 0.000000 -0.995109 0.098785
vn 0.000000 -0.995109 0.098785
vn 0.000000 -0.995109 0.098785
vn 0.000000 -0.995109 0.098785
vn 0.218910 -0.969914 0.106510
vn 0.218910 -0.969915 0.106510
vn 0.218910 -0.969914 0.106510
vn 0.218910 -0.969915 0.106510
vn -0.132432 0.065237 0.989043
vn -0.135251 0.069544 0.988368
vn -0.140796 0.078155 0.986949
vn -0.135251 0.069544 0.988368
vn -0.144094 0.075148 0.986706
vn -0.140796 0.078155 0.986949
vn -0.144094 0.075148 0.986706
vn -0.148048 0.077419 0.985945
vn -0.140796 0.078155 0.986949
vn -0.148048 0.077419 0.985945
vn -0.142821 0.080916 0.986435
vn -0.140796 0.078155 0.986949
vn -0.142821 0.080916 0.986435
vn -0.133293 0.087473 0.987209
vn -0.140796 0.078155 0.986949
vn -0.140796 0.078155 0.986949
vn -0.133293 0.087473 0.987209
vn -0.131736 0.092303 0.986978
vn -0.132811 0.082341 0.987715
vn -0.132811 0.082341 0.987715
vn -0.132811 0.082341 0.987715
vn -0.132811 0.082341 0.987715
vn -0.111041 0.094736 0.989290
vn -0.111041 0.094736 0.989290
vn -0.111041 0.094736 0.989290
vn -0.111041 0.094736 0.989290
vn -0.072430 0.070885 0.994851
vn -0.072430 0.070885 0.994851
vn -0.072430 0.070885 0.994851
vn -0.072430 0.070885 0.994851
vn -0.128146 0.016102 0.991625
vn -0.128146 0.016102 0.991625
vn -0.128146 0.016102 0.991625
vn -0.128146 0.016102 0.991625
vn -0.138742 0.076724 0.987352
vn -0.138742 0.076724 0.987352
vn -0.138742 0.076724 0.987352
vn -0.138742 0.076724 0.987352
vn -0.093468 0.086482 0.991859
vn -0.093468 0.086482 0.991859
vn -0.093468 0.086482 0.991859
vn -0.093468 0.086482 0.991859
vn -0.107221 0.060343 0.992402
vn -0.107221 0.060343 0.992402
vn -0.107221 0.060343 0.992402
vn -0.107221 0.060343 0.992402
vn -0.132111 0.072990 0.988544
vn -0.132111 0.072990 0.988544
vn -0.132111 0.072990 0.988544
vn -0.132111 0.072990 0.988544
vn 0.000000 -0.050537 -0.998722
vn 0.000000 -0.050537 -0.998722
vn 0.000000 -0.050537 -0.998722
vn 0.000000 0.008680 0.999962
vn 0.000000 0.008680 0.999962
vn 0.000000 0.008680 0.999962
vn -0.230820 0.964099 -0.131282
vn -0.230820 0.964099 -0.131282
vn -0.230820 0.964099 -0.131282
vn 0.000000 0.000000 -1.000000
vn 0.000000 0.000000 -1.000000
vn 0.000000 0.000000 -1.000000
vn 0.000000 0.000000 -1.000000
vn -0.986296 -0.163315 0.023432
vn -0.986296 -0.163315 0.023432
vn -0.986296 -0.163315 0.023432
vn -0.992679 0.000857 0.120776
vn -0.992679 0.000857 0.120776
vn -0.992679 0.000857 0.120776
vn -0.992679 0.000857 0.120776
vn 0.955067 -0.283123 -0.087688
vn 0.955067 -0.283123 -0.087688
vn 0.955067 -0.283123 -0.087688
vn 0.955067 -0.283123 -0.087688
vn -0.616912 0.227708 0.753372
vn -0.616912 0.227708 0.753372
vn -0.616912 0.227708 0.753372
vn -0.616912 0.227708 0.753372
vn -0.343991 -0.938449 0.031380
vn -0.343991 -0.938449 0.031380
vn -0.343991 -0.938449 0.031380
vn -0.343991 -0.938449 0.031380
vn -0.842420 0.061622 -0.535286
vn -0.842420 0.061622 -0.535286
vn -0.842420 0.061622 -0.535286
vn 0.764720 -0.399990 -0.505185
vn 0.764720 -0.399990 -0.505185
vn 0.764720 -0.399990 -0.505185
vn -0.183156 0.982830 0.022329
vn -0.183156 0.982830 0.022329
vn -0.183156 0.982830 0.022329
vn -0.183156 0.982830 0.022329
vn -0.123776 0.068626 0.989934
vn -0.123776 0.068626 0.989934
vn -0.123776 0.068626 0.989934
vn 0.131168 0.089939 0.987272
vn 0.131168 0.089939 0.987272
vn 0.131168 0.089939 0.987272
vn 0.362429 -0.924646 0.116942
vn 0.362429 -0.924646 0.116942
vn 0.362429 -0.924646 0.116942
vn 0.362429 -0.924646 0.116942
vn -0.010546 0.994363 -0.105504
vn -0.010546 0.994363 -0.105504
vn -0.010546 0.994363 -0.105504
vn -0.010546 0.994363 -0.105504
vn -0.066682 -0.082661 -0.994344
vn -0.070989 -0.075455 -0.994619
vn -0.067134 -0.081182 -0.994436
vn -0.067134 -0.081182 -0.994436
vn -0.070989 -0.075455 -0.994619
vn -0.073901 -0.076262 -0.994345
vn -0.073901 -0.076262 -0.994345
vn -0.070989 -0.075455 -0.994619
vn -0.075087 -0.073929 -0.994433
vn -0.075087 -0.073929 -0.994433
vn -0.070989 -0.075455 -0.994619
vn -0.070451 -0.072936 -0.994845
vn -0.070451 -0.072936 -0.994845
vn -0.070989 -0.075455 -0.994619
vn -0.066790 -0.070710 -0.995258
vn -0.070989 -0.075455 -0.994619
vn -0.066879 -0.070852 -0.995242
vn -0.066790 -0.070710 -0.995258
vn 0.030767 0.991621 -0.125465
vn 0.030767 0.991621 -0.125465
vn 0.030767 0.991621 -0.125465
vn 0.030767 0.991621 -0.125465
vn -0.982832 -0.183571 0.018528
vn -0.982832 -0.183571 0.018528
vn -0.982832 -0.183571 0.018528
vn -0.982832 -0.183571 0.018528
vn 0.926380 -0.372966 0.052113
vn 0.926380 -0.372966 0.052113
vn 0.926380 -0.372966 0.052113
vn 0.926380 -0.372966 0.052113
vn 0.000000 -0.995109 0.098785
vn 0.000000 -0.995109 0.098785
vn 0.000000 -0.995109 0.098785
vn 0.000000 -0.995109 0.098785
vn -0.218910 -0.969914 0.106510
vn -0.218910 -0.969915 0.106510
vn -0.218910 -0.969914 0.106510
vn -0.218910 -0.969915 0.106510
vn 0.132432 0.065237 0.989043
vn 0.140796 0.078155 0.986949
vn 0.135251 0.069544 0.988368
vn 0.135251 0.069544 0.988368
vn 0.140796 0.078155 0.986949
vn 0.144094 0.075148 0.986707
vn 0.144094 0.075148 0.986707
vn 0.140796 0.078155 0.986949
vn 0.148048 0.077419 0.985945
vn 0.148048 0.077419 0.985945
vn 0.140796 0.078155 0.986949
vn 0.142821 0.080916 0.986435
vn 0.142821 0.080916 0.986435
vn 0.140796 0.078155 0.986949
vn 0.133293 0.087473 0.987209
vn 0.140796 0.078155 0.986949
vn 0.131737 0.092303 0.986978
vn 0.133293 0.087473 0.987209
vn 0.132811 0.082341 0.987715
vn 0.132811 0.082341 0.987715
vn 0.132811 0.082341 0.987715
vn 0.132811 0.082341 0.987715
vn 0.111041 0.094736 0.989290
vn 0.111041 0.094736 0.989290
vn 0.111041 0.094736 0.989290
vn 0.111041 0.094736 0.989290
vn 0.072430 0.070885 0.994851
vn 0.072430 0.070885 0.994851
vn 0.072430 0.070885 0.994851
vn 0.072430 0.070885 0.994851
vn 0.128146 0.016102 0.991625
vn 0.128146 0.016102 0.991625
vn 0.128146 0.016102 0.991625
vn 0.128146 0.016102 0.991625
vn 0.138742 0.076724 0.987352
vn 0.138742 0.076724 0.987352
vn 0.138742 0.076724 0.987352
vn 0.138742 0.076724 0.987352
vn 0.093469 0.086482 0.991859
vn 0.093469 0.086482 0.991859
vn 0.093469 0.086482 0.991859
vn 0.093469 0.086482 0.991859
vn 0.107221 0.060343 0.992402
vn 0.107221 0.060343 0.992402
vn 0.107221 0.060343 0.992402
vn 0.107221 0.060343 0.992402
vn 0.132111 0.072990 0.988544
vn 0.132111 0.072990 0.988544
vn 0.132111 0.072990 0.988544
vn 0.132111 0.072990 0.988544
vn 0.000000 -0.050537 -0.998722
vn 0.000000 -0.050537 -0.998722
vn 0.000000 -0.050537 -0.998722
vn 0.000000 0.008680 0.999962
vn 0.000000 0.008680 0.999962
vn 0.000000 0.008680 0.999962
vn 0.230820 0.964099 -0.131282
vn 0.230820 0.964099 -0.131282
vn 0.230820 0.964099 -0.131282
vn 0.000000 0.000000 -1.000000
vn 0.000000 0.000000 -1.000000
vn 0.000000 0.000000 -1.000000
vn 0.000000 0.000000 -1.000000
vn 0.986296 -0.163314 0.023432
vn 0.986296 -0.163314 0.023432
vn 0.986296 -0.163314 0.023432
vn 0.992679 0.000858 0.120776
vn 0.992679 0.000858 0.120776
vn 0.992679 0.000858 0.120776
vn 0.992679 0.000858 0.120776
vn -0.955067 -0.283123 -0.087688
vn -0.955067 -0.283123 -0.087688
vn -0.955067 -0.283123 -0.087688
vn -0.955067 -0.283123 -0.087688
vn 0.616912 0.227707 0.753371
vn 0.616912 0.227707 0.753371
vn 0.616912 0.227707 0.753371
vn 0.616912 0.227707 0.753371
vn 0.343990 -0.938449 0.031380
vn 0.343990 -0.938449 0.031380
vn 0.343990 -0.938449 0.031380
vn 0.343990 -0.938449 0.031380
vn 0.842420 0.061622 -0.535286
vn 0.842420 0.061622 -0.535286
vn 0.842420 0.061622 -0.535286
vn -0.764720 -0.399990 -0.505185
vn -0.764720 -0.399990 -0.505185
vn -0.764720 -0.399990 -0.505185
vn 0.183156 0.982830 0.022329
vn 0.183156 0.982830 0.022329
vn 0.183156 0.982830 0.022329
vn 0.183156 0.982830 0.022329
vn 0.123778 0.068626 0.989934
vn 0.123778 0.068626 0.989934
vn 0.123778 0.068626 0.989934
s off
f 1/1/1 7/2/2 17/3/3
f 6/4/4 10/5/5 9/6/6 3/7/7
f 2/8/8 8/9/9 7/2/10 1/1/11
f 2/8/12 14/10/13 8/9/14
f 14/10/15 15/11/16 8/9/17
f 15/11/18 10/5/19 8/9/20
f 10/5/21 6/4/22 8/9/23
f 6/4/24 12/12/25 8/9/26
f 12/12/27 5/13/28 8/9/29
f 8/9/30 5/13/31 4/14/32 7/2/33
f 13/15/34 16/16/35 15/11/36 14/10/37
f 3/7/38 11/17/39 12/12/40 6/4/41
f 14/10/42 34/18/43 33/19/44 13/15/45
f 16/16/46 9/6/47 10/5/48 15/11/49
f 25/20/50 24/21/51 19/22/52
f 24/21/53 23/23/54 19/22/55
f 23/23/56 22/24/57 19/22/58
f 22/24/59 21/25/60 19/22/61
f 21/25/62 20/26/63 19/22/64
f 19/22/65 20/26/66 18/27/67
f 7/2/68 19/28/69 18/29/70 17/3/71
f 17/3/72 18/29/73 20/30/74 13/15/75
f 13/15/76 20/30/77 21/31/78 16/16/79
f 16/16/80 21/31/81 22/32/82 9/6/83
f 9/6/84 22/32/85 23/33/86 3/7/87
f 3/7/88 23/33/89 24/34/90 11/17/91
f 11/17/92 24/34/93 25/35/94 4/14/95
f 4/14/96 25/35/97 19/28/98 7/2/99
f 14/10/100 2/8/101 34/18/102
f 1/36/103 13/15/104 33/19/105
f 5/37/106 30/38/107 4/39/108
f 26/40/109 28/41/110 29/42/111 27/43/112
f 12/44/113 11/45/114 31/46/115
f 30/47/116 27/48/117 29/49/118 31/50/119
f 28/51/120 26/52/121 5/37/122 32/53/123
f 11/54/124 4/39/125 30/47/126 31/50/127
f 28/41/128 32/55/129 31/46/130 29/42/131
f 32/55/132 12/44/133 31/46/134
f 5/37/135 12/56/136 32/53/137
f 5/37/138 26/40/139 27/43/140 30/38/141
f 1/36/142 17/3/143 13/15/144
f 1/57/145 49/58/146 39/59/147
f 38/60/148 35/61/149 41/62/150 42/63/151
f 2/64/152 1/57/153 39/59/154 40/65/155
f 2/64/156 40/65/157 46/66/158
f 46/66/159 40/65/160 47/67/161
f 47/67/162 40/65/163 42/63/164
f 42/63/165 40/65/166 38/60/167
f 38/60/168 40/65/169 44/68/170
f 40/65/171 37/69/172 44/68/173
f 40/65/174 39/59/175 36/70/176 37/69/177
f 45/71/178 46/66/179 47/67/180 48/72/181
f 35/61/182 38/60/183 44/68/184 43/73/185
f 46/66/186 45/71/187 33/74/188 34/75/189
f 48/72/190 47/67/191 42/63/192 41/62/193
f 57/76/194 51/77/195 56/78/196
f 56/78/197 51/77/198 55/79/199
f 55/79/200 51/77/201 54/80/202
f 54/80/203 51/77/204 53/81/205
f 53/81/206 51/77/207 52/82/208
f 51/77/209 50/83/210 52/82/211
f 39/59/212 49/58/213 50/84/214 51/85/215
f 49/58/216 45/71/217 52/86/218 50/84/219
f 45/71/220 48/72/221 53/87/222 52/86/223
f 48/72/224 41/62/225 54/88/226 53/87/227
f 41/62/228 35/61/229 55/89/230 54/88/231
f 35/61/232 43/73/233 56/90/234 55/89/235
f 43/73/236 36/70/237 57/91/238 56/90/239
f 36/70/240 39/59/241 51/85/242 57/91/243
f 46/66/244 34/75/245 2/64/246
f 1/92/247 33/74/248 45/71/249
f 37/93/250 36/94/251 62/95/252
f 58/96/253 59/97/254 61/98/255 60/99/256
f 44/100/257 63/101/258 43/102/259
f 62/103/260 63/104/261 61/105/262 59/106/263
f 60/107/264 64/108/265 37/93/266 58/109/267
f 43/110/268 63/104/269 62/103/270 36/94/271
f 60/99/272 61/98/273 63/101/274 64/111/275
f 64/111/276 63/101/277 44/100/278
f 37/93/279 64/108/280 44/112/281
f 37/93/282 62/95/283 59/97/284 58/96/285
f 1/92/286 45/71/287 49/58/288
