# This file uses meters as units for non-parametric coordinates.

v 12.894926 12.530251 14.883280
v 0.000000 13.677216 22.908192
v 13.032646 13.850727 14.966612
v 0.000000 14.738817 22.772560
v 0.000000 7.893810 -14.433279
v 12.271042 9.109392 -11.397152
v 14.149008 11.026392 -3.573728
v 9.758768 15.874376 13.430977
v 0.000000 17.094851 15.251694
v 0.000000 16.639843 -15.134602
v 10.926123 18.097248 -12.137108
v 13.227425 20.208015 -6.657825
v 7.495589 24.200439 10.262772
v 0.000000 24.531136 12.667475
v 0.000000 20.732365 13.017769
v 8.418283 19.406815 11.286573
v 13.148069 15.909815 -5.227447
v 11.300077 13.830462 -11.999273
v 0.000000 12.328005 -15.025053
v 12.540455 22.966251 2.735264
v 12.797213 18.629971 5.087130
v 12.916632 13.104429 6.051216
v 7.612128 14.515953 20.986843
v 7.593784 13.457451 21.131325
v 0.000000 19.041939 -13.600187
v 8.970032 20.451145 -10.852003
v 6.179867 24.647942 7.691383
v 0.000000 24.915218 9.657764
v 11.180773 21.963940 -6.547942
v 10.583172 23.926258 1.924713
v 0.000000 23.954525 -4.462778
v 12.417355 11.879616 5.490112
v 0.000000 14.799290 3.326864
v -12.894926 12.530251 14.883280
v -13.032646 13.850727 14.966612
v -12.271042 9.109392 -11.397152
v -14.149008 11.026392 -3.573728
v -9.758768 15.874376 13.430977
v -10.926123 18.097248 -12.137108
v -13.227425 20.208015 -6.657825
v -7.495589 24.200439 10.262772
v -8.418283 19.406815 11.286573
v -13.148069 15.909815 -5.227447
v -11.300077 13.830462 -11.999273
v -12.540455 22.966251 2.735264
v -12.797213 18.629971 5.087130
v -12.916632 13.104429 6.051216
v -7.612128 14.515953 20.986843
v -7.593784 13.457451 21.131325
v -8.970032 20.451145 -10.852003
v -6.179867 24.647942 7.691383
v -11.180773 21.963940 -6.547942
v -10.583172 23.926258 1.924713
v -12.417355 11.879616 5.490112
vt 0.207338 0.280598
vt 0.207338 0.280598
vt 0.207338 0.280598
vt 0.207338 0.280598
vt 0.207338 0.280598
vt 0.207338 0.280598
vt 0.207338 0.280598
vt 0.207338 0.280598
vt 0.207338 0.280598
vt 0.207338 0.280598
vt 0.207338 0.280598
vt 0.207338 0.280598
vt 0.207338 0.280598
vt 0.207338 0.280598
vt 0.207338 0.280598
vt 0.207338 0.280598
vt 0.207338 0.280598
vt 0.207338 0.280598
vt 0.207338 0.280598
vt 0.207338 0.280598
vt 0.207338 0.280598
vt 0.207338 0.280598
vt 0.207338 0.280598
vt 0.207338 0.280598
vt 0.207338 0.280598
vt 0.207338 0.280598
vt 0.207338 0.280598
vt 0.207338 0.280598
vt 0.207338 0.280598
vt 0.207338 0.280598
vt 0.207338 0.280598
vt 0.207338 0.280598
vt 0.207338 0.280598
vt 0.207338 0.280598
vt 0.207338 0.280598
vt 0.207338 0.280598
vt 0.207338 0.280598
vt 0.207338 0.280598
vt 0.207338 0.280598
vt 0.207338 0.280598
vt 0.207338 0.280598
vt 0.207338 0.280598
vt 0.207338 0.280598
vt 0.207338 0.280598
vt 0.207338 0.280598
vt 0.207338 0.280598
vt 0.207338 0.280598
vt 0.207338 0.280598
vt 0.207338 0.280598
vt 0.207338 0.280598
vt 0.207338 0.280598
vt 0.207338 0.280598
vt 0.207338 0.280598
vt 0.207338 0.280598
vt 0.207338 0.280598
vt 0.207338 0.280598
vt 0.207338 0.280598
vt 0.207338 0.280598
vt 0.207338 0.280598
vt 0.207338 0.280598
vt 0.207338 0.280598
vt 0.207338 0.280598
vt 0.207338 0.280598
vt 0.207338 0.280598
vt 0.207338 0.280598
vt 0.207338 0.280598
vt 0.207338 0.280598
vt 0.207338 0.280598
vt 0.207338 0.280598
vt 0.207338 0.280598
vt 0.207338 0.280598
vt 0.207338 0.280598
vt 0.207338 0.280598
vt 0.207338 0.280598
vt 0.207338 0.280598
vt 0.207338 0.280598
vt 0.207338 0.280598
vt 0.207338 0.280598
vt 0.207338 0.280598
vt 0.207338 0.280598
vt 0.207338 0.280598
vt 0.207338 0.280598
vt 0.207338 0.280598
vt 0.207338 0.280598
vt 0.207338 0.280598
vt 0.207338 0.280598
vt 0.207338 0.280598
vt 0.207338 0.280598
vt 0.207338 0.280598
vt 0.207338 0.280598
vt 0.207338 0.280598
vt 0.207338 0.280598
vt 0.207338 0.280598
vt 0.207338 0.280598
vt 0.207338 0.280598
vt 0.207338 0.280598
vt 0.207338 0.280598
vt 0.207338 0.280598
vt 0.207338 0.280598
vt 0.207338 0.280598
vt 0.207338 0.280598
vt 0.207338 0.280598
vt 0.207338 0.280598
vt 0.207338 0.280598
vt 0.207338 0.280598
vt 0.207338 0.280598
vt 0.207338 0.280598
vt 0.207338 0.280598
vt 0.207338 0.280598
vt 0.207338 0.280598
vt 0.207338 0.280598
vt 0.207338 0.280598
vt 0.207338 0.280598
vt 0.207338 0.280598
vt 0.207338 0.280598
vt 0.207338 0.280598
vt 0.207338 0.280598
vt 0.207338 0.280598
vt 0.207338 0.280598
vt 0.207338 0.280598
vt 0.207338 0.280598
vt 0.207338 0.280598
vt 0.207338 0.280598
vt 0.207338 0.280598
vt 0.207338 0.280598
vt 0.207338 0.280598
vt 0.207338 0.280598
vt 0.207338 0.280598
vt 0.207338 0.280598
vt 0.207338 0.280598
vt 0.207338 0.280598
vt 0.207338 0.280598
vt 0.207338 0.280598
vt 0.207338 0.280598
vt 0.207338 0.280598
vn 0.236339 0.125324 0.963555
vn 0.236339 0.125324 0.963555
vn 0.236339 0.125324 0.963555
vn 0.236339 0.125324 0.963555
vn 0.578123 0.811464 -0.085440
vn 0.578123 0.811464 -0.085440
vn 0.578123 0.811464 -0.085440
vn 0.102490 0.946524 0.305920
vn 0.102490 0.946525 0.305920
vn 0.102490 0.946525 0.305920
vn 0.218978 -0.104771 -0.970088
vn 0.218978 -0.104771 -0.970088
vn 0.218978 -0.104771 -0.970088
vn 0.218978 -0.104771 -0.970088
vn 0.941125 0.118757 -0.316514
vn 0.941125 0.118757 -0.316514
vn 0.941125 0.118757 -0.316514
vn 0.941125 0.118757 -0.316514
vn 0.753826 0.492357 0.435121
vn 0.753826 0.492357 0.435121
vn 0.753826 0.492357 0.435121
vn 0.322538 0.510923 0.796823
vn 0.322538 0.510923 0.796823
vn 0.322538 0.510923 0.796823
vn 0.131747 0.504081 0.853549
vn 0.798973 0.400332 0.448751
vn 0.798973 0.400332 0.448751
vn 0.798973 0.400332 0.448751
vn 0.798973 0.400332 0.448751
vn 0.906671 0.160820 -0.389981
vn 0.906671 0.160820 -0.389981
vn 0.906671 0.160820 -0.389981
vn 0.906671 0.160820 -0.389981
vn 0.238429 -0.009960 -0.971109
vn 0.238429 -0.009960 -0.971109
vn 0.238429 -0.009960 -0.971109
vn 0.238429 -0.009960 -0.971109
vn 0.970572 0.238535 -0.033033
vn 0.970572 0.238535 -0.033033
vn 0.970572 0.238535 -0.033033
vn 0.970572 0.238535 -0.033033
vn 0.989061 0.143079 0.035879
vn 0.989061 0.143079 0.035879
vn 0.989061 0.143079 0.035879
vn 0.989061 0.143079 0.035879
vn 0.253457 0.939613 0.229973
vn 0.253457 0.939613 0.229973
vn 0.253457 0.939613 0.229973
vn 0.253457 0.939613 0.229973
vn 0.768749 -0.004075 0.639538
vn 0.768748 -0.004075 0.639538
vn 0.768748 -0.004075 0.639538
vn 0.768748 -0.004075 0.639538
vn 0.981400 -0.191908 0.005123
vn 0.981400 -0.191908 0.005123
vn 0.981400 -0.191908 0.005123
vn 0.981400 -0.191908 0.005123
vn 0.178648 0.475238 -0.861530
vn 0.178648 0.475238 -0.861530
vn 0.178648 0.475238 -0.861530
vn 0.178648 0.475238 -0.861530
vn 0.242939 0.965265 0.096151
vn 0.242939 0.965265 0.096151
vn 0.242939 0.965265 0.096151
vn 0.242939 0.965265 0.096151
vn 0.586781 0.625328 -0.514445
vn 0.586781 0.625328 -0.514445
vn 0.586781 0.625328 -0.514445
vn 0.586781 0.625328 -0.514445
vn 0.679572 0.690109 -0.248860
vn 0.679572 0.690109 -0.248860
vn 0.679572 0.690109 -0.248860
vn 0.679572 0.690109 -0.248860
vn 0.538933 0.842349 0.000580
vn 0.538933 0.842349 0.000580
vn 0.538933 0.842349 0.000580
vn 0.538933 0.842349 0.000580
vn -0.030039 0.922650 -0.384466
vn -0.030039 0.922650 -0.384466
vn -0.030039 0.922650 -0.384466
vn -0.010776 0.900234 -0.435272
vn -0.010776 0.900234 -0.435272
vn -0.010776 0.900234 -0.435272
vn 0.010462 0.939013 -0.343722
vn 0.010462 0.939013 -0.343722
vn 0.010462 0.939013 -0.343722
vn -0.013466 0.909445 -0.415607
vn -0.013466 0.909445 -0.415607
vn -0.013466 0.909445 -0.415607
vn -0.001067 0.897870 -0.440259
vn -0.001067 0.897870 -0.440259
vn -0.001067 0.897870 -0.440259
vn 0.917818 -0.347171 0.192569
vn 0.917818 -0.347171 0.192569
vn 0.917818 -0.347170 0.192569
vn -0.161049 -0.986869 0.012339
vn -0.161049 -0.986869 0.012339
vn -0.161049 -0.986869 0.012339
vn -0.002239 -0.930415 0.366502
vn -0.002239 -0.930415 0.366502
vn -0.002239 -0.930415 0.366502
vn -0.128182 -0.954516 0.269199
vn -0.128182 -0.954516 0.269199
vn -0.128182 -0.954516 0.269199
vn -0.039421 -0.998420 -0.040036
vn -0.039421 -0.998420 -0.040036
vn -0.039421 -0.998420 -0.040036
vn -0.229866 -0.971582 0.056480
vn -0.229866 -0.971582 0.056480
vn -0.229866 -0.971582 0.056480
vn -0.235437 -0.966730 0.100018
vn -0.235437 -0.966730 0.100018
vn -0.235437 -0.966730 0.100018
vn -0.236339 0.125323 0.963555
vn -0.236339 0.125323 0.963555
vn -0.236339 0.125324 0.963555
vn -0.236339 0.125323 0.963555
vn -0.578123 0.811464 -0.085438
vn -0.578123 0.811464 -0.085438
vn -0.578123 0.811464 -0.085438
vn -0.102490 0.946524 0.305920
vn -0.102490 0.946525 0.305920
vn -0.102490 0.946525 0.305920
vn -0.218978 -0.104771 -0.970089
vn -0.218978 -0.104771 -0.970089
vn -0.218978 -0.104771 -0.970089
vn -0.218978 -0.104771 -0.970089
vn -0.941125 0.118757 -0.316513
vn -0.941125 0.118757 -0.316513
vn -0.941125 0.118757 -0.316513
vn -0.941125 0.118757 -0.316513
vn -0.753826 0.492357 0.435121
vn -0.753826 0.492357 0.435121
vn -0.753826 0.492357 0.435121
vn -0.115460 0.505113 0.855295
vn -0.115460 0.505113 0.855295
vn -0.321582 0.532388 0.783037
vn -0.321582 0.532388 0.783037
vn -0.798974 0.400332 0.448749
vn -0.798974 0.400332 0.448749
vn -0.798974 0.400332 0.448749
vn -0.798974 0.400332 0.448749
vn -0.906671 0.160820 -0.389981
vn -0.906671 0.160820 -0.389981
vn -0.906671 0.160820 -0.389981
vn -0.906671 0.160820 -0.389981
vn -0.238430 -0.009960 -0.971109
vn -0.238430 -0.009960 -0.971109
vn -0.238430 -0.009960 -0.971109
vn -0.238430 -0.009960 -0.971109
vn -0.970572 0.238535 -0.033033
vn -0.970572 0.238535 -0.033033
vn -0.970572 0.238535 -0.033033
vn -0.970572 0.238535 -0.033033
vn -0.989061 0.143079 0.035879
vn -0.989061 0.143079 0.035879
vn -0.989061 0.143079 0.035879
vn -0.989061 0.143079 0.035879
vn -0.768748 -0.004075 0.639539
vn -0.768748 -0.004075 0.639539
vn -0.768748 -0.004075 0.639539
vn -0.768748 -0.004075 0.639539
vn -0.981400 -0.191908 0.005123
vn -0.981400 -0.191908 0.005123
vn -0.981400 -0.191908 0.005123
vn -0.981400 -0.191908 0.005123
vn -0.178648 0.475238 -0.861530
vn -0.178648 0.475238 -0.861530
vn -0.178648 0.475238 -0.861530
vn -0.178648 0.475238 -0.861530
vn -0.242939 0.965265 0.096150
vn -0.242939 0.965265 0.096150
vn -0.242939 0.965265 0.096150
vn -0.242939 0.965265 0.096150
vn -0.586781 0.625328 -0.514445
vn -0.586781 0.625328 -0.514445
vn -0.586781 0.625328 -0.514445
vn -0.586781 0.625328 -0.514445
vn -0.679572 0.690109 -0.248860
vn -0.679572 0.690109 -0.248860
vn -0.679572 0.690109 -0.248860
vn -0.679572 0.690109 -0.248860
vn -0.538933 0.842349 0.000582
vn -0.538933 0.842349 0.000582
vn -0.538933 0.842349 0.000582
vn -0.538933 0.842349 0.000582
vn 0.030039 0.922650 -0.384466
vn 0.030039 0.922650 -0.384466
vn 0.030039 0.922650 -0.384466
vn 0.010776 0.900234 -0.435272
vn 0.010776 0.900234 -0.435272
vn 0.010776 0.900234 -0.435272
vn -0.010462 0.939014 -0.343721
vn -0.010462 0.939014 -0.343721
vn -0.010462 0.939014 -0.343721
vn 0.013466 0.909445 -0.415606
vn 0.013466 0.909445 -0.415606
vn 0.013466 0.909445 -0.415606
vn 0.001067 0.897870 -0.440260
vn 0.001067 0.897870 -0.440260
vn 0.001067 0.897870 -0.440260
vn -0.917818 -0.347171 0.192570
vn -0.917818 -0.347171 0.192570
vn -0.917818 -0.347171 0.192570
vn 0.161049 -0.986869 0.012339
vn 0.161049 -0.986869 0.012339
vn 0.161049 -0.986869 0.012339
vn 0.002239 -0.930415 0.366502
vn 0.002239 -0.930415 0.366502
vn 0.002239 -0.930415 0.366502
vn 0.128182 -0.954516 0.269201
vn 0.128182 -0.954516 0.269201
vn 0.128182 -0.954516 0.269201
vn 0.039421 -0.998420 -0.040036
vn 0.039421 -0.998420 -0.040036
vn 0.039421 -0.998420 -0.040036
vn 0.229866 -0.971582 0.056479
vn 0.229866 -0.971582 0.056479
vn 0.229866 -0.971582 0.056479
vn 0.235437 -0.966730 0.100018
vn 0.235437 -0.966730 0.100018
vn 0.235437 -0.966730 0.100018
vn -0.909125 0.164169 0.382806
vn -0.909125 0.164169 0.382806
vn -0.909125 0.164169 0.382806
vn 0.909125 0.164169 0.382806
vn 0.909125 0.164169 0.382806
vn 0.909125 0.164169 0.382806
vn 0.379458 0.352767 0.855317
vn 0.469533 0.214791 0.856390
vn 0.469533 0.214791 0.856390
vn 0.290387 0.202000 0.935346
vn -0.385534 0.348301 0.854430
vn -0.288329 0.203104 0.935743
vn -0.468969 0.217221 0.856086
vn -0.378372 0.352980 0.855710
vn -0.269225 0.934569 0.232591
vn -0.177615 0.959951 0.216672
vn -0.275933 0.932336 0.233688
vn -0.275933 0.932336 0.233688
s off
f 23/34/1 4/4/2 2/3/3 24/35/4
f 3/9/5 22/32/6 8/10/7
f 9/12/8 4/11/9 23/33/10
f 19/27/11 18/26/12 6/14/13 5/13/14
f 6/44/15 18/45/16 17/43/17 7/15/18
f 21/40/19 16/24/20 8/16/21
f 9/17/22 8/42/23 16/46/24 15/23/25
f 21/30/26 20/28/27 13/7/28 16/19/29
f 18/21/30 11/6/31 12/18/32 17/20/33
f 19/22/34 10/5/35 11/6/36 18/21/37
f 17/20/38 12/18/39 20/28/40 21/30/41
f 17/25/42 21/29/43 22/31/44 7/47/45
f 3/9/46 8/10/47 9/12/48 23/33/49
f 1/1/50 3/2/51 23/34/52 24/35/53
f 1/36/54 32/54/55 22/38/56 3/37/57
f 10/5/58 25/48/59 26/49/60 11/6/61
f 13/7/62 27/50/63 28/51/64 14/8/65
f 11/6/66 26/49/67 29/52/68 12/18/69
f 12/18/70 29/52/71 30/53/72 20/28/73
f 20/28/74 30/53/75 27/50/76 13/7/77
f 25/48/78 31/126/79 26/49/80
f 27/50/81 31/127/82 28/51/83
f 26/49/84 31/128/85 29/52/86
f 29/52/87 31/129/88 30/53/89
f 30/53/90 31/130/91 27/50/92
f 32/54/93 7/39/94 22/38/95
f 24/55/96 33/57/97 1/56/98
f 6/58/99 33/57/100 5/59/101
f 7/60/102 33/57/103 6/58/104
f 2/61/105 33/57/106 24/55/107
f 32/62/108 33/57/109 7/60/110
f 1/56/111 33/57/112 32/62/113
f 48/63/114 49/64/115 2/65/116 4/66/117
f 35/67/118 38/68/119 47/69/120
f 9/70/121 48/71/122 4/72/123
f 19/73/124 5/74/125 36/75/126 44/76/127
f 36/77/128 37/78/129 43/79/130 44/80/131
f 46/81/132 38/83/133 42/84/134
f 9/86/135 15/87/136 42/88/137 38/85/138
f 46/92/139 42/89/140 41/91/141 45/93/142
f 44/94/143 43/95/144 40/96/145 39/97/146
f 19/98/147 44/94/148 39/97/149 10/99/150
f 43/95/151 46/92/152 45/93/153 40/96/154
f 43/100/155 37/101/156 47/102/157 46/103/158
f 34/104/159 49/64/160 48/63/161 35/105/162
f 34/106/163 35/107/164 47/108/165 54/109/166
f 10/99/167 39/97/168 50/110/169 25/111/170
f 41/91/171 14/90/172 28/112/173 51/113/174
f 39/97/175 40/96/176 52/114/177 50/110/178
f 40/96/179 45/93/180 53/115/181 52/114/182
f 45/93/183 41/91/184 51/113/185 53/115/186
f 25/111/187 50/110/188 31/131/189
f 51/113/190 28/112/191 31/132/192
f 50/110/193 52/114/194 31/133/195
f 52/114/196 53/115/197 31/134/198
f 53/115/199 51/113/200 31/135/201
f 54/109/202 47/108/203 37/116/204
f 49/117/205 34/118/206 33/119/207
f 36/120/208 5/121/209 33/119/210
f 37/122/211 36/120/212 33/119/213
f 2/123/214 49/117/215 33/119/216
f 54/124/217 37/122/218 33/119/219
f 34/118/220 54/124/221 33/119/222
f 46/81/223 47/82/224 38/83/225
f 21/40/226 8/16/227 22/41/228
f 16/19/229 13/7/230 14/8/231 15/125/232
f 42/89/233 15/125/234 14/90/235 41/91/236
f 48/71/237 9/70/238 38/68/239 35/67/240
