# This file uses meters as units for non-parametric coordinates.

v -4.020597 0.083389 -0.948744
v 4.040240 0.089588 -0.948744
v 0.021403 0.199947 -0.948899
v -6.269009 -2.926197 -0.948746
v -6.269009 5.097046 -0.948746
v 6.269009 -3.022785 -0.948746
v 6.269009 5.110474 -0.948746
v -2.717884 -3.692417 -0.948899
v -0.029995 -5.110474 -0.948899
v 3.019388 -3.718624 -0.948899
v 2.067120 4.040718 -0.948899
v 0.078886 3.233738 -0.948899
v -2.278888 4.110394 -0.948899
v 2.134588 3.450279 0.948901
v 2.643569 -3.262577 0.948901
v 5.691402 -2.406998 0.948899
v 5.691402 4.370575 0.948899
v -5.691397 -2.336731 0.948899
v -2.379591 -3.243504 0.948901
v -2.320001 3.509636 0.948901
v -5.691397 4.360809 0.948899
v -0.026262 -4.370575 0.948901
v 0.069067 2.499027 0.948901
v -6.269009 5.097046 0.948899
v -6.269009 -2.926197 0.948899
v 6.269009 -3.022785 0.948899
v 6.269009 5.110474 0.948899
v -2.717884 -3.692417 0.948901
v -0.029995 -5.110474 0.948901
v 3.019388 -3.718624 0.948901
v 2.067120 4.040718 0.948901
v 0.078886 3.233738 0.948901
v -2.278888 4.110394 0.948901
vt 0.637929 0.218522
vt 0.671539 0.218691
vt 0.647708 0.213975
vt 0.654657 0.208844
vt 0.662540 0.214447
vt 0.671539 0.245454
vt 0.637929 0.245409
vt 0.661037 0.241264
vt 0.654938 0.236934
vt 0.647884 0.241535
vt 0.633823 0.232115
vt 0.633823 0.232115
vt 0.633823 0.232115
vt 0.633823 0.232115
vt 0.633823 0.232115
vt 0.633823 0.232115
vt 0.633823 0.232115
vt 0.633823 0.232115
vt 0.633823 0.232115
vt 0.633823 0.232115
vt 0.633823 0.232115
vt 0.633823 0.232115
vt 0.633823 0.232115
vt 0.633823 0.232115
vt 0.633823 0.232115
vt 0.633823 0.232115
vt 0.633823 0.232115
vt 0.633823 0.232115
vt 0.633823 0.232115
vt 0.633823 0.232115
vt 0.633823 0.232115
vt 0.633823 0.232115
vt 0.633823 0.232115
vt 0.633823 0.232115
vt 0.633823 0.232115
vt 0.633823 0.232115
vt 0.633823 0.232115
vt 0.633823 0.232115
vt 0.633823 0.232115
vt 0.633823 0.232115
vt 0.633823 0.232115
vt 0.633823 0.232115
vt 0.633823 0.232115
vt 0.633823 0.232115
vt 0.633823 0.232115
vt 0.633823 0.232115
vt 0.633823 0.232115
vt 0.633823 0.232115
vt 0.633823 0.232115
vt 0.633823 0.232115
vt 0.633823 0.232115
vt 0.633823 0.232115
vt 0.633823 0.232115
vt 0.633823 0.232115
vn 0.000000 0.000000 1.000000
vn 0.000000 0.000000 1.000000
vn 0.000001 0.000000 1.000000
vn 0.000001 0.000000 1.000000
vn -0.000001 0.000000 1.000000
vn -0.000000 0.000000 1.000000
vn -0.000000 0.000000 1.000000
vn -0.000001 0.000000 1.000000
vn -0.000000 0.000000 1.000000
vn -0.000000 0.000000 1.000000
vn -0.000000 0.000000 1.000000
vn -0.000000 0.000000 1.000000
vn -0.000000 0.000000 1.000000
vn -0.000000 0.000000 1.000000
vn 0.000000 0.000000 1.000000
vn 0.000000 0.000000 1.000000
vn -0.000000 0.000000 1.000000
vn -0.000000 0.000000 1.000000
vn -0.000000 0.000000 1.000000
vn -0.000000 0.000000 1.000000
vn 0.000000 0.000000 1.000000
vn 0.000000 0.000000 1.000000
vn 0.000000 0.000000 1.000000
vn 0.000000 0.000000 1.000000
vn -0.000001 0.000001 1.000000
vn -0.000001 0.000001 1.000000
vn -0.000001 0.000001 1.000000
vn -0.000001 0.000001 1.000000
vn 0.000000 0.000000 1.000000
vn 0.000000 0.000000 1.000000
vn 0.000000 0.000000 1.000000
vn 0.000000 0.000000 1.000000
vn 0.000000 0.000000 1.000000
vn 0.000000 0.000000 1.000000
vn 0.000000 0.000000 1.000000
vn 0.000000 0.000000 1.000000
vn 0.000001 0.000001 1.000000
vn 0.000001 0.000001 1.000000
vn 0.000001 0.000001 1.000000
vn 0.000001 0.000001 1.000000
vn 0.000001 -0.000000 1.000000
vn 0.000001 -0.000000 1.000000
vn 0.000001 -0.000000 1.000000
vn 0.000001 -0.000000 1.000000
vn 0.000000 0.000000 1.000000
vn 0.000000 0.000000 1.000000
vn 0.000000 0.000000 1.000000
vn 0.000000 0.000000 1.000000
vn 0.000000 0.000000 1.000000
vn 0.000000 0.000000 1.000000
vn 0.000000 0.000000 1.000000
vn 0.000000 0.000000 1.000000
vn -0.000001 -0.000000 1.000000
vn -0.000001 -0.000000 1.000000
vn -0.000001 -0.000000 1.000000
vn -0.000001 -0.000000 1.000000
vn 0.000001 0.000000 -1.000000
vn 0.000001 0.000000 -1.000000
vn 0.000001 0.000000 -1.000000
vn -0.000001 0.000000 -1.000000
vn -0.000001 0.000000 -1.000000
vn -0.000001 0.000000 -1.000000
vn -0.000037 0.000028 -1.000000
vn -0.000037 0.000028 -1.000000
vn -0.000037 0.000028 -1.000000
vn -0.000020 0.000014 -1.000000
vn -0.000020 0.000014 -1.000000
vn -0.000020 0.000014 -1.000000
vn -0.000020 0.000014 -1.000000
vn 0.000019 0.000015 -1.000000
vn 0.000019 0.000015 -1.000000
vn 0.000019 0.000015 -1.000000
vn 0.000019 0.000015 -1.000000
vn 0.000041 0.000030 -1.000000
vn 0.000041 0.000030 -1.000000
vn 0.000041 0.000030 -1.000000
vn 0.000041 -0.000019 -1.000000
vn 0.000041 -0.000019 -1.000000
vn 0.000041 -0.000019 -1.000000
vn 0.000028 -0.000015 -1.000000
vn 0.000028 -0.000015 -1.000000
vn 0.000028 -0.000015 -1.000000
vn 0.000028 -0.000015 -1.000000
vn -0.000026 -0.000015 -1.000000
vn -0.000026 -0.000015 -1.000000
vn -0.000026 -0.000015 -1.000000
vn -0.000026 -0.000015 -1.000000
vn -0.000043 -0.000020 -1.000000
vn -0.000043 -0.000020 -1.000000
vn -0.000043 -0.000020 -1.000000
vn -1.000000 0.000000 0.000000
vn -1.000000 0.000000 0.000000
vn -1.000000 0.000000 0.000000
vn -1.000000 0.000000 0.000000
vn 1.000000 0.000000 0.000000
vn 1.000000 0.000000 0.000000
vn 1.000000 0.000000 0.000000
vn 1.000000 0.000000 0.000000
vn -0.210914 -0.977505 0.000000
vn -0.330439 -0.943828 0.000000
vn -0.330437 -0.943828 0.000000
vn -0.210914 -0.977505 0.000000
vn -0.330439 -0.943828 0.000000
vn -0.466617 -0.884460 0.000000
vn -0.466617 -0.884460 0.000000
vn -0.330437 -0.943828 0.000000
vn 0.415228 -0.909717 0.000000
vn 0.314606 -0.949222 0.000000
vn 0.314605 -0.949223 0.000000
vn 0.415228 -0.909717 0.000000
vn 0.314606 -0.949222 0.000000
vn 0.209383 -0.977834 0.000000
vn 0.209383 -0.977834 0.000000
vn 0.314605 -0.949223 0.000000
vn -0.246719 0.969087 0.000000
vn -0.290142 0.956984 0.000000
vn -0.290142 0.956984 0.000000
vn -0.246719 0.969087 0.000000
vn -0.290142 0.956984 0.000000
vn -0.376081 0.926587 0.000000
vn -0.376081 0.926587 0.000000
vn -0.290142 0.956984 0.000000
vn 0.348505 0.937307 0.000000
vn 0.281650 0.959517 0.000000
vn 0.281650 0.959517 0.000000
vn 0.348505 0.937307 0.000000
vn 0.281650 0.959517 0.000000
vn 0.240044 0.970762 0.000000
vn 0.240044 0.970762 0.000000
vn 0.281650 0.959517 0.000000
s off
f 14/8/1 15/5/2 16/2/3 17/6/4
f 18/1/5 19/3/6 20/10/7 21/7/8
f 20/10/9 19/3/10 22/4/11 23/9/12
f 23/9/13 22/4/14 15/5/15 14/8/16
f 18/11/17 21/12/18 24/45/19 25/46/20
f 17/15/21 16/16/22 26/47/23 27/48/24
f 19/19/25 18/11/26 25/46/27 28/49/28
f 22/21/29 19/19/30 28/49/31 29/50/32
f 15/23/33 22/21/34 29/50/35 30/51/36
f 16/16/37 15/23/38 30/51/39 26/47/40
f 14/25/41 17/15/42 27/48/43 31/52/44
f 23/27/45 14/25/46 31/52/47 32/53/48
f 20/29/49 23/27/50 32/53/51 33/54/52
f 21/12/53 20/29/54 33/54/55 24/45/56
f 1/31/57 4/33/58 5/32/59
f 2/34/60 7/36/61 6/35/62
f 1/31/63 8/37/64 4/33/65
f 3/38/66 9/39/67 8/37/68 1/31/69
f 2/34/70 10/40/71 9/39/72 3/38/73
f 2/34/74 6/35/75 10/40/76
f 2/34/77 11/41/78 7/36/79
f 3/42/80 12/43/81 11/41/82 2/34/83
f 1/31/84 13/44/85 12/43/86 3/42/87
f 1/31/88 5/32/89 13/44/90
f 5/13/91 4/14/92 25/46/93 24/45/94
f 6/17/95 7/18/96 27/48/97 26/47/98
f 4/14/99 8/20/100 28/49/101 25/46/102
f 8/20/103 9/22/104 29/50/105 28/49/106
f 9/22/107 10/24/108 30/51/109 29/50/110
f 10/24/111 6/17/112 26/47/113 30/51/114
f 7/18/115 11/26/116 31/52/117 27/48/118
f 11/26/119 12/28/120 32/53/121 31/52/122
f 12/28/123 13/30/124 33/54/125 32/53/126
f 13/30/127 5/13/128 24/45/129 33/54/130
