# This file uses meters as units for non-parametric coordinates.

v 11.354965 9.762306 -11.263538
v 0.006386 8.652153 -15.814044
v -11.330513 9.762306 -11.252572
v -15.411588 11.342182 -0.195426
v -11.341802 15.122490 10.804535
v 0.135142 15.132408 14.956555
v 11.354513 15.122490 10.804535
v 15.673791 11.342182 -0.195048
v 11.975565 21.737823 -14.810886
v -0.000000 20.938950 -18.963287
v -12.407830 21.862640 -15.340589
v -16.032887 24.898396 -3.379863
v -11.198351 27.688007 8.067019
v -0.000000 28.857822 12.621250
v 11.172760 27.487984 7.794446
v 16.547583 24.898396 -3.446439
v 9.623398 23.092155 -12.707011
v -0.085449 22.473068 -16.468048
v -0.566737 26.087990 -3.859117
v -9.780351 23.216991 -12.748581
v -13.409913 25.818768 -3.529115
v -9.114260 28.174381 5.786935
v -0.085586 29.164429 9.432262
v 8.527869 27.974377 5.207168
v 13.256677 25.818768 -3.532882
v 10.013875 9.090576 -9.825530
v 0.006451 8.074532 -13.868155
v 0.000000 11.540794 -0.107468
v -10.019588 9.090576 -9.841053
v -13.809340 10.443249 -0.047199
v -10.060321 13.996429 9.699111
v 0.132674 13.912220 13.550016
v 10.072477 13.996429 9.698356
v 14.111510 10.443249 -0.043768
v -0.000000 19.857883 16.493706
v -12.206592 18.663311 10.632346
v -18.095779 15.898476 -1.099271
v -12.206592 13.318272 -13.117334
v 0.007632 12.211266 -18.036062
v 12.795649 13.098736 -13.539383
v 17.281151 15.990791 -1.242494
v 12.221858 18.663311 10.632346
v -0.000000 25.080948 15.015438
v -11.957272 23.649063 9.004181
v -16.929529 20.976524 -2.629373
v -12.795649 18.321819 -15.017646
v 0.007620 17.197018 -19.108177
v 11.988766 18.304005 -14.277729
v 18.095781 21.121559 -2.577539
v 12.795650 23.921299 9.862573
v -11.232873 22.296219 9.333279
v -16.229898 19.656582 -2.395405
v 0.130281 16.388283 -18.194323
v 12.194172 17.481632 -13.336143
v -11.545965 17.196789 10.526685
v -11.284944 12.099037 -11.717698
v 0.570988 11.005669 -16.492567
v 15.915985 14.745712 -1.001984
v 11.001919 17.385368 10.490612
vt 0.069592 0.376013
vt 0.069592 0.376013
vt 0.069592 0.376013
vt 0.069592 0.376013
vt 0.069592 0.376013
vt 0.069592 0.376013
vt 0.069592 0.376013
vt 0.069592 0.376013
vt 0.069592 0.376013
vt 0.069592 0.376013
vt 0.069592 0.376013
vt 0.069592 0.376013
vt 0.069592 0.376013
vt 0.069592 0.376013
vt 0.069592 0.376013
vt 0.069592 0.376013
vt 0.069592 0.376013
vt 0.069592 0.376013
vt 0.069592 0.376013
vt 0.069592 0.376013
vt 0.069592 0.376013
vt 0.069592 0.376013
vt 0.069592 0.376013
vt 0.069592 0.376013
vt 0.069592 0.376013
vt 0.069592 0.376013
vt 0.069592 0.376013
vt 0.069592 0.376013
vt 0.069592 0.376013
vt 0.069592 0.376013
vt 0.069592 0.376013
vt 0.069592 0.376013
vt 0.069592 0.376013
vt 0.069592 0.376013
vt 0.069592 0.376013
vt 0.069592 0.376013
vt 0.069592 0.376013
vt 0.069592 0.376013
vt 0.069592 0.376013
vt 0.069592 0.376013
vt 0.069592 0.376013
vt 0.069592 0.376013
vt 0.069592 0.376013
vt 0.069592 0.376013
vt 0.069592 0.376013
vt 0.069592 0.376013
vt 0.069592 0.376013
vt 0.069592 0.376013
vt 0.069592 0.376013
vt 0.069592 0.376013
vt 0.069592 0.376013
vt 0.069592 0.376013
vt 0.069592 0.376013
vt 0.069592 0.376013
vt 0.069592 0.376013
vt 0.069592 0.376013
vt 0.069592 0.376013
vt 0.069592 0.376013
vt 0.069592 0.376013
vt 0.069592 0.376013
vt 0.069592 0.376013
vt 0.069592 0.376013
vt 0.069592 0.376013
vt 0.069592 0.376013
vt 0.069592 0.376013
vt 0.069592 0.376013
vt 0.069592 0.376013
vt 0.069592 0.376013
vt 0.069592 0.376013
vt 0.069592 0.376013
vt 0.069592 0.376013
vt 0.069592 0.376013
vt 0.069592 0.376013
vt 0.069592 0.376013
vt 0.069592 0.376013
vt 0.069592 0.376013
vt 0.069592 0.376013
vt 0.069592 0.376013
vt 0.069592 0.376013
vt 0.069592 0.376013
vt 0.069621 0.349870
vt 0.069621 0.349870
vt 0.069621 0.349870
vt 0.069621 0.349870
vt 0.069621 0.349870
vt 0.069621 0.349870
vt 0.069621 0.349870
vt 0.069621 0.349870
vt 0.069621 0.349870
vt 0.069621 0.349870
vt 0.069621 0.349870
vt 0.069621 0.349870
vt 0.069621 0.349870
vt 0.069621 0.349870
vt 0.069621 0.349870
vt 0.069621 0.349870
vt 0.069621 0.349870
vt 0.069621 0.349870
vt 0.069621 0.349870
vt 0.069621 0.349870
vt 0.069621 0.349870
vt 0.069621 0.349870
vt 0.069621 0.349870
vt 0.069621 0.349870
vn 0.322226 -0.523201 -0.788943
vn 0.322226 -0.523201 -0.788943
vn 0.322226 -0.523201 -0.788943
vn 0.322226 -0.523201 -0.788943
vn -0.381881 -0.171750 -0.908113
vn -0.381881 -0.171750 -0.908113
vn -0.381881 -0.171750 -0.908113
vn -0.381881 -0.171750 -0.908113
vn -0.856753 -0.394041 -0.332725
vn -0.856753 -0.394041 -0.332725
vn -0.856753 -0.394041 -0.332725
vn -0.856753 -0.394041 -0.332725
vn -0.841584 -0.284813 0.458931
vn -0.841584 -0.284813 0.458931
vn -0.841584 -0.284813 0.458931
vn -0.841584 -0.284813 0.458931
vn -0.377042 -0.186818 0.907160
vn -0.377042 -0.186818 0.907160
vn -0.377042 -0.186818 0.907160
vn -0.377042 -0.186818 0.907160
vn 0.399945 -0.130872 0.907147
vn 0.399945 -0.130872 0.907147
vn 0.399945 -0.130872 0.907147
vn 0.399945 -0.130872 0.907147
vn 0.930078 0.088641 0.356508
vn 0.930078 0.088641 0.356508
vn 0.930078 0.088641 0.356508
vn 0.930078 0.088641 0.356508
vn 0.910096 -0.337330 -0.240696
vn 0.910096 -0.337330 -0.240696
vn 0.910096 -0.337330 -0.240696
vn 0.910096 -0.337330 -0.240696
vn -0.000221 -0.969708 0.244266
vn -0.000221 -0.969708 0.244266
vn -0.000221 -0.969708 0.244266
vn -0.000158 -0.969708 0.244266
vn -0.000158 -0.969708 0.244266
vn -0.000158 -0.969708 0.244266
vn 0.078847 -0.982924 0.166266
vn 0.078847 -0.982924 0.166266
vn 0.078847 -0.982924 0.166266
vn 0.076553 -0.945871 0.315386
vn 0.076553 -0.945871 0.315386
vn 0.076553 -0.945871 0.315386
vn -0.072837 -0.982521 0.171308
vn -0.072837 -0.982521 0.171308
vn -0.072837 -0.982521 0.171308
vn 0.074163 -0.982666 0.169905
vn 0.074163 -0.982666 0.169905
vn 0.074163 -0.982666 0.169905
vn -0.075028 -0.946428 0.314078
vn -0.075028 -0.946428 0.314078
vn -0.075028 -0.946428 0.314078
vn -0.077192 -0.982720 0.168232
vn -0.077192 -0.982720 0.168232
vn -0.077192 -0.982720 0.168232
vn 0.044778 0.960762 -0.273737
vn 0.044778 0.960762 -0.273737
vn 0.044778 0.960762 -0.273737
vn -0.032417 0.960441 -0.276591
vn -0.032417 0.960441 -0.276591
vn -0.032417 0.960441 -0.276591
vn -0.027338 0.959186 -0.281450
vn -0.027338 0.959186 -0.281450
vn -0.027338 0.959186 -0.281450
vn -0.026377 0.971974 -0.233606
vn -0.026377 0.971974 -0.233606
vn -0.026377 0.971974 -0.233606
vn -0.016020 0.974246 -0.224920
vn -0.016020 0.974246 -0.224920
vn -0.016020 0.974246 -0.224920
vn 0.023561 0.973785 -0.226247
vn 0.023561 0.973785 -0.226247
vn 0.023561 0.973785 -0.226247
vn 0.024318 0.973599 -0.226967
vn 0.024318 0.973599 -0.226967
vn 0.024318 0.973599 -0.226967
vn 0.025548 0.955439 -0.294081
vn 0.025548 0.955439 -0.294081
vn 0.025548 0.955439 -0.294081
vn 0.119143 0.868026 -0.482012
vn 0.119143 0.868026 -0.482012
vn 0.119143 0.868026 -0.482012
vn 0.119143 0.868026 -0.482012
vn -0.085813 0.884201 -0.459157
vn -0.085813 0.884201 -0.459157
vn -0.085813 0.884201 -0.459157
vn -0.085813 0.884201 -0.459157
vn -0.243719 0.913217 -0.326550
vn -0.243719 0.913217 -0.326550
vn -0.243719 0.913217 -0.326550
vn -0.243719 0.913218 -0.326550
vn -0.327202 0.940731 -0.089239
vn -0.327202 0.940731 -0.089239
vn -0.327202 0.940731 -0.089239
vn -0.327202 0.940731 -0.089239
vn -0.142130 0.985658 0.090976
vn -0.142130 0.985658 0.090976
vn -0.142130 0.985658 0.090976
vn -0.142130 0.985658 0.090976
vn 0.155779 0.985863 0.061708
vn 0.155779 0.985863 0.061708
vn 0.155779 0.985863 0.061708
vn 0.155779 0.985863 0.061708
vn 0.268630 0.958852 -0.091878
vn 0.268630 0.958852 -0.091878
vn 0.268630 0.958852 -0.091878
vn 0.268630 0.958852 -0.091878
vn 0.237897 0.904376 -0.354272
vn 0.237897 0.904376 -0.354272
vn 0.237897 0.904376 -0.354272
vn 0.237897 0.904376 -0.354272
vn 0.201606 -0.942107 -0.267934
vn 0.201606 -0.942107 -0.267934
vn 0.201606 -0.942107 -0.267934
vn 0.201606 -0.942107 -0.267935
vn -0.202623 -0.940999 -0.271043
vn -0.202623 -0.940999 -0.271043
vn -0.202623 -0.940999 -0.271043
vn -0.202623 -0.940999 -0.271043
vn -0.454648 -0.889455 -0.046524
vn -0.454648 -0.889455 -0.046524
vn -0.454648 -0.889455 -0.046524
vn -0.454648 -0.889455 -0.046524
vn -0.414610 -0.797556 0.438181
vn -0.414610 -0.797556 0.438181
vn -0.414610 -0.797556 0.438181
vn -0.414610 -0.797556 0.438181
vn -0.224783 -0.766564 0.601541
vn -0.224783 -0.766564 0.601541
vn -0.224783 -0.766564 0.601541
vn -0.224783 -0.766564 0.601541
vn 0.229307 -0.767140 0.599094
vn 0.229307 -0.767140 0.599094
vn 0.229307 -0.767140 0.599094
vn 0.229307 -0.767140 0.599094
vn 0.414239 -0.792726 0.447204
vn 0.414239 -0.792726 0.447205
vn 0.414239 -0.792726 0.447204
vn 0.414239 -0.792726 0.447204
vn 0.450859 -0.890792 -0.056707
vn 0.450859 -0.890792 -0.056707
vn 0.450859 -0.890792 -0.056707
vn 0.450859 -0.890792 -0.056707
vn -0.461868 0.311250 0.830543
vn -0.461868 0.311250 0.830543
vn -0.461868 0.311250 0.830543
vn -0.461868 0.311250 0.830543
vn -0.852207 0.431374 0.296073
vn -0.852207 0.431374 0.296073
vn -0.852207 0.431374 0.296073
vn -0.852207 0.431374 0.296073
vn -0.934906 0.006793 -0.354831
vn -0.934906 0.006793 -0.354831
vn -0.934906 0.006793 -0.354831
vn -0.934906 0.006793 -0.354831
vn -0.323113 -0.222662 -0.919793
vn -0.323113 -0.222662 -0.919793
vn -0.323113 -0.222662 -0.919793
vn -0.323113 -0.222662 -0.919793
vn 0.350473 0.024525 -0.936252
vn 0.350473 0.024525 -0.936252
vn 0.350473 0.024525 -0.936252
vn 0.350473 0.024525 -0.936252
vn 0.916681 -0.067399 -0.393894
vn 0.916681 -0.067399 -0.393894
vn 0.916681 -0.067399 -0.393894
vn 0.916681 -0.067399 -0.393894
vn 0.915794 -0.041451 0.399504
vn 0.915794 -0.041451 0.399504
vn 0.915794 -0.041451 0.399504
vn 0.915794 -0.041451 0.399504
vn 0.410427 0.169703 0.895963
vn 0.410427 0.169703 0.895963
vn 0.410427 0.169703 0.895963
vn 0.410427 0.169703 0.895963
vn -0.418131 0.390236 0.820294
vn -0.418131 0.390236 0.820294
vn -0.418131 0.390236 0.820294
vn -0.418131 0.390236 0.820294
vn -0.909649 0.258160 0.325411
vn -0.909649 0.258160 0.325411
vn -0.909649 0.258160 0.325411
vn -0.909649 0.258160 0.325411
vn -0.938448 0.114655 -0.325837
vn -0.938448 0.114655 -0.325837
vn -0.938448 0.114655 -0.325837
vn -0.938448 0.114655 -0.325837
vn -0.293150 -0.008070 -0.956032
vn -0.293150 -0.008070 -0.956032
vn -0.293150 -0.008070 -0.956033
vn -0.293150 -0.008070 -0.956033
vn 0.354112 -0.049504 -0.933892
vn 0.354112 -0.049504 -0.933892
vn 0.354112 -0.049504 -0.933892
vn 0.354112 -0.049504 -0.933892
vn 0.891309 0.107352 -0.440505
vn 0.891309 0.107352 -0.440505
vn 0.891309 0.107352 -0.440505
vn 0.891309 0.107352 -0.440505
vn 0.839429 0.470956 0.271219
vn 0.839429 0.470956 0.271219
vn 0.839429 0.470956 0.271219
vn 0.839429 0.470956 0.271219
vn 0.371340 0.540721 0.754803
vn 0.371340 0.540721 0.754803
vn 0.371340 0.540721 0.754803
vn 0.371340 0.540721 0.754803
vn -0.446972 -0.021791 0.894283
vn -0.446972 -0.021791 0.894283
vn -0.446972 -0.021791 0.894283
vn -0.829888 -0.350749 0.433890
vn -0.829888 -0.350749 0.433890
vn -0.829888 -0.350749 0.433890
vn -0.829888 -0.350749 0.433890
vn -0.855240 -0.485463 -0.181357
vn -0.855240 -0.485463 -0.181357
vn -0.855240 -0.485463 -0.181357
vn -0.262879 -0.739766 -0.619388
vn -0.262879 -0.739766 -0.619387
vn -0.262879 -0.739766 -0.619387
vn 0.326580 -0.680489 -0.655958
vn 0.326580 -0.680489 -0.655958
vn 0.326580 -0.680489 -0.655958
vn 0.326580 -0.680489 -0.655958
vn 0.883002 -0.240768 -0.402912
vn 0.883002 -0.240768 -0.402912
vn 0.883002 -0.240768 -0.402912
vn -0.400280 -0.243957 0.883324
vn -0.400280 -0.243957 0.883324
vn -0.400280 -0.243957 0.883324
vn -0.783787 -0.388010 0.484899
vn -0.783787 -0.388010 0.484899
vn -0.783787 -0.388010 0.484899
vn -0.676046 -0.715097 -0.177755
vn -0.676047 -0.715097 -0.177755
vn -0.676046 -0.715097 -0.177755
vn -0.283297 -0.805410 -0.520632
vn -0.283297 -0.805410 -0.520632
vn -0.283297 -0.805410 -0.520632
vn -0.283297 -0.805410 -0.520632
vn 0.278290 -0.705049 -0.652273
vn 0.278290 -0.705049 -0.652273
vn 0.278290 -0.705049 -0.652273
vn 0.665726 -0.743084 -0.068072
vn 0.665726 -0.743084 -0.068072
vn 0.665726 -0.743084 -0.068072
vn 0.642080 -0.641442 0.419864
vn 0.642080 -0.641442 0.419864
vn 0.642080 -0.641442 0.419864
vn 0.642080 -0.641442 0.419864
vn 0.355506 -0.431335 0.829195
vn 0.355506 -0.431335 0.829195
vn 0.355506 -0.431335 0.829195
s off
f 1/9/1 2/10/2 57/78/3 40/59/4
f 2/10/5 3/11/6 56/77/7 57/78/8
f 3/11/9 4/12/10 37/55/11 56/77/12
f 4/12/13 5/13/14 55/76/15 37/55/16
f 5/13/17 6/14/18 35/53/19 55/76/20
f 6/14/21 7/15/22 59/80/23 35/53/24
f 7/15/25 8/16/26 58/79/27 59/80/28
f 8/16/29 1/17/30 40/58/31 58/79/32
f 27/45/33 26/46/34 28/35/35
f 29/47/36 27/45/37 28/35/38
f 30/48/39 29/47/40 28/35/41
f 31/49/42 30/48/43 28/35/44
f 32/50/45 31/49/46 28/35/47
f 33/51/48 32/50/49 28/35/50
f 34/52/51 33/51/52 28/35/53
f 26/46/54 34/52/55 28/35/56
f 17/37/57 18/38/58 19/36/59
f 18/38/60 20/39/61 19/36/62
f 20/39/63 21/40/64 19/36/65
f 21/40/66 22/41/67 19/36/68
f 22/41/69 23/42/70 19/36/71
f 23/42/72 24/43/73 19/36/74
f 24/43/75 25/44/76 19/36/77
f 25/44/78 17/37/79 19/36/80
f 9/33/81 10/32/82 18/38/83 17/37/84
f 10/32/85 11/31/86 20/39/87 18/38/88
f 11/31/89 12/30/90 21/40/91 20/39/92
f 12/30/93 13/29/94 22/41/95 21/40/96
f 13/29/97 14/28/98 23/42/99 22/41/100
f 14/28/101 15/27/102 24/43/103 23/42/104
f 15/27/105 16/34/106 25/44/107 24/43/108
f 16/34/109 9/33/110 17/37/111 25/44/112
f 2/2/113 1/1/114 26/46/115 27/45/116
f 3/3/117 2/2/118 27/45/119 29/47/120
f 4/4/121 3/3/122 29/47/123 30/48/124
f 5/5/125 4/4/126 30/48/127 31/49/128
f 6/6/129 5/5/130 31/49/131 32/50/132
f 7/7/133 6/6/134 32/50/135 33/51/136
f 8/8/137 7/7/138 33/51/139 34/52/140
f 1/1/141 8/8/142 34/52/143 26/46/144
f 36/54/145 35/53/146 43/62/147 51/71/148
f 37/55/149 36/54/150 51/71/151 52/72/152
f 38/56/153 37/55/154 52/72/155 46/65/156
f 39/57/157 38/56/158 46/65/159 53/73/160
f 40/59/161 39/57/162 53/73/163 54/75/164
f 41/60/165 40/58/166 54/74/167 49/69/168
f 42/61/169 41/60/170 49/69/171 50/70/172
f 35/53/173 42/61/174 50/70/175 43/62/176
f 44/63/177 43/62/178 14/23/179 13/22/180
f 45/64/181 44/63/182 13/22/183 12/21/184
f 46/65/185 45/64/186 12/21/187 11/20/188
f 47/66/189 46/65/190 11/20/191 10/19/192
f 48/68/193 47/66/194 10/19/195 9/18/196
f 49/69/197 48/67/198 9/26/199 16/25/200
f 50/70/201 49/69/202 16/25/203 15/24/204
f 43/62/205 50/70/206 15/24/207 14/23/208
f 51/81/209 43/82/210 44/83/211
f 52/84/212 51/81/213 44/83/214 45/85/215
f 46/86/216 52/84/217 45/85/218
f 53/87/219 46/86/220 47/88/221
f 54/89/222 53/87/223 47/88/224 48/90/225
f 49/91/226 54/89/227 48/90/228
f 55/92/229 35/93/230 36/94/231
f 37/95/232 55/92/233 36/94/234
f 56/96/235 37/95/236 38/97/237
f 57/98/238 56/96/239 38/97/240 39/99/241
f 40/100/242 57/98/243 39/99/244
f 58/101/245 40/100/246 41/102/247
f 59/103/248 58/101/249 41/102/250 42/104/251
f 35/93/252 59/103/253 42/104/254
