# This file uses meters as units for non-parametric coordinates.

v 505.785645 -811.537296 159.783203
v 505.785645 -833.680607 149.691406
v 515.585449 -833.680607 138.546875
v 514.483887 -811.537296 153.408203
v 505.785645 -44.104718 149.691406
v 505.785645 -66.247997 159.783203
v 514.483887 -66.247997 153.408203
v 515.585449 -44.104718 138.546875
v 505.785645 -66.247997 -163.703125
v 505.785645 -44.104718 -153.611328
v 515.585449 -44.104718 -142.466797
v 514.483887 -91.910793 -157.330078
v 505.785645 -833.680607 -153.611328
v 505.785645 -811.537296 -163.703125
v 514.483887 -811.537296 -157.330078
v 515.585449 -833.680607 -142.466797
v 563.431152 -811.537296 -75.214844
v 567.229980 -811.537296 -58.751953
v 562.330078 -833.680607 -64.046875
v 567.229980 -811.537296 54.832031
v 563.431152 -811.537296 71.294922
v 562.330078 -833.680607 60.126953
v 567.229980 -66.247997 54.832031
v 562.330078 -44.104718 60.126953
v 563.431152 -91.910793 71.294922
v 567.229980 -66.247997 -58.751953
v 563.431152 -66.247997 -75.214844
v 562.330078 -44.104718 -64.046875
v -512.859863 -811.537296 153.408203
v -513.960938 -833.680607 138.546875
v -504.161133 -833.680607 149.691406
v -504.161133 -811.537296 159.783203
v -513.960938 -44.104718 138.546875
v -512.859863 -66.247997 153.408203
v -504.161133 -66.247997 159.783203
v -504.161133 -44.104718 149.691406
v -512.859863 -66.247997 -157.330078
v -513.960938 -44.104718 -142.466797
v -504.161133 -44.104718 -153.611328
v -504.161133 -95.457489 -163.703125
v -513.960938 -833.680607 -142.466797
v -512.859863 -811.537296 -157.330078
v -492.663574 -811.537296 -163.703125
v -504.161133 -833.680607 -153.611328
v -565.605957 -811.537296 -58.751953
v -561.807129 -811.537296 -75.214844
v -560.706055 -833.680607 -64.046875
v -561.807129 -811.537296 71.294922
v -565.605957 -811.537296 54.832031
v -560.706055 -833.680607 60.126953
v -560.706055 -44.104718 60.126953
v -565.605957 -66.247997 54.832031
v -561.807129 -95.431305 71.294922
v -561.807129 -66.247997 -75.214844
v -565.605957 -66.247997 -58.751953
v -560.706055 -44.104718 -64.046875
v -561.807129 -249.010365 71.294922
v -517.314941 -249.010380 147.732422
v -504.161133 -249.010365 159.783203
v 505.785645 -249.010380 159.783203
v 519.186523 -249.010365 150.226563
v 563.431152 -249.010380 71.294922
v 567.229980 -341.215916 54.832031
v 567.229980 -249.010380 -58.751953
v 563.497559 -304.167744 -86.171875
v 519.878418 -246.052418 -154.296875
v 505.785645 -321.421848 -163.703125
v -504.161133 -249.010380 -163.703125
v -518.200195 -358.043827 -148.265625
v -561.807129 -249.010380 -75.214844
v -567.758789 -245.702045 -45.398438
v -565.605957 -249.010380 54.832031
v -556.635254 -608.631657 85.025391
v -512.859863 -608.631657 153.408203
v -496.513184 -421.225620 159.783203
v 498.451172 -603.788456 167.433594
v 514.483887 -608.631657 153.408203
v 561.061035 -377.025089 82.796875
v 566.903809 -614.919437 42.658203
v 567.758789 -520.396854 -53.617188
v 561.469238 -636.944279 -83.632813
v 519.514160 -612.022404 -154.103516
v 499.628906 -617.740238 -167.435547
v -504.161133 -608.631657 -163.701172
v -512.859863 -608.631657 -157.330078
v -561.807129 -608.631657 -75.214844
v -565.605957 -608.631657 -58.751953
v -565.605957 -608.631657 54.832031
vt 0.122354 0.278375
vt 0.122354 0.278375
vt 0.122354 0.278375
vt 0.122354 0.278375
vt 0.122354 0.278375
vt 0.122354 0.278375
vt 0.122354 0.278375
vt 0.122354 0.278375
vt 0.122354 0.278375
vt 0.122354 0.278375
vt 0.122354 0.278375
vt 0.122354 0.278375
vt 0.122354 0.278375
vt 0.122354 0.278375
vt 0.122354 0.278375
vt 0.122354 0.278375
vt 0.122354 0.278375
vt 0.122354 0.278375
vt 0.122354 0.278375
vt 0.122354 0.278375
vt 0.122354 0.278375
vt 0.122354 0.278375
vt 0.122354 0.278375
vt 0.122354 0.278375
vt 0.122354 0.278375
vt 0.122354 0.278375
vt 0.122354 0.278375
vt 0.122354 0.278375
vt 0.122354 0.278375
vt 0.122354 0.278375
vt 0.122354 0.278375
vt 0.122354 0.278375
vt 0.122354 0.278375
vt 0.122354 0.278375
vt 0.122354 0.278375
vt 0.122354 0.278375
vt 0.122354 0.278375
vt 0.122354 0.278375
vt 0.122354 0.278375
vt 0.122354 0.278375
vt 0.122354 0.278375
vt 0.122354 0.278375
vt 0.122354 0.278375
vt 0.122354 0.278375
vt 0.122354 0.278375
vt 0.122354 0.278375
vt 0.122354 0.278375
vt 0.122354 0.278375
vt 0.122354 0.278375
vt 0.122354 0.278375
vt 0.122354 0.278375
vt 0.122354 0.278375
vt 0.122354 0.278375
vt 0.122354 0.278375
vt 0.122354 0.278375
vt 0.122354 0.278375
vt 0.122354 0.278375
vt 0.122354 0.278375
vt 0.122354 0.278375
vt 0.122354 0.278375
vt 0.122354 0.278375
vt 0.122354 0.278375
vt 0.122354 0.278375
vt 0.122354 0.278375
vt 0.122354 0.278375
vt 0.122354 0.278375
vt 0.122354 0.278375
vt 0.122354 0.278375
vt 0.122354 0.278375
vt 0.122354 0.278375
vt 0.122354 0.278375
vt 0.122354 0.278375
vt 0.122354 0.278375
vt 0.122354 0.278375
vt 0.122354 0.278375
vt 0.122354 0.278375
vt 0.122354 0.278375
vt 0.122354 0.278375
vt 0.122354 0.278375
vt 0.122354 0.278375
vt 0.122354 0.278375
vt 0.122354 0.278375
vt 0.122354 0.278375
vt 0.122354 0.278375
vt 0.122354 0.278375
vt 0.122354 0.278375
vt 0.122354 0.278375
vt 0.122354 0.278375
vn 0.000000 -1.000000 0.000000
vn 0.000000 -1.000000 0.000000
vn 0.000000 -1.000000 0.000000
vn 0.000000 -1.000000 0.000000
vn 0.000000 -1.000000 0.000000
vn 0.000000 -1.000000 0.000000
vn 0.000000 -1.000000 0.000000
vn 0.000000 -1.000000 0.000000
vn 0.858838 0.005216 0.512221
vn 0.866011 0.007298 0.499972
vn 0.866011 0.007298 0.499972
vn 0.858515 0.005124 0.512762
vn -0.000000 -0.000001 1.000000
vn -0.000000 -0.000001 1.000000
vn -0.001386 0.008067 0.999967
vn -0.001432 0.008330 0.999964
vn 0.000000 1.000000 0.000000
vn 0.000000 1.000000 0.000000
vn 0.000000 1.000000 0.000000
vn 0.000000 1.000000 0.000000
vn 0.000000 1.000000 0.000000
vn 0.000000 1.000000 0.000000
vn 0.000000 1.000000 0.000000
vn 0.000000 1.000000 0.000000
vn 0.853317 0.022412 -0.520911
vn 0.850828 0.003873 -0.525429
vn 0.851395 0.007893 -0.524466
vn 0.853317 0.022412 -0.520911
vn -0.000983 0.003457 -0.999994
vn -0.000991 0.003485 -0.999994
vn -0.000000 0.000000 -1.000000
vn -0.000000 0.000000 -1.000000
vn 1.000000 0.000000 0.000000
vn 1.000000 0.000000 0.000000
vn 0.999996 0.000198 0.002726
vn 0.999998 0.000128 0.001762
vn 0.000000 -1.000000 0.000000
vn 0.000000 -1.000000 0.000000
vn 0.000000 -1.000000 0.000000
vn 0.000000 -1.000000 0.000000
vn -0.861748 0.002850 0.507329
vn -0.861748 0.002850 0.507329
vn -0.856673 0.002698 0.515852
vn -0.856619 0.002696 0.515943
vn 0.000000 1.000000 0.000000
vn 0.000000 1.000000 0.000000
vn 0.000000 1.000000 0.000000
vn 0.000000 1.000000 0.000000
vn -0.858812 0.000025 -0.512291
vn -0.858828 -0.000028 -0.512263
vn -0.858857 -0.000119 -0.512216
vn -0.858857 -0.000119 -0.512216
vn -0.999949 -0.000040 0.010069
vn -0.999928 0.006319 0.010167
vn -0.999928 0.006319 0.010167
vn -0.999949 0.000139 0.010072
vn 0.000000 -0.414671 0.909971
vn 0.000000 -0.414671 0.909971
vn 0.000000 -0.414671 0.909971
vn 0.000000 -0.414671 0.909971
vn 0.000000 -1.000000 0.000000
vn 0.000000 -1.000000 0.000000
vn 0.000000 -1.000000 0.000000
vn 0.000000 -1.000000 0.000000
vn 0.822533 -0.288178 0.490298
vn 0.822533 -0.288178 0.490298
vn 0.822533 -0.288178 0.490298
vn 0.822533 -0.288178 0.490298
vn 0.615104 0.001083 0.788446
vn 0.614923 0.001079 0.788587
vn 0.584749 0.000456 0.811214
vn 0.584749 0.000456 0.811214
vn 0.000000 0.414671 0.909971
vn 0.000000 0.414671 0.909971
vn 0.000000 0.414671 0.909971
vn 0.000000 0.414671 0.909971
vn 0.857377 0.179504 0.482373
vn 0.857377 0.179504 0.482373
vn 0.857377 0.179504 0.482373
vn 0.857377 0.179504 0.482373
vn 0.000000 1.000000 0.000000
vn 0.000000 1.000000 0.000000
vn 0.000000 1.000000 0.000000
vn 0.000000 1.000000 0.000000
vn -0.003829 0.264787 -0.964299
vn -0.003829 0.264787 -0.964299
vn -0.003829 0.264787 -0.964299
vn -0.003829 0.264787 -0.964299
vn 0.828370 0.195369 -0.525009
vn 0.828370 0.195369 -0.525009
vn 0.828370 0.195369 -0.525009
vn 0.828370 0.195369 -0.525009
vn 0.567209 0.001371 -0.823573
vn 0.567209 0.001371 -0.823573
vn 0.563306 0.000348 -0.826248
vn 0.558978 -0.000783 -0.829182
vn 0.000000 -0.414671 -0.909972
vn 0.000000 -0.414671 -0.909972
vn 0.000000 -0.414671 -0.909972
vn 0.000000 -0.414671 -0.909971
vn 0.822533 -0.288180 -0.490298
vn 0.822533 -0.288180 -0.490298
vn 0.822533 -0.288180 -0.490298
vn 0.822533 -0.288180 -0.490298
vn 0.985803 0.000687 -0.167905
vn 0.986921 -0.003178 -0.161174
vn 0.984575 0.004710 -0.174899
vn 0.984575 0.004710 -0.174899
vn 0.976381 -0.216055 0.000000
vn 0.976381 -0.216055 0.000000
vn 0.976381 -0.216055 0.000000
vn 0.976381 -0.216055 0.000000
vn 0.975468 -0.001822 0.220136
vn 0.978005 -0.006329 0.208486
vn 0.974397 0.000000 0.224833
vn 0.974397 0.000000 0.224833
vn 0.976381 0.216055 0.000000
vn 0.976381 0.216055 0.000000
vn 0.976381 0.216055 0.000000
vn 0.976381 0.216055 0.000000
vn -0.822533 -0.288178 0.490298
vn -0.822533 -0.288178 0.490298
vn -0.822533 -0.288178 0.490298
vn -0.822533 -0.288178 0.490298
vn 0.000000 -1.000000 0.000000
vn 0.000000 -1.000000 0.000000
vn 0.000000 -1.000000 0.000000
vn 0.000000 -1.000000 0.000000
vn -0.560075 -0.003097 0.828436
vn -0.558208 -0.003077 0.829695
vn -0.644564 -0.004020 0.764539
vn -0.644564 -0.004020 0.764540
vn -0.859714 0.170576 0.481452
vn -0.859714 0.170576 0.481452
vn -0.859714 0.170576 0.481452
vn -0.859714 0.170576 0.481452
vn 0.000000 1.000000 0.000000
vn 0.000000 1.000000 0.000000
vn 0.000000 1.000000 0.000000
vn 0.000000 1.000000 0.000000
vn -0.822533 0.288178 -0.490298
vn -0.822533 0.288178 -0.490298
vn -0.822533 0.288178 -0.490298
vn -0.822533 0.288178 -0.490298
vn -0.679739 -0.006777 -0.733423
vn -0.679738 -0.006777 -0.733423
vn -0.685894 -0.003875 -0.727691
vn -0.700548 0.003140 -0.713598
vn -0.822533 -0.288178 -0.490298
vn -0.822533 -0.288178 -0.490298
vn -0.822533 -0.288178 -0.490298
vn -0.822533 -0.288178 -0.490298
vn -0.978516 0.000035 -0.206172
vn -0.978516 -0.000003 -0.206170
vn -0.978540 -0.001778 -0.206047
vn -0.978540 -0.001778 -0.206047
vn -0.976381 -0.216055 0.000000
vn -0.976381 -0.216055 0.000000
vn -0.976381 -0.216055 0.000000
vn -0.976381 -0.216055 0.000000
vn -0.967105 -0.001429 0.254375
vn -0.966985 -0.001451 0.254828
vn -0.974397 0.000000 0.224833
vn -0.974397 0.000000 0.224833
vn -0.976381 0.216055 0.000000
vn -0.976381 0.216055 0.000000
vn -0.976381 0.216055 0.000000
vn -0.976381 0.216055 0.000000
vn 0.640167 -0.364970 0.676005
vn 0.640167 -0.364970 0.676005
vn 0.640167 -0.364970 0.676005
vn 0.640167 -0.364970 0.676005
vn 0.640166 0.364971 0.676006
vn 0.640166 0.364971 0.676006
vn 0.640166 0.364971 0.676006
vn 0.640166 0.364971 0.676006
vn 0.801040 0.189901 -0.567691
vn 0.801040 0.189901 -0.567691
vn 0.801040 0.189901 -0.567691
vn 0.801040 0.189901 -0.567691
vn 0.640166 -0.364971 -0.676005
vn 0.640166 -0.364971 -0.676005
vn 0.640166 -0.364971 -0.676005
vn 0.640166 -0.364971 -0.676005
vn 0.961882 -0.159764 -0.221945
vn 0.961882 -0.159764 -0.221945
vn 0.961881 -0.159764 -0.221945
vn 0.961882 -0.159762 0.221945
vn 0.961882 -0.159762 0.221945
vn 0.961882 -0.159762 0.221945
vn 0.916514 0.110889 0.384325
vn 0.916514 0.110889 0.384325
vn 0.916514 0.110889 0.384325
vn 0.961881 0.159763 -0.221946
vn 0.961881 0.159763 -0.221946
vn 0.961881 0.159763 -0.221946
vn -0.640166 -0.364973 0.676005
vn -0.640166 -0.364973 0.676005
vn -0.640166 -0.364973 0.676005
vn -0.640166 -0.364973 0.676005
vn -0.640165 0.364973 0.676005
vn -0.640165 0.364973 0.676005
vn -0.640165 0.364973 0.676005
vn -0.640165 0.364973 0.676005
vn -0.370802 0.293585 -0.881087
vn -0.370802 0.293585 -0.881087
vn -0.370802 0.293585 -0.881087
vn -0.370802 0.293585 -0.881087
vn -0.477012 -0.324514 -0.816793
vn -0.477012 -0.324514 -0.816793
vn -0.477012 -0.324514 -0.816793
vn -0.477012 -0.324514 -0.816793
vn -0.961882 -0.159761 -0.221945
vn -0.961882 -0.159761 -0.221945
vn -0.961882 -0.159761 -0.221945
vn -0.961882 -0.159761 0.221945
vn -0.961882 -0.159761 0.221945
vn -0.961882 -0.159761 0.221945
vn -0.910970 0.106258 0.398552
vn -0.910970 0.106258 0.398552
vn -0.910970 0.106258 0.398552
vn -0.961882 0.159761 -0.221946
vn -0.961882 0.159761 -0.221946
vn -0.961882 0.159761 -0.221946
vn -0.856619 0.002696 0.515943
vn -0.856673 0.002698 0.515852
vn -0.852941 -0.001009 0.522007
vn -0.852942 -0.001003 0.522005
vn -0.495600 0.004717 0.868538
vn -0.515479 -0.001945 0.856900
vn -0.558208 -0.003077 0.829695
vn -0.560075 -0.003097 0.828436
vn -0.001432 0.008330 0.999964
vn -0.001386 0.008067 0.999967
vn -0.003748 0.000760 0.999993
vn -0.003870 -0.000582 0.999992
vn 0.628540 0.000014 0.777777
vn 0.628939 -0.000150 0.777454
vn 0.614923 0.001079 0.788587
vn 0.615104 0.001083 0.788446
vn 0.852280 0.000061 0.523086
vn 0.858838 0.005216 0.512221
vn 0.858515 0.005124 0.512762
vn 0.852129 -0.004417 0.523314
vn 0.980192 -0.005123 0.197985
vn 0.988128 0.003675 0.153588
vn 0.978005 -0.006329 0.208486
vn 0.975468 -0.001822 0.220136
vn 0.999998 0.000128 0.001762
vn 0.999996 0.000198 0.002726
vn 0.999992 -0.000089 0.004090
vn 0.999991 0.000087 0.004205
vn 0.986246 -0.003810 -0.165237
vn 0.979676 -0.000105 -0.200589
vn 0.986921 -0.003178 -0.161174
vn 0.985803 0.000687 -0.167905
vn 0.851395 0.007893 -0.524466
vn 0.850828 0.003873 -0.525429
vn 0.853055 -0.008759 -0.521747
vn 0.852576 -0.008241 -0.522538
vn 0.558978 -0.000783 -0.829182
vn 0.563306 0.000348 -0.826248
vn 0.560864 -0.000562 -0.827907
vn 0.561308 -0.000487 -0.827607
vn -0.001732 -0.000112 -0.999999
vn -0.001719 0.000615 -0.999998
vn -0.000991 0.003485 -0.999994
vn -0.000983 0.003457 -0.999994
vn -0.700548 0.003140 -0.713598
vn -0.685894 -0.003875 -0.727691
vn -0.586724 -0.002287 -0.809784
vn -0.601672 -0.001473 -0.798742
vn -0.858870 0.000054 -0.512193
vn -0.858867 0.000056 -0.512199
vn -0.858828 -0.000028 -0.512263
vn -0.858812 0.000025 -0.512291
vn -0.977362 0.000638 -0.211571
vn -0.977405 0.000648 -0.211375
vn -0.978516 -0.000003 -0.206170
vn -0.978516 0.000035 -0.206172
vn -0.999978 -0.001982 0.006277
vn -0.999949 -0.000040 0.010069
vn -0.999949 0.000139 0.010072
vn -0.999979 -0.001943 0.006153
vn -0.964530 0.000000 0.263974
vn -0.964530 -0.000067 0.263974
vn -0.966985 -0.001451 0.254828
vn -0.967105 -0.001429 0.254375
vn -0.852942 -0.001003 0.522005
vn -0.852941 -0.001009 0.522007
vn -0.851364 -0.006898 0.524529
vn -0.851364 -0.006898 0.524530
vn -0.490750 0.006328 0.871277
vn -0.490750 0.006328 0.871277
vn -0.515479 -0.001945 0.856900
vn -0.495600 0.004717 0.868538
vn -0.003870 -0.000582 0.999992
vn -0.003748 0.000760 0.999993
vn -0.004981 -0.012790 0.999906
vn -0.004981 -0.012790 0.999906
vn 0.635931 -0.003023 0.771740
vn 0.635931 -0.003023 0.771740
vn 0.628939 -0.000150 0.777454
vn 0.628540 0.000014 0.777777
vn 0.852061 -0.006275 0.523405
vn 0.852280 0.000061 0.523086
vn 0.852129 -0.004417 0.523314
vn 0.852061 -0.006275 0.523405
vn 0.988677 0.004384 0.149997
vn 0.988677 0.004384 0.149997
vn 0.988128 0.003675 0.153588
vn 0.980192 -0.005123 0.197985
vn 0.999991 0.000087 0.004205
vn 0.999992 -0.000089 0.004090
vn 0.999992 -0.000360 0.003912
vn 0.999992 -0.000360 0.003912
vn 0.976464 0.001484 -0.215674
vn 0.976464 0.001484 -0.215674
vn 0.979676 -0.000105 -0.200589
vn 0.986246 -0.003810 -0.165237
vn 0.852576 -0.008241 -0.522538
vn 0.853055 -0.008759 -0.521747
vn 0.857995 -0.014160 -0.513463
vn 0.857995 -0.014160 -0.513463
vn 0.561308 -0.000487 -0.827607
vn 0.560864 -0.000562 -0.827907
vn 0.567528 0.000565 -0.823354
vn 0.567527 0.000565 -0.823354
vn -0.001908 -0.009495 -0.999953
vn -0.001908 -0.009495 -0.999953
vn -0.001719 0.000615 -0.999998
vn -0.001732 -0.000112 -0.999999
vn -0.601672 -0.001473 -0.798742
vn -0.586724 -0.002287 -0.809784
vn -0.403568 -0.011433 -0.914878
vn -0.403568 -0.011433 -0.914878
vn -0.858974 0.000000 -0.512020
vn -0.858974 0.000000 -0.512020
vn -0.858867 0.000056 -0.512199
vn -0.858870 0.000054 -0.512193
vn -0.974397 -0.000001 -0.224835
vn -0.974397 -0.000001 -0.224835
vn -0.977405 0.000648 -0.211375
vn -0.977362 0.000638 -0.211571
vn -1.000000 0.000000 0.000000
vn -0.999978 -0.001982 0.006277
vn -0.999979 -0.001943 0.006153
vn -1.000000 0.000000 0.000000
vn -0.964524 0.003360 0.263973
vn -0.964524 0.003360 0.263973
vn -0.964530 -0.000067 0.263974
vn -0.964530 0.000000 0.263974
s off
f 31/13/1 44/51/2 13/37/3 2/30/4
f 16/7/5 19/9/6 22/42/7 3/31/8
f 62/62/9 25/44/10 7/33/11 61/61/12
f 6/2/13 35/15/14 59/59/15 60/60/16
f 24/11/17 28/45/18 11/35/19 8/34/20
f 10/4/21 39/18/22 36/48/23 5/3/24
f 27/8/25 65/65/26 66/66/27 12/36/28
f 67/67/29 68/68/30 40/49/31 9/5/32
f 26/12/33 23/43/34 63/63/35 64/64/36
f 50/25/37 47/52/38 41/50/39 30/46/40
f 34/16/41 53/27/42 57/57/43 58/58/44
f 38/19/45 56/29/46 51/54/47 33/17/48
f 69/69/49 70/70/50 54/55/51 37/20/52
f 72/72/53 52/28/54 55/56/55 71/71/56
f 2/30/57 1/1/58 32/47/59 31/13/60
f 3/31/61 2/30/62 13/37/63 16/7/64
f 4/32/65 3/31/66 22/42/67 21/10/68
f 60/60/69 61/61/70 7/33/71 6/2/72
f 6/2/73 5/3/74 36/48/75 35/15/76
f 8/34/77 7/33/78 25/44/79 24/11/80
f 5/3/81 8/34/82 11/35/83 10/4/84
f 10/4/85 9/5/86 40/49/87 39/18/88
f 12/36/89 11/35/90 28/45/91 27/8/92
f 9/5/93 12/36/94 66/66/95 67/67/96
f 14/6/97 13/37/98 44/51/99 43/21/100
f 16/7/101 15/38/102 17/39/103 19/9/104
f 64/64/105 65/65/106 27/8/107 26/12/108
f 19/9/109 18/40/110 20/41/111 22/42/112
f 62/62/113 63/63/114 23/43/115 25/44/116
f 24/11/117 23/43/118 26/12/119 28/45/120
f 30/46/121 29/14/122 48/53/123 50/25/124
f 31/13/125 30/46/126 41/50/127 44/51/128
f 58/58/129 59/59/130 35/15/131 34/16/132
f 34/16/133 33/17/134 51/54/135 53/27/136
f 33/17/137 36/48/138 39/18/139 38/19/140
f 38/19/141 37/20/142 54/55/143 56/29/144
f 37/20/145 40/49/146 68/68/147 69/69/148
f 42/22/149 41/50/150 47/52/151 46/23/152
f 70/70/153 71/71/154 55/56/155 54/55/156
f 45/24/157 47/52/158 50/25/159 49/26/160
f 72/72/161 57/57/162 53/27/163 52/28/164
f 52/28/165 51/54/166 56/29/167 55/56/168
f 1/1/169 2/30/170 3/31/171 4/32/172
f 5/3/173 6/2/174 7/33/175 8/34/176
f 9/5/177 10/4/178 11/35/179 12/36/180
f 13/37/181 14/6/182 15/38/183 16/7/184
f 17/39/185 18/40/186 19/9/187
f 20/41/188 21/10/189 22/42/190
f 23/43/191 24/11/192 25/44/193
f 26/12/194 27/8/195 28/45/196
f 29/14/197 30/46/198 31/13/199 32/47/200
f 33/17/201 34/16/202 35/15/203 36/48/204
f 37/20/205 38/19/206 39/18/207 40/49/208
f 41/50/209 42/22/210 43/21/211 44/51/212
f 45/24/213 46/23/214 47/52/215
f 48/53/216 49/26/217 50/25/218
f 51/54/219 52/28/220 53/27/221
f 54/55/222 55/56/223 56/29/224
f 58/58/225 57/57/226 73/73/227 74/74/228
f 74/74/229 75/75/230 59/59/231 58/58/232
f 60/60/233 59/59/234 75/75/235 76/76/236
f 76/76/237 77/77/238 61/61/239 60/60/240
f 78/78/241 62/62/242 61/61/243 77/77/244
f 78/78/245 79/79/246 63/63/247 62/62/248
f 64/64/249 63/63/250 79/79/251 80/80/252
f 80/80/253 81/81/254 65/65/255 64/64/256
f 66/66/257 65/65/258 81/81/259 82/82/260
f 67/67/261 66/66/262 82/82/263 83/83/264
f 83/83/265 84/84/266 68/68/267 67/67/268
f 69/69/269 68/68/270 84/84/271 85/85/272
f 85/85/273 86/86/274 70/70/275 69/69/276
f 86/86/277 87/87/278 71/71/279 70/70/280
f 88/88/281 72/72/282 71/71/283 87/87/284
f 88/88/285 73/73/286 57/57/287 72/72/288
f 74/74/289 73/73/290 48/53/291 29/14/292
f 29/14/293 32/47/294 75/75/295 74/74/296
f 76/76/297 75/75/298 32/47/299 1/1/300
f 1/1/301 4/32/302 77/77/303 76/76/304
f 21/10/305 78/78/306 77/77/307 4/32/308
f 21/10/309 20/41/310 79/79/311 78/78/312
f 80/80/313 79/79/314 20/41/315 18/40/316
f 18/40/317 17/39/318 81/81/319 80/80/320
f 82/82/321 81/81/322 17/39/323 15/38/324
f 83/83/325 82/82/326 15/38/327 14/6/328
f 14/6/329 43/21/330 84/84/331 83/83/332
f 85/85/333 84/84/334 43/21/335 42/22/336
f 42/22/337 46/23/338 86/86/339 85/85/340
f 46/23/341 45/24/342 87/87/343 86/86/344
f 49/26/345 88/88/346 87/87/347 45/24/348
f 49/26/349 48/53/350 73/73/351 88/88/352
