# This file uses meters as units for non-parametric coordinates.

v 0.000000 -361.940948 4.525284
v 200.000000 -361.940948 4.525284
v 0.000000 28.646904 17.281687
v 200.000000 28.646904 17.281687
v 0.000000 28.646904 -6.524905
v 200.000000 28.646904 -6.524905
v 0.000000 -361.940948 -12.591784
v 200.000000 -361.940948 -12.591784
v 200.000000 -2.975428 17.281687
v 0.000000 -2.975428 17.281687
v 0.000000 -9.045039 -12.591784
v 200.000000 -9.045039 -12.591784
v 200.000000 -9.045040 4.525284
v 0.000000 -9.045040 4.525284
v 85.027618 -361.940948 13.600685
v 114.972382 -361.940948 13.600685
v 85.027618 -0.275854 13.600685
v 114.972382 -0.275854 13.600685
v 75.981262 -2.975428 3.588662
v 124.018738 -2.975428 3.588662
v 75.981262 -361.940948 3.588662
v 124.018738 -361.940948 3.588662
v 133.912430 -1.515034 17.281687
v 136.750793 -9.045040 4.525284
v 136.750793 -361.940948 4.525284
v 136.750793 -361.940948 -12.591784
v 136.750793 -9.045039 -12.591784
v 136.750793 28.646904 -6.524905
v 164.730530 25.590340 17.281687
v 54.178680 28.646904 17.281687
v 94.552521 28.646904 17.281689
v 0.000000 23.741182 -12.591784
v 132.889862 19.921339 -12.591784
v 200.000000 23.741182 -12.591784
vt 0.206826 0.570900
vt 0.206826 0.570900
vt 0.207409 0.546433
vt 0.207409 0.546433
vt 0.207409 0.546433
vt 0.207409 0.546433
vt 0.206826 0.570900
vt 0.206826 0.570900
vt 0.206826 0.570900
vt 0.206826 0.570900
vt 0.206826 0.570900
vt 0.207409 0.546433
vt 0.206826 0.570900
vt 0.207409 0.546433
vt 0.207409 0.546433
vt 0.207409 0.546433
vt 0.206826 0.570900
vt 0.206826 0.570900
vt 0.206826 0.570900
vt 0.206826 0.570900
vt 0.206826 0.570900
vt 0.206826 0.570900
vt 0.206244 0.548181
vt 0.206244 0.548181
vt 0.206244 0.548181
vt 0.206244 0.548181
vt 0.206244 0.548181
vt 0.206244 0.548181
vt 0.206244 0.548181
vt 0.206244 0.548181
vt 0.206244 0.548181
vt 0.206244 0.548181
vt 0.206244 0.548181
vt 0.206244 0.548181
vt 0.206244 0.548181
vt 0.206244 0.548181
vt 0.206826 0.570900
vt 0.206826 0.570900
vt 0.207409 0.546433
vt 0.207409 0.546433
vt 0.207409 0.546433
vt 0.207409 0.546433
vt 0.206244 0.548181
vt 0.206244 0.548181
vt 0.206244 0.548181
vt 0.206244 0.548181
vt 0.206244 0.548181
vt 0.206244 0.548181
vt 0.207409 0.546433
vt 0.207409 0.546433
vt 0.207409 0.546433
vt 0.207409 0.546433
vt 0.207409 0.546433
vt 0.207409 0.546433
vt 0.207409 0.546433
vt 0.207409 0.546433
vt 0.207409 0.546433
vt 0.207409 0.546433
vt 0.207409 0.546433
vt 0.207409 0.546433
vt 0.207409 0.546433
vt 0.207409 0.546433
vt 0.207409 0.546433
vt 0.207409 0.546433
vt 0.207409 0.546433
vt 0.207409 0.546433
vt 0.207409 0.546433
vt 0.207409 0.546433
vt 0.207409 0.546433
vt 0.207409 0.546433
vt 0.207409 0.546433
vt 0.207409 0.546433
vt 0.207409 0.546433
vt 0.207409 0.546433
vt 0.207409 0.546433
vt 0.207409 0.546433
vt 0.207409 0.546433
vt 0.206826 0.570900
vt 0.207409 0.546433
vt 0.207409 0.546433
vt 0.207409 0.546433
vt 0.207409 0.546433
vt 0.207409 0.546433
vt 0.207409 0.546433
vt 0.207409 0.546433
vt 0.207409 0.546433
vt 0.207409 0.546433
vt 0.207409 0.546433
vt 0.207409 0.546433
vt 0.207409 0.546433
vt 0.207409 0.546433
vt 0.207409 0.546433
vt 0.207409 0.546433
vt 0.207409 0.546433
vt 0.207409 0.546433
vt 0.207409 0.546433
vt 0.207409 0.546433
vt 0.207409 0.546433
vt 0.207409 0.546433
vt 0.207409 0.546433
vt 0.207409 0.546433
vt 0.207409 0.546433
vt 0.207409 0.546433
vt 0.173937 0.506252
vt 0.248693 0.506252
vt 0.248693 0.742640
vt 0.173937 0.742640
vt 0.012306 0.506252
vt 0.012306 0.742640
vn 0.000000 0.000000 1.000000
vn 0.000000 0.000000 1.000000
vn 0.000000 0.000000 1.000000
vn 0.000000 0.000000 1.000000
vn -0.030906 0.996144 0.082110
vn -0.030906 0.996144 0.082110
vn -0.030906 0.996144 0.082110
vn -0.030906 0.996144 0.082110
vn 0.000000 0.000000 -1.000000
vn 0.000000 0.000000 -1.000000
vn 0.000000 0.000000 -1.000000
vn 0.000000 0.000000 -1.000000
vn 0.000000 -1.000000 0.000000
vn 0.000000 -1.000000 0.000000
vn 0.000000 -1.000000 0.000000
vn 0.000000 -1.000000 0.000000
vn 1.000000 0.000009 0.000000
vn 1.000000 0.000009 0.000000
vn 1.000000 0.000009 0.000000
vn 1.000000 0.000000 0.000000
vn 1.000000 0.000000 0.000000
vn 1.000000 0.000000 0.000000
vn 1.000000 0.000000 0.000000
vn 1.000000 0.000000 0.000000
vn 1.000000 0.000000 0.000000
vn -1.000000 0.000000 0.000000
vn -1.000000 0.000000 0.000000
vn -1.000000 0.000000 0.000000
vn -1.000000 0.000000 0.000000
vn -1.000000 0.000000 0.000000
vn -1.000000 0.000000 0.000000
vn -1.000000 0.000000 0.000000
vn -1.000000 0.000000 0.000000
vn -1.000000 0.000000 0.000000
vn 0.000000 0.000000 1.000000
vn -0.000000 0.000000 1.000000
vn -0.000000 0.000000 1.000000
vn -0.000000 0.000000 1.000000
vn -0.000000 0.000000 1.000000
vn -0.000000 0.000000 1.000000
vn -1.000000 0.000000 0.000000
vn -1.000000 0.000000 0.000000
vn -1.000000 0.000000 0.000000
vn -1.000000 0.000000 0.000000
vn -0.000000 0.000000 -1.000000
vn -0.000000 0.000000 -1.000000
vn -0.000000 0.000000 -1.000000
vn -0.000000 0.000000 -1.000000
vn 1.000000 0.000000 0.000000
vn 1.000000 0.000000 0.000000
vn 1.000000 0.000000 0.000000
vn 1.000000 0.000000 0.000000
vn -0.009969 -0.882873 0.469507
vn -0.009969 -0.882873 0.469507
vn -0.009969 -0.882873 0.469507
vn -0.009969 -0.882873 0.469507
vn 0.000000 0.000000 1.000000
vn 0.000000 0.000000 1.000000
vn 0.000000 0.000000 1.000000
vn 0.000000 0.000000 1.000000
vn 0.000000 0.000000 -1.000000
vn 0.000000 0.000000 -1.000000
vn 0.000000 0.000000 -1.000000
vn 0.000000 0.000000 -1.000000
vn 0.000000 -1.000000 -0.000004
vn 0.000000 -1.000000 -0.000004
vn 0.000000 -1.000000 -0.000004
vn 0.000000 -1.000000 -0.000004
vn 0.741983 0.000000 0.670418
vn 0.741983 0.000000 0.670418
vn 0.741983 0.000000 0.670418
vn 0.741983 0.000000 0.670418
vn -0.741983 0.000000 0.670418
vn -0.741983 0.000000 0.670418
vn -0.741983 0.000000 0.670418
vn -0.741983 0.000000 0.670418
vn 0.004760 -0.882227 0.470801
vn 0.004760 -0.882227 0.470801
vn 0.004760 -0.882227 0.470801
vn 0.004760 -0.882227 0.470801
vn 0.000000 0.000000 1.000000
vn 0.000000 0.000000 1.000000
vn 0.000000 0.000000 1.000000
vn 0.000000 0.000000 1.000000
vn 0.000000 -1.000000 0.000000
vn 0.000000 -1.000000 0.000000
vn 0.000000 -1.000000 0.000000
vn 0.000000 -1.000000 0.000000
vn 0.000000 0.000000 -1.000000
vn 0.000000 0.000000 -1.000000
vn 0.000000 0.000000 -1.000000
vn 0.000000 0.000000 -1.000000
vn 0.000000 0.000000 -1.000000
vn 0.000000 0.000000 -1.000000
vn 0.000000 0.000000 -1.000000
vn 0.000000 0.000000 -1.000000
vn 0.000000 1.000000 0.000000
vn 0.000000 1.000000 0.000000
vn 0.000000 1.000000 0.000000
vn 0.043384 0.996094 0.076901
vn 0.043384 0.996094 0.076901
vn 0.043384 0.996094 0.076901
vn 0.000000 1.000000 0.000000
vn 0.000000 1.000000 0.000000
vn 0.000000 1.000000 0.000000
vn 0.000000 1.000000 -0.000000
vn 0.000000 1.000000 -0.000000
vn 0.000000 1.000000 -0.000000
vn 0.000000 -0.000000 1.000000
vn 0.000000 -0.000000 1.000000
vn 0.000000 -0.000000 1.000000
vn 0.000000 -0.000000 1.000000
vn 0.000000 -0.000000 1.000000
vn 0.000000 -0.000000 1.000000
vn -0.000000 0.000000 1.000000
vn -0.000000 0.000000 1.000000
vn -0.000000 0.000000 1.000000
vn 0.000000 0.000000 1.000000
vn 0.000000 0.000000 1.000000
vn 0.000000 0.000000 1.000000
vn -1.000000 0.000000 0.000000
vn -1.000000 0.000000 0.000000
vn -1.000000 0.000000 0.000000
vn 0.009398 0.663370 -0.748232
vn 0.009398 0.663370 -0.748232
vn 0.009398 0.663370 -0.748232
vn 0.009398 0.663370 -0.748232
vn -0.019569 0.667845 -0.744043
vn -0.019569 0.667845 -0.744043
vn -0.019569 0.667845 -0.744043
vn -0.019569 0.667845 -0.744043
vn 1.000000 -0.000008 0.000000
vn 1.000000 -0.000008 0.000000
vn 1.000000 -0.000008 0.000000
s off
f 25/104/1 2/105/2 13/106/3 24/107/4
f 29/74/5 4/4/6 6/80/7 28/72/8
f 8/8/9 26/38/10 27/78/11 12/19/12
f 26/38/13 8/8/14 2/10/15 25/37/16
f 9/95/17 13/92/18 12/81/19
f 12/20/20 13/21/21 8/11/22
f 13/21/23 2/2/24 8/11/25
f 10/58/26 11/90/27 14/86/28
f 11/17/29 7/13/30 14/22/31
f 7/13/32 1/1/33 14/22/34
f 23/63/35 9/93/36 29/75/37
f 29/75/38 9/93/39 4/77/40
f 11/89/41 10/59/42 3/3/43 32/98/44
f 12/83/45 27/79/46 33/100/47 34/102/48
f 4/76/49 9/94/50 12/82/51 34/103/52
f 24/85/53 13/91/54 9/15/55 23/64/56
f 15/46/57 16/24/58 18/47/59 17/26/60
f 19/27/61 20/28/62 22/29/63 21/45/64
f 21/30/65 22/43/66 16/31/67 15/32/68
f 16/44/69 22/33/70 20/34/71 18/25/72
f 21/35/73 15/23/74 17/48/75 19/36/76
f 14/87/77 24/84/78 23/65/79 10/57/80
f 1/108/81 25/104/82 24/107/83 14/109/84
f 7/7/85 26/38/86 25/37/87 1/9/88
f 27/78/89 26/38/90 7/7/91 11/18/92
f 33/101/93 27/39/94 11/88/95 32/99/96
f 3/96/97 30/53/98 5/67/99
f 29/62/100 28/73/101 31/51/102
f 28/40/103 5/69/104 31/50/105
f 30/54/106 31/49/107 5/5/108
f 10/56/109 23/66/110 31/52/111
f 31/52/112 23/66/113 29/61/114
f 30/55/115 10/16/116 31/42/117
f 3/97/118 10/60/119 30/41/120
f 32/98/121 3/3/122 5/14/123
f 28/70/124 33/101/125 32/99/126 5/68/127
f 34/102/128 33/100/129 28/71/130 6/6/131
f 4/76/132 34/103/133 6/12/134
