# This file uses meters as units for non-parametric coordinates.

v 10.186069 7.052087 -10.186069
v 0.000000 7.052087 -14.405275
v -10.186069 7.052087 -10.186069
v -14.405275 7.052087 0.000000
v -10.186069 7.052087 10.186069
v 0.000000 7.052087 14.405276
v 10.186070 7.052087 10.186070
v 14.405280 7.052087 0.000000
v 10.186069 55.057056 -10.186069
v 0.000000 55.057056 -14.405275
v -10.186069 55.057056 -10.186069
v -14.405275 55.057056 0.000000
v -10.186069 55.057056 10.186069
v 0.000000 55.057056 14.405276
v 10.186070 55.057056 10.186070
v 14.405280 55.057056 0.000000
v 12.582549 59.719501 -12.582549
v -0.000000 59.719501 -17.794411
v -12.582549 59.719501 -12.582549
v -17.794413 59.719501 -0.000000
v -12.582549 59.719501 12.582549
v -0.000000 59.719501 17.794413
v 12.582551 59.719501 12.582551
v 17.794418 59.719501 -0.000000
v 11.131842 64.724991 -11.131842
v 0.000000 64.724991 -15.742803
v -0.000000 64.724991 -0.000000
v -11.131842 64.724991 -11.131842
v -15.742804 64.724991 -0.000000
v -11.131842 64.724991 11.131842
v 0.000000 64.724991 15.742804
v 11.131843 64.724991 11.131844
v 15.742807 64.724991 -0.000000
v 26.371485 41.527069 -6.604500
v 26.371485 33.900864 -6.604500
v 26.371485 30.087746 -0.000001
v 26.371485 33.900864 6.604500
v 26.371485 41.527069 6.604500
v 26.371485 45.340176 0.000000
v -26.371485 41.527069 -6.604500
v -26.371485 33.900864 -6.604500
v -26.371485 30.087746 -0.000001
v -26.371485 33.900864 6.604500
v -26.371485 41.527069 6.604500
v -26.371485 45.340176 0.000000
v 32.137100 42.765476 -8.749460
v 32.137100 32.662460 -8.749460
v 37.041145 37.713966 0.000000
v 32.137100 27.610958 -0.000002
v 32.137100 32.662460 8.749460
v 32.137100 42.765465 8.749460
v 32.137100 47.816975 0.000000
v -32.137100 42.765476 -8.749460
v -32.137100 32.662460 -8.749460
v -37.041145 37.713966 0.000000
v -32.137100 27.610958 -0.000002
v -32.137100 32.662460 8.749460
v -32.137100 42.765465 8.749460
v -32.137100 47.816975 0.000000
v -27.073944 0.000000 17.628429
v 27.073944 0.000000 17.628429
v -27.073944 7.052087 17.628429
v 27.073944 7.052087 17.628429
v -27.073944 7.052087 -17.628429
v 27.073944 7.052087 -17.628429
v -27.073944 0.000000 -17.628429
v 27.073944 0.000000 -17.628429
v 33.021873 0.000000 -11.328202
v 33.021873 0.000000 11.328202
v 33.021873 7.052087 -11.328202
v 33.021873 7.052087 11.328202
v -33.021873 0.000000 -11.328202
v -33.021873 0.000000 11.328202
v -33.021873 7.052087 11.328202
v -33.021873 7.052087 -11.328202
vt 0.208127 0.304216
vt 0.208127 0.304216
vt 0.208127 0.304216
vt 0.208127 0.304216
vt 0.208127 0.304216
vt 0.208127 0.304216
vt 0.208127 0.304216
vt 0.208127 0.304216
vt 0.208127 0.304216
vt 0.208127 0.304216
vt 0.208127 0.304216
vt 0.208127 0.304216
vt 0.208127 0.304216
vt 0.208127 0.304216
vt 0.208127 0.304216
vt 0.208127 0.304216
vt 0.208127 0.304216
vt 0.208127 0.304216
vt 0.208127 0.304216
vt 0.208127 0.304216
vt 0.208127 0.304216
vt 0.208127 0.304216
vt 0.208127 0.304216
vt 0.208127 0.304216
vt 0.208127 0.304216
vt 0.208127 0.304216
vt 0.208127 0.304216
vt 0.208127 0.304216
vt 0.208127 0.304216
vt 0.208127 0.304216
vt 0.208127 0.304216
vt 0.208127 0.304216
vt 0.208127 0.304216
vt 0.208127 0.304216
vt 0.208127 0.304216
vt 0.208127 0.304216
vt 0.208127 0.304216
vt 0.208127 0.304216
vt 0.208127 0.304216
vt 0.208127 0.304216
vt 0.208127 0.304216
vt 0.208127 0.304216
vt 0.208127 0.304216
vt 0.208127 0.304216
vt 0.208127 0.304216
vt 0.208127 0.304216
vt 0.208127 0.304216
vt 0.208127 0.304216
vt 0.208127 0.304216
vt 0.208127 0.304216
vt 0.208127 0.304216
vt 0.208127 0.304216
vt 0.208127 0.304216
vt 0.208127 0.304216
vt 0.208127 0.304216
vt 0.208127 0.304216
vt 0.208127 0.304216
vt 0.208127 0.304216
vt 0.208127 0.304216
vt 0.208127 0.304216
vt 0.208127 0.304216
vt 0.208127 0.304216
vt 0.208127 0.304216
vt 0.208127 0.304216
vt 0.208127 0.304216
vt 0.208127 0.304216
vt 0.208127 0.304216
vt 0.208127 0.304216
vt 0.208127 0.304216
vt 0.208127 0.304216
vt 0.208127 0.304216
vt 0.208127 0.304216
vt 0.208127 0.304216
vt 0.208127 0.304216
vt 0.208127 0.304216
vt 0.208127 0.304216
vt 0.208127 0.304216
vt 0.208127 0.304216
vt 0.208127 0.304216
vt 0.208127 0.304216
vt 0.208127 0.304216
vt 0.208127 0.304216
vt 0.208127 0.304216
vt 0.208127 0.304216
vt 0.208127 0.304216
vt 0.208127 0.304216
vt 0.208127 0.304216
vt 0.208127 0.304216
vt 0.208127 0.304216
vt 0.208127 0.304216
vt 0.208127 0.304216
vt 0.208127 0.304216
vt 0.208127 0.304216
vt 0.208127 0.304216
vt 0.208127 0.304216
vt 0.208127 0.304216
vt 0.208127 0.304216
vt 0.208127 0.304216
vt 0.208127 0.304216
vt 0.208127 0.304216
vt 0.208127 0.304216
vt 0.208127 0.304216
vt 0.208127 0.304216
vt 0.208127 0.304216
vt 0.208127 0.304216
vn 0.382683 0.000000 -0.923880
vn 0.382683 0.000000 -0.923880
vn 0.382683 0.000000 -0.923880
vn 0.382683 0.000000 -0.923880
vn -0.382683 0.000000 -0.923880
vn -0.382683 0.000000 -0.923880
vn -0.382683 0.000000 -0.923880
vn -0.382683 0.000000 -0.923880
vn -0.923880 0.000000 -0.382683
vn -0.923880 0.000000 -0.382683
vn -0.923880 0.000000 -0.382683
vn -0.923880 0.000000 -0.382683
vn -0.923880 0.000000 0.382683
vn -0.923880 0.000000 0.382683
vn -0.923880 0.000000 0.382683
vn -0.923880 0.000000 0.382683
vn -0.382683 0.000000 0.923880
vn -0.382683 0.000000 0.923880
vn -0.382683 0.000000 0.923880
vn -0.382683 0.000000 0.923880
vn 0.382683 0.000000 0.923880
vn 0.382683 0.000000 0.923880
vn 0.382683 0.000000 0.923880
vn 0.382683 0.000000 0.923880
vn 0.923880 0.000000 0.382683
vn 0.923880 0.000000 0.382683
vn 0.923880 0.000000 0.382683
vn 0.923880 0.000000 0.382683
vn 0.923879 0.000000 -0.382684
vn 0.923879 0.000000 -0.382684
vn 0.923879 0.000000 -0.382684
vn 0.923879 0.000000 -0.382684
vn 0.000000 1.000000 0.000000
vn 0.000000 1.000000 -0.000000
vn 0.000000 1.000000 -0.000000
vn 0.000000 1.000000 -0.000000
vn 0.000000 1.000000 -0.000000
vn 0.000000 1.000000 -0.000000
vn 0.000000 1.000000 -0.000000
vn 0.000000 1.000000 0.000000
vn 0.000000 1.000000 -0.000000
vn 0.000000 1.000000 0.000000
vn 0.000000 1.000000 0.000000
vn 0.000000 1.000000 -0.000000
vn 0.000000 1.000000 0.000000
vn 0.000000 1.000000 -0.000000
vn 0.000000 1.000000 -0.000000
vn 0.000000 1.000000 -0.000000
vn 0.000000 1.000000 -0.000000
vn 0.000000 1.000000 -0.000000
vn 0.000000 1.000000 -0.000000
vn 0.000000 1.000000 0.000000
vn 0.000000 1.000000 -0.000000
vn 0.000000 1.000000 0.000000
vn 0.000000 1.000000 0.000000
vn 0.000000 1.000000 -0.000000
vn 0.317691 -0.557514 -0.766975
vn 0.317691 -0.557514 -0.766975
vn 0.317691 -0.557514 -0.766975
vn 0.317691 -0.557514 -0.766975
vn -0.317691 -0.557514 -0.766975
vn -0.317691 -0.557514 -0.766975
vn -0.317691 -0.557514 -0.766975
vn -0.317691 -0.557514 -0.766975
vn -0.766975 -0.557514 -0.317691
vn -0.766975 -0.557514 -0.317691
vn -0.766975 -0.557514 -0.317691
vn -0.766975 -0.557514 -0.317691
vn -0.766975 -0.557514 0.317691
vn -0.766975 -0.557514 0.317691
vn -0.766975 -0.557514 0.317691
vn -0.766975 -0.557514 0.317691
vn -0.317691 -0.557514 0.766975
vn -0.317691 -0.557514 0.766975
vn -0.317691 -0.557514 0.766975
vn -0.317691 -0.557514 0.766975
vn 0.317691 -0.557515 0.766974
vn 0.317691 -0.557515 0.766974
vn 0.317691 -0.557515 0.766974
vn 0.317691 -0.557515 0.766974
vn 0.766974 -0.557515 0.317691
vn 0.766974 -0.557515 0.317691
vn 0.766974 -0.557515 0.317691
vn 0.766974 -0.557515 0.317691
vn 0.766974 -0.557514 -0.317692
vn 0.766974 -0.557514 -0.317692
vn 0.766974 -0.557515 -0.317692
vn 0.766974 -0.557514 -0.317692
vn 0.357884 0.354133 -0.864008
vn 0.357884 0.354133 -0.864008
vn 0.357884 0.354133 -0.864008
vn 0.357884 0.354133 -0.864008
vn -0.357884 0.354133 -0.864008
vn -0.357884 0.354133 -0.864008
vn -0.357884 0.354133 -0.864008
vn -0.357884 0.354133 -0.864008
vn -0.864008 0.354132 -0.357884
vn -0.864008 0.354132 -0.357884
vn -0.864008 0.354132 -0.357884
vn -0.864008 0.354132 -0.357884
vn -0.864008 0.354132 0.357884
vn -0.864008 0.354132 0.357884
vn -0.864008 0.354132 0.357884
vn -0.864008 0.354132 0.357884
vn -0.357884 0.354133 0.864008
vn -0.357884 0.354133 0.864008
vn -0.357884 0.354133 0.864008
vn -0.357884 0.354133 0.864008
vn 0.357883 0.354132 0.864008
vn 0.357883 0.354132 0.864008
vn 0.357883 0.354132 0.864008
vn 0.357883 0.354132 0.864008
vn 0.864008 0.354133 0.357884
vn 0.864008 0.354133 0.357884
vn 0.864008 0.354133 0.357884
vn 0.864008 0.354133 0.357884
vn 0.864008 0.354133 -0.357884
vn 0.864008 0.354133 -0.357884
vn 0.864008 0.354133 -0.357884
vn 0.864008 0.354133 -0.357884
vn 0.000000 0.000000 -1.000000
vn 0.000000 0.000000 -1.000000
vn 0.000000 0.000000 -1.000000
vn 0.000000 0.000000 -1.000000
vn 0.000000 -0.866025 -0.500001
vn 0.000000 -0.866025 -0.500001
vn 0.000000 -0.866025 -0.500001
vn 0.000000 -0.866025 -0.500001
vn 0.000000 -0.866025 0.500001
vn 0.000000 -0.866025 0.500001
vn 0.000000 -0.866025 0.500001
vn 0.000000 -0.866025 0.500001
vn 0.000000 0.000000 1.000000
vn 0.000000 0.000000 1.000000
vn 0.000000 0.000000 1.000000
vn 0.000000 0.000000 1.000000
vn 0.000000 0.866026 0.500000
vn 0.000000 0.866026 0.500000
vn 0.000000 0.866026 0.500000
vn 0.000000 0.866026 0.500000
vn 0.000000 0.866026 -0.500000
vn 0.000000 0.866026 -0.500000
vn 0.000000 0.866026 -0.500000
vn 0.000000 0.866026 -0.500000
vn 0.872321 0.000000 -0.488933
vn 0.872321 0.000000 -0.488933
vn 0.872321 0.000000 -0.488933
vn 0.872321 -0.423429 -0.244467
vn 0.872321 -0.423429 -0.244467
vn 0.872321 -0.423429 -0.244467
vn 0.872321 -0.423428 0.244467
vn 0.872321 -0.423428 0.244467
vn 0.872321 -0.423428 0.244467
vn 0.872321 0.000000 0.488933
vn 0.872321 0.000000 0.488933
vn 0.872321 0.000000 0.488933
vn 0.872321 0.423428 0.244467
vn 0.872321 0.423428 0.244467
vn 0.872321 0.423428 0.244467
vn 0.872321 0.423428 -0.244466
vn 0.872321 0.423428 -0.244466
vn 0.872321 0.423428 -0.244466
vn -0.872321 0.000000 -0.488933
vn -0.872321 0.000000 -0.488933
vn -0.872321 0.000000 -0.488933
vn -0.872321 -0.423428 -0.244467
vn -0.872321 -0.423428 -0.244467
vn -0.872321 -0.423428 -0.244467
vn -0.872321 -0.423428 0.244467
vn -0.872321 -0.423428 0.244467
vn -0.872321 -0.423428 0.244467
vn -0.872321 0.000000 0.488933
vn -0.872321 0.000000 0.488933
vn -0.872321 0.000000 0.488933
vn -0.872321 0.423428 0.244467
vn -0.872321 0.423428 0.244467
vn -0.872321 0.423428 0.244467
vn -0.872321 0.423428 -0.244466
vn -0.872321 0.423428 -0.244466
vn -0.872321 0.423428 -0.244466
vn -0.348679 0.000000 -0.937242
vn -0.348679 0.000000 -0.937242
vn -0.348679 0.000000 -0.937242
vn -0.348679 0.000000 -0.937242
vn -0.348680 -0.811675 -0.468621
vn -0.348680 -0.811675 -0.468621
vn -0.348679 -0.811675 -0.468621
vn -0.348679 -0.811675 -0.468621
vn -0.348679 -0.811675 0.468621
vn -0.348679 -0.811675 0.468621
vn -0.348679 -0.811675 0.468621
vn -0.348679 -0.811675 0.468621
vn -0.348679 0.000000 0.937242
vn -0.348679 0.000000 0.937242
vn -0.348679 0.000000 0.937242
vn -0.348679 0.000000 0.937242
vn -0.348680 0.811675 0.468621
vn -0.348680 0.811675 0.468621
vn -0.348680 0.811675 0.468621
vn -0.348680 0.811675 0.468621
vn -0.348680 0.811675 -0.468620
vn -0.348680 0.811675 -0.468621
vn -0.348680 0.811675 -0.468620
vn -0.348680 0.811675 -0.468620
vn 0.348679 0.000000 -0.937242
vn 0.348679 0.000000 -0.937242
vn 0.348679 0.000000 -0.937242
vn 0.348679 0.000000 -0.937242
vn 0.348680 -0.811675 -0.468621
vn 0.348679 -0.811675 -0.468621
vn 0.348679 -0.811675 -0.468621
vn 0.348679 -0.811675 -0.468621
vn 0.348679 -0.811675 0.468621
vn 0.348679 -0.811675 0.468621
vn 0.348679 -0.811675 0.468621
vn 0.348679 -0.811676 0.468621
vn 0.348679 0.000000 0.937242
vn 0.348679 0.000000 0.937242
vn 0.348679 0.000000 0.937242
vn 0.348679 0.000000 0.937242
vn 0.348680 0.811675 0.468621
vn 0.348680 0.811675 0.468621
vn 0.348680 0.811675 0.468621
vn 0.348680 0.811675 0.468621
vn 0.348680 0.811675 -0.468621
vn 0.348680 0.811675 -0.468620
vn 0.348680 0.811675 -0.468620
vn 0.348680 0.811675 -0.468620
vn 0.000000 0.000000 1.000000
vn 0.000000 0.000000 1.000000
vn 0.000000 0.000000 1.000000
vn 0.000000 0.000000 1.000000
vn 0.000000 1.000000 0.000000
vn 0.000000 1.000000 0.000000
vn 0.000000 1.000000 0.000000
vn 0.000000 1.000000 0.000000
vn 0.000000 0.000000 -1.000000
vn 0.000000 0.000000 -1.000000
vn 0.000000 0.000000 -1.000000
vn 0.000000 0.000000 -1.000000
vn 0.000000 -1.000000 0.000000
vn 0.000000 -1.000000 0.000000
vn 0.000000 -1.000000 0.000000
vn 0.000000 -1.000000 0.000000
vn 1.000000 0.000000 0.000000
vn 1.000000 0.000000 0.000000
vn 1.000000 0.000000 0.000000
vn 1.000000 0.000000 0.000000
vn -1.000000 0.000000 0.000000
vn -1.000000 0.000000 0.000000
vn -1.000000 0.000000 0.000000
vn -1.000000 0.000000 0.000000
vn 0.000000 -1.000000 0.000000
vn 0.000000 -1.000000 0.000000
vn 0.000000 -1.000000 0.000000
vn 0.000000 -1.000000 0.000000
vn 0.727145 0.000000 -0.686484
vn 0.727145 0.000000 -0.686484
vn 0.727145 0.000000 -0.686484
vn 0.727145 0.000000 -0.686484
vn 0.000000 1.000000 0.000000
vn 0.000000 1.000000 0.000000
vn 0.000000 1.000000 0.000000
vn 0.000000 1.000000 0.000000
vn 0.727145 0.000000 0.686484
vn 0.727145 0.000000 0.686484
vn 0.727145 0.000000 0.686484
vn 0.727145 0.000000 0.686484
vn 0.000000 -1.000000 0.000000
vn 0.000000 -1.000000 0.000000
vn 0.000000 -1.000000 0.000000
vn 0.000000 -1.000000 0.000000
vn -0.727145 0.000000 0.686484
vn -0.727145 0.000000 0.686484
vn -0.727145 0.000000 0.686484
vn -0.727145 0.000000 0.686484
vn 0.000000 1.000000 0.000000
vn 0.000000 1.000000 0.000000
vn 0.000000 1.000000 0.000000
vn 0.000000 1.000000 0.000000
vn -0.727145 0.000000 -0.686484
vn -0.727145 0.000000 -0.686484
vn -0.727145 0.000000 -0.686484
vn -0.727145 0.000000 -0.686484
s off
f 1/1/1 2/2/2 10/11/3 9/10/4
f 2/2/5 3/3/6 11/12/7 10/11/8
f 3/3/9 4/4/10 12/13/11 11/12/12
f 4/4/13 5/5/14 13/14/15 12/13/16
f 5/5/17 6/6/18 14/15/19 13/14/20
f 6/6/21 7/7/22 15/16/23 14/15/24
f 7/7/25 8/8/26 16/17/27 15/16/28
f 8/8/29 1/9/30 9/18/31 16/17/32
f 25/36/33 26/37/34 27/27/35
f 26/37/36 28/38/37 27/27/38
f 28/38/39 29/39/40 27/27/41
f 29/39/42 30/40/43 27/27/44
f 30/40/45 31/41/46 27/27/47
f 31/41/48 32/42/49 27/27/50
f 32/42/51 33/43/52 27/27/53
f 33/43/54 25/36/55 27/27/56
f 9/25/57 10/24/58 18/29/59 17/28/60
f 10/24/61 11/23/62 19/30/63 18/29/64
f 11/23/65 12/22/66 20/31/67 19/30/68
f 12/22/69 13/21/70 21/32/71 20/31/72
f 13/21/73 14/20/74 22/33/75 21/32/76
f 14/20/77 15/19/78 23/34/79 22/33/80
f 15/19/81 16/26/82 24/35/83 23/34/84
f 16/26/85 9/25/86 17/28/87 24/35/88
f 17/28/89 18/29/90 26/37/91 25/36/92
f 18/29/93 19/30/94 28/38/95 26/37/96
f 19/30/97 20/31/98 29/39/99 28/38/100
f 20/31/101 21/32/102 30/40/103 29/39/104
f 21/32/105 22/33/106 31/41/107 30/40/108
f 22/33/109 23/34/110 32/42/111 31/41/112
f 23/34/113 24/35/114 33/43/115 32/42/116
f 24/35/117 17/28/118 25/36/119 33/43/120
f 34/44/121 35/45/122 41/46/123 40/47/124
f 35/45/125 36/48/126 42/49/127 41/46/128
f 36/48/129 37/50/130 43/51/131 42/49/132
f 37/50/133 38/52/134 44/53/135 43/51/136
f 38/52/137 39/54/138 45/55/139 44/53/140
f 39/54/141 34/56/142 40/57/143 45/55/144
f 47/58/145 46/59/146 48/60/147
f 49/61/148 47/58/149 48/60/150
f 50/62/151 49/61/152 48/60/153
f 51/63/154 50/62/155 48/60/156
f 52/64/157 51/63/158 48/60/159
f 46/59/160 52/64/161 48/60/162
f 53/65/163 54/66/164 55/67/165
f 54/66/166 56/68/167 55/67/168
f 56/68/169 57/69/170 55/67/171
f 57/69/172 58/70/173 55/67/174
f 58/70/175 59/71/176 55/67/177
f 59/71/178 53/65/179 55/67/180
f 35/72/181 34/73/182 46/59/183 47/58/184
f 36/74/185 35/72/186 47/58/187 49/61/188
f 37/75/189 36/74/190 49/61/191 50/62/192
f 38/76/193 37/75/194 50/62/195 51/63/196
f 39/77/197 38/76/198 51/63/199 52/64/200
f 34/73/201 39/77/202 52/64/203 46/59/204
f 40/78/205 41/79/206 54/66/207 53/65/208
f 41/79/209 42/80/210 56/68/211 54/66/212
f 42/80/213 43/81/214 57/69/215 56/68/216
f 43/81/217 44/82/218 58/70/219 57/69/220
f 44/82/221 45/83/222 59/71/223 58/70/224
f 45/83/225 40/78/226 53/65/227 59/71/228
f 60/84/229 61/85/230 63/86/231 62/87/232
f 62/87/233 63/86/234 65/88/235 64/89/236
f 64/89/237 65/88/238 67/90/239 66/91/240
f 66/91/241 67/90/242 61/92/243 60/93/244
f 69/94/245 68/95/246 70/96/247 71/97/248
f 72/98/249 73/99/250 74/100/251 75/101/252
f 61/85/253 67/102/254 68/95/255 69/94/256
f 67/102/257 65/103/258 70/96/259 68/95/260
f 65/103/261 63/86/262 71/97/263 70/96/264
f 63/86/265 61/85/266 69/94/267 71/97/268
f 66/104/269 60/84/270 73/99/271 72/98/272
f 60/84/273 62/87/274 74/100/275 73/99/276
f 62/87/277 64/105/278 75/101/279 74/100/280
f 64/105/281 66/104/282 72/98/283 75/101/284
