# This file uses meters as units for non-parametric coordinates.

v -52.429932 8.964188 68.143921
v 91.808960 32.742325 40.061951
v -121.888184 100.281418 47.228943
v 106.496216 82.883003 -80.383850
v -101.286377 15.308346 -85.125427
v 97.382690 16.227589 -36.420959
v -139.801758 88.207039 43.882935
v -145.682129 90.429466 0.610596
v 96.145264 15.504742 20.020569
v -133.826904 3.837486 0.364807
v 105.934692 55.670902 -76.960999
v -66.718262 53.872967 -136.734253
v -120.516113 113.207695 -4.687622
v 35.630371 105.673019 -127.726440
v 60.207275 -9.226669 78.402344
v 16.793701 131.656235 -107.617981
v -132.365723 53.479069 -110.749023
v -127.958984 43.071590 71.750671
v -156.747070 50.791531 -0.050537
v 47.506348 -8.907040 42.319824
v 94.410767 51.615654 -110.879456
v 45.000488 47.176434 96.515015
v 72.847778 51.551510 66.288574
v 54.631348 19.345554 95.794373
v 58.071777 145.763092 -44.319641
v 80.813721 31.950758 -92.231750
v 38.676758 79.053482 -121.257813
v -5.687500 -12.063683 11.100159
v 78.530029 -0.812199 1.578674
v -130.112061 68.524475 70.432739
v -140.413086 98.089394 -95.099121
v -3.805420 121.653244 38.730103
v 74.979004 106.807938 -107.215576
v -86.453369 128.008301 -52.640625
v 98.715820 34.734562 -69.003784
v -39.754639 125.642929 -13.903320
v -113.175293 13.956356 57.197693
v -139.955566 20.909912 -66.476929
v -78.003174 75.965889 -135.534607
v -65.337158 117.467575 30.214783
v -56.457031 29.005705 77.070923
v 75.850220 15.666676 -70.955322
v -22.879639 103.457329 -117.737244
v -71.627441 79.554001 69.325623
v -31.216309 80.840393 72.253418
v 82.848755 24.918333 65.615356
v 47.733643 113.864067 36.824463
v -63.691895 32.340015 -120.019897
v 86.948975 81.138855 -110.043396
v -1.120850 -0.438652 75.444641
v 76.892822 2.494011 29.243469
v 72.889038 104.637215 18.208008
v 107.380005 34.749023 -39.635742
v 107.679077 57.757732 -42.703552
v -151.770996 106.884392 -45.605469
v -129.433105 7.424675 29.134460
v -149.793701 59.059910 57.773071
v -141.152832 36.590374 -84.113831
v -108.021973 53.563171 -128.407776
v 72.004639 138.871826 -45.470459
v 64.990234 142.089233 -73.820618
v 27.428711 123.684586 -122.573120
v -26.685059 123.960915 -91.582031
v -71.836426 132.328125 -8.341309
v 53.584717 134.328323 -98.929016
v -118.622803 76.376282 -129.102905
v -147.552490 35.207886 -36.325562
v 103.546021 33.524773 18.429504
v 43.676025 -2.778393 -37.577148
v -16.348389 80.189987 -124.532104
v -5.537842 18.440058 93.689514
vt 0.103811 0.281172
vt 0.103811 0.281172
vt 0.103811 0.281172
vt 0.103811 0.281172
vt 0.103811 0.281172
vt 0.103811 0.281172
vt 0.103811 0.281172
vt 0.103811 0.281172
vt 0.103811 0.281172
vt 0.103811 0.281172
vt 0.103811 0.281172
vt 0.103811 0.281172
vt 0.103811 0.281172
vt 0.103811 0.281172
vt 0.103811 0.281172
vt 0.103811 0.281172
vt 0.103811 0.281172
vt 0.103811 0.281172
vt 0.103811 0.281172
vt 0.103811 0.281172
vt 0.103811 0.281172
vt 0.103811 0.281172
vt 0.103811 0.281172
vt 0.103811 0.281172
vt 0.103811 0.281172
vt 0.103811 0.281172
vt 0.103811 0.281172
vt 0.103811 0.281172
vt 0.103811 0.281172
vt 0.103811 0.281172
vt 0.103811 0.281172
vt 0.103811 0.281172
vt 0.103811 0.281172
vt 0.103811 0.281172
vt 0.103811 0.281172
vt 0.103811 0.281172
vt 0.103811 0.281172
vt 0.103811 0.281172
vt 0.103811 0.281172
vt 0.103811 0.281172
vt 0.103811 0.281172
vt 0.103811 0.281172
vt 0.103811 0.281172
vt 0.103811 0.281172
vt 0.103811 0.281172
vt 0.103811 0.281172
vt 0.103811 0.281172
vt 0.103811 0.281172
vt 0.103811 0.281172
vt 0.103811 0.281172
vt 0.103811 0.281172
vt 0.103811 0.281172
vt 0.103811 0.281172
vt 0.103811 0.281172
vt 0.103811 0.281172
vt 0.103811 0.281172
vt 0.103811 0.281172
vt 0.103811 0.281172
vt 0.103811 0.281172
vt 0.103811 0.281172
vt 0.103811 0.281172
vt 0.103811 0.281172
vt 0.103811 0.281172
vt 0.103811 0.281172
vt 0.103811 0.281172
vt 0.103811 0.281172
vt 0.103811 0.281172
vt 0.103811 0.281172
vt 0.103811 0.281172
vt 0.103811 0.281172
vt 0.103811 0.281172
vt 0.103811 0.281172
vt 0.103811 0.281172
vt 0.103811 0.281172
vt 0.103811 0.281172
vt 0.103811 0.281172
vt 0.103811 0.281172
vt 0.103811 0.281172
vt 0.103811 0.281172
vt 0.103811 0.281172
vt 0.103811 0.281172
vt 0.103811 0.281172
vt 0.103811 0.281172
vt 0.103811 0.281172
vt 0.103811 0.281172
vt 0.103811 0.281172
vt 0.103811 0.281172
vt 0.103811 0.281172
vt 0.103811 0.281172
vt 0.103811 0.281172
vt 0.103811 0.281172
vt 0.103811 0.281172
vt 0.103811 0.281172
vt 0.103811 0.281172
vn -0.224863 -0.703828 0.673842
vn -0.224863 -0.703828 0.673841
vn -0.224863 -0.703828 0.673842
vn -0.359795 -0.439013 0.823295
vn -0.359795 -0.439013 0.823295
vn -0.359795 -0.439013 0.823295
vn 0.145800 0.314822 -0.937886
vn 0.145800 0.314822 -0.937886
vn 0.145800 0.314822 -0.937886
vn -0.018259 -0.967369 0.252713
vn -0.018259 -0.967369 0.252713
vn -0.018259 -0.967369 0.252713
vn -0.031446 -0.861677 -0.506482
vn -0.031446 -0.861677 -0.506482
vn -0.031446 -0.861677 -0.506482
vn 0.841338 -0.306208 0.445407
vn 0.841338 -0.306208 0.445407
vn 0.841338 -0.306208 0.445407
vn -0.964557 -0.226298 -0.135717
vn -0.964557 -0.226298 -0.135717
vn -0.964557 -0.226298 -0.135717
vn -0.194210 -0.431439 0.880990
vn -0.194210 -0.431439 0.880990
vn -0.194210 -0.431439 0.880990
vn -0.107474 0.683129 -0.722346
vn -0.107474 0.683129 -0.722346
vn -0.107474 0.683129 -0.722346
vn -0.151293 0.786296 -0.599040
vn -0.151293 0.786296 -0.599040
vn -0.151293 0.786296 -0.599040
vn -0.009253 0.718724 0.695234
vn -0.009253 0.718724 0.695234
vn -0.009253 0.718724 0.695234
vn 0.740770 0.560376 -0.370458
vn 0.740770 0.560376 -0.370458
vn 0.740770 0.560376 -0.370458
vn 0.619873 0.624826 -0.474709
vn 0.619873 0.624826 -0.474709
vn 0.619873 0.624826 -0.474709
vn -0.203788 0.975364 -0.084479
vn -0.203788 0.975364 -0.084478
vn -0.203788 0.975364 -0.084478
vn -0.348636 0.712328 -0.609132
vn -0.348636 0.712328 -0.609132
vn -0.348636 0.712328 -0.609132
vn -0.345465 0.713488 -0.609581
vn -0.345465 0.713488 -0.609581
vn -0.345465 0.713488 -0.609581
vn -0.389520 -0.701287 -0.597052
vn -0.389520 -0.701287 -0.597052
vn -0.389520 -0.701287 -0.597052
vn -0.397474 -0.717368 -0.572187
vn -0.397474 -0.717368 -0.572187
vn -0.397474 -0.717368 -0.572187
vn -0.591268 0.731989 0.338518
vn -0.591268 0.731989 0.338518
vn -0.591268 0.731989 0.338518
vn -0.640550 -0.577973 0.505611
vn -0.640550 -0.577973 0.505611
vn -0.640550 -0.577973 0.505611
vn -0.697220 -0.537806 0.473972
vn -0.697220 -0.537806 0.473972
vn -0.697220 -0.537806 0.473972
vn -0.953869 0.263885 0.143176
vn -0.953869 0.263885 0.143176
vn -0.953869 0.263885 0.143176
vn -0.934635 0.350105 0.062328
vn -0.934635 0.350105 0.062328
vn -0.934635 0.350105 0.062328
vn -0.873083 -0.449297 0.189362
vn -0.873083 -0.449297 0.189362
vn -0.873083 -0.449297 0.189362
vn -0.991037 -0.011847 -0.133059
vn -0.991037 -0.011847 -0.133059
vn -0.991037 -0.011847 -0.133059
vn -0.974355 -0.084354 -0.208607
vn -0.974355 -0.084354 -0.208607
vn -0.974355 -0.084354 -0.208607
vn 0.941751 -0.335182 -0.027536
vn 0.941751 -0.335182 -0.027536
vn 0.941751 -0.335182 -0.027536
vn 0.957932 -0.050129 -0.282585
vn 0.957931 -0.050129 -0.282585
vn 0.957932 -0.050129 -0.282585
vn 0.840339 0.363527 0.402092
vn 0.840339 0.363527 0.402092
vn 0.840339 0.363527 0.402092
vn 0.312888 -0.942371 -0.118483
vn 0.312888 -0.942371 -0.118483
vn 0.312888 -0.942371 -0.118483
vn 0.676496 -0.736426 0.005400
vn 0.676496 -0.736426 0.005400
vn 0.676496 -0.736426 0.005400
vn -0.133653 -0.980702 0.142692
vn -0.133653 -0.980702 0.142692
vn -0.133653 -0.980702 0.142692
vn -0.126511 -0.974552 0.185050
vn -0.126511 -0.974552 0.185050
vn -0.126511 -0.974552 0.185050
vn 0.947319 -0.059143 -0.314784
vn 0.947319 -0.059143 -0.314784
vn 0.947319 -0.059143 -0.314784
vn 0.808561 0.219815 -0.545811
vn 0.808561 0.219815 -0.545812
vn 0.808561 0.219815 -0.545812
vn 0.118762 -0.598366 -0.792372
vn 0.118762 -0.598366 -0.792372
vn 0.118762 -0.598366 -0.792373
vn 0.117699 0.581914 0.804688
vn 0.117699 0.581914 0.804688
vn 0.117699 0.581914 0.804688
vn 0.861987 0.313616 0.398276
vn 0.861987 0.313616 0.398276
vn 0.861987 0.313616 0.398276
vn -0.075736 0.128776 0.988777
vn -0.075736 0.128776 0.988777
vn -0.075736 0.128776 0.988777
vn -0.075083 0.662559 0.745237
vn -0.075083 0.662559 0.745237
vn -0.075083 0.662559 0.745237
vn -0.218199 0.195120 0.956199
vn -0.218199 0.195120 0.956199
vn -0.218199 0.195120 0.956200
vn 0.849407 -0.499908 0.169116
vn 0.849407 -0.499908 0.169116
vn 0.849407 -0.499907 0.169116
vn 0.730293 -0.245523 0.637487
vn 0.730293 -0.245523 0.637487
vn 0.730293 -0.245523 0.637487
vn 0.686476 0.240431 0.686253
vn 0.686476 0.240431 0.686253
vn 0.686476 0.240431 0.686253
vn 0.700213 0.224762 0.677631
vn 0.700213 0.224762 0.677631
vn 0.700213 0.224762 0.677631
vn 0.862847 -0.481025 0.155273
vn 0.862847 -0.481025 0.155273
vn 0.862847 -0.481025 0.155273
vn 0.585571 0.527176 0.615785
vn 0.585571 0.527176 0.615785
vn 0.585571 0.527176 0.615785
vn 0.056366 0.664592 0.745078
vn 0.056366 0.664592 0.745078
vn 0.056366 0.664592 0.745078
vn -0.218338 0.974158 -0.057830
vn -0.218338 0.974158 -0.057830
vn -0.218338 0.974158 -0.057830
vn 0.206224 0.978412 0.013511
vn 0.206224 0.978412 0.013511
vn 0.206224 0.978412 0.013511
vn -0.146281 0.973868 0.173732
vn -0.146281 0.973868 0.173732
vn -0.146281 0.973868 0.173732
vn 0.110835 -0.801526 -0.587598
vn 0.110835 -0.801526 -0.587598
vn 0.110835 -0.801526 -0.587598
vn 0.127670 -0.727515 -0.674108
vn 0.127670 -0.727515 -0.674108
vn 0.127670 -0.727515 -0.674108
vn 0.034493 -0.912279 -0.408114
vn 0.034493 -0.912279 -0.408114
vn 0.034493 -0.912279 -0.408114
vn 0.213106 0.204622 -0.955361
vn 0.213106 0.204622 -0.955361
vn 0.213106 0.204622 -0.955361
vn 0.459922 -0.159627 -0.873494
vn 0.459922 -0.159627 -0.873494
vn 0.459922 -0.159627 -0.873494
vn 0.222067 0.083636 -0.971438
vn 0.222067 0.083636 -0.971438
vn 0.222067 0.083636 -0.971438
vn 0.751295 0.407530 -0.519110
vn 0.751295 0.407530 -0.519110
vn 0.751295 0.407530 -0.519110
vn 0.733493 -0.447388 -0.511695
vn 0.733494 -0.447388 -0.511695
vn 0.733493 -0.447388 -0.511695
vn 0.728909 -0.663599 -0.168311
vn 0.728909 -0.663599 -0.168311
vn 0.728909 -0.663599 -0.168311
vn 0.609784 -0.691616 -0.387080
vn 0.609784 -0.691616 -0.387080
vn 0.609784 -0.691616 -0.387080
vn 0.613209 -0.697369 -0.371014
vn 0.613209 -0.697369 -0.371014
vn 0.613209 -0.697369 -0.371014
vn -0.143698 -0.988737 0.041823
vn -0.143698 -0.988737 0.041823
vn -0.143698 -0.988737 0.041823
vn -0.047862 -0.982341 0.180875
vn -0.047862 -0.982341 0.180875
vn -0.047862 -0.982341 0.180875
vn -0.223557 -0.851180 0.474885
vn -0.223557 -0.851180 0.474885
vn -0.223557 -0.851180 0.474885
vn 0.301501 -0.927306 -0.221812
vn 0.301501 -0.927306 -0.221812
vn 0.301501 -0.927306 -0.221812
vn 0.148510 -0.985446 -0.082710
vn 0.148510 -0.985446 -0.082710
vn 0.148510 -0.985446 -0.082710
vn 0.374043 -0.901285 -0.218581
vn 0.374043 -0.901285 -0.218580
vn 0.374043 -0.901285 -0.218581
vn 0.597158 -0.791529 0.129935
vn 0.597158 -0.791529 0.129935
vn 0.597158 -0.791530 0.129935
vn 0.409079 -0.902885 0.132113
vn 0.409079 -0.902885 0.132113
vn 0.409079 -0.902885 0.132113
vn 0.628111 -0.517551 0.581049
vn 0.628111 -0.517551 0.581048
vn 0.628111 -0.517551 0.581048
vn 0.900181 0.388685 0.196462
vn 0.900181 0.388685 0.196462
vn 0.900181 0.388685 0.196462
vn 0.622234 0.525250 0.580462
vn 0.622235 0.525250 0.580462
vn 0.622235 0.525250 0.580462
vn 0.882446 -0.467917 0.048401
vn 0.882446 -0.467917 0.048401
vn 0.882446 -0.467917 0.048401
vn 0.925394 -0.378693 0.015438
vn 0.925394 -0.378692 0.015438
vn 0.925394 -0.378693 0.015438
vn 0.997824 -0.004197 0.065797
vn 0.997824 -0.004197 0.065797
vn 0.997824 -0.004197 0.065797
vn 0.834476 -0.493114 -0.245945
vn 0.834476 -0.493114 -0.245945
vn 0.834476 -0.493114 -0.245945
vn 0.998429 -0.026792 -0.049208
vn 0.998429 -0.026792 -0.049208
vn 0.998429 -0.026792 -0.049208
vn 0.890513 0.399103 0.218409
vn 0.890514 0.399103 0.218409
vn 0.890513 0.399103 0.218409
vn 0.886186 0.397850 0.237467
vn 0.886186 0.397850 0.237467
vn 0.886186 0.397850 0.237467
vn -0.941306 0.259158 0.216287
vn -0.941306 0.259158 0.216287
vn -0.941306 0.259158 0.216287
vn -0.973923 -0.084577 -0.210525
vn -0.973923 -0.084577 -0.210525
vn -0.973923 -0.084577 -0.210525
vn -0.886424 -0.431211 0.168254
vn -0.886424 -0.431211 0.168254
vn -0.886424 -0.431211 0.168254
vn -0.131120 -0.946094 0.296164
vn -0.131120 -0.946094 0.296164
vn -0.131120 -0.946094 0.296164
vn -0.009327 0.148716 0.988836
vn -0.009327 0.148716 0.988836
vn -0.009327 0.148716 0.988836
vn -0.098864 0.603638 0.791105
vn -0.098864 0.603638 0.791105
vn -0.098864 0.603638 0.791105
vn -0.625626 0.499887 0.598920
vn -0.625626 0.499887 0.598920
vn -0.625626 0.499887 0.598920
vn -0.513534 0.588950 0.624036
vn -0.513534 0.588950 0.624036
vn -0.513534 0.588950 0.624036
vn -0.540250 -0.002128 0.841502
vn -0.540250 -0.002128 0.841502
vn -0.540250 -0.002128 0.841502
vn -0.570153 0.812841 0.119226
vn -0.570153 0.812841 0.119226
vn -0.570153 0.812841 0.119226
vn -0.641536 0.748171 0.169326
vn -0.641536 0.748171 0.169326
vn -0.641536 0.748171 0.169326
vn -0.218871 0.948187 0.230297
vn -0.218871 0.948187 0.230297
vn -0.218871 0.948187 0.230297
vn -0.298759 0.950862 0.081263
vn -0.298759 0.950863 0.081263
vn -0.298759 0.950862 0.081263
vn -0.321956 0.916669 -0.236775
vn -0.321956 0.916669 -0.236775
vn -0.321956 0.916669 -0.236775
vn -0.128250 0.880083 -0.457171
vn -0.128250 0.880083 -0.457171
vn -0.128250 0.880083 -0.457171
vn -0.938693 -0.049649 -0.341162
vn -0.938693 -0.049649 -0.341162
vn -0.938693 -0.049649 -0.341162
vn -0.150693 -0.619302 -0.770556
vn -0.150693 -0.619302 -0.770556
vn -0.150693 -0.619302 -0.770556
vn -0.418886 -0.698013 -0.580786
vn -0.418886 -0.698013 -0.580786
vn -0.418886 -0.698013 -0.580786
vn -0.239342 -0.745687 -0.621825
vn -0.239342 -0.745687 -0.621825
vn -0.239342 -0.745687 -0.621824
vn -0.085615 0.987368 0.133320
vn -0.085615 0.987368 0.133320
vn -0.085615 0.987368 0.133320
vn 0.151988 0.913111 0.378322
vn 0.151988 0.913111 0.378322
vn 0.151988 0.913111 0.378322
vn 0.435477 0.817518 0.376861
vn 0.435477 0.817518 0.376861
vn 0.435477 0.817518 0.376861
vn 0.804507 0.578776 -0.133367
vn 0.804507 0.578776 -0.133367
vn 0.804507 0.578776 -0.133367
vn 0.442809 0.896582 -0.007809
vn 0.442809 0.896582 -0.007809
vn 0.442809 0.896582 -0.007809
vn 0.000397 0.955350 -0.295477
vn 0.000397 0.955350 -0.295477
vn 0.000397 0.955350 -0.295477
vn -0.109013 0.982964 -0.147977
vn -0.109013 0.982965 -0.147977
vn -0.109013 0.982965 -0.147977
vn -0.172240 0.197673 -0.965018
vn -0.172240 0.197673 -0.965018
vn -0.172240 0.197673 -0.965018
vn -0.353330 0.697720 -0.623173
vn -0.353330 0.697720 -0.623173
vn -0.353330 0.697720 -0.623173
vn 0.003427 0.995163 -0.098173
vn 0.003427 0.995163 -0.098173
vn 0.003427 0.995164 -0.098173
vn -0.311791 0.867759 0.387016
vn -0.311791 0.867759 0.387016
vn -0.311791 0.867759 0.387016
vn 0.245388 0.917726 0.312352
vn 0.245388 0.917726 0.312352
vn 0.245388 0.917726 0.312352
vn -0.363539 0.931123 0.029155
vn -0.363539 0.931123 0.029155
vn -0.363539 0.931123 0.029155
vn 0.040743 0.893466 -0.447278
vn 0.040743 0.893466 -0.447278
vn 0.040743 0.893466 -0.447279
vn 0.496892 0.440234 -0.747859
vn 0.496892 0.440234 -0.747859
vn 0.496892 0.440234 -0.747859
vn 0.381312 0.525450 -0.760594
vn 0.381312 0.525450 -0.760594
vn 0.381312 0.525450 -0.760594
vn 0.556364 0.735074 0.387461
vn 0.556364 0.735074 0.387461
vn 0.556364 0.735074 0.387461
vn -0.142800 0.722032 0.676962
vn -0.142800 0.722032 0.676962
vn -0.142800 0.722032 0.676962
vn -0.827010 0.047336 -0.560190
vn -0.827010 0.047336 -0.560190
vn -0.827010 0.047336 -0.560190
vn -0.562196 -0.284899 -0.776381
vn -0.562196 -0.284899 -0.776381
vn -0.562196 -0.284899 -0.776381
vn -0.156577 -0.102690 -0.982313
vn -0.156577 -0.102690 -0.982313
vn -0.156577 -0.102690 -0.982313
vn -0.197051 -0.047479 -0.979243
vn -0.197051 -0.047479 -0.979243
vn -0.197051 -0.047479 -0.979243
vn -0.065099 0.046107 0.996813
vn -0.065099 0.046107 0.996813
vn -0.065099 0.046107 0.996813
vn -0.162563 -0.505959 0.847100
vn -0.162563 -0.505959 0.847100
vn -0.162563 -0.505959 0.847100
vn -0.897825 -0.438610 -0.039145
vn -0.897825 -0.438610 -0.039145
vn -0.897824 -0.438610 -0.039145
vn -0.904374 -0.425956 -0.025875
vn -0.904374 -0.425956 -0.025875
vn -0.904374 -0.425956 -0.025875
vn 0.857115 0.205257 0.472466
vn 0.857115 0.205257 0.472466
vn 0.857115 0.205257 0.472466
vn 0.106418 -0.991007 -0.081119
vn 0.106418 -0.991007 -0.081119
vn 0.106418 -0.991007 -0.081119
vn -0.087137 -0.967096 -0.239022
vn -0.087137 -0.967097 -0.239022
vn -0.087137 -0.967096 -0.239022
vn -0.095222 -0.955603 -0.278847
vn -0.095222 -0.955603 -0.278847
vn -0.095222 -0.955603 -0.278847
vn 0.052039 -0.259098 -0.964448
vn 0.052039 -0.259098 -0.964448
vn 0.052039 -0.259098 -0.964448
vn 0.053071 -0.230059 -0.971729
vn 0.053071 -0.230059 -0.971728
vn 0.053071 -0.230059 -0.971728
vn -0.172232 0.231282 -0.957520
vn -0.172232 0.231282 -0.957520
vn -0.172232 0.231282 -0.957520
vn 0.164894 0.137262 -0.976713
vn 0.164894 0.137262 -0.976713
vn 0.164894 0.137262 -0.976713
vn 0.158702 0.148805 -0.976049
vn 0.158702 0.148805 -0.976049
vn 0.158702 0.148805 -0.976049
vn -0.233291 0.319999 0.918246
vn -0.233291 0.319999 0.918246
vn -0.233291 0.319999 0.918246
vn -0.034368 -0.037753 0.998696
vn -0.034368 -0.037753 0.998696
vn -0.034368 -0.037753 0.998696
vn -0.014609 -0.696624 0.717288
vn -0.014609 -0.696624 0.717288
vn -0.014609 -0.696624 0.717288
vn -0.116783 -0.532924 0.838065
vn -0.116783 -0.532924 0.838065
vn -0.116783 -0.532924 0.838065
s off
f 50/67/1 71/94/2 1/1/3
f 1/1/4 71/94/5 41/63/6
f 39/59/7 43/65/8 70/93/9
f 5/5/10 42/64/11 38/57/12
f 38/57/13 42/64/14 69/92/15
f 2/2/16 9/16/17 68/91/18
f 38/56/19 67/90/20 58/81/21
f 1/1/22 41/63/23 37/55/24
f 39/58/25 66/89/26 43/12/27
f 43/12/28 66/89/29 31/44/30
f 3/3/31 44/66/32 40/62/33
f 4/4/34 33/47/35 61/84/36
f 61/84/37 33/47/38 65/88/39
f 16/28/40 63/86/41 25/37/42
f 34/49/43 63/86/44 43/65/45
f 43/65/46 63/86/47 62/85/48
f 38/56/49 58/81/50 5/11/51
f 5/11/52 58/81/53 59/82/54
f 8/14/55 13/23/56 55/78/57
f 37/55/58 18/30/59 56/79/60
f 56/79/61 18/30/62 57/80/63
f 8/14/64 19/31/65 7/13/66
f 7/13/67 19/31/68 57/80/69
f 56/79/70 57/80/71 10/17/72
f 58/81/73 67/90/74 31/44/75
f 31/44/76 67/90/77 55/78/78
f 11/20/79 54/77/80 35/52/81
f 35/52/82 54/77/83 53/76/84
f 68/91/85 52/75/86 23/35/87
f 15/27/88 20/32/89 51/74/90
f 9/15/91 29/41/92 6/6/93
f 10/18/94 28/40/95 56/53/96
f 56/53/97 28/40/98 50/73/99
f 11/19/100 21/33/101 4/4/102
f 4/4/103 21/33/104 49/72/105
f 12/22/106 21/33/107 48/71/108
f 32/45/109 45/68/110 47/70/111
f 2/2/112 23/35/113 46/69/114
f 41/63/115 45/68/116 44/66/117
f 44/66/118 45/68/119 32/45/120
f 45/68/121 41/63/122 22/34/123
f 51/46/124 46/69/125 15/26/126
f 15/26/127 46/69/128 24/36/129
f 46/69/130 23/35/131 24/36/132
f 24/36/133 23/35/134 22/34/135
f 46/69/136 51/46/137 2/2/138
f 23/35/139 47/70/140 22/34/141
f 22/34/142 47/70/143 45/68/144
f 36/54/145 25/37/146 63/86/147
f 64/87/148 36/54/149 63/86/150
f 36/54/151 32/45/152 25/37/153
f 48/71/154 26/38/155 42/64/156
f 26/38/157 48/71/158 21/33/159
f 5/5/160 48/71/161 42/64/162
f 49/72/163 27/39/164 33/47/165
f 33/47/166 27/39/167 14/25/168
f 27/39/169 49/72/170 21/33/171
f 49/72/172 33/47/173 4/4/174
f 35/51/175 26/38/176 11/19/177
f 11/19/178 26/38/179 21/33/180
f 26/38/181 35/51/182 42/64/183
f 42/64/184 35/51/185 6/6/186
f 50/73/187 20/32/188 15/27/189
f 20/32/190 50/73/191 28/40/192
f 56/53/193 50/73/194 1/7/195
f 29/41/196 69/92/197 42/64/198
f 69/92/199 29/41/200 20/32/201
f 6/6/202 29/41/203 42/64/204
f 51/74/205 29/41/206 9/15/207
f 29/41/208 51/74/209 20/32/210
f 2/8/211 51/74/212 9/15/213
f 52/75/214 68/91/215 60/42/216
f 23/35/217 52/75/218 47/70/219
f 53/76/220 68/91/221 6/9/222
f 6/9/223 68/91/224 9/16/225
f 68/91/226 53/76/227 54/77/228
f 35/52/229 53/76/230 6/9/231
f 4/10/232 54/77/233 11/20/234
f 68/91/235 54/77/236 60/42/237
f 60/42/238 54/77/239 4/10/240
f 8/14/241 55/78/242 19/31/243
f 55/78/244 67/90/245 19/31/246
f 19/31/247 10/17/248 57/80/249
f 37/55/250 56/79/251 1/1/252
f 44/66/253 30/43/254 41/63/255
f 30/43/256 44/66/257 3/3/258
f 57/80/259 30/43/260 7/13/261
f 7/13/262 30/43/263 3/3/264
f 30/43/265 57/80/266 18/30/267
f 7/13/268 3/3/269 8/14/270
f 8/14/271 3/3/272 13/23/273
f 3/3/274 40/61/275 13/23/276
f 55/78/277 13/23/278 34/48/279
f 55/78/280 34/48/281 31/44/282
f 31/44/283 34/48/284 43/12/285
f 58/81/286 31/44/287 17/29/288
f 48/50/289 59/82/290 12/21/291
f 17/29/292 59/82/293 58/81/294
f 5/11/295 59/82/296 48/50/297
f 36/54/298 40/62/299 32/45/300
f 32/45/301 47/70/302 25/37/303
f 25/37/304 47/70/305 60/83/306
f 61/84/307 60/83/308 4/4/309
f 25/37/310 60/83/311 61/84/312
f 16/28/313 61/84/314 65/88/315
f 25/37/316 61/84/317 16/28/318
f 43/65/319 62/85/320 14/25/321
f 16/28/322 62/85/323 63/86/324
f 63/86/325 34/49/326 64/87/327
f 40/62/328 64/87/329 13/24/330
f 36/54/331 64/87/332 40/62/333
f 34/49/334 13/24/335 64/87/336
f 65/88/337 62/85/338 16/28/339
f 62/85/340 65/88/341 14/25/342
f 14/25/343 65/88/344 33/47/345
f 60/83/346 47/70/347 52/60/348
f 40/62/349 44/66/350 32/45/351
f 31/44/352 66/89/353 17/29/354
f 17/29/355 66/89/356 59/82/357
f 66/89/358 39/58/359 59/82/360
f 59/82/361 39/58/362 12/21/363
f 41/63/364 30/43/365 18/30/366
f 37/55/367 41/63/368 18/30/369
f 19/31/370 67/90/371 10/17/372
f 67/90/373 38/56/374 10/17/375
f 2/2/376 68/91/377 23/35/378
f 28/40/379 69/92/380 20/32/381
f 38/57/382 69/92/383 10/18/384
f 10/18/385 69/92/386 28/40/387
f 70/93/388 27/39/389 21/33/390
f 27/39/391 70/93/392 14/25/393
f 14/25/394 70/93/395 43/65/396
f 39/59/397 70/93/398 12/22/399
f 12/22/400 70/93/401 21/33/402
f 41/63/403 71/94/404 22/34/405
f 22/34/406 71/94/407 24/36/408
f 71/94/409 50/67/410 24/36/411
f 24/36/412 50/67/413 15/26/414
