# This file uses meters as units for non-parametric coordinates.

v 4.384765 0.000000 -4.384769
v -0.000000 0.000000 -6.200984
v -4.384762 0.000000 -4.384769
v -6.200994 0.000000 -0.000000
v -4.384762 0.000000 4.384768
v -0.000000 0.000000 6.201017
v 4.384765 0.000000 4.384768
v 6.200993 0.000000 -0.000000
v -0.000000 0.000000 -0.000000
v -4.384762 19.099052 -4.384769
v -6.200994 19.099052 -0.000000
v -4.384762 19.099052 4.384768
v -0.000000 19.099052 6.201017
v 4.384765 19.099052 4.384768
v 6.200993 19.099052 -0.000000
v 4.384765 19.099052 -4.384769
v -0.000000 19.099052 -6.200984
v 5.210619 19.553995 -5.210602
v -0.000000 19.553995 -7.368911
v -0.000000 23.664040 -6.806979
v 4.813272 23.664040 -4.813277
v -5.210617 19.553995 -5.210602
v -4.813273 23.664040 -4.813277
v -7.368928 19.553995 -0.000000
v -6.806996 23.664040 -0.000000
v -5.210617 19.553995 5.210631
v -4.813273 23.664040 4.813276
v -0.000000 19.553995 7.368943
v -0.000000 23.664040 6.807011
v 5.210619 19.553995 5.210631
v 4.813272 23.664040 4.813276
v 7.368926 19.553995 -0.000000
v 6.806994 23.664040 -0.000000
v -0.000000 23.664040 -0.000000
v -4.384761 16.603355 -4.384769
v -4.384761 16.603355 4.384768
v -0.000000 16.603355 6.201017
v 4.384765 16.603355 4.384768
v 4.384765 16.603355 -4.384769
v -0.000000 16.603355 -6.200984
v -4.384762 3.911181 -4.384769
v -4.384762 3.911181 4.384768
v -0.000000 3.911181 6.201017
v 4.384765 3.911181 4.384768
v 4.384765 3.911181 -4.384769
v -0.000000 3.911181 -6.200984
v -5.292879 16.603355 -2.192369
v -5.292878 3.911187 -2.192369
v -5.292878 3.911187 2.192400
v -5.292878 16.603355 2.192400
v 5.292877 16.603355 2.192400
v 5.292876 3.911187 2.192400
v 5.292876 3.911187 -2.192369
v 5.292877 16.603355 -2.192369
v -0.000000 13.761266 -6.200984
v 4.384765 13.761266 -4.384769
v 4.384765 13.761266 4.384768
v -0.000000 13.761266 6.201017
v -4.384762 13.761266 4.384768
v -4.384762 13.761266 -4.384769
v -4.384762 11.453066 4.384768
v -0.000000 11.453066 6.201017
v 4.384765 11.453066 4.384768
v 4.384765 11.453066 -4.384769
v -0.000000 11.453066 -6.200984
v -4.384762 11.453066 -4.384769
v -7.368928 20.919727 -0.000000
v -5.210617 20.919727 5.210631
v -0.000000 20.919727 7.368943
v 5.210619 20.919727 5.210631
v 7.368926 20.919727 -0.000000
v 5.210619 20.919727 -5.210602
v -0.000000 20.919727 -7.368911
v -5.210617 20.919727 -5.210602
v -0.000000 21.239958 -6.806979
v 4.813272 21.239958 -4.813277
v 6.806994 21.239958 -0.000000
v 4.813272 21.239958 4.813276
v -0.000000 21.239958 6.807011
v -4.813273 21.239958 4.813276
v -6.806996 21.239958 -0.000000
v -4.813273 21.239958 -4.813277
vt 0.219041 0.492323
vt 0.219041 0.492323
vt 0.219041 0.492323
vt 0.219041 0.492323
vt 0.219041 0.492323
vt 0.219041 0.492323
vt 0.219041 0.492323
vt 0.219041 0.492323
vt 0.219041 0.492323
vt 0.219041 0.492323
vt 0.219041 0.492323
vt 0.219041 0.492323
vt 0.219041 0.492323
vt 0.219041 0.492323
vt 0.219041 0.492323
vt 0.219041 0.492323
vt 0.219041 0.492323
vt 0.132280 0.379745
vt 0.132281 0.379745
vt 0.132281 0.379745
vt 0.132280 0.379745
vt 0.132281 0.379745
vt 0.132281 0.379745
vt 0.132280 0.379745
vt 0.132280 0.379745
vt 0.132281 0.379745
vt 0.132281 0.379745
vt 0.132281 0.379745
vt 0.132281 0.379745
vt 0.132280 0.379745
vt 0.132280 0.379745
vt 0.132280 0.379745
vt 0.132280 0.379745
vt 0.132281 0.379745
vt 0.219041 0.492323
vt 0.219041 0.492323
vt 0.219041 0.492323
vt 0.219041 0.492323
vt 0.219041 0.492323
vt 0.219041 0.492323
vt 0.219041 0.492323
vt 0.219041 0.492323
vt 0.219041 0.492323
vt 0.219041 0.492323
vt 0.132281 0.379746
vt 0.132281 0.379746
vt 0.132281 0.379746
vt 0.132280 0.379746
vt 0.132281 0.379746
vt 0.132281 0.379746
vt 0.132281 0.379746
vt 0.132280 0.379746
vt 0.219041 0.492323
vt 0.219041 0.492323
vt 0.219041 0.492323
vt 0.219041 0.492323
vt 0.219041 0.492323
vt 0.219041 0.492323
vt 0.219041 0.492323
vt 0.219041 0.492323
vt 0.219041 0.492323
vt 0.219041 0.492323
vt 0.219041 0.492323
vt 0.219041 0.492323
vt 0.219041 0.492323
vt 0.219041 0.492323
vt 0.070468 0.378754
vt 0.218400 0.491702
vt 0.218400 0.491702
vt 0.070468 0.378754
vt 0.070468 0.378753
vt 0.070468 0.378753
vt 0.070468 0.378754
vt 0.070468 0.378753
vt 0.070468 0.378754
vt 0.070468 0.378754
vt 0.218400 0.491702
vt 0.218400 0.491702
vt 0.070468 0.378753
vt 0.070468 0.378753
vt 0.070468 0.378754
vt 0.070468 0.378753
vt 0.219041 0.492323
vt 0.218401 0.491702
vt 0.218401 0.491702
vt 0.219041 0.492323
vt 0.218401 0.491702
vt 0.219041 0.492323
vt 0.219041 0.492323
vt 0.218401 0.491702
vt 0.219041 0.492323
vt 0.218401 0.491702
vt 0.218401 0.491702
vt 0.219041 0.492323
vt 0.218401 0.491702
vt 0.219041 0.492323
vt 0.219041 0.492323
vt 0.218401 0.491702
vt 0.070468 0.378753
vt 0.070468 0.378753
vt 0.070468 0.378753
vt 0.070468 0.378753
vt 0.070468 0.378753
vt 0.070468 0.378753
vt 0.070468 0.378753
vt 0.070468 0.378753
vt 0.070468 0.378753
vt 0.070468 0.378753
vt 0.070468 0.378753
vt 0.070468 0.378753
vt 0.070468 0.378753
vt 0.070468 0.378753
vt 0.070468 0.378753
vt 0.070468 0.378753
vt 0.070468 0.378753
vt 0.070468 0.378753
vt 0.070468 0.378753
vt 0.070468 0.378753
vt 0.099555 0.253149
vt 0.099555 0.253149
vt 0.099555 0.253149
vt 0.099555 0.253149
vt 0.099555 0.253149
vt 0.099555 0.253149
vt 0.099555 0.253149
vt 0.099555 0.253149
vt 0.099555 0.253149
vt 0.099555 0.253149
vt 0.099555 0.253149
vt 0.099555 0.253149
vt 0.132280 0.379745
vt 0.132281 0.379745
vt 0.132281 0.379745
vt 0.132280 0.379745
vt 0.132280 0.379745
vt 0.132280 0.379745
vt 0.132281 0.379745
vt 0.132281 0.379745
vt 0.132281 0.379745
vt 0.132280 0.379745
vt 0.132280 0.379745
vt 0.132280 0.379745
vt 0.132281 0.379745
vt 0.132281 0.379745
vt 0.132280 0.379745
vt 0.132281 0.379745
vn 0.200906 0.851106 -0.485032
vn 0.200906 0.851106 -0.485032
vn 0.200906 0.851106 -0.485032
vn 0.200906 0.851106 -0.485032
vn -0.200906 0.851106 -0.485032
vn -0.200906 0.851105 -0.485032
vn -0.200906 0.851105 -0.485032
vn -0.200906 0.851105 -0.485032
vn -0.485030 0.851107 -0.200906
vn -0.485030 0.851107 -0.200906
vn -0.485029 0.851107 -0.200906
vn -0.485030 0.851107 -0.200906
vn -0.485025 0.851110 0.200903
vn -0.485025 0.851110 0.200903
vn -0.485025 0.851110 0.200903
vn -0.485025 0.851110 0.200903
vn -0.200904 0.851112 0.485022
vn -0.200904 0.851112 0.485022
vn -0.200904 0.851112 0.485022
vn -0.200904 0.851112 0.485022
vn 0.200904 0.851113 0.485021
vn 0.200904 0.851113 0.485021
vn 0.200904 0.851113 0.485021
vn 0.200904 0.851113 0.485021
vn 0.485024 0.851111 0.200903
vn 0.485024 0.851111 0.200903
vn 0.485024 0.851111 0.200903
vn 0.485024 0.851111 0.200903
vn 0.485028 0.851108 -0.200905
vn 0.485028 0.851108 -0.200905
vn 0.485028 0.851108 -0.200905
vn 0.485028 0.851108 -0.200905
vn 0.000000 -1.000000 0.000000
vn 0.000000 -1.000000 0.000000
vn 0.000000 -1.000000 0.000000
vn 0.000000 -1.000000 0.000000
vn 0.000000 -1.000000 0.000000
vn 0.000000 -1.000000 0.000000
vn 0.000000 -1.000000 0.000000
vn 0.000000 -1.000000 0.000000
vn 0.000000 -1.000000 0.000000
vn 0.000000 -1.000000 0.000000
vn 0.000000 -1.000000 0.000000
vn 0.000000 -1.000000 0.000000
vn 0.000000 -1.000000 0.000000
vn 0.000000 -1.000000 0.000000
vn 0.000000 -1.000000 0.000000
vn 0.000000 -1.000000 0.000000
vn 0.000000 -1.000000 0.000000
vn 0.000000 -1.000000 0.000000
vn 0.000000 -1.000000 0.000000
vn 0.000000 -1.000000 0.000000
vn 0.000000 -1.000000 0.000000
vn 0.000000 -1.000000 0.000000
vn 0.000000 -1.000000 0.000000
vn 0.000000 -1.000000 0.000000
vn 0.000000 1.000000 0.000000
vn 0.000000 1.000000 0.000000
vn 0.000000 1.000000 0.000000
vn 0.000000 1.000000 0.000000
vn 0.000000 1.000000 0.000000
vn 0.000000 1.000000 0.000000
vn 0.000000 1.000000 0.000000
vn 0.000000 1.000000 0.000000
vn 0.000000 1.000000 0.000000
vn 0.000000 1.000000 0.000000
vn 0.000000 1.000000 0.000000
vn 0.000000 1.000000 0.000000
vn 0.000000 1.000000 0.000000
vn 0.000000 1.000000 0.000000
vn 0.000000 1.000000 0.000000
vn 0.000000 1.000000 0.000000
vn 0.000000 1.000000 0.000000
vn 0.000000 1.000000 0.000000
vn 0.000000 1.000000 -0.000000
vn 0.000000 1.000000 -0.000000
vn 0.000000 1.000000 -0.000000
vn 0.000000 1.000000 0.000001
vn 0.000000 1.000000 0.000001
vn 0.000000 1.000000 0.000001
vn -0.923880 -0.000002 -0.382683
vn -0.923880 -0.000002 -0.382683
vn -0.923880 -0.000002 -0.382683
vn -0.923880 -0.000002 -0.382683
vn -0.923879 0.000001 0.382684
vn -0.923879 0.000001 0.382684
vn -0.923879 0.000001 0.382684
vn -0.923879 0.000001 0.382684
vn -0.382687 -0.000000 0.923878
vn -0.382687 -0.000000 0.923878
vn -0.382687 -0.000000 0.923878
vn -0.382687 -0.000000 0.923878
vn 0.382687 0.000000 0.923878
vn 0.382687 0.000000 0.923878
vn 0.382687 0.000000 0.923878
vn 0.382687 0.000000 0.923878
vn 0.923880 0.000001 0.382683
vn 0.923880 0.000001 0.382683
vn 0.923880 0.000001 0.382683
vn 0.923880 0.000001 0.382683
vn 0.923880 -0.000002 -0.382682
vn 0.923880 -0.000002 -0.382682
vn 0.923880 -0.000002 -0.382682
vn 0.923880 -0.000002 -0.382682
vn 0.382681 0.000000 -0.923881
vn 0.382681 0.000000 -0.923881
vn 0.382681 0.000000 -0.923881
vn 0.382681 0.000000 -0.923881
vn -0.382681 -0.000000 -0.923881
vn -0.382681 -0.000000 -0.923881
vn -0.382681 -0.000000 -0.923881
vn -0.382681 -0.000000 -0.923881
vn 0.148675 -0.921446 -0.358934
vn 0.148675 -0.921446 -0.358934
vn 0.148675 -0.921446 -0.358934
vn 0.148675 -0.921446 -0.358934
vn -0.148675 -0.921446 -0.358933
vn -0.148675 -0.921446 -0.358933
vn -0.148675 -0.921446 -0.358933
vn -0.148675 -0.921446 -0.358933
vn -0.358931 -0.921447 -0.148675
vn -0.358931 -0.921447 -0.148675
vn -0.358931 -0.921447 -0.148675
vn -0.358931 -0.921447 -0.148675
vn -0.358929 -0.921448 0.148674
vn -0.358929 -0.921448 0.148674
vn -0.358929 -0.921448 0.148674
vn -0.358929 -0.921448 0.148674
vn -0.148674 -0.921448 0.358928
vn -0.148674 -0.921448 0.358928
vn -0.148674 -0.921448 0.358928
vn -0.148674 -0.921448 0.358928
vn 0.148674 -0.921448 0.358929
vn 0.148674 -0.921448 0.358929
vn 0.148674 -0.921448 0.358929
vn 0.148674 -0.921448 0.358930
vn 0.358929 -0.921448 0.148673
vn 0.358929 -0.921448 0.148673
vn 0.358929 -0.921448 0.148673
vn 0.358929 -0.921448 0.148673
vn 0.358931 -0.921447 -0.148674
vn 0.358931 -0.921447 -0.148674
vn 0.358931 -0.921447 -0.148674
vn 0.358931 -0.921447 -0.148674
vn -0.923879 -0.000000 -0.382686
vn -0.923879 -0.000000 -0.382686
vn -0.923879 -0.000000 -0.382686
vn -0.923879 -0.000000 -0.382686
vn -0.923880 0.000000 0.382681
vn -0.923880 0.000000 0.382681
vn -0.923880 0.000000 0.382681
vn -0.923880 0.000000 0.382681
vn -0.382687 0.000000 0.923878
vn -0.382687 0.000000 0.923878
vn -0.382687 0.000000 0.923878
vn -0.382687 0.000000 0.923878
vn 0.382687 0.000000 0.923878
vn 0.382687 0.000000 0.923878
vn 0.382687 0.000000 0.923878
vn 0.382687 0.000000 0.923878
vn 0.923880 0.000000 0.382682
vn 0.923880 0.000000 0.382682
vn 0.923880 0.000000 0.382682
vn 0.923880 0.000000 0.382682
vn 0.923878 0.000000 -0.382686
vn 0.923878 0.000000 -0.382686
vn 0.923878 0.000000 -0.382686
vn 0.923878 0.000000 -0.382686
vn 0.382681 0.000000 -0.923881
vn 0.382681 0.000000 -0.923881
vn 0.382681 0.000000 -0.923881
vn 0.382681 0.000000 -0.923881
vn -0.382681 0.000000 -0.923880
vn -0.382681 0.000000 -0.923880
vn -0.382681 0.000000 -0.923880
vn -0.382681 0.000000 -0.923880
vn -0.382687 0.000000 0.923878
vn -0.382687 0.000000 0.923878
vn -0.382687 0.000000 0.923878
vn -0.382687 0.000000 0.923878
vn 0.382687 0.000000 0.923878
vn 0.382687 0.000000 0.923878
vn 0.382687 0.000000 0.923878
vn 0.382687 0.000000 0.923878
vn 0.382681 0.000000 -0.923881
vn 0.382681 0.000000 -0.923881
vn 0.382681 0.000000 -0.923881
vn 0.382681 0.000000 -0.923881
vn -0.382681 0.000000 -0.923881
vn -0.382681 0.000000 -0.923881
vn -0.382681 0.000000 -0.923881
vn -0.382681 0.000000 -0.923881
vn -0.923880 -0.000000 -0.382682
vn -0.923880 -0.000000 -0.382682
vn -0.923880 -0.000000 -0.382682
vn -0.923880 -0.000000 -0.382682
vn -0.923878 0.000000 0.382686
vn -0.923878 0.000000 0.382686
vn -0.923878 0.000000 0.382686
vn -0.923878 0.000000 0.382686
vn 0.923879 -0.000000 0.382684
vn 0.923879 -0.000000 0.382684
vn 0.923879 -0.000000 0.382684
vn 0.923879 -0.000000 0.382684
vn 0.923881 -0.000000 -0.382680
vn 0.923881 -0.000000 -0.382680
vn 0.923881 -0.000000 -0.382680
vn 0.923881 -0.000000 -0.382680
vn 0.923880 -0.000001 0.382683
vn 0.923880 -0.000001 0.382683
vn 0.923880 -0.000001 0.382683
vn 0.923880 -0.000001 0.382683
vn 0.923880 0.000002 -0.382682
vn 0.923880 0.000002 -0.382682
vn 0.923880 0.000002 -0.382682
vn 0.923880 0.000002 -0.382682
vn -0.923880 0.000001 -0.382683
vn -0.923880 0.000001 -0.382683
vn -0.923880 0.000001 -0.382683
vn -0.923880 0.000001 -0.382683
vn -0.923879 -0.000001 0.382684
vn -0.923879 -0.000001 0.382684
vn -0.923879 -0.000001 0.382684
vn -0.923879 -0.000001 0.382684
vn 0.382681 0.000000 -0.923881
vn 0.382681 0.000000 -0.923881
vn 0.382681 0.000000 -0.923881
vn 0.382681 0.000000 -0.923881
vn 0.923881 0.000000 -0.382680
vn 0.923881 0.000000 -0.382680
vn 0.923881 0.000000 -0.382680
vn 0.923879 0.000000 0.382685
vn 0.923879 0.000000 0.382685
vn 0.923879 0.000000 0.382685
vn 0.382687 0.000000 0.923878
vn 0.382687 0.000000 0.923878
vn 0.382687 0.000000 0.923878
vn 0.382687 0.000000 0.923878
vn -0.382687 0.000000 0.923878
vn -0.382687 0.000000 0.923878
vn -0.382687 0.000000 0.923878
vn -0.382687 0.000000 0.923878
vn -0.923878 0.000000 0.382686
vn -0.923878 0.000000 0.382686
vn -0.923878 0.000000 0.382686
vn -0.923880 0.000000 -0.382682
vn -0.923880 0.000000 -0.382682
vn -0.923880 0.000000 -0.382682
vn -0.382681 0.000000 -0.923880
vn -0.382681 0.000000 -0.923880
vn -0.382681 0.000000 -0.923880
vn -0.382681 0.000000 -0.923880
vn -0.923878 0.000000 0.382686
vn -0.923878 0.000000 0.382686
vn -0.923878 0.000000 0.382686
vn -0.382687 0.000000 0.923878
vn -0.382687 0.000000 0.923878
vn -0.382687 0.000000 0.923878
vn -0.382687 0.000000 0.923878
vn 0.382687 -0.000000 0.923878
vn 0.382687 -0.000000 0.923878
vn 0.382687 -0.000000 0.923878
vn 0.382687 -0.000000 0.923878
vn 0.923879 0.000000 0.382684
vn 0.923879 0.000000 0.382684
vn 0.923879 0.000000 0.382684
vn 0.923881 0.000000 -0.382680
vn 0.923881 0.000000 -0.382680
vn 0.923881 0.000000 -0.382680
vn 0.382681 0.000000 -0.923881
vn 0.382681 0.000000 -0.923881
vn 0.382681 0.000000 -0.923881
vn 0.382681 0.000000 -0.923881
vn -0.382681 0.000000 -0.923880
vn -0.382681 0.000000 -0.923880
vn -0.382681 0.000000 -0.923880
vn -0.382681 0.000000 -0.923880
vn -0.923880 0.000000 -0.382682
vn -0.923880 0.000000 -0.382682
vn -0.923880 0.000000 -0.382681
vn -0.923880 0.000000 0.382683
vn -0.923880 0.000000 0.382683
vn -0.923880 0.000000 0.382683
vn -0.923880 0.000000 0.382683
vn -0.382684 0.000000 0.923879
vn -0.382684 0.000000 0.923879
vn -0.382684 0.000000 0.923879
vn -0.382684 0.000000 0.923879
vn 0.382684 0.000000 0.923879
vn 0.382684 0.000000 0.923879
vn 0.382684 0.000000 0.923879
vn 0.382684 0.000000 0.923879
vn 0.923880 0.000000 0.382682
vn 0.923880 0.000000 0.382682
vn 0.923880 0.000000 0.382682
vn 0.923880 0.000000 0.382682
vn 0.923879 0.000000 -0.382684
vn 0.923879 0.000000 -0.382684
vn 0.923879 0.000000 -0.382684
vn 0.923879 0.000000 -0.382684
vn 0.382683 0.000000 -0.923880
vn 0.382683 0.000000 -0.923880
vn 0.382683 0.000000 -0.923880
vn 0.382683 0.000000 -0.923880
vn -0.382683 0.000000 -0.923880
vn -0.382683 0.000000 -0.923880
vn -0.382683 0.000000 -0.923880
vn -0.382683 0.000000 -0.923880
vn -0.923879 0.000000 -0.382685
vn -0.923879 0.000000 -0.382685
vn -0.923879 0.000000 -0.382685
vn -0.923879 0.000000 -0.382685
vn 0.382680 0.000000 -0.923881
vn 0.382680 0.000000 -0.923881
vn 0.382680 0.000000 -0.923881
vn 0.382680 0.000000 -0.923881
vn 0.923880 0.000000 -0.382683
vn 0.923880 0.000000 -0.382683
vn 0.923880 0.000000 -0.382683
vn 0.923880 0.000000 -0.382683
vn 0.923880 0.000000 0.382683
vn 0.923880 0.000000 0.382683
vn 0.923880 0.000000 0.382683
vn 0.923880 0.000000 0.382683
vn 0.382685 0.000000 0.923879
vn 0.382685 0.000000 0.923879
vn 0.382685 0.000000 0.923879
vn 0.382685 0.000000 0.923879
vn -0.382685 0.000000 0.923879
vn -0.382685 0.000000 0.923879
vn -0.382685 0.000000 0.923879
vn -0.382685 0.000000 0.923879
vn -0.923880 0.000000 0.382683
vn -0.923880 0.000000 0.382683
vn -0.923880 0.000000 0.382683
vn -0.923880 0.000000 0.382683
vn -0.923880 0.000000 -0.382683
vn -0.923880 0.000000 -0.382683
vn -0.923880 0.000000 -0.382683
vn -0.923880 0.000000 -0.382683
vn -0.382680 0.000000 -0.923881
vn -0.382680 0.000000 -0.923881
vn -0.382680 0.000000 -0.923881
vn -0.382680 0.000000 -0.923881
s off
f 72/136/1 73/137/2 75/139/3 76/140/4
f 73/137/5 74/138/6 82/146/7 75/139/8
f 74/138/9 67/131/10 81/145/11 82/146/12
f 67/131/13 68/132/14 80/144/15 81/145/16
f 68/132/17 69/133/18 79/143/19 80/144/20
f 69/133/21 70/134/22 78/142/23 79/143/24
f 70/134/25 71/135/26 77/141/27 78/142/28
f 71/135/29 72/136/30 76/140/31 77/141/32
f 2/2/33 1/1/34 9/35/35
f 3/3/36 2/2/37 9/35/38
f 4/4/39 3/3/40 9/35/41
f 5/5/42 4/4/43 9/35/44
f 6/6/45 5/5/46 9/35/47
f 7/7/48 6/6/49 9/35/50
f 8/8/51 7/7/52 9/35/53
f 1/1/54 8/8/55 9/35/56
f 21/21/57 20/20/58 34/34/59
f 20/20/60 23/23/61 34/34/62
f 23/23/63 25/25/64 34/34/65
f 25/25/66 27/27/67 34/34/68
f 27/27/69 29/29/70 34/34/71
f 29/29/72 31/31/73 34/34/74
f 31/31/75 33/33/76 34/34/77
f 33/33/78 21/21/79 34/34/80
f 35/53/81 47/83/82 11/38/83 10/37/84
f 11/38/85 50/89/86 36/54/87 12/39/88
f 36/54/89 37/55/90 13/40/91 12/39/92
f 37/55/93 38/56/94 14/41/95 13/40/96
f 38/56/97 51/91/98 15/42/99 14/41/100
f 15/42/101 54/97/102 39/57/103 16/43/104
f 39/58/105 40/59/106 17/36/107 16/44/108
f 40/59/109 35/53/110 10/37/111 17/36/112
f 16/45/113 17/46/114 19/19/115 18/18/116
f 17/46/117 10/47/118 22/22/119 19/19/120
f 10/47/121 11/48/122 24/24/123 22/22/124
f 11/48/125 12/49/126 26/26/127 24/24/128
f 12/49/129 13/50/130 28/28/131 26/26/132
f 13/50/133 14/51/134 30/30/135 28/28/136
f 14/51/137 15/52/138 32/32/139 30/30/140
f 15/52/141 16/45/142 18/18/143 32/32/144
f 11/69/145 47/84/146 48/85/147 4/68/148
f 49/87/149 50/90/150 11/69/151 4/68/152
f 61/119/153 62/120/154 58/121/155 59/122/156
f 62/120/157 63/123/158 57/124/159 58/121/160
f 15/78/161 51/92/162 52/93/163 8/77/164
f 53/95/165 54/98/166 15/78/167 8/77/168
f 64/125/169 65/126/170 55/127/171 56/128/172
f 65/126/173 66/129/174 60/130/175 55/127/176
f 5/13/177 6/14/178 43/62/179 42/61/180
f 6/14/181 7/15/182 44/63/183 43/62/184
f 1/9/185 2/10/186 46/66/187 45/65/188
f 2/10/189 3/11/190 41/60/191 46/66/192
f 66/118/193 48/99/194 47/100/195 60/112/196
f 59/111/197 50/101/198 49/102/199 61/113/200
f 63/115/201 52/103/202 51/104/203 57/109/204
f 56/108/205 54/105/206 53/106/207 64/116/208
f 7/15/209 8/16/210 52/94/211 44/63/212
f 8/16/213 1/17/214 45/64/215 53/96/216
f 3/11/217 4/12/218 48/86/219 41/60/220
f 4/12/221 5/13/222 42/61/223 49/88/224
f 56/108/225 55/107/226 40/79/227 39/80/228
f 54/105/229 56/108/230 39/80/231
f 57/109/232 51/104/233 38/74/234
f 58/110/235 57/109/236 38/74/237 37/71/238
f 59/111/239 58/110/240 37/71/241 36/72/242
f 50/101/243 59/111/244 36/72/245
f 60/112/246 47/100/247 35/82/248
f 55/107/249 60/112/250 35/82/251 40/79/252
f 61/113/253 49/102/254 42/67/255
f 42/67/256 43/70/257 62/114/258 61/113/259
f 43/70/260 44/73/261 63/115/262 62/114/263
f 44/73/264 52/103/265 63/115/266
f 64/116/267 53/106/268 45/75/269
f 45/75/270 46/76/271 65/117/272 64/116/273
f 46/76/274 41/81/275 66/118/276 65/117/277
f 41/81/278 48/99/279 66/118/280
f 24/24/281 26/26/282 68/132/283 67/131/284
f 26/26/285 28/28/286 69/133/287 68/132/288
f 28/28/289 30/30/290 70/134/291 69/133/292
f 30/30/293 32/32/294 71/135/295 70/134/296
f 32/32/297 18/18/298 72/136/299 71/135/300
f 18/18/301 19/19/302 73/137/303 72/136/304
f 19/19/305 22/22/306 74/138/307 73/137/308
f 22/22/309 24/24/310 67/131/311 74/138/312
f 76/140/313 75/139/314 20/20/315 21/21/316
f 77/141/317 76/140/318 21/21/319 33/33/320
f 78/142/321 77/141/322 33/33/323 31/31/324
f 79/143/325 78/142/326 31/31/327 29/29/328
f 80/144/329 79/143/330 29/29/331 27/27/332
f 81/145/333 80/144/334 27/27/335 25/25/336
f 82/146/337 81/145/338 25/25/339 23/23/340
f 75/139/341 82/146/342 23/23/343 20/20/344
