# This file uses meters as units for non-parametric coordinates.

v -26.806152 3.815476 128.727173
v -26.893982 8.131094 128.887573
v -28.265045 10.413639 -131.041382
v -28.412933 5.736962 -130.833435
v -35.752655 2.237302 128.793091
v -37.498444 5.847264 -129.849182
v -37.664093 1.106664 -129.488708
v -35.658661 -2.511226 128.833069
v 16.678802 11.179338 -131.027405
v 17.486542 8.399205 129.487122
v 17.633301 3.069398 129.281738
v 16.527252 6.515090 -130.781433
v 8.499329 14.957015 129.655212
v 7.775635 16.204750 -130.517517
v 7.627045 11.530520 -130.302124
v 8.606567 10.309858 129.371765
v -0.199860 10.285070 129.413818
v -1.423492 9.551769 -130.185669
v -1.602051 4.034620 -129.901062
v -0.082123 5.619259 129.190857
v -9.049805 9.907196 131.075317
v -10.276398 14.140655 -130.265137
v -10.424744 9.465529 -130.052490
v -8.984253 6.669765 130.984558
v -17.891998 5.663867 130.828674
v -19.444031 7.256154 -130.291870
v -19.613495 2.063108 -130.011169
v -17.796539 0.988623 130.634338
v 53.799576 4.309068 127.975464
v 52.138000 2.985552 -128.557861
v 51.987732 -1.682980 -128.325073
v 53.916870 -0.378998 127.823547
v 44.550903 8.572855 128.358032
v 43.304626 7.774323 -128.772400
v 43.143158 3.143784 -128.423279
v 44.657318 3.883764 128.208740
v 35.499359 5.996452 128.617981
v 34.189667 3.526799 -128.624146
v 34.000305 -1.009118 -127.985413
v 35.644257 0.748624 128.432190
v 26.302582 13.483256 129.255676
v 25.700653 9.885538 -131.709656
v 25.556061 6.058189 -131.315552
v 26.411896 8.796110 129.100342
v -44.819031 6.524866 129.111328
v -46.413971 10.402595 -129.342407
v -46.561310 5.724048 -129.140198
v -44.723816 1.838248 128.953491
v -53.698059 1.952418 128.540344
v -55.537262 6.183267 -129.107849
v -55.685028 1.506251 -128.901001
v -53.602692 -2.728678 128.364807
v -7.009918 -0.063943 51.492371
v -15.364410 4.406874 51.863831
v -22.953796 -0.215065 52.451904
v -31.919342 3.193570 46.249146
v -39.770111 -2.188927 42.168152
v -46.452454 2.563584 44.390930
v -54.503418 -1.549584 48.372375
v -54.604431 3.141467 48.090759
v -46.607819 7.392159 44.970764
v -40.112091 2.259969 40.376831
v -32.054138 8.019301 46.814026
v -22.999084 4.583511 52.836975
v -15.623199 9.043240 51.258911
v -6.733734 4.657053 51.353333
v 0.629059 8.274670 44.504333
v 10.246765 4.694207 49.556152
v 18.542114 10.020988 53.296631
v 31.632263 6.562852 59.069458
v 41.767303 10.333969 52.850281
v 52.646561 5.594385 50.494263
v 52.927155 0.894063 50.696350
v 41.940430 5.743832 53.754944
v 31.944977 1.623369 57.770203
v 18.722412 5.455266 54.353455
v 10.032410 0.330531 51.924988
v 1.042511 3.818588 46.219604
v -1.430420 -0.343185 -53.607788
v 7.273132 3.230435 -52.481201
v 15.388214 -2.983913 -54.520569
v 23.548828 0.962999 -52.606812
v 30.427917 -4.295832 -50.246643
v 41.104340 0.659159 -53.866577
v 50.065613 -3.457071 -57.678162
v 50.212036 1.224501 -57.359070
v 41.478699 5.513884 -54.468750
v 29.861298 0.110903 -48.301453
v 24.033813 5.819230 -53.234436
v 15.688232 1.418681 -52.320496
v 7.455597 7.404763 -51.671082
v -0.992371 4.585916 -49.810913
v -10.120972 7.440908 -56.049255
v -17.681030 4.458018 -63.005188
v -27.642548 7.872554 -55.447937
v -36.769470 4.092849 -58.081543
v -46.656281 11.594152 -71.417969
v -54.763580 6.866700 -69.372192
v -53.360260 1.401564 -65.935852
v -46.611755 6.182282 -68.036072
v -36.770172 -1.340889 -54.580627
v -27.784576 3.398504 -56.828064
v -18.249451 -0.582545 -61.422363
v -10.252045 3.033461 -57.771423
vt 0.027679 0.280323
vt 0.027679 0.280323
vt 0.100088 0.255417
vt 0.100088 0.255417
vt 0.027679 0.280323
vt 0.027679 0.280323
vt 0.100088 0.255417
vt 0.100088 0.255417
vt 0.027679 0.280323
vt 0.027679 0.280323
vt 0.100088 0.255417
vt 0.100088 0.255417
vt 0.100088 0.255417
vt 0.100088 0.255417
vt 0.100088 0.255417
vt 0.027679 0.280323
vt 0.100088 0.255417
vt 0.027679 0.280323
vt 0.100088 0.255417
vt 0.100088 0.255417
vt 0.027679 0.280323
vt 0.100088 0.255417
vt 0.100088 0.255417
vt 0.100088 0.255417
vt 0.027679 0.280323
vt 0.100088 0.255417
vt 0.100088 0.255417
vt 0.100088 0.255417
vt 0.100088 0.255417
vt 0.027679 0.280323
vt 0.100088 0.255417
vt 0.100088 0.255417
vt 0.100088 0.255417
vt 0.100088 0.255417
vt 0.100088 0.255417
vt 0.100088 0.255417
vt 0.100088 0.255417
vt 0.100088 0.255417
vt 0.100088 0.255417
vt 0.100088 0.255417
vt 0.100088 0.255417
vt 0.027679 0.280323
vt 0.027679 0.280323
vt 0.100088 0.255417
vt 0.100088 0.255417
vt 0.027679 0.280323
vt 0.027679 0.280323
vt 0.027679 0.280323
vt 0.027679 0.280323
vt 0.027679 0.280323
vt 0.027679 0.280323
vt 0.100088 0.255417
vt 0.027679 0.280323
vt 0.100088 0.255417
vt 0.100088 0.255417
vt 0.027679 0.280323
vt 0.100088 0.255417
vt 0.027679 0.280323
vt 0.100088 0.255417
vt 0.100088 0.255417
vt 0.100088 0.255417
vt 0.027679 0.280323
vt 0.027679 0.280323
vt 0.100088 0.255417
vt 0.100088 0.255417
vt 0.100088 0.255417
vt 0.027679 0.280323
vt 0.027679 0.280323
vt 0.027679 0.280323
vt 0.027679 0.280323
vt 0.100088 0.255417
vt 0.027679 0.280323
vt 0.100088 0.255417
vt 0.027679 0.280323
vt 0.027679 0.280323
vt 0.100088 0.255417
vt 0.100088 0.255417
vt 0.100088 0.255417
vt 0.027679 0.280323
vt 0.100088 0.255417
vt 0.100088 0.255417
vt 0.027679 0.280323
vt 0.100088 0.255417
vt 0.100088 0.255417
vt 0.100088 0.255417
vt 0.100088 0.255417
vt 0.100088 0.255417
vt 0.100088 0.255417
vt 0.027679 0.280323
vt 0.027679 0.280323
vt 0.100088 0.255417
vt 0.100088 0.255417
vt 0.100088 0.255417
vt 0.100088 0.255417
vt 0.100088 0.255417
vt 0.100088 0.255417
vt 0.100088 0.255417
vt 0.100088 0.255417
vt 0.100088 0.255417
vt 0.100088 0.255417
vt 0.100088 0.255417
vt 0.100088 0.255417
vt 0.100088 0.255417
vt 0.100088 0.255417
vt 0.100088 0.255417
vt 0.100088 0.255417
vt 0.100088 0.255417
vt 0.100088 0.255417
vt 0.100088 0.255417
vt 0.027679 0.280323
vt 0.100088 0.255417
vt 0.100088 0.255417
vt 0.100088 0.255417
vt 0.100088 0.255417
vt 0.100088 0.255417
vt 0.100088 0.255417
vt 0.027679 0.280323
vt 0.100088 0.255417
vt 0.100088 0.255417
vt 0.100088 0.255417
vt 0.100088 0.255417
vt 0.100088 0.255417
vt 0.100088 0.255417
vt 0.100088 0.255417
vt 0.100088 0.255417
vt 0.100088 0.255417
vt 0.100088 0.255417
vt 0.100088 0.255417
vt 0.100088 0.255417
vt 0.100088 0.255417
vt 0.100088 0.255417
vt 0.100088 0.255417
vt 0.100088 0.255417
vt 0.100088 0.255417
vt 0.100088 0.255417
vt 0.100088 0.255417
vt 0.100088 0.255417
vt 0.027679 0.280323
vt 0.027679 0.280323
vt 0.027679 0.280323
vt 0.027679 0.280323
vt 0.027679 0.280323
vt 0.027679 0.280323
vt 0.027679 0.280323
vt 0.027679 0.280323
vt 0.027679 0.280323
vt 0.027679 0.280323
vt 0.027679 0.280323
vt 0.027679 0.280323
vt 0.027679 0.280323
vt 0.027679 0.280323
vt 0.027679 0.280323
vt 0.027679 0.280323
vt 0.027679 0.280323
vt 0.027679 0.280323
vt 0.027679 0.280323
vt 0.027679 0.280323
vt 0.027679 0.280323
vt 0.027679 0.280323
vt 0.027679 0.280323
vt 0.027679 0.280323
vt 0.027679 0.280323
vt 0.027679 0.280323
vt 0.027679 0.280323
vt 0.027679 0.280323
vt 0.027679 0.280323
vt 0.027679 0.280323
vt 0.027679 0.280323
vt 0.027679 0.280323
vt 0.027679 0.280323
vn -0.480768 0.876776 -0.011208
vn -0.480768 0.876776 -0.011208
vn -0.480768 0.876776 -0.011208
vn -0.480768 0.876776 -0.011208
vn -0.108208 -0.056306 -0.992532
vn -0.108208 -0.056306 -0.992532
vn -0.108208 -0.056306 -0.992532
vn -0.108208 -0.056306 -0.992532
vn 0.514090 -0.857625 0.013836
vn 0.514090 -0.857625 0.013836
vn 0.514090 -0.857624 0.013836
vn 0.514090 -0.857624 0.013836
vn 0.009677 -0.013090 0.999867
vn 0.009677 -0.013090 0.999868
vn 0.009677 -0.013090 0.999868
vn 0.009677 -0.013090 0.999868
vn 0.044814 -0.034807 0.998389
vn 0.044814 -0.034807 0.998389
vn 0.044814 -0.034807 0.998389
vn 0.044814 -0.034807 0.998389
vn -0.496576 0.866112 -0.057125
vn -0.496576 0.866112 -0.057125
vn -0.496576 0.866112 -0.057125
vn -0.496576 0.866112 -0.057125
vn -0.074045 -0.072390 -0.994624
vn -0.074045 -0.072390 -0.994624
vn -0.074045 -0.072390 -0.994624
vn -0.074045 -0.072390 -0.994624
vn 0.462413 -0.884992 0.054437
vn 0.462413 -0.884992 0.054437
vn 0.462414 -0.884992 0.054437
vn 0.462413 -0.884992 0.054437
vn 0.339876 0.940366 0.013988
vn 0.339876 0.940366 0.013988
vn 0.339876 0.940366 0.013988
vn 0.339876 0.940366 0.013988
vn -0.220801 -0.042945 0.974373
vn -0.220801 -0.042945 0.974373
vn -0.220801 -0.042945 0.974373
vn -0.220801 -0.042945 0.974373
vn -0.369817 -0.928994 -0.014371
vn -0.369817 -0.928994 -0.014371
vn -0.369817 -0.928994 -0.014371
vn -0.369817 -0.928994 -0.014371
vn 0.068888 -0.051541 -0.996292
vn 0.068888 -0.051541 -0.996292
vn 0.068888 -0.051541 -0.996292
vn 0.068888 -0.051541 -0.996292
vn 0.470299 0.882443 0.010661
vn 0.470299 0.882443 0.010661
vn 0.470299 0.882443 0.010661
vn 0.470299 0.882443 0.010661
vn -0.081578 -0.046564 -0.995579
vn -0.081578 -0.046564 -0.995579
vn -0.081578 -0.046564 -0.995579
vn -0.081578 -0.046564 -0.995579
vn -0.491534 -0.870786 -0.011196
vn -0.491534 -0.870786 -0.011196
vn -0.491534 -0.870786 -0.011196
vn -0.491534 -0.870786 -0.011196
vn -0.023625 -0.049524 0.998493
vn -0.023625 -0.049524 0.998494
vn -0.023625 -0.049524 0.998493
vn -0.023625 -0.049524 0.998493
vn -0.390674 0.920064 -0.029268
vn -0.390674 0.920064 -0.029268
vn -0.390674 0.920064 -0.029268
vn -0.390674 0.920064 -0.029268
vn -0.002153 -0.048933 -0.998800
vn -0.002153 -0.048933 -0.998800
vn -0.002153 -0.048933 -0.998800
vn -0.002153 -0.048933 -0.998800
vn 0.412119 -0.910707 0.027758
vn 0.412119 -0.910707 0.027758
vn 0.412119 -0.910707 0.027758
vn 0.412119 -0.910707 0.027758
vn 0.004920 -0.054177 0.998519
vn 0.004920 -0.054177 0.998519
vn 0.004920 -0.054177 0.998519
vn 0.004920 -0.054177 0.998519
vn 0.369099 0.929307 0.012447
vn 0.369099 0.929307 0.012447
vn 0.369099 0.929307 0.012447
vn 0.369099 0.929307 0.012447
vn -0.014314 -0.048266 -0.998732
vn -0.014314 -0.048266 -0.998732
vn -0.014314 -0.048266 -0.998732
vn -0.014314 -0.048266 -0.998732
vn -0.413048 -0.910609 -0.013558
vn -0.413048 -0.910609 -0.013558
vn -0.413048 -0.910609 -0.013558
vn -0.413048 -0.910609 -0.013558
vn 0.189676 -0.034552 0.981239
vn 0.189676 -0.034552 0.981239
vn 0.189676 -0.034552 0.981239
vn 0.189676 -0.034552 0.981239
vn -0.437674 0.898692 -0.028181
vn -0.437674 0.898692 -0.028181
vn -0.437674 0.898692 -0.028181
vn -0.437674 0.898692 -0.028181
vn 0.039014 -0.051147 -0.997929
vn 0.039014 -0.051147 -0.997929
vn 0.039014 -0.051147 -0.997929
vn 0.039014 -0.051147 -0.997929
vn 0.462911 -0.885986 0.027232
vn 0.462911 -0.885986 0.027232
vn 0.462911 -0.885986 0.027232
vn 0.462911 -0.885986 0.027232
vn -0.013390 -0.036276 0.999252
vn -0.013390 -0.036276 0.999252
vn -0.013390 -0.036276 0.999252
vn -0.013390 -0.036276 0.999252
vn 0.408012 0.911910 -0.044111
vn 0.408013 0.911910 -0.044111
vn 0.408013 0.911910 -0.044111
vn 0.408013 0.911910 -0.044111
vn -0.016021 -0.061912 -0.997953
vn -0.016021 -0.061912 -0.997953
vn -0.016021 -0.061912 -0.997953
vn -0.016021 -0.061912 -0.997953
vn -0.396046 -0.917035 0.046841
vn -0.396046 -0.917035 0.046841
vn -0.396046 -0.917035 0.046841
vn -0.396046 -0.917035 0.046841
vn 0.026957 -0.031451 0.999142
vn 0.026957 -0.031451 0.999142
vn 0.026957 -0.031451 0.999142
vn 0.026957 -0.031451 0.999142
vn -0.409358 0.911316 -0.043920
vn -0.409358 0.911316 -0.043920
vn -0.409358 0.911316 -0.043920
vn -0.409358 0.911316 -0.043920
vn 0.017689 -0.107800 -0.994015
vn 0.017689 -0.107800 -0.994015
vn 0.017689 -0.107800 -0.994015
vn 0.017689 -0.107800 -0.994015
vn 0.414561 -0.909058 0.041865
vn 0.414561 -0.909058 0.041865
vn 0.414561 -0.909058 0.041865
vn 0.414561 -0.909058 0.041865
vn 0.037079 -0.032742 0.998776
vn 0.037079 -0.032742 0.998776
vn 0.037079 -0.032742 0.998776
vn 0.037079 -0.032742 0.998776
vn 0.452420 0.891057 -0.036511
vn 0.452420 0.891057 -0.036511
vn 0.452420 0.891057 -0.036511
vn 0.452420 0.891057 -0.036511
vn 0.260588 -0.128573 -0.956850
vn 0.260588 -0.128573 -0.956850
vn 0.260588 -0.128573 -0.956850
vn 0.260588 -0.128573 -0.956850
vn -0.420680 -0.906437 0.037423
vn -0.420680 -0.906437 0.037423
vn -0.420680 -0.906437 0.037423
vn -0.420680 -0.906437 0.037423
vn 0.042776 -0.033191 0.998533
vn 0.042776 -0.033191 0.998533
vn 0.042776 -0.033191 0.998533
vn 0.042776 -0.033191 0.998533
vn 0.599714 0.799588 0.031655
vn 0.599714 0.799588 0.031655
vn 0.599714 0.799588 0.031655
vn 0.599714 0.799588 0.031655
vn -0.077095 -0.056902 -0.995399
vn -0.077095 -0.056902 -0.995399
vn -0.077095 -0.056902 -0.995399
vn -0.077095 -0.056902 -0.995399
vn -0.585039 -0.810612 -0.025255
vn -0.585039 -0.810612 -0.025255
vn -0.585039 -0.810612 -0.025255
vn -0.585039 -0.810612 -0.025255
vn 0.018413 -0.012119 0.999757
vn 0.018413 -0.012119 0.999757
vn 0.018413 -0.012119 0.999757
vn 0.018413 -0.012119 0.999757
vn -0.479330 0.877117 0.030159
vn -0.479330 0.877117 0.030159
vn -0.479330 0.877117 0.030159
vn -0.479330 0.877117 0.030159
vn -0.005827 -0.043498 -0.999037
vn -0.005827 -0.043498 -0.999037
vn -0.005827 -0.043498 -0.999037
vn -0.005827 -0.043498 -0.999037
vn 0.508084 -0.861007 -0.022744
vn 0.508084 -0.861007 -0.022744
vn 0.508084 -0.861007 -0.022744
vn 0.508084 -0.861007 -0.022744
vn -0.046421 -0.036470 0.998256
vn -0.046421 -0.036470 0.998256
vn -0.046421 -0.036470 0.998256
vn -0.046421 -0.036470 0.998256
vn 0.999579 0.014608 -0.025072
vn 0.999579 0.014608 -0.025072
vn 0.999579 0.014608 -0.025072
vn 0.999579 0.014608 -0.025072
vn -0.988716 -0.149562 -0.008506
vn -0.988716 -0.149562 -0.008506
vn -0.988716 -0.149562 -0.008506
vn -0.988716 -0.149562 -0.008506
vn -0.295555 -0.952506 0.073345
vn -0.295555 -0.952506 0.073345
vn -0.295555 -0.952506 0.073345
vn -0.295555 -0.952506 0.073345
vn 0.531608 -0.846747 -0.020331
vn 0.531608 -0.846747 -0.020331
vn 0.531608 -0.846747 -0.020331
vn 0.531608 -0.846746 -0.020331
vn -0.340600 -0.939648 0.032451
vn -0.340600 -0.939648 0.032451
vn -0.340600 -0.939648 0.032451
vn -0.340600 -0.939648 0.032451
vn 0.578553 -0.815089 -0.030109
vn 0.578553 -0.815089 -0.030109
vn 0.578553 -0.815089 -0.030109
vn 0.578553 -0.815089 -0.030109
vn -0.499077 -0.866479 0.011721
vn -0.499077 -0.866479 0.011721
vn -0.499077 -0.866479 0.011721
vn -0.499077 -0.866479 0.011721
vn 0.453380 -0.891145 -0.017558
vn 0.453380 -0.891145 -0.017558
vn 0.453380 -0.891145 -0.017558
vn 0.453380 -0.891145 -0.017558
vn -0.999723 -0.020824 0.010953
vn -0.999723 -0.020824 0.010953
vn -0.999723 -0.020824 0.010953
vn -0.999723 -0.020824 0.010953
vn -0.461035 0.887186 0.018634
vn -0.461035 0.887186 0.018634
vn -0.461035 0.887186 0.018634
vn -0.461035 0.887186 0.018634
vn 0.514559 0.857342 -0.013912
vn 0.514559 0.857342 -0.013912
vn 0.514559 0.857342 -0.013912
vn 0.514559 0.857342 -0.013912
vn -0.575272 0.817348 0.031694
vn -0.575272 0.817348 0.031694
vn -0.575272 0.817348 0.031694
vn -0.575272 0.817348 0.031694
vn 0.321616 0.946465 -0.027679
vn 0.321616 0.946465 -0.027679
vn 0.321616 0.946465 -0.027679
vn 0.321616 0.946465 -0.027679
vn -0.471179 0.881711 0.024012
vn -0.471179 0.881711 0.024012
vn -0.471179 0.881711 0.024012
vn -0.471179 0.881711 0.024012
vn 0.215155 0.974859 -0.057949
vn 0.215155 0.974859 -0.057949
vn 0.215155 0.974859 -0.057949
vn 0.215155 0.974859 -0.057949
vn -0.466732 0.884031 -0.025488
vn -0.466732 0.884031 -0.025488
vn -0.466732 0.884031 -0.025488
vn -0.466732 0.884031 -0.025488
vn 0.496159 0.862490 -0.099684
vn 0.496159 0.862490 -0.099684
vn 0.496159 0.862490 -0.099684
vn 0.496159 0.862490 -0.099684
vn -0.521377 0.853256 0.010939
vn -0.521377 0.853256 0.010939
vn -0.521377 0.853256 0.010939
vn -0.521377 0.853256 0.010939
vn 0.450113 0.891355 -0.053708
vn 0.450113 0.891355 -0.053708
vn 0.450113 0.891355 -0.053708
vn 0.450113 0.891355 -0.053708
vn -0.305035 0.951892 0.029259
vn -0.305035 0.951892 0.029259
vn -0.305035 0.951892 0.029259
vn -0.305035 0.951892 0.029259
vn 0.409174 0.912424 0.007640
vn 0.409174 0.912425 0.007640
vn 0.409174 0.912425 0.007640
vn 0.409174 0.912424 0.007640
vn 0.999020 0.042270 -0.013146
vn 0.999020 0.042270 -0.013146
vn 0.999020 0.042270 -0.013146
vn 0.999020 0.042270 -0.013146
vn -0.411653 -0.911298 -0.008770
vn -0.411653 -0.911299 -0.008770
vn -0.411653 -0.911298 -0.008770
vn -0.411653 -0.911298 -0.008770
vn 0.349958 -0.936180 -0.033116
vn 0.349958 -0.936180 -0.033116
vn 0.349958 -0.936180 -0.033116
vn 0.349958 -0.936180 -0.033116
vn -0.471951 -0.880096 0.051891
vn -0.471951 -0.880096 0.051891
vn -0.471951 -0.880096 0.051891
vn -0.471951 -0.880096 0.051891
vn 0.529367 -0.848173 -0.019313
vn 0.529367 -0.848173 -0.019313
vn 0.529367 -0.848173 -0.019313
vn 0.529367 -0.848173 -0.019313
vn -0.531652 -0.841204 0.098604
vn -0.531651 -0.841204 0.098604
vn -0.531651 -0.841204 0.098604
vn -0.531651 -0.841204 0.098604
vn 0.461795 -0.886620 0.025501
vn 0.461795 -0.886620 0.025501
vn 0.461795 -0.886620 0.025501
vn 0.461795 -0.886620 0.025501
vn 0.526036 -0.847650 -0.069108
vn 0.526036 -0.847650 -0.069108
vn 0.526036 -0.847650 -0.069108
vn 0.526036 -0.847650 -0.069108
vn -0.558364 -0.823481 -0.100536
vn -0.558365 -0.823481 -0.100536
vn -0.558364 -0.823481 -0.100536
vn -0.558364 -0.823481 -0.100536
vn 0.204958 -0.974839 -0.087644
vn 0.204958 -0.974839 -0.087644
vn 0.204958 -0.974839 -0.087644
vn 0.204958 -0.974839 -0.087644
vn -0.610945 -0.789077 -0.064065
vn -0.610945 -0.789077 -0.064065
vn -0.610945 -0.789077 -0.064065
vn -0.610945 -0.789077 -0.064065
vn 0.414237 -0.909966 -0.019222
vn 0.414237 -0.909966 -0.019222
vn 0.414237 -0.909966 -0.019222
vn 0.414237 -0.909966 -0.019222
vn -0.454890 -0.889715 -0.038503
vn -0.454890 -0.889715 -0.038503
vn -0.454890 -0.889715 -0.038503
vn -0.454890 -0.889715 -0.038503
vn 0.999143 -0.031947 0.026309
vn 0.999143 -0.031947 0.026309
vn 0.999143 -0.031947 0.026309
vn 0.999143 -0.031947 0.026309
vn 0.463169 0.885522 0.036418
vn 0.463169 0.885522 0.036418
vn 0.463169 0.885522 0.036418
vn 0.463169 0.885522 0.036418
vn -0.417752 0.908407 0.016721
vn -0.417752 0.908407 0.016721
vn -0.417752 0.908407 0.016721
vn -0.417752 0.908407 0.016721
vn 0.623360 0.779609 0.060268
vn 0.623360 0.779609 0.060268
vn 0.623360 0.779609 0.060268
vn 0.623360 0.779609 0.060268
vn -0.168026 0.982234 0.083564
vn -0.168026 0.982234 0.083564
vn -0.168026 0.982234 0.083564
vn -0.168026 0.982234 0.083564
vn 0.542655 0.833651 0.102723
vn 0.542655 0.833651 0.102723
vn 0.542655 0.833651 0.102723
vn 0.542655 0.833651 0.102723
vn -0.464125 0.882450 0.076618
vn -0.464125 0.882450 0.076618
vn -0.464125 0.882450 0.076618
vn -0.464125 0.882450 0.076618
vn 0.360851 0.930081 0.068816
vn 0.360851 0.930081 0.068816
vn 0.360851 0.930081 0.068816
vn 0.360851 0.930081 0.068816
vn -0.526727 0.847619 0.064035
vn -0.526727 0.847619 0.064035
vn -0.526727 0.847619 0.064035
vn -0.526727 0.847619 0.064035
vn 0.339620 0.940101 0.029460
vn 0.339620 0.940101 0.029460
vn 0.339620 0.940101 0.029460
vn 0.339620 0.940101 0.029460
vn -0.415604 0.909041 0.030310
vn -0.415604 0.909041 0.030310
vn -0.415604 0.909041 0.030310
vn -0.415604 0.909041 0.030310
vn 0.538998 0.842306 0.001633
vn 0.538998 0.842306 0.001633
vn 0.538998 0.842306 0.001633
vn 0.538998 0.842306 0.001633
vn -0.462042 0.886776 -0.012045
vn -0.462042 0.886776 -0.012045
vn -0.462042 0.886776 -0.012045
vn -0.462042 0.886776 -0.012045
vn -0.993179 -0.113749 0.025616
vn -0.993179 -0.113749 0.025616
vn -0.993179 -0.113749 0.025616
vn -0.993179 -0.113749 0.025616
vn 0.492448 -0.870317 -0.006547
vn 0.492448 -0.870317 -0.006547
vn 0.492448 -0.870317 -0.006547
vn 0.492448 -0.870317 -0.006547
vn -0.539289 -0.842073 -0.008972
vn -0.539289 -0.842073 -0.008972
vn -0.539289 -0.842073 -0.008972
vn -0.539289 -0.842073 -0.008972
vn 0.451547 -0.891627 -0.033272
vn 0.451547 -0.891627 -0.033272
vn 0.451547 -0.891627 -0.033272
vn 0.451547 -0.891627 -0.033272
vn -0.389820 -0.920503 -0.026728
vn -0.389820 -0.920503 -0.026728
vn -0.389820 -0.920503 -0.026728
vn -0.389820 -0.920503 -0.026728
vn 0.547624 -0.834588 -0.059755
vn 0.547624 -0.834588 -0.059755
vn 0.547624 -0.834588 -0.059755
vn 0.547624 -0.834588 -0.059755
vn -0.433039 -0.899071 -0.064410
vn -0.433039 -0.899071 -0.064410
vn -0.433039 -0.899071 -0.064410
vn -0.433039 -0.899071 -0.064410
s off
f 95/1/1 96/2/2 62/5/3 63/6/4
f 7/8/5 6/7/6 3/3/7 4/4/8
f 56/9/9 57/10/10 101/16/11 102/18/12
f 5/21/13 8/25/14 1/30/15 2/42/16
f 10/11/17 11/12/18 44/13/19 41/14/20
f 89/43/21 90/46/22 68/47/23 69/48/24
f 12/49/25 9/50/26 42/51/27 43/53/28
f 76/56/29 77/58/30 81/62/31 82/63/32
f 63/91/33 64/92/34 94/122/35 95/124/36
f 1/30/37 28/67/38 25/68/39 2/42/40
f 102/135/41 103/136/42 55/78/43 56/80/44
f 3/24/45 26/23/46 27/28/47 4/27/48
f 67/95/49 68/96/50 90/118/51 91/119/52
f 15/33/53 14/32/54 9/15/55 12/17/56
f 77/105/57 78/106/58 80/108/59 81/109/60
f 13/31/61 16/35/62 11/12/63 10/11/64
f 66/94/65 67/95/66 91/119/67 92/120/68
f 19/38/69 18/37/70 14/32/71 15/33/72
f 78/106/73 53/76/74 79/107/75 80/108/76
f 17/36/77 20/40/78 16/35/79 13/31/80
f 65/93/81 66/94/82 92/120/83 93/121/84
f 23/69/85 22/70/86 18/72/87 19/74/88
f 53/76/89 54/77/90 104/137/91 79/107/92
f 21/41/93 24/45/94 20/40/95 17/36/96
f 64/92/97 65/93/98 93/121/99 94/122/100
f 27/75/101 26/79/102 22/70/103 23/69/104
f 54/77/105 55/78/106 103/136/107 104/137/108
f 25/22/109 28/26/110 24/45/111 21/41/112
f 86/114/113 87/115/114 71/99/115 72/100/116
f 35/82/117 34/89/118 30/90/119 31/110/120
f 73/101/121 74/102/122 84/112/123 85/113/124
f 33/117/125 36/138/126 32/139/127 29/140/128
f 87/115/129 88/116/130 70/98/131 71/99/132
f 39/141/133 38/142/134 34/89/135 35/82/136
f 74/102/137 75/103/138 83/111/139 84/112/140
f 37/57/141 40/60/142 36/55/143 33/52/144
f 88/143/145 89/43/146 69/48/147 70/144/148
f 43/53/149 42/51/150 38/142/151 39/141/152
f 75/145/153 76/56/154 82/63/155 83/146/156
f 41/14/157 44/13/158 40/60/159 37/57/160
f 96/125/161 97/127/162 61/87/163 62/88/164
f 47/65/165 46/61/166 6/64/167 7/66/168
f 57/81/169 58/83/170 100/131/171 101/132/172
f 45/147/173 48/148/174 8/25/175 5/21/176
f 97/127/177 98/128/178 60/86/179 61/87/180
f 51/73/181 50/71/182 46/61/183 47/65/184
f 58/83/185 59/85/186 99/130/187 100/131/188
f 49/149/189 52/150/190 48/148/191 45/147/192
f 85/113/193 86/114/194 72/100/195 73/101/196
f 98/128/197 99/129/198 59/84/199 60/86/200
f 24/44/201 54/77/202 53/76/203 20/39/204
f 28/29/205 55/78/206 54/77/207 24/44/208
f 56/9/209 55/151/210 28/67/211 1/30/212
f 8/25/213 57/10/214 56/9/215 1/30/216
f 48/148/217 58/152/218 57/10/219 8/25/220
f 52/150/221 59/153/222 58/152/223 48/148/224
f 60/154/225 59/153/226 52/150/227 49/149/228
f 61/155/229 60/154/230 49/149/231 45/147/232
f 62/5/233 61/155/234 45/147/235 5/21/236
f 63/6/237 62/5/238 5/21/239 2/42/240
f 2/42/241 25/68/242 64/156/243 63/6/244
f 25/22/245 21/41/246 65/93/247 64/92/248
f 21/41/249 17/36/250 66/94/251 65/93/252
f 17/36/253 13/31/254 67/95/255 66/94/256
f 13/31/257 10/11/258 68/96/259 67/95/260
f 69/97/261 68/96/262 10/11/263 41/14/264
f 70/98/265 69/97/266 41/14/267 37/57/268
f 71/99/269 70/98/270 37/57/271 33/52/272
f 72/157/273 71/158/274 33/117/275 29/140/276
f 73/159/277 72/157/278 29/140/279 32/139/280
f 36/138/281 74/160/282 73/159/283 32/139/284
f 40/59/285 75/103/286 74/102/287 36/54/288
f 44/20/289 76/104/290 75/103/291 40/59/292
f 11/19/293 77/105/294 76/104/295 44/20/296
f 16/34/297 78/106/298 77/105/299 11/19/300
f 20/39/301 53/76/302 78/106/303 16/34/304
f 80/108/305 79/107/306 19/38/307 15/33/308
f 81/109/309 80/108/310 15/33/311 12/17/312
f 82/63/313 81/62/314 12/49/315 43/53/316
f 83/146/317 82/63/318 43/53/319 39/141/320
f 84/161/321 83/146/322 39/141/323 35/82/324
f 85/162/325 84/161/326 35/82/327 31/110/328
f 30/90/329 86/163/330 85/162/331 31/110/332
f 34/89/333 87/164/334 86/163/335 30/90/336
f 38/142/337 88/143/338 87/164/339 34/89/340
f 42/51/341 89/43/342 88/143/343 38/142/344
f 9/50/345 90/46/346 89/43/347 42/51/348
f 91/119/349 90/118/350 9/15/351 14/32/352
f 92/120/353 91/119/354 14/32/355 18/37/356
f 93/165/357 92/166/358 18/72/359 22/70/360
f 94/167/361 93/165/362 22/70/363 26/79/364
f 95/124/365 94/122/366 26/23/367 3/24/368
f 6/7/369 96/126/370 95/123/371 3/3/372
f 46/61/373 97/127/374 96/125/375 6/64/376
f 50/71/377 98/128/378 97/127/379 46/61/380
f 50/71/381 51/73/382 99/129/383 98/128/384
f 100/131/385 99/130/386 51/73/387 47/65/388
f 101/132/389 100/131/390 47/65/391 7/66/392
f 102/134/393 101/133/394 7/8/395 4/4/396
f 4/27/397 27/28/398 103/136/399 102/135/400
f 104/168/401 103/169/402 27/75/403 23/69/404
f 79/170/405 104/168/406 23/69/407 19/74/408
