# This file uses meters as units for non-parametric coordinates.

v -6.834467 7.120148 -8.222321
v -8.935747 5.112790 -8.222321
v -7.857420 4.912773 9.122681
v -6.197714 6.462681 9.122681
v -8.935747 1.810923 -9.122589
v -7.923941 1.992655 9.122681
v -6.834467 0.000000 -9.122589
v -6.834467 0.000000 9.122681
v 6.834473 0.000000 -9.122589
v 8.912668 1.810923 -9.122589
v 8.912668 1.810923 9.122681
v 6.834473 0.000000 9.122681
v 7.959154 4.940737 -8.934784
v 8.912668 5.112790 8.473602
v 6.256088 6.504945 -8.934784
v 6.834473 7.120148 7.447754
v 7.151396 2.205012 9.122681
v 7.151396 4.718701 8.774323
v 5.693136 6.097347 8.774323
v -5.693136 6.097347 9.122681
v -7.151390 4.718701 9.122681
v -7.151390 2.205012 9.122681
v -5.693136 0.826369 9.122681
v 5.693136 0.826369 9.122681
v 5.693136 0.826369 -9.122589
v 7.151396 2.205012 -9.122589
v -5.693136 0.826369 -9.122589
v -7.151390 2.205012 -9.122589
v -7.151390 4.718701 -8.908386
v -5.693136 6.097347 -8.908386
v 5.693136 6.097347 -9.122589
v 7.151396 4.718701 -9.122589
v 6.329576 2.486816 9.793640
v 6.329576 4.436898 9.445282
v 5.038898 5.506430 9.445282
v -5.038895 5.506430 9.793640
v -6.329571 4.436898 9.793640
v -6.329571 2.486816 9.793640
v -5.038895 1.417285 9.793640
v 5.038898 1.417285 9.793640
v 5.038898 1.417285 -9.911224
v 6.329576 2.486816 -9.793549
v -5.038898 1.417285 -9.911224
v -6.329571 2.486816 -9.793549
v -6.329571 4.436898 -9.793549
v -5.038898 5.506430 -9.793549
v 5.038898 5.506430 -9.990204
v 6.329576 4.436898 -9.990204
v 5.320934 2.870945 9.793640
v 4.991491 3.973847 9.445282
v 4.130817 4.542687 9.445282
v -4.127932 4.542687 9.793640
v -4.988613 3.973847 9.793640
v -5.260090 3.051868 9.793640
v -4.399414 2.483028 9.793640
v 4.460262 2.302105 9.793640
v 4.433462 2.533907 -9.911224
v 5.294134 3.102747 -9.793549
v -4.127937 2.367836 -9.911224
v -4.988613 2.936677 -9.793549
v -5.160458 3.929322 -9.793549
v -4.299786 4.498163 -9.793549
v 4.130814 4.542687 -9.990204
v 4.991488 3.973847 -9.990204
v 4.248003 3.133041 9.522034
v 3.959200 3.711752 9.522034
v 3.277189 4.006781 9.522034
v -3.267151 4.006781 9.522034
v -3.949171 3.711752 9.522034
v -4.187159 3.245295 9.522034
v -3.505146 2.950267 9.522034
v 3.565992 2.838012 9.522034
v 3.445219 2.994900 -9.473999
v 4.107286 3.289550 -9.473999
v -3.165300 2.891994 -9.473999
v -3.827366 3.186643 -9.473999
v -3.973608 3.696290 -9.473999
v -3.311543 3.990940 -9.473999
v 3.187666 4.018530 -9.473999
v 3.849731 3.723880 -9.473999
v 7.709776 0.905462 9.122681
v 7.709776 0.905462 -9.122589
v 11.387783 0.787217 -9.122589
v 11.421051 1.768431 -9.122589
v 11.421051 1.768431 9.122681
v 11.387783 0.787217 9.122681
v 14.252838 0.000000 -8.902985
v 14.286051 0.981214 -8.901031
v 13.211990 0.981214 9.312622
v 13.178780 0.000000 9.310638
v 17.505428 0.000000 -7.719025
v 17.237160 0.981214 -7.734924
v 16.203167 0.981214 9.056854
v 16.471436 0.000000 9.072571
v -0.505363 7.120148 8.002625
v -6.834467 7.120148 6.002533
v -8.935747 5.112790 5.412903
v -8.935747 1.810923 6.585175
v -3.075439 7.120148 -8.469879
v 6.834473 7.120148 -7.035614
v 8.912668 5.112790 -7.632843
vt 0.037248 0.379680
vt 0.037248 0.379680
vt 0.037248 0.379680
vt 0.037248 0.379680
vt 0.037248 0.379680
vt 0.037248 0.379680
vt 0.037248 0.379680
vt 0.037248 0.379680
vt 0.037248 0.379680
vt 0.037248 0.379680
vt 0.037248 0.379680
vt 0.037248 0.379680
vt 0.037248 0.379680
vt 0.037248 0.379680
vt 0.037248 0.379680
vt 0.037248 0.379680
vt 0.037248 0.379680
vt 0.037248 0.379680
vt 0.037248 0.379680
vt 0.037248 0.379680
vt 0.037248 0.379680
vt 0.037248 0.379680
vt 0.037248 0.379680
vt 0.037248 0.379680
vt 0.037248 0.379680
vt 0.037248 0.379680
vt 0.037248 0.379680
vt 0.037248 0.379680
vt 0.037248 0.379680
vt 0.037248 0.379680
vt 0.037248 0.379680
vt 0.037248 0.379680
vt 0.037248 0.379680
vt 0.037248 0.379680
vt 0.037248 0.379680
vt 0.037248 0.379680
vt 0.037248 0.379680
vt 0.037248 0.379680
vt 0.037248 0.379680
vt 0.037248 0.379680
vt 0.037248 0.379680
vt 0.037248 0.379680
vt 0.037248 0.379680
vt 0.037248 0.379680
vt 0.037248 0.379680
vt 0.037248 0.379680
vt 0.037248 0.379680
vt 0.037248 0.379680
vt 0.037248 0.379680
vt 0.037248 0.379680
vt 0.037248 0.379680
vt 0.037248 0.379680
vt 0.037248 0.379680
vt 0.037248 0.379680
vt 0.037248 0.379680
vt 0.037248 0.379680
vt 0.037248 0.379680
vt 0.037248 0.379680
vt 0.037248 0.379680
vt 0.037248 0.379680
vt 0.037248 0.379680
vt 0.037248 0.379680
vt 0.037248 0.379680
vt 0.037248 0.379680
vt 0.037248 0.379680
vt 0.037248 0.379680
vt 0.037248 0.379680
vt 0.037248 0.379680
vt 0.037248 0.379680
vt 0.037248 0.379680
vt 0.037248 0.379680
vt 0.037248 0.379680
vt 0.037248 0.379680
vt 0.037248 0.379680
vt 0.037248 0.379680
vt 0.037248 0.379680
vt 0.037248 0.379680
vt 0.037248 0.379680
vt 0.037248 0.379680
vt 0.037248 0.379680
vt 0.037248 0.379680
vt 0.037248 0.379680
vt 0.037248 0.379680
vt 0.037248 0.379680
vt 0.037248 0.379680
vt 0.037248 0.379680
vt 0.037248 0.379680
vt 0.037248 0.379680
vt 0.037248 0.379680
vt 0.037248 0.379680
vt 0.037248 0.379680
vt 0.037248 0.379680
vt 0.037248 0.379680
vt 0.037248 0.379680
vt 0.037248 0.379680
vt 0.037248 0.379680
vt 0.037248 0.379680
vt 0.037248 0.379680
vt 0.037248 0.379680
vt 0.037248 0.379680
vt 0.037248 0.379680
vn -0.684979 0.681514 0.257570
vn -0.684979 0.681514 0.257570
vn -0.684979 0.681514 0.257570
vn -0.684979 0.681514 0.257570
vn -0.945959 0.069780 0.316691
vn -0.945959 0.069780 0.316691
vn -0.945959 0.069780 0.316691
vn -0.945959 0.069780 0.316691
vn -0.819044 -0.447808 0.358657
vn -0.819044 -0.447808 0.358657
vn -0.819044 -0.447808 0.358657
vn 0.601399 -0.798949 0.000000
vn 0.601399 -0.798949 0.000000
vn 0.601399 -0.798949 0.000000
vn 0.601399 -0.798949 0.000000
vn 0.760280 0.267154 -0.592118
vn 0.760280 0.267154 -0.592118
vn 0.760280 0.267154 -0.592118
vn 0.576949 0.685169 -0.444605
vn 0.576949 0.685169 -0.444605
vn 0.576949 0.685169 -0.444605
vn 0.576949 0.685169 -0.444605
vn -0.000000 0.000000 1.000000
vn -0.000000 0.000000 1.000000
vn -0.000000 0.000000 1.000000
vn -0.000000 0.000000 1.000000
vn 0.000000 -1.000000 0.000000
vn 0.000000 -1.000000 0.000000
vn 0.000000 -1.000000 0.000000
vn 0.000000 -1.000000 0.000000
vn 0.000000 0.000000 -1.000000
vn 0.000000 0.000000 -1.000000
vn 0.000000 0.000000 -1.000000
vn 0.000000 0.000000 -1.000000
vn -0.069274 0.973215 0.219210
vn -0.069274 0.973216 0.219210
vn -0.069274 0.973215 0.219210
vn 0.083845 0.168448 0.982138
vn 0.083845 0.168448 0.982138
vn 0.083845 0.168448 0.982138
vn 0.083845 0.168448 0.982138
vn 0.229320 0.493661 0.838875
vn 0.229320 0.493661 0.838875
vn 0.229320 0.493661 0.838875
vn 0.229320 0.493661 0.838875
vn 0.000000 0.000000 1.000000
vn 0.000000 0.000000 1.000000
vn 0.000000 0.000000 1.000000
vn 0.000000 0.000000 1.000000
vn 0.000000 0.000000 1.000000
vn 0.000000 0.000000 1.000000
vn 0.000000 0.000000 1.000000
vn 0.000000 0.000000 1.000000
vn 0.000000 0.000000 -1.000000
vn 0.000000 0.000000 -1.000000
vn 0.000000 0.000000 -1.000000
vn 0.000000 0.000000 -1.000000
vn 0.000000 0.000000 -1.000000
vn 0.000000 0.000000 -1.000000
vn 0.000000 0.000000 -1.000000
vn 0.000000 0.000000 -1.000000
vn -0.000000 0.000000 -1.000000
vn -0.000000 0.000000 -1.000000
vn -0.000000 0.000000 -1.000000
vn -0.000000 0.000000 -1.000000
vn -0.185531 0.184944 -0.965077
vn -0.185531 0.184944 -0.965077
vn -0.185531 0.184944 -0.965077
vn -0.185531 0.184944 -0.965077
vn -0.283306 0.297826 -0.911613
vn -0.283306 0.297826 -0.911613
vn -0.283306 0.297826 -0.911613
vn -0.283306 0.297826 -0.911613
vn 0.627853 0.120031 0.769021
vn 0.627854 0.120031 0.769021
vn 0.627853 0.120031 0.769021
vn 0.627853 0.120031 0.769021
vn 0.422183 0.474049 0.772683
vn 0.422183 0.474049 0.772683
vn 0.422183 0.474049 0.772683
vn 0.422183 0.474049 0.772683
vn 0.021448 0.750279 0.660773
vn 0.021448 0.750279 0.660773
vn 0.021448 0.750279 0.660773
vn 0.021448 0.750279 0.660773
vn -0.422184 0.474047 0.772684
vn -0.422184 0.474047 0.772684
vn -0.422184 0.474047 0.772684
vn -0.422184 0.474047 0.772684
vn -0.632426 0.000000 0.774621
vn -0.632426 0.000000 0.774621
vn -0.632426 0.000000 0.774621
vn -0.632426 0.000000 0.774621
vn -0.422183 -0.474048 0.772684
vn -0.422183 -0.474048 0.772684
vn -0.422183 -0.474048 0.772684
vn -0.422183 -0.474048 0.772684
vn 0.000000 -0.750452 0.660925
vn 0.000000 -0.750452 0.660925
vn 0.000000 -0.750452 0.660925
vn 0.000000 -0.750452 0.660925
vn 0.422183 -0.474049 0.772683
vn 0.422183 -0.474049 0.772683
vn 0.422183 -0.474049 0.772683
vn 0.422183 -0.474049 0.772683
vn 0.458072 -0.478334 -0.749244
vn 0.458072 -0.478334 -0.749244
vn 0.458072 -0.478334 -0.749244
vn 0.458072 -0.478334 -0.749244
vn 0.000000 -0.800273 -0.599636
vn 0.000000 -0.800273 -0.599636
vn 0.000000 -0.800273 -0.599636
vn 0.000000 -0.800273 -0.599636
vn -0.458073 -0.478333 -0.749244
vn -0.458073 -0.478333 -0.749244
vn -0.458073 -0.478333 -0.749244
vn -0.458073 -0.478333 -0.749244
vn -0.687093 0.034826 -0.725735
vn -0.687093 0.034826 -0.725735
vn -0.687093 0.034826 -0.725735
vn -0.687093 0.034826 -0.725735
vn -0.488800 0.548847 -0.678116
vn -0.488800 0.548847 -0.678116
vn -0.488800 0.548847 -0.678116
vn -0.488800 0.548847 -0.678116
vn -0.010701 0.829084 -0.559021
vn -0.010701 0.829084 -0.559021
vn -0.010701 0.829084 -0.559021
vn -0.010701 0.829084 -0.559021
vn 0.484271 0.543764 -0.685422
vn 0.484271 0.543764 -0.685422
vn 0.484271 0.543764 -0.685422
vn 0.484271 0.543764 -0.685422
vn 0.683035 -0.032146 -0.729678
vn 0.683035 -0.032146 -0.729678
vn 0.683035 -0.032146 -0.729678
vn 0.683035 -0.032146 -0.729678
vn -0.007457 0.221717 0.975083
vn -0.007457 0.221717 0.975083
vn -0.007457 0.221717 0.975082
vn -0.007457 0.221717 0.975082
vn 0.000000 0.000000 1.000000
vn 0.000000 0.000000 1.000000
vn 0.000000 0.000000 1.000000
vn 0.000000 0.000000 1.000000
vn 0.037969 0.000057 0.999279
vn 0.037969 0.000057 0.999279
vn 0.037969 0.000057 0.999279
vn 0.037969 0.000057 0.999279
vn 0.000000 0.000000 1.000000
vn 0.000000 0.000000 1.000000
vn 0.000000 0.000000 1.000000
vn 0.000000 0.000000 1.000000
vn -0.000001 0.000000 1.000000
vn -0.000001 0.000000 1.000000
vn -0.000001 0.000000 1.000000
vn -0.000001 0.000000 1.000000
vn 0.000000 0.000000 1.000000
vn 0.000000 0.000000 1.000000
vn 0.000000 0.000000 1.000000
vn 0.000000 0.000000 1.000000
vn 0.000000 0.000000 1.000000
vn 0.000000 0.000000 1.000000
vn 0.000000 0.000000 1.000000
vn 0.000000 0.000000 1.000000
vn 0.000000 0.000000 1.000000
vn 0.000000 0.000000 1.000000
vn 0.000000 0.000000 1.000000
vn 0.000000 0.000000 1.000000
vn 0.063314 0.059964 -0.996191
vn 0.063314 0.059964 -0.996191
vn 0.063314 0.059964 -0.996191
vn 0.063314 0.059964 -0.996191
vn 0.000000 0.000000 -1.000000
vn 0.000000 0.000000 -1.000000
vn 0.000000 0.000000 -1.000000
vn 0.000000 0.000000 -1.000000
vn -0.048964 0.078736 -0.995692
vn -0.048964 0.078736 -0.995692
vn -0.048964 0.078736 -0.995692
vn -0.048964 0.078736 -0.995692
vn 0.000000 0.000000 -1.000000
vn 0.000000 0.000000 -1.000000
vn 0.000000 0.000000 -1.000000
vn 0.000000 0.000000 -1.000000
vn 0.000000 0.000000 -1.000000
vn 0.000000 0.000000 -1.000000
vn 0.000000 0.000000 -1.000000
vn 0.000000 0.000000 -1.000000
vn -0.021250 0.001821 -0.999773
vn -0.021250 0.001821 -0.999773
vn -0.021250 0.001821 -0.999773
vn -0.021250 0.001821 -0.999773
vn 0.000000 0.000000 -1.000000
vn 0.000000 0.000000 -1.000000
vn 0.000000 0.000000 -1.000000
vn 0.000000 0.000000 -1.000000
vn -0.008954 -0.139015 -0.990250
vn -0.008954 -0.139015 -0.990250
vn -0.008954 -0.139015 -0.990250
vn -0.008954 -0.139015 -0.990250
vn -0.090824 0.169885 0.981270
vn -0.090824 0.169885 0.981270
vn -0.090824 0.169885 0.981270
vn -0.090824 0.169885 0.981270
vn 0.046154 0.082422 0.995528
vn 0.046154 0.082422 0.995528
vn 0.046154 0.082422 0.995528
vn 0.046154 0.082422 0.995528
vn 0.023148 -0.178670 0.983637
vn 0.023148 -0.178670 0.983637
vn 0.023148 -0.178670 0.983637
vn 0.023148 -0.178670 0.983637
vn 0.154927 -0.276670 0.948394
vn 0.154927 -0.276670 0.948394
vn 0.154927 -0.276670 0.948394
vn 0.154927 -0.276670 0.948394
vn 0.245298 -0.090008 0.965260
vn 0.245298 -0.090008 0.965260
vn 0.245298 -0.090008 0.965260
vn 0.245298 -0.090008 0.965260
vn 0.162754 0.290644 0.942888
vn 0.162754 0.290644 0.942888
vn 0.162754 0.290644 0.942888
vn 0.162754 0.290644 0.942888
vn 0.008763 0.476158 0.879316
vn 0.008763 0.476158 0.879316
vn 0.008763 0.476158 0.879316
vn 0.008763 0.476158 0.879316
vn -0.152168 0.271740 0.950264
vn -0.152168 0.271740 0.950264
vn -0.152168 0.271740 0.950264
vn -0.152168 0.271740 0.950264
vn -0.177949 0.434154 -0.883088
vn -0.177949 0.434154 -0.883088
vn -0.177949 0.434154 -0.883088
vn -0.177949 0.434154 -0.883088
vn -0.011765 0.663621 -0.747976
vn -0.011765 0.663621 -0.747976
vn -0.011765 0.663621 -0.747976
vn -0.011765 0.663621 -0.747976
vn 0.166858 0.416069 -0.893893
vn 0.166858 0.416069 -0.893893
vn 0.166858 0.416069 -0.893893
vn 0.166858 0.416069 -0.893893
vn 0.261847 0.055442 -0.963516
vn 0.261847 0.055442 -0.963516
vn 0.261847 0.055442 -0.963516
vn 0.261847 0.055442 -0.963516
vn 0.172086 -0.303468 -0.937173
vn 0.172086 -0.303468 -0.937173
vn 0.172086 -0.303468 -0.937173
vn 0.172086 -0.303468 -0.937173
vn -0.007190 -0.629749 -0.776766
vn -0.007190 -0.629749 -0.776766
vn -0.007190 -0.629748 -0.776766
vn -0.007190 -0.629749 -0.776766
vn -0.255848 -0.451178 -0.854974
vn -0.255848 -0.451178 -0.854974
vn -0.255848 -0.451178 -0.854974
vn -0.255848 -0.451178 -0.854974
vn -0.318365 -0.273360 -0.907699
vn -0.318365 -0.273360 -0.907699
vn -0.318365 -0.273360 -0.907699
vn -0.318365 -0.273360 -0.907699
vn 0.000000 0.000000 1.000000
vn 0.000000 0.000000 1.000000
vn 0.000000 0.000000 1.000000
vn 0.962659 0.264149 0.059278
vn 0.962659 0.264149 0.059278
vn 0.962659 0.264149 0.059278
vn 0.962659 0.264149 0.059278
vn 0.000001 0.000000 -1.000000
vn 0.000001 0.000000 -1.000000
vn 0.000001 0.000000 -1.000000
vn 0.000000 0.000000 -1.000000
vn 0.000000 0.000000 -1.000000
vn 0.000000 0.000000 -1.000000
vn 0.000000 0.000000 -1.000000
vn -0.226484 0.974015 0.000000
vn -0.226484 0.974015 0.000000
vn -0.226484 0.974015 0.000000
vn -0.226484 0.974015 0.000000
vn 0.000000 0.000000 1.000000
vn 0.000000 0.000000 1.000000
vn 0.000000 0.000000 1.000000
vn 0.000000 0.000000 1.000000
vn 0.170362 -0.985382 0.000000
vn 0.170362 -0.985382 0.000000
vn 0.170362 -0.985382 0.000000
vn 0.170362 -0.985382 0.000000
vn 0.076329 -0.001593 -0.997082
vn 0.076329 -0.001593 -0.997082
vn 0.076329 -0.001593 -0.997082
vn 0.076329 -0.001593 -0.997081
vn 0.319576 0.947514 0.009415
vn 0.319576 0.947514 0.009415
vn 0.319576 0.947514 0.009415
vn 0.319576 0.947514 0.009415
vn -0.103826 0.002512 0.994592
vn -0.103826 0.002512 0.994592
vn -0.103826 0.002512 0.994592
vn -0.103826 0.002512 0.994592
vn -0.319576 -0.947514 -0.009415
vn -0.319576 -0.947514 -0.009415
vn -0.319576 -0.947514 -0.009415
vn -0.319576 -0.947514 -0.009415
vn 0.354024 0.035763 -0.934552
vn 0.354024 0.035763 -0.934552
vn 0.354024 0.035763 -0.934552
vn 0.354024 0.035763 -0.934552
vn 0.000000 1.000000 0.000000
vn 0.000000 1.000000 0.000000
vn 0.000000 1.000000 0.000000
vn 0.000000 1.000000 0.000000
vn 0.078336 0.016359 0.996793
vn 0.078336 0.016359 0.996793
vn 0.078336 0.016359 0.996793
vn 0.078336 0.016359 0.996793
vn 0.000000 -1.000000 0.000000
vn 0.000000 -1.000000 0.000000
vn 0.000000 -1.000000 0.000000
vn 0.000000 -1.000000 0.000000
vn -0.000000 0.000000 -1.000000
vn -0.000000 0.000000 -1.000000
vn -0.000000 0.000000 -1.000000
vn -0.000000 0.000000 -1.000000
vn -0.000000 0.000000 -1.000000
vn -0.000000 0.000000 -1.000000
vn -0.000000 0.000000 -1.000000
vn -0.000000 0.000000 -1.000000
vn 0.000001 0.000000 1.000000
vn 0.000001 0.000000 1.000000
vn 0.000001 0.000000 1.000000
vn 0.000001 0.000000 1.000000
vn 0.000000 0.000000 1.000000
vn 0.000000 0.000000 1.000000
vn 0.000000 0.000000 1.000000
vn 0.000000 0.000000 1.000000
vn 0.048041 0.770616 0.635487
vn 0.048041 0.770616 0.635487
vn 0.048041 0.770616 0.635487
vn 0.046400 0.946079 -0.320596
vn 0.046400 0.946079 -0.320596
vn 0.046400 0.946079 -0.320596
vn -0.690762 0.723082 0.000000
vn -0.690762 0.723082 0.000000
vn -0.690762 0.723082 0.000000
vn -0.690762 0.723082 0.000000
vn -1.000000 0.000000 0.000000
vn -1.000000 0.000000 0.000000
vn -1.000000 0.000000 0.000000
vn -1.000000 0.000000 0.000000
vn -0.652831 -0.757504 0.000000
vn -0.652831 -0.757504 0.000000
vn -0.652831 -0.757504 0.000000
vn -0.652831 -0.757504 0.000000
vn 0.000000 0.000000 1.000000
vn 0.000000 0.000000 1.000000
vn 0.000000 0.000000 1.000000
vn 0.000000 0.000000 1.000000
vn 0.000001 0.000000 1.000000
vn 0.000001 0.000000 1.000000
vn 0.000001 0.000000 1.000000
vn 0.000001 0.000000 1.000000
vn 0.000000 0.000000 1.000000
vn 0.000000 0.000000 1.000000
vn 0.000000 0.000000 1.000000
vn 0.000000 0.000000 1.000000
vn 0.042095 0.633000 0.773006
vn 0.042095 0.633000 0.773006
vn 0.042095 0.633000 0.773006
vn 0.042095 0.633000 0.773006
vn 0.000000 1.000000 0.000000
vn 0.000000 1.000000 0.000000
vn 0.000000 1.000000 0.000000
vn 0.000000 1.000000 0.000000
vn 0.694742 0.719259 0.000000
vn 0.694742 0.719259 0.000000
vn 0.694742 0.719259 0.000000
vn 0.694742 0.719259 0.000000
vn 1.000000 -0.000000 0.000000
vn 1.000000 -0.000000 0.000000
vn 1.000000 -0.000000 0.000000
vn 1.000000 -0.000000 0.000000
vn 0.075894 0.045970 -0.996056
vn 0.075894 0.045970 -0.996056
vn 0.075894 0.045970 -0.996056
vn 0.075894 0.045970 -0.996056
vn 0.177174 0.190327 -0.965601
vn 0.177174 0.190327 -0.965601
vn 0.177174 0.190327 -0.965601
vn 0.177174 0.190327 -0.965601
vn -0.016729 0.432019 -0.901710
vn -0.016729 0.432019 -0.901710
vn -0.016729 0.432019 -0.901710
vn -0.016729 0.432019 -0.901710
vn -0.056449 0.511961 -0.857152
vn -0.056449 0.511961 -0.857152
vn -0.056449 0.511961 -0.857152
vn 0.000000 1.000000 0.000000
vn 0.000000 1.000000 0.000000
vn 0.000000 1.000000 0.000000
vn 0.000000 1.000000 0.000000
s off
f 96/96/1 97/97/2 3/3/3 4/4/4
f 97/97/5 98/98/6 6/6/7 3/3/8
f 98/98/9 8/8/10 6/6/11
f 81/81/12 82/82/13 10/10/14 11/11/15
f 10/10/16 13/13/17 101/101/18
f 13/13/19 15/15/20 100/100/21 101/101/22
f 71/71/23 68/68/24 69/69/25 70/70/26
f 8/8/27 7/7/28 9/9/29 12/12/30
f 74/73/31 73/74/32 79/79/33 80/80/34
f 95/95/35 96/96/36 4/4/37
f 11/11/38 14/14/39 18/18/40 17/17/41
f 14/14/42 16/16/43 19/19/44 18/18/45
f 8/8/46 12/12/47 24/24/48 23/23/49
f 24/24/50 81/81/51 11/11/52 17/17/53
f 10/10/54 82/82/55 25/26/56 26/25/57
f 9/9/58 7/7/59 27/27/60 25/26/61
f 7/7/62 5/5/63 28/28/64 27/27/65
f 5/5/66 2/2/67 29/29/68 28/28/69
f 2/2/70 1/1/71 30/30/72 29/29/73
f 17/17/74 18/18/75 34/34/76 33/33/77
f 18/18/78 19/19/79 35/35/80 34/34/81
f 19/19/82 20/20/83 36/36/84 35/35/85
f 20/20/86 21/21/87 37/37/88 36/36/89
f 21/21/90 22/22/91 38/38/92 37/37/93
f 22/22/94 23/23/95 39/39/96 38/38/97
f 23/23/98 24/24/99 40/40/100 39/39/101
f 24/24/102 17/17/103 33/33/104 40/40/105
f 26/25/106 25/26/107 41/42/108 42/41/109
f 25/26/110 27/27/111 43/43/112 41/42/113
f 27/27/114 28/28/115 44/44/116 43/43/117
f 28/28/118 29/29/119 45/45/120 44/44/121
f 29/29/122 30/30/123 46/46/124 45/45/125
f 30/30/126 31/31/127 47/47/128 46/46/129
f 31/31/130 32/32/131 48/48/132 47/47/133
f 32/32/134 26/25/135 42/41/136 48/48/137
f 33/33/138 34/34/139 50/50/140 49/49/141
f 34/34/142 35/35/143 51/51/144 50/50/145
f 35/35/146 36/36/147 52/52/148 51/51/149
f 36/36/150 37/37/151 53/53/152 52/52/153
f 37/37/154 38/38/155 54/54/156 53/53/157
f 38/38/158 39/39/159 55/55/160 54/54/161
f 39/39/162 40/40/163 56/56/164 55/55/165
f 40/40/166 33/33/167 49/49/168 56/56/169
f 42/41/170 41/42/171 57/58/172 58/57/173
f 41/42/174 43/43/175 59/59/176 57/58/177
f 43/43/178 44/44/179 60/60/180 59/59/181
f 44/44/182 45/45/183 61/61/184 60/60/185
f 45/45/186 46/46/187 62/62/188 61/61/189
f 46/46/190 47/47/191 63/63/192 62/62/193
f 47/47/194 48/48/195 64/64/196 63/63/197
f 48/48/198 42/41/199 58/57/200 64/64/201
f 49/49/202 50/50/203 66/66/204 65/65/205
f 50/50/206 51/51/207 67/67/208 66/66/209
f 51/51/210 52/52/211 68/68/212 67/67/213
f 52/52/214 53/53/215 69/69/216 68/68/217
f 53/53/218 54/54/219 70/70/220 69/69/221
f 54/54/222 55/55/223 71/71/224 70/70/225
f 55/55/226 56/56/227 72/72/228 71/71/229
f 56/56/230 49/49/231 65/65/232 72/72/233
f 58/57/234 57/58/235 73/74/236 74/73/237
f 57/58/238 59/59/239 75/75/240 73/74/241
f 59/59/242 60/60/243 76/76/244 75/75/245
f 60/60/246 61/61/247 77/77/248 76/76/249
f 61/61/250 62/62/251 78/78/252 77/77/253
f 62/62/254 63/63/255 79/79/256 78/78/257
f 63/63/258 64/64/259 80/80/260 79/79/261
f 64/64/262 58/57/263 74/73/264 80/80/265
f 12/12/266 81/81/267 24/24/268
f 91/91/269 92/92/270 93/93/271 94/94/272
f 25/26/273 82/82/274 9/9/275
f 9/9/276 82/82/277 84/84/278 83/83/279
f 82/82/280 81/81/281 85/85/282 84/84/283
f 81/81/284 12/12/285 86/86/286 85/85/287
f 12/12/288 9/9/289 83/83/290 86/86/291
f 83/83/292 84/84/293 88/88/294 87/87/295
f 84/84/296 85/85/297 89/89/298 88/88/299
f 85/85/300 86/86/301 90/90/302 89/89/303
f 86/86/304 83/83/305 87/87/306 90/90/307
f 87/87/308 88/88/309 92/92/310 91/91/311
f 88/88/312 89/89/313 93/93/314 92/92/315
f 89/89/316 90/90/317 94/94/318 93/93/319
f 90/90/320 87/87/321 91/91/322 94/94/323
f 79/79/324 73/74/325 75/75/326 78/78/327
f 78/78/328 75/75/329 76/76/330 77/77/331
f 65/65/332 66/66/333 67/67/334 72/72/335
f 72/72/336 67/67/337 68/68/338 71/71/339
f 16/16/340 95/95/341 19/19/342
f 99/99/343 100/100/344 15/15/345
f 1/1/346 2/2/347 97/97/348 96/96/349
f 2/2/350 5/5/351 98/98/352 97/97/353
f 5/5/354 7/7/355 8/8/356 98/98/357
f 6/6/358 8/8/359 23/23/360 22/22/361
f 3/3/362 6/6/363 22/22/364 21/21/365
f 4/4/366 3/3/367 21/21/368 20/20/369
f 19/19/370 95/95/371 4/4/372 20/20/373
f 16/16/374 100/100/375 99/99/376 95/95/377
f 101/101/378 100/100/379 16/16/380 14/14/381
f 10/10/382 101/101/383 14/14/384 11/11/385
f 13/13/386 10/10/387 26/25/388 32/32/389
f 15/15/390 13/13/391 32/32/392 31/31/393
f 30/30/394 99/99/395 15/15/396 31/31/397
f 1/1/398 99/99/399 30/30/400
f 95/95/401 99/99/402 1/1/403 96/96/404
