# This file uses meters as units for non-parametric coordinates.

v -7.861839 0.000000 5.015472
v 7.861839 0.000000 5.015472
v -7.861839 0.585439 5.015472
v 7.861839 0.585439 5.015472
v -7.861839 0.585439 -5.015472
v 7.861839 0.585439 -5.015472
v -7.861839 0.000000 -5.015472
v 7.861839 0.000000 -5.015472
v -0.000004 0.585439 -5.015472
v -0.000004 0.585439 5.015472
v -0.000004 0.000000 5.015472
v -0.000004 0.000000 -5.015472
v -0.000004 0.000000 -0.000061
v 8.686214 0.000000 -0.000061
v 8.686214 0.585439 -0.000061
v -0.000004 0.585439 -0.000061
v -8.686218 0.585439 -0.000061
v -8.686218 0.000000 -0.000061
v -3.930912 0.585439 -5.015472
v -3.533661 0.585439 -0.000061
v -3.930912 0.585439 5.015472
v 3.930920 0.585439 5.015472
v 3.533661 0.585439 -0.000061
v 3.930920 0.585439 -5.015472
v 2.937946 0.585439 3.968109
v 2.937946 0.585439 0.496185
v 0.595718 0.585439 0.496185
v 0.595718 0.585439 3.968109
v -6.471600 0.585439 3.968109
v -4.129379 0.585439 3.968109
v -4.129379 0.585439 0.496185
v -6.471600 0.585439 0.496185
v -2.937943 0.585439 0.496185
v -2.937943 0.585439 3.968109
v -0.595718 0.585439 3.968109
v -0.595718 0.585439 0.496185
v 6.471603 0.585439 0.496185
v 4.129383 0.585439 0.496185
v 4.129383 0.585439 3.968109
v 6.471603 0.585439 3.968109
v 0.595718 0.585439 -3.968201
v 0.595718 0.585439 -0.496399
v 2.937946 0.585439 -0.496399
v 2.937946 0.585439 -3.968201
v -4.129379 0.585439 -0.496399
v -6.471600 0.585439 -0.496399
v -4.129379 0.585439 -3.968201
v -6.471600 0.585439 -3.968201
v -2.937943 0.585439 -3.968201
v -2.937943 0.585439 -0.496399
v -0.595718 0.585439 -0.496399
v -0.595718 0.585439 -3.968201
v 4.129379 0.585439 -0.496399
v 4.129379 0.585439 -3.968201
v 6.471603 0.585439 -0.496399
v 6.471603 0.585439 -3.968201
v 2.741798 1.351166 3.615845
v 2.741798 1.351166 0.951630
v 0.791866 1.351166 0.951630
v 0.791866 1.351166 3.615845
v -2.741795 1.351166 0.951630
v -2.741795 1.351166 3.615845
v -0.791874 1.351166 3.615845
v -0.791874 1.351166 0.951630
v 0.791866 1.351166 -3.615936
v 0.791866 1.351166 -0.951752
v 2.741798 1.351166 -0.951752
v 2.741798 1.351166 -3.615936
v -2.741795 1.351166 -3.615906
v -2.741795 1.351166 -0.951752
v -0.791874 1.351166 -0.951752
v -0.791874 1.351166 -3.615906
v -4.325531 1.351166 -0.951752
v -6.275448 1.351166 -0.951752
v -4.325531 1.351166 -3.615936
v -6.275448 1.351166 -3.615936
v -6.275448 1.351166 3.615845
v -4.325531 1.351166 3.615845
v -4.325531 1.351166 0.951630
v -6.275448 1.351166 0.951630
v 6.275455 1.351166 0.951630
v 4.325527 1.351166 0.951630
v 4.325527 1.351166 3.615845
v 6.275455 1.351166 3.615845
v 4.325523 1.351166 -0.951752
v 4.325523 1.351166 -3.615936
v 6.275455 1.351166 -0.951752
v 6.275455 1.351166 -3.615936
v -8.686218 0.585439 -4.106018
v -8.686218 0.000000 -4.106018
v -8.686218 0.000000 4.106049
v -8.686218 0.585439 4.106049
v 8.686214 0.585439 4.106049
v 8.686214 0.000000 4.106049
v 8.686214 0.000000 -4.106018
v 8.686214 0.585439 -4.106018
vt 0.134777 0.277423
vt 0.134777 0.277423
vt 0.134777 0.277423
vt 0.134777 0.277423
vt 0.134777 0.277423
vt 0.134777 0.277423
vt 0.134777 0.277423
vt 0.134777 0.277423
vt 0.134777 0.277423
vt 0.134777 0.277423
vt 0.134777 0.277423
vt 0.134777 0.277423
vt 0.134777 0.277423
vt 0.134777 0.277423
vt 0.134777 0.277423
vt 0.134777 0.277423
vt 0.134777 0.277423
vt 0.134777 0.277423
vt 0.134777 0.277423
vt 0.134777 0.277423
vt 0.134777 0.277423
vt 0.134777 0.277423
vt 0.134777 0.277423
vt 0.134777 0.277423
vt 0.134777 0.277423
vt 0.134777 0.277423
vt 0.134777 0.277423
vt 0.134777 0.277423
vt 0.134777 0.277423
vt 0.134777 0.277423
vt 0.134777 0.277423
vt 0.134777 0.277423
vt 0.134777 0.277423
vt 0.134777 0.277423
vt 0.134777 0.277423
vt 0.133094 0.377788
vt 0.133094 0.377788
vt 0.133094 0.377788
vt 0.133094 0.377788
vt 0.133094 0.377788
vt 0.133094 0.377788
vt 0.133094 0.377788
vt 0.133094 0.377788
vt 0.133094 0.377788
vt 0.133094 0.377788
vt 0.133094 0.377788
vt 0.133094 0.377788
vt 0.133094 0.377788
vt 0.133094 0.377788
vt 0.133094 0.377788
vt 0.133094 0.377788
vt 0.133094 0.377788
vt 0.133094 0.377788
vt 0.133094 0.377788
vt 0.133094 0.377788
vt 0.133094 0.377788
vt 0.133094 0.377788
vt 0.133094 0.377788
vt 0.133094 0.377788
vt 0.133094 0.377788
vt 0.133094 0.377788
vt 0.133094 0.377788
vt 0.133094 0.377788
vt 0.133094 0.377788
vt 0.133094 0.377788
vt 0.133094 0.377788
vt 0.133094 0.377788
vt 0.133094 0.377788
vt 0.133094 0.377788
vt 0.133094 0.377788
vt 0.133094 0.377788
vt 0.133094 0.377788
vt 0.133094 0.377788
vt 0.133094 0.377788
vt 0.133094 0.377788
vt 0.133094 0.377788
vt 0.133094 0.377788
vt 0.133094 0.377788
vt 0.133094 0.377788
vt 0.133094 0.377788
vt 0.133094 0.377788
vt 0.133094 0.377788
vt 0.133094 0.377788
vt 0.133094 0.377788
vt 0.133094 0.377788
vt 0.133094 0.377788
vt 0.133094 0.377788
vt 0.133094 0.377788
vt 0.133094 0.377788
vt 0.133094 0.377788
vt 0.133094 0.377788
vt 0.133094 0.377788
vt 0.133094 0.377788
vt 0.133094 0.377788
vt 0.133094 0.377788
vt 0.133094 0.377788
vt 0.133094 0.377788
vt 0.133094 0.377788
vt 0.133094 0.377788
vt 0.133094 0.377788
vt 0.133094 0.377788
vt 0.133094 0.377788
vt 0.133094 0.377788
vt 0.133094 0.377788
vt 0.133094 0.377788
vt 0.134777 0.277423
vt 0.133094 0.377788
vt 0.133094 0.377788
vt 0.133094 0.377788
vt 0.134777 0.277423
vt 0.133094 0.377788
vt 0.134777 0.277423
vt 0.133094 0.377788
vt 0.134777 0.277423
vt 0.133094 0.377788
vt 0.133094 0.377788
vt 0.133094 0.377788
vt 0.133094 0.377788
vt 0.133094 0.377788
vt 0.133094 0.377788
vt 0.133094 0.377788
vt 0.134777 0.277423
vt 0.133094 0.377788
vt 0.133094 0.377788
vt 0.133094 0.377788
vt 0.134777 0.277423
vt 0.133094 0.377788
vt 0.134777 0.277423
vt 0.133094 0.377788
vt 0.134777 0.277423
vt 0.133094 0.377788
vt 0.133094 0.377788
vt 0.133094 0.377788
vt 0.133094 0.377788
vt 0.133094 0.377788
vt 0.133094 0.377788
vt 0.133094 0.377788
vt 0.134777 0.277423
vt 0.133094 0.377788
vt 0.133094 0.377788
vt 0.133094 0.377788
vt 0.134777 0.277423
vt 0.133094 0.377788
vt 0.134777 0.277423
vt 0.133094 0.377788
vt 0.134777 0.277423
vt 0.133094 0.377788
vt 0.133094 0.377788
vt 0.133094 0.377788
vt 0.133094 0.377788
vt 0.133094 0.377788
vt 0.133094 0.377788
vt 0.133094 0.377788
vt 0.134777 0.277423
vt 0.133094 0.377788
vt 0.133094 0.377788
vt 0.133094 0.377788
vt 0.134777 0.277423
vt 0.133094 0.377788
vt 0.134777 0.277423
vt 0.133094 0.377788
vt 0.134777 0.277423
vt 0.133094 0.377788
vt 0.133094 0.377788
vt 0.133094 0.377788
vt 0.133094 0.377788
vt 0.133094 0.377788
vt 0.133094 0.377788
vt 0.133094 0.377788
vt 0.134777 0.277423
vt 0.133094 0.377788
vt 0.133094 0.377788
vt 0.133094 0.377788
vt 0.134777 0.277423
vt 0.133094 0.377788
vt 0.134777 0.277423
vt 0.133094 0.377788
vt 0.134777 0.277423
vt 0.133094 0.377788
vt 0.133094 0.377788
vt 0.133094 0.377788
vt 0.133094 0.377788
vt 0.133094 0.377788
vt 0.133094 0.377788
vt 0.133094 0.377788
vt 0.134777 0.277423
vt 0.133094 0.377788
vt 0.133094 0.377788
vt 0.133094 0.377788
vt 0.134777 0.277423
vt 0.133094 0.377788
vt 0.134777 0.277423
vt 0.133094 0.377788
vt 0.134777 0.277423
vt 0.133094 0.377788
vt 0.133094 0.377788
vt 0.133094 0.377788
vt 0.133094 0.377788
vt 0.133094 0.377788
vt 0.133094 0.377788
vt 0.133094 0.377788
vt 0.134777 0.277423
vt 0.133094 0.377788
vt 0.133094 0.377788
vt 0.133094 0.377788
vt 0.134777 0.277423
vt 0.133094 0.377788
vt 0.134777 0.277423
vt 0.133094 0.377788
vt 0.134777 0.277423
vt 0.133094 0.377788
vt 0.133094 0.377788
vt 0.133094 0.377788
vt 0.133094 0.377788
vt 0.133094 0.377788
vt 0.133094 0.377788
vt 0.133094 0.377788
vt 0.134777 0.277423
vt 0.133094 0.377788
vt 0.133094 0.377788
vt 0.133094 0.377788
vt 0.134777 0.277423
vt 0.133094 0.377788
vt 0.134777 0.277423
vt 0.133094 0.377788
vt 0.134777 0.277423
vt 0.133094 0.377788
vt 0.134777 0.277423
vt 0.134777 0.277423
vt 0.134777 0.277423
vt 0.134777 0.277423
vt 0.134777 0.277423
vt 0.134777 0.277423
vt 0.134777 0.277423
vt 0.134777 0.277423
vt 0.134777 0.277423
vt 0.134777 0.277423
vt 0.134777 0.277423
vt 0.134777 0.277423
vt 0.134777 0.277423
vt 0.134777 0.277423
vt 0.134777 0.277423
vt 0.134777 0.277423
vn 0.000000 0.000000 1.000000
vn 0.000000 0.000000 1.000000
vn 0.000000 0.000000 1.000000
vn 0.000000 0.000000 1.000000
vn 0.000000 1.000000 0.000000
vn 0.000000 1.000000 0.000000
vn 0.000000 1.000000 0.000000
vn 0.000000 1.000000 0.000000
vn 0.000000 0.000000 -1.000000
vn 0.000000 0.000000 -1.000000
vn 0.000000 0.000000 -1.000000
vn 0.000000 0.000000 -1.000000
vn 0.000000 -1.000000 -0.000000
vn 0.000000 -1.000000 0.000000
vn 0.000000 -1.000000 0.000000
vn 0.986760 0.000000 0.162188
vn 0.986760 0.000000 0.162188
vn 1.000000 0.000000 0.000000
vn 1.000000 0.000000 0.000000
vn -1.000000 0.000000 0.000000
vn -1.000000 0.000000 0.000000
vn -0.986760 0.000000 0.162189
vn -0.986760 0.000000 0.162189
vn 0.000000 1.000000 0.000000
vn 0.000000 1.000000 0.000000
vn 0.000000 1.000000 0.000000
vn 0.000000 1.000000 0.000000
vn 0.000000 0.000000 1.000000
vn 0.000000 0.000000 1.000000
vn 0.000000 0.000000 1.000000
vn 0.000000 0.000000 1.000000
vn 0.000000 -1.000000 0.000000
vn -0.000000 -1.000000 -0.000000
vn 0.000000 -1.000000 0.000000
vn 0.000000 0.000000 -1.000000
vn 0.000000 0.000000 -1.000000
vn 0.000000 0.000000 -1.000000
vn 0.000000 0.000000 -1.000000
vn 0.000000 -1.000000 0.000000
vn 0.000000 -1.000000 0.000000
vn 0.000000 -1.000000 0.000000
vn 1.000000 0.000000 0.000000
vn 1.000000 0.000000 0.000000
vn 0.986759 0.000000 -0.162192
vn 0.986759 0.000000 -0.162192
vn 0.000000 1.000000 0.000000
vn 0.000000 1.000000 0.000000
vn 0.000000 1.000000 0.000000
vn 0.000000 1.000000 0.000000
vn 0.000000 1.000000 0.000000
vn 0.000000 1.000000 0.000000
vn 0.000000 1.000000 0.000000
vn 0.000000 1.000000 0.000000
vn -0.986759 0.000000 -0.162193
vn -0.986759 0.000000 -0.162193
vn -1.000000 0.000000 0.000000
vn -1.000000 0.000000 0.000000
vn 0.000000 -1.000000 0.000000
vn -0.000000 -1.000000 0.000000
vn 0.000000 -1.000000 0.000000
vn 0.000000 1.000000 0.000000
vn 0.000000 1.000000 0.000000
vn 0.000000 1.000000 0.000000
vn 0.000000 1.000000 0.000000
vn 0.000000 1.000000 0.000000
vn 0.000000 1.000000 0.000000
vn 0.000000 1.000000 0.000000
vn 0.000000 1.000000 0.000000
vn 0.000000 0.000000 1.000000
vn 0.000000 0.000000 1.000000
vn 0.000000 0.000000 1.000000
vn 0.000000 0.000000 -1.000000
vn 0.000000 0.000000 -1.000000
vn 0.000000 0.000000 -1.000000
vn 0.000000 0.000000 1.000000
vn 0.000000 0.000000 1.000000
vn 0.000000 0.000000 1.000000
vn 0.000000 1.000000 0.000000
vn 0.000000 1.000000 0.000000
vn 0.000000 1.000000 0.000000
vn 0.000000 1.000000 0.000000
vn 0.000000 1.000000 0.000000
vn 0.000000 1.000000 0.000000
vn 0.000000 1.000000 0.000000
vn 0.000000 1.000000 0.000000
vn 0.000000 0.000000 -1.000000
vn 0.000000 0.000000 -1.000000
vn 0.000000 0.000000 -1.000000
vn 0.000000 1.000000 -0.000000
vn 0.000000 1.000000 -0.000000
vn 0.000000 1.000000 -0.000000
vn 0.000000 1.000000 -0.000000
vn 0.000000 1.000000 -0.000000
vn 0.000000 1.000000 -0.000000
vn 0.000000 1.000000 0.000000
vn 0.000000 1.000000 0.000000
vn 0.000000 1.000000 0.000000
vn 0.000000 1.000000 0.000000
vn 0.000000 1.000000 0.000000
vn 0.000000 1.000000 0.000000
vn 0.000000 1.000000 0.000000
vn 0.000000 1.000000 0.000000
vn 0.000000 1.000000 0.000000
vn 0.000000 1.000000 0.000000
vn 0.000000 1.000000 0.000000
vn 0.000000 1.000000 0.000000
vn 0.000000 1.000000 0.000000
vn 0.000000 1.000000 0.000000
vn 0.000000 1.000000 0.000000
vn 0.000000 1.000000 0.000000
vn 0.000000 1.000000 0.000000
vn 0.000000 1.000000 0.000000
vn 0.000000 1.000000 0.000000
vn 0.000000 1.000000 0.000000
vn 0.000000 1.000000 0.000000
vn 0.000000 1.000000 0.000000
vn 0.000000 1.000000 0.000000
vn 0.000000 1.000000 0.000000
vn 0.000000 1.000000 0.000000
vn 0.000000 1.000000 0.000000
vn 0.000000 1.000000 0.000000
vn 0.000000 1.000000 0.000000
vn 0.000000 1.000000 0.000000
vn 0.000000 1.000000 0.000000
vn 0.000000 1.000000 0.000000
vn 0.000000 1.000000 0.000000
vn 0.000000 1.000000 0.000000
vn 0.000000 1.000000 0.000000
vn 0.000000 1.000000 0.000000
vn 0.000000 1.000000 0.000000
vn 0.000000 1.000000 -0.000000
vn 0.000000 1.000000 -0.000000
vn 0.000000 1.000000 -0.000000
vn 0.000000 1.000000 -0.000000
vn 0.000000 1.000000 0.000000
vn 0.000000 1.000000 0.000000
vn 0.000000 1.000000 0.000000
vn 0.000000 1.000000 0.000000
vn 0.000000 1.000000 0.000000
vn 0.000000 1.000000 0.000000
vn 0.000000 1.000000 0.000000
vn 0.000000 1.000000 0.000000
vn 0.000000 1.000000 0.000000
vn 0.000000 1.000000 0.000000
vn 0.000000 1.000000 0.000000
vn 0.000000 1.000000 0.000000
vn 0.000000 1.000000 -0.000000
vn 0.000000 1.000000 -0.000000
vn 0.000000 1.000000 -0.000000
vn 0.000000 1.000000 -0.000000
vn 0.000000 1.000000 -0.000000
vn 0.000000 1.000000 -0.000000
vn 0.000000 1.000000 0.000000
vn 0.000000 1.000000 0.000000
vn 0.000000 1.000000 0.000000
vn 0.000000 1.000000 0.000000
vn 0.000000 1.000000 0.000000
vn 0.000000 1.000000 0.000000
vn 0.000000 1.000000 0.000000
vn 0.000000 1.000000 0.000000
vn 0.000000 1.000000 0.000000
vn 0.000000 1.000000 0.000000
vn 0.000000 1.000000 0.000000
vn 0.000000 1.000000 0.000000
vn 0.000000 1.000000 0.000000
vn 0.000000 1.000000 0.000000
vn 0.000000 1.000000 0.000000
vn 0.000000 1.000000 0.000000
vn 0.000000 1.000000 0.000000
vn 0.000000 1.000000 0.000000
vn 0.000000 1.000000 -0.000000
vn 0.000000 1.000000 -0.000000
vn 0.000000 1.000000 -0.000000
vn 0.000000 1.000000 -0.000000
vn 0.000000 1.000000 -0.000000
vn 0.000000 1.000000 -0.000000
vn 0.000000 1.000000 0.000000
vn 0.000000 1.000000 0.000000
vn 0.000000 1.000000 0.000000
vn 0.000000 1.000000 0.000000
vn 0.000000 1.000000 0.000000
vn 0.000000 1.000000 0.000000
vn 0.000000 1.000000 0.000000
vn 0.000000 1.000000 0.000000
vn 0.000000 1.000000 0.000000
vn 0.000000 1.000000 0.000000
vn 0.000000 1.000000 0.000000
vn 0.000000 1.000000 0.000000
vn 0.000000 1.000000 0.000000
vn 0.000000 1.000000 0.000000
vn 0.000000 1.000000 0.000000
vn 0.000000 1.000000 0.000000
vn 0.000000 1.000000 0.000000
vn 0.000000 1.000000 0.000000
vn 0.000000 1.000000 0.000000
vn 0.000000 1.000000 0.000000
vn 0.968722 0.248147 0.000000
vn 0.968722 0.248147 0.000000
vn 0.968722 0.248147 0.000000
vn 0.968722 0.248147 0.000000
vn 0.000000 0.511198 -0.859463
vn 0.000000 0.511198 -0.859463
vn 0.000000 0.511198 -0.859463
vn 0.000000 0.511198 -0.859463
vn -0.968722 0.248147 0.000000
vn -0.968722 0.248147 0.000000
vn -0.968722 0.248147 0.000000
vn -0.968722 0.248147 0.000000
vn 0.000000 0.417935 0.908477
vn 0.000000 0.417935 0.908477
vn 0.000000 0.417935 0.908477
vn 0.000000 0.417935 0.908477
vn -0.968722 0.248147 0.000000
vn -0.968722 0.248147 0.000000
vn -0.968722 0.248147 0.000000
vn -0.968722 0.248147 0.000000
vn 0.000000 0.417935 0.908477
vn 0.000000 0.417935 0.908477
vn 0.000000 0.417935 0.908477
vn 0.000000 0.417935 0.908477
vn 0.968720 0.248156 0.000000
vn 0.968720 0.248156 0.000000
vn 0.968720 0.248156 0.000000
vn 0.968720 0.248156 0.000000
vn 0.000000 0.511198 -0.859463
vn 0.000000 0.511198 -0.859463
vn 0.000000 0.511198 -0.859463
vn 0.000000 0.511198 -0.859463
vn -0.968722 0.248147 0.000000
vn -0.968722 0.248147 0.000000
vn -0.968722 0.248147 0.000000
vn -0.968722 0.248147 0.000000
vn 0.000000 0.511122 0.859509
vn 0.000000 0.511122 0.859509
vn 0.000000 0.511122 0.859509
vn 0.000000 0.511122 0.859509
vn 0.968722 0.248147 0.000000
vn 0.968722 0.248147 0.000000
vn 0.968722 0.248147 0.000000
vn 0.968722 0.248147 0.000000
vn 0.000000 0.417935 -0.908477
vn 0.000000 0.417935 -0.908477
vn 0.000000 0.417935 -0.908477
vn 0.000000 0.417935 -0.908477
vn -0.968722 0.248147 0.000000
vn -0.968722 0.248147 0.000000
vn -0.968722 0.248147 0.000000
vn -0.968722 0.248147 0.000000
vn 0.000000 0.511122 0.859508
vn 0.000000 0.511122 0.859508
vn 0.000000 0.511122 0.859508
vn 0.000000 0.511122 0.859508
vn 0.968720 0.248156 0.000000
vn 0.968720 0.248156 0.000000
vn 0.968720 0.248156 0.000000
vn 0.968720 0.248156 0.000000
vn 0.000000 0.417965 -0.908463
vn 0.000000 0.417965 -0.908463
vn 0.000000 0.417965 -0.908463
vn 0.000000 0.417965 -0.908463
vn 0.000000 0.511121 0.859509
vn 0.000000 0.511121 0.859509
vn 0.000000 0.511122 0.859509
vn 0.000000 0.511122 0.859509
vn 0.968721 0.248151 0.000000
vn 0.968721 0.248151 0.000000
vn 0.968721 0.248151 0.000000
vn 0.968721 0.248151 0.000000
vn 0.000000 0.417935 -0.908477
vn 0.000000 0.417935 -0.908477
vn 0.000000 0.417935 -0.908477
vn 0.000000 0.417935 -0.908477
vn -0.968721 0.248152 0.000000
vn -0.968721 0.248152 0.000000
vn -0.968721 0.248152 0.000000
vn -0.968721 0.248152 0.000000
vn 0.000000 0.417935 0.908477
vn 0.000000 0.417935 0.908477
vn 0.000000 0.417935 0.908477
vn 0.000000 0.417935 0.908477
vn 0.968721 0.248152 0.000000
vn 0.968721 0.248152 0.000000
vn 0.968721 0.248152 0.000000
vn 0.968721 0.248152 0.000000
vn 0.000000 0.511197 -0.859463
vn 0.000000 0.511197 -0.859463
vn 0.000000 0.511197 -0.859463
vn 0.000000 0.511197 -0.859463
vn -0.968721 0.248152 0.000000
vn -0.968721 0.248152 0.000000
vn -0.968721 0.248152 0.000000
vn -0.968721 0.248152 0.000000
vn 0.000000 0.511198 -0.859463
vn 0.000000 0.511197 -0.859463
vn 0.000000 0.511198 -0.859463
vn 0.000000 0.511198 -0.859463
vn -0.968723 0.248143 0.000000
vn -0.968723 0.248143 0.000000
vn -0.968723 0.248143 0.000000
vn -0.968724 0.248143 0.000000
vn 0.000000 0.417935 0.908477
vn 0.000000 0.417935 0.908477
vn 0.000000 0.417935 0.908477
vn 0.000000 0.417935 0.908477
vn 0.968722 0.248147 0.000000
vn 0.968722 0.248147 0.000000
vn 0.968723 0.248147 0.000000
vn 0.968722 0.248147 0.000000
vn -0.968724 0.248142 0.000000
vn -0.968724 0.248142 0.000000
vn -0.968724 0.248142 0.000000
vn -0.968724 0.248142 0.000000
vn 0.000000 0.511122 0.859509
vn 0.000000 0.511122 0.859508
vn 0.000000 0.511122 0.859508
vn 0.000000 0.511122 0.859508
vn 0.968722 0.248148 0.000000
vn 0.968722 0.248148 0.000000
vn 0.968722 0.248148 0.000000
vn 0.968722 0.248148 0.000000
vn 0.000000 0.417935 -0.908477
vn 0.000000 0.417935 -0.908477
vn 0.000000 0.417935 -0.908477
vn 0.000000 0.417935 -0.908477
vn 0.000000 1.000000 -0.000000
vn 0.000000 1.000000 -0.000000
vn 0.000000 1.000000 -0.000000
vn -0.740912 0.000000 -0.671603
vn -0.986759 0.000000 -0.162193
vn -0.986759 0.000000 -0.162193
vn -0.740912 0.000000 -0.671603
vn 0.000000 -1.000000 0.000000
vn -0.000000 -1.000000 0.000000
vn -0.000000 -1.000000 0.000000
vn 0.000000 -1.000000 0.000000
vn -0.000000 -1.000000 -0.000000
vn -0.000000 -1.000000 -0.000000
vn 0.000000 -1.000000 0.000000
vn 0.000000 -1.000000 -0.000000
vn -0.986760 0.000000 0.162189
vn -0.986760 0.000000 0.162189
vn -0.740900 0.000000 0.671615
vn -0.740900 0.000000 0.671615
vn 0.000000 1.000000 0.000000
vn 0.000000 1.000000 0.000000
vn 0.000000 1.000000 0.000000
vn 0.000000 1.000000 -0.000000
vn 0.000000 1.000000 -0.000000
vn 0.000000 1.000000 -0.000000
vn 0.740902 0.000000 0.671613
vn 0.986760 0.000000 0.162188
vn 0.986760 0.000000 0.162188
vn 0.740902 0.000000 0.671613
vn 0.000000 -1.000000 -0.000000
vn 0.000000 -1.000000 0.000000
vn 0.000000 -1.000000 -0.000000
vn 0.000000 -1.000000 -0.000000
vn 0.000000 -1.000000 0.000000
vn 0.000000 -1.000000 0.000000
vn 0.000000 -1.000000 0.000000
vn 0.000000 -1.000000 0.000000
vn 0.986759 0.000000 -0.162192
vn 0.986759 0.000000 -0.162192
vn 0.740913 0.000000 -0.671601
vn 0.740913 0.000000 -0.671601
vn 0.000000 1.000000 0.000000
vn 0.000000 1.000000 0.000000
vn 0.000000 1.000000 0.000000
s off
f 10/16/1 11/17/2 2/2/3 22/33/4
f 57/68/5 58/221/6 59/217/7 60/213/8
f 12/19/9 9/15/10 24/35/11 8/8/12
f 94/238/13 13/20/14 14/21/15
f 93/237/16 94/239/17 14/22/18 15/24/19
f 17/26/20 18/28/21 91/232/22 92/234/23
f 61/72/24 62/205/25 63/201/26 64/197/27
f 21/32/28 1/1/29 11/17/30 10/16/31
f 13/20/32 91/233/33 18/29/34
f 7/7/35 19/30/36 9/15/37 12/19/38
f 13/20/39 95/240/40 14/21/41
f 15/24/42 14/22/43 95/241/44 96/243/45
f 65/76/46 66/189/47 67/185/48 68/183/49
f 69/80/50 70/173/51 71/169/52 72/167/53
f 89/228/54 90/230/55 18/28/56 17/26/57
f 18/29/58 90/231/59 13/20/60
f 74/84/61 73/157/62 75/153/63 76/151/64
f 77/88/65 78/141/66 79/137/67 80/135/68
f 1/1/69 21/32/70 3/3/71
f 5/5/72 19/30/73 7/7/74
f 22/33/75 2/2/76 4/4/77
f 81/92/78 82/125/79 83/121/80 84/117/81
f 86/96/82 85/109/83 87/105/84 88/103/85
f 8/8/86 24/35/87 6/6/88
f 23/34/89 26/224/90 25/226/91 22/33/92 39/126/93 38/128/94
f 16/25/95 27/222/96 26/224/97 23/34/98 43/190/99 42/192/100
f 10/16/101 28/218/102 27/222/103 16/25/104 36/202/105 35/206/106
f 10/16/107 22/33/108 25/226/109 28/218/110
f 3/3/111 21/32/112 30/144/113 29/146/114
f 17/27/115 32/138/116 31/142/117 20/31/118 45/162/119 46/160/120
f 17/27/121 92/235/122 29/146/123 32/138/124
f 21/32/125 34/208/126 33/210/127 20/31/128 31/142/129 30/144/130
f 21/32/131 10/16/132 35/206/133 34/208/134
f 20/31/135 33/210/136 36/202/137 16/25/138 51/174/139 50/176/140
f 23/34/141 38/128/142 37/130/143 15/23/144 55/110/145 53/114/146
f 22/33/147 4/4/148 40/122/149 39/126/150
f 40/122/151 93/236/152 15/23/153 37/130/154
f 16/25/155 42/192/156 41/194/157 9/15/158 52/170/159 51/174/160
f 24/35/161 44/186/162 43/190/163 23/34/164 53/114/165 54/112/166
f 24/35/167 9/15/168 41/194/169 44/186/170
f 19/30/171 5/5/172 48/154/173 47/158/174
f 48/154/175 89/229/176 17/27/177 46/160/178
f 20/31/179 50/176/180 49/178/181 19/30/182 47/158/183 45/162/184
f 9/15/185 19/30/186 49/178/187 52/170/188
f 15/23/189 96/242/190 56/106/191 55/110/192
f 6/6/193 24/35/194 54/112/195 56/106/196
f 25/36/197 26/225/198 58/220/199 57/214/200
f 26/37/201 27/223/202 59/216/203 58/69/204
f 27/38/205 28/219/206 60/212/207 59/70/208
f 28/39/209 25/227/210 57/215/211 60/71/212
f 33/44/213 34/209/214 62/204/215 61/198/216
f 34/45/217 35/207/218 63/200/219 62/73/220
f 35/46/221 36/203/222 64/196/223 63/74/224
f 36/47/225 33/211/226 61/199/227 64/75/228
f 41/52/229 42/193/230 66/188/231 65/180/232
f 42/53/233 43/191/234 67/184/235 66/77/236
f 43/54/237 44/187/238 68/182/239 67/78/240
f 44/55/241 41/195/242 65/181/243 68/79/244
f 49/60/245 50/177/246 70/172/247 69/164/248
f 50/61/249 51/175/250 71/168/251 70/81/252
f 51/62/253 52/171/254 72/166/255 71/82/256
f 52/63/257 49/179/258 69/165/259 72/83/260
f 46/56/261 45/163/262 73/156/263 74/148/264
f 45/57/265 47/159/266 75/152/267 73/85/268
f 47/58/269 48/155/270 76/150/271 75/86/272
f 48/59/273 46/161/274 74/149/275 76/87/276
f 29/40/277 30/145/278 78/140/279 77/132/280
f 30/41/281 31/143/282 79/136/283 78/89/284
f 31/42/285 32/139/286 80/134/287 79/90/288
f 32/43/289 29/147/290 77/133/291 80/91/292
f 37/48/293 38/129/294 82/124/295 81/118/296
f 38/49/297 39/127/298 83/120/299 82/93/300
f 39/50/301 40/123/302 84/116/303 83/94/304
f 40/51/305 37/131/306 81/119/307 84/95/308
f 54/64/309 53/115/310 85/108/311 86/100/312
f 53/65/313 55/111/314 87/104/315 85/97/316
f 55/66/317 56/107/318 88/102/319 87/98/320
f 56/67/321 54/113/322 86/101/323 88/99/324
f 5/5/325 89/229/326 48/154/327
f 7/13/328 90/230/329 89/228/330 5/14/331
f 13/20/332 90/231/333 7/7/334 12/19/335
f 1/9/336 91/233/337 13/20/338 11/18/339
f 92/234/340 91/232/341 1/1/342 3/3/343
f 29/146/344 92/235/345 3/3/346
f 4/4/347 93/236/348 40/122/349
f 2/2/350 94/239/351 93/237/352 4/4/353
f 11/18/354 13/20/355 94/238/356 2/10/357
f 8/8/358 95/240/359 13/20/360 12/19/361
f 96/243/362 95/241/363 8/11/364 6/12/365
f 56/106/366 96/242/367 6/6/368
