# This file uses meters as units for non-parametric coordinates.

v -2.150470 -5.527248 6.056152
v 2.150470 -5.527248 6.056152
v -2.150470 4.445442 6.056152
v 2.150470 4.445442 6.056152
v -2.150470 4.445442 -6.056152
v 2.150470 4.445442 -6.056152
v -2.150470 -5.527248 -6.056152
v 2.150470 -5.527248 -6.056152
v 3.530995 4.445442 -3.488281
v -3.530995 4.445442 -3.488281
v -3.530995 -5.527248 -3.488281
v 3.530995 -5.527248 -3.488281
v -3.530995 -5.527248 3.488281
v -3.530995 4.445442 3.488281
v 3.530995 4.445442 3.488281
v 3.530995 -5.527248 3.488281
v -3.530995 -0.635174 1.027344
v -3.530995 2.565277 1.253418
v -3.530995 2.565277 -1.253418
v -3.530995 -0.635174 -1.027344
v -3.530995 0.865891 -1.811523
v -3.530995 0.865891 1.811523
v -3.530995 -3.781178 -1.350586
v -3.530995 -3.781178 1.350586
v -2.176276 0.796276 -1.380859
v -2.176276 0.796276 1.380371
v -2.176276 2.278694 0.955078
v -2.176276 2.278694 -0.955078
v -2.176276 -3.549110 -0.955078
v -2.176276 -3.549110 0.955078
v -2.176276 -0.592789 0.726563
v -2.176276 -0.592789 -0.726563
v 0.002119 4.445389 2.416992
v -1.467118 4.445389 3.138672
v -1.467118 4.445389 4.327637
v 0.002119 4.445389 5.199219
v 1.456000 4.445389 4.327637
v 1.455999 4.445389 3.138672
v 0.002119 4.104492 5.049805
v 1.314631 4.104492 4.270996
v 1.314630 4.104485 3.221191
v 0.002119 4.104492 2.566406
v -1.325748 4.104492 3.221191
v -1.325748 4.104492 4.270996
vt 0.051082 0.211841
vt 0.051082 0.211841
vt 0.051082 0.211841
vt 0.051082 0.211841
vt 0.051082 0.211841
vt 0.051082 0.211841
vt 0.051082 0.211841
vt 0.051082 0.211841
vt 0.051082 0.211841
vt 0.051082 0.211841
vt 0.051082 0.211841
vt 0.051082 0.211841
vt 0.051082 0.211841
vt 0.051082 0.211841
vt 0.051082 0.211841
vt 0.051082 0.211841
vt 0.051082 0.211841
vt 0.051082 0.211841
vt 0.051082 0.211841
vt 0.051082 0.211841
vt 0.051082 0.211841
vt 0.051082 0.211841
vt 0.051082 0.211841
vt 0.051082 0.211841
vt 0.051082 0.211841
vt 0.051082 0.211841
vt 0.051082 0.211841
vt 0.051082 0.211841
vt 0.051082 0.211841
vt 0.051082 0.211841
vt 0.051082 0.211841
vt 0.051082 0.211841
vt 0.051082 0.211841
vt 0.051082 0.211841
vt 0.051082 0.211841
vt 0.051082 0.211841
vt 0.051082 0.211841
vt 0.051082 0.211841
vt 0.051082 0.211841
vt 0.051082 0.211841
vt 0.051082 0.211841
vt 0.051082 0.211841
vt 0.051082 0.211841
vt 0.051082 0.211841
vt 0.051082 0.211841
vt 0.051082 0.211841
vt 0.092265 0.230255
vt 0.092265 0.230255
vt 0.092265 0.230255
vt 0.092265 0.230255
vt 0.092265 0.230259
vt 0.092265 0.230259
vt 0.092265 0.230259
vt 0.092265 0.230259
vt 0.051082 0.211841
vt 0.051082 0.211841
vt 0.051082 0.211841
vt 0.051082 0.211841
vt 0.051082 0.211841
vt 0.051082 0.211841
vt 0.051082 0.211841
vt 0.051082 0.211841
vt 0.051082 0.211841
vt 0.051082 0.211841
vt 0.051082 0.211841
vt 0.051082 0.211841
vt 0.091539 0.229492
vt 0.091539 0.229492
vt 0.091539 0.229492
vt 0.091539 0.229492
vt 0.091539 0.229492
vt 0.091539 0.229492
vn 0.000000 0.000000 1.000000
vn 0.000000 0.000000 1.000000
vn 0.000000 0.000000 1.000000
vn 0.000000 0.000000 1.000000
vn 0.000003 1.000000 0.000005
vn -0.000000 1.000000 0.000005
vn -0.000003 1.000000 0.000005
vn 0.000000 0.000000 -1.000000
vn 0.000000 0.000000 -1.000000
vn 0.000000 0.000000 -1.000000
vn 0.000000 0.000000 -1.000000
vn 0.000000 -1.000000 -0.000000
vn 0.000000 -1.000000 -0.000000
vn 0.000000 -1.000000 -0.000000
vn 0.000000 -1.000000 -0.000000
vn 0.989701 0.000000 -0.143152
vn 0.989701 0.000000 0.143152
vn 0.989701 0.000000 0.143152
vn 0.989701 0.000000 -0.143152
vn -1.000000 -0.000000 0.000000
vn -1.000000 -0.000000 0.000000
vn -1.000000 -0.000000 0.000000
vn -1.000000 -0.000000 0.000000
vn 0.000003 1.000000 0.000005
vn -0.000003 1.000000 0.000005
vn 0.000000 1.000000 0.000000
vn 0.000000 1.000000 0.000000
vn -0.880782 0.000000 -0.473521
vn -0.880782 0.000000 -0.473521
vn -0.880782 0.000000 -0.473521
vn -0.880782 0.000000 -0.473521
vn 0.000000 -1.000000 -0.000000
vn 0.000000 -1.000000 -0.000000
vn 0.000000 -1.000000 -0.000000
vn 0.000000 -1.000000 -0.000000
vn 0.989701 0.000000 -0.143152
vn 0.989701 0.000000 -0.143152
vn 0.880782 0.000000 -0.473521
vn 0.880782 0.000000 -0.473521
vn -0.880782 0.000000 0.473521
vn -0.880782 0.000000 0.473521
vn -0.880782 0.000000 0.473521
vn -0.880782 0.000000 0.473521
vn 0.000001 1.000000 -0.000001
vn 0.000003 1.000000 -0.000002
vn 0.000003 1.000000 -0.000002
vn 0.000001 1.000000 -0.000001
vn 0.880782 0.000000 0.473521
vn 0.989701 0.000000 0.143152
vn 0.989701 0.000000 0.143152
vn 0.880782 0.000000 0.473521
vn 0.000000 -1.000000 -0.000000
vn 0.000000 -1.000000 -0.000000
vn 0.000000 -1.000000 -0.000000
vn 0.000000 -1.000000 -0.000000
vn -1.000000 0.000000 0.000000
vn -1.000000 0.000000 0.000000
vn -1.000000 0.000000 0.000000
vn -1.000000 -0.000000 0.000000
vn -1.000000 -0.000000 0.000000
vn -1.000000 -0.000000 0.000000
vn -1.000000 -0.000000 0.000000
vn -1.000000 0.000000 0.000000
vn -1.000000 0.000000 0.000000
vn -1.000000 0.000000 0.000000
vn -1.000000 0.000000 0.000000
vn -1.000000 0.000000 0.000000
vn -1.000000 0.000000 0.000000
vn -1.000000 0.000000 0.000000
vn -1.000000 -0.000000 0.000000
vn -1.000000 -0.000000 0.000000
vn -1.000000 -0.000000 0.000000
vn -1.000000 -0.000000 0.000000
vn -1.000000 0.000000 0.000000
vn -1.000000 0.000000 0.000000
vn -1.000000 0.000000 0.000000
vn -1.000000 0.000000 0.000000
vn -1.000000 0.000000 0.000000
vn -1.000000 0.000000 0.000000
vn -1.000000 0.000000 0.000000
vn -1.000000 0.000000 0.000000
vn -1.000000 0.000000 0.000000
vn -1.000000 0.000000 0.000000
vn -1.000000 0.000000 0.000000
vn -1.000000 0.000000 0.000000
vn -1.000000 0.000000 0.000000
vn -1.000000 0.000000 0.000000
vn -1.000000 0.000000 0.000000
vn -1.000000 0.000000 0.000000
vn -1.000000 0.000000 0.000000
vn -1.000000 0.000000 0.000000
vn -1.000000 0.000000 0.000000
vn -1.000000 0.000000 0.000000
vn -1.000000 0.000000 0.000000
vn -1.000000 0.000000 0.000000
vn -0.283876 -0.283140 -0.916104
vn -0.283876 -0.283140 -0.916104
vn -0.283876 -0.283140 -0.916104
vn -0.283876 -0.283140 -0.916104
vn -0.206964 -0.978349 0.000000
vn -0.206964 -0.978349 0.000000
vn -0.206964 -0.978349 0.000000
vn -0.206964 -0.978349 0.000000
vn -0.283730 -0.283281 0.916106
vn -0.283730 -0.283281 0.916106
vn -0.283730 -0.283281 0.916106
vn -0.283730 -0.283281 0.916106
vn -0.168843 0.985643 0.000000
vn -0.168843 0.985643 0.000000
vn -0.168843 0.985643 0.000000
vn -0.168843 0.985643 0.000000
vn -0.239630 -0.087427 -0.966920
vn -0.239630 -0.087427 -0.966920
vn -0.239630 -0.087427 -0.966920
vn -0.239630 -0.087427 -0.966920
vn -0.239630 -0.087427 0.966920
vn -0.239630 -0.087427 0.966920
vn -0.239630 -0.087427 0.966920
vn -0.239630 -0.087427 0.966920
vn -0.230964 0.433415 -0.871095
vn -0.230964 0.433415 -0.871095
vn -0.230964 0.433415 -0.871095
vn -0.230964 0.433415 -0.871095
vn -0.230799 0.433550 0.871072
vn -0.230799 0.433550 0.871072
vn -0.230799 0.433550 0.871072
vn -0.230799 0.433550 0.871072
vn 0.000019 1.000000 0.000000
vn 0.000018 1.000000 0.000002
vn -0.000000 1.000000 0.000005
vn 0.000003 1.000000 0.000005
vn -0.000003 1.000000 0.000005
vn -0.000000 1.000000 0.000005
vn -0.000016 1.000000 0.000003
vn -0.000018 1.000000 0.000001
vn 0.000022 1.000000 -0.000022
vn 0.000027 1.000000 -0.000014
vn 0.000018 1.000000 0.000002
vn 0.000019 1.000000 0.000000
vn 0.000022 1.000000 -0.000022
vn -0.000000 1.000000 -0.000048
vn 0.000027 1.000000 -0.000014
vn 0.000022 1.000000 -0.000022
vn -0.000021 1.000000 -0.000028
vn -0.000000 1.000000 -0.000048
vn -0.000026 1.000000 -0.000016
vn -0.000021 1.000000 -0.000028
vn -0.000018 1.000000 0.000001
vn -0.000016 1.000000 0.000003
vn -0.000026 1.000000 -0.000016
vn -0.000018 1.000000 0.000001
vn -0.000000 1.000000 -0.000048
vn -0.000021 1.000000 -0.000028
vn -0.000026 1.000000 -0.000016
vn -0.481160 0.343519 -0.806523
vn -0.481160 0.343519 -0.806523
vn -0.481160 0.343519 -0.806523
vn -0.481160 0.343519 -0.806523
vn -0.923723 0.383061 -0.000000
vn -0.923723 0.383061 -0.000000
vn -0.923723 0.383061 -0.000000
vn -0.923723 0.383061 -0.000000
vn -0.414045 0.368927 0.832141
vn -0.414046 0.368927 0.832141
vn -0.414046 0.368927 0.832141
vn -0.414045 0.368927 0.832141
vn 0.410411 0.368808 0.833993
vn 0.410411 0.368807 0.833993
vn 0.410411 0.368807 0.833993
vn 0.410411 0.368807 0.833993
vn 0.923721 0.383065 0.000000
vn 0.923721 0.383065 0.000000
vn 0.923721 0.383065 0.000000
vn 0.923721 0.383065 0.000000
vn 0.477265 0.343423 -0.808875
vn 0.477265 0.343423 -0.808875
vn 0.477265 0.343423 -0.808875
vn 0.477265 0.343423 -0.808875
vn 0.000001 1.000000 -0.000001
vn 0.000001 1.000000 -0.000001
vn 0.000000 1.000000 0.000000
vn 0.000000 1.000000 0.000000
s off
f 1/1/1 2/2/2 4/4/3 3/3/4
f 10/18/5 33/55/6 9/15/7
f 5/5/8 6/6/9 8/8/10 7/7/11
f 16/29/12 13/24/13 11/20/14 12/21/15
f 9/16/16 15/28/17 16/30/18 12/22/19
f 25/47/20 26/48/21 27/49/22 28/50/23
f 10/18/24 9/15/25 6/6/26 5/5/27
f 7/13/28 11/19/29 10/17/30 5/14/31
f 7/7/32 8/8/33 12/21/34 11/20/35
f 9/16/36 12/22/37 8/11/38 6/12/39
f 14/25/40 13/23/41 1/1/42 3/3/43
f 39/67/44 40/68/45 41/69/46 42/70/47
f 2/2/48 16/30/49 15/28/50 4/4/51
f 13/24/52 16/29/53 2/10/54 1/9/55
f 13/23/56 14/25/57 22/36/58
f 14/25/59 10/17/60 19/33/61 18/32/62
f 10/17/63 21/35/64 19/33/65
f 29/51/66 30/52/67 31/53/68 32/54/69
f 31/53/70 26/48/71 25/47/72 32/54/73
f 21/35/74 11/19/75 20/34/76
f 10/17/77 11/19/78 21/35/79
f 22/36/80 14/25/81 18/32/82
f 13/23/83 22/36/84 17/31/85
f 11/19/86 23/37/87 20/34/88
f 11/19/89 13/23/90 24/38/91 23/37/92
f 17/31/93 24/38/94 13/23/95
f 22/36/96 18/32/97 27/40/98 26/39/99
f 18/32/100 19/33/101 28/41/102 27/40/103
f 19/33/104 21/35/105 25/42/106 28/41/107
f 23/37/108 24/38/109 30/44/110 29/43/111
f 24/38/112 17/31/113 31/45/114 30/44/115
f 20/34/116 23/37/117 29/43/118 32/46/119
f 17/31/120 22/36/121 26/39/122 31/45/123
f 21/35/124 20/34/125 32/46/126 25/42/127
f 14/26/128 34/56/129 33/55/130 10/18/131
f 9/15/132 33/55/133 38/60/134 15/27/135
f 3/3/136 35/57/137 34/56/138 14/26/139
f 3/3/140 36/58/141 35/57/142
f 3/3/143 4/4/144 36/58/145
f 37/59/146 4/4/147 15/27/148
f 38/60/149 37/59/150 15/27/151
f 36/58/152 4/4/153 37/59/154
f 36/58/155 37/59/156 40/62/157 39/61/158
f 37/59/159 38/60/160 41/63/161 40/62/162
f 38/60/163 33/55/164 42/64/165 41/63/166
f 33/55/167 34/56/168 43/65/169 42/64/170
f 34/56/171 35/57/172 44/66/173 43/65/174
f 35/57/175 36/58/176 39/61/177 44/66/178
f 39/67/179 42/70/180 43/71/181 44/72/182
v -1.339368 8.464256 -4.369629
v 1.339368 8.464256 -4.369629
v -1.339368 8.464256 -3.231934
v 1.339368 8.464256 -3.231934
v 1.339368 8.464256 4.288086
v -1.339368 8.464256 4.288086
v 1.339368 8.464256 3.216797
v -1.339368 8.464256 3.216797
v -1.339368 11.385651 -3.093262
v 1.339368 11.385651 -3.093262
v -1.339368 10.613007 -2.414063
v 1.339368 10.613007 -2.414063
v 1.339368 11.435532 3.110840
v -1.339368 11.435532 3.110840
v 1.339368 10.534683 2.180664
v -1.339368 10.534683 2.180664
v 1.339368 11.109520 -0.020996
v 1.339368 12.417358 -0.020996
v -1.339368 12.417358 -0.020996
v -1.339368 11.109520 -0.020996
v -0.000005 9.888725 1.699219
v 0.000001 10.405342 -0.020996
v -0.000004 8.464256 2.555176
v -0.000000 8.464256 -2.611328
v 0.000001 9.917938 -2.016113
v -0.000001 13.051552 -0.020996
v -0.000003 8.464256 -5.018066
v -0.000003 11.963898 -3.709473
v -0.000001 11.835312 3.581055
v 0.000004 8.464256 5.094238
v -1.339368 1.463829 -4.369629
v 0.000000 1.463829 -5.018066
v -1.339368 1.463829 -3.231934
v -0.000000 1.463829 -2.611328
v 1.339368 1.463829 -4.369629
v 1.339368 1.463829 -3.231934
v -1.339368 4.116676 4.288086
v 0.000003 3.977097 5.094238
v 1.339368 4.116676 4.288086
v 1.339368 4.116676 3.216797
v -1.339368 4.116676 3.216797
v 0.000000 3.977097 2.555176
vt 0.101418 0.277447
vt 0.101418 0.277447
vt 0.101418 0.277447
vt 0.101418 0.277447
vt 0.101418 0.277447
vt 0.101418 0.277447
vt 0.101418 0.277447
vt 0.101418 0.277447
vt 0.101418 0.277447
vt 0.101418 0.277447
vt 0.101418 0.277447
vt 0.101418 0.277447
vt 0.101418 0.277447
vt 0.101418 0.277447
vt 0.101418 0.277447
vt 0.101418 0.277447
vt 0.101418 0.277447
vt 0.101418 0.277447
vt 0.101418 0.277447
vt 0.101418 0.277447
vt 0.101418 0.277447
vt 0.101418 0.277447
vt 0.101418 0.277447
vt 0.101418 0.277447
vt 0.101418 0.277447
vt 0.101418 0.277447
vt 0.101418 0.277447
vt 0.101418 0.277447
vt 0.101418 0.277447
vt 0.101418 0.277447
vt 0.101418 0.277447
vt 0.101418 0.277447
vt 0.101418 0.277447
vt 0.101418 0.277447
vt 0.101418 0.277447
vt 0.101418 0.277447
vt 0.101418 0.277447
vt 0.101418 0.277447
vt 0.101418 0.277447
vt 0.101418 0.277447
vt 0.101418 0.277447
vt 0.101418 0.277447
vt 0.101418 0.277447
vt 0.101418 0.277447
vt 0.101418 0.277447
vt 0.101418 0.277447
vt 0.101418 0.277447
vt 0.101418 0.277447
vt 0.101418 0.277447
vt 0.101418 0.277447
vt 0.101418 0.277447
vt 0.101418 0.277447
vt 0.101418 0.277447
vt 0.101418 0.277447
vt 0.101418 0.277447
vt 0.101418 0.277447
vt 0.101418 0.277447
vt 0.101418 0.277447
vt 0.101418 0.277447
vt 0.101418 0.277447
vt 0.101418 0.277447
vt 0.101418 0.277447
vt 0.101418 0.277447
vt 0.101418 0.277447
vt 0.101418 0.277447
vt 0.101418 0.277447
vt 0.101418 0.277447
vt 0.101418 0.277447
vt 0.101418 0.277447
vt 0.101418 0.277447
vt 0.101418 0.277447
vt 0.101418 0.277447
vt 0.101418 0.277447
vt 0.101418 0.277447
vt 0.101418 0.277447
vt 0.101418 0.277447
vt 0.101418 0.277447
vt 0.101418 0.277447
vt 0.101418 0.277447
vt 0.101418 0.277447
vt 0.101418 0.277447
vt 0.101418 0.277447
vn 0.460349 0.331526 -0.823510
vn 0.460349 0.331526 -0.823511
vn 0.460349 0.331526 -0.823511
vn 0.460349 0.331526 -0.823510
vn 1.000000 0.000000 0.000000
vn 1.000000 0.000000 0.000000
vn 1.000000 0.000000 0.000000
vn 1.000000 0.000000 0.000000
vn 0.440058 -0.427517 -0.789670
vn 0.440058 -0.427516 -0.789670
vn 0.440058 -0.427517 -0.789670
vn 0.440058 -0.427517 -0.789670
vn -1.000000 0.000000 0.000000
vn -1.000000 0.000000 0.000000
vn -1.000000 0.000000 0.000000
vn -1.000000 0.000000 0.000000
vn -1.000000 -0.000000 0.000000
vn -1.000000 -0.000000 0.000000
vn -1.000000 -0.000000 0.000000
vn -1.000000 -0.000000 0.000000
vn 0.409402 -0.333164 0.849348
vn 0.409402 -0.333164 0.849348
vn 0.409402 -0.333164 0.849348
vn 0.409402 -0.333164 0.849348
vn 0.445012 0.349719 0.824416
vn 0.445012 0.349719 0.824416
vn 0.445012 0.349719 0.824416
vn 0.445012 0.349719 0.824416
vn 1.000000 0.000000 0.000000
vn 1.000000 0.000000 0.000000
vn 1.000000 0.000000 0.000000
vn 1.000000 0.000000 0.000000
vn -1.000000 0.000000 0.000000
vn -1.000000 0.000000 0.000000
vn -1.000000 0.000000 0.000000
vn 1.000000 0.000000 0.000000
vn 1.000000 0.000000 0.000000
vn 1.000000 0.000000 0.000000
vn 0.470876 -0.849901 -0.236525
vn 0.470876 -0.849901 -0.236525
vn 0.470876 -0.849901 -0.236525
vn 0.470876 -0.849901 -0.236525
vn -1.000000 0.000000 0.000000
vn -1.000000 0.000000 0.000000
vn -1.000000 0.000000 0.000000
vn 0.476646 -0.857797 0.192335
vn 0.476646 -0.857797 0.192335
vn 0.476646 -0.857797 0.192335
vn 0.476646 -0.857797 0.192335
vn 1.000000 0.000000 0.000000
vn 1.000000 0.000000 0.000000
vn 1.000000 0.000000 0.000000
vn -0.470877 -0.849900 -0.236527
vn -0.470877 -0.849900 -0.236527
vn -0.470877 -0.849900 -0.236527
vn -0.470877 -0.849900 -0.236527
vn -0.440060 -0.427516 -0.789669
vn -0.440060 -0.427516 -0.789669
vn -0.440060 -0.427516 -0.789669
vn -0.440060 -0.427516 -0.789669
vn -0.476646 -0.857797 0.192335
vn -0.476646 -0.857797 0.192335
vn -0.476646 -0.857797 0.192335
vn -0.476646 -0.857797 0.192335
vn -0.409402 -0.333164 0.849348
vn -0.409402 -0.333164 0.849348
vn -0.409402 -0.333164 0.849348
vn -0.409402 -0.333164 0.849348
vn -0.460350 0.331526 -0.823510
vn -0.460350 0.331526 -0.823510
vn -0.460350 0.331526 -0.823510
vn -0.460350 0.331526 -0.823510
vn -0.445011 0.349719 0.824416
vn -0.445011 0.349719 0.824416
vn -0.445011 0.349719 0.824416
vn -0.445011 0.349719 0.824416
vn 0.447716 0.853234 -0.267473
vn 0.447716 0.853234 -0.267473
vn 0.000000 0.954213 -0.299127
vn 0.000000 0.954213 -0.299127
vn -0.000000 0.950637 0.310306
vn 0.000000 0.950637 0.310306
vn 0.388336 0.876029 0.285952
vn 0.388336 0.876029 0.285952
vn 0.000000 0.954213 -0.299127
vn 0.000000 0.954213 -0.299127
vn -0.447717 0.853234 -0.267472
vn -0.447717 0.853234 -0.267472
vn -0.388336 0.876029 0.285952
vn -0.388336 0.876029 0.285952
vn 0.000000 0.950637 0.310306
vn -0.000000 0.950637 0.310306
vn -1.000000 0.000000 0.000000
vn -1.000000 0.000000 0.000000
vn -1.000000 0.000000 0.000000
vn -1.000000 0.000000 0.000000
vn -1.000000 0.000000 0.000000
vn -1.000000 0.000000 0.000000
vn 1.000000 0.000000 0.000000
vn 1.000000 0.000000 0.000000
vn 1.000000 0.000000 0.000000
vn 1.000000 0.000000 0.000000
vn 1.000000 0.000000 0.000000
vn 1.000000 0.000000 0.000000
vn -0.435755 -0.000000 -0.900065
vn -0.435755 -0.000000 -0.900065
vn -0.435755 -0.000000 -0.900065
vn -0.435755 -0.000000 -0.900065
vn -1.000000 0.000000 0.000000
vn -1.000000 0.000000 0.000000
vn -1.000000 0.000000 0.000000
vn -1.000000 0.000000 0.000000
vn -0.420418 0.000000 0.907331
vn -0.420418 0.000000 0.907331
vn -0.420418 0.000000 0.907331
vn -0.420418 0.000000 0.907331
vn 1.000000 0.000000 0.000000
vn 1.000000 0.000000 0.000000
vn 1.000000 0.000000 0.000000
vn 1.000000 0.000000 0.000000
vn -0.515685 0.000000 0.856778
vn -0.515685 0.000000 0.856778
vn -0.515685 0.000000 0.856778
vn -0.515685 0.000000 0.856778
vn 1.000000 0.000000 0.000000
vn 1.000000 0.000000 0.000000
vn 1.000000 0.000000 0.000000
vn 1.000000 0.000000 0.000000
vn -0.442891 -0.000000 -0.896575
vn -0.442891 -0.000000 -0.896575
vn -0.442891 -0.000000 -0.896575
vn -0.442891 -0.000000 -0.896575
vn -1.000000 0.000000 0.000000
vn -1.000000 0.000000 0.000000
vn -1.000000 0.000000 0.000000
vn -1.000000 0.000000 0.000000
vn 0.442890 0.000000 -0.896576
vn 0.442890 0.000000 -0.896576
vn 0.442890 0.000000 -0.896576
vn 0.442890 0.000000 -0.896576
vn 0.420418 0.000000 0.907331
vn 0.420418 0.000000 0.907331
vn 0.420418 0.000000 0.907331
vn 0.420418 0.000000 0.907331
vn 0.435754 0.000000 -0.900066
vn 0.435754 0.000000 -0.900066
vn 0.435754 0.000000 -0.900066
vn 0.435754 0.000000 -0.900066
vn 0.515687 -0.000000 0.856777
vn 0.515687 -0.000000 0.856777
vn 0.515687 -0.000000 0.856777
vn 0.515687 -0.000000 0.856777
vn 0.000000 -1.000000 0.000000
vn -0.103652 -0.994614 0.000000
vn -0.103652 -0.994614 0.000000
vn -0.000000 -1.000000 0.000000
vn 0.000000 -1.000000 0.000000
vn -0.000000 -1.000000 0.000000
vn 0.103652 -0.994614 0.000000
vn 0.103652 -0.994614 0.000000
vn 0.000000 -1.000000 -0.000000
vn 0.000000 -1.000000 -0.000000
vn 0.000000 -1.000000 0.000000
vn 0.000000 -1.000000 0.000000
vn 0.000000 -1.000000 -0.000000
vn 0.000000 -1.000000 -0.000000
vn 0.000000 -1.000000 -0.000000
vn 0.000000 -1.000000 -0.000000
s off
f 54/86/183 46/74/184 71/73/185 72/85/186
f 48/78/187 46/74/188 54/86/189 56/90/190
f 59/93/191 51/81/192 67/82/193 65/94/194
f 52/84/195 50/83/196 58/95/197 60/96/198
f 47/75/199 55/87/200 53/88/201 45/76/202
f 48/78/203 56/90/204 69/89/205 68/77/206
f 49/80/207 57/92/208 73/91/209 74/79/210
f 59/93/211 57/92/212 49/80/213 51/81/214
f 53/88/215 55/87/216 63/106/217
f 62/102/218 59/93/219 61/98/220
f 59/93/221 65/94/222 66/97/223 61/98/224
f 63/99/225 60/96/226 58/95/227
f 66/103/228 69/89/229 56/90/230 61/98/231
f 62/104/232 61/98/233 56/90/234
f 66/97/235 65/94/236 60/96/237 64/100/238
f 67/82/239 52/84/240 60/96/241 65/94/242
f 55/87/243 69/89/244 66/103/245 64/100/246
f 68/77/247 69/89/248 55/87/249 47/75/250
f 71/73/251 45/76/252 53/88/253 72/85/254
f 73/91/255 58/95/256 50/83/257 74/79/258
f 62/104/259 54/86/260 72/85/261 70/105/262
f 70/101/263 73/91/264 57/92/265 62/102/266
f 70/105/267 72/85/268 53/88/269 63/106/270
f 63/99/271 58/95/272 73/91/273 70/101/274
f 63/106/275 55/87/276 64/100/277
f 63/99/278 64/100/279 60/96/280
f 62/104/281 56/90/282 54/86/283
f 57/92/284 59/93/285 62/102/286
f 45/107/287 71/108/288 76/109/289 75/110/290
f 47/111/291 45/112/292 75/113/293 77/114/294
f 68/115/295 47/116/296 77/117/297 78/118/298
f 46/119/299 48/120/300 80/121/301 79/122/302
f 74/123/303 50/124/304 81/125/305 82/126/306
f 51/127/307 49/128/308 83/129/309 84/130/310
f 52/131/311 67/132/312 86/133/313 85/134/314
f 50/135/315 52/136/316 85/137/317 81/138/318
f 67/139/319 51/140/320 84/141/321 86/142/322
f 48/143/323 68/144/324 78/145/325 80/146/326
f 71/147/327 46/148/328 79/149/329 76/150/330
f 49/151/331 74/152/332 82/153/333 83/154/334
f 82/126/335 81/138/336 85/134/337 86/142/338
f 82/126/339 86/142/340 84/130/341 83/154/342
f 76/150/343 78/118/344 77/114/345 75/110/346
f 76/150/347 79/122/348 80/146/349 78/118/350
