# This file uses meters as units for non-parametric coordinates.

v -74.965546 0.000016 8.217102
v 74.965576 0.000016 8.217163
v -71.753052 211.569504 8.217102
v 74.965576 211.569489 8.217163
v -74.965546 211.569489 -8.217224
v 71.996582 211.569489 -8.217224
v -74.965546 0.000000 -8.217224
v 74.965576 0.000000 -8.217224
v -67.684448 211.569504 -8.217224
v -67.684448 211.569504 8.217102
v 67.806824 211.569489 8.217163
v 67.806824 211.569489 -8.217224
v -67.684448 19.272924 8.217102
v 67.806824 19.272972 8.217163
v 67.806824 19.272923 -8.217224
v -67.684448 19.272974 -8.217224
v -67.684448 207.067245 4.910339
v -67.684448 19.272924 4.910339
v 67.806824 19.272972 4.910400
v 67.806824 207.067230 4.910400
v -67.684448 207.067245 -4.910583
v 67.806824 207.067230 -4.910522
v 67.806824 19.272923 -4.910522
v -67.684448 19.272974 -4.910583
v 7.127197 207.067245 4.910400
v 53.254395 207.067230 4.910400
v 23.680725 207.067230 1.203003
v 43.531036 207.067230 1.860413
v 30.485352 201.692719 4.910400
v -58.827301 207.067230 -4.910583
v -14.717926 207.067245 -4.910522
v -34.514740 207.067245 -1.924133
v -34.274872 201.864044 -4.910583
v -74.965546 211.569473 -2.287048
v -74.965546 208.003418 8.217102
v 74.965576 211.569489 -4.122437
v 74.965576 205.010635 -8.217224
v 67.806824 50.566940 -4.910522
v -67.684418 50.143551 -4.910583
v 56.454102 46.361881 -4.910522
v 48.525452 34.812084 -4.910522
v 36.674988 37.181511 -4.910522
v 8.937225 37.891766 -4.910522
v -15.227753 31.334475 -4.910583
v -40.080292 42.390217 -4.910583
v -56.000580 41.337193 -4.910583
v -61.333344 47.928799 -4.910583
v -67.684448 60.530624 4.910339
v 67.806824 55.071388 4.910400
v -52.124023 46.308514 4.910400
v -32.916534 44.815044 4.910339
v -26.183929 35.990009 4.910339
v 0.143585 35.359993 4.910339
v 18.365906 42.510403 4.910400
v 49.469360 36.021099 4.910400
v -71.815002 108.798119 -8.217224
v -67.684448 121.019226 8.217102
v 67.806824 121.637917 -8.217224
v -74.965546 109.760803 8.217102
v 67.806824 121.940613 8.217163
v 72.234680 121.970726 8.217163
v -67.684448 109.525131 -8.217224
v -67.684448 120.958336 4.910339
v 67.806824 121.698822 -4.910522
v 74.965576 121.686600 -8.217224
v -67.684448 120.777443 -4.910583
v 67.806824 105.191467 4.910400
v 0.061188 121.419014 4.910400
v 0.061188 19.272949 4.910400
v 0.061188 19.272949 -4.910522
v 0.061188 121.238136 -4.910522
v 74.965576 139.111389 8.217163
v 74.965576 97.855186 8.217163
v 74.965576 121.893204 2.999573
v -74.965546 134.918701 -8.217224
v -74.965546 108.924095 -0.214722
v -74.965546 98.091026 -8.217224
v -67.684448 175.029190 4.910339
v -60.939972 106.364876 4.910400
v -67.684448 84.586128 4.910278
v -61.689514 153.683075 4.910339
v 67.806824 183.781921 4.910400
v 61.989990 142.134872 4.910400
v 67.806824 164.356827 -4.910522
v 63.666199 121.670670 -4.910522
v 67.806824 75.089943 -4.910522
v 63.659729 151.034912 -4.910522
v 57.504059 101.091309 -4.910522
v -67.684448 164.342499 -4.910583
v -61.599915 120.818817 -4.910583
v -67.684448 82.591141 -4.910583
vt 0.037036 0.278883
vt 0.037036 0.278883
vt 0.037036 0.278883
vt 0.037036 0.278883
vt 0.037036 0.278883
vt 0.037036 0.278883
vt 0.037036 0.278883
vt 0.037036 0.278883
vt 0.037036 0.278883
vt 0.037036 0.278883
vt 0.037036 0.278883
vt 0.037036 0.278883
vt 0.037036 0.278883
vt 0.037036 0.278883
vt 0.037036 0.278883
vt 0.037036 0.278883
vt 0.037036 0.278883
vt 0.037036 0.278883
vt 0.037036 0.278883
vt 0.037036 0.278883
vt 0.037036 0.278883
vt 0.037036 0.278883
vt 0.037036 0.278883
vt 0.037036 0.278883
vt 0.037036 0.278883
vt 0.037036 0.278883
vt 0.037036 0.278883
vt 0.037036 0.278883
vt 0.037036 0.278883
vt 0.037036 0.278883
vt 0.037048 0.355194
vt 0.037750 0.327831
vt 0.037750 0.327831
vt 0.037033 0.355194
vt 0.037048 0.355194
vt 0.037033 0.355194
vt 0.037750 0.327831
vt 0.037750 0.327831
vt 0.037040 0.355194
vt 0.037035 0.355194
vt 0.037038 0.355194
vt 0.037036 0.355194
vt 0.037037 0.355194
vt 0.037047 0.355194
vt 0.037042 0.355194
vt 0.037045 0.355194
vt 0.037045 0.355194
vt 0.037036 0.278883
vt 0.037036 0.278883
vt 0.037036 0.278883
vt 0.037036 0.278883
vt 0.037036 0.278883
vt 0.037036 0.278883
vt 0.037036 0.278883
vt 0.037033 0.355186
vt 0.037036 0.278883
vt 0.037048 0.355185
vt 0.037036 0.278883
vt 0.037034 0.355185
vt 0.037035 0.355185
vt 0.037037 0.355185
vt 0.037040 0.355185
vt 0.037043 0.355185
vt 0.037045 0.355185
vt 0.037047 0.355185
vt 0.037048 0.355185
vt 0.037048 0.355186
vt 0.037036 0.278883
vt 0.037033 0.355186
vt 0.037036 0.278883
vt 0.037047 0.355185
vt 0.037044 0.355185
vt 0.037043 0.355185
vt 0.037042 0.355185
vt 0.037039 0.355185
vt 0.037035 0.355185
vt 0.037036 0.278883
vt 0.037036 0.278883
vt 0.037036 0.278883
vt 0.037036 0.278883
vt 0.037036 0.278883
vt 0.037036 0.278883
vt 0.037036 0.278883
vt 0.037036 0.278883
vt 0.037750 0.328552
vt 0.037036 0.278883
vt 0.037033 0.328556
vt 0.037036 0.278883
vt 0.037036 0.278883
vt 0.037036 0.278883
vt 0.037048 0.328556
vt 0.037036 0.278883
vt 0.037033 0.355190
vt 0.037036 0.278883
vt 0.037041 0.355190
vt 0.037750 0.327831
vt 0.037036 0.278883
vt 0.037750 0.327831
vt 0.037036 0.278883
vt 0.037041 0.355190
vt 0.037750 0.327831
vt 0.037750 0.327831
vt 0.037750 0.327831
vt 0.037750 0.327831
vt 0.037750 0.327831
vt 0.037750 0.327831
vt 0.037750 0.327831
vt 0.037750 0.327831
vt 0.037750 0.327831
vt 0.037750 0.327831
vt 0.037750 0.327831
vt 0.037750 0.327831
vt 0.037750 0.327831
vt 0.037750 0.327831
vt 0.037750 0.327831
vt 0.037750 0.327831
vt 0.037750 0.327831
vt 0.037750 0.327831
vt 0.037036 0.278883
vt 0.037036 0.278883
vt 0.037036 0.278883
vt 0.037036 0.278883
vt 0.037036 0.278883
vt 0.037036 0.278883
vt 0.037036 0.278883
vt 0.037036 0.278883
vt 0.037048 0.355192
vt 0.037036 0.278883
vt 0.037047 0.355190
vt 0.037048 0.355189
vt 0.037036 0.278883
vt 0.037048 0.355190
vt 0.037033 0.355192
vt 0.037036 0.278883
vt 0.037034 0.355191
vt 0.037750 0.328552
vt 0.037750 0.328552
vt 0.037750 0.328552
vt 0.037750 0.328552
vt 0.037750 0.328552
vt 0.037750 0.328552
vt 0.037750 0.328552
vt 0.037033 0.328558
vt 0.037036 0.278883
vt 0.037034 0.328556
vt 0.037033 0.355187
vt 0.037036 0.278883
vt 0.037034 0.328557
vt 0.037034 0.355189
vt 0.037048 0.355192
vt 0.037036 0.278883
vt 0.037048 0.355190
vt 0.037048 0.328554
vt 0.037036 0.278883
vt 0.037048 0.328556
vt 0.037048 0.328556
vt 0.037048 0.355188
vt 0.037048 0.328558
vt 0.037048 0.328556
vt 0.037034 0.328554
vt 0.037033 0.328553
vt 0.037034 0.328556
vt 0.037034 0.355190
vt 0.037034 0.355191
vt 0.037033 0.355192
vt 0.037033 0.328556
vn 0.000000 0.000000 1.000000
vn 0.000000 0.000000 1.000000
vn 0.000000 0.000000 1.000000
vn 0.000000 1.000000 -0.000006
vn 0.000000 1.000000 -0.000006
vn 0.000000 1.000000 -0.000006
vn 0.000000 1.000000 -0.000006
vn -0.000000 0.000000 -1.000000
vn -0.000000 0.000000 -1.000000
vn 0.000000 0.000000 -1.000000
vn -0.000000 -1.000000 0.000001
vn -0.000000 -1.000000 0.000001
vn -0.000000 -1.000000 0.000001
vn -0.000000 -1.000000 0.000001
vn 0.882157 0.099898 0.460238
vn 0.882157 0.099898 0.460238
vn 0.882157 0.099898 0.460238
vn -1.000000 -0.000000 0.000000
vn -1.000000 -0.000000 0.000000
vn -1.000000 -0.000000 0.000000
vn -1.000000 -0.000000 0.000000
vn -1.000000 -0.000000 0.000000
vn -0.000000 0.000000 1.000000
vn -0.000000 0.000000 1.000000
vn -0.000000 0.000000 1.000000
vn -0.000000 0.000000 1.000000
vn 0.000000 0.000000 -1.000000
vn 0.000000 0.000000 -1.000000
vn 0.000000 0.000000 -1.000000
vn 0.000000 0.000000 -1.000000
vn 0.000000 0.000000 -1.000000
vn 0.000000 1.000000 0.000000
vn 0.000000 1.000000 0.000000
vn 0.000000 1.000000 0.000000
vn 0.000000 1.000000 0.000000
vn 0.000000 1.000000 0.000000
vn -0.000000 0.000000 -1.000000
vn -0.000000 0.000000 -1.000000
vn -0.000000 0.000000 -1.000000
vn -0.000000 0.000000 -1.000000
vn -0.000000 0.000000 1.000000
vn -0.000000 0.000000 1.000000
vn -0.000000 0.000000 1.000000
vn -0.000000 0.000000 1.000000
vn 0.000000 0.000000 -1.000000
vn 0.000000 0.000000 -1.000000
vn 0.000000 0.000000 -1.000000
vn 0.000000 0.000000 -1.000000
vn 1.000000 0.000000 0.000000
vn 1.000000 0.000000 0.000000
vn 1.000000 0.000000 0.000000
vn -0.000000 1.000000 0.000000
vn -0.000000 1.000000 0.000000
vn -0.000000 1.000000 0.000000
vn -1.000000 0.000000 0.000000
vn -1.000000 0.000000 0.000000
vn -1.000000 0.000000 0.000000
vn -1.000000 0.000000 0.000000
vn 1.000000 -0.000001 0.000000
vn 1.000000 -0.000001 0.000000
vn 1.000000 -0.000001 0.000000
vn 1.000000 -0.000001 0.000000
vn -1.000000 0.000001 0.000000
vn -1.000000 0.000001 0.000000
vn -1.000000 0.000001 0.000000
vn -1.000000 0.000001 0.000000
vn 0.000000 1.000000 0.000000
vn 0.000000 1.000000 0.000000
vn 0.000000 1.000000 0.000000
vn 1.000000 0.000000 -0.000004
vn 1.000000 0.000000 -0.000004
vn 1.000000 0.000000 -0.000004
vn 1.000000 0.000000 -0.000004
vn 1.000000 0.000000 -0.000004
vn -1.000000 0.000000 0.000000
vn -1.000000 0.000000 0.000000
vn -1.000000 0.000000 0.000000
vn -1.000000 0.000000 0.000000
vn -1.000000 0.000000 0.000000
vn -0.027784 0.543525 0.838933
vn -0.027784 0.543525 0.838933
vn -0.027784 0.543525 0.838933
vn 0.158462 0.688690 0.707528
vn 0.158462 0.688690 0.707528
vn 0.158462 0.688690 0.707528
vn -0.185341 0.785195 0.590862
vn -0.185341 0.785195 0.590862
vn -0.185341 0.785195 0.590862
vn -0.130109 0.489042 -0.862502
vn -0.130109 0.489042 -0.862502
vn -0.130109 0.489042 -0.862502
vn 0.105679 0.498669 -0.860326
vn 0.105679 0.498669 -0.860326
vn 0.105679 0.498669 -0.860326
vn -0.724513 0.652675 0.221577
vn -0.724513 0.652675 0.221577
vn -0.724513 0.652675 0.221577
vn -0.000003 1.000000 -0.000001
vn -0.000003 1.000000 -0.000001
vn -0.000003 1.000000 -0.000001
vn -0.000003 1.000000 -0.000001
vn -0.000003 1.000000 -0.000001
vn 0.760148 0.344096 -0.551156
vn 0.760148 0.344096 -0.551156
vn 0.760148 0.344096 -0.551156
vn 0.000000 1.000000 0.000000
vn 0.000000 1.000000 0.000000
vn 0.000000 1.000000 0.000000
vn 0.000000 1.000000 0.000000
vn 0.000000 1.000000 0.000000
vn 0.000000 1.000000 0.000000
vn 0.000000 1.000000 0.000000
vn 0.000000 1.000000 0.000000
vn 0.000000 1.000000 0.000002
vn 0.000000 1.000000 0.000002
vn 0.000000 1.000000 0.000002
vn 0.000000 1.000000 0.000002
vn 0.000000 1.000000 0.000004
vn 0.000000 1.000000 0.000004
vn 0.000000 1.000000 0.000004
vn -1.000000 0.000000 0.000000
vn -1.000000 0.000000 0.000000
vn -1.000000 0.000000 0.000000
vn 0.000001 -0.000000 -1.000000
vn 0.000001 -0.000000 -1.000000
vn 0.000001 -0.000000 -1.000000
vn 0.000001 -0.000000 -1.000000
vn 0.000001 -0.000000 -1.000000
vn 1.000000 -0.000001 0.000000
vn 1.000000 -0.000001 0.000000
vn 1.000000 -0.000001 0.000000
vn -0.000005 0.000004 1.000000
vn -0.000005 0.000004 1.000000
vn -0.000005 0.000004 1.000000
vn -1.000000 0.000000 0.000000
vn -1.000000 0.000000 0.000000
vn -1.000000 0.000000 0.000000
vn 1.000000 0.000000 0.000000
vn 1.000000 0.000000 0.000000
vn 1.000000 0.000000 0.000000
vn 1.000000 0.000000 0.000000
vn 1.000000 0.000000 0.000000
vn -0.000001 -0.000003 1.000000
vn -0.000001 -0.000003 1.000000
vn -0.000001 -0.000003 1.000000
vn -0.000001 -0.000003 1.000000
vn 0.000000 0.000000 -1.000000
vn 0.000000 0.000000 -1.000000
vn 0.000000 0.000000 -1.000000
vn 0.000000 0.000000 -1.000000
vn 0.000000 0.000000 -1.000000
vn 0.000000 0.000000 -1.000000
vn 0.000000 0.000000 -1.000000
vn 0.876446 -0.139638 0.460808
vn 0.876446 -0.139638 0.460808
vn 0.876446 -0.139638 0.460808
vn -1.000000 0.000000 0.000000
vn -1.000000 0.000000 0.000000
vn -1.000000 0.000000 0.000000
vn -1.000000 0.000000 0.000000
vn -1.000000 0.000000 0.000000
vn -1.000000 0.000000 0.000000
vn 0.000000 0.000000 1.000000
vn 0.000000 0.000000 1.000000
vn 0.000000 0.000000 1.000000
vn 0.000000 0.000000 1.000000
vn 0.000000 0.000000 1.000000
vn 0.000000 0.000000 -1.000000
vn 0.000000 0.000000 -1.000000
vn 0.000000 0.000000 -1.000000
vn 0.000000 0.000000 -1.000000
vn 0.000000 0.000000 -1.000000
vn 0.000000 0.000000 -1.000000
vn 0.000000 0.000000 -1.000000
vn 0.000000 0.000000 -1.000000
vn 0.000000 0.000000 -1.000000
vn 0.000000 0.000000 -1.000000
vn -1.000000 0.000000 0.000000
vn -1.000000 0.000000 0.000000
vn -1.000000 0.000000 0.000000
vn -1.000000 0.000000 0.000000
vn -1.000000 0.000000 0.000000
vn 1.000000 0.000000 0.000000
vn 1.000000 0.000000 0.000000
vn 1.000000 0.000000 0.000000
vn 1.000000 0.000000 0.000000
vn 1.000000 0.000000 0.000000
vn -1.000000 0.000000 0.000000
vn -1.000000 0.000000 0.000000
vn -1.000000 0.000000 0.000000
vn -1.000000 0.000000 0.000000
vn -1.000000 0.000000 0.000000
vn 1.000000 0.000000 0.000000
vn 1.000000 0.000000 0.000000
vn 1.000000 0.000000 0.000000
vn 1.000000 0.000000 0.000000
vn 1.000000 0.000000 0.000000
vn -0.000001 -0.000000 1.000000
vn -0.000001 -0.000000 1.000000
vn -0.000001 0.000000 1.000000
vn -0.000001 0.000000 1.000000
vn 0.000000 0.000000 1.000000
vn 0.000000 0.000000 1.000000
vn 0.000000 0.000000 1.000000
vn 0.000000 0.000000 1.000000
vn -0.000001 -0.000000 1.000000
vn -0.000001 -0.000000 1.000000
vn -0.000001 -0.000000 1.000000
vn -0.000002 -0.000000 1.000000
vn -0.000002 -0.000000 1.000000
vn -0.000002 -0.000000 1.000000
vn -0.000002 -0.000000 1.000000
vn -0.000002 -0.000000 1.000000
vn 0.000003 -0.000002 1.000000
vn 0.000003 -0.000002 1.000000
vn 0.000003 -0.000002 1.000000
vn -0.000000 0.000000 1.000000
vn -0.000000 0.000000 1.000000
vn -0.000000 0.000000 1.000000
vn -0.000000 1.000000 0.000000
vn -0.000000 1.000000 0.000000
vn -0.000000 1.000000 0.000000
vn -0.000000 1.000000 0.000000
vn -0.000000 1.000000 0.000000
vn -0.000000 1.000000 0.000000
vn -0.000001 0.000003 1.000000
vn -0.000001 0.000003 1.000000
vn -0.000001 0.000003 1.000000
vn -0.000001 0.000003 1.000000
vn 0.000000 0.000000 1.000000
vn 0.000000 0.000000 1.000000
vn 0.000000 0.000000 1.000000
vn -0.000004 0.000000 1.000000
vn -0.000004 0.000000 1.000000
vn -0.000004 0.000000 1.000000
vn 0.000003 0.000003 1.000000
vn 0.000003 0.000003 1.000000
vn 0.000003 0.000003 1.000000
vn 0.000001 -0.000003 1.000000
vn 0.000001 -0.000003 1.000000
vn 0.000001 -0.000003 1.000000
vn 0.000000 0.000000 1.000000
vn 0.000000 0.000000 1.000000
vn 0.000000 0.000000 1.000000
vn -0.000000 0.000000 1.000000
vn -0.000000 0.000000 1.000000
vn -0.000000 0.000000 1.000000
vn 0.000000 1.000000 0.000000
vn 0.000000 1.000000 0.000000
vn 0.000000 1.000000 0.000000
vn 0.000000 1.000000 0.000001
vn 0.000000 1.000000 0.000001
vn 0.000000 1.000000 0.000001
vn 0.000000 0.000000 -1.000000
vn 0.000000 0.000000 -1.000000
vn 0.000000 0.000000 -1.000000
vn 0.000000 0.000000 -1.000000
vn 0.000000 0.000000 -1.000000
vn 0.000000 0.000000 -1.000000
vn 0.000000 0.000000 -1.000000
vn -0.000000 0.000000 -1.000000
vn -0.000000 0.000000 -1.000000
vn -0.000000 0.000000 -1.000000
vn -0.000000 0.000000 -1.000000
vn 0.000001 -0.000004 -1.000000
vn 0.000001 -0.000004 -1.000000
vn 0.000001 -0.000004 -1.000000
vn -0.000000 0.000000 -1.000000
vn -0.000000 0.000000 -1.000000
vn -0.000000 0.000000 -1.000000
vn -0.000000 0.000000 -1.000000
vn 0.000001 0.000000 -1.000000
vn 0.000001 0.000000 -1.000000
vn 0.000000 0.000000 -1.000000
vn 0.000000 0.000000 -1.000000
vn 0.000000 0.000000 -1.000000
vn 0.000000 0.000000 -1.000000
vn 0.000000 0.000001 -1.000000
vn 0.000000 0.000001 -1.000000
vn 0.000000 0.000001 -1.000000
vn 0.000002 0.000000 -1.000000
vn 0.000002 0.000000 -1.000000
vn 0.000002 0.000000 -1.000000
vn 0.000000 0.000001 -1.000000
vn 0.000000 0.000001 -1.000000
vn 0.000000 0.000001 -1.000000
vn 0.000000 0.000000 -1.000000
vn 0.000000 0.000000 -1.000000
vn 0.000000 0.000000 -1.000000
vn -0.000000 0.000000 -1.000000
vn -0.000000 0.000000 -1.000000
vn -0.000000 0.000000 -1.000000
vn 0.000000 0.000000 -1.000000
vn 0.000000 0.000000 -1.000000
vn 0.000000 0.000000 -1.000000
vn 0.000001 -0.000000 -1.000000
vn 0.000001 -0.000000 -1.000000
vn 0.000000 0.000000 -1.000000
vn 0.000000 0.000000 1.000000
vn 0.000000 0.000000 1.000000
vn 0.000000 0.000000 1.000000
vn 0.000000 0.000000 1.000000
vn 0.000000 0.000000 1.000000
vn -0.000000 0.000000 1.000000
vn -0.000000 0.000000 1.000000
vn -0.000000 0.000000 1.000000
vn -0.000000 0.000000 1.000000
vn -0.000000 0.000000 1.000000
vn 1.000000 -0.000000 0.000000
vn 1.000000 -0.000000 0.000000
vn 1.000000 -0.000000 0.000000
vn 1.000000 -0.000000 0.000000
vn 1.000000 -0.000000 0.000000
vn 1.000000 0.000000 0.000000
vn 1.000000 0.000000 0.000000
vn 1.000000 0.000000 0.000000
vn 1.000000 0.000000 0.000000
vn 1.000000 0.000000 0.000000
vn 1.000000 0.000000 0.000000
vn -0.925271 -0.111602 -0.362518
vn -0.925271 -0.111602 -0.362518
vn -0.925271 -0.111602 -0.362517
vn -0.896133 0.263686 -0.356954
vn -0.896133 0.263686 -0.356954
vn -0.896133 0.263686 -0.356954
vn -0.000006 0.000001 1.000000
vn -0.000001 0.000000 1.000000
vn -0.000001 -0.000000 1.000000
vn -0.000002 -0.000000 1.000000
vn -0.000002 -0.000000 1.000000
vn -0.000013 -0.000002 1.000000
vn -0.000001 0.000000 1.000000
vn -0.000001 0.000000 1.000000
vn -0.000006 0.000001 1.000000
vn -0.000001 0.000000 1.000000
vn -0.000001 0.000000 1.000000
vn -0.000001 0.000000 1.000000
vn -0.000001 0.000000 1.000000
vn -0.000001 0.000000 1.000000
vn 0.000000 0.000000 1.000000
vn 0.000000 0.000000 1.000000
vn 0.000000 0.000000 1.000000
vn 0.000000 0.000000 1.000000
vn 0.000000 0.000000 1.000000
vn 0.000000 0.000000 1.000000
vn 0.000000 0.000000 1.000000
vn 0.000000 0.000000 1.000000
vn 0.000000 0.000000 1.000000
vn 0.000000 0.000000 1.000000
vn 0.000000 0.000000 1.000000
vn 0.000000 0.000000 -1.000000
vn 0.000000 0.000000 -1.000000
vn 0.000000 0.000000 -1.000000
vn 0.000000 0.000000 -1.000000
vn -0.000000 0.000000 -1.000000
vn -0.000000 0.000000 -1.000000
vn 0.000000 0.000000 -1.000000
vn 0.000000 0.000000 -1.000000
vn -0.000000 0.000000 -1.000000
vn -0.000000 0.000000 -1.000000
vn -0.000000 0.000000 -1.000000
vn -0.000000 0.000000 -1.000000
vn -0.000000 0.000000 -1.000000
vn 0.000001 -0.000000 -1.000000
vn 0.000001 -0.000000 -1.000000
vn 0.000001 -0.000000 -1.000000
vn 0.000001 -0.000000 -1.000000
vn 0.000001 -0.000000 -1.000000
vn 0.000001 -0.000000 -1.000000
vn 0.000001 0.000000 -1.000000
vn 0.000001 0.000000 -1.000000
vn 0.000001 0.000000 -1.000000
vn 0.000001 0.000000 -1.000000
vn 0.000001 0.000000 -1.000000
s off
f 29/43/1 68/95/2 83/135/3
f 21/35/4 17/31/5 32/46/6 30/44/7
f 88/149/8 71/100/9 85/163/10
f 1/9/11 7/7/12 8/8/13 2/10/14
f 73/120/15 74/121/16 61/83/17
f 7/13/18 1/1/19 59/81/20 76/124/21 77/125/22
f 1/1/23 13/19/24 57/79/25 59/81/26
f 5/5/27 9/15/28 62/84/29 56/78/30 75/123/31
f 12/18/32 11/17/33 4/4/34 36/51/35 6/6/36
f 8/8/37 15/21/38 58/80/39 65/89/40
f 14/20/41 13/19/42 1/1/43 2/2/44
f 7/7/45 16/22/46 15/21/47 8/8/48
f 48/68/49 13/19/50 18/24/51
f 13/19/52 69/97/53 18/24/54
f 14/20/55 60/82/56 67/94/57 49/70/58
f 9/15/59 10/16/60 17/23/61 21/27/62
f 11/17/63 12/18/64 22/28/65 20/26/66
f 15/21/67 70/99/68 23/29/69
f 16/22/70 62/84/71 66/92/72 91/154/73 39/58/74
f 12/18/75 58/80/76 64/88/77 84/144/78 22/28/79
f 29/43/80 28/42/81 27/41/82
f 29/43/83 27/41/84 25/39/85
f 26/40/86 28/42/87 29/43/88
f 31/45/89 33/47/90 32/46/91
f 32/46/92 33/47/93 30/44/94
f 34/48/95 35/50/96 3/3/97
f 34/49/98 3/3/99 10/16/100 9/15/101 5/5/102
f 36/52/103 37/54/104 6/12/105
f 31/45/106 27/41/107 28/42/108 22/36/109
f 32/46/110 17/31/111 25/39/112 27/41/113
f 22/36/114 28/42/115 26/40/116 20/34/117
f 32/46/118 27/41/119 31/45/120
f 38/56/121 15/21/122 23/29/123
f 41/32/124 70/33/125 44/37/126 43/38/127 42/96/128
f 16/22/129 39/58/130 24/30/131
f 69/98/132 54/101/133 53/102/134
f 14/20/135 49/70/136 19/25/137
f 10/16/138 57/79/139 63/86/140 78/128/141 17/23/142
f 54/75/143 51/72/144 52/73/145 53/74/146
f 84/165/147 87/164/148 85/163/149 71/100/150 33/47/151 31/45/152 22/36/153
f 61/83/154 74/121/155 72/119/156
f 75/122/157 76/124/158 59/81/159 35/50/160 34/48/161 5/14/162
f 59/81/163 57/79/164 10/16/165 3/3/166 35/50/167
f 77/126/168 56/78/169 62/84/170 16/22/171 7/7/172
f 65/89/173 58/80/174 12/18/175 6/6/176 37/53/177
f 67/94/178 60/82/179 11/17/180 20/26/181 82/134/182
f 66/92/183 62/84/184 9/15/185 21/27/186 89/151/187
f 64/88/188 58/80/189 15/21/190 38/56/191 86/147/192
f 63/86/193 57/79/194 13/19/195 48/68/196 80/131/197
f 17/31/198 78/127/199 81/132/200 25/39/201
f 67/93/202 68/95/203 55/76/204 49/69/205
f 54/75/206 68/95/207 51/72/208
f 50/71/209 68/95/210 79/129/211 80/130/212 48/67/213
f 51/72/214 68/95/215 50/71/216
f 55/76/217 68/95/218 54/75/219
f 69/97/220 14/20/221 19/25/222
f 13/19/223 14/20/224 69/97/225
f 69/98/226 53/102/227 52/103/228 18/104/229
f 55/105/230 54/101/231 19/109/232
f 18/104/233 50/106/234 48/107/235
f 50/106/236 52/103/237 51/108/238
f 18/104/239 52/103/240 50/106/241
f 19/109/242 54/101/243 69/98/244
f 49/110/245 55/105/246 19/109/247
f 70/99/248 16/22/249 24/30/250
f 15/21/251 16/22/252 70/99/253
f 23/111/254 70/33/255 41/32/256
f 46/112/257 45/113/258 44/37/259 24/114/260
f 46/112/261 24/114/262 39/115/263 47/116/264
f 44/37/265 70/33/266 24/114/267
f 23/111/268 41/32/269 40/117/270 38/118/271
f 90/156/272 91/153/273 66/91/274
f 71/100/275 40/59/276 42/61/277
f 71/100/278 45/64/279 47/66/280
f 71/100/281 43/62/282 44/63/283
f 71/100/284 44/63/285 45/64/286
f 71/100/287 42/61/288 43/62/289
f 42/61/290 40/59/291 41/60/292
f 47/66/293 45/64/294 46/65/295
f 89/158/296 90/155/297 66/159/298
f 11/17/299 60/82/300 61/83/301 72/119/302 4/4/303
f 73/120/304 61/83/305 60/82/306 14/20/307 2/2/308
f 2/2/309 8/11/310 65/90/311 74/121/312 73/120/313
f 72/119/314 74/121/315 65/90/316 37/54/317 36/52/318 4/4/319
f 56/77/320 76/124/321 75/122/322
f 77/125/323 76/124/324 56/77/325
f 63/85/326 81/136/327 78/137/328
f 80/138/329 79/139/330 63/85/331
f 79/139/332 81/136/333 63/85/334
f 25/39/335 81/132/336 79/129/337 68/95/338 29/43/339
f 82/140/340 83/141/341 67/142/342
f 83/135/343 68/95/344 67/93/345
f 29/43/346 83/135/347 82/133/348 20/34/349 26/40/350
f 64/166/351 85/162/352 87/148/353 84/143/354
f 86/161/355 88/160/356 85/145/357 64/87/358
f 38/55/359 40/59/360 71/100/361 88/149/362 86/146/363
f 33/47/364 71/100/365 90/152/366 89/150/367 21/35/368 30/44/369
f 71/100/370 47/66/371 39/57/372 91/157/373 90/152/374
