# This file uses meters as units for non-parametric coordinates.

v -0.748312 1.064674 -3.459473
v 0.748312 1.064674 -3.459473
v -0.746124 -1.064674 -3.375000
v 0.750500 -1.064674 -3.375000
v -1.069017 0.000000 -3.577637
v 1.069017 0.000000 -3.577637
v -0.722975 -1.065979 8.171875
v 0.722975 -1.065979 8.171875
v 1.070321 0.000000 8.171875
v -1.070321 0.000000 8.171875
v 0.722975 1.065979 8.171875
v -0.722975 1.065979 8.171875
v -0.722975 -1.065979 9.944336
v 0.722975 -1.065979 9.944336
v 1.070321 0.000000 10.988281
v -1.070321 0.000000 10.988281
v 0.722975 1.065979 10.988281
v -0.722975 1.065979 10.988281
v -0.846447 -3.204231 8.020508
v 0.846447 -3.204231 8.020508
v 0.846447 -3.204231 10.095703
v -0.846447 -3.204231 10.095703
v -0.723679 -3.689301 8.178711
v 0.723679 -3.689301 8.178711
v 0.723679 -3.689301 9.937988
v -0.723679 -3.689301 9.937988
v -0.722975 -1.065979 10.988281
v 0.722975 -1.065979 10.988281
v -0.641625 -0.946022 11.423828
v 0.641625 -0.946022 11.423828
v 0.949888 0.000000 11.423828
v -0.949888 0.000000 11.423828
v 0.641625 0.946045 11.423828
v -0.641625 0.946045 11.423828
v 0.007293 -1.064674 -2.901367
v -0.743674 -1.064674 -2.243652
v -1.069017 0.000000 -2.243652
v -0.745639 1.064674 -2.243652
v 0.745639 1.064674 -2.243652
v 1.069017 0.000000 -2.243652
v 0.747604 -1.064674 -2.243652
v -0.000000 1.064674 -3.183594
v -1.069017 1.064674 -3.577637
v 1.069017 1.064674 -3.577637
v -1.069017 -1.064674 -3.577637
v 1.069017 -1.064674 -3.577637
v 1.069017 -0.840683 -5.263184
v -1.069017 -0.840683 -5.263184
v 1.069017 0.807602 -5.263184
v -1.069017 0.807602 -5.263184
v -1.069017 -3.115990 -4.757324
v 1.069017 -3.115990 -4.757324
v -1.069017 -2.472900 -5.714355
v 1.069017 -2.472900 -5.714355
v 1.069017 3.063797 -4.761230
v -1.069017 3.063797 -4.761230
v 1.069017 2.420700 -5.718262
v -1.069017 2.420700 -5.718262
v -1.069017 -4.170944 -7.250000
v 1.069017 -4.170944 -7.250000
v -1.069017 -3.250824 -7.306152
v 1.069017 -3.250824 -7.306152
v 1.069017 4.028267 -7.272949
v -1.069017 4.028267 -7.272949
v 1.069017 3.195976 -7.192383
v -1.069017 3.195976 -7.192383
v -1.069017 -2.819412 -10.003906
v 1.069017 -2.819412 -10.003906
v -1.069017 -2.158119 -9.195313
v 1.069017 -2.158119 -9.195313
v 1.069017 2.674438 -10.085938
v -1.069017 2.674438 -10.085938
v 1.069017 1.991142 -9.315918
v -1.069017 1.991142 -9.315918
v 1.069017 -0.025642 -9.793945
v 1.069017 0.016945 -11.062012
v -1.069017 0.016945 -11.062012
v -1.069017 -0.025642 -9.793945
v -0.000000 1.864143 -8.959473
v -0.000000 -0.025642 -9.543945
v -0.000000 0.778122 -5.509277
v -0.000000 2.253120 -6.020508
v -0.000000 2.869858 -7.186523
v -0.000000 -2.865448 -7.317383
v -0.000000 -2.298882 -6.024414
v -0.000000 -0.928070 -5.512695
v -0.000000 -1.998970 -8.755859
v -0.000000 0.101448 -11.423828
v -0.000000 -3.432152 -4.341309
v -0.000000 -4.578438 -7.283203
v -0.000000 -3.158913 -10.350586
v -0.000000 2.966583 -10.410645
v -0.000000 4.509186 -7.328125
v -0.000000 3.360924 -4.463379
vt 0.027775 0.277018
vt 0.027775 0.277018
vt 0.027775 0.277018
vt 0.027775 0.277018
vt 0.027775 0.277018
vt 0.027775 0.277018
vt 0.027775 0.277018
vt 0.027775 0.277018
vt 0.027775 0.277018
vt 0.027775 0.277018
vt 0.027775 0.277018
vt 0.027775 0.277018
vt 0.027775 0.277018
vt 0.027775 0.277018
vt 0.027775 0.277018
vt 0.027775 0.277018
vt 0.027775 0.277018
vt 0.027775 0.277018
vt 0.027775 0.277018
vt 0.027775 0.277018
vt 0.027775 0.277018
vt 0.027775 0.277018
vt 0.027775 0.277018
vt 0.027775 0.277018
vt 0.027775 0.277018
vt 0.027775 0.277018
vt 0.027775 0.277018
vt 0.027775 0.277018
vt 0.027775 0.277018
vt 0.027775 0.277018
vt 0.027775 0.277018
vt 0.027775 0.277018
vt 0.027775 0.277018
vt 0.027775 0.277018
vt 0.027775 0.277018
vt 0.027775 0.277018
vt 0.027775 0.277018
vt 0.027775 0.277018
vt 0.027775 0.277018
vt 0.027775 0.277018
vt 0.027775 0.277018
vt 0.027775 0.277018
vt 0.027775 0.277018
vt 0.027775 0.277018
vt 0.027775 0.277018
vt 0.027775 0.277018
vt 0.027775 0.277018
vt 0.027775 0.277018
vt 0.027775 0.277018
vt 0.027775 0.277018
vt 0.027775 0.277018
vt 0.027775 0.277018
vt 0.027775 0.277018
vt 0.027775 0.277018
vt 0.027775 0.277018
vt 0.027775 0.277018
vt 0.027775 0.277018
vt 0.027775 0.277018
vt 0.027775 0.277018
vt 0.027775 0.277018
vt 0.027775 0.277018
vt 0.027775 0.277018
vt 0.027775 0.277018
vt 0.027775 0.277018
vt 0.027775 0.277018
vt 0.027775 0.277018
vt 0.027775 0.277018
vt 0.027775 0.277018
vt 0.027775 0.277018
vt 0.027775 0.277018
vt 0.027775 0.277018
vt 0.027775 0.277018
vt 0.027775 0.277018
vt 0.027775 0.277018
vt 0.027775 0.277018
vt 0.027775 0.277018
vt 0.027775 0.277018
vt 0.027775 0.277018
vt 0.027775 0.277018
vt 0.027775 0.277018
vt 0.027775 0.277018
vt 0.027775 0.277018
vt 0.027775 0.277018
vt 0.027775 0.277018
vt 0.027775 0.277018
vt 0.027775 0.277018
vt 0.027775 0.277018
vt 0.027775 0.277018
vt 0.027775 0.277018
vt 0.027775 0.277018
vt 0.027775 0.277018
vt 0.027775 0.277018
vt 0.027775 0.277018
vt 0.027775 0.277018
vt 0.027775 0.277018
vt 0.027775 0.277018
vt 0.027775 0.277018
vt 0.027775 0.277018
vt 0.027775 0.277018
vt 0.027775 0.277018
vt 0.027775 0.277018
vt 0.027775 0.277018
vt 0.027775 0.277018
vt 0.027775 0.277018
vt 0.027775 0.277018
vt 0.027775 0.277018
vt 0.027775 0.277018
vt 0.027775 0.277018
vt 0.027775 0.277018
vt 0.027775 0.277018
vt 0.027775 0.277018
vt 0.027775 0.277018
vn 0.000000 0.000000 1.000000
vn 0.000000 0.000000 1.000000
vn 0.000000 0.000000 1.000000
vn 0.000000 0.000000 1.000000
vn 0.000000 1.000000 -0.000119
vn 0.000000 1.000000 -0.000114
vn 0.000000 1.000000 -0.000119
vn 0.000000 1.000000 -0.000120
vn 0.000000 1.000000 -0.000120
vn 0.954493 -0.298233 0.001057
vn 0.954492 -0.298234 0.001057
vn 0.957716 -0.287714 0.001125
vn 0.957716 -0.287714 0.001125
vn -0.956677 -0.291150 0.000951
vn -0.953930 -0.300027 0.000878
vn -0.953931 -0.300026 0.000878
vn -0.956677 -0.291150 0.000951
vn -0.957186 0.289473 0.001003
vn -0.954222 0.299099 0.000964
vn -0.954221 0.299100 0.000964
vn -0.957186 0.289473 0.001003
vn 0.954221 0.299100 0.000964
vn 0.954222 0.299099 0.000964
vn 0.957186 0.289473 0.001003
vn 0.957186 0.289473 0.001003
vn 0.000000 0.000000 1.000000
vn 0.000000 0.000000 1.000000
vn 0.000000 0.000000 1.000000
vn 0.000000 0.000000 1.000000
vn 0.000000 -1.000000 -0.000121
vn 0.000000 -1.000000 -0.000121
vn 0.000000 -1.000000 -0.000120
vn 0.000000 -1.000000 -0.000117
vn 0.000000 -1.000000 -0.000120
vn 0.954105 -0.299470 0.001050
vn 0.954105 -0.299470 0.001050
vn 0.954492 -0.298234 0.001057
vn 0.954493 -0.298233 0.001057
vn 0.954221 0.299100 0.000964
vn 0.953853 0.300271 0.000959
vn 0.953854 0.300271 0.000959
vn 0.954222 0.299099 0.000964
vn -0.950797 0.309815 0.000000
vn -0.950797 0.309815 0.000000
vn -0.950797 0.309815 0.000000
vn -0.950797 0.309815 0.000000
vn -0.950797 -0.309815 0.000000
vn -0.950797 -0.309815 0.000000
vn -0.950797 -0.309815 0.000000
vn -0.950797 -0.309815 0.000000
vn 0.000000 -1.000000 0.000000
vn 0.000000 -1.000000 0.000000
vn 0.000000 -1.000000 0.000000
vn 0.000000 -1.000000 0.000000
vn 0.950797 -0.309815 0.000000
vn 0.950797 -0.309815 0.000000
vn 0.950797 -0.309815 0.000000
vn 0.950797 -0.309815 0.000000
vn 0.950797 0.309815 0.000000
vn 0.950797 0.309815 0.000000
vn 0.950797 0.309815 0.000000
vn 0.950797 0.309815 0.000000
vn 0.000000 1.000000 0.000000
vn 0.000000 1.000000 0.000000
vn 0.000000 1.000000 0.000000
vn 0.000000 1.000000 0.000000
vn 0.000000 0.070613 -0.997504
vn 0.000000 0.070613 -0.997504
vn 0.000000 0.070613 -0.997504
vn 0.000000 0.070613 -0.997504
vn 0.998337 0.057648 0.000000
vn 0.998337 0.057648 0.000000
vn 0.998337 0.057648 0.000000
vn 0.000000 0.070613 0.997504
vn 0.000000 0.070613 0.997504
vn 0.000000 0.070613 0.997504
vn 0.000000 0.070613 0.997504
vn 0.000000 -0.310071 -0.950714
vn 0.000000 -0.310071 -0.950714
vn 0.000000 -0.310071 -0.950714
vn 0.000000 -0.310071 -0.950714
vn 0.969433 -0.245357 0.000000
vn 0.969433 -0.245357 0.000000
vn 0.969433 -0.245357 0.000000
vn 0.969433 -0.245357 0.000000
vn 0.000000 -0.309205 0.950995
vn 0.000000 -0.309205 0.950995
vn 0.000000 -0.309205 0.950995
vn 0.000000 -0.309205 0.950995
vn -0.969433 -0.245357 0.000000
vn -0.969433 -0.245357 0.000000
vn -0.969433 -0.245357 0.000000
vn -0.969433 -0.245357 0.000000
vn 0.000000 -1.000000 0.000000
vn 0.000000 -1.000000 0.000000
vn 0.000000 -1.000000 0.000000
vn 0.000000 -1.000000 0.000000
vn 0.950797 -0.309815 0.000000
vn 0.950797 -0.309815 0.000000
vn 0.950797 -0.309815 0.000000
vn -0.950797 -0.309815 0.000000
vn -0.950797 -0.309815 0.000000
vn -0.950797 -0.309815 0.000000
vn 0.000000 -0.964103 0.265530
vn 0.000000 -0.964103 0.265530
vn 0.000000 -0.964103 0.265530
vn 0.000000 -0.964103 0.265530
vn 0.919547 -0.299634 0.254269
vn 0.919547 -0.299634 0.254269
vn 0.919547 -0.299634 0.254269
vn 0.919547 -0.299634 0.254269
vn -0.919547 -0.299634 0.254269
vn -0.919547 -0.299634 0.254269
vn -0.919547 -0.299634 0.254269
vn -0.919547 -0.299634 0.254269
vn 0.919550 0.299631 0.254261
vn 0.919550 0.299631 0.254261
vn 0.919550 0.299631 0.254261
vn 0.919550 0.299631 0.254261
vn 0.000000 0.964116 0.265483
vn 0.000000 0.964116 0.265483
vn 0.000000 0.964116 0.265483
vn 0.000000 0.964116 0.265483
vn -0.919550 0.299631 0.254261
vn -0.919550 0.299631 0.254261
vn -0.919550 0.299631 0.254261
vn -0.919550 0.299631 0.254261
vn -0.998337 0.057648 0.000000
vn -0.998337 0.057648 0.000000
vn -0.998337 0.057648 0.000000
vn 0.998337 0.057648 0.000000
vn 0.998337 0.057648 0.000000
vn 0.998337 0.057648 0.000000
vn -0.998337 0.057648 0.000000
vn -0.998337 0.057648 0.000000
vn -0.998337 0.057648 0.000000
vn -0.953931 -0.300026 0.000878
vn -0.953930 -0.300027 0.000878
vn -0.953601 -0.301071 0.000869
vn -0.953601 -0.301071 0.000869
vn -0.954221 0.299100 0.000964
vn -0.954222 0.299099 0.000964
vn -0.953854 0.300271 0.000959
vn -0.953853 0.300271 0.000959
vn 0.000000 1.000000 -0.000114
vn 0.000000 1.000000 -0.000119
vn 0.000000 1.000000 0.000000
vn 0.000000 1.000000 -0.000119
vn 0.000000 1.000000 -0.000114
vn 0.000000 1.000000 -0.000000
vn 0.000000 -1.000000 0.000000
vn 0.000000 -1.000000 -0.000117
vn 0.000000 -1.000000 -0.000120
vn 0.000000 -1.000000 -0.000120
vn 0.000000 -1.000000 -0.000117
vn 0.000000 -1.000000 -0.000000
vn -1.000000 0.000000 0.000000
vn -1.000000 0.000000 0.000000
vn -1.000000 0.000000 0.000000
vn 1.000000 0.000000 0.000000
vn 1.000000 0.000000 0.000000
vn 1.000000 0.000000 0.000000
vn 0.455448 -0.456037 0.764590
vn 0.457429 -0.454662 0.764226
vn 0.455003 -0.456345 0.764671
vn 0.455003 -0.456345 0.764671
vn -1.000000 0.000000 0.000000
vn -1.000000 0.000000 0.000000
vn -1.000000 0.000000 0.000000
vn -1.000000 0.000000 0.000000
vn 0.253080 0.295388 -0.921247
vn 0.253080 0.295389 -0.921247
vn 0.253080 0.295389 -0.921247
vn 0.253080 0.295389 -0.921247
vn 1.000000 0.000000 0.000000
vn 1.000000 0.000000 0.000000
vn 1.000000 0.000000 0.000000
vn 1.000000 0.000000 0.000000
vn 0.334264 0.467206 0.818527
vn 0.331603 0.468771 0.818714
vn 0.302224 0.485637 0.820254
vn 1.000000 -0.000000 0.000000
vn 1.000000 -0.000000 0.000000
vn 1.000000 -0.000000 0.000000
vn 1.000000 -0.000000 0.000000
vn 0.262725 -0.288144 -0.920841
vn 0.262725 -0.288144 -0.920841
vn 0.262725 -0.288144 -0.920841
vn 0.262725 -0.288144 -0.920841
vn -1.000000 -0.000000 0.000000
vn -1.000000 -0.000000 0.000000
vn -1.000000 -0.000000 0.000000
vn -1.000000 -0.000000 0.000000
vn 0.355976 -0.866142 0.350826
vn 0.355976 -0.866142 0.350826
vn 0.355976 -0.866142 0.350826
vn 0.355976 -0.866142 0.350826
vn -1.000000 0.000000 0.000000
vn -1.000000 0.000000 0.000000
vn -1.000000 0.000000 0.000000
vn -1.000000 0.000000 0.000000
vn 0.287901 0.868015 -0.404552
vn 0.287901 0.868015 -0.404552
vn 0.287901 0.868015 -0.404552
vn 0.287901 0.868015 -0.404552
vn 1.000000 0.000000 0.000000
vn 1.000000 0.000000 0.000000
vn 1.000000 0.000000 0.000000
vn 1.000000 0.000000 0.000000
vn 0.355387 0.869961 0.341859
vn 0.355388 0.869961 0.341859
vn 0.355387 0.869961 0.341859
vn 0.355388 0.869961 0.341859
vn 1.000000 0.000000 0.000000
vn 1.000000 0.000000 0.000000
vn 1.000000 0.000000 0.000000
vn 1.000000 0.000000 0.000000
vn 0.259688 -0.854230 -0.450393
vn 0.259688 -0.854230 -0.450393
vn 0.259688 -0.854230 -0.450393
vn 0.259688 -0.854230 -0.450393
vn -1.000000 -0.000000 0.000000
vn -1.000000 -0.000000 0.000000
vn -1.000000 -0.000000 0.000000
vn -1.000000 -0.000000 0.000000
vn 0.364826 -0.840687 -0.400185
vn 0.364826 -0.840687 -0.400185
vn 0.364826 -0.840687 -0.400185
vn 0.364826 -0.840687 -0.400185
vn 1.000000 0.000000 0.000000
vn 1.000000 0.000000 0.000000
vn 1.000000 0.000000 0.000000
vn 1.000000 0.000000 0.000000
vn 0.258821 -0.840141 0.476628
vn 0.258821 -0.840142 0.476628
vn 0.258821 -0.840141 0.476628
vn 0.258821 -0.840141 0.476628
vn -1.000000 0.000000 0.000000
vn -1.000000 0.000000 0.000000
vn -1.000000 0.000000 0.000000
vn -1.000000 0.000000 0.000000
vn -1.000000 0.000000 0.000000
vn -1.000000 0.000000 0.000000
vn -1.000000 0.000000 0.000000
vn -1.000000 0.000000 0.000000
vn 0.305716 0.820479 0.483066
vn 0.305716 0.820479 0.483066
vn 0.305716 0.820479 0.483066
vn 0.305716 0.820479 0.483066
vn 0.373688 0.832509 -0.409007
vn 0.373688 0.832509 -0.409007
vn 0.373688 0.832509 -0.409007
vn 0.373688 0.832509 -0.409007
vn 1.000000 0.000000 0.000000
vn 1.000000 0.000000 0.000000
vn 1.000000 0.000000 0.000000
vn 1.000000 0.000000 0.000000
vn -1.000000 0.000000 0.000000
vn -1.000000 -0.000000 0.000000
vn -1.000000 -0.000000 0.000000
vn 1.000000 0.000000 0.000000
vn 1.000000 0.000000 0.000000
vn 1.000000 0.000000 0.000000
vn 0.277898 -0.252107 0.926939
vn 0.277898 -0.252107 0.926939
vn 0.277898 -0.252107 0.926939
vn 0.277898 -0.252107 0.926938
vn -1.000000 0.000000 0.000000
vn -1.000000 0.000000 0.000000
vn -1.000000 0.000000 0.000000
vn 0.312807 0.303930 0.899877
vn 0.312807 0.303930 0.899877
vn 0.312807 0.303930 0.899877
vn 0.312807 0.303930 0.899877
vn 1.000000 -0.000000 0.000000
vn 1.000000 -0.000000 0.000000
vn 1.000000 -0.000000 0.000000
vn -0.277898 -0.252107 0.926939
vn -0.277898 -0.252107 0.926939
vn -0.277898 -0.252107 0.926939
vn -0.277898 -0.252107 0.926938
vn -0.262726 -0.288144 -0.920841
vn -0.262726 -0.288144 -0.920841
vn -0.262726 -0.288144 -0.920841
vn -0.262726 -0.288144 -0.920841
vn -0.259688 -0.854230 -0.450393
vn -0.259688 -0.854230 -0.450393
vn -0.259688 -0.854230 -0.450393
vn -0.259688 -0.854230 -0.450393
vn -0.258821 -0.840141 0.476628
vn -0.258821 -0.840142 0.476628
vn -0.258821 -0.840141 0.476628
vn -0.258821 -0.840141 0.476628
vn -0.287901 0.868015 -0.404552
vn -0.287901 0.868015 -0.404552
vn -0.287901 0.868015 -0.404552
vn -0.287901 0.868015 -0.404552
vn -0.253079 0.295389 -0.921247
vn -0.253079 0.295389 -0.921247
vn -0.253079 0.295389 -0.921247
vn -0.253079 0.295389 -0.921247
vn -0.312807 0.303930 0.899877
vn -0.312807 0.303930 0.899877
vn -0.312807 0.303930 0.899877
vn -0.312807 0.303930 0.899877
vn -0.305716 0.820479 0.483066
vn -0.305716 0.820479 0.483066
vn -0.305716 0.820479 0.483066
vn -0.305716 0.820479 0.483066
vn -0.355976 -0.866142 0.350826
vn -0.355976 -0.866142 0.350826
vn -0.355976 -0.866142 0.350826
vn -0.355976 -0.866142 0.350826
vn -0.364826 -0.840687 -0.400185
vn -0.364826 -0.840687 -0.400185
vn -0.364826 -0.840687 -0.400185
vn -0.364826 -0.840687 -0.400185
vn -0.373688 0.832509 -0.409007
vn -0.373688 0.832509 -0.409007
vn -0.373688 0.832509 -0.409007
vn -0.373688 0.832509 -0.409007
vn -0.355388 0.869961 0.341859
vn -0.355388 0.869961 0.341859
vn -0.355388 0.869961 0.341859
vn -0.355388 0.869961 0.341859
vn -0.334264 0.467206 0.818527
vn -0.331603 0.468771 0.818714
vn -0.334739 0.466926 0.818493
vn -0.334739 0.466926 0.818493
vn -0.453500 -0.455277 0.766199
vn -0.455264 -0.454044 0.765884
vn -0.477881 -0.437920 0.761483
vn -0.531561 0.000000 0.847020
vn -0.531561 0.000000 0.847020
vn -0.531561 0.000000 0.847020
vn 0.345730 0.000000 0.938334
vn 0.345730 0.000000 0.938334
vn 0.345730 0.000000 0.938334
vn -1.000000 0.000000 0.000000
vn -1.000000 0.000000 0.000000
vn -1.000000 0.000000 0.000000
vn -1.000000 0.000000 0.000000
vn -1.000000 0.000000 0.000000
vn -1.000000 0.000000 0.000000
vn 1.000000 0.000000 0.000000
vn 1.000000 0.000000 0.000000
vn 1.000000 0.000000 0.000000
vn 1.000000 0.000000 0.000000
vn 1.000000 0.000000 0.000000
vn 1.000000 0.000000 0.000000
vn -0.302224 0.485637 0.820254
vn -0.331603 0.468771 0.818714
vn -0.334264 0.467206 0.818527
vn 0.334739 0.466926 0.818493
vn 0.334739 0.466926 0.818493
vn 0.331603 0.468771 0.818714
vn 0.334264 0.467206 0.818527
vn 0.482924 -0.436543 0.759088
vn 0.457429 -0.454662 0.764226
vn 0.455448 -0.456037 0.764590
vn -0.453098 -0.455557 0.766270
vn -0.453098 -0.455557 0.766270
vn -0.455264 -0.454044 0.765884
vn -0.453500 -0.455277 0.766199
vn -0.345730 0.000000 0.938334
vn -0.345730 0.000000 0.938334
vn -0.345730 0.000000 0.938334
vn 0.536770 0.000000 0.843729
vn 0.536770 0.000000 0.843729
vn 0.536770 0.000000 0.843729
vn 0.332175 -0.311267 -0.890378
vn 0.332175 -0.311267 -0.890378
vn -0.000000 -0.330005 -0.943979
vn -0.000000 -0.330005 -0.943979
vn 0.000000 0.338887 -0.940827
vn 0.000000 0.338887 -0.940827
vn 0.340218 0.318671 -0.884704
vn 0.340218 0.318671 -0.884704
vn -0.000000 -0.330005 -0.943979
vn -0.000000 -0.330005 -0.943979
vn -0.332175 -0.311267 -0.890378
vn -0.332175 -0.311267 -0.890378
vn -0.340218 0.318671 -0.884704
vn -0.340218 0.318671 -0.884704
vn 0.000000 0.338887 -0.940827
vn 0.000000 0.338887 -0.940827
vn -1.000000 -0.000000 0.000000
vn -1.000000 -0.000000 0.000000
vn -1.000000 -0.000000 0.000000
vn -1.000000 0.000000 0.000000
vn -1.000000 0.000000 0.000000
vn -1.000000 0.000000 0.000000
vn 1.000000 -0.000000 0.000000
vn 1.000000 -0.000000 0.000000
vn 1.000000 0.000000 0.000000
vn 1.000000 0.000000 0.000000
vn 1.000000 0.000000 0.000000
vn 1.000000 0.000000 0.000000
vn 0.225765 0.000993 -0.974181
vn -0.000000 0.001019 -0.999999
vn -0.000000 0.001019 -1.000000
vn 0.225765 0.000993 -0.974181
vn -0.000000 0.001019 -1.000000
vn -0.000000 0.001019 -0.999999
vn -0.225765 0.000993 -0.974181
vn -0.225765 0.000993 -0.974181
s off
f 29/33/1 30/34/2 31/35/3 32/36/4
f 39/45/5 42/50/6 38/44/7 12/16/8 11/15/9
f 40/47/10 41/49/11 4/5/12 6/10/13
f 3/7/14 36/40/15 37/42/16 5/9/17
f 5/9/18 37/42/19 38/43/20 1/8/21
f 39/46/22 40/47/23 6/10/24 2/6/25
f 32/36/26 31/35/27 33/37/28 34/38/29
f 8/12/30 7/11/31 36/41/32 35/39/33 41/48/34
f 9/13/35 8/12/36 41/49/37 40/47/38
f 39/46/39 11/15/40 9/13/41 40/47/42
f 12/16/43 10/14/44 16/20/45 18/22/46
f 10/14/47 7/11/48 13/17/49 16/20/50
f 23/27/51 24/28/52 25/29/53 26/30/54
f 8/12/55 9/13/56 15/19/57 14/18/58
f 9/13/59 11/15/60 17/21/61 15/19/62
f 11/15/63 12/16/64 18/22/65 17/21/66
f 7/11/67 8/12/68 20/24/69 19/23/70
f 14/18/71 20/24/72 8/12/73
f 14/18/74 13/17/75 22/26/76 21/25/77
f 19/23/78 20/24/79 24/28/80 23/27/81
f 20/24/82 21/25/83 25/29/84 24/28/85
f 21/25/86 22/26/87 26/30/88 25/29/89
f 22/26/90 19/23/91 23/27/92 26/30/93
f 13/17/94 14/18/95 28/32/96 27/31/97
f 14/18/98 15/19/99 28/32/100
f 16/20/101 13/17/102 27/31/103
f 27/31/104 28/32/105 30/34/106 29/33/107
f 28/32/108 15/19/109 31/35/110 30/34/111
f 16/20/112 27/31/113 29/33/114 32/36/115
f 15/19/116 17/21/117 33/37/118 31/35/119
f 17/21/120 18/22/121 34/38/122 33/37/123
f 18/22/124 16/20/125 32/36/126 34/38/127
f 22/26/128 13/17/129 19/23/130
f 21/25/131 20/24/132 14/18/133
f 19/23/134 13/17/135 7/11/136
f 37/42/137 36/40/138 7/11/139 10/14/140
f 38/43/141 37/42/142 10/14/143 12/16/144
f 42/50/145 39/45/146 2/2/147
f 38/44/148 42/50/149 1/1/150
f 3/3/151 35/39/152 36/41/153
f 41/48/154 35/39/155 4/4/156
f 48/51/157 5/52/158 50/53/159
f 49/54/160 6/55/161 47/56/162
f 52/57/163 4/58/164 35/59/165 89/60/166
f 45/59/167 48/51/168 53/61/169 51/62/170
f 85/63/171 86/64/172 47/56/173 54/65/174
f 47/56/175 46/66/176 52/57/177 54/65/178
f 55/67/179 2/68/180 44/69/181
f 44/69/182 49/54/183 57/70/184 55/67/185
f 49/54/186 81/71/187 82/72/188 57/70/189
f 50/53/190 43/73/191 56/74/192 58/75/193
f 52/57/194 89/60/195 90/76/196 60/77/197
f 51/62/198 53/61/199 61/78/200 59/79/201
f 84/80/202 85/63/203 54/65/204 62/81/205
f 54/65/206 52/57/207 60/77/208 62/81/209
f 93/82/210 94/83/211 55/67/212 63/84/213
f 55/67/214 57/70/215 65/85/216 63/84/217
f 57/70/218 82/72/219 83/86/220 65/85/221
f 58/75/222 56/74/223 64/87/224 66/88/225
f 68/90/226 60/77/227 90/76/228 91/89/229
f 62/81/230 60/77/231 68/90/232 70/94/233
f 73/97/234 65/85/235 83/86/236 79/98/237
f 66/88/238 64/87/239 72/99/240 74/100/241
f 61/78/242 69/91/243 67/92/244 59/79/245
f 62/81/246 70/94/247 87/93/248 84/80/249
f 63/84/250 71/96/251 92/95/252 93/82/253
f 73/97/254 71/96/255 63/84/256 65/85/257
f 67/92/258 69/91/259 77/110/260
f 76/106/261 73/97/262 75/102/263
f 73/97/264 79/98/265 80/101/266 75/102/267
f 77/103/268 74/100/269 72/99/270
f 80/107/271 87/93/272 70/94/273 75/102/274
f 76/108/275 75/102/276 70/94/277
f 80/101/278 79/98/279 74/100/280 78/104/281
f 82/72/282 81/71/283 50/53/284 58/75/285
f 83/86/286 82/72/287 58/75/288 66/88/289
f 83/86/290 66/88/291 74/100/292 79/98/293
f 53/61/294 85/63/295 84/80/296 61/78/297
f 48/51/298 86/64/299 85/63/300 53/61/301
f 69/91/302 87/93/303 80/107/304 78/104/305
f 84/80/306 87/93/307 69/91/308 61/78/309
f 90/76/310 89/60/311 51/62/312 59/79/313
f 90/76/314 59/79/315 67/92/316 91/89/317
f 92/95/318 72/99/319 64/87/320 93/82/321
f 56/74/322 94/83/323 93/82/324 64/87/325
f 56/74/326 1/111/327 42/69/328 94/83/329
f 51/62/330 3/112/331 45/59/332
f 3/112/333 5/52/334 45/59/335
f 2/68/336 6/55/337 44/69/338
f 48/51/339 45/59/340 5/52/341
f 50/53/342 5/52/343 43/73/344
f 49/54/345 44/69/346 6/55/347
f 47/56/348 6/55/349 46/66/350
f 43/73/351 1/111/352 56/74/353
f 94/83/354 42/69/355 2/68/356 55/67/357
f 46/66/358 4/58/359 52/57/360
f 89/60/361 35/59/362 3/112/363 51/62/364
f 5/52/365 1/111/366 43/73/367
f 6/55/368 4/58/369 46/66/370
f 76/108/371 68/90/372 91/89/373 88/109/374
f 88/105/375 92/95/376 71/96/377 76/106/378
f 88/109/379 91/89/380 67/92/381 77/110/382
f 77/103/383 72/99/384 92/95/385 88/105/386
f 77/110/387 69/91/388 78/104/389
f 77/103/390 78/104/391 74/100/392
f 76/108/393 70/94/394 68/90/395
f 71/96/396 73/97/397 76/106/398
f 47/56/399 86/64/400 81/71/401 49/54/402
f 81/71/403 86/64/404 48/51/405 50/53/406
