# This file uses meters as units for non-parametric coordinates.

v -12.522812 0.000000 3.955688
v 12.460831 0.236260 3.955688
v -12.522812 4.036322 3.955688
v 12.460831 3.992926 3.955688
v -12.522812 4.036322 -3.955688
v 12.460831 3.992926 -3.955688
v -12.522812 0.000000 -3.955688
v 12.460831 0.236260 -3.955688
v 13.114471 0.503421 -3.311035
v 13.114471 0.503421 3.311035
v 13.368515 3.201078 -3.311035
v 13.368515 3.201078 3.311035
v -13.157684 0.239076 -3.311035
v -13.157684 0.239076 3.311035
v -13.368515 3.075835 3.311035
v -13.368515 3.075835 -3.311035
v -5.655289 4.464089 -3.955688
v -5.655289 4.464089 3.955688
v -5.655289 0.742445 3.955688
v -5.655289 0.742445 -3.955688
v 10.654053 0.325549 3.955688
v 10.654053 4.361871 3.955688
v 10.654053 4.361871 -3.955688
v 10.654053 0.325549 -3.955688
vt 0.350115 0.082388
vt 0.350115 0.082388
vt 0.350115 0.082388
vt 0.350115 0.082388
vt 0.280240 0.107079
vt 0.280240 0.075504
vt 0.352514 0.075504
vt 0.352514 0.107079
vt 0.350115 0.082388
vt 0.350115 0.082388
vt 0.350115 0.082388
vt 0.350115 0.082388
vt 0.350115 0.082388
vt 0.350115 0.082388
vt 0.350115 0.082388
vt 0.350115 0.082388
vt 0.350115 0.082388
vt 0.350115 0.082388
vt 0.350115 0.082388
vt 0.350115 0.082388
vt 0.350115 0.082388
vt 0.350115 0.082388
vt 0.350115 0.082388
vt 0.350115 0.082388
vt 0.350115 0.082388
vt 0.350115 0.082388
vt 0.350115 0.082388
vt 0.350115 0.082388
vt 0.350115 0.082388
vt 0.350115 0.082388
vt 0.249807 0.075504
vt 0.249807 0.107079
vt 0.350115 0.082388
vt 0.350115 0.082388
vt 0.350115 0.082388
vt 0.360521 0.075504
vt 0.360521 0.107079
vt 0.350115 0.082388
vt 0.350115 0.082388
vt 0.350115 0.082388
vn 0.000000 0.000000 1.000000
vn 0.000000 0.000000 1.000000
vn 0.000000 0.000000 1.000000
vn 0.000000 0.000000 1.000000
vn 0.006267 0.999980 0.000000
vn 0.006267 0.999980 0.000000
vn 0.006267 0.999980 0.000000
vn 0.006267 0.999980 0.000000
vn 0.000000 0.000000 -1.000000
vn 0.000000 0.000000 -1.000000
vn 0.000000 0.000000 -1.000000
vn 0.000000 0.000000 -1.000000
vn -0.025553 -0.999673 0.000000
vn -0.025553 -0.999673 0.000000
vn -0.025553 -0.999673 0.000000
vn -0.025553 -0.999673 0.000000
vn 0.995595 -0.093757 0.000000
vn 0.995595 -0.093757 0.000000
vn 0.995595 -0.093757 0.000000
vn 0.995595 -0.093757 0.000000
vn -0.997250 -0.074116 0.000000
vn -0.997250 -0.074116 0.000000
vn -0.997250 -0.074116 0.000000
vn -0.997250 -0.074116 0.000000
vn 0.378345 -0.925665 0.000000
vn 0.378345 -0.925665 0.000000
vn 0.378345 -0.925665 0.000000
vn 0.378345 -0.925665 0.000000
vn 0.631563 -0.024859 -0.774926
vn 0.631563 -0.024859 -0.774926
vn 0.631563 -0.024859 -0.774926
vn 0.631563 -0.024859 -0.774926
vn 0.657387 0.753553 0.000000
vn 0.657387 0.753553 0.000000
vn 0.657387 0.753553 0.000000
vn 0.657387 0.753553 0.000000
vn 0.631563 -0.024859 0.774926
vn 0.631563 -0.024859 0.774926
vn 0.631563 -0.024859 0.774926
vn 0.631563 -0.024859 0.774926
vn -0.352414 -0.935844 0.000000
vn -0.352414 -0.935844 0.000000
vn -0.352414 -0.935844 0.000000
vn -0.352414 -0.935844 0.000000
vn -0.651032 -0.019970 0.758787
vn -0.651032 -0.019970 0.758787
vn -0.651032 -0.019970 0.758787
vn -0.651032 -0.019970 0.758787
vn -0.750530 0.660837 0.000000
vn -0.750530 0.660837 0.000000
vn -0.750530 0.660837 0.000000
vn -0.750530 0.660837 0.000000
vn -0.651032 -0.019970 -0.758787
vn -0.651032 -0.019970 -0.758787
vn -0.651032 -0.019970 -0.758787
vn -0.651032 -0.019970 -0.758787
vn -0.062168 0.998066 0.000000
vn -0.062168 0.998066 0.000000
vn -0.062168 0.998066 0.000000
vn -0.062168 0.998066 0.000000
vn 0.000000 0.000000 1.000000
vn 0.000000 0.000000 1.000000
vn 0.000000 0.000000 1.000000
vn 0.000000 0.000000 1.000000
vn 0.107483 -0.994207 0.000000
vn 0.107483 -0.994207 0.000000
vn 0.107483 -0.994207 0.000000
vn 0.107483 -0.994207 0.000000
vn -0.000000 0.000000 -1.000000
vn -0.000000 0.000000 -1.000000
vn -0.000000 0.000000 -1.000000
vn -0.000000 0.000000 -1.000000
vn 0.000000 0.000000 1.000000
vn 0.000000 0.000000 1.000000
vn 0.000000 0.000000 1.000000
vn 0.000000 0.000000 1.000000
vn 0.200072 0.979781 0.000000
vn 0.200072 0.979781 0.000000
vn 0.200072 0.979781 0.000000
vn 0.200072 0.979781 0.000000
vn 0.000000 0.000000 -1.000000
vn 0.000000 0.000000 -1.000000
vn 0.000000 0.000000 -1.000000
vn 0.000000 0.000000 -1.000000
vn -0.049359 -0.998781 0.000000
vn -0.049359 -0.998781 0.000000
vn -0.049359 -0.998781 0.000000
vn -0.049359 -0.998781 0.000000
s off
f 18/1/1 19/2/2 21/3/3 22/4/4
f 17/5/5 18/6/6 22/7/7 23/8/8
f 20/9/9 17/10/10 23/11/11 24/12/12
f 19/13/13 20/9/14 24/12/15 21/14/16
f 10/15/17 9/16/18 11/17/19 12/18/20
f 13/19/21 14/20/22 15/21/23 16/22/24
f 2/23/25 8/24/26 9/16/27 10/15/28
f 8/24/29 6/25/30 11/17/31 9/16/32
f 6/25/33 4/26/34 12/18/35 11/17/36
f 4/26/37 2/23/38 10/15/39 12/18/40
f 7/27/41 1/28/42 14/20/43 13/19/44
f 1/28/45 3/29/46 15/21/47 14/20/48
f 3/29/49 5/30/50 16/22/51 15/21/52
f 5/30/53 7/27/54 13/19/55 16/22/56
f 3/31/57 18/6/58 17/5/59 5/32/60
f 1/28/61 19/2/62 18/1/63 3/29/64
f 7/33/65 20/9/66 19/13/67 1/34/68
f 5/35/69 17/10/70 20/9/71 7/33/72
f 22/4/73 21/3/74 2/23/75 4/26/76
f 23/8/77 22/7/78 4/36/79 6/37/80
f 24/12/81 23/11/82 6/38/83 8/39/84
f 21/14/85 24/12/86 8/39/87 2/40/88
