# This file uses meters as units for non-parametric coordinates.

v -16.454561 0.000000 18.309692
v 17.573624 0.000000 15.908363
v -16.132589 1.334251 17.998692
v 17.235363 1.334251 15.643974
v -15.804049 1.334251 -13.434570
v 15.998386 1.334251 -12.783907
v -16.119518 0.000000 -13.745485
v 16.312174 0.000000 -13.082022
v -10.853102 1.323917 13.231588
v 10.853102 1.323917 13.231588
v 10.853102 1.323917 -0.337537
v -10.853102 1.323917 -0.337537
v -10.181515 6.297058 12.811678
v 10.181511 6.297058 12.811678
v 10.181511 6.297058 0.082247
v -10.181515 6.297058 0.082247
v -8.923933 7.414856 11.409222
v 8.923931 7.414856 11.409222
v 8.923931 7.414856 1.484744
v -8.923933 7.414856 1.484744
v 14.415390 1.334251 17.250347
v 14.596092 -0.000001 17.546505
v 17.446903 2.146904 2.569225
v 17.111103 3.460480 2.905698
v 17.566868 1.334251 -9.695087
v 17.911694 0.000000 -10.293655
v 3.852213 0.000000 -13.735533
v 3.633419 1.334251 -13.424746
v -3.691265 2.364967 -12.334610
v -4.030654 1.030712 -12.606016
v -17.632206 0.000000 -12.164120
v -17.287388 1.334251 -11.333311
v -17.040461 1.334251 15.549479
v -17.380394 0.000000 15.550882
v 4.094141 0.000000 17.056677
v 3.972986 1.334251 16.785057
v -8.035576 -0.000000 -4.158926
vt 0.177391 0.278619
vt 0.177391 0.278619
vt 0.177391 0.278619
vt 0.177391 0.278619
vt 0.177391 0.278619
vt 0.177391 0.278619
vt 0.177391 0.278619
vt 0.177391 0.278619
vt 0.177391 0.278619
vt 0.177391 0.278619
vt 0.177391 0.278619
vt 0.177391 0.278619
vt 0.177391 0.278619
vt 0.177391 0.278619
vt 0.177391 0.254348
vt 0.177391 0.254348
vt 0.177391 0.254348
vt 0.177391 0.254348
vt 0.177391 0.254348
vt 0.177391 0.254348
vt 0.177391 0.254348
vt 0.177391 0.254348
vt 0.364448 0.073859
vt 0.177391 0.254348
vt 0.177391 0.254348
vt 0.177391 0.254348
vt 0.177391 0.254348
vt 0.177391 0.254348
vt 0.177391 0.254348
vt 0.431569 0.073859
vt 0.177391 0.254348
vt 0.431569 0.107882
vt 0.177391 0.254348
vt 0.177391 0.254348
vt 0.177391 0.254348
vt 0.177391 0.254348
vt 0.364448 0.107882
vt 0.177391 0.254348
vt 0.177391 0.254348
vt 0.177391 0.254348
vt 0.177391 0.254348
vt 0.177391 0.254348
vt 0.177391 0.254348
vt 0.177391 0.254348
vt 0.177391 0.254348
vt 0.177391 0.254348
vt 0.177391 0.278619
vt 0.177391 0.254348
vt 0.177391 0.278619
vt 0.177391 0.254348
vt 0.177391 0.278619
vt 0.177391 0.254348
vt 0.177391 0.278619
vt 0.177391 0.254348
vt 0.177391 0.278619
vt 0.177391 0.278619
vt 0.177391 0.278619
vt 0.177391 0.278619
vt 0.177391 0.278619
vt 0.177391 0.278619
vt 0.177391 0.278619
vt 0.177391 0.278619
vt 0.177391 0.278619
vt 0.177391 0.278619
vt 0.177391 0.278619
vt 0.177391 0.278619
vt 0.177391 0.278619
vt 0.177391 0.278619
vt 0.177391 0.278619
vt 0.177391 0.278619
vt 0.177391 0.278619
vt 0.177391 0.278619
vt 0.177391 0.278619
vt 0.177391 0.278619
vt 0.177391 0.278619
vt 0.177391 0.278619
vt 0.177391 0.278619
vt 0.177391 0.278619
vt 0.177391 0.278619
vt 0.177391 0.278619
vt 0.177391 0.278619
vt 0.433510 0.134295
vt 0.408317 0.135478
vt 0.423026 0.111328
vt 0.378801 0.111328
vt 0.393393 0.135041
vt 0.368714 0.135496
vn 0.470486 0.268095 0.840695
vn 0.470486 0.268096 0.840695
vn 0.470486 0.268096 0.840695
vn 0.470486 0.268095 0.840695
vn 0.000000 1.000000 0.000000
vn 0.000000 1.000000 0.000000
vn 0.000000 1.000000 0.000000
vn 0.000000 1.000000 0.000000
vn 0.050651 0.231775 -0.971450
vn 0.050651 0.231775 -0.971450
vn 0.050651 0.231775 -0.971450
vn 0.050651 0.231775 -0.971450
vn -0.086653 -0.983709 -0.157503
vn -0.086653 -0.983710 -0.157503
vn -0.086653 -0.983710 -0.157503
vn 0.968828 0.245794 0.030952
vn 0.968828 0.245794 0.030952
vn 0.968828 0.245794 0.030952
vn 0.968828 0.245794 0.030952
vn -0.704205 0.419367 -0.572911
vn -0.704205 0.419367 -0.572911
vn -0.704205 0.419367 -0.572911
vn -0.704205 0.419367 -0.572911
vn -0.000973 0.999998 -0.001709
vn -0.000973 0.999998 -0.001709
vn -0.000973 0.999998 -0.001709
vn -0.063926 0.984235 0.164909
vn -0.063926 0.984235 0.164909
vn -0.063926 0.984235 0.164909
vn -0.000042 1.000000 0.000813
vn -0.000042 1.000000 0.000813
vn -0.000042 1.000000 0.000813
vn 0.000728 1.000000 0.000514
vn 0.000728 1.000000 0.000514
vn 0.000728 1.000000 0.000514
vn 0.000000 0.084136 0.996454
vn 0.000000 0.084136 0.996454
vn 0.000000 0.084136 0.996454
vn 0.000000 0.084136 0.996454
vn 0.991004 0.133829 0.000000
vn 0.991005 0.133829 0.000000
vn 0.991005 0.133829 0.000000
vn 0.991004 0.133829 0.000000
vn 0.000000 0.084111 -0.996456
vn 0.000000 0.084111 -0.996456
vn 0.000000 0.084111 -0.996456
vn 0.000000 0.084111 -0.996456
vn -0.991005 0.133828 0.000000
vn -0.991005 0.133828 0.000000
vn -0.991005 0.133828 0.000000
vn -0.991005 0.133828 0.000000
vn 0.000000 0.782001 0.623277
vn 0.000000 0.782001 0.623277
vn 0.000000 0.782001 0.623277
vn 0.000000 0.782001 0.623277
vn 0.664347 0.747424 0.000000
vn 0.664347 0.747424 0.000000
vn 0.664347 0.747424 0.000000
vn 0.664347 0.747424 0.000000
vn 0.000000 0.782010 -0.623266
vn 0.000000 0.782010 -0.623266
vn 0.000000 0.782010 -0.623266
vn 0.000000 0.782010 -0.623266
vn -0.664346 0.747425 0.000000
vn -0.664347 0.747425 0.000000
vn -0.664346 0.747425 0.000000
vn -0.664347 0.747425 0.000000
vn -0.000140 0.999997 -0.002323
vn -0.000140 0.999997 -0.002323
vn -0.000140 0.999997 -0.002323
vn 0.059229 0.208677 0.976190
vn 0.059229 0.208677 0.976190
vn 0.059229 0.208677 0.976190
vn 0.059229 0.208677 0.976190
vn 0.000000 -1.000000 -0.000000
vn 0.000000 -1.000000 -0.000000
vn 0.000000 -1.000000 -0.000000
vn 0.823753 0.352517 -0.444031
vn 0.823753 0.352517 -0.444031
vn 0.823753 0.352517 -0.444031
vn 0.823753 0.352517 -0.444031
vn -0.000901 1.000000 0.000458
vn -0.000901 0.999999 0.000458
vn -0.000901 0.999999 0.000458
vn -0.238368 0.956186 -0.169966
vn -0.238368 0.956186 -0.169966
vn -0.238368 0.956186 -0.169966
vn 0.967875 0.251330 -0.007186
vn 0.967875 0.251330 -0.007186
vn 0.967875 0.251330 -0.007186
vn 0.967875 0.251330 -0.007186
vn 0.077756 -0.994194 0.074379
vn 0.077756 -0.994194 0.074379
vn 0.077756 -0.994194 0.074379
vn 0.073859 0.195285 -0.977961
vn 0.073859 0.195285 -0.977961
vn 0.073859 0.195285 -0.977961
vn 0.073859 0.195285 -0.977961
vn -0.087801 0.995559 0.033976
vn -0.087801 0.995559 0.033976
vn -0.087801 0.995559 0.033976
vn 0.000000 1.000000 0.000790
vn 0.000000 1.000000 0.000790
vn 0.000000 1.000000 0.000790
vn -0.112179 0.216649 -0.969783
vn -0.112179 0.216649 -0.969783
vn -0.112179 0.216649 -0.969783
vn -0.112179 0.216649 -0.969783
vn -0.000000 -1.000000 -0.000000
vn -0.000000 -1.000000 -0.000000
vn -0.000000 -1.000000 -0.000000
vn -0.909978 0.263223 0.320396
vn -0.909978 0.263223 0.320396
vn -0.909978 0.263223 0.320396
vn -0.909978 0.263223 0.320396
vn 0.001467 0.999999 -0.000544
vn 0.001467 0.999999 -0.000544
vn 0.001467 0.999999 -0.000544
vn 0.001644 0.999999 -0.000010
vn 0.001644 0.999999 -0.000010
vn 0.001644 0.999999 -0.000010
vn 0.001644 0.999999 -0.000010
vn -0.969240 0.245959 0.008854
vn -0.969240 0.245959 0.008854
vn -0.969240 0.245959 0.008854
vn -0.969240 0.245959 0.008854
vn 0.072470 -0.993580 -0.086877
vn 0.072470 -0.993580 -0.086877
vn 0.072470 -0.993580 -0.086877
vn -0.044606 0.203075 0.978147
vn -0.044606 0.203075 0.978147
vn -0.044606 0.203075 0.978147
vn -0.044606 0.203075 0.978147
vn 0.000000 0.999996 -0.002908
vn 0.000000 0.999996 -0.002908
vn 0.000000 0.999996 -0.002908
vn 0.000119 0.999996 -0.002677
vn 0.000119 0.999996 -0.002677
vn 0.000119 0.999996 -0.002677
vn -0.323101 0.946365 0.000000
vn -0.323101 0.946364 0.000000
vn -0.323101 0.946364 0.000000
vn 0.163498 0.969658 0.181745
vn 0.163498 0.969658 0.181745
vn 0.163498 0.969658 0.181745
vn 0.097746 -0.993986 0.049382
vn 0.097746 -0.993985 0.049382
vn 0.097746 -0.993986 0.049382
vn 0.097746 -0.993986 0.049382
vn 0.006561 -0.990035 -0.140667
vn 0.006561 -0.990035 -0.140667
vn 0.006561 -0.990035 -0.140667
vn -0.154165 -0.969335 -0.191371
vn -0.154165 -0.969335 -0.191371
vn -0.154165 -0.969335 -0.191371
vn 0.000000 -1.000000 0.000000
vn 0.000000 -1.000000 0.000000
vn 0.000000 -1.000000 0.000000
vn 0.000000 -1.000000 0.000000
vn -0.000000 -1.000000 0.000000
vn -0.000000 -1.000000 0.000000
vn -0.000000 -1.000000 0.000000
s off
f 21/55/1 22/56/2 2/2/3 4/4/4
f 17/23/5 18/30/6 19/32/7 20/37/8
f 27/66/9 28/67/10 6/6/11 8/8/12
f 22/57/13 23/58/14 2/10/15
f 2/2/16 23/59/17 24/61/18 4/4/19
f 7/13/20 31/70/21 32/72/22 5/14/23
f 10/51/24 21/55/25 4/4/26
f 4/4/27 24/60/28 10/51/29
f 6/82/30 28/83/31 11/84/32
f 5/5/33 32/73/34 12/47/35
f 9/15/36 10/52/37 14/42/38 13/44/39
f 10/16/40 11/50/41 15/39/42 14/41/43
f 11/17/44 12/48/45 16/34/46 15/38/47
f 12/18/48 9/54/49 13/45/50 16/33/51
f 13/19/52 14/43/53 18/36/54 17/27/55
f 14/20/56 15/40/57 19/31/58 18/24/59
f 15/21/60 16/35/61 20/29/62 19/25/63
f 16/22/64 13/46/65 17/28/66 20/26/67
f 3/3/68 36/80/69 9/53/70
f 1/1/71 35/78/72 36/80/73 3/3/74
f 26/64/75 27/66/76 8/8/77
f 25/63/78 26/65/79 8/11/80 6/12/81
f 11/49/82 25/62/83 6/6/84
f 11/49/85 24/60/86 25/62/87
f 24/61/88 23/59/89 26/65/90 25/63/91
f 7/7/92 30/69/93 31/71/94
f 5/5/95 29/68/96 30/69/97 7/7/98
f 12/85/99 29/86/100 5/87/101
f 11/84/102 28/83/103 12/85/104
f 30/69/105 29/68/106 28/67/107 27/66/108
f 34/77/109 35/79/110 1/9/111
f 33/74/112 34/76/113 1/1/114 3/3/115
f 9/53/116 33/75/117 3/3/118
f 12/47/119 32/73/120 33/75/121 9/53/122
f 32/72/123 31/70/124 34/76/125 33/74/126
f 31/71/127 30/69/128 37/81/129
f 36/80/130 35/78/131 22/56/132 21/55/133
f 9/53/134 36/80/135 10/51/136
f 10/51/137 36/80/138 21/55/139
f 10/51/140 24/60/141 11/49/142
f 12/85/143 28/83/144 29/86/145
f 35/79/146 27/66/147 26/64/148 23/58/149
f 35/79/150 23/58/151 22/57/152
f 27/66/153 37/81/154 30/69/155
f 34/77/156 37/81/157 27/66/158 35/79/159
f 31/71/160 37/81/161 34/77/162
