# This file uses meters as units for non-parametric coordinates.

v -11.774597 0.000000 6.500443
v -1.552734 0.000000 14.097717
v -11.530949 1.271011 6.468861
v -1.580166 1.271011 13.869480
v 0.073055 1.271011 -11.102726
v 10.306492 1.271011 -3.395878
v 0.044128 0.000000 -11.345718
v 10.560486 0.000000 -3.429596
v -7.038208 0.000000 -3.136124
v -6.845585 1.271011 -3.051872
v 8.271610 1.271011 2.096146
v 8.487244 0.000000 2.150803
v -4.081242 1.271011 -7.493803
v -4.187683 0.000000 -7.689178
v 0.130741 1.271011 2.606712
v -5.898617 1.271011 11.215488
v -5.977394 0.000000 11.366806
v 0.134087 0.000000 2.674667
vt 0.138421 0.422048
vt 0.133415 0.302748
vt 0.138421 0.422048
vt 0.133415 0.302748
vt 0.138421 0.422048
vt 0.138421 0.422048
vt 0.138421 0.422048
vt 0.138421 0.422048
vt 0.138421 0.422048
vt 0.133415 0.302748
vt 0.138421 0.422048
vt 0.138421 0.422048
vt 0.138421 0.422048
vt 0.138421 0.422048
vt 0.138421 0.422048
vt 0.138421 0.422048
vt 0.138421 0.422048
vt 0.138421 0.422048
vt 0.133415 0.302748
vt 0.133415 0.302748
vt 0.133415 0.302748
vt 0.138421 0.422048
vt 0.138421 0.422048
vt 0.138421 0.422048
vt 0.138421 0.422048
vt 0.138421 0.422048
vt 0.138421 0.422048
vt 0.138421 0.422048
vt 0.138421 0.422048
vt 0.138421 0.422048
vt 0.138421 0.422048
vt 0.138421 0.422048
vt 0.138421 0.422048
vt 0.138421 0.422048
vt 0.133415 0.302748
vt 0.133415 0.302748
vt 0.133415 0.302748
vt 0.133415 0.302748
vt 0.133415 0.302748
vt 0.133415 0.302748
vn -0.591773 0.136193 0.794516
vn -0.590384 0.136208 0.795547
vn -0.519513 0.136438 0.843499
vn -0.519513 0.136438 0.843499
vn -0.751576 0.161254 -0.639633
vn -0.744037 0.161517 -0.648322
vn -0.870968 0.159590 -0.464700
vn -0.870562 0.159549 -0.465473
vn -0.870562 0.159549 -0.465473
vn -0.870968 0.159590 -0.464700
vn -0.885638 0.161021 -0.435566
vn -0.885638 0.161021 -0.435566
vn 0.000000 1.000000 0.000000
vn 0.000000 1.000000 0.000000
vn 0.000000 1.000000 0.000000
vn 0.000000 1.000000 0.000000
vn 0.758328 0.143281 0.635932
vn 0.815729 0.153818 0.557607
vn 0.811243 0.152996 0.564338
vn 0.758328 0.143281 0.635932
vn -0.000000 -1.000000 0.000000
vn -0.000000 -1.000000 0.000000
vn -0.000000 -1.000000 -0.000000
vn -0.000000 -1.000000 -0.000000
vn -0.646045 0.162997 -0.745693
vn -0.744037 0.161517 -0.648322
vn -0.751576 0.161254 -0.639633
vn -0.646045 0.162997 -0.745693
vn 0.811243 0.152996 0.564338
vn 0.815729 0.153818 0.557607
vn 0.923346 0.173406 0.342583
vn 0.923346 0.173406 0.342583
vn 0.000000 1.000000 0.000000
vn 0.000000 1.000000 0.000000
vn 0.000000 1.000000 0.000000
vn 0.000000 1.000000 0.000000
vn 0.000000 1.000000 0.000000
vn 0.000000 1.000000 0.000000
vn 0.000000 1.000000 0.000000
vn 0.000000 1.000000 0.000000
vn 0.000000 1.000000 0.000000
vn 0.000000 1.000000 0.000000
vn 0.000000 1.000000 0.000000
vn 0.000000 1.000000 0.000000
vn -0.637739 0.135446 0.758251
vn -0.590384 0.136208 0.795547
vn -0.591773 0.136193 0.794516
vn -0.637739 0.135446 0.758251
vn 0.000000 -1.000000 0.000000
vn -0.000000 -1.000000 0.000000
vn -0.000000 -1.000000 0.000000
vn 0.000000 -1.000000 0.000000
vn 0.000000 -1.000000 0.000000
vn -0.000000 -1.000000 -0.000000
vn -0.000000 -1.000000 0.000000
vn 0.000000 -1.000000 0.000000
vn 0.000000 -1.000000 0.000000
vn 0.000000 -1.000000 0.000000
vn -0.000000 -1.000000 -0.000000
vn 0.000000 -1.000000 0.000000
vn 0.595666 0.138859 -0.791139
vn 0.595666 0.138859 -0.791139
vn 0.595666 0.138859 -0.791139
vn 0.595666 0.138859 -0.791139
s off
f 16/2/1 17/4/2 2/10/3 4/19/4
f 13/37/5 14/38/6 9/39/7 10/40/8
f 10/17/9 9/15/10 1/1/11 3/3/12
f 15/21/13 16/2/14 4/19/15 11/20/16
f 2/10/17 12/36/18 11/20/19 4/19/20
f 17/4/21 18/35/22 12/36/23 2/10/24
f 7/13/25 14/26/26 13/24/27 5/14/28
f 11/23/29 12/29/30 8/11/31 6/12/32
f 13/25/33 11/22/34 6/6/35 5/5/36
f 10/40/37 15/21/38 11/20/39 13/37/40
f 3/3/41 16/31/42 15/30/43 10/18/44
f 1/1/45 17/32/46 16/31/47 3/3/48
f 9/16/49 18/34/50 17/33/51 1/9/52
f 14/38/53 12/36/54 18/35/55 9/39/56
f 7/7/57 8/8/58 12/28/59 14/27/60
f 5/5/61 6/6/62 8/8/63 7/7/64
