# This file uses meters as units for non-parametric coordinates.

v 31.373657 1.983854 -18.113556
v 18.113541 1.983854 -31.373627
v 0.000031 1.983854 -36.227173
v -18.113586 1.983854 -31.373627
v -31.373596 1.983854 -18.113556
v -36.227112 1.983854 0.000000
v -31.373596 1.983854 18.113556
v -18.113586 1.983854 31.373627
v 0.000031 1.983854 36.227173
v 18.113541 1.983854 31.373627
v 31.373657 1.983854 18.113556
v 36.227158 1.983854 0.000000
v 31.373657 19.538256 -18.113556
v 18.113541 19.538256 -31.373627
v 0.000031 19.538256 -36.227173
v -18.113586 19.538256 -31.373627
v -31.373596 19.538256 -18.113556
v -36.227112 19.538256 0.000000
v -31.373596 19.538256 18.113556
v -18.113586 19.538256 31.373627
v 0.000031 19.538256 36.227173
v 18.113541 19.538256 31.373627
v 31.373657 19.538256 18.113556
v 36.227158 19.538256 0.000000
v 19.703369 0.000000 -11.375732
v 11.375778 0.000000 -19.703369
v 0.000031 0.000000 -22.751495
v -11.375702 0.000000 -19.703369
v -19.703369 0.000000 -11.375732
v -22.751465 0.000000 0.000000
v -19.703369 0.000000 11.375763
v -11.375702 0.000000 19.703400
v 0.000031 0.000000 22.751526
v 11.375778 0.000000 19.703400
v 19.703369 0.000000 11.375763
v 22.751526 0.000000 0.000000
v 19.703369 21.522110 -11.375732
v 11.375778 21.522110 -19.703369
v 0.000031 21.522110 -22.751495
v -11.375702 21.522110 -19.703369
v -19.703369 21.522110 -11.375732
v -22.751465 21.522110 0.000000
v -19.703369 21.522110 11.375763
v -11.375702 21.522110 19.703400
v 0.000031 21.522110 22.751526
v 11.375778 21.522110 19.703400
v 19.703369 21.522110 11.375763
v 22.751526 21.522110 0.000000
v 19.474808 3.960780 -11.243744
v 11.243774 3.960780 -19.474823
v 0.000031 3.960780 -22.487579
v -11.243744 3.960780 -19.474823
v -19.474823 3.960780 -11.243744
v -22.487579 3.960780 0.000000
v -19.474823 3.960780 11.243744
v -11.243744 3.960780 19.474792
v 0.000031 3.960780 22.487549
v 11.243774 3.960780 19.474792
v 19.474808 3.960780 11.243744
v 22.487579 3.960780 0.000000
v 19.474808 17.561329 -11.243744
v 11.243774 17.561329 -19.474823
v 0.000031 17.561329 -22.487579
v -11.243744 17.561329 -19.474823
v -19.474823 17.561329 -11.243744
v -22.487579 17.561329 0.000000
v -19.474823 17.561329 11.243744
v -11.243744 17.561329 19.474792
v 0.000031 17.561329 22.487549
v 11.243774 17.561329 19.474792
v 19.474808 17.561329 11.243744
v 22.487579 17.561329 0.000000
v 26.208557 5.380332 -15.131500
v 15.131561 5.380332 -26.208588
v 0.000000 5.380332 -30.263092
v -15.131531 5.380332 -26.208588
v -26.208649 5.380332 -15.131500
v -30.263062 5.380332 0.000031
v -26.208649 5.380332 15.131531
v -15.131531 5.380332 26.208588
v 0.000000 5.380332 30.263123
v 15.131561 5.380332 26.208588
v 26.208557 5.380332 15.131531
v 30.263077 5.380332 0.000031
v 26.208557 16.141777 -15.131500
v 15.131577 16.141777 -26.208588
v 0.000031 16.141777 -30.263092
v -15.131531 16.141777 -26.208588
v -26.208649 16.141777 -15.131500
v -30.263062 16.141777 0.000000
v -26.208649 16.141777 15.131531
v -15.131531 16.141777 26.208588
v 0.000031 16.141777 30.263092
v 15.131577 16.141777 26.208588
v 26.208557 16.141777 15.131531
v 30.263077 16.141777 0.000000
vt 0.067048 0.212425
vt 0.067048 0.212425
vt 0.067048 0.212425
vt 0.067048 0.212425
vt 0.067048 0.212425
vt 0.067048 0.212425
vt 0.067048 0.212425
vt 0.067048 0.212425
vt 0.067048 0.212425
vt 0.067048 0.212425
vt 0.067048 0.212425
vt 0.067048 0.212425
vt 0.067048 0.212425
vt 0.067048 0.212425
vt 0.067048 0.212425
vt 0.067048 0.212425
vt 0.067048 0.212425
vt 0.067048 0.212425
vt 0.067048 0.212425
vt 0.067048 0.212425
vt 0.067048 0.212425
vt 0.067048 0.212425
vt 0.067048 0.212425
vt 0.067048 0.212425
vt 0.067048 0.212425
vt 0.067048 0.212425
vt 0.067048 0.212425
vt 0.067048 0.212425
vt 0.067048 0.212425
vt 0.067048 0.212425
vt 0.067048 0.212425
vt 0.067048 0.212425
vt 0.067048 0.212425
vt 0.067048 0.212425
vt 0.067048 0.212425
vt 0.067048 0.212425
vt 0.067048 0.212425
vt 0.067048 0.212425
vt 0.067048 0.212425
vt 0.067048 0.212425
vt 0.067048 0.212425
vt 0.067048 0.212425
vt 0.067048 0.212425
vt 0.067048 0.212425
vt 0.067048 0.212425
vt 0.067048 0.212425
vt 0.067048 0.212425
vt 0.067048 0.212425
vt 0.067048 0.212425
vt 0.067048 0.212425
vt 0.067048 0.212425
vt 0.067048 0.212425
vt 0.067048 0.212425
vt 0.067048 0.212425
vt 0.067048 0.212425
vt 0.067048 0.212425
vt 0.067048 0.212425
vt 0.067048 0.212425
vt 0.067048 0.212425
vt 0.067048 0.212425
vt 0.067048 0.212425
vt 0.067048 0.212425
vt 0.067048 0.212425
vt 0.067048 0.212425
vt 0.067048 0.212425
vt 0.067048 0.212425
vt 0.067048 0.212425
vt 0.067048 0.212425
vt 0.067048 0.212425
vt 0.067048 0.212425
vt 0.067048 0.212425
vt 0.067048 0.212425
vt 0.067048 0.212425
vt 0.067048 0.212425
vt 0.067048 0.212425
vt 0.067048 0.212425
vt 0.067048 0.212425
vt 0.067048 0.212425
vt 0.067048 0.212425
vt 0.067048 0.212425
vt 0.067048 0.212425
vt 0.067048 0.212425
vt 0.067048 0.212425
vt 0.067048 0.212425
vt 0.067048 0.212425
vt 0.067048 0.212425
vt 0.067048 0.212425
vt 0.067048 0.212425
vt 0.067048 0.212425
vt 0.067048 0.212425
vt 0.067048 0.212425
vt 0.067048 0.212425
vt 0.067048 0.212425
vt 0.067048 0.212425
vt 0.067048 0.212425
vt 0.067048 0.212425
vt 0.067048 0.212425
vt 0.067048 0.212425
vt 0.067048 0.212425
vt 0.067048 0.212425
vt 0.067048 0.212425
vt 0.067048 0.212425
vt 0.067048 0.212425
vt 0.067048 0.212425
vt 0.067048 0.212425
vt 0.067048 0.212425
vt 0.067048 0.212425
vt 0.067048 0.212425
vt 0.067048 0.212425
vt 0.067048 0.212425
vt 0.067048 0.212425
vt 0.067048 0.212425
vt 0.067048 0.212425
vt 0.067048 0.212425
vt 0.067048 0.212425
vt 0.067048 0.212425
vt 0.067048 0.212425
vt 0.067048 0.212425
vt 0.067048 0.212425
vt 0.067048 0.212425
vt 0.067048 0.212425
vt 0.067048 0.212425
vt 0.067048 0.212425
vt 0.067048 0.212425
vt 0.067048 0.212425
vt 0.067048 0.212425
vt 0.067048 0.212425
vt 0.067048 0.212425
vt 0.067048 0.212425
vt 0.067048 0.212425
vt 0.067048 0.212425
vt 0.067048 0.212425
vt 0.067048 0.212425
vt 0.067048 0.212425
vn 0.707106 0.000000 -0.707108
vn 0.707106 0.000000 -0.707108
vn 0.707106 0.000000 -0.707108
vn 0.707106 0.000000 -0.707108
vn 0.258821 0.000000 -0.965925
vn 0.258821 0.000000 -0.965925
vn 0.258821 0.000000 -0.965925
vn 0.258821 0.000000 -0.965925
vn -0.258820 0.000000 -0.965926
vn -0.258820 0.000000 -0.965926
vn -0.258820 0.000000 -0.965926
vn -0.258820 0.000000 -0.965926
vn -0.707108 0.000000 -0.707105
vn -0.707108 0.000000 -0.707105
vn -0.707108 0.000000 -0.707105
vn -0.707108 0.000000 -0.707105
vn -0.965926 0.000000 -0.258819
vn -0.965926 0.000000 -0.258819
vn -0.965926 0.000000 -0.258819
vn -0.965926 0.000000 -0.258819
vn -0.965926 0.000000 0.258819
vn -0.965926 0.000000 0.258819
vn -0.965926 0.000000 0.258819
vn -0.965926 0.000000 0.258819
vn -0.707108 0.000000 0.707105
vn -0.707108 0.000000 0.707105
vn -0.707108 0.000000 0.707105
vn -0.707108 0.000000 0.707105
vn -0.258820 0.000000 0.965926
vn -0.258820 0.000000 0.965926
vn -0.258820 0.000000 0.965926
vn -0.258820 0.000000 0.965926
vn 0.258821 0.000000 0.965925
vn 0.258821 0.000000 0.965925
vn 0.258821 0.000000 0.965925
vn 0.258821 0.000000 0.965925
vn 0.707106 0.000000 0.707108
vn 0.707106 0.000000 0.707108
vn 0.707106 0.000000 0.707108
vn 0.707106 0.000000 0.707108
vn 0.965926 0.000000 0.258818
vn 0.965926 0.000000 0.258818
vn 0.965926 0.000000 0.258818
vn 0.965926 0.000000 0.258818
vn 0.965926 0.000000 -0.258818
vn 0.965926 0.000000 -0.258818
vn 0.965926 0.000000 -0.258818
vn 0.965926 0.000000 -0.258818
vn 0.106541 -0.988584 -0.106541
vn 0.106541 -0.988584 -0.106541
vn 0.106541 -0.988584 -0.106541
vn 0.106541 -0.988584 -0.106541
vn 0.038997 -0.988584 -0.145537
vn 0.038997 -0.988584 -0.145537
vn 0.038997 -0.988584 -0.145537
vn 0.038997 -0.988584 -0.145537
vn -0.038997 -0.988584 -0.145537
vn -0.038997 -0.988584 -0.145537
vn -0.038997 -0.988584 -0.145537
vn -0.038997 -0.988584 -0.145537
vn -0.106540 -0.988584 -0.106540
vn -0.106540 -0.988584 -0.106540
vn -0.106541 -0.988584 -0.106540
vn -0.106541 -0.988584 -0.106540
vn -0.145537 -0.988584 -0.038996
vn -0.145537 -0.988584 -0.038996
vn -0.145537 -0.988584 -0.038996
vn -0.145537 -0.988584 -0.038996
vn -0.145537 -0.988584 0.038996
vn -0.145537 -0.988584 0.038996
vn -0.145537 -0.988584 0.038996
vn -0.145537 -0.988584 0.038996
vn -0.106541 -0.988584 0.106541
vn -0.106541 -0.988584 0.106541
vn -0.106541 -0.988584 0.106541
vn -0.106541 -0.988584 0.106541
vn -0.038997 -0.988584 0.145537
vn -0.038997 -0.988584 0.145537
vn -0.038997 -0.988584 0.145537
vn -0.038997 -0.988584 0.145537
vn 0.038997 -0.988584 0.145537
vn 0.038997 -0.988584 0.145537
vn 0.038997 -0.988584 0.145537
vn 0.038997 -0.988584 0.145537
vn 0.106541 -0.988584 0.106541
vn 0.106541 -0.988584 0.106541
vn 0.106541 -0.988584 0.106541
vn 0.106541 -0.988584 0.106541
vn 0.145537 -0.988584 0.038997
vn 0.145537 -0.988584 0.038997
vn 0.145537 -0.988584 0.038997
vn 0.145537 -0.988584 0.038997
vn 0.145537 -0.988584 -0.038997
vn 0.145537 -0.988584 -0.038997
vn 0.145537 -0.988584 -0.038997
vn 0.145537 -0.988584 -0.038997
vn 0.106541 0.988584 -0.106541
vn 0.106541 0.988584 -0.106541
vn 0.106541 0.988584 -0.106541
vn 0.106541 0.988584 -0.106541
vn 0.038997 0.988584 -0.145537
vn 0.038997 0.988584 -0.145537
vn 0.038997 0.988584 -0.145537
vn 0.038997 0.988584 -0.145537
vn -0.038997 0.988584 -0.145537
vn -0.038997 0.988584 -0.145537
vn -0.038997 0.988584 -0.145537
vn -0.038997 0.988584 -0.145537
vn -0.106541 0.988584 -0.106540
vn -0.106541 0.988584 -0.106540
vn -0.106541 0.988584 -0.106540
vn -0.106541 0.988584 -0.106540
vn -0.145537 0.988584 -0.038996
vn -0.145537 0.988584 -0.038996
vn -0.145537 0.988584 -0.038996
vn -0.145537 0.988584 -0.038996
vn -0.145537 0.988584 0.038996
vn -0.145537 0.988584 0.038996
vn -0.145537 0.988584 0.038996
vn -0.145537 0.988584 0.038996
vn -0.106541 0.988584 0.106540
vn -0.106541 0.988584 0.106540
vn -0.106541 0.988584 0.106540
vn -0.106541 0.988584 0.106540
vn -0.038997 0.988584 0.145537
vn -0.038997 0.988584 0.145537
vn -0.038997 0.988584 0.145537
vn -0.038997 0.988584 0.145537
vn 0.038997 0.988584 0.145537
vn 0.038997 0.988584 0.145537
vn 0.038997 0.988584 0.145537
vn 0.038997 0.988584 0.145537
vn 0.106541 0.988584 0.106541
vn 0.106541 0.988584 0.106541
vn 0.106541 0.988584 0.106541
vn 0.106541 0.988584 0.106541
vn 0.145537 0.988584 0.038997
vn 0.145537 0.988584 0.038997
vn 0.145537 0.988584 0.038997
vn 0.145537 0.988584 0.038997
vn 0.145537 0.988584 -0.038997
vn 0.145537 0.988584 -0.038997
vn 0.145537 0.988584 -0.038997
vn 0.145537 0.988584 -0.038997
vn -0.705648 -0.064235 0.705645
vn -0.705648 -0.064235 0.705645
vn -0.705648 -0.064235 0.705645
vn -0.705648 -0.064235 0.705645
vn -0.258285 -0.064229 0.963931
vn -0.258285 -0.064229 0.963931
vn -0.258285 -0.064229 0.963931
vn -0.258285 -0.064229 0.963931
vn 0.258285 -0.064228 0.963931
vn 0.258285 -0.064228 0.963932
vn 0.258285 -0.064228 0.963932
vn 0.258285 -0.064228 0.963931
vn 0.705646 -0.064230 0.705647
vn 0.705646 -0.064230 0.705647
vn 0.705646 -0.064230 0.705647
vn 0.705646 -0.064230 0.705647
vn 0.963932 -0.064225 0.258284
vn 0.963932 -0.064225 0.258284
vn 0.963932 -0.064225 0.258284
vn 0.963932 -0.064225 0.258284
vn 0.963932 -0.064226 -0.258284
vn 0.963932 -0.064226 -0.258284
vn 0.963932 -0.064226 -0.258284
vn 0.963932 -0.064226 -0.258284
vn 0.705645 -0.064238 -0.705648
vn 0.705645 -0.064238 -0.705648
vn 0.705645 -0.064238 -0.705648
vn 0.705645 -0.064238 -0.705648
vn 0.258285 -0.064242 -0.963931
vn 0.258284 -0.064242 -0.963931
vn 0.258284 -0.064242 -0.963931
vn 0.258285 -0.064242 -0.963931
vn -0.258285 -0.064244 -0.963930
vn -0.258285 -0.064244 -0.963930
vn -0.258285 -0.064244 -0.963930
vn -0.258285 -0.064244 -0.963930
vn -0.705647 -0.064243 -0.705645
vn -0.705647 -0.064243 -0.705645
vn -0.705647 -0.064243 -0.705645
vn -0.705647 -0.064243 -0.705645
vn -0.963931 -0.064235 -0.258287
vn -0.963930 -0.064235 -0.258287
vn -0.963931 -0.064235 -0.258287
vn -0.963930 -0.064235 -0.258287
vn -0.963930 -0.064234 0.258287
vn -0.963930 -0.064234 0.258287
vn -0.963930 -0.064234 0.258287
vn -0.963930 -0.064234 0.258287
vn -0.705649 0.064235 0.705644
vn -0.705648 0.064235 0.705644
vn -0.705648 0.064235 0.705644
vn -0.705649 0.064235 0.705644
vn -0.258285 0.064229 0.963931
vn -0.258285 0.064229 0.963931
vn -0.258285 0.064229 0.963931
vn -0.258285 0.064229 0.963931
vn 0.258285 0.064228 0.963931
vn 0.258285 0.064228 0.963931
vn 0.258285 0.064228 0.963931
vn 0.258285 0.064228 0.963931
vn 0.705646 0.064230 0.705647
vn 0.705646 0.064230 0.705647
vn 0.705646 0.064230 0.705647
vn 0.705646 0.064230 0.705647
vn 0.963932 0.064225 0.258284
vn 0.963932 0.064225 0.258284
vn 0.963932 0.064225 0.258284
vn 0.963932 0.064225 0.258284
vn 0.963932 0.064226 -0.258284
vn 0.963932 0.064226 -0.258284
vn 0.963932 0.064226 -0.258284
vn 0.963932 0.064226 -0.258284
vn 0.705645 0.064238 -0.705648
vn 0.705645 0.064238 -0.705648
vn 0.705645 0.064238 -0.705648
vn 0.705645 0.064238 -0.705648
vn 0.258285 0.064242 -0.963930
vn 0.258285 0.064242 -0.963930
vn 0.258285 0.064242 -0.963930
vn 0.258285 0.064242 -0.963930
vn -0.258285 0.064244 -0.963930
vn -0.258285 0.064244 -0.963930
vn -0.258285 0.064244 -0.963930
vn -0.258285 0.064244 -0.963930
vn -0.705647 0.064243 -0.705645
vn -0.705647 0.064243 -0.705645
vn -0.705647 0.064243 -0.705645
vn -0.705647 0.064243 -0.705645
vn -0.963930 0.064235 -0.258287
vn -0.963931 0.064235 -0.258287
vn -0.963930 0.064235 -0.258287
vn -0.963930 0.064235 -0.258287
vn -0.963930 0.064234 0.258287
vn -0.963930 0.064234 0.258287
vn -0.963930 0.064234 0.258287
vn -0.963930 0.064234 0.258287
vn -0.131324 0.982603 0.131323
vn -0.131324 0.982603 0.131323
vn -0.131324 0.982603 0.131323
vn -0.131324 0.982603 0.131323
vn -0.048068 0.982603 0.179391
vn -0.048068 0.982603 0.179391
vn -0.048068 0.982603 0.179391
vn -0.048068 0.982603 0.179391
vn 0.048068 0.982603 0.179391
vn 0.048068 0.982603 0.179391
vn 0.048068 0.982603 0.179391
vn 0.048068 0.982603 0.179391
vn 0.131323 0.982603 0.131323
vn 0.131323 0.982603 0.131323
vn 0.131323 0.982603 0.131323
vn 0.131323 0.982603 0.131323
vn 0.179391 0.982603 0.048067
vn 0.179391 0.982603 0.048067
vn 0.179391 0.982603 0.048067
vn 0.179391 0.982603 0.048067
vn 0.179391 0.982603 -0.048067
vn 0.179391 0.982603 -0.048067
vn 0.179391 0.982603 -0.048067
vn 0.179391 0.982603 -0.048067
vn 0.131322 0.982603 -0.131323
vn 0.131322 0.982603 -0.131323
vn 0.131322 0.982603 -0.131323
vn 0.131322 0.982603 -0.131323
vn 0.048068 0.982603 -0.179390
vn 0.048068 0.982603 -0.179390
vn 0.048068 0.982603 -0.179390
vn 0.048068 0.982603 -0.179390
vn -0.048068 0.982603 -0.179390
vn -0.048068 0.982603 -0.179390
vn -0.048068 0.982603 -0.179390
vn -0.048068 0.982603 -0.179390
vn -0.131323 0.982603 -0.131323
vn -0.131323 0.982603 -0.131323
vn -0.131323 0.982603 -0.131323
vn -0.131323 0.982603 -0.131323
vn -0.179391 0.982603 -0.048068
vn -0.179391 0.982603 -0.048068
vn -0.179391 0.982603 -0.048068
vn -0.179391 0.982603 -0.048068
vn -0.179391 0.982603 0.048068
vn -0.179391 0.982603 0.048068
vn -0.179391 0.982603 0.048068
vn -0.179391 0.982603 0.048068
vn -0.131324 -0.982603 0.131323
vn -0.131324 -0.982603 0.131323
vn -0.131324 -0.982603 0.131323
vn -0.131324 -0.982603 0.131323
vn -0.048068 -0.982603 0.179391
vn -0.048068 -0.982603 0.179391
vn -0.048068 -0.982603 0.179391
vn -0.048068 -0.982603 0.179391
vn 0.048068 -0.982603 0.179391
vn 0.048068 -0.982603 0.179391
vn 0.048068 -0.982603 0.179391
vn 0.048068 -0.982603 0.179391
vn 0.131323 -0.982603 0.131323
vn 0.131323 -0.982603 0.131323
vn 0.131323 -0.982603 0.131323
vn 0.131323 -0.982603 0.131323
vn 0.179391 -0.982603 0.048067
vn 0.179391 -0.982603 0.048067
vn 0.179391 -0.982603 0.048067
vn 0.179391 -0.982603 0.048067
vn 0.179391 -0.982603 -0.048067
vn 0.179391 -0.982603 -0.048067
vn 0.179391 -0.982603 -0.048067
vn 0.179391 -0.982603 -0.048067
vn 0.131322 -0.982603 -0.131323
vn 0.131322 -0.982603 -0.131323
vn 0.131322 -0.982603 -0.131323
vn 0.131322 -0.982603 -0.131323
vn 0.048068 -0.982603 -0.179390
vn 0.048068 -0.982603 -0.179390
vn 0.048068 -0.982603 -0.179390
vn 0.048068 -0.982603 -0.179390
vn -0.048068 -0.982603 -0.179390
vn -0.048068 -0.982603 -0.179390
vn -0.048068 -0.982603 -0.179390
vn -0.048068 -0.982603 -0.179390
vn -0.131323 -0.982603 -0.131323
vn -0.131323 -0.982603 -0.131323
vn -0.131323 -0.982603 -0.131323
vn -0.131323 -0.982603 -0.131323
vn -0.179391 -0.982603 -0.048068
vn -0.179391 -0.982603 -0.048068
vn -0.179391 -0.982603 -0.048068
vn -0.179391 -0.982603 -0.048068
vn -0.179391 -0.982603 0.048068
vn -0.179391 -0.982603 0.048068
vn -0.179391 -0.982603 0.048068
vn -0.179391 -0.982603 0.048068
vn -0.707110 0.000001 0.707104
vn -0.707110 0.000001 0.707104
vn -0.707110 0.000001 0.707104
vn -0.707110 0.000001 0.707104
vn -0.258820 0.000001 0.965926
vn -0.258820 0.000001 0.965926
vn -0.258820 0.000001 0.965926
vn -0.258820 0.000001 0.965926
vn 0.258820 -0.000000 0.965926
vn 0.258820 -0.000000 0.965926
vn 0.258820 -0.000000 0.965926
vn 0.258820 -0.000000 0.965926
vn 0.707106 0.000000 0.707108
vn 0.707106 0.000000 0.707108
vn 0.707106 0.000000 0.707108
vn 0.707106 0.000000 0.707108
vn 0.965927 0.000000 0.258815
vn 0.965927 0.000000 0.258815
vn 0.965927 0.000000 0.258815
vn 0.965927 0.000000 0.258815
vn 0.965927 -0.000000 -0.258815
vn 0.965927 -0.000000 -0.258815
vn 0.965927 -0.000000 -0.258815
vn 0.965927 -0.000000 -0.258815
vn 0.707105 0.000000 -0.707109
vn 0.707105 0.000000 -0.707109
vn 0.707105 0.000000 -0.707109
vn 0.707105 0.000000 -0.707109
vn 0.258821 -0.000002 -0.965925
vn 0.258821 -0.000002 -0.965925
vn 0.258821 -0.000002 -0.965925
vn 0.258821 -0.000002 -0.965925
vn -0.258821 -0.000001 -0.965925
vn -0.258821 -0.000001 -0.965925
vn -0.258821 -0.000001 -0.965925
vn -0.258821 -0.000001 -0.965925
vn -0.707109 0.000000 -0.707105
vn -0.707109 0.000000 -0.707105
vn -0.707109 0.000000 -0.707105
vn -0.707109 0.000000 -0.707105
vn -0.965925 -0.000000 -0.258822
vn -0.965925 -0.000000 -0.258822
vn -0.965925 -0.000000 -0.258822
vn -0.965925 -0.000000 -0.258822
vn -0.965925 0.000000 0.258822
vn -0.965925 0.000000 0.258822
vn -0.965925 0.000000 0.258822
vn -0.965925 0.000000 0.258822
s off
f 1/13/1 2/14/2 14/27/3 13/26/4
f 2/14/5 3/15/6 15/28/7 14/27/8
f 3/15/9 4/16/10 16/29/11 15/28/12
f 4/16/13 5/17/14 17/30/15 16/29/16
f 5/17/17 6/18/18 18/31/19 17/30/20
f 6/18/21 7/19/22 19/32/23 18/31/24
f 7/19/25 8/20/26 20/33/27 19/32/28
f 8/20/29 9/21/30 21/34/31 20/33/32
f 9/21/33 10/22/34 22/35/35 21/34/36
f 10/22/37 11/23/38 23/36/39 22/35/40
f 11/23/41 12/24/42 24/37/43 23/36/44
f 12/24/45 1/25/46 13/38/47 24/37/48
f 2/2/49 1/1/50 25/52/51 26/51/52
f 3/3/53 2/2/54 26/51/55 27/53/56
f 4/4/57 3/3/58 27/53/59 28/54/60
f 5/5/61 4/4/62 28/54/63 29/55/64
f 6/6/65 5/5/66 29/55/67 30/56/68
f 7/7/69 6/6/70 30/56/71 31/57/72
f 8/8/73 7/7/74 31/57/75 32/58/76
f 9/9/77 8/8/78 32/58/79 33/59/80
f 10/10/81 9/9/82 33/59/83 34/60/84
f 11/11/85 10/10/86 34/60/87 35/61/88
f 12/12/89 11/11/90 35/61/91 36/62/92
f 1/1/93 12/12/94 36/62/95 25/52/96
f 13/49/97 14/48/98 38/64/99 37/63/100
f 14/48/101 15/47/102 39/65/103 38/64/104
f 15/47/105 16/46/106 40/66/107 39/65/108
f 16/46/109 17/45/110 41/67/111 40/66/112
f 17/45/113 18/44/114 42/68/115 41/67/116
f 18/44/117 19/43/118 43/69/119 42/68/120
f 19/43/121 20/42/122 44/70/123 43/69/124
f 20/42/125 21/41/126 45/71/127 44/70/128
f 21/41/129 22/40/130 46/72/131 45/71/132
f 22/40/133 23/39/134 47/73/135 46/72/136
f 23/39/137 24/50/138 48/74/139 47/73/140
f 24/50/141 13/49/142 37/63/143 48/74/144
f 26/51/145 25/52/146 49/76/147 50/75/148
f 27/53/149 26/51/150 50/75/151 51/77/152
f 28/54/153 27/53/154 51/77/155 52/78/156
f 29/55/157 28/54/158 52/78/159 53/79/160
f 30/56/161 29/55/162 53/79/163 54/80/164
f 31/57/165 30/56/166 54/80/167 55/81/168
f 32/58/169 31/57/170 55/81/171 56/82/172
f 33/59/173 32/58/174 56/82/175 57/83/176
f 34/60/177 33/59/178 57/83/179 58/84/180
f 35/61/181 34/60/182 58/84/183 59/85/184
f 36/62/185 35/61/186 59/85/187 60/86/188
f 25/52/189 36/62/190 60/86/191 49/76/192
f 37/63/193 38/64/194 62/88/195 61/87/196
f 38/64/197 39/65/198 63/89/199 62/88/200
f 39/65/201 40/66/202 64/90/203 63/89/204
f 40/66/205 41/67/206 65/91/207 64/90/208
f 41/67/209 42/68/210 66/92/211 65/91/212
f 42/68/213 43/69/214 67/93/215 66/92/216
f 43/69/217 44/70/218 68/94/219 67/93/220
f 44/70/221 45/71/222 69/95/223 68/94/224
f 45/71/225 46/72/226 70/96/227 69/95/228
f 46/72/229 47/73/230 71/97/231 70/96/232
f 47/73/233 48/74/234 72/98/235 71/97/236
f 48/74/237 37/63/238 61/87/239 72/98/240
f 50/75/241 49/76/242 73/100/243 74/99/244
f 51/77/245 50/75/246 74/99/247 75/101/248
f 52/78/249 51/77/250 75/101/251 76/102/252
f 53/79/253 52/78/254 76/102/255 77/103/256
f 54/80/257 53/79/258 77/103/259 78/104/260
f 55/81/261 54/80/262 78/104/263 79/105/264
f 56/82/265 55/81/266 79/105/267 80/106/268
f 57/83/269 56/82/270 80/106/271 81/107/272
f 58/84/273 57/83/274 81/107/275 82/108/276
f 59/85/277 58/84/278 82/108/279 83/109/280
f 60/86/281 59/85/282 83/109/283 84/110/284
f 49/76/285 60/86/286 84/110/287 73/100/288
f 61/87/289 62/88/290 86/112/291 85/111/292
f 62/88/293 63/89/294 87/113/295 86/112/296
f 63/89/297 64/90/298 88/114/299 87/113/300
f 64/90/301 65/91/302 89/115/303 88/114/304
f 65/91/305 66/92/306 90/116/307 89/115/308
f 66/92/309 67/93/310 91/117/311 90/116/312
f 67/93/313 68/94/314 92/118/315 91/117/316
f 68/94/317 69/95/318 93/119/319 92/118/320
f 69/95/321 70/96/322 94/120/323 93/119/324
f 70/96/325 71/97/326 95/121/327 94/120/328
f 71/97/329 72/98/330 96/122/331 95/121/332
f 72/98/333 61/87/334 85/111/335 96/122/336
f 85/111/337 86/112/338 74/124/339 73/123/340
f 86/112/341 87/113/342 75/125/343 74/124/344
f 87/113/345 88/114/346 76/126/347 75/125/348
f 88/114/349 89/115/350 77/127/351 76/126/352
f 89/115/353 90/116/354 78/128/355 77/127/356
f 90/116/357 91/117/358 79/129/359 78/128/360
f 91/117/361 92/118/362 80/130/363 79/129/364
f 92/118/365 93/119/366 81/131/367 80/130/368
f 93/119/369 94/120/370 82/132/371 81/131/372
f 94/120/373 95/121/374 83/133/375 82/132/376
f 95/121/377 96/122/378 84/134/379 83/133/380
f 96/122/381 85/111/382 73/123/383 84/134/384
