# This file uses meters as units for non-parametric coordinates.

v -21.975098 24.241150 -13.556763
v -21.975098 24.241150 13.556763
v -15.116882 24.241150 -7.399048
v -14.976013 24.241150 6.889954
v 14.632507 24.241150 6.914612
v 14.496277 24.241150 -7.350037
v 1.793457 24.241150 6.903870
v 1.655212 24.241150 -7.371338
v -2.257996 24.241150 6.900513
v -2.396851 24.241150 -7.378052
v -2.257996 0.490402 6.900513
v -2.396851 0.490402 -7.378052
v -15.116882 0.490402 -7.399048
v -14.976013 0.490402 6.889954
v 14.632507 0.490402 6.914612
v 14.496277 0.490402 -7.350037
v 1.655212 0.490402 -7.371338
v 1.793457 0.490402 6.903870
v -21.975098 3.771591 -13.556763
v -20.266449 0.000000 -13.556763
v -21.975098 3.619003 13.556763
v -18.770905 0.406990 13.556763
v 21.975098 0.530426 -13.556824
v 21.975098 0.530426 13.556763
v 21.512177 24.241150 3.999756
v 21.495422 24.241150 -13.556824
v 13.509590 24.241150 13.556763
v 21.626640 18.737236 13.556763
vt 0.524890 0.153730
vt 0.524890 0.153730
vt 0.524890 0.153730
vt 0.524890 0.153730
vt 0.524890 0.153730
vt 0.524890 0.153730
vt 0.524890 0.153730
vt 0.524890 0.153730
vt 0.524890 0.153730
vt 0.524890 0.153730
vt 0.524890 0.153730
vt 0.524890 0.153730
vt 0.524890 0.153730
vt 0.524890 0.153730
vt 0.524890 0.153730
vt 0.524890 0.153730
vt 0.524890 0.153730
vt 0.524890 0.153730
vt 0.524890 0.153730
vt 0.524890 0.153730
vt 0.524890 0.153730
vt 0.524890 0.153730
vt 0.524890 0.153730
vt 0.524890 0.153730
vt 0.524890 0.153730
vt 0.524890 0.153730
vt 0.524890 0.153730
vt 0.524890 0.153730
vt 0.524890 0.153730
vt 0.524890 0.153730
vt 0.524890 0.153730
vt 0.524890 0.153730
vt 0.524890 0.153730
vt 0.524890 0.153730
vt 0.524890 0.153730
vt 0.524890 0.153730
vt 0.524890 0.153730
vt 0.524890 0.153730
vt 0.524890 0.153730
vt 0.524890 0.153730
vt 0.524890 0.153730
vt 0.524890 0.153730
vt 0.524890 0.153730
vt 0.524890 0.153730
vt 0.524890 0.153730
vt 0.524890 0.153730
vt 0.524890 0.153730
vt 0.524890 0.153730
vt 0.524890 0.153730
vt 0.524890 0.153730
vt 0.524890 0.153730
vt 0.524890 0.153730
vt 0.524890 0.153730
vt 0.524890 0.153730
vt 0.524890 0.153730
vt 0.524890 0.153730
vt 0.524890 0.153730
vt 0.524890 0.153730
vt 0.524890 0.153730
vt 0.524890 0.153730
vt 0.524890 0.153730
vt 0.524890 0.153730
vt 0.524890 0.153730
vt 0.524890 0.153730
vt 0.524890 0.153730
vt 0.524890 0.153730
vn -1.000000 0.000000 0.000000
vn -1.000000 0.000000 0.000000
vn -1.000000 0.000000 0.000000
vn -1.000000 0.000000 0.000000
vn 0.000000 1.000000 -0.000000
vn 0.000000 1.000000 -0.000000
vn 0.000000 1.000000 -0.000000
vn 0.000000 1.000000 -0.000000
vn 0.000000 1.000000 0.000000
vn 0.000000 1.000000 0.000000
vn 0.000000 1.000000 0.000000
vn 0.000000 1.000000 0.000000
vn -0.999953 0.000000 0.009724
vn -0.999953 0.000000 0.009724
vn -0.999953 0.000000 0.009724
vn -0.999953 0.000000 0.009724
vn -0.001651 0.000000 0.999999
vn -0.001651 0.000000 0.999999
vn -0.001651 0.000000 0.999999
vn -0.001651 0.000000 0.999999
vn 0.999951 0.000000 -0.009858
vn 0.999951 0.000000 -0.009858
vn 0.999951 0.000000 -0.009858
vn 0.999951 0.000000 -0.009858
vn 0.000830 0.000000 -1.000000
vn 0.000830 0.000000 -1.000000
vn 0.000830 0.000000 -1.000000
vn 0.000830 0.000000 -1.000000
vn -0.999954 0.000000 0.009550
vn -0.999954 0.000000 0.009550
vn -0.999954 0.000000 0.009550
vn -0.999954 0.000000 0.009550
vn -0.001659 0.000000 0.999999
vn -0.001659 0.000000 0.999999
vn -0.001659 0.000000 0.999999
vn -0.001659 0.000000 0.999999
vn 0.999953 0.000000 -0.009684
vn 0.999953 0.000000 -0.009684
vn 0.999953 0.000000 -0.009684
vn 0.999953 0.000000 -0.009684
vn 0.000837 0.000000 -1.000000
vn 0.000837 0.000000 -1.000000
vn 0.000837 0.000000 -1.000000
vn 0.000837 0.000000 -1.000000
vn -0.817631 -0.575189 0.025248
vn -0.817631 -0.575189 0.025248
vn -0.817631 -0.575189 0.025248
vn -0.817631 -0.575189 0.025248
vn -0.000000 0.000000 1.000000
vn -0.000000 0.000000 1.000000
vn -0.000000 0.000000 1.000000
vn -0.000000 0.000000 1.000000
vn 0.000000 1.000000 -0.000000
vn 0.000000 1.000000 -0.000000
vn 0.000000 1.000000 -0.000000
vn 0.000000 1.000000 -0.000000
vn 0.000000 1.000000 -0.000000
vn 0.000000 1.000000 -0.000000
vn -0.000001 -0.000000 -1.000000
vn -0.000001 -0.000000 -1.000000
vn -0.000001 -0.000000 -1.000000
vn -0.000001 -0.000000 -1.000000
vn -0.000001 -0.000000 -1.000000
vn 0.000000 1.000000 0.000000
vn 0.000000 1.000000 0.000000
vn 0.000000 1.000000 0.000000
vn 0.000000 1.000000 0.000000
vn 0.999806 0.019704 -0.000457
vn 0.999806 0.019704 -0.000457
vn 0.999806 0.019704 -0.000457
vn 0.999806 0.019704 -0.000457
vn 0.999806 0.019704 -0.000457
vn 0.000010 -0.999922 -0.012505
vn 0.000010 -0.999922 -0.012505
vn 0.000010 -0.999922 -0.012505
vn -0.000131 -0.996835 0.079498
vn -0.000131 -0.996835 0.079498
vn -0.000131 -0.996835 0.079498
vn 0.002756 -0.999988 -0.004020
vn 0.002756 -0.999988 -0.004020
vn 0.002756 -0.999988 -0.004020
vn 0.002756 -0.999988 -0.004020
vn 0.064431 -0.997896 0.007263
vn 0.064431 -0.997896 0.007263
vn 0.064431 -0.997896 0.007263
vn 0.064431 -0.997896 0.007263
vn 0.000011 -0.999979 -0.006435
vn 0.000011 -0.999979 -0.006435
vn 0.000011 -0.999979 -0.006435
vn 0.000000 -1.000000 -0.000000
vn 0.000000 -1.000000 -0.000000
vn 0.000000 -1.000000 -0.000000
vn 0.000000 -1.000000 -0.000000
vn 0.005401 -0.999985 -0.000018
vn 0.005401 -0.999985 -0.000018
vn 0.005401 -0.999985 -0.000018
vn 0.005401 -0.999985 -0.000018
vn -0.000005 -0.999982 0.006031
vn -0.000005 -0.999982 0.006031
vn -0.000005 -0.999982 0.006031
vn 0.011443 -0.999187 0.038664
vn 0.011443 -0.999187 0.038664
vn 0.011443 -0.999187 0.038664
vn 0.011443 -0.999187 0.038664
vn 0.507927 0.749079 0.425314
vn 0.507927 0.749079 0.425314
vn 0.507927 0.749079 0.425314
vn 0.000000 1.000000 0.000000
vn 0.000000 1.000000 0.000000
vn 0.000000 1.000000 0.000000
vn 0.000000 1.000000 0.000000
vn 0.000000 1.000000 0.000000
vn 0.000000 1.000000 0.000000
vn 0.000000 1.000000 -0.000000
vn 0.000000 1.000000 -0.000000
vn 0.000000 1.000000 -0.000000
vn 0.000000 0.000000 1.000000
vn 0.000000 0.000000 1.000000
vn 0.000000 0.000000 1.000000
vn 0.000000 0.000000 1.000000
s off
f 19/32/1 21/35/2 2/5/3 1/6/4
f 2/4/5 4/8/6 3/7/7 1/1/8
f 7/11/9 8/12/10 10/14/11 9/13/12
f 9/23/13 10/24/14 12/16/15 11/15/16
f 10/24/17 3/25/18 13/17/19 12/16/20
f 3/25/21 4/26/22 14/18/23 13/17/24
f 4/26/25 9/23/26 11/15/27 14/18/28
f 5/27/29 6/28/30 16/20/31 15/19/32
f 6/28/33 8/29/34 17/21/35 16/20/36
f 8/29/37 7/30/38 18/22/39 17/21/40
f 7/30/41 5/27/42 15/19/43 18/22/44
f 21/37/45 19/38/46 20/49/47 22/50/48
f 2/3/49 21/34/50 28/65/51 27/63/52
f 6/10/53 26/43/54 1/1/55 3/7/56 10/14/57 8/12/58
f 26/44/59 23/39/60 20/33/61 19/31/62 1/2/63
f 6/10/64 5/9/65 25/42/66 26/43/67
f 26/45/68 25/46/69 28/66/70 24/47/71 23/48/72
f 14/51/73 11/52/74 22/53/75
f 12/57/76 13/58/77 20/59/78
f 24/56/79 22/53/80 11/52/81 18/54/82
f 14/51/83 22/53/84 20/59/85 13/58/86
f 17/61/87 23/62/88 16/60/89
f 12/57/90 17/61/91 18/54/92 11/52/93
f 15/55/94 16/60/95 23/62/96 24/56/97
f 24/56/98 18/54/99 15/55/100
f 12/57/101 20/59/102 23/62/103 17/61/104
f 27/63/105 28/65/106 25/41/107
f 27/64/108 5/9/109 7/11/110 9/13/111 4/8/112 2/4/113
f 27/64/114 25/42/115 5/9/116
f 28/65/117 21/34/118 22/36/119 24/40/120
