# This file uses meters as units for non-parametric coordinates.

v -28.461548 6.919434 122.372742
v -28.622032 11.015644 120.744568
v -30.817875 15.036299 -115.212097
v -31.144230 10.454269 -114.260620
v -37.350060 5.606383 123.919678
v -40.351280 11.090082 -125.855652
v -40.719425 6.489704 -125.993835
v -37.143188 1.405728 126.422241
v 14.065041 14.623843 -126.208191
v 15.782017 10.193598 131.045959
v 16.017288 5.085040 133.310242
v 13.729919 10.065402 -125.057434
v 6.685287 17.526527 124.565369
v 5.264748 19.999659 -123.043701
v 4.936676 15.422276 -121.491760
v 6.853851 13.094595 125.698975
v -1.933380 13.666613 123.988647
v -4.176826 13.727369 -121.273560
v -4.571625 8.333496 -120.041199
v -1.744713 9.167620 125.584290
v -10.509445 15.689299 128.486328
v -12.855873 18.495537 -122.905701
v -13.183334 13.916454 -121.237732
v -10.384907 12.658297 129.798523
v -19.281353 11.544147 128.789612
v -22.221706 11.887392 -112.808533
v -22.596539 6.814193 -111.640808
v -19.110371 7.077400 130.491333
v 51.906403 0.341734 129.895264
v 48.841885 6.276673 -119.618652
v 48.509800 1.710100 -118.612427
v 52.105957 -4.076413 131.735962
v 42.632874 4.714979 129.576721
v 40.208149 11.203421 -121.001648
v 39.849312 6.708948 -119.740479
v 42.821976 0.299538 131.426819
v 33.691517 3.469986 131.837219
v 30.953594 7.265228 -120.632935
v 30.528137 2.950315 -118.736755
v 33.926044 -1.563068 133.927002
v 24.436077 12.622669 129.103088
v 23.127373 12.902175 -128.571838
v 22.804466 9.218502 -127.294312
v 24.627151 8.248486 131.737976
v -46.451889 9.909788 124.131836
v -49.178425 15.998251 -126.293152
v -49.503464 11.412677 -126.446472
v -46.275337 5.484323 125.803467
v -55.302578 5.010169 126.537598
v -58.452854 12.113564 -125.679993
v -58.778969 7.530896 -125.794678
v -55.128704 0.564668 128.307068
v -3.861958 -0.646812 48.294495
v -11.845486 2.221270 46.293274
v -18.921856 -2.657694 47.783813
v -26.966595 4.818676 55.315979
v -34.391548 2.875717 63.594971
v -43.214268 5.579122 58.959229
v -52.202000 -0.945707 55.642517
v -52.380688 3.476433 54.061279
v -43.465622 9.513420 56.133423
v -34.496193 8.152012 64.198120
v -27.238129 8.761153 52.513367
v -19.102406 1.387870 45.236267
v -12.146091 6.938070 45.187988
v -3.697803 3.759233 46.486755
v 3.675217 13.567591 54.054443
v 12.404320 7.635473 48.150574
v 19.791691 10.580614 40.367554
v 28.815228 3.578158 33.401245
v 38.741966 11.383700 39.906982
v 49.259411 8.785742 44.636902
v 49.613319 4.411634 46.323181
v 38.937714 6.609877 40.583984
v 29.321503 0.054729 37.254883
v 19.981781 5.712446 40.824341
v 12.116745 1.935728 46.733337
v 4.030788 8.142025 53.547119
v -6.948315 -5.544352 -58.616150
v 1.721809 -2.183656 -61.725830
v 9.861328 -8.745213 -57.433533
v 17.909805 -4.955191 -62.390991
v 24.334335 -10.302460 -68.551208
v 35.569622 -5.860935 -60.366272
v 44.826626 -10.441099 -51.827515
v 45.084625 -5.751339 -52.496033
v 36.167770 -1.051531 -58.835938
v 23.682770 -5.783574 -73.082825
v 18.621376 -0.148956 -60.805969
v 10.044983 -4.244220 -62.624878
v 1.942543 2.022846 -63.584534
v -6.795780 -0.441066 -67.630249
v -15.091145 2.377841 -52.102905
v -21.923145 -0.721177 -35.074402
v -32.636463 3.377100 -52.548706
v -41.560478 -0.252425 -45.808289
v -49.639301 6.875276 -13.124390
v -58.119896 2.503024 -17.676270
v -57.292709 -2.828181 -26.112366
v -50.160370 1.636250 -21.352173
v -42.141182 -5.505926 -54.319153
v -32.760071 -1.158851 -49.333130
v -22.835003 -5.660949 -38.947998
v -15.161949 -2.109113 -48.066711
vt 0.100088 0.255417
vt 0.100088 0.255417
vt 0.027672 0.277443
vt 0.027672 0.277443
vt 0.100088 0.255417
vt 0.100088 0.255417
vt 0.027672 0.277444
vt 0.027672 0.277443
vt 0.100088 0.255417
vt 0.100088 0.255417
vt 0.100088 0.255417
vt 0.100088 0.255417
vt 0.100088 0.255417
vt 0.100088 0.255417
vt 0.100088 0.255417
vt 0.100088 0.255417
vt 0.100088 0.255417
vt 0.100088 0.255417
vt 0.100088 0.255417
vt 0.100088 0.255417
vt 0.027678 0.277443
vt 0.027678 0.277444
vt 0.100088 0.255417
vt 0.100088 0.255417
vt 0.027678 0.277443
vt 0.027678 0.277443
vt 0.100088 0.255417
vt 0.100088 0.255417
vt 0.027678 0.277443
vt 0.027678 0.277443
vt 0.100088 0.255417
vt 0.027678 0.277444
vt 0.027678 0.277444
vt 0.100088 0.255417
vt 0.100088 0.255417
vt 0.100088 0.255417
vt 0.100088 0.255417
vt 0.100088 0.255417
vt 0.100088 0.255417
vt 0.100088 0.255417
vt 0.100088 0.255417
vt 0.100088 0.255417
vt 0.100088 0.255417
vt 0.100088 0.255417
vt 0.100088 0.255417
vt 0.027672 0.277443
vt 0.100088 0.255417
vt 0.027679 0.277443
vt 0.100088 0.255417
vt 0.100088 0.255417
vt 0.027679 0.277443
vt 0.100088 0.255417
vt 0.027672 0.277443
vt 0.100088 0.255417
vt 0.100088 0.255417
vt 0.100088 0.255417
vt 0.100088 0.255417
vt 0.100088 0.255417
vt 0.100088 0.255417
vt 0.100088 0.255417
vt 0.027678 0.277444
vt 0.100088 0.255417
vt 0.100088 0.255417
vt 0.027678 0.277443
vt 0.027678 0.277444
vt 0.027678 0.277443
vt 0.100088 0.255417
vt 0.100088 0.255417
vt 0.100088 0.255417
vt 0.100088 0.255417
vt 0.027679 0.277443
vt 0.100088 0.255417
vt 0.027679 0.277444
vt 0.100088 0.255417
vt 0.100088 0.255417
vt 0.100088 0.255417
vt 0.100088 0.255417
vt 0.100088 0.255417
vt 0.100088 0.255417
vt 0.100088 0.255417
vt 0.100088 0.255417
vt 0.100088 0.255417
vt 0.100088 0.255417
vt 0.100088 0.255417
vt 0.100088 0.255417
vt 0.100088 0.255417
vt 0.100088 0.255417
vt 0.100088 0.255417
vt 0.100088 0.255417
vt 0.100088 0.255417
vt 0.100088 0.255417
vt 0.100088 0.255417
vt 0.100088 0.255417
vt 0.100088 0.255417
vt 0.100088 0.255417
vt 0.100088 0.255417
vt 0.100088 0.255417
vt 0.100088 0.255417
vt 0.100088 0.255417
vt 0.100088 0.255417
vt 0.100088 0.255417
vt 0.100088 0.255417
vt 0.100088 0.255417
vt 0.100088 0.255417
vt 0.100088 0.255417
vt 0.100088 0.255417
vt 0.100088 0.255417
vt 0.100088 0.255417
vt 0.100088 0.255417
vt 0.100088 0.255417
vt 0.100088 0.255417
vt 0.100088 0.255417
vt 0.100088 0.255417
vt 0.100088 0.255417
vt 0.100088 0.255417
vt 0.100088 0.255417
vt 0.100088 0.255417
vt 0.100088 0.255417
vt 0.100088 0.255417
vt 0.100088 0.255417
vt 0.100088 0.255417
vt 0.100088 0.255417
vt 0.100088 0.255417
vt 0.100088 0.255417
vt 0.100088 0.255417
vt 0.100088 0.255417
vt 0.100088 0.255417
vt 0.027679 0.277443
vt 0.027679 0.277443
vt 0.027679 0.277443
vt 0.100088 0.255417
vt 0.100088 0.255417
vt 0.100088 0.255417
vt 0.100088 0.255417
vt 0.100088 0.255417
vt 0.100088 0.255417
vt 0.100088 0.255417
vt 0.027679 0.277443
vt 0.027679 0.277443
vt 0.027679 0.277443
vt 0.027679 0.277444
vt 0.027679 0.277443
vt 0.027679 0.277444
vt 0.027679 0.277444
vt 0.027678 0.277443
vt 0.027678 0.277443
vt 0.027678 0.277443
vt 0.027678 0.277443
vt 0.027678 0.277443
vt 0.027678 0.277443
vt 0.027672 0.277443
vt 0.027672 0.277444
vt 0.027672 0.277443
vt 0.027672 0.277443
vt 0.027672 0.277443
vt 0.027672 0.277443
vt 0.027672 0.277443
vt 0.027672 0.277444
vt 0.027672 0.277443
vt 0.027672 0.277443
vt 0.027672 0.277443
vt 0.027672 0.277443
vt 0.027679 0.277443
vt 0.027676 0.277443
vt 0.027678 0.277443
vt 0.027678 0.277443
vt 0.027678 0.277443
vt 0.027678 0.277443
vt 0.027678 0.277443
vt 0.027678 0.277443
vt 0.027678 0.277443
vt 0.027678 0.277443
vt 0.027679 0.277443
vt 0.027679 0.277444
vt 0.027678 0.277444
vt 0.027678 0.277444
vt 0.027678 0.277444
vt 0.027678 0.277444
vt 0.027678 0.277443
vt 0.027678 0.277444
vt 0.027679 0.277443
vt 0.027679 0.277443
vt 0.027672 0.277443
vt 0.027672 0.277443
vt 0.027672 0.277444
vt 0.027672 0.277443
vn -0.299468 0.953103 -0.043752
vn -0.299469 0.953103 -0.043752
vn -0.299468 0.953103 -0.043752
vn -0.299469 0.953103 -0.043752
vn 0.775015 -0.113675 -0.621634
vn 0.775016 -0.113675 -0.621634
vn 0.775015 -0.113675 -0.621634
vn 0.775015 -0.113675 -0.621634
vn 0.356874 -0.933359 0.038502
vn 0.356874 -0.933359 0.038502
vn 0.356874 -0.933359 0.038502
vn 0.356874 -0.933359 0.038502
vn 0.088862 0.447073 0.890073
vn 0.088862 0.447073 0.890073
vn 0.088862 0.447073 0.890073
vn 0.088862 0.447073 0.890073
vn 0.031707 0.459896 0.887407
vn 0.031707 0.459896 0.887407
vn 0.031707 0.459896 0.887407
vn 0.031707 0.459896 0.887407
vn -0.429493 0.898702 -0.088715
vn -0.429493 0.898702 -0.088715
vn -0.429493 0.898702 -0.088715
vn -0.429493 0.898702 -0.088715
vn -0.271316 -0.252014 -0.928912
vn -0.271316 -0.252014 -0.928912
vn -0.271316 -0.252014 -0.928912
vn -0.271316 -0.252014 -0.928912
vn 0.472328 -0.877739 0.080501
vn 0.472327 -0.877739 0.080501
vn 0.472327 -0.877739 0.080501
vn 0.472327 -0.877739 0.080501
vn 0.541692 0.838579 -0.057914
vn 0.541692 0.838579 -0.057914
vn 0.541692 0.838579 -0.057914
vn 0.541692 0.838579 -0.057914
vn -0.637403 0.257709 0.726157
vn -0.637403 0.257709 0.726157
vn -0.637403 0.257709 0.726157
vn -0.637403 0.257709 0.726157
vn -0.560764 -0.825247 0.067167
vn -0.560764 -0.825247 0.067167
vn -0.560764 -0.825247 0.067167
vn -0.560764 -0.825247 0.067167
vn 0.191453 -0.223663 -0.955678
vn 0.191453 -0.223663 -0.955678
vn 0.191453 -0.223663 -0.955678
vn 0.191453 -0.223663 -0.955678
vn 0.565969 0.819035 -0.094133
vn 0.565969 0.819035 -0.094133
vn 0.565969 0.819035 -0.094133
vn 0.565969 0.819035 -0.094133
vn -0.462887 -0.220396 -0.858581
vn -0.462887 -0.220396 -0.858581
vn -0.462887 -0.220396 -0.858581
vn -0.462887 -0.220396 -0.858581
vn -0.607486 -0.789418 0.088206
vn -0.607486 -0.789418 0.088206
vn -0.607486 -0.789418 0.088206
vn -0.607486 -0.789418 0.088206
vn -0.421251 0.288413 0.859864
vn -0.421251 0.288413 0.859864
vn -0.421251 0.288413 0.859864
vn -0.421251 0.288413 0.859864
vn -0.585696 0.809401 -0.042781
vn -0.585696 0.809401 -0.042781
vn -0.585696 0.809401 -0.042781
vn -0.585696 0.809401 -0.042781
vn 0.027302 -0.270680 -0.962282
vn 0.027302 -0.270680 -0.962282
vn 0.027302 -0.270680 -0.962282
vn 0.027302 -0.270680 -0.962282
vn 0.587509 -0.808173 0.041106
vn 0.587509 -0.808173 0.041106
vn 0.587509 -0.808173 0.041106
vn 0.587509 -0.808173 0.041106
vn -0.165560 0.282157 0.944975
vn -0.165560 0.282158 0.944975
vn -0.165560 0.282157 0.944975
vn -0.165560 0.282157 0.944975
vn 0.300390 0.952605 -0.048062
vn 0.300390 0.952605 -0.048062
vn 0.300390 0.952605 -0.048062
vn 0.300390 0.952605 -0.048062
vn -0.009670 -0.278591 -0.960361
vn -0.009670 -0.278591 -0.960361
vn -0.009670 -0.278591 -0.960361
vn -0.009670 -0.278591 -0.960361
vn -0.337345 -0.939841 0.053822
vn -0.337345 -0.939841 0.053822
vn -0.337345 -0.939841 0.053822
vn -0.337345 -0.939841 0.053822
vn 0.508103 0.328584 0.796156
vn 0.508103 0.328584 0.796156
vn 0.508103 0.328584 0.796156
vn 0.508103 0.328584 0.796156
vn -0.543608 0.839225 -0.013866
vn -0.543608 0.839225 -0.013866
vn -0.543608 0.839225 -0.013866
vn -0.543608 0.839225 -0.013866
vn -0.651464 -0.169832 -0.739427
vn -0.651464 -0.169832 -0.739427
vn -0.651464 -0.169832 -0.739427
vn -0.651463 -0.169832 -0.739427
vn 0.504221 -0.863447 0.014837
vn 0.504221 -0.863447 0.014837
vn 0.504221 -0.863447 0.014837
vn 0.504221 -0.863447 0.014837
vn -0.149812 0.363673 0.919401
vn -0.149812 0.363673 0.919401
vn -0.149812 0.363673 0.919401
vn -0.149812 0.363673 0.919401
vn 0.416149 0.898749 -0.138097
vn 0.416149 0.898749 -0.138097
vn 0.416149 0.898749 -0.138097
vn 0.416149 0.898749 -0.138097
vn 0.001467 -0.242856 -0.970061
vn 0.001467 -0.242856 -0.970061
vn 0.001467 -0.242856 -0.970061
vn 0.001467 -0.242856 -0.970061
vn -0.407508 -0.902326 0.140521
vn -0.407508 -0.902326 0.140521
vn -0.407508 -0.902326 0.140521
vn -0.407508 -0.902326 0.140521
vn 0.151563 0.386733 0.909652
vn 0.151563 0.386733 0.909652
vn 0.151563 0.386733 0.909652
vn 0.151563 0.386733 0.909652
vn -0.429671 0.899488 -0.079399
vn -0.429671 0.899488 -0.079399
vn -0.429671 0.899488 -0.079399
vn -0.429671 0.899488 -0.079399
vn 0.072586 -0.342222 -0.936811
vn 0.072586 -0.342222 -0.936811
vn 0.072586 -0.342222 -0.936811
vn 0.072586 -0.342222 -0.936811
vn 0.429123 -0.899519 0.081975
vn 0.429123 -0.899519 0.081975
vn 0.429123 -0.899519 0.081975
vn 0.429123 -0.899519 0.081975
vn 0.174621 0.385612 0.905986
vn 0.174621 0.385612 0.905986
vn 0.174621 0.385612 0.905986
vn 0.174621 0.385612 0.905986
vn 0.589300 0.802249 -0.095506
vn 0.589300 0.802249 -0.095506
vn 0.589300 0.802249 -0.095506
vn 0.589300 0.802249 -0.095506
vn 0.539729 -0.353626 -0.763964
vn 0.539729 -0.353626 -0.763964
vn 0.539729 -0.353626 -0.763964
vn 0.539729 -0.353626 -0.763964
vn -0.526000 -0.844263 0.102686
vn -0.526000 -0.844263 0.102686
vn -0.526000 -0.844263 0.102686
vn -0.526000 -0.844263 0.102686
vn 0.225313 0.445393 0.866521
vn 0.225313 0.445393 0.866521
vn 0.225313 0.445393 0.866521
vn 0.225313 0.445393 0.866521
vn 0.345463 0.934747 -0.083091
vn 0.345463 0.934747 -0.083091
vn 0.345463 0.934747 -0.083091
vn 0.345463 0.934747 -0.083091
vn 0.065336 0.026724 -0.997505
vn 0.065336 0.026724 -0.997505
vn 0.065336 0.026724 -0.997505
vn 0.065336 0.026724 -0.997505
vn -0.391071 -0.916337 0.085965
vn -0.391071 -0.916337 0.085965
vn -0.391071 -0.916337 0.085965
vn -0.391071 -0.916337 0.085965
vn 0.180260 0.434929 0.882238
vn 0.180260 0.434929 0.882238
vn 0.180260 0.434929 0.882238
vn 0.180260 0.434929 0.882238
vn -0.519509 0.854181 0.022014
vn -0.519509 0.854181 0.022014
vn -0.519509 0.854181 0.022014
vn -0.519509 0.854181 0.022014
vn -0.082562 0.034978 -0.995972
vn -0.082562 0.034978 -0.995972
vn -0.082562 0.034978 -0.995972
vn -0.082562 0.034978 -0.995972
vn 0.567522 -0.823263 -0.012559
vn 0.567522 -0.823263 -0.012559
vn 0.567522 -0.823263 -0.012559
vn 0.567522 -0.823263 -0.012559
vn 0.056570 0.363013 0.930065
vn 0.056570 0.363013 0.930065
vn 0.056570 0.363013 0.930065
vn 0.056570 0.363013 0.930065
vn 0.998957 -0.001289 -0.045648
vn 0.998957 -0.001289 -0.045648
vn 0.998957 -0.001289 -0.045648
vn 0.998957 -0.001289 -0.045648
vn -0.985646 -0.152522 0.072382
vn -0.985646 -0.152522 0.072382
vn -0.985646 -0.152522 0.072382
vn -0.985646 -0.152522 0.072382
vn -0.339911 -0.932119 0.124960
vn -0.339911 -0.932119 0.124960
vn -0.339911 -0.932119 0.124960
vn -0.339911 -0.932119 0.124960
vn 0.558596 -0.823898 0.095716
vn 0.558596 -0.823898 0.095716
vn 0.558596 -0.823899 0.095716
vn 0.558596 -0.823898 0.095716
vn -0.388828 -0.918780 0.068240
vn -0.388828 -0.918780 0.068240
vn -0.388828 -0.918780 0.068240
vn -0.388828 -0.918780 0.068240
vn 0.431670 -0.901842 0.018493
vn 0.431670 -0.901842 0.018493
vn 0.431670 -0.901842 0.018493
vn 0.431670 -0.901842 0.018493
vn -0.346346 -0.937723 -0.026841
vn -0.346346 -0.937723 -0.026841
vn -0.346346 -0.937723 -0.026841
vn -0.346346 -0.937723 -0.026841
vn 0.538636 -0.841943 0.031662
vn 0.538636 -0.841943 0.031662
vn 0.538636 -0.841943 0.031662
vn 0.538636 -0.841943 0.031662
vn -0.997753 -0.054430 -0.039064
vn -0.997753 -0.054430 -0.039064
vn -0.997753 -0.054430 -0.039064
vn -0.997753 -0.054430 -0.039064
vn -0.524392 0.850808 -0.033745
vn -0.524392 0.850808 -0.033745
vn -0.524392 0.850808 -0.033745
vn -0.524392 0.850808 -0.033745
vn 0.287395 0.957365 0.029252
vn 0.287395 0.957365 0.029252
vn 0.287395 0.957365 0.029252
vn 0.287395 0.957365 0.029252
vn -0.360293 0.932788 -0.009810
vn -0.360293 0.932788 -0.009810
vn -0.360293 0.932788 -0.009810
vn -0.360293 0.932788 -0.009810
vn 0.366481 0.927630 -0.072075
vn 0.366481 0.927630 -0.072075
vn 0.366481 0.927630 -0.072075
vn 0.366481 0.927630 -0.072075
vn -0.524027 0.846786 -0.091379
vn -0.524027 0.846786 -0.091379
vn -0.524027 0.846786 -0.091379
vn -0.524027 0.846786 -0.091379
vn 0.270101 0.955744 -0.116614
vn 0.270101 0.955744 -0.116614
vn 0.270101 0.955744 -0.116614
vn 0.270101 0.955744 -0.116614
vn -0.633446 0.772045 -0.051894
vn -0.633446 0.772045 -0.051894
vn -0.633446 0.772045 -0.051894
vn -0.633446 0.772045 -0.051894
vn 0.597181 0.799945 -0.058850
vn 0.597181 0.799945 -0.058850
vn 0.597181 0.799945 -0.058850
vn 0.597181 0.799945 -0.058850
vn -0.323235 0.946263 -0.010254
vn -0.323235 0.946263 -0.010254
vn -0.323235 0.946263 -0.010254
vn -0.323235 0.946263 -0.010254
vn 0.656305 0.753371 -0.041168
vn 0.656305 0.753371 -0.041168
vn 0.656305 0.753371 -0.041168
vn 0.656305 0.753371 -0.041168
vn -0.441529 0.895689 0.052848
vn -0.441529 0.895689 0.052848
vn -0.441529 0.895689 0.052848
vn -0.441529 0.895689 0.052848
vn 0.315494 0.946345 0.069967
vn 0.315494 0.946345 0.069967
vn 0.315494 0.946345 0.069967
vn 0.315494 0.946345 0.069967
vn 0.998292 0.052886 -0.024816
vn 0.998292 0.052886 -0.024816
vn 0.998292 0.052886 -0.024816
vn 0.998292 0.052886 -0.024816
vn -0.293036 -0.953575 -0.069460
vn -0.293036 -0.953575 -0.069460
vn -0.293036 -0.953575 -0.069460
vn -0.293036 -0.953575 -0.069460
vn 0.415375 -0.907851 -0.057188
vn 0.415375 -0.907851 -0.057188
vn 0.415375 -0.907851 -0.057188
vn 0.415375 -0.907851 -0.057188
vn -0.636712 -0.770299 0.035167
vn -0.636712 -0.770300 0.035167
vn -0.636712 -0.770300 0.035167
vn -0.636712 -0.770300 0.035167
vn 0.392270 -0.919789 0.010575
vn 0.392270 -0.919789 0.010575
vn 0.392270 -0.919789 0.010575
vn 0.392270 -0.919789 0.010575
vn -0.636412 -0.768505 0.066184
vn -0.636412 -0.768504 0.066184
vn -0.636412 -0.768504 0.066184
vn -0.636412 -0.768504 0.066184
vn 0.597376 -0.799767 0.059280
vn 0.597376 -0.799767 0.059280
vn 0.597376 -0.799767 0.059280
vn 0.597376 -0.799767 0.059280
vn 0.448529 -0.869873 -0.205287
vn 0.448529 -0.869873 -0.205287
vn 0.448529 -0.869873 -0.205287
vn 0.448529 -0.869873 -0.205287
vn -0.548697 -0.795264 -0.257850
vn -0.548697 -0.795264 -0.257850
vn -0.548697 -0.795264 -0.257850
vn -0.548697 -0.795264 -0.257850
vn 0.067104 -0.969240 -0.236794
vn 0.067104 -0.969240 -0.236794
vn 0.067104 -0.969240 -0.236794
vn 0.067104 -0.969240 -0.236794
vn -0.591264 -0.769809 -0.240417
vn -0.591264 -0.769809 -0.240417
vn -0.591264 -0.769809 -0.240417
vn -0.591264 -0.769809 -0.240417
vn 0.415961 -0.893206 -0.170760
vn 0.415961 -0.893206 -0.170760
vn 0.415961 -0.893206 -0.170760
vn 0.415961 -0.893206 -0.170760
vn -0.375307 -0.904846 -0.200994
vn -0.375307 -0.904846 -0.200994
vn -0.375307 -0.904846 -0.200994
vn -0.375307 -0.904846 -0.200994
vn 0.997432 -0.055368 0.045424
vn 0.997432 -0.055368 0.045424
vn 0.997432 -0.055368 0.045424
vn 0.997432 -0.055368 0.045424
vn 0.405536 0.893623 0.192299
vn 0.405536 0.893623 0.192299
vn 0.405536 0.893623 0.192299
vn 0.405536 0.893623 0.192299
vn -0.450370 0.879054 0.156305
vn -0.450370 0.879054 0.156305
vn -0.450370 0.879054 0.156305
vn -0.450370 0.879054 0.156305
vn 0.683319 0.693982 0.226857
vn 0.683319 0.693982 0.226857
vn 0.683319 0.693982 0.226857
vn 0.683319 0.693982 0.226857
vn -0.123007 0.966143 0.226798
vn -0.123007 0.966143 0.226798
vn -0.123007 0.966143 0.226798
vn -0.123007 0.966143 0.226798
vn 0.570070 0.777098 0.266718
vn 0.570070 0.777098 0.266718
vn 0.570070 0.777098 0.266718
vn 0.570070 0.777098 0.266718
vn -0.444757 0.867403 0.223165
vn -0.444757 0.867403 0.223165
vn -0.444757 0.867403 0.223165
vn -0.444757 0.867403 0.223165
vn 0.541749 0.811603 0.218650
vn 0.541749 0.811603 0.218650
vn 0.541749 0.811603 0.218650
vn 0.541749 0.811603 0.218650
vn -0.266619 0.946911 0.179651
vn -0.266619 0.946911 0.179651
vn -0.266619 0.946911 0.179651
vn -0.266619 0.946911 0.179651
vn 0.188824 0.967317 0.169245
vn 0.188824 0.967317 0.169245
vn 0.188824 0.967317 0.169245
vn 0.188824 0.967317 0.169245
vn -0.400843 0.905772 0.137485
vn -0.400843 0.905772 0.137485
vn -0.400842 0.905772 0.137485
vn -0.400843 0.905772 0.137485
vn 0.678372 0.729995 0.083185
vn 0.678372 0.729995 0.083185
vn 0.678372 0.729995 0.083185
vn 0.678372 0.729995 0.083185
vn -0.434239 0.897605 0.075777
vn -0.434239 0.897605 0.075777
vn -0.434239 0.897605 0.075777
vn -0.434239 0.897605 0.075777
vn -0.998558 -0.053571 0.003596
vn -0.998558 -0.053571 0.003596
vn -0.998558 -0.053571 0.003596
vn -0.998558 -0.053571 0.003596
vn 0.469093 -0.878723 -0.088304
vn 0.469093 -0.878723 -0.088304
vn 0.469093 -0.878723 -0.088304
vn 0.469093 -0.878723 -0.088304
vn -0.696209 -0.711417 -0.095810
vn -0.696208 -0.711417 -0.095810
vn -0.696209 -0.711417 -0.095810
vn -0.696209 -0.711417 -0.095810
vn 0.496681 -0.857041 -0.137076
vn 0.496681 -0.857041 -0.137076
vn 0.496681 -0.857040 -0.137076
vn 0.496681 -0.857040 -0.137076
vn -0.295769 -0.940270 -0.168565
vn -0.295769 -0.940270 -0.168565
vn -0.295769 -0.940270 -0.168565
vn -0.295769 -0.940270 -0.168565
vn 0.378724 -0.909399 -0.171933
vn 0.378724 -0.909399 -0.171933
vn 0.378724 -0.909399 -0.171933
vn 0.378724 -0.909399 -0.171933
vn -0.546426 -0.813655 -0.198453
vn -0.546426 -0.813655 -0.198453
vn -0.546426 -0.813655 -0.198453
vn -0.546426 -0.813655 -0.198453
s off
f 95/123/1 96/126/2 62/89/3 63/90/4
f 7/3/5 6/4/6 3/7/7 4/8/8
f 56/79/9 57/82/10 101/133/11 102/134/12
f 5/6/13 8/9/14 1/1/15 2/2/16
f 10/11/17 11/12/18 44/13/19 41/14/20
f 89/21/21 90/22/22 68/25/23 69/26/24
f 12/17/25 9/15/26 42/16/27 43/18/28
f 76/29/29 77/30/30 81/32/31 82/33/32
f 63/91/33 64/92/34 94/122/35 95/124/36
f 1/46/37 28/48/38 25/51/39 2/53/40
f 102/135/41 103/136/42 55/78/43 56/80/44
f 3/24/45 26/23/46 27/28/47 4/27/48
f 67/95/49 68/96/50 90/118/51 91/119/52
f 15/61/53 14/64/54 9/65/55 12/66/56
f 77/105/57 78/106/58 80/108/59 81/109/60
f 13/31/61 16/35/62 11/12/63 10/11/64
f 66/94/65 67/95/66 91/119/67 92/120/68
f 19/71/69 18/73/70 14/64/71 15/61/72
f 78/106/73 53/76/74 79/107/75 80/108/76
f 17/36/77 20/40/78 16/35/79 13/31/80
f 65/93/81 66/94/82 92/120/83 93/121/84
f 23/43/85 22/42/86 18/37/87 19/38/88
f 53/76/89 54/77/90 104/137/91 79/107/92
f 21/41/93 24/45/94 20/40/95 17/36/96
f 64/128/97 65/129/98 93/130/99 94/138/100
f 27/28/101 26/23/102 22/42/103 23/43/104
f 54/139/105 55/140/106 103/141/107 104/142/108
f 25/51/109 28/48/110 24/143/111 21/144/112
f 86/114/113 87/115/114 71/99/115 72/100/116
f 35/145/117 34/146/118 30/147/119 31/148/120
f 73/101/121 74/102/122 84/112/123 85/113/124
f 33/52/125 36/55/126 32/50/127 29/47/128
f 87/115/129 88/116/130 70/98/131 71/99/132
f 39/149/133 38/150/134 34/146/135 35/145/136
f 74/102/137 75/103/138 83/111/139 84/112/140
f 37/57/141 40/60/142 36/55/143 33/52/144
f 88/116/145 89/117/146 69/97/147 70/98/148
f 43/18/149 42/16/150 38/56/151 39/58/152
f 75/103/153 76/104/154 82/110/155 83/111/156
f 41/14/157 44/13/158 40/60/159 37/57/160
f 96/125/161 97/127/162 61/87/163 62/88/164
f 47/151/165 46/152/166 6/4/167 7/3/168
f 57/81/169 58/83/170 100/131/171 101/132/172
f 45/62/173 48/69/174 8/70/175 5/63/176
f 97/153/177 98/154/178 60/155/179 61/156/180
f 51/157/181 50/158/182 46/152/183 47/151/184
f 58/159/185 59/160/186 99/161/187 100/162/188
f 49/72/189 52/75/190 48/69/191 45/62/192
f 85/113/193 86/114/194 72/100/195 73/101/196
f 98/154/197 99/161/198 59/160/199 60/155/200
f 24/44/201 54/77/202 53/76/203 20/39/204
f 28/48/205 55/140/206 54/139/207 24/143/208
f 56/163/209 55/140/210 28/48/211 1/46/212
f 8/10/213 57/82/214 56/79/215 1/5/216
f 48/67/217 58/83/218 57/81/219 8/68/220
f 52/74/221 59/85/222 58/83/223 48/67/224
f 60/86/225 59/84/226 52/75/227 49/72/228
f 61/87/229 60/86/230 49/72/231 45/62/232
f 62/88/233 61/87/234 45/62/235 5/63/236
f 63/90/237 62/89/238 5/6/239 2/2/240
f 2/53/241 25/51/242 64/128/243 63/164/244
f 25/51/245 21/144/246 65/129/247 64/128/248
f 21/41/249 17/36/250 66/94/251 65/93/252
f 17/36/253 13/31/254 67/95/255 66/94/256
f 13/31/257 10/11/258 68/96/259 67/95/260
f 69/97/261 68/96/262 10/11/263 41/14/264
f 70/98/265 69/97/266 41/14/267 37/57/268
f 71/165/269 70/166/270 37/167/271 33/168/272
f 72/100/273 71/99/274 33/52/275 29/47/276
f 73/101/277 72/100/278 29/47/279 32/49/280
f 36/54/281 74/102/282 73/101/283 32/49/284
f 40/169/285 75/170/286 74/171/287 36/172/288
f 44/20/289 76/104/290 75/103/291 40/59/292
f 11/19/293 77/105/294 76/104/295 44/20/296
f 16/34/297 78/106/298 77/105/299 11/19/300
f 20/39/301 53/76/302 78/106/303 16/34/304
f 80/173/305 79/174/306 19/71/307 15/61/308
f 81/32/309 80/173/310 15/61/311 12/66/312
f 82/110/313 81/109/314 12/17/315 43/18/316
f 83/111/317 82/110/318 43/18/319 39/58/320
f 84/175/321 83/176/322 39/149/323 35/145/324
f 85/177/325 84/175/326 35/145/327 31/148/328
f 30/147/329 86/178/330 85/177/331 31/148/332
f 34/146/333 87/179/334 86/178/335 30/147/336
f 38/150/337 88/180/338 87/179/339 34/146/340
f 42/16/341 89/117/342 88/116/343 38/56/344
f 9/15/345 90/118/346 89/117/347 42/16/348
f 91/181/349 90/22/350 9/65/351 14/64/352
f 92/182/353 91/181/354 14/64/355 18/73/356
f 93/121/357 92/120/358 18/37/359 22/42/360
f 94/122/361 93/121/362 22/42/363 26/23/364
f 95/124/365 94/122/366 26/23/367 3/24/368
f 6/4/369 96/183/370 95/184/371 3/7/372
f 46/152/373 97/153/374 96/183/375 6/4/376
f 50/158/377 98/154/378 97/153/379 46/152/380
f 50/158/381 51/157/382 99/161/383 98/154/384
f 100/162/385 99/161/386 51/157/387 47/151/388
f 101/185/389 100/162/390 47/151/391 7/3/392
f 102/186/393 101/185/394 7/3/395 4/8/396
f 4/27/397 27/28/398 103/136/399 102/135/400
f 104/137/401 103/136/402 27/28/403 23/43/404
f 79/107/405 104/137/406 23/43/407 19/38/408
