# This file uses meters as units for non-parametric coordinates.

v -40.558357 -2.296495 -60.837101
v -19.894226 1.050449 -71.328751
v 16.733383 80.931076 78.554108
v 37.397579 84.278000 68.062485
v 23.174534 92.715729 68.870354
v -34.117203 9.488176 -70.520859
v -37.309738 -2.056903 -58.384705
v -20.044563 0.376015 -66.933502
v 35.129044 80.526543 67.304214
v 17.863861 78.093620 75.853004
v -32.078121 7.514812 -66.250046
v 23.095465 87.665344 67.987701
v -51.285698 5.981384 44.942390
v -31.776627 5.157778 57.865242
v 20.606842 125.507820 -55.973217
v 40.115936 124.684227 -43.050339
v 34.605980 116.679932 -56.456100
v -37.286560 -2.846523 44.459476
v -49.108513 9.423114 45.140629
v -33.076420 9.025028 56.090397
v 36.158165 124.132423 -41.094173
v 20.126020 124.530487 -52.044033
v -37.738148 2.252932 44.748371
v 31.496441 117.360321 -52.436199
v 84.384651 14.853047 -13.356276
v 72.893661 -5.116190 -17.536167
v -65.315781 99.621887 -6.791409
v -76.806816 79.652649 -10.971270
v -71.709480 87.600899 2.629700
v 77.990829 2.832067 -3.935225
v 80.832611 15.196475 -15.328741
v 71.327011 -1.291855 -19.183886
v -72.838730 80.342964 -12.861708
v -63.333065 96.831299 -9.006533
v 75.639458 5.432828 -7.676753
v -68.526299 87.067657 -1.354545
v -9.990656 70.094261 -10.690397
v -10.337484 68.616966 -12.810745
v -5.827116 52.432529 -7.156493
v -10.042967 43.836048 -15.691172
v -11.688458 41.820377 -13.896629
v -8.742599 51.947510 -0.129160
v -18.480341 55.672924 1.135609
v -17.436352 57.230137 2.935608
v -8.576436 54.536888 4.987722
v -2.366993 61.160358 12.006781
v 0.077989 59.176151 12.186634
v -6.540695 48.264896 1.308822
v -11.610001 39.711525 7.122594
v -9.363872 38.479218 7.116923
v -5.126151 42.573147 -2.406603
v 5.891601 41.077419 0.775021
v 7.056344 43.226902 -1.168854
v -6.792170 49.181747 -4.046896
vt 0.103139 0.253316
vt 0.103139 0.253316
vt 0.103139 0.253316
vt 0.103139 0.253316
vt 0.103139 0.253316
vt 0.103139 0.253316
vt 0.103139 0.253316
vt 0.103139 0.253316
vt 0.103139 0.253316
vt 0.103139 0.253316
vt 0.103139 0.253316
vt 0.103139 0.253316
vt 0.103139 0.253316
vt 0.103139 0.253316
vt 0.103139 0.253316
vt 0.103139 0.253316
vt 0.103139 0.253316
vt 0.103139 0.253316
vt 0.103139 0.253316
vt 0.103139 0.253316
vt 0.103139 0.253316
vt 0.103139 0.253316
vt 0.103139 0.253316
vt 0.103139 0.253316
vt 0.103139 0.253316
vt 0.103139 0.253316
vt 0.103139 0.253316
vt 0.103139 0.253316
vt 0.103139 0.253316
vt 0.103139 0.253316
vt 0.103139 0.253316
vt 0.103139 0.253316
vt 0.103139 0.253316
vt 0.103139 0.253316
vt 0.103139 0.253316
vt 0.103139 0.253316
vt 0.103139 0.253316
vt 0.103139 0.253316
vt 0.103139 0.253316
vt 0.103139 0.253316
vt 0.103139 0.253316
vt 0.103139 0.253316
vt 0.103139 0.253316
vt 0.103139 0.253316
vt 0.103139 0.253316
vt 0.103139 0.253316
vt 0.103139 0.253316
vt 0.103139 0.253316
vt 0.103139 0.253316
vt 0.103139 0.253316
vt 0.103139 0.253316
vt 0.103139 0.253316
vt 0.103139 0.253316
vt 0.103139 0.253316
vt 0.103139 0.253316
vt 0.103139 0.253316
vt 0.103139 0.253316
vt 0.103139 0.253316
vt 0.103139 0.253316
vt 0.103139 0.253316
vt 0.103139 0.253316
vt 0.103139 0.253316
vt 0.103139 0.253316
vt 0.103139 0.253316
vt 0.103139 0.253316
vt 0.103139 0.253316
vt 0.103139 0.253316
vt 0.103139 0.253316
vt 0.103139 0.253316
vt 0.103139 0.253316
vt 0.103139 0.253316
vt 0.103139 0.253316
vn 0.828339 -0.560122 0.010891
vn 0.828339 -0.560122 0.010891
vn 0.828339 -0.560122 0.010891
vn 0.828339 -0.560122 0.010891
vn 0.332780 0.483431 0.809662
vn 0.332780 0.483431 0.809662
vn 0.332780 0.483431 0.809662
vn 0.402898 0.701217 -0.588190
vn 0.402898 0.701217 -0.588190
vn 0.402898 0.701217 -0.588190
vn 0.402898 0.701217 -0.588190
vn -0.332784 -0.483429 -0.809662
vn -0.332784 -0.483429 -0.809662
vn -0.332784 -0.483429 -0.809662
vn -0.338005 -0.730782 0.593052
vn -0.338005 -0.730782 0.593052
vn -0.338005 -0.730782 0.593052
vn -0.338005 -0.730782 0.593052
vn -0.861074 0.505938 0.050775
vn -0.861074 0.505938 0.050775
vn -0.861074 0.505938 0.050775
vn -0.861074 0.505938 0.050775
vn 0.097173 -0.989520 -0.106803
vn 0.097173 -0.989520 -0.106803
vn 0.097173 -0.989520 -0.106803
vn 0.097173 -0.989520 -0.106803
vn 0.451585 -0.474657 0.755495
vn 0.451585 -0.474657 0.755495
vn 0.451585 -0.474657 0.755495
vn 0.451585 -0.474657 0.755495
vn -0.402898 -0.714609 0.571845
vn -0.402898 -0.714609 0.571845
vn -0.402898 -0.714609 0.571845
vn -0.402898 -0.714609 0.571845
vn 0.855784 -0.512331 -0.071772
vn 0.855784 -0.512331 -0.071772
vn 0.855784 -0.512331 -0.071772
vn 0.855784 -0.512331 -0.071772
vn 0.332778 0.483434 0.809661
vn 0.332778 0.483434 0.809661
vn 0.332778 0.483434 0.809661
vn -0.332778 -0.483432 -0.809662
vn -0.332778 -0.483432 -0.809662
vn -0.332778 -0.483432 -0.809662
vn 0.209721 0.564502 0.798345
vn 0.209721 0.564502 0.798345
vn 0.209721 0.564502 0.798345
vn 0.209721 0.564502 0.798345
vn 0.417591 0.694276 -0.586172
vn 0.417591 0.694276 -0.586172
vn 0.417591 0.694276 -0.586172
vn 0.849788 -0.526939 -0.013978
vn 0.849788 -0.526939 -0.013978
vn 0.849788 -0.526939 -0.013978
vn 0.849788 -0.526939 -0.013978
vn -0.417592 -0.694275 0.586173
vn -0.417592 -0.694275 0.586173
vn -0.417592 -0.694275 0.586173
vn -0.818203 0.570903 0.067930
vn -0.818203 0.570903 0.067930
vn -0.818203 0.570903 0.067930
vn -0.818203 0.570903 0.067930
vn -0.316794 -0.490632 -0.811740
vn -0.316794 -0.490632 -0.811740
vn -0.316794 -0.490632 -0.811740
vn -0.316794 -0.490632 -0.811740
vn -0.535749 0.239003 0.809846
vn -0.535749 0.239003 0.809846
vn -0.535749 0.239003 0.809846
vn -0.535749 0.239003 0.809846
vn -0.091015 0.978407 0.185569
vn -0.091015 0.978407 0.185569
vn -0.091015 0.978407 0.185569
vn -0.091015 0.978407 0.185569
vn -0.860632 0.508146 0.033167
vn -0.860632 0.508146 0.033167
vn -0.860632 0.508146 0.033167
vn -0.860632 0.508146 0.033167
vn 0.332635 0.480732 0.811326
vn 0.332635 0.480732 0.811326
vn 0.332635 0.480732 0.811326
vn 0.332635 0.480732 0.811326
vn 0.417590 0.694276 -0.586173
vn 0.417590 0.694276 -0.586173
vn 0.417590 0.694276 -0.586173
vn -0.417591 -0.694276 0.586172
vn -0.417591 -0.694276 0.586173
vn -0.417591 -0.694276 0.586173
vn -0.303419 -0.428457 -0.851094
vn -0.303419 -0.428457 -0.851094
vn -0.303419 -0.428457 -0.851094
vn -0.303419 -0.428457 -0.851094
vn -0.869542 0.492383 0.038140
vn -0.869542 0.492383 0.038140
vn -0.869542 0.492383 0.038140
vn -0.384003 -0.714550 0.584774
vn -0.384003 -0.714550 0.584774
vn -0.384003 -0.714549 0.584774
vn -0.384003 -0.714550 0.584774
vn 0.869543 -0.492383 -0.038130
vn 0.869543 -0.492383 -0.038130
vn 0.869543 -0.492384 -0.038130
vn 0.336554 0.673528 -0.658097
vn 0.336554 0.673528 -0.658097
vn 0.336554 0.673528 -0.658097
vn 0.336554 0.673528 -0.658097
vn 0.313958 0.486498 0.815322
vn 0.313958 0.486498 0.815322
vn 0.313958 0.486498 0.815322
vn 0.313958 0.486498 0.815322
vn 0.513744 -0.108303 -0.851080
vn 0.513744 -0.108303 -0.851080
vn 0.513744 -0.108303 -0.851080
vn 0.513744 -0.108303 -0.851080
vn -0.412309 0.416083 -0.810479
vn -0.412309 0.416083 -0.810479
vn -0.412309 0.416083 -0.810479
vn -0.412309 0.416083 -0.810479
vn 0.347566 0.730447 -0.587916
vn 0.347566 0.730447 -0.587916
vn 0.347566 0.730447 -0.587916
vn 0.347566 0.730447 -0.587916
vn -0.312289 -0.473601 -0.823515
vn -0.312289 -0.473601 -0.823515
vn -0.312289 -0.473601 -0.823515
vn -0.312289 -0.473601 -0.823515
vn -0.869544 0.492381 0.038129
vn -0.869544 0.492381 0.038129
vn -0.869544 0.492381 0.038129
vn 0.869543 -0.492384 -0.038126
vn 0.869542 -0.492384 -0.038126
vn 0.869542 -0.492384 -0.038126
vn 0.400218 0.710977 -0.578219
vn 0.400218 0.710977 -0.578219
vn 0.400218 0.710977 -0.578219
vn 0.400218 0.710977 -0.578219
vn -0.267633 -0.434074 -0.860205
vn -0.267633 -0.434074 -0.860205
vn -0.267633 -0.434074 -0.860205
vn -0.267633 -0.434074 -0.860205
vn 0.358254 0.661899 -0.658441
vn 0.358254 0.661899 -0.658441
vn 0.358254 0.661899 -0.658441
vn 0.358254 0.661899 -0.658441
vn -0.302216 -0.481008 -0.822981
vn -0.302216 -0.481008 -0.822981
vn -0.302216 -0.481008 -0.822980
vn -0.302216 -0.481008 -0.822980
vn -0.377133 -0.717993 0.585028
vn -0.377133 -0.717993 0.585028
vn -0.377133 -0.717993 0.585028
vn -0.377133 -0.717993 0.585028
vn 0.310153 0.487652 0.816089
vn 0.310153 0.487652 0.816089
vn 0.310153 0.487652 0.816089
vn 0.310153 0.487652 0.816089
vn -0.838525 0.544751 -0.011086
vn -0.838525 0.544751 -0.011086
vn -0.838524 0.544751 -0.011086
vn -0.838524 0.544751 -0.011086
vn 0.199203 0.545563 0.814051
vn 0.199203 0.545563 0.814051
vn 0.199203 0.545563 0.814051
vn 0.199203 0.545563 0.814051
vn -0.830627 0.549341 0.091016
vn -0.830627 0.549341 0.091016
vn -0.830627 0.549341 0.091016
vn -0.830627 0.549341 0.091016
vn 0.336013 0.484786 0.807513
vn 0.336013 0.484786 0.807513
vn 0.336013 0.484786 0.807513
vn 0.336013 0.484786 0.807513
vn 0.852188 -0.522915 -0.018311
vn 0.852188 -0.522915 -0.018311
vn 0.852188 -0.522915 -0.018311
vn 0.852188 -0.522915 -0.018311
vn -0.319664 -0.495293 -0.807775
vn -0.319664 -0.495293 -0.807775
vn -0.319664 -0.495293 -0.807775
vn -0.319664 -0.495293 -0.807775
vn -0.392795 -0.697778 0.599014
vn -0.392794 -0.697778 0.599014
vn -0.392795 -0.697778 0.599014
vn -0.392795 -0.697778 0.599014
vn 0.816455 -0.577337 -0.009109
vn 0.816455 -0.577337 -0.009109
vn 0.816455 -0.577337 -0.009109
vn 0.816455 -0.577337 -0.009109
vn -0.341910 -0.748331 0.568417
vn -0.341910 -0.748331 0.568417
vn -0.341910 -0.748331 0.568417
vn -0.341910 -0.748331 0.568417
vn 0.870101 -0.491377 -0.038389
vn 0.870101 -0.491377 -0.038389
vn 0.870101 -0.491377 -0.038389
vn 0.870101 -0.491377 -0.038389
vn 0.404337 0.704783 -0.582917
vn 0.404337 0.704783 -0.582917
vn 0.404337 0.704783 -0.582917
vn 0.404337 0.704783 -0.582917
vn -0.860428 0.506900 0.052105
vn -0.860429 0.506900 0.052105
vn -0.860429 0.506900 0.052105
vn -0.860428 0.506900 0.052105
s off
f 50/66/1 51/67/2 12/16/3 10/14/4
f 3/3/5 4/4/6 5/5/7
f 5/5/8 4/4/9 53/69/10 54/72/11
f 6/6/12 2/7/13 1/8/14
f 51/67/15 52/68/16 9/13/17 12/16/18
f 54/71/19 49/65/20 3/3/21 5/10/22
f 1/1/23 2/2/24 8/12/25 7/11/26
f 4/4/27 3/3/28 10/14/29 9/13/30
f 3/3/31 49/65/32 50/66/33 10/14/34
f 52/68/35 53/70/36 4/4/37 9/13/38
f 7/11/39 8/12/40 11/15/41
f 9/13/42 10/14/43 12/16/44
f 44/58/45 45/59/46 24/19/47 22/20/48
f 15/21/49 16/22/50 17/23/51
f 17/23/52 16/22/53 47/61/54 48/64/55
f 18/25/56 14/24/57 13/26/58
f 45/59/59 46/60/60 21/28/61 24/19/62
f 48/63/63 43/57/64 15/21/65 17/31/66
f 13/30/67 14/32/68 20/27/69 19/17/70
f 16/22/71 15/21/72 22/20/73 21/28/74
f 15/21/75 43/57/76 44/58/77 22/20/78
f 46/60/79 47/62/80 16/22/81 21/28/82
f 19/17/83 20/27/84 23/18/85
f 21/28/86 22/20/87 24/19/88
f 38/50/89 39/51/90 36/35/91 34/36/92
f 27/37/93 28/38/94 29/39/95
f 29/39/96 28/38/97 41/53/98 42/56/99
f 30/41/100 26/40/101 25/42/102
f 39/51/103 40/52/104 33/44/105 36/35/106
f 42/55/107 37/49/108 27/37/109 29/47/110
f 25/46/111 26/48/112 32/43/113 31/33/114
f 28/38/115 27/37/116 34/36/117 33/44/118
f 27/37/119 37/49/120 38/50/121 34/36/122
f 40/52/123 41/54/124 28/38/125 33/44/126
f 31/33/127 32/43/128 35/34/129
f 33/44/130 34/36/131 36/35/132
f 38/50/133 37/49/134 25/46/135 31/33/136
f 31/33/137 35/34/138 39/51/139 38/50/140
f 35/34/141 32/43/142 40/52/143 39/51/144
f 26/48/145 41/54/146 40/52/147 32/43/148
f 42/56/149 41/53/150 26/40/151 30/41/152
f 30/45/153 25/46/154 37/49/155 42/55/156
f 44/58/157 43/57/158 13/30/159 19/17/160
f 19/17/161 23/18/162 45/59/163 44/58/164
f 23/18/165 20/27/166 46/60/167 45/59/168
f 14/32/169 47/62/170 46/60/171 20/27/172
f 48/64/173 47/61/174 14/24/175 18/25/176
f 18/29/177 13/30/178 43/57/179 48/63/180
f 50/66/181 49/65/182 1/1/183 7/11/184
f 7/11/185 11/15/186 51/67/187 50/66/188
f 11/15/189 8/12/190 52/68/191 51/67/192
f 2/2/193 53/70/194 52/68/195 8/12/196
f 54/72/197 53/69/198 2/7/199 6/6/200
f 6/9/201 1/1/202 49/65/203 54/71/204
