# This file uses meters as units for non-parametric coordinates.

v -11.995693 0.000000 11.995735
v 11.995693 0.000000 11.995735
v -5.302099 218.616821 7.253186
v 11.995693 218.616821 11.995735
v -11.995693 218.616821 -11.995735
v 11.995693 218.616821 -11.995735
v -11.995693 0.000000 -11.995735
v 11.995693 0.000000 -11.995735
v -11.995693 218.616821 -3.635571
v 6.545856 218.616821 11.995735
v -11.995693 212.576218 11.995735
v 11.995693 205.513824 -11.995735
v 11.995693 174.005432 -11.995735
v 11.995693 193.360229 -9.781750
v 6.032743 194.596603 -11.995735
v 11.995693 54.440178 11.995735
v 11.995693 126.518799 11.995735
v 7.304573 102.004105 11.995735
v 11.995693 103.142723 6.578311
v -11.995693 88.184341 -11.995735
v -11.995693 22.698771 -11.995735
v -6.911636 62.370941 -11.995735
v -11.995693 62.457695 -8.415649
v -11.995693 30.995100 11.995735
v -11.995693 63.898918 11.995735
v -11.995693 49.532600 9.010483
v -8.918045 51.526421 11.995735
vt 0.039915 0.276723
vt 0.039915 0.276723
vt 0.039915 0.276723
vt 0.039915 0.276723
vt 0.039915 0.276723
vt 0.039915 0.276723
vt 0.039915 0.276723
vt 0.039915 0.276723
vt 0.039915 0.276723
vt 0.039915 0.276723
vt 0.039915 0.276723
vt 0.039915 0.276723
vt 0.039915 0.276723
vt 0.039915 0.276723
vt 0.039915 0.276723
vt 0.039915 0.276723
vt 0.039915 0.276723
vt 0.039915 0.276723
vt 0.039915 0.276723
vt 0.039915 0.276723
vt 0.039915 0.276723
vt 0.039915 0.276723
vt 0.039915 0.276723
vt 0.039915 0.276723
vt 0.039915 0.276723
vt 0.039915 0.276723
vt 0.039915 0.276723
vt 0.039915 0.276723
vt 0.039915 0.276723
vt 0.039915 0.276723
vt 0.039915 0.276723
vt 0.039915 0.276723
vt 0.039915 0.276723
vt 0.039915 0.276723
vt 0.039915 0.276723
vt 0.039915 0.276723
vt 0.039915 0.276723
vt 0.039915 0.276723
vt 0.039915 0.276723
vt 0.039915 0.276723
vn 0.000000 0.000000 1.000000
vn 0.000000 0.000000 1.000000
vn 0.000000 0.000000 1.000000
vn 0.000000 0.000000 1.000000
vn 0.000000 0.000000 1.000000
vn 0.000000 1.000000 0.000000
vn 0.000000 1.000000 0.000000
vn 0.000000 1.000000 0.000000
vn 0.000000 1.000000 0.000000
vn 0.000000 0.000000 -1.000000
vn 0.000000 0.000000 -1.000000
vn 0.000000 0.000000 -1.000000
vn 0.000000 0.000000 -1.000000
vn 0.000000 -1.000000 0.000000
vn 0.000000 -1.000000 0.000000
vn 0.000000 -1.000000 0.000000
vn 0.000000 -1.000000 0.000000
vn 1.000000 -0.000000 0.000000
vn 1.000000 -0.000000 0.000000
vn 1.000000 -0.000000 0.000000
vn 1.000000 -0.000000 0.000000
vn -1.000000 -0.000000 0.000000
vn -1.000000 -0.000000 0.000000
vn -1.000000 -0.000000 0.000000
vn -1.000000 -0.000000 0.000000
vn -1.000000 -0.000000 0.000000
vn -1.000000 -0.000000 0.000000
vn -0.244977 0.751954 0.612006
vn -0.244977 0.751954 0.612006
vn -0.244977 0.751954 0.612006
vn -0.505831 0.804641 0.310947
vn -0.505831 0.804640 0.310947
vn -0.505831 0.804640 0.310947
vn 0.000000 1.000000 -0.000002
vn 0.000000 1.000000 -0.000002
vn 0.000000 1.000000 -0.000002
vn 0.000000 1.000000 -0.000002
vn 0.365323 0.105793 -0.924850
vn 0.365323 0.105793 -0.924850
vn 0.365323 0.105793 -0.924850
vn 0.311766 -0.170286 -0.934775
vn 0.311766 -0.170286 -0.934775
vn 0.311766 -0.170286 -0.934775
vn 0.746207 0.073597 0.661633
vn 0.746207 0.073597 0.661633
vn 0.746207 0.073597 0.661633
vn -0.573359 0.073477 -0.816003
vn -0.573359 0.073477 -0.816003
vn -0.573359 0.073477 -0.816003
vn -0.573358 -0.112925 -0.811485
vn -0.573358 -0.112925 -0.811485
vn -0.573358 -0.112925 -0.811485
vn 0.762843 -0.145977 0.629890
vn 0.762843 -0.145977 0.629890
vn 0.762843 -0.145977 0.629890
vn -0.727601 0.109068 0.677275
vn -0.727601 0.109067 0.677275
vn -0.727601 0.109068 0.677275
vn -0.633102 -0.157484 0.757879
vn -0.633102 -0.157484 0.757879
vn -0.633102 -0.157484 0.757879
vn -0.000000 0.000000 -1.000000
vn -0.000000 0.000000 -1.000000
vn -0.000000 0.000000 -1.000000
vn -0.000000 0.000000 -1.000000
vn 0.000000 0.000000 -1.000000
vn 0.000000 0.000000 -1.000000
vn 0.000000 0.000000 -1.000000
vn 0.000000 0.000000 -1.000000
vn 0.000000 0.000000 -1.000000
vn 0.000000 0.000000 -1.000000
vn 0.000000 0.000000 -1.000000
vn 0.000000 0.000000 -1.000000
vn 1.000000 0.000000 0.000000
vn 1.000000 0.000000 0.000000
vn 1.000000 0.000000 0.000000
vn 1.000000 0.000000 0.000000
vn 1.000000 0.000000 0.000000
vn 1.000000 0.000000 0.000000
vn 1.000000 0.000000 0.000000
vn 1.000000 0.000000 0.000000
vn 1.000000 0.000000 0.000000
vn 1.000000 0.000000 0.000000
vn 1.000000 0.000000 0.000000
vn 1.000000 0.000000 0.000000
vn 0.000000 0.000000 1.000000
vn 0.000000 0.000000 1.000000
vn 0.000000 0.000000 1.000000
vn 0.000000 0.000000 1.000000
vn 0.000000 0.000000 1.000000
vn 0.000000 0.000000 1.000000
vn 0.000000 0.000000 1.000000
vn 0.000000 0.000000 1.000000
vn 0.000000 0.000000 1.000000
vn 0.000000 0.000000 1.000000
vn 0.000000 0.000000 1.000000
vn 0.000000 0.000000 1.000000
vn -1.000000 -0.000000 0.000000
vn -1.000000 -0.000000 0.000000
vn -1.000000 -0.000000 0.000000
vn -1.000000 -0.000000 0.000000
vn -1.000000 -0.000000 0.000000
vn -1.000000 -0.000000 0.000000
vn -1.000000 -0.000000 0.000000
s off
f 11/18/1 18/28/2 17/27/3 4/4/4 10/17/5
f 6/6/6 3/3/7 10/17/8 4/4/9
f 5/5/10 15/24/11 22/34/12 20/31/13
f 7/7/14 8/8/15 2/10/16 1/9/17
f 2/2/18 8/11/19 19/29/20 16/26/21
f 7/13/22 1/1/23 24/37/24 26/39/25 23/35/26 21/32/27
f 11/18/28 10/17/29 3/3/30
f 9/15/31 11/18/32 3/3/33
f 9/16/34 3/3/35 6/6/36 5/5/37
f 13/21/38 15/24/39 14/25/40
f 14/25/41 15/24/42 12/19/43
f 16/26/44 19/29/45 18/28/46
f 23/36/47 22/34/48 21/33/49
f 20/31/50 22/34/51 23/36/52
f 18/28/53 19/29/54 17/27/55
f 27/40/56 26/39/57 24/37/58
f 25/38/59 26/39/60 27/40/61
f 5/5/62 6/6/63 12/19/64 15/24/65
f 22/34/66 8/8/67 7/7/68 21/33/69
f 22/34/70 15/24/71 13/21/72 8/8/73
f 19/29/74 14/23/75 4/4/76 17/27/77
f 19/29/78 8/11/79 13/22/80 14/23/81
f 4/4/82 14/23/83 12/20/84 6/12/85
f 27/40/86 2/2/87 16/26/88 18/28/89
f 27/40/90 18/28/91 11/18/92 25/38/93
f 1/1/94 2/2/95 27/40/96 24/37/97
f 23/35/98 26/39/99 25/38/100 11/18/101 9/15/102 5/14/103 20/30/104
