# This file uses meters as units for non-parametric coordinates.

v 8.607536 0.000000 -5.397244
v -8.607536 0.000000 -5.397244
v 8.607536 6.207652 -5.397244
v -8.607536 6.207652 -5.397244
v 8.607536 6.207652 5.397244
v -8.607536 6.207652 5.397244
v 8.607536 0.000000 5.397244
v -8.607536 0.000000 5.397244
v -1.721523 6.207652 -5.397244
v -1.721523 0.000000 -5.397244
v -7.230344 6.207652 -5.397244
v -7.230344 0.000000 -5.397244
v 1.721497 6.207652 5.397244
v 1.721497 0.000000 5.397244
v 7.230344 6.207652 5.397244
v 7.230344 0.000000 5.397244
v 7.935355 6.207652 -4.579019
v 6.932749 6.207652 -4.579019
v 6.932749 6.207652 -1.777223
v 7.935355 6.207652 -1.777223
v 5.447192 6.207652 -4.579019
v 5.447192 6.207652 -1.777223
v 6.520759 6.207652 -1.777223
v 6.520759 6.207652 -4.579019
v 3.973929 6.207652 -4.579019
v 3.973929 6.207652 -1.777223
v 4.993794 6.207652 -1.777223
v 4.993794 6.207652 -4.579019
v 7.434026 6.207652 -0.969709
v 5.984001 6.207652 -0.969709
v 4.483836 6.207652 -0.969709
v -8.607536 0.390341 -4.918724
v -8.607536 0.390341 4.918724
v -8.607536 5.817310 4.918724
v -8.607536 5.817310 -4.918724
v 8.607536 0.390341 -4.918724
v 8.607536 0.390341 4.918724
v 8.607536 5.817310 -4.918724
v 8.607536 5.817310 4.918724
v -8.255462 0.620849 -4.689728
v -8.255462 0.620849 4.689728
v -8.255462 5.586802 4.689728
v -8.255462 5.586802 -4.689728
v 8.255462 0.620849 -4.689728
v 8.255462 0.620849 4.689728
v 8.255462 5.586802 -4.689728
v 8.255462 5.586802 4.689728
vt 0.172331 0.447666
vt 0.172331 0.447666
vt 0.172331 0.447666
vt 0.172331 0.447666
vt 0.172331 0.447666
vt 0.172331 0.447666
vt 0.172331 0.447666
vt 0.172331 0.447666
vt 0.172331 0.447666
vt 0.172331 0.447666
vt 0.172331 0.447666
vt 0.172331 0.447666
vt 0.172331 0.447666
vt 0.172331 0.447666
vt 0.172331 0.447666
vt 0.172331 0.447666
vt 0.172331 0.447666
vt 0.172331 0.447666
vt 0.172331 0.447666
vt 0.172331 0.447666
vt 0.172331 0.447666
vt 0.172331 0.447666
vt 0.172331 0.447666
vt 0.172331 0.447666
vt 0.172331 0.447666
vt 0.172331 0.447666
vt 0.172331 0.447666
vt 0.172331 0.447666
vt 0.155675 0.421038
vt 0.155675 0.421038
vt 0.155675 0.421038
vt 0.155675 0.421038
vt 0.172331 0.447666
vt 0.172331 0.447666
vt 0.172331 0.447666
vt 0.172331 0.447666
vt 0.155675 0.421038
vt 0.155675 0.421038
vt 0.155675 0.421038
vt 0.155675 0.421038
vt 0.155675 0.421038
vt 0.155675 0.421038
vt 0.155675 0.421038
vt 0.155675 0.421038
vt 0.155675 0.421038
vt 0.155675 0.421038
vt 0.155675 0.421038
vt 0.155675 0.421038
vt 0.155675 0.421038
vt 0.172331 0.447666
vt 0.172331 0.447666
vt 0.172331 0.447666
vt 0.172331 0.447666
vt 0.155675 0.421038
vt 0.155675 0.421038
vt 0.155675 0.421038
vt 0.155675 0.421038
vt 0.172331 0.447666
vt 0.172331 0.447666
vt 0.172331 0.447666
vt 0.172331 0.447666
vt 0.172331 0.447666
vt 0.172331 0.447666
vt 0.172331 0.447666
vt 0.172331 0.447666
vt 0.155675 0.421038
vt 0.155675 0.421038
vt 0.155675 0.421038
vt 0.155675 0.421038
vt 0.155675 0.421038
vt 0.172331 0.447666
vt 0.172331 0.447666
vt 0.155675 0.421038
vt 0.155675 0.421038
vt 0.155675 0.421038
vt 0.155675 0.421038
vt 0.155675 0.421038
vt 0.172331 0.447666
vt 0.172331 0.447666
vt 0.172331 0.447666
vt 0.172331 0.447666
vt 0.172331 0.447666
vt 0.172331 0.447666
vt 0.172331 0.447666
vt 0.172331 0.447666
vt 0.172331 0.447666
vt 0.172331 0.447666
vt 0.172331 0.447666
vt 0.172331 0.447666
vt 0.172331 0.447666
vt 0.172331 0.447666
vt 0.172331 0.447666
vt 0.172331 0.447666
vt 0.172331 0.447666
vt 0.172331 0.426131
vt 0.172331 0.447666
vt 0.172331 0.447666
vt 0.172331 0.447666
vt 0.172331 0.426131
vt 0.172331 0.447666
vt 0.172331 0.447666
vt 0.172331 0.447666
vt 0.172331 0.447666
vt 0.172331 0.426131
vt 0.172331 0.426131
vt 0.172331 0.426131
vt 0.172331 0.447666
vt 0.172331 0.426131
vt 0.172331 0.426131
vt 0.172331 0.426131
vn 0.000000 0.000000 -1.000000
vn 0.000000 0.000000 -1.000000
vn 0.000000 0.000000 -1.000000
vn 0.000000 0.000000 -1.000000
vn 0.000000 1.000000 0.000000
vn 0.000000 1.000000 0.000000
vn 0.000000 1.000000 0.000000
vn 0.000000 1.000000 0.000000
vn 0.000000 0.000000 1.000000
vn 0.000000 0.000000 1.000000
vn 0.000000 0.000000 1.000000
vn 0.000000 0.000000 1.000000
vn 0.000000 -1.000000 0.000000
vn 0.000000 -1.000000 0.000000
vn 0.000000 -1.000000 0.000000
vn 0.000000 -1.000000 0.000000
vn -1.000000 0.000000 0.000000
vn -1.000000 0.000000 0.000000
vn -1.000000 0.000000 0.000000
vn -1.000000 0.000000 0.000000
vn 1.000000 0.000000 0.000000
vn 1.000000 0.000000 0.000000
vn 1.000000 0.000000 0.000000
vn 1.000000 0.000000 0.000000
vn 0.000000 0.000000 -1.000000
vn 0.000000 0.000000 -1.000000
vn 0.000000 0.000000 -1.000000
vn 0.000000 0.000000 -1.000000
vn 0.000000 0.000000 -1.000000
vn 0.000000 0.000000 -1.000000
vn 0.000000 0.000000 -1.000000
vn 0.000000 0.000000 -1.000000
vn 0.000000 0.000000 1.000000
vn 0.000000 0.000000 1.000000
vn 0.000000 0.000000 1.000000
vn 0.000000 0.000000 1.000000
vn 0.000000 0.000000 1.000000
vn 0.000000 0.000000 1.000000
vn 0.000000 0.000000 1.000000
vn 0.000000 0.000000 1.000000
vn 0.000000 1.000000 0.000000
vn 0.000000 1.000000 0.000000
vn 0.000000 1.000000 0.000000
vn 0.000000 1.000000 0.000000
vn 0.000000 1.000000 0.000000
vn 0.000000 1.000000 0.000000
vn 0.000000 1.000000 0.000000
vn 0.000000 1.000000 0.000000
vn 0.000000 1.000000 0.000000
vn 0.000000 -1.000000 0.000000
vn 0.000000 -1.000000 0.000000
vn 0.000000 -1.000000 0.000000
vn 0.000000 -1.000000 0.000000
vn 0.000000 -1.000000 0.000000
vn 0.000000 -1.000000 0.000000
vn 0.000000 -1.000000 0.000000
vn 0.000000 -1.000000 0.000000
vn 0.000000 1.000000 0.000001
vn 0.000000 1.000000 0.000001
vn 0.000000 1.000000 0.000001
vn 0.000000 1.000000 0.000001
vn 0.000000 1.000000 0.000001
vn 0.000000 1.000000 0.000001
vn 0.000000 1.000000 0.000001
vn 0.000000 1.000000 0.000001
vn 0.000000 1.000000 0.000000
vn 0.000000 1.000000 0.000000
vn 0.000000 1.000000 0.000000
vn 0.000000 1.000000 0.000000
vn 0.000000 1.000000 0.000000
vn 0.000000 1.000000 0.000000
vn 0.000000 1.000000 0.000000
vn 0.000000 1.000000 0.000000
vn 0.000000 1.000000 0.000000
vn 0.000000 1.000000 0.000000
vn 0.000000 1.000000 0.000000
vn 0.000000 1.000000 0.000000
vn 0.000000 1.000000 0.000000
vn 0.000000 1.000000 0.000000
vn 0.000000 1.000000 0.000000
vn 0.000000 1.000000 0.000000
vn 0.000000 1.000000 0.000000
vn 0.000000 1.000000 0.000000
vn 0.000000 1.000000 -0.000000
vn 0.000000 1.000000 -0.000000
vn 0.000000 1.000000 -0.000000
vn 0.000000 1.000000 -0.000000
vn 0.000000 1.000000 -0.000000
vn 0.000000 1.000000 -0.000000
vn 0.000000 1.000000 -0.000000
vn 0.000000 1.000000 -0.000000
vn 0.000000 1.000000 -0.000000
vn 0.000000 1.000000 -0.000000
vn 0.000000 1.000000 -0.000000
vn 0.000000 1.000000 -0.000000
vn 0.000000 1.000000 -0.000000
vn 0.000000 1.000000 -0.000000
vn 0.000000 1.000000 -0.000000
vn 0.000000 1.000000 0.000000
vn 0.000000 1.000000 0.000000
vn 0.000000 1.000000 0.000000
vn 0.000000 1.000000 0.000000
vn -1.000000 -0.000001 0.000000
vn -1.000000 -0.000001 0.000000
vn -1.000000 -0.000001 0.000000
vn -1.000000 -0.000001 0.000000
vn -1.000000 0.000000 0.000000
vn -1.000000 0.000000 0.000000
vn -1.000000 0.000000 0.000000
vn -1.000000 0.000000 0.000000
vn -1.000000 0.000000 0.000000
vn -1.000000 0.000000 0.000000
vn -1.000000 0.000000 0.000000
vn -1.000000 0.000000 0.000000
vn -1.000000 0.000000 0.000000
vn -1.000000 0.000000 0.000000
vn -1.000000 0.000000 0.000000
vn -1.000000 0.000000 0.000000
vn 1.000000 -0.000000 0.000000
vn 1.000000 -0.000000 0.000000
vn 1.000000 -0.000000 0.000000
vn 1.000000 -0.000000 0.000000
vn 1.000000 0.000000 0.000000
vn 1.000000 0.000000 0.000000
vn 1.000000 0.000000 0.000000
vn 1.000000 0.000000 0.000000
vn 1.000000 0.000001 0.000000
vn 1.000000 0.000001 0.000000
vn 1.000000 0.000001 0.000000
vn 1.000000 0.000001 0.000000
vn 1.000000 0.000000 0.000000
vn 1.000000 0.000000 0.000000
vn 1.000000 0.000000 0.000000
vn 1.000000 0.000000 0.000000
vn -0.547757 0.836637 0.000000
vn -0.547757 0.836637 0.000000
vn -0.547757 0.836637 0.000000
vn -0.547757 0.836637 0.000000
vn -0.545235 0.000000 -0.838284
vn -0.545235 0.000000 -0.838284
vn -0.545235 0.000000 -0.838284
vn -0.545235 0.000000 -0.838284
vn -0.547758 -0.836637 0.000000
vn -0.547758 -0.836637 0.000000
vn -0.547758 -0.836637 0.000000
vn -0.547758 -0.836637 0.000000
vn -0.545235 0.000000 0.838283
vn -0.545235 0.000000 0.838283
vn -0.545235 0.000000 0.838283
vn -0.545235 0.000000 0.838283
vn 0.547757 0.836637 0.000000
vn 0.547757 0.836637 0.000000
vn 0.547757 0.836637 0.000000
vn 0.547757 0.836637 0.000000
vn 0.545235 0.000000 0.838283
vn 0.545235 0.000000 0.838283
vn 0.545235 0.000000 0.838283
vn 0.545235 0.000000 0.838283
vn 0.547758 -0.836637 0.000000
vn 0.547758 -0.836637 0.000000
vn 0.547758 -0.836637 0.000000
vn 0.547758 -0.836637 0.000000
vn 0.545234 0.000000 -0.838284
vn 0.545234 0.000000 -0.838284
vn 0.545234 0.000000 -0.838284
vn 0.545234 0.000000 -0.838284
s off
f 11/1/1 12/2/2 2/3/3 4/4/4
f 13/5/5 11/6/6 4/7/7 6/8/8
f 5/9/9 15/10/10 16/11/11 7/12/12
f 7/13/13 16/14/14 10/15/15 1/16/16
f 40/95/17 41/110/18 42/109/19 43/108/20
f 45/99/21 44/106/22 46/105/23 47/104/24
f 1/25/25 10/26/26 9/27/27 3/28/28
f 9/29/29 10/30/30 12/31/31 11/32/32
f 14/33/33 13/34/34 6/35/35 8/36/36
f 16/37/37 15/38/38 13/39/39 14/40/40
f 17/41/41 18/42/42 19/43/43 29/44/44 20/45/45
f 15/46/46 9/47/47 11/48/48 13/49/49
f 12/50/50 14/51/51 8/52/52 2/53/53
f 10/54/54 16/55/55 14/56/56 12/57/57
f 21/58/58 24/59/59 18/60/60 17/61/61 3/62/62 9/63/63 25/64/64 28/65/65
f 21/66/66 22/67/67 30/68/68 23/69/69 24/70/70
f 5/71/71 3/62/72 17/61/73 20/72/74
f 25/73/75 26/74/76 31/75/77 27/76/78 28/77/79
f 19/78/80 18/60/81 24/59/82 23/79/83
f 9/63/84 15/80/85 26/81/86 25/64/87
f 22/82/88 27/83/89 31/84/90 26/81/91 15/80/92 5/71/93 20/72/94 29/85/95 19/78/96 23/79/97 30/86/98
f 22/82/99 21/58/100 28/65/101 27/83/102
f 2/17/103 8/18/104 33/88/105 32/87/106
f 8/18/107 6/19/108 34/89/109 33/88/110
f 6/19/111 4/20/112 35/90/113 34/89/114
f 4/20/115 2/17/116 32/87/117 35/90/118
f 7/21/119 1/22/120 36/92/121 37/91/122
f 1/22/123 3/23/124 38/93/125 36/92/126
f 3/23/127 5/24/128 39/94/129 38/93/130
f 5/24/131 7/21/132 37/91/133 39/94/134
f 32/87/135 33/88/136 41/96/137 40/107/138
f 33/88/139 34/89/140 42/97/141 41/96/142
f 34/89/143 35/90/144 43/98/145 42/97/146
f 35/90/147 32/87/148 40/107/149 43/98/150
f 37/91/151 36/92/152 44/100/153 45/103/154
f 36/92/155 38/93/156 46/101/157 44/100/158
f 38/93/159 39/94/160 47/102/161 46/101/162
f 39/94/163 37/91/164 45/103/165 47/102/166
