# This file uses meters as units for non-parametric coordinates.

v 2.542386 0.000000 -2.542386
v -0.000000 0.000000 -3.595477
v -2.542386 0.000000 -2.542386
v -3.595477 0.000000 -0.000000
v -2.542386 0.000000 2.542386
v -0.000000 0.000000 3.595477
v 2.542386 0.000000 2.542387
v 3.595478 0.000000 -0.000000
v 2.542386 94.335250 -2.542386
v -0.000000 94.335250 -3.595477
v -2.542386 94.335250 -2.542386
v -3.595477 94.335250 -0.000000
v -2.542386 94.335250 2.542386
v -0.000000 94.335250 3.595477
v 2.542386 94.335250 2.542387
v 3.595478 94.335250 -0.000000
v -0.000000 0.000000 -0.000000
v -2.542386 2.463307 -2.542386
v -3.595477 2.463307 -0.000000
v -2.542386 2.463307 2.542386
v -0.000000 2.463307 3.595477
v 2.542386 2.463307 2.542387
v 3.595478 2.463307 -0.000000
v 2.542386 2.463307 -2.542386
v -0.000000 2.463307 -3.595477
v 1.423416 4.132510 -1.423416
v 2.013015 4.132510 -0.000000
v 1.423416 4.132510 1.423416
v -0.000000 4.132510 2.013015
v -1.423416 4.132510 1.423416
v -2.013015 4.132510 -0.000000
v -1.423416 4.132510 -1.423416
v -0.000000 4.132510 -2.013015
v 1.423416 27.518771 -1.423416
v 2.013015 27.518771 -0.000000
v 1.423416 27.518771 1.423416
v -0.000000 27.518771 2.013015
v -1.423416 27.518771 1.423416
v -2.013015 27.518771 -0.000000
v -1.423416 27.518771 -1.423416
v -0.000000 27.518771 -2.013015
v 2.542386 50.318428 -2.542386
v 3.595478 50.318428 -0.000000
v 2.542386 50.318428 2.542388
v -0.000000 50.318428 3.595477
v -2.542386 50.318428 2.542386
v -3.595477 50.318428 -0.000000
v -2.542386 50.318428 -2.542386
v -0.000000 50.318428 -3.595477
v 1.636460 95.333959 -1.636460
v -0.000000 95.333959 -2.314304
v -0.000000 95.333959 -0.000000
v -1.636460 95.333959 -1.636460
v -2.314303 95.333959 -0.000000
v -1.636460 95.333959 1.636460
v -0.000000 95.333959 2.314304
v 1.636460 95.333959 1.636461
v 2.314304 95.333959 -0.000000
vt 0.039357 0.331760
vt 0.039357 0.331760
vt 0.039357 0.331760
vt 0.039357 0.331760
vt 0.039357 0.331760
vt 0.039357 0.331760
vt 0.039357 0.331760
vt 0.039357 0.331760
vt 0.039357 0.331760
vt 0.039357 0.331760
vt 0.039357 0.331760
vt 0.039357 0.331760
vt 0.039357 0.331760
vt 0.039357 0.331760
vt 0.039357 0.331760
vt 0.039357 0.331760
vt 0.039357 0.331760
vt 0.039357 0.331760
vt 0.039357 0.331760
vt 0.039357 0.331760
vt 0.039357 0.331760
vt 0.039357 0.331760
vt 0.039357 0.331760
vt 0.039357 0.331760
vt 0.039357 0.331760
vt 0.039357 0.331760
vt 0.039357 0.331760
vt 0.039357 0.331760
vt 0.039357 0.331760
vt 0.039357 0.331760
vt 0.039357 0.331760
vt 0.039357 0.331760
vt 0.039357 0.331760
vt 0.039357 0.331760
vt 0.039357 0.331760
vt 0.039357 0.331760
vt 0.039357 0.331760
vt 0.039357 0.331760
vt 0.039357 0.331760
vt 0.039357 0.331760
vt 0.039357 0.331760
vt 0.039357 0.331760
vt 0.039357 0.331760
vt 0.039357 0.331760
vt 0.039357 0.331760
vt 0.039357 0.331760
vt 0.039357 0.331760
vt 0.039357 0.331760
vt 0.039357 0.331760
vt 0.039357 0.331760
vt 0.039357 0.331760
vt 0.039357 0.331760
vt 0.039357 0.331760
vt 0.039357 0.331760
vt 0.039357 0.331760
vt 0.039357 0.331760
vt 0.039357 0.331760
vt 0.039357 0.331760
vt 0.039357 0.331760
vt 0.039357 0.331760
vt 0.039357 0.331760
vt 0.039357 0.331760
vt 0.039357 0.331760
vt 0.039357 0.331760
vt 0.039357 0.331760
vt 0.039357 0.331760
vt 0.039357 0.331760
vt 0.039357 0.331760
vt 0.039357 0.331760
vt 0.039357 0.331760
vt 0.039357 0.331760
vt 0.039357 0.331760
vt 0.039357 0.331760
vt 0.039357 0.331760
vt 0.039357 0.331760
vt 0.039357 0.331760
vt 0.039357 0.331760
vt 0.039357 0.331760
vt 0.039357 0.331760
vt 0.039357 0.331760
vt 0.101952 0.228448
vt 0.101952 0.228448
vt 0.101952 0.228449
vt 0.101952 0.228449
vt 0.101952 0.228448
vt 0.101952 0.228449
vt 0.101952 0.228448
vt 0.101952 0.228449
vt 0.101952 0.228448
vt 0.101952 0.228449
vt 0.101952 0.228448
vt 0.101952 0.228449
vt 0.101952 0.228448
vt 0.101952 0.228449
vt 0.101952 0.228448
vt 0.101952 0.228449
vn 0.369718 0.258096 -0.892578
vn 0.369718 0.258096 -0.892578
vn 0.381100 0.090870 -0.920057
vn 0.381100 0.090870 -0.920057
vn -0.369718 0.258096 -0.892578
vn -0.369718 0.258096 -0.892578
vn -0.381100 0.090870 -0.920057
vn -0.381100 0.090870 -0.920057
vn -0.892578 0.258096 -0.369718
vn -0.892578 0.258096 -0.369718
vn -0.920057 0.090870 -0.381100
vn -0.920057 0.090870 -0.381100
vn -0.892578 0.258096 0.369718
vn -0.892578 0.258096 0.369718
vn -0.920057 0.090870 0.381100
vn -0.920057 0.090870 0.381100
vn -0.369718 0.258096 0.892578
vn -0.369718 0.258096 0.892578
vn -0.381101 0.090870 0.920057
vn -0.381101 0.090870 0.920057
vn 0.369718 0.258096 0.892578
vn 0.369718 0.258096 0.892578
vn 0.381101 0.090870 0.920057
vn 0.381101 0.090870 0.920057
vn 0.892578 0.258096 0.369718
vn 0.892578 0.258096 0.369718
vn 0.920057 0.090870 0.381100
vn 0.920057 0.090870 0.381100
vn 0.892578 0.258096 -0.369718
vn 0.892578 0.258096 -0.369718
vn 0.920057 0.090870 -0.381101
vn 0.920057 0.090870 -0.381101
vn 0.000000 -1.000000 0.000000
vn 0.000000 -1.000000 0.000000
vn 0.000000 -1.000000 0.000000
vn 0.000000 -1.000000 0.000000
vn 0.000000 -1.000000 0.000000
vn 0.000000 -1.000000 0.000000
vn 0.000000 -1.000000 0.000000
vn 0.000000 -1.000000 0.000000
vn 0.000000 -1.000000 0.000000
vn 0.000000 -1.000000 0.000000
vn 0.000000 -1.000000 0.000000
vn 0.000000 -1.000000 0.000000
vn 0.000000 -1.000000 0.000000
vn 0.000000 -1.000000 0.000000
vn 0.000000 -1.000000 0.000000
vn 0.000000 -1.000000 0.000000
vn 0.000000 -1.000000 0.000000
vn 0.000000 -1.000000 0.000000
vn 0.000000 -1.000000 0.000000
vn 0.000000 -1.000000 0.000000
vn 0.000000 -1.000000 0.000000
vn 0.000000 -1.000000 0.000000
vn 0.000000 -1.000000 0.000000
vn 0.000000 -1.000000 0.000000
vn 0.000000 1.000000 -0.000004
vn 0.000000 1.000000 0.000000
vn 0.000000 1.000000 0.000000
vn 0.000000 1.000000 0.000000
vn 0.000000 1.000000 0.000000
vn 0.000000 1.000000 0.000000
vn 0.000000 1.000000 0.000000
vn 0.000000 1.000000 0.000004
vn 0.000000 1.000000 0.000000
vn 0.000000 1.000000 0.000004
vn 0.000000 1.000000 0.000004
vn 0.000000 1.000000 0.000000
vn 0.000000 1.000000 0.000004
vn 0.000000 1.000000 0.000000
vn 0.000000 1.000000 0.000000
vn 0.000000 1.000000 0.000000
vn 0.000000 1.000000 0.000000
vn 0.000000 1.000000 0.000000
vn 0.000000 1.000000 0.000000
vn 0.000000 1.000000 -0.000004
vn 0.000000 1.000000 0.000000
vn 0.000000 1.000000 -0.000004
vn 0.000000 1.000000 -0.000004
vn 0.000000 1.000000 0.000000
vn -0.923880 0.000000 -0.382683
vn -0.923880 0.000000 -0.382683
vn -0.892578 0.258096 -0.369718
vn -0.892578 0.258096 -0.369718
vn -0.923880 0.000000 0.382683
vn -0.923880 0.000000 0.382683
vn -0.892578 0.258096 0.369718
vn -0.892578 0.258096 0.369718
vn -0.382683 0.000000 0.923880
vn -0.382683 0.000000 0.923880
vn -0.369718 0.258096 0.892578
vn -0.369718 0.258096 0.892578
vn 0.382683 0.000000 0.923880
vn 0.382683 0.000000 0.923880
vn 0.369718 0.258096 0.892578
vn 0.369718 0.258096 0.892578
vn 0.923880 0.000000 0.382684
vn 0.923880 0.000000 0.382684
vn 0.892578 0.258096 0.369718
vn 0.892578 0.258096 0.369718
vn 0.923879 0.000000 -0.382684
vn 0.923879 0.000000 -0.382684
vn 0.892578 0.258096 -0.369718
vn 0.892578 0.258096 -0.369718
vn 0.382684 0.000000 -0.923880
vn 0.382684 0.000000 -0.923880
vn 0.369718 0.258096 -0.892578
vn 0.369718 0.258096 -0.892578
vn -0.382684 0.000000 -0.923880
vn -0.382684 0.000000 -0.923880
vn -0.369718 0.258096 -0.892578
vn -0.369718 0.258096 -0.892578
vn 0.920057 0.090870 -0.381101
vn 0.920057 0.090870 -0.381101
vn 0.923241 -0.037167 -0.382419
vn 0.923241 -0.037167 -0.382419
vn 0.920057 0.090870 0.381100
vn 0.920057 0.090870 0.381100
vn 0.923241 -0.037167 0.382419
vn 0.923241 -0.037167 0.382419
vn 0.381101 0.090870 0.920057
vn 0.381101 0.090870 0.920057
vn 0.382419 -0.037167 0.923241
vn 0.382419 -0.037167 0.923241
vn -0.381101 0.090870 0.920057
vn -0.381101 0.090870 0.920057
vn -0.382419 -0.037167 0.923241
vn -0.382419 -0.037167 0.923241
vn -0.920057 0.090870 0.381100
vn -0.920057 0.090870 0.381100
vn -0.923241 -0.037167 0.382419
vn -0.923241 -0.037167 0.382419
vn -0.920057 0.090870 -0.381100
vn -0.920057 0.090870 -0.381100
vn -0.923241 -0.037167 -0.382419
vn -0.923241 -0.037167 -0.382419
vn -0.381100 0.090870 -0.920057
vn -0.381100 0.090870 -0.920057
vn -0.382419 -0.037167 -0.923241
vn -0.382419 -0.037167 -0.923241
vn 0.381100 0.090870 -0.920057
vn 0.381100 0.090870 -0.920057
vn 0.382419 -0.037167 -0.923241
vn 0.382419 -0.037167 -0.923241
vn 0.923241 -0.037167 -0.382419
vn 0.923241 -0.037167 -0.382419
vn 0.923726 -0.018225 -0.382620
vn 0.923726 -0.018225 -0.382620
vn 0.923241 -0.037167 0.382419
vn 0.923241 -0.037167 0.382419
vn 0.923726 -0.018225 0.382620
vn 0.923726 -0.018225 0.382620
vn 0.382419 -0.037167 0.923241
vn 0.382419 -0.037167 0.923241
vn 0.382620 -0.018225 0.923726
vn 0.382620 -0.018225 0.923726
vn -0.382419 -0.037167 0.923241
vn -0.382419 -0.037167 0.923241
vn -0.382620 -0.018225 0.923726
vn -0.382620 -0.018225 0.923726
vn -0.923241 -0.037167 0.382419
vn -0.923241 -0.037167 0.382419
vn -0.923726 -0.018225 0.382620
vn -0.923726 -0.018225 0.382620
vn -0.923241 -0.037167 -0.382419
vn -0.923241 -0.037167 -0.382419
vn -0.923726 -0.018225 -0.382620
vn -0.923726 -0.018225 -0.382620
vn -0.382419 -0.037167 -0.923241
vn -0.382419 -0.037167 -0.923241
vn -0.382620 -0.018225 -0.923726
vn -0.382620 -0.018225 -0.923726
vn 0.382419 -0.037167 -0.923241
vn 0.382419 -0.037167 -0.923241
vn 0.382620 -0.018225 -0.923726
vn 0.382620 -0.018225 -0.923726
vn 0.923879 0.000000 -0.382684
vn 0.923726 -0.018225 -0.382620
vn 0.923726 -0.018225 -0.382620
vn 0.923879 0.000000 -0.382684
vn 0.923726 -0.018225 0.382620
vn 0.923726 -0.018225 0.382620
vn 0.923880 0.000000 0.382683
vn 0.923880 0.000000 0.382683
vn 0.382620 -0.018225 0.923726
vn 0.382620 -0.018225 0.923726
vn 0.382683 0.000000 0.923880
vn 0.382683 0.000000 0.923880
vn -0.382620 -0.018225 0.923726
vn -0.382620 -0.018225 0.923726
vn -0.382683 0.000000 0.923880
vn -0.382683 0.000000 0.923880
vn -0.923880 0.000000 0.382683
vn -0.923726 -0.018225 0.382620
vn -0.923726 -0.018225 0.382620
vn -0.923880 0.000000 0.382683
vn -0.923726 -0.018225 -0.382620
vn -0.923726 -0.018225 -0.382620
vn -0.923880 0.000000 -0.382683
vn -0.923880 0.000000 -0.382683
vn -0.382620 -0.018225 -0.923726
vn -0.382620 -0.018225 -0.923726
vn -0.382683 0.000000 -0.923880
vn -0.382683 0.000000 -0.923880
vn 0.382683 0.000000 -0.923880
vn 0.382620 -0.018225 -0.923726
vn 0.382620 -0.018225 -0.923726
vn 0.382683 0.000000 -0.923880
vn 0.246783 0.764291 -0.595783
vn 0.246783 0.764291 -0.595783
vn 0.246783 0.764291 -0.595783
vn 0.246783 0.764291 -0.595783
vn -0.246783 0.764291 -0.595783
vn -0.246783 0.764291 -0.595783
vn -0.246783 0.764291 -0.595783
vn -0.246783 0.764291 -0.595783
vn -0.595785 0.764290 -0.246781
vn -0.595785 0.764290 -0.246781
vn -0.595785 0.764290 -0.246781
vn -0.595785 0.764290 -0.246781
vn -0.595785 0.764291 0.246779
vn -0.595785 0.764291 0.246779
vn -0.595785 0.764291 0.246779
vn -0.595785 0.764291 0.246779
vn -0.246783 0.764292 0.595782
vn -0.246783 0.764292 0.595782
vn -0.246783 0.764292 0.595782
vn -0.246783 0.764292 0.595782
vn 0.246782 0.764289 0.595787
vn 0.246782 0.764289 0.595787
vn 0.246782 0.764289 0.595787
vn 0.246782 0.764289 0.595787
vn 0.595784 0.764289 0.246784
vn 0.595785 0.764289 0.246784
vn 0.595784 0.764289 0.246784
vn 0.595784 0.764289 0.246784
vn 0.595785 0.764290 -0.246783
vn 0.595785 0.764290 -0.246783
vn 0.595785 0.764290 -0.246783
vn 0.595785 0.764290 -0.246783
s off
f 24/44/1 25/45/2 33/54/3 26/47/4
f 25/45/5 18/37/6 32/53/7 33/54/8
f 18/37/9 19/38/10 31/52/11 32/53/12
f 19/38/13 20/39/14 30/51/15 31/52/16
f 20/39/17 21/40/18 29/50/19 30/51/20
f 21/40/21 22/41/22 28/49/23 29/50/24
f 22/41/25 23/42/26 27/48/27 28/49/28
f 23/42/29 24/43/30 26/46/31 27/48/32
f 2/2/33 1/1/34 17/35/35
f 3/3/36 2/2/37 17/35/38
f 4/4/39 3/3/40 17/35/41
f 5/5/42 4/4/43 17/35/44
f 6/6/45 5/5/46 17/35/47
f 7/7/48 6/6/49 17/35/50
f 8/8/51 7/7/52 17/35/53
f 1/1/54 8/8/55 17/35/56
f 50/73/57 51/74/58 52/36/59
f 51/74/60 53/75/61 52/36/62
f 53/75/63 54/76/64 52/36/65
f 54/76/66 55/77/67 52/36/68
f 55/77/69 56/78/70 52/36/71
f 56/78/72 57/79/73 52/36/74
f 57/79/75 58/80/76 52/36/77
f 58/80/78 50/73/79 52/36/80
f 3/11/81 4/12/82 19/38/83 18/37/84
f 4/12/85 5/13/86 20/39/87 19/38/88
f 5/13/89 6/14/90 21/40/91 20/39/92
f 6/14/93 7/15/94 22/41/95 21/40/96
f 7/15/97 8/16/98 23/42/99 22/41/100
f 8/16/101 1/17/102 24/43/103 23/42/104
f 1/9/105 2/10/106 25/45/107 24/44/108
f 2/10/109 3/11/110 18/37/111 25/45/112
f 27/81/113 26/82/114 34/83/115 35/84/116
f 28/85/117 27/81/118 35/84/119 36/86/120
f 29/87/121 28/85/122 36/86/123 37/88/124
f 30/89/125 29/87/126 37/88/127 38/90/128
f 31/91/129 30/89/130 38/90/131 39/92/132
f 32/93/133 31/91/134 39/92/135 40/94/136
f 33/95/137 32/93/138 40/94/139 41/96/140
f 26/82/141 33/95/142 41/96/143 34/83/144
f 35/57/145 34/55/146 42/64/147 43/66/148
f 36/58/149 35/57/150 43/66/151 44/67/152
f 37/59/153 36/58/154 44/67/155 45/68/156
f 38/60/157 37/59/158 45/68/159 46/69/160
f 39/61/161 38/60/162 46/69/163 47/70/164
f 40/62/165 39/61/166 47/70/167 48/71/168
f 41/63/169 40/62/170 48/71/171 49/72/172
f 34/56/173 41/63/174 49/72/175 42/65/176
f 16/25/177 43/66/178 42/64/179 9/26/180
f 44/67/181 43/66/182 16/25/183 15/24/184
f 45/68/185 44/67/186 15/24/187 14/23/188
f 46/69/189 45/68/190 14/23/191 13/22/192
f 12/21/193 47/70/194 46/69/195 13/22/196
f 48/71/197 47/70/198 12/21/199 11/20/200
f 49/72/201 48/71/202 11/20/203 10/19/204
f 9/18/205 42/65/206 49/72/207 10/19/208
f 9/33/209 10/32/210 51/74/211 50/73/212
f 10/32/213 11/31/214 53/75/215 51/74/216
f 11/31/217 12/30/218 54/76/219 53/75/220
f 12/30/221 13/29/222 55/77/223 54/76/224
f 13/29/225 14/28/226 56/78/227 55/77/228
f 14/28/229 15/27/230 57/79/231 56/78/232
f 15/27/233 16/34/234 58/80/235 57/79/236
f 16/34/237 9/33/238 50/73/239 58/80/240
