# This file uses meters as units for non-parametric coordinates.

v 0.926849 -2.237591 8.121554
v -0.926848 -2.237591 8.121554
v -2.237611 -0.926861 8.121554
v -2.237611 0.926837 8.121554
v -0.926848 2.237598 8.121554
v 0.926849 2.237598 8.121554
v 2.237611 0.926837 8.121554
v 2.237611 -0.926861 8.121554
v 0.942560 -2.275525 -1.508267
v -0.942559 -2.275525 -1.508267
v -2.275541 -0.942547 -1.508267
v -2.275541 0.942554 -1.508267
v -0.942559 2.275531 -1.508267
v 0.942560 2.275531 -1.508267
v 2.275541 0.942554 -1.508267
v 2.275541 -0.942547 -1.508267
v -2.275541 0.942554 -1.160703
v -0.942559 2.275531 -1.160703
v 0.942560 2.275531 -1.160703
v 2.275541 0.942554 -1.160703
v 2.275541 -0.942547 -1.160703
v 0.942560 -2.275525 -1.160703
v -0.942559 -2.275525 -1.160703
v -2.275541 -0.942547 -1.160703
v -2.237611 0.926837 -0.782346
v -0.926848 2.237598 -0.782346
v 0.926849 2.237598 -0.782346
v 2.237611 0.926837 -0.782346
v 2.237611 -0.926861 -0.782346
v 0.926849 -2.237591 -0.782346
v -0.926848 -2.237591 -0.782346
v -2.237611 -0.926861 -0.782346
v -0.843578 -2.036602 -1.060208
v 0.843579 -2.036602 -1.060208
v 2.036579 -0.843548 -1.060208
v 2.036579 0.843585 -1.060208
v 0.843579 2.036579 -1.060208
v -0.843578 2.036579 -1.060208
v -2.036579 0.843585 -1.060208
v -2.036579 -0.843548 -1.060208
v 0.792626 -1.913556 8.121554
v -0.792626 -1.913556 8.121554
v -1.913569 -0.792645 8.121554
v -1.913569 0.792652 8.121554
v -0.792626 1.913562 8.121554
v 0.792626 1.913562 8.121554
v 1.913569 0.792652 8.121554
v 1.913569 -0.792645 8.121554
v 0.754654 -1.821850 7.212924
v -0.754653 -1.821850 7.651675
v 0.000000 0.000019 7.651675
v -1.821895 -0.754681 7.212924
v -1.821895 0.754657 7.651675
v -0.754653 1.821857 7.212924
v 0.754654 1.821857 7.651675
v 1.821895 0.754657 7.212924
v 1.821895 -0.754681 7.651675
v 0.206174 -0.497739 -1.508267
v -0.206174 -0.497739 -1.508267
v -0.000000 -0.000012 -1.508267
v -0.497746 -0.206191 -1.508267
v -0.497746 0.206187 -1.508267
v -0.206174 0.497746 -1.508267
v 0.206174 0.497746 -1.508267
v 0.497746 0.206187 -1.508267
v 0.497746 -0.206191 -1.508267
vt 0.184366 0.178413
vt 0.184366 0.178413
vt 0.184366 0.125786
vt 0.184366 0.178413
vt 0.184366 0.178413
vt 0.184366 0.178413
vt 0.184366 0.178413
vt 0.184366 0.178413
vt 0.184366 0.178413
vt 0.094521 0.345115
vt 0.094521 0.345115
vt 0.094521 0.345115
vt 0.094521 0.345115
vt 0.094521 0.345115
vt 0.094521 0.345115
vt 0.094521 0.345114
vt 0.094521 0.345114
vt 0.094521 0.345114
vt 0.094521 0.345114
vt 0.094521 0.345114
vt 0.094521 0.345114
vt 0.094521 0.345114
vt 0.094521 0.345114
vt 0.094521 0.345115
vt 0.094521 0.345115
vt 0.059720 0.126600
vt 0.184366 0.178413
vt 0.184366 0.178413
vt 0.184366 0.178413
vt 0.184366 0.178413
vt 0.184366 0.178413
vt 0.184366 0.178413
vt 0.184366 0.178413
vt 0.184366 0.178413
vt 0.184366 0.178413
vt 0.184366 0.178413
vt 0.184366 0.178413
vt 0.184366 0.178413
vt 0.184366 0.178413
vt 0.184366 0.178413
vt 0.184366 0.178413
vt 0.184366 0.178413
vt 0.184366 0.178413
vt 0.184366 0.178413
vt 0.184366 0.178413
vt 0.184366 0.178413
vt 0.184366 0.178413
vt 0.184366 0.178413
vt 0.184366 0.178413
vt 0.184366 0.178413
vt 0.184366 0.125786
vt 0.184366 0.178413
vt 0.184366 0.125786
vt 0.184366 0.125786
vt 0.184366 0.125786
vt 0.184366 0.125786
vt 0.184366 0.125786
vt 0.184366 0.125786
vt 0.094521 0.345115
vt 0.094521 0.345115
vt 0.094521 0.345115
vt 0.094521 0.345114
vt 0.094521 0.345114
vt 0.094521 0.345114
vt 0.094521 0.345114
vt 0.094521 0.345115
vt 0.059720 0.126600
vt 0.059720 0.126600
vt 0.059720 0.126600
vt 0.059720 0.126600
vt 0.059720 0.126600
vt 0.059720 0.126600
vt 0.059720 0.126600
vt 0.059720 0.126600
vt 0.094521 0.345114
vt 0.094521 0.345114
vt 0.094521 0.345114
vt 0.094521 0.345114
vt 0.094521 0.345114
vt 0.094521 0.345114
vt 0.094521 0.345114
vt 0.094521 0.345114
vt 0.184366 0.125786
vt 0.184366 0.178413
vt 0.184366 0.125786
vt 0.184366 0.125786
vt 0.184366 0.125786
vt 0.184366 0.125786
vt 0.184366 0.125786
vt 0.184366 0.125786
vt 0.184366 0.125786
vt 0.184366 0.125786
vt 0.184366 0.125786
vt 0.184366 0.125786
vt 0.184366 0.178413
vt 0.184366 0.125786
vt 0.184366 0.178413
vt 0.184366 0.125786
vt 0.184366 0.178413
vt 0.184366 0.125786
vt 0.184366 0.178413
vt 0.184366 0.125786
vt 0.184366 0.178413
vt 0.184366 0.125786
vt 0.184366 0.178413
vn 0.000000 -1.000000 0.000000
vn 0.000000 -1.000000 0.000000
vn 0.000000 -1.000000 0.000000
vn 0.000000 -1.000000 0.000000
vn -0.707105 -0.707108 0.000000
vn -0.707105 -0.707108 0.000000
vn -0.707105 -0.707108 0.000000
vn -0.707105 -0.707108 0.000000
vn -1.000000 0.000000 0.000000
vn -1.000000 0.000000 0.000000
vn -1.000000 0.000000 0.000000
vn -1.000000 0.000000 0.000000
vn -0.707106 0.707108 0.000000
vn -0.707106 0.707108 0.000000
vn -0.707106 0.707108 0.000000
vn -0.707106 0.707108 0.000000
vn 0.000000 1.000000 0.000000
vn 0.000000 1.000000 0.000000
vn 0.000000 1.000000 0.000000
vn 0.000000 1.000000 0.000000
vn 0.707106 0.707108 0.000000
vn 0.707106 0.707108 0.000000
vn 0.707106 0.707108 0.000000
vn 0.707106 0.707108 0.000000
vn 1.000000 0.000000 0.000000
vn 1.000000 0.000000 0.000000
vn 1.000000 0.000000 0.000000
vn 1.000000 0.000000 0.000000
vn 0.707106 -0.707108 0.000000
vn 0.707106 -0.707108 0.000000
vn 0.707106 -0.707108 0.000000
vn 0.707106 -0.707108 0.000000
vn 0.277294 -0.114861 0.953895
vn 0.277294 -0.114861 0.953895
vn 0.277294 -0.114861 0.953895
vn -0.277298 0.114862 0.953893
vn -0.277298 0.114862 0.953893
vn -0.277298 0.114862 0.953893
vn -0.114854 -0.277289 0.953897
vn -0.114854 -0.277289 0.953897
vn -0.114854 -0.277289 0.953897
vn 0.114860 0.277303 0.953892
vn 0.114860 0.277303 0.953892
vn 0.114860 0.277303 0.953892
vn -0.277294 0.114863 0.953894
vn -0.277294 0.114863 0.953894
vn -0.277294 0.114863 0.953894
vn 0.277295 -0.114863 0.953894
vn 0.277295 -0.114863 0.953894
vn 0.277295 -0.114863 0.953894
vn 0.114863 0.277289 0.953896
vn 0.114863 0.277289 0.953896
vn 0.114863 0.277289 0.953896
vn -0.114869 -0.277302 0.953891
vn -0.114869 -0.277302 0.953891
vn -0.114869 -0.277302 0.953891
vn 0.000000 0.000000 -1.000000
vn 0.000000 0.000000 -1.000000
vn 0.000000 0.000000 -1.000000
vn 0.000000 0.000000 -1.000000
vn 0.000000 0.000000 -1.000000
vn 0.000000 0.000000 -1.000000
vn -0.000000 0.000000 -1.000000
vn -0.000000 0.000000 -1.000000
vn -0.000000 0.000000 -1.000000
vn 0.000000 0.000000 -1.000000
vn 0.000000 0.000000 -1.000000
vn 0.000000 0.000000 -1.000000
vn 0.000000 0.000000 -1.000000
vn 0.000000 0.000000 -1.000000
vn 0.000000 0.000000 -1.000000
vn 0.000000 0.000000 -1.000000
vn 0.000000 0.000000 -1.000000
vn 0.000000 0.000000 -1.000000
vn 0.000000 0.000000 -1.000000
vn 0.000000 0.000000 -1.000000
vn 0.000000 0.000000 -1.000000
vn 0.000000 0.000000 -1.000000
vn 0.000000 0.000000 -1.000000
vn 0.000000 0.000000 -1.000000
vn -0.572900 0.572903 -0.586147
vn -0.572900 0.572903 -0.586147
vn -0.572900 0.572903 -0.586147
vn -0.572900 0.572903 -0.586147
vn 0.000000 0.810207 -0.586143
vn 0.000000 0.810207 -0.586143
vn 0.000000 0.810207 -0.586144
vn 0.000000 0.810207 -0.586143
vn 0.572900 0.572902 -0.586147
vn 0.572900 0.572902 -0.586147
vn 0.572900 0.572902 -0.586147
vn 0.572900 0.572902 -0.586147
vn 0.810190 0.000000 -0.586168
vn 0.810190 0.000000 -0.586168
vn 0.810190 0.000000 -0.586168
vn 0.810190 0.000000 -0.586168
vn 0.572893 -0.572888 -0.586168
vn 0.572893 -0.572888 -0.586168
vn 0.572893 -0.572888 -0.586168
vn 0.572893 -0.572888 -0.586168
vn 0.000000 -0.810250 -0.586085
vn 0.000000 -0.810250 -0.586085
vn 0.000000 -0.810250 -0.586085
vn 0.000000 -0.810250 -0.586085
vn -0.572893 -0.572889 -0.586167
vn -0.572893 -0.572889 -0.586167
vn -0.572893 -0.572889 -0.586167
vn -0.572893 -0.572889 -0.586167
vn -0.810190 0.000000 -0.586168
vn -0.810189 0.000000 -0.586168
vn -0.810190 0.000000 -0.586168
vn -0.810190 0.000000 -0.586168
vn -0.707106 0.707108 0.000000
vn -0.707106 0.707108 0.000000
vn -0.707106 0.707108 0.000000
vn -0.707106 0.707108 0.000000
vn 0.000000 1.000000 0.000000
vn 0.000000 1.000000 0.000000
vn 0.000000 1.000000 0.000000
vn 0.000000 1.000000 0.000000
vn 0.707106 0.707107 0.000000
vn 0.707106 0.707107 0.000000
vn 0.707106 0.707107 0.000000
vn 0.707106 0.707107 0.000000
vn 1.000000 0.000000 0.000000
vn 1.000000 0.000000 0.000000
vn 1.000000 0.000000 0.000000
vn 1.000000 0.000000 0.000000
vn 0.707098 -0.707116 0.000000
vn 0.707098 -0.707116 0.000000
vn 0.707098 -0.707116 0.000000
vn 0.707098 -0.707116 0.000000
vn 0.000000 -1.000000 0.000000
vn 0.000000 -1.000000 0.000000
vn 0.000000 -1.000000 0.000000
vn 0.000000 -1.000000 0.000000
vn -0.707098 -0.707116 0.000000
vn -0.707098 -0.707116 0.000000
vn -0.707098 -0.707116 0.000000
vn -0.707098 -0.707116 0.000000
vn -1.000000 0.000000 0.000000
vn -1.000000 0.000000 0.000000
vn -1.000000 0.000000 0.000000
vn -1.000000 0.000000 0.000000
vn 0.000000 -0.387715 0.921779
vn 0.000000 -0.387715 0.921779
vn 0.000000 -0.387715 0.921779
vn 0.000000 -0.387715 0.921779
vn 0.274127 -0.274122 0.921798
vn 0.274127 -0.274122 0.921798
vn 0.274127 -0.274122 0.921798
vn 0.274127 -0.274122 0.921798
vn 0.387660 0.000000 0.921803
vn 0.387660 0.000000 0.921803
vn 0.387660 0.000000 0.921803
vn 0.387660 0.000000 0.921803
vn 0.274124 0.274125 0.921798
vn 0.274124 0.274125 0.921798
vn 0.274124 0.274125 0.921798
vn 0.274124 0.274125 0.921798
vn 0.000000 0.387673 0.921797
vn 0.000000 0.387673 0.921797
vn 0.000000 0.387673 0.921797
vn 0.000000 0.387673 0.921797
vn -0.274124 0.274125 0.921798
vn -0.274124 0.274125 0.921798
vn -0.274124 0.274125 0.921798
vn -0.274124 0.274125 0.921798
vn -0.387659 0.000000 0.921803
vn -0.387659 0.000000 0.921803
vn -0.387660 0.000000 0.921803
vn -0.387659 0.000000 0.921803
vn -0.274127 -0.274122 0.921798
vn -0.274127 -0.274122 0.921798
vn -0.274127 -0.274122 0.921798
vn -0.274127 -0.274122 0.921798
vn 0.000000 0.000000 1.000000
vn 0.000000 0.000000 1.000000
vn 0.000000 0.000000 1.000000
vn 0.000000 0.000000 1.000000
vn 0.000000 0.000000 1.000000
vn 0.000000 0.000000 1.000000
vn 0.000000 0.000000 1.000000
vn 0.000000 0.000000 1.000000
vn 0.000001 0.000000 1.000000
vn 0.000001 0.000000 1.000000
vn 0.000001 0.000000 1.000000
vn 0.000001 0.000000 1.000000
vn -0.000000 0.000000 1.000000
vn -0.000000 0.000000 1.000000
vn -0.000000 0.000000 1.000000
vn -0.000000 0.000000 1.000000
vn 0.000000 0.000000 1.000000
vn 0.000000 0.000000 1.000000
vn 0.000000 0.000000 1.000000
vn 0.000000 0.000000 1.000000
vn -0.000000 0.000000 1.000000
vn -0.000000 0.000000 1.000000
vn -0.000000 0.000000 1.000000
vn -0.000000 0.000000 1.000000
vn -0.000001 0.000000 1.000000
vn -0.000001 0.000000 1.000000
vn -0.000001 0.000000 1.000000
vn -0.000001 0.000000 1.000000
vn 0.000000 0.000000 1.000000
vn 0.000000 0.000000 1.000000
vn 0.000000 0.000000 1.000000
vn 0.000000 0.000000 1.000000
vn 0.018696 0.991091 0.131865
vn 0.018696 0.991091 0.131865
vn 0.018696 0.991091 0.131865
vn 0.018696 0.991091 0.131865
vn 0.687576 0.714044 0.131832
vn 0.687576 0.714044 0.131832
vn 0.687576 0.714044 0.131832
vn 0.687576 0.714044 0.131832
vn 0.991097 -0.018689 0.131821
vn 0.991097 -0.018689 0.131821
vn 0.991097 -0.018689 0.131821
vn 0.991097 -0.018689 0.131821
vn 0.714016 -0.687603 0.131846
vn 0.714016 -0.687603 0.131846
vn 0.714016 -0.687603 0.131846
vn 0.714016 -0.687603 0.131846
vn -0.018696 -0.991091 0.131865
vn -0.018696 -0.991091 0.131865
vn -0.018696 -0.991091 0.131865
vn -0.018696 -0.991091 0.131865
vn -0.687578 -0.714039 0.131847
vn -0.687578 -0.714039 0.131847
vn -0.687578 -0.714039 0.131847
vn -0.687578 -0.714039 0.131847
vn -0.991097 0.018689 0.131820
vn -0.991097 0.018689 0.131820
vn -0.991097 0.018689 0.131820
vn -0.991098 0.018689 0.131820
vn -0.714011 0.687611 0.131832
vn -0.714011 0.687611 0.131832
vn -0.714011 0.687611 0.131832
vn -0.714011 0.687611 0.131832
vn 0.000000 0.000000 -1.000000
vn 0.000000 0.000000 -1.000000
vn 0.000000 0.000000 -1.000000
vn 0.000000 0.000000 -1.000000
vn 0.000000 0.000000 -1.000000
vn 0.000000 0.000000 -1.000000
vn 0.000000 0.000000 -1.000000
vn 0.000000 0.000000 -1.000000
vn 0.000000 0.000000 -1.000000
vn 0.000000 0.000000 -1.000000
vn 0.000000 0.000000 -1.000000
vn 0.000000 0.000000 -1.000000
vn 0.000000 0.000000 -1.000000
vn 0.000000 0.000000 -1.000000
vn 0.000000 0.000000 -1.000000
vn 0.000000 0.000000 -1.000000
vn 0.000000 0.000000 -1.000000
vn 0.000000 0.000000 -1.000000
vn 0.000000 0.000000 -1.000000
vn 0.000000 0.000000 -1.000000
vn 0.000000 0.000000 -1.000000
vn 0.000000 0.000000 -1.000000
vn 0.000000 0.000000 -1.000000
vn 0.000000 0.000000 -1.000000
vn 0.000000 0.000000 -1.000000
vn 0.000000 0.000000 -1.000000
vn 0.000000 0.000000 -1.000000
vn 0.000000 0.000000 -1.000000
vn 0.000000 0.000000 -1.000000
vn 0.000000 0.000000 -1.000000
vn 0.000000 0.000000 -1.000000
vn 0.000000 0.000000 -1.000000
s off
f 22/10/1 23/11/2 10/12/3 9/13/4
f 23/11/5 24/14/6 11/15/7 10/12/8
f 24/14/9 17/16/10 12/17/11 11/15/12
f 17/16/13 18/18/14 13/19/15 12/17/16
f 18/18/17 19/20/18 14/21/19 13/19/20
f 19/20/21 20/22/22 15/23/23 14/21/24
f 20/22/25 21/24/26 16/25/27 15/23/28
f 21/24/29 22/10/30 9/13/31 16/25/32
f 50/104/33 49/85/34 51/87/35
f 52/102/36 50/51/37 51/88/38
f 53/100/39 52/53/40 51/89/41
f 54/98/42 53/54/43 51/90/44
f 55/96/45 54/55/46 51/91/47
f 56/94/48 55/56/49 51/92/50
f 57/83/51 56/57/52 51/93/53
f 49/86/54 57/58/55 51/3/56
f 58/26/57 59/67/58 60/68/59
f 59/67/60 61/69/61 60/68/62
f 61/69/63 62/70/64 60/68/65
f 62/70/66 63/71/67 60/68/68
f 63/71/69 64/72/70 60/68/71
f 64/72/72 65/73/73 60/68/74
f 65/73/75 66/74/76 60/68/77
f 66/74/78 58/26/79 60/68/80
f 25/27/81 26/28/82 38/29/83 39/30/84
f 26/28/85 27/31/86 37/32/87 38/29/88
f 27/31/89 28/33/90 36/34/91 37/32/92
f 28/33/93 29/35/94 35/36/95 36/34/96
f 29/35/97 30/37/98 34/38/99 35/36/100
f 30/37/101 31/39/102 33/40/103 34/38/104
f 31/39/105 32/41/106 40/42/107 33/40/108
f 32/41/109 25/27/110 39/30/111 40/42/112
f 26/28/113 25/27/114 4/5/115 5/6/116
f 27/31/117 26/28/118 5/6/119 6/7/120
f 28/33/121 27/31/122 6/7/123 7/8/124
f 29/35/125 28/33/126 7/8/127 8/9/128
f 30/37/129 29/35/130 8/9/131 1/2/132
f 31/39/133 30/37/134 1/2/135 2/1/136
f 32/41/137 31/39/138 2/1/139 3/4/140
f 4/5/141 25/27/142 32/41/143 3/4/144
f 34/59/145 33/60/146 23/11/147 22/10/148
f 35/61/149 34/59/150 22/10/151 21/24/152
f 36/62/153 35/61/154 21/24/155 20/22/156
f 37/63/157 36/62/158 20/22/159 19/20/160
f 38/64/161 37/63/162 19/20/163 18/18/164
f 39/65/165 38/64/166 18/18/167 17/16/168
f 40/66/169 39/65/170 17/16/171 24/14/172
f 33/60/173 40/66/174 24/14/175 23/11/176
f 2/1/177 1/2/178 41/44/179 42/43/180
f 3/4/181 2/1/182 42/43/183 43/45/184
f 4/5/185 3/4/186 43/45/187 44/46/188
f 5/6/189 4/5/190 44/46/191 45/47/192
f 6/7/193 5/6/194 45/47/195 46/48/196
f 7/8/197 6/7/198 46/48/199 47/49/200
f 8/9/201 7/8/202 47/49/203 48/50/204
f 1/2/205 8/9/206 48/50/207 41/44/208
f 42/43/209 41/44/210 49/52/211 50/105/212
f 43/45/213 42/43/214 50/105/215 52/103/216
f 44/46/217 43/45/218 52/103/219 53/101/220
f 45/47/221 44/46/222 53/101/223 54/99/224
f 46/48/225 45/47/226 54/99/227 55/97/228
f 47/49/229 46/48/230 55/97/231 56/95/232
f 48/50/233 47/49/234 56/95/235 57/84/236
f 41/44/237 48/50/238 57/84/239 49/52/240
f 9/13/241 10/12/242 59/75/243 58/76/244
f 10/12/245 11/15/246 61/77/247 59/75/248
f 11/15/249 12/17/250 62/78/251 61/77/252
f 12/17/253 13/19/254 63/79/255 62/78/256
f 13/19/257 14/21/258 64/80/259 63/79/260
f 14/21/261 15/23/262 65/81/263 64/80/264
f 15/23/265 16/25/266 66/82/267 65/81/268
f 16/25/269 9/13/270 58/76/271 66/82/272
