# This file uses meters as units for non-parametric coordinates.

v 0.267528 0.000198 -0.497926
v -0.297268 0.000066 -0.480328
v -0.564427 0.000004 0.017599
v -0.266789 0.000073 0.497928
v 0.298009 0.000205 0.480330
v 0.565166 0.000267 -0.017597
v 0.267031 2.127425 -0.497926
v -0.297765 2.127293 -0.480328
v -0.564924 2.127231 0.017599
v -0.267285 2.127300 0.497928
v 0.297512 2.127432 0.480330
v 0.564669 2.127495 -0.017597
v 0.197047 2.331128 -0.367579
v -0.219897 2.331031 -0.354587
v -0.417120 2.330985 0.012992
v -0.197396 2.331036 0.367580
v 0.219549 2.331134 0.354589
v 0.416770 2.331180 -0.012990
v 0.123460 3.040058 -0.230736
v -0.138265 3.039997 -0.222581
v -0.262065 3.039968 0.008156
v -0.124140 3.040000 0.230738
v 0.137584 3.040061 0.222583
v 0.261384 3.040090 -0.008154
v -0.000369 3.162253 0.000001
v 0.297976 0.138083 0.480330
v 0.565134 0.138146 -0.017597
v 0.267496 0.138076 -0.497926
v -0.297300 0.137944 -0.480328
v -0.564460 0.137882 0.017599
v -0.266821 0.137951 0.497928
v -0.564505 0.334598 0.017597
v -0.297346 0.334661 -0.480330
v 0.267450 0.334793 -0.497928
v 0.565088 0.334862 -0.017599
v 0.297930 0.334800 0.480328
v -0.266867 0.334668 0.497926
v 0.225183 0.189946 0.362872
v 0.427012 0.189993 -0.013296
v 0.202156 0.189941 -0.376169
v -0.224531 0.189841 -0.362874
v -0.426362 0.189794 0.013294
v -0.201505 0.189847 0.376167
v 0.126320 0.000165 -0.234746
v -0.139951 0.000103 -0.226449
v 0.000370 0.000135 0.000001
v -0.265903 0.000073 0.008297
v -0.125581 0.000106 0.234748
v 0.140691 0.000168 0.226451
v 0.266642 0.000198 -0.008296
v -0.218182 2.617672 -0.351712
v -0.413806 2.617626 0.012887
v -0.195863 2.617677 0.364599
v 0.217700 2.617774 0.351713
v 0.413322 2.617820 -0.012885
v 0.195381 2.617769 -0.364598
vt 0.094107 0.345750
vt 0.094107 0.345750
vt 0.094107 0.345750
vt 0.094107 0.345750
vt 0.094107 0.345750
vt 0.094107 0.345750
vt 0.094107 0.345750
vt 0.094107 0.345750
vt 0.094107 0.345750
vt 0.094107 0.345750
vt 0.094107 0.345750
vt 0.094107 0.345750
vt 0.094107 0.345750
vt 0.094107 0.345750
vt 0.094107 0.345750
vt 0.094107 0.345750
vt 0.094107 0.345750
vt 0.094107 0.345750
vt 0.094107 0.345750
vt 0.094107 0.345750
vt 0.094107 0.345750
vt 0.094107 0.345750
vt 0.094107 0.345750
vt 0.094107 0.345750
vt 0.094107 0.345750
vt 0.094107 0.345750
vt 0.059352 0.321900
vt 0.094107 0.345750
vt 0.094107 0.345750
vt 0.094107 0.345750
vt 0.094107 0.345750
vt 0.094107 0.345750
vt 0.094107 0.345750
vt 0.092954 0.320497
vt 0.092954 0.320497
vt 0.092954 0.320497
vt 0.092954 0.320497
vt 0.092954 0.320497
vt 0.092954 0.320497
vt 0.092954 0.320497
vt 0.094107 0.345750
vt 0.094107 0.345750
vt 0.094107 0.345750
vt 0.094107 0.345750
vt 0.094107 0.345750
vt 0.094107 0.345750
vt 0.094107 0.345750
vt 0.094107 0.345750
vt 0.094107 0.345750
vt 0.094107 0.345750
vt 0.094107 0.345750
vt 0.094107 0.345750
vt 0.094107 0.345750
vt 0.094107 0.345750
vt 0.094107 0.345750
vt 0.094107 0.345750
vt 0.094107 0.345750
vt 0.094107 0.345750
vt 0.094107 0.345750
vt 0.094107 0.345750
vt 0.094107 0.345750
vt 0.094107 0.345750
vt 0.094107 0.345750
vt 0.094107 0.345750
vt 0.094107 0.345750
vt 0.094107 0.345750
vt 0.094107 0.345750
vt 0.092954 0.320497
vt 0.092954 0.320497
vt 0.092954 0.320497
vt 0.092954 0.320497
vt 0.092954 0.320497
vt 0.092954 0.320497
vt 0.059352 0.321900
vt 0.059352 0.321900
vt 0.059352 0.321900
vt 0.059352 0.321900
vt 0.059352 0.321900
vt 0.059352 0.321900
vt 0.092954 0.320497
vt 0.092954 0.320497
vt 0.092954 0.320497
vt 0.092954 0.320497
vt 0.092954 0.320497
vt 0.092954 0.320497
vn -0.023860 -0.636943 -0.770542
vn -0.023860 -0.636943 -0.770542
vn -0.023860 -0.636943 -0.770542
vn -0.023860 -0.636943 -0.770542
vn -0.679164 -0.637094 -0.364482
vn -0.679164 -0.637094 -0.364482
vn -0.679164 -0.637094 -0.364482
vn -0.679164 -0.637094 -0.364482
vn -0.655156 -0.637089 0.406064
vn -0.655156 -0.637089 0.406064
vn -0.655156 -0.637089 0.406064
vn -0.655156 -0.637089 0.406064
vn 0.024158 -0.636932 0.770542
vn 0.024158 -0.636932 0.770542
vn 0.024158 -0.636932 0.770542
vn 0.024158 -0.636932 0.770542
vn 0.679463 -0.636777 0.364479
vn 0.679463 -0.636777 0.364479
vn 0.679463 -0.636777 0.364479
vn 0.679463 -0.636777 0.364479
vn 0.655454 -0.636782 -0.406064
vn 0.655454 -0.636782 -0.406064
vn 0.655454 -0.636782 -0.406064
vn 0.655454 -0.636782 -0.406064
vn 0.000234 -1.000000 -0.000000
vn 0.000234 -1.000000 -0.000000
vn 0.000234 -1.000000 -0.000000
vn 0.000234 -1.000000 -0.000000
vn 0.000234 -1.000000 -0.000000
vn 0.000234 -1.000000 -0.000000
vn 0.000234 -1.000000 0.000000
vn 0.000234 -1.000000 0.000000
vn 0.000234 -1.000000 0.000000
vn 0.000234 -1.000000 0.000000
vn 0.000234 -1.000000 0.000000
vn 0.000234 -1.000000 0.000000
vn 0.000234 -1.000000 0.000000
vn 0.000234 -1.000000 0.000000
vn 0.000234 -1.000000 0.000000
vn 0.000234 -1.000000 0.000000
vn 0.000234 -1.000000 0.000000
vn 0.000234 -1.000000 0.000000
vn -0.014982 0.880277 -0.474223
vn -0.014982 0.880277 -0.474223
vn -0.014982 0.880277 -0.474223
vn -0.418281 0.880183 -0.224319
vn -0.418281 0.880183 -0.224319
vn -0.418281 0.880183 -0.224319
vn -0.403505 0.880187 0.249910
vn -0.403505 0.880187 0.249910
vn -0.403505 0.880186 0.249910
vn 0.014571 0.880284 0.474224
vn 0.014571 0.880284 0.474224
vn 0.014571 0.880284 0.474224
vn 0.417871 0.880380 0.224312
vn 0.417871 0.880380 0.224312
vn 0.417870 0.880380 0.224312
vn 0.403094 0.880375 -0.249909
vn 0.403094 0.880375 -0.249909
vn 0.403094 0.880375 -0.249909
vn -0.026488 0.532326 -0.846125
vn -0.026488 0.532326 -0.846125
vn -0.026488 0.532326 -0.846125
vn -0.026488 0.532326 -0.846125
vn -0.746072 0.532156 -0.400233
vn -0.746072 0.532156 -0.400233
vn -0.746072 0.532156 -0.400233
vn -0.746072 0.532156 -0.400233
vn -0.719707 0.532164 0.445896
vn -0.719707 0.532163 0.445896
vn -0.719707 0.532164 0.445896
vn -0.719707 0.532163 0.445896
vn 0.026240 0.532338 0.846125
vn 0.026240 0.532338 0.846125
vn 0.026240 0.532338 0.846125
vn 0.026240 0.532338 0.846125
vn 0.745824 0.532504 0.400232
vn 0.745824 0.532504 0.400232
vn 0.745824 0.532504 0.400232
vn 0.745824 0.532504 0.400232
vn 0.719461 0.532498 -0.445894
vn 0.719461 0.532499 -0.445894
vn 0.719461 0.532499 -0.445894
vn 0.719461 0.532498 -0.445894
vn -0.030763 0.163332 -0.986091
vn -0.030763 0.163332 -0.986091
vn -0.029803 0.297422 -0.954281
vn -0.029803 0.297422 -0.954281
vn -0.869379 0.163137 -0.466440
vn -0.869379 0.163137 -0.466440
vn -0.841366 0.297233 -0.451393
vn -0.841366 0.297233 -0.451393
vn -0.838654 0.163144 0.519657
vn -0.838654 0.163144 0.519657
vn -0.811632 0.297240 0.502893
vn -0.811632 0.297240 0.502893
vn 0.030687 0.163346 0.986091
vn 0.030687 0.163346 0.986091
vn 0.029664 0.297436 0.954281
vn 0.029664 0.297436 0.954281
vn 0.869304 0.163543 0.466437
vn 0.869304 0.163543 0.466437
vn 0.841229 0.297626 0.451390
vn 0.841229 0.297626 0.451390
vn 0.838579 0.163536 -0.519655
vn 0.838579 0.163536 -0.519655
vn 0.811495 0.297619 -0.502891
vn 0.811495 0.297619 -0.502891
vn 0.881177 0.000208 0.472787
vn 0.881177 0.000208 0.472787
vn 0.881177 0.000208 0.472787
vn 0.881177 0.000208 0.472787
vn 0.850034 0.000200 -0.526728
vn 0.850034 0.000200 -0.526728
vn 0.850034 0.000200 -0.526728
vn 0.850034 0.000200 -0.526728
vn -0.031143 -0.000007 -0.999515
vn -0.031143 -0.000007 -0.999515
vn -0.031143 -0.000007 -0.999515
vn -0.031143 -0.000007 -0.999515
vn -0.881176 -0.000207 -0.472789
vn -0.881176 -0.000207 -0.472789
vn -0.881176 -0.000207 -0.472789
vn -0.881176 -0.000207 -0.472789
vn -0.850033 -0.000200 0.526729
vn -0.850033 -0.000200 0.526729
vn -0.850033 -0.000200 0.526729
vn -0.850033 -0.000200 0.526729
vn 0.031143 0.000007 0.999515
vn 0.031143 0.000007 0.999515
vn 0.031143 0.000007 0.999515
vn 0.031143 0.000007 0.999515
vn -0.881176 -0.000205 -0.472789
vn -0.881176 -0.000205 -0.472789
vn -0.881176 -0.000205 -0.472789
vn -0.881176 -0.000205 -0.472789
vn -0.031143 -0.000006 -0.999515
vn -0.031143 -0.000006 -0.999515
vn -0.031143 -0.000006 -0.999515
vn -0.031143 -0.000006 -0.999515
vn 0.850034 0.000199 -0.526728
vn 0.850034 0.000199 -0.526728
vn 0.850034 0.000199 -0.526728
vn 0.850034 0.000199 -0.526728
vn 0.881177 0.000205 0.472786
vn 0.881177 0.000205 0.472786
vn 0.881177 0.000205 0.472786
vn 0.881177 0.000205 0.472786
vn 0.031143 0.000006 0.999515
vn 0.031143 0.000006 0.999515
vn 0.031143 0.000006 0.999515
vn 0.031143 0.000006 0.999515
vn -0.850034 -0.000199 0.526728
vn -0.850034 -0.000199 0.526728
vn -0.850034 -0.000199 0.526729
vn -0.850034 -0.000199 0.526728
vn 0.350290 0.917568 0.188059
vn 0.350290 0.917568 0.188059
vn 0.350290 0.917568 0.188059
vn 0.350290 0.917568 0.188059
vn 0.337906 0.917563 -0.209518
vn 0.337906 0.917563 -0.209518
vn 0.337906 0.917563 -0.209518
vn 0.337906 0.917563 -0.209518
vn -0.012602 0.917481 -0.397581
vn -0.012602 0.917481 -0.397581
vn -0.012602 0.917481 -0.397581
vn -0.012602 0.917481 -0.397581
vn -0.350721 0.917403 -0.188062
vn -0.350721 0.917403 -0.188062
vn -0.350721 0.917403 -0.188062
vn -0.350721 0.917403 -0.188062
vn -0.338329 0.917408 0.209515
vn -0.338329 0.917408 0.209515
vn -0.338329 0.917408 0.209515
vn -0.338329 0.917408 0.209515
vn 0.012173 0.917491 0.397571
vn 0.012173 0.917491 0.397571
vn 0.012173 0.917491 0.397571
vn 0.012173 0.917491 0.397571
vn 0.000234 -1.000000 -0.000000
vn 0.000234 -1.000000 -0.000000
vn 0.000234 -1.000000 -0.000000
vn 0.000234 -1.000000 -0.000000
vn 0.000234 -1.000000 -0.000000
vn 0.000234 -1.000000 -0.000000
vn 0.000234 -1.000000 -0.000000
vn 0.000234 -1.000000 -0.000000
vn 0.000234 -1.000000 -0.000000
vn 0.000234 -1.000000 -0.000000
vn 0.000234 -1.000000 -0.000000
vn 0.000234 -1.000000 -0.000000
vn 0.000234 -1.000000 -0.000000
vn 0.000234 -1.000000 -0.000000
vn 0.000234 -1.000000 -0.000000
vn 0.000234 -1.000000 -0.000000
vn 0.000234 -1.000000 -0.000000
vn 0.000234 -1.000000 -0.000000
vn 0.000234 -1.000000 -0.000000
vn 0.000234 -1.000000 -0.000000
vn 0.000234 -1.000000 -0.000000
vn 0.000234 -1.000000 -0.000000
vn 0.000234 -1.000000 -0.000000
vn 0.000234 -1.000000 -0.000000
vn -0.881132 0.010014 -0.472765
vn -0.881132 0.010015 -0.472765
vn -0.869379 0.163137 -0.466440
vn -0.869379 0.163137 -0.466440
vn -0.849990 0.010022 0.526704
vn -0.849990 0.010022 0.526704
vn -0.838654 0.163144 0.519657
vn -0.838654 0.163144 0.519657
vn 0.031139 0.010228 0.999463
vn 0.031139 0.010228 0.999463
vn 0.030687 0.163346 0.986091
vn 0.030687 0.163346 0.986091
vn 0.881128 0.010426 0.472762
vn 0.881128 0.010426 0.472762
vn 0.869304 0.163543 0.466437
vn 0.869304 0.163543 0.466437
vn 0.849986 0.010419 -0.526701
vn 0.849987 0.010419 -0.526701
vn 0.838579 0.163536 -0.519655
vn 0.838579 0.163536 -0.519655
vn -0.031144 0.010213 -0.999463
vn -0.031144 0.010213 -0.999463
vn -0.030763 0.163332 -0.986091
vn -0.030763 0.163332 -0.986091
s off
f 40/58/1 41/59/2 33/49/3 34/51/4
f 41/59/5 42/60/6 32/48/7 33/49/8
f 42/60/9 43/61/10 37/54/11 32/48/12
f 43/61/13 38/55/14 36/53/15 37/54/16
f 38/55/17 39/56/18 35/52/19 36/53/20
f 39/56/21 40/57/22 34/50/23 35/52/24
f 45/27/25 44/74/26 46/75/27
f 47/76/28 45/27/29 46/75/30
f 48/77/31 47/76/32 46/75/33
f 49/78/34 48/77/35 46/75/36
f 50/79/37 49/78/38 46/75/39
f 44/74/40 50/79/41 46/75/42
f 25/34/43 19/38/44 20/37/45
f 25/34/46 20/37/47 21/40/48
f 25/34/49 21/40/50 22/69/51
f 25/34/52 22/69/53 23/71/54
f 25/34/55 23/71/56 24/73/57
f 19/38/58 25/34/59 24/73/60
f 7/25/61 8/24/62 14/29/63 13/28/64
f 8/24/65 9/23/66 15/30/67 14/29/68
f 9/23/69 10/22/70 16/31/71 15/30/72
f 10/22/73 11/21/74 17/32/75 16/31/76
f 11/21/77 12/26/78 18/33/79 17/32/80
f 12/26/81 7/25/82 13/28/83 18/33/84
f 56/85/85 51/80/86 20/37/87 19/38/88
f 51/80/89 52/81/90 21/40/91 20/37/92
f 52/81/93 53/82/94 22/69/95 21/40/96
f 53/82/97 54/83/98 23/71/99 22/69/100
f 54/83/101 55/84/102 24/73/103 23/71/104
f 55/84/105 56/85/106 19/38/107 24/73/108
f 5/11/109 6/12/110 27/42/111 26/41/112
f 6/12/113 1/13/114 28/43/115 27/42/116
f 1/7/117 2/8/118 29/45/119 28/44/120
f 2/8/121 3/9/122 30/46/123 29/45/124
f 3/9/125 4/10/126 31/47/127 30/46/128
f 4/10/129 5/11/130 26/41/131 31/47/132
f 33/49/133 32/48/134 9/16/135 8/15/136
f 34/51/137 33/49/138 8/15/139 7/14/140
f 35/52/141 34/50/142 7/20/143 12/19/144
f 36/53/145 35/52/146 12/19/147 11/18/148
f 37/54/149 36/53/150 11/18/151 10/17/152
f 32/48/153 37/54/154 10/17/155 9/16/156
f 26/41/157 27/42/158 39/56/159 38/55/160
f 27/42/161 28/43/162 40/57/163 39/56/164
f 28/44/165 29/45/166 41/59/167 40/58/168
f 29/45/169 30/46/170 42/60/171 41/59/172
f 30/46/173 31/47/174 43/61/175 42/60/176
f 31/47/177 26/41/178 38/55/179 43/61/180
f 2/2/181 1/1/182 44/63/183 45/62/184
f 3/3/185 2/2/186 45/62/187 47/64/188
f 4/4/189 3/3/190 47/64/191 48/65/192
f 5/5/193 4/4/194 48/65/195 49/66/196
f 6/6/197 5/5/198 49/66/199 50/67/200
f 1/1/201 6/6/202 50/67/203 44/63/204
f 14/36/205 15/39/206 52/81/207 51/80/208
f 15/39/209 16/68/210 53/82/211 52/81/212
f 16/68/213 17/70/214 54/83/215 53/82/216
f 17/70/217 18/72/218 55/84/219 54/83/220
f 18/72/221 13/35/222 56/85/223 55/84/224
f 13/35/225 14/36/226 51/80/227 56/85/228
